<?xml version="1.0" encoding="utf-8"?>
<!-- Generator: Adobe Illustrator 16.0.0, SVG Export Plug-In . SVG Version: 6.00 Build 0)  -->
<!DOCTYPE svg PUBLIC "-//W3C//DTD SVG 1.1//EN" "http://www.w3.org/Graphics/SVG/1.1/DTD/svg11.dtd">
<svg version="1.1" xmlns="http://www.w3.org/2000/svg" xmlns:xlink="http://www.w3.org/1999/xlink" x="0px" y="0px" width="600px"
	 height="800px" viewBox="0 0 600 800" enable-background="new 0 0 600 800" xml:space="preserve">
<g id="Layer_0-0">
</g>
<g id="Layer_0-1">
</g>
<g id="Layer_0-2">
</g>
<g id="Layer_0-3">
</g>
<g id="Layer_0-4">
</g>
<g id="Layer_0-5">
</g>
<g id="Layer_0-6">
</g>
<g id="Layer_1">
</g>
<g id="Layer_2">
</g>
<g id="Layer_3">
</g>
<g id="Layer_4">
</g>
<g id="Layer_5">
</g>
<g id="Layer_6">
</g>
<g id="Layer_7">
</g>
<g id="Layer_8">
</g>
<g id="Layer_9">
</g>
<g id="Layer_10">
</g>
<g id="Layer_11">
</g>
<g id="Layer_12">
</g>
<g id="Layer_13">
</g>
<g id="Layer_14">
</g>
<g id="Layer_15">
</g>
<g id="Layer_16">
</g>
<g id="Layer_17_1_">
	<g>
		<path fill="#3E456D" d="M539.517-640.837c-1.734-9-9.832-14.51-17.84-13.908c-39.576,2.963-48.962,16.352-88.39,19.873
			c-9.872,0.885-16.87-3.258-22.81-9.625c-3.199-3.432-8.371-7.66-4.454-12.551c2.247-2.812,10.2-13.078,13.779-22.434
			c3.345-8.752,4.568-13.207,6.161-20.156c3.211-14.004,0.639-35.605-6.46-43.984c-11.224-13.25-9.831-17.172-25.737-19.123
			c-19.099-2.346-30.135,0.184-42.516,14.986c-9.436,11.287-14.291,15.939-15.122,32.994c-0.274,5.672,1.478,15.793,3.149,24.453
			c2.578,13.352,5.623,11.244,11.051,17.604c5.083,5.957,2.548,6.535,1.282,16.494c-0.812,6.422-10.771,13.545-14.728,18.762
			c-10.541,13.898-25.04,18.061-41.95,17.119c-11.226-0.627-22.319,1.359-33.087,3.34c-25.994,4.777-16.657-2.455-41.983-4.557
			c-15.368-1.277-43.299,4.135-57.35-0.943c-23.06-8.174-40.478-23.98-58.163-39.424c-5.609-4.9-8.99-10.59-8.759-18.328
			c0.363-12.102-9.582-40.969-11.176-38.016c-7.616,9.092-6.187,4.938-15.058,5.912c-5.047,0.555-9.067,11.863-9.103,18.059
			c-0.038,6.693-1.974,8.387,4.421,11.691c7.869,4.066,12.434,11.877,8.759,19.932c-3.146,6.898,2.404,10.527,6.438,14.654
			c7.307,7.48,11.777,15.051,19.847,21.729c19.709,16.305,25.879,33.469,23.323,55.838c8.259,3.41-0.268,15.395,2.614,21.547
			c58.055,123.909,51.675,111.663,58.164,159.845c2.096,15.59,43.787,33.6,44.043,49.416c-2.986,22.248,2.538,48.236,2.212,70.398
			c-0.147,9.877-0.681,66.697-3.247,80.844c-1.98,10.91-19.221,30.4-20.127,41.484c-1.701,20.842-12.281,31.908-14.471,52.688
			c-1.456,13.807-18.455,38.633-9.344,32.311c5.349-3.715,9.434,8.012,17.172,9.896c7.422,1.811,15.814-8.664,29.135-0.629
			c7.779,4.695,6.324-22.512,14.33-21.289l15.895,9.648c6.188-0.078,8.585,4.492,6.867,10.695
			c-1.289,4.646-2.061,9.537-0.317,13.912c2.392,6,1.683,11.441-0.138,17.303c-2.261,7.275,0.638,12.398,7.869,15.102
			c4.177,1.562,8.43,2.934,12.574,4.582c4.921,1.957,10.694,4.482,14.781,0.848c4.156-3.699,3.475-10.01,2.365-15.518
			c-0.098-0.486-0.218-0.969-0.295-1.459c-1.896-11.936-4.699-37.203-4.699-37.203c18.344,0.434,26.814,43.861,45.105,43.814
			c25.46-0.064,4.502,10.615,30.205,7.105c26.994-3.689,48.289-24.521,47.891-14.969c-0.807,19.301,37.971-10.695,57.757-16.434
			c6.235-1.812-4.961-5.371,3.886-7.572c7.578-1.879,12.824-4.398,9.854-13.209c-8.246-24.463-10.555-14.404-13.032-48.023
			c-0.596-8.082-0.43-13.717,3-19.865c8.814-15.781,12.184-12.328-0.587-27.928c-4.732-5.785-3.821-10.07,4.912-11.26
			c4.676-0.631-4.176-11.793,2.354-13.535c-17.455-14.775,6.177-17.393,8.301-31.115c2.495-16.115,5.201-27.541,13.219-41.768
			c3.859-6.854-8.318-20.783-0.589-24.914c5.954-3.182,8.157-4.854,3.693-11.207c-15.205-21.625,1.954-46.521-11.313-69.209
			c-3.979-6.799-13.233-13.193-9.692-19.852c9.718-18.289,8.948-64.492,2.861-82.143c-15.962-46.266,13.104-72.529-2.959-118.761
			c-0.593-1.701-9.702-22.594-9.796-24.453c-14.518,2.947-17.999,17.01-27.374,25.172c-4.846,4.213-9.892,9.283-8.493,16.85
			c4.276,14.973,13.314,68.165,14.51,83.37c4.707,59.887-4.967,119.902-7.508,179.914c-0.056,1.346-0.29,2.734-0.376,3.936
			c0.21,0.975,0.478,1.938,0.666,2.912c-0.672-0.555-0.757-1.625-0.666-2.912c-5.297-24.488-4.661-31.332-13.794-56.156
			c-2.733-7.42-12.222-27.898-13.217-35.408c-3.114-23.541-8.579-45.84-14.516-69.236c-4.27-16.828,1.351-31.832-2.274-49.531
			c-0.744-3.623,18.975-53.741,28.957-65.938c12.912-15.783,30.125-35.605,49.491-34.834c6.882,0.273-15.108,1.25-4.404,1.721
			c17.894-2.174,29.293-7.979,45.913-14.67C538.063-619.214,541.445-630.827,539.517-640.837z M286.202-445.318
			c-3.473,17.334-5.453,24.873-21.537,15.957C197.067-466.826,143.067-550.826,135.71-588.2c10.964,6.838,15.508,2.535,24.64,10.781
			c9.659,8.717,38.335-6.395,51.868-5.768c30.047,1.393,25.719,5.516,55.711,8.002c4.176,0.346,7.59,0.074,9.934,5.596
			C294.177-531.166,294.378-486.156,286.202-445.318z"/>
	</g>
</g>
<g id="Layer_18_1_">
</g>
<g id="Layer_19">
</g>
<g id="Layer_20">
</g>
<g id="Layer_21">
</g>
<g id="Layer_22">
</g>
<g id="Layer_23">
</g>
<g id="Layer_10_copy">
</g>
<g id="Layer_11_copy">
</g>
<g id="Layer_12_copy">
</g>
<g id="Layer_13_copy">
	<g>
		<path fill-rule="evenodd" clip-rule="evenodd" fill="#3E456D" d="M173.536,129.616c-5.599-1.359-13.587-6.283-14.941-14.62
			c-1.292-7.945-5.155-11.362-8.934-16.227c-11.302-14.563-11.285-23.712,1.313-41.186c8.576-11.892,15.616-10.412,27.506-16.132
			c14.668-7.056,22.793-3.837,33.682,8.285c8.301,9.241,6.066,19.712,15.888,29.93c3.382,3.518,3.073,12.061,5.845,19.101
			c4.215,10.71-0.956,12.627-6.815,15.536c0,0-4.871,1.324-4.265,2.384c3.396,5.938,24.752,7.271,37.55,7.738
			c20.274-3.773,98.113,52.151,101.63,67.091c4.249,18.056-54.014,53.712-54.345,59.213c-0.813,13.469-0.608,26.953-3.295,40.346
			c-2.337,11.639-4.286,23.558-4.454,35.382c-0.316,22.218,0.871,44.458,1.257,66.691c1.097,63.277,11.034,125.386,24.337,187.076
			c3.951,18.33,17.851,63.469,19.895,82.287c1.903,17.556-1.126,35.301,2.992,52.64c3.157,13.288,4.061,27.245,3.159,26.386
			c-3.421-3.265-32.217-1.852-34.772-10.992c-2.32-8.295,1.775-15.318,7.889-20.856c2.057-1.866,4.085-3.766,2.396-6.142
			c-1.594-2.242-3.563-0.751-5.244,1.124c-3.634,4.051-5.456-0.392-7.343-2.163c-6.056-5.685-11.313-5.551-14.643,2.291
			c-1.738,4.089-3.874-5.011-7.277-5.705c-12.318-2.514-22.263,5.876-17.952,17.952c5.146,14.426,12.551,8.604,18.212,22.845
			c0.23,0.584,0.517-0.739,0.772-0.164c2.902,6.507,5.5,3.748,1.384,9.479c-4.045,5.633-11.89,4.113-18.523,3.059
			c-5.585-0.886-11.228-1.404-16.833-2.173c-9.697-1.334-25.088,1.624-24.312-8.01c0.622-7.758-0.955,3.769-5.58-2.991
			c-3.376-4.927-3.779-11.194-3.476-17.301c0.404-8.15-3.834-13.141-11.469-11.326c-7.556,1.798-14.188-1.509-21.371-1.363
			c-5.9,0.12-6.059-5.679-5.285-10.076c1.217-6.887-1.479-7.97-7.675-7.098c-9.189,1.291-0.897,3.625-7.855-5.825
			c-0.451-0.614-1.789-1.089-2.535-0.905c-12.432,3.07-12.07-3.875-19.817-11.635c-11.189-11.206-11.521-98.233,1.907-110.639
			c16.226-14.99,30.82-31.442,38.753-52.629c4.188-11.182-4.078-23.193-0.401-34.614c5.088-15.811,10.583-31.469,18.868-45.705
			c6.655-11.436,6.829-23.643,6.314-35.424c-1.245-28.549-7.848-54.913,11.375-78.632c21.572-26.612,18.922-51.604-5.107-77.169
			c-52.93-14.693-27.769-41.739-95.56-37.806c-10.43,0.605-6.214-17.032-1.365-26.148c3.741-7.033,14.113-17.604,17.659-13.166
			c5.793,7.251,13.835,14.908,21.562,13.1c11.877-2.778,13.267-12,19.378-22.141c6.889-11.426,7.277-16.667,3.236-20.818
			C186.85,131.77,177.203,130.507,173.536,129.616z"/>
		<path fill-rule="evenodd" clip-rule="evenodd" fill="#3E456D" d="M193.551,378.537c8.143,13.383,11.951,49.538,20.42,36.503
			c4.08-6.278,33.036,40.063,40.45,36.683c5.714-2.604,7.868-4.041,4.268-10.465c-12.262-21.861-0.451-4.016-10.848-26.751
			c-3.119-6.818-2.439-12.93,1.329-19.047c10.349-16.799,11.282-41.552-45.6-113.18c-51.507-64.86-45.534-86.986-45.477-88.776
			C144.543,195.242,138.408,287.907,193.551,378.537z"/>
		<path fill-rule="evenodd" clip-rule="evenodd" fill="#D14C43" d="M480.558,769.121c-2.475-8.557-0.981-17.523-2.832-26.121
			c-0.122-0.57-0.96-1.278-0.812-1.571c6.868-13.376-3.938-22.445-8.27-32.643c-6.953-16.37-11.686-33.696-13.618-50.786
			c-3.326-29.451-9.32-57.544-23.237-83.708c0,0-19.459-35.358-19.253-41.15c0.743-20.83-1.467-40.651-0.661-62.312
			c0.041-1.074,5.615-69.073,2.338-86.453c-5.257-27.869-9.326-38.308-22.395-63.391c-3.645-6.993-2.106-14.266-1.091-21.574
			c5.983-43.011,12.389-86.011,6.879-129.654c-1.259-9.975-1.594-20.485-7.552-28.896c-17.252-24.363-14.406-27.656-15.337-41.893
			c-0.569-8.664,11.219-15.168,15.359-22.339c4.406-7.628,9.272-14.951,11.123-23.812c5.259-25.18-5.314-42.918-32.383-50.061
			c-3.464-0.914-6.918-2.076-10.483-2.404c-27.002-2.484-33.571,8.423-44.72,23.8c-2.908,4.009-2.429,7.158-2.738,12.633
			c-0.224,3.947,0.728,4.707-5.106,10.707c-2.252,2.315-5.497,2.837-5.115,6.938c3.738,12.438-1.707,18.018-2.846,26.681
			c-1.413,10.732,3.406,15.008,12.247,17.318c4.959,1.298,20.919,4.231,16.739,17.877c-1.837,5.994-44.115,27.485-44.73,37.284
			l-22.605,19.151c-13.21,2.605-79.146,10.101-88.208,2.514c-1.548-1.295-4.626-0.679-6.995-0.947
			c-1.367,0.824-6.465-0.763-7.168-3.472c-1.504-5.782-6.681-1.805-5.31,2.994c1.005,3.521,0.956,7.558-1.496,9.986
			c-2.403,2.373-6.264,6.016-8.563,2.668c-4.975-7.234-8.287-0.063-13.635-5.663c-1.87-1.958-5.105-5.133-6.69-1.84
			c-2.67,5.544-2.407,12.489-1.72,18.812c0.485,4.461,2.516,7.962,6.006,8.585c7.544,1.347,15.077,2.963,22.677,3.632
			c3.026,0.266,6.846-1.098,10.714-3.319c6.575,9.574,26.844,20.289,31.402,18.367c18.396-6.859,74.071,19.369,83.421,15.523
			c7.052-2.902,9.386,17.36,9.972,25.872c2.448,35.484-0.347,70.928,0.272,106.363c0.382,21.922,2.228,43.882,7.687,65.318
			l44.92,274.076c3.137,7.484,2.503,16.399-2.9,20.977c-8.906,7.547-15.324,6.404-16.128,6.706
			c-6.164,2.322-11.532-0.623-15.276,9.009c-2.84,7.298-0.547,11.057,4.641,11.314c21.724,1.078,30.005,6.293,55.043,4.782
			c1.922-0.735,4.432-2.464,5.489-0.16c3.225,7.022,12.081,5.457,18.438,6.339c0.391,0.056,0.789,0.111,1.188,0.165
			c-6.538,4.453-13.429,8.215-21.991,8.691c-4.709,0.264-4.738,3.774-2.79,7.396c4.196,7.8,11.856,10.87,19.373,11.735
			c19.112,2.197,37.874,0.518,54.646-10.775c2.275-1.53,4.548-2.969,6.009-5.398c2.322-3.86,3.343-3.094,7.718-0.934
			c8.928,4.406,17.009-4.825,26.034-6.236C478.746,775.432,481.629,772.822,480.558,769.121z M404.275,759.834
			c-0.212-1.708-0.289-3.399,0.139-4.918c0.761-2.717,1.201-5.418,1.404-8.108c0.925,0.384,1.656,1.136,2.041,2.593
			C408.877,753.254,407.83,757.336,404.275,759.834z"/>
	</g>
</g>
<g id="Layer_14_copy">
</g>
<g id="Layer_15_copy">
</g>
<g id="Layer_16_copy">
</g>
<g id="Layer_17_copy">
</g>
<g id="Layer_18_copy">
</g>
<g id="Layer_19_copy">
</g>
<g id="Layer_20_copy">
</g>
<g id="Layer_21_copy">
</g>
<g id="Layer_22_copy">
</g>
<g id="Layer_23_copy">
</g>
<g id="Layer_24">
</g>
<g id="Layer_25">
</g>
<g id="Layer_26">
</g>
<g id="Layer_27">
</g>
<g id="Layer_0-6_copy">
</g>
<g id="Layer_0-5_copy">
</g>
<g id="Layer_0-4_copy">
</g>
<g id="Layer_0-3_copy">
</g>
<g id="Layer_0-2_copy">
</g>
<g id="Layer_0-1_copy">
</g>
<g id="Layer_0-0_copy">
</g>
</svg>
