<?xml version="1.0" encoding="utf-8"?>
<!-- Generator: Adobe Illustrator 16.0.0, SVG Export Plug-In . SVG Version: 6.00 Build 0)  -->
<!DOCTYPE svg PUBLIC "-//W3C//DTD SVG 1.1//EN" "http://www.w3.org/Graphics/SVG/1.1/DTD/svg11.dtd">
<svg version="1.1" xmlns="http://www.w3.org/2000/svg" xmlns:xlink="http://www.w3.org/1999/xlink" x="0px" y="0px" width="600px"
	 height="800px" viewBox="0 0 600 800" enable-background="new 0 0 600 800" xml:space="preserve">
<g id="Layer_0-0">
</g>
<g id="Layer_0-1">
</g>
<g id="Layer_0-2">
</g>
<g id="Layer_0-3">
</g>
<g id="Layer_0-4">
</g>
<g id="Layer_0-5">
</g>
<g id="Layer_0-6">
</g>
<g id="Layer_1">
</g>
<g id="Layer_2">
</g>
<g id="Layer_3">
</g>
<g id="Layer_4">
</g>
<g id="Layer_5">
</g>
<g id="Layer_6">
</g>
<g id="Layer_7">
</g>
<g id="Layer_8">
	<g>
		<path fill-rule="evenodd" clip-rule="evenodd" fill="#D14C43" d="M376.494,204.375c-9.096,8.576-19.232,12.297-31.978,12.914
			c-28.299,1.371-56.515,4.503-84.763,6.949c-3.934,0.34-7.149,0.073-9.354,5.504c-15.367,37.797-20.171,76.537-12.469,116.711
			c3.271,17.05,8.229,32.484,23.744,24.439c8.22-4.263,17.495,6.922,23.985,0.461c14.93-14.86,34.312,16.968,47.97,0.927
			c5.423-6.374,2.728-90.431,5.121-98.305c0.733-5.374,1.247-10.79,2.241-16.116c5.787-31.079,5.825-31.072,36.301-35.523
			c22.297-5.654,51.426-10.559,58.582-25.336C442.947,164.713,385.096,196.265,376.494,204.375z"/>
		<path fill-rule="evenodd" clip-rule="evenodd" fill="#D14C43" d="M362.462,160.96c56.038,36.502-4.548,30.641-23.758,34.196
			c-34.888,6.456-133.862,55.771-167.946,50.737c-40.591-5.997-55.349-24.446-43.356-58.118c5.51-6.107,59.888-36.772,69.982-38.254
			c21.548-3.156,28.128-27.647,29.504-45.166c0.706-8.989-13.978-18.77-17.765-27.719c-3.377-7.974-5.547-14.598-6.274-23.291
			c-1.39-16.551,0.849-34.988,15.484-44.939c15.544-10.566,28.832-10.541,46.619-3.432c16.301,6.516,20.578,23.06,25.237,38.564
			c4.275,14.227,0.252,27.307-0.713,42.159c-0.624,9.587-5.603,9.583-8.191,17.56c-2.133,6.566-2.441,1.312,1.262,19.327
			c4.095,19.931,18.197,18.564,30.577,21.907C329.711,148.969,347.018,152.627,362.462,160.96z"/>
		<path fill-rule="evenodd" clip-rule="evenodd" fill="#D14C43" d="M442.85,193c-1.674-1.282-6.104,0.225-5.115-2.135
			c7.285-17.377-12.354-13.836,7.078-24.736c11.553-6.48,22.787-13.537,34.055-20.508c1.926-1.192,5.387-1.703,3.87-5.666
			c-4.985-13.011,1.388-23.055,16.555-24.924c5.358-0.662,5.274-11.553,12.998-6.168c14.769,8.645,14.973,11.156,1.942,21.208
			c-2.881,2.222-6.17,4.139-8.947,6.288c-11.859,9.168-19.699,14.411-24.434,28.463c-15,25.486,0.697,8.779-20.895,24.555
			C452.014,192.191,455.516,193.871,442.85,193z"/>
		<path fill-rule="evenodd" clip-rule="evenodd" fill="#3E456D" d="M501.705,99.383c-8.355-0.959-17.714,11.412-18.633-4.954
			c-6.156,14.929-11.758,14.421-11.416,26.326c0.219,7.612-2.077,13.209-7.359,18.03c-16.656,15.191-14.611,12.288-36.332,20.33
			c-13.231,4.994-21.743,18.259-36.217,19.513c-23.855,2.068-15.059,9.184-39.543,4.483c-10.141-1.948-20.592-3.901-31.164-3.285
			c-15.928,0.926-29.583-3.17-39.511-16.842c-3.726-5.131-13.108-12.139-13.874-18.455c-1.189-9.798-0.02-10.365,4.768-16.225
			c5.113-6.258,4.422-4.182,6.851-17.318c1.575-8.519,3.226-18.473,2.966-24.055c-0.782-16.775-1.797-24.141-10.687-35.242
			c-11.659-14.562-25.612-17.05-43.601-14.744c-14.982,1.922-18.119,6.707-28.689,19.743c-6.686,8.241-10.889,34.138-7.865,47.913
			c1.499,6.836,2.652,11.219,5.806,19.828c3.369,9.203,17.088,16.512,19.206,19.278c3.687,4.812-1.184,8.972-4.195,12.347
			c-5.594,6.265-12.186,10.338-21.483,9.469c-37.138-3.464-60.083-15.713-97.358-18.627c-7.544-0.592-15.171,4.829-16.803,13.684
			c-1.816,9.846,5.815,13.834,13.022,16.864c15.655,6.581,17.331,16.959,34.184,19.099c10.083-0.465,8.271-4.162,14.571-2.616
			c56.396,13.837,36.783,24.481,46.615,37.034c9.399,11.999,22.357,29.795,16.801,38.502c-0.101,3.712,9.775,22.799,10.475,26.361
			c3.416,17.412,1.877,32.172-2.145,48.725c-5.591,23.016-10.738,44.949-13.672,68.107c-0.938,7.389-9.875,27.533-12.448,34.834
			c-8.604,24.417-8.004,31.148-12.995,55.238c0.087,1.267,0.008,2.318-0.627,2.865c0.181-0.959,0.432-1.906,0.627-2.865
			c-0.079-1.18-0.472-2.549-0.354-3.869c8.615-96.877,6.949-121.93,19.61-176.982c3.362-14.618-0.263-30.246,3.766-44.973
			c1.32-7.443-2.436-12.432-6.998-16.577c-8.83-8.028-1.883-31.087-15.559-33.985c-0.088,1.828,0.232,22.244-0.326,23.918
			c-15.129,45.479,2.899,71.518-12.131,117.031c-5.733,17.359-15.687,34.93-6.531,52.922c3.333,6.549,3.515,12.838-0.23,19.527
			c-12.498,22.316,4.768,46.809-9.555,68.082c-4.205,6.248-0.712,28.789,2.924,35.529c7.551,13.996-8.352,25.238-6.002,41.09
			c2,13.498,5.633,43.3,10.034,43.922c8.229,1.17-4.227,41.612,4.074,57.137c3.23,6.047,3.389,11.591,2.827,19.541
			c-2.336,33.07,5.047,23.381-2.723,47.447c-2.799,8.664,2.145,11.142,9.281,12.994c8.331,2.164-2.213,5.664,3.66,7.445
			c18.637,5.646,36.053,16.564,35.292-2.424c-0.375-9.394,19.354,11.099,44.781,14.727c24.208,3.452,4.466-7.053,28.45-6.988
			c17.227,0.045,25.205,22.18,42.483,21.752c11.958-0.299,15.505-13.08,26.708-13.023c0.582,0.003,9.273-4.753,10.896-4.795
			c11.945-0.307,6.409,7.007,14.104,5.777c7.538-1.205,6.171,1.396,13.499-3.222c12.545-7.906,20.448,2.397,27.441,0.617
			c7.287-1.854,11.135-13.388,16.172-9.737c0.732,0.531,24.823-10.652,20.621-23.818c-4.892-15.336-27.752-37.894-29.421-54.434
			c-2.062-20.439-10.877-40.752-13.632-61.121c-0.236-10.938-3.264-21.553-3.825-32.447c-4.07-13.488-6.983-27.355-12.563-40.349
			c-3.709-8.632-2.77-14.739,7.075-18.103c9.393-3.209,13.245-10.428,13.104-20.143c-0.307-21.799,5.787-43.433,2.975-65.316
			c0.241-15.558-0.994-31.307,0.982-46.643c8.184-63.467,49.428-117.508,49.848-181.73c0.043-6.683,0.334-13.906,8.115-17.261
			c-2.408-22.005-19.761-24.37-1.195-40.41c7.602-6.569,14.479-14.017,21.363-21.375c3.799-4.059,6.357-7.629,3.393-14.415
			c-3.463-7.924,0.838-15.605,8.251-19.607c6.023-3.251,10.081-7.573,13.062-13.374C511.908,99.729,506.457,99.928,501.705,99.383z
			 M392.182,313.182c-11.095,22.197-17.304,12.542-32.232,27.402c-6.488,6.461-4.023,13.615-12.244,17.877
			c-15.515,8.045-15.168-17.1-18.439-34.15c-7.702-40.173-7.511-56.771,7.856-94.568c2.205-5.431,5.421-5.164,9.354-5.504
			c28.248-2.446,24.173-6.501,52.471-7.873c12.746-0.616,21.961-4.336,31.056-12.912c8.603-8.111,7.232-3.878,17.559-10.604
			C442.789,202.704,398.324,300.893,392.182,313.182z"/>
		<path fill-rule="evenodd" clip-rule="evenodd" fill="#D14C43" d="M129.562,217.35c-3.78-7.621-0.194-6.43,4.991-7.139
			c22.617-3.094,60.475,6.733,79.085,23.938c13.7,12.667,16.789,12.569,28.419,9.249c14.607-4.172,22.177,9.324,33.205,14.9
			c0.695,0.354,0.808,2.971,0.661,3.131c-9.697,10.656,3.998,10.602,10.968,15.451c4.35,3.027,9.312,3.006,10.869,7.994
			c1.447,4.641,1.729,11.158-0.549,15.055c-2.734,4.674-18.749-0.188-22.51-0.51c-9.779-0.836-14.715-6.817-21.461-11.697
			c-6.186-4.475-12.275-8.738-20.662-8.7c-4.01,3.772-3.228,1.938-8.921,5.684c-8.312,5.468-17.809,7.392-26.677-6.632
			c-12.706-11.051-43.34-32.328-56.046-43.379C135.024,230.303,130.416,225.055,129.562,217.35z"/>
		<path fill-rule="evenodd" clip-rule="evenodd" fill="#3E456D" d="M170.624,498.859c-2.391-59.034,7.949-121.93,20.61-176.982
			c3.362-14.618,3.737-80.246,7.766-94.973c1.32-7.443-3.436-12.432-7.998-16.577c-8.83-8.028-1.883-21.087-15.559-23.985
			c-0.088,1.828-0.945,22.195-1.326,23.918c-23.826,107.889-2.359,81.889-15.131,157.031c-3.063,18.023-15.687,34.93-6.531,52.922
			c3.333,6.549,3.515,12.838-0.23,19.527c-12.498,22.316,4.768,46.809-9.555,68.082C138.465,514.07,170.678,500.184,170.624,498.859
			z"/>
	</g>
</g>
<g id="Layer_9">
</g>
<g id="Layer_10">
</g>
<g id="Layer_11">
</g>
<g id="Layer_12">
</g>
<g id="Layer_13">
</g>
<g id="Layer_14">
</g>
<g id="Layer_15">
</g>
<g id="Layer_16">
</g>
<g id="Layer_17_1_">
</g>
<g id="Layer_18_1_">
	<g>
		<path fill-rule="evenodd" clip-rule="evenodd" fill="#D14C43" d="M218.262,1559.148c-1.101,7.221-4.148,14.08-3.388,21.666
			c0.627,6.242-1.972,9.453-7.875,11.227c-8.096,2.434-1.085,4.031-9.366,5.219c-11.137,2.77-22.273,4.435-33.413,0.017
			c-7.862-2.795-7.406-9.661-6.015-16.032c2.073-9.497,11.552-183.845,10.807-192.29c-7.061-80.073-1.25-42.523-3.928-89.396
			c-3.577-62.6-3.892-101.556,6.184-132.807c4.073-12.639,7.852-25.253,7.11-38.983c-0.652-12.034,4.562-23.112,5.783-34.912
			c2.586-25.009-5.312-49.019-15.013-71.951c-2.618-6.189-6.916-10.802-13.092-12.83c-7.293-2.394-11.469-7.796-13.73-15.283
			c-24.873-10.021-50.566-17.909-73.717-32.427c-2.121-1.329-4.103-2.972-5.992-4.67c-12.574-11.302-17.412-16.434,0.109-29.464
			c18.754-13.944,38.789-18.807,61.041-14.786c3.229,0.582,6.548,0.575,9.783,0.838c1.225-3.934-2.302-5.385-2.721-8.23
			c-0.711-4.831-0.081-9.205,1.581-13.849c1.815-5.083,9.642,0.165,9.163-6.36c-0.38-5.193-1.684-9.572,5.397-9.494
			c1.179,0.013,3.035-1.92,3.677-0.59c4.634,9.603,17.766,12.736,17.275,26.259c-0.081,2.267,0.923,4.579,1.427,6.871
			c2.61,8.373,1.671,16.124-3.504,23.134c-0.901,1.116-3.098,0.493-3.081,2.71c17.779,1.087,26.836-1.904,44.489-0.967
			c14.083-4.026,14.09-16.419,20.396-28.658c3.786-7.349,0.088-15.038-2.239-22.194c-3.333-10.262-7.75-19.973-8.82-31.156
			c-3.323-34.75,27.188-54.411,51.745-48.813c27.099,6.176,33.434,18.083,40.201,43.151c0.291,1.08,0.283,2.521,0.076,3.414
			c-2.144,9.226-2.673,11.191,1.27,16.411c2.947,3.903,1.96,6.723-0.884,10.625c-2.152,2.955-1.89,3.845-1.908,6.382
			c-0.048,6.526-0.304,12.125,0.085,18.625c0.438,7.299-3.329,9.334-9.052,9.434c-2.763,0.047-5.542-0.348-8.288-0.15
			c-3.797,0.274-9.458,0.962-9.811,5.352c-0.393,4.883-4.043,11.697,3.02,15.438c1.925,1.019,2.498,3.525,1.887,5.469
			c-2.31,7.349,2.281,10.838,6.668,14.44c4.365,3.583,9.113,4.802,13.225,8.681c7.57,7.145,16.977,2.171,25.223,4.973
			c12.688,4.311,27.092-5.445,38.623,2.816c7.434,5.325,72.566,41.117,78.919,42.679c7.698,1.89,15.71,2.896,22.212,8.433
			c0.24,6.179-4.708,5.832-8.035,6.847c-17.648,5.38-35.869,6.386-54.041,8.113c-21.924,2.085-43.082,12.133-63.001,3.356
			c-22.037-0.259-21.731,5.039-23.348,22.246c-0.579,6.162-2.134,19.124-1.165,25.41c0.123,0.999,0.033,1.98-0.205,2.949
			c-1.676,3.688-3.896,7.112-3.713,11.578c0.85,20.797-8.971,41.453-8.538,62.259c0.2,9.601-8.171,18.859-5.412,28.022
			c2.116,7.025,2.35,14.752,4.167,21.646c3.195,12.114,6.281,24.005,8.022,36.559c1.027,7.407-7.114,96.116-9.669,127.233
			c-2.502,23.879-3.704,43.896-8.963,65.572c-3.552,14.639-5.549,29.366-6.524,44.239c-0.364,5.561-4.735,37.123,0.476,43.668
			c2.366,2.971,10.285,7.2,13.026,14.611c4.921,13.297,4.737,15.448,4.675,29.817c-0.022,4.917,1.369,12.24-7.029,13.839
			c-1.394,0.347-2.193-0.675-4.052-0.159c-9.181-7.203-19.987-8.149-26.85-18.425c-3.555-4.08-6.606-13.144-23.009-12.834
			c-19.557,0.369-24.504-9.863-22.25-28.539c1.888-15.637,5.914-31.496,1.721-47.072L218.262,1559.148z"/>
	</g>
</g>
<g id="Layer_19">
</g>
<g id="Layer_20">
</g>
<g id="Layer_21">
</g>
<g id="Layer_22">
</g>
<g id="Layer_23">
</g>
<g id="Layer_10_copy">
</g>
<g id="Layer_11_copy">
</g>
<g id="Layer_12_copy">
</g>
<g id="Layer_13_copy">
</g>
<g id="Layer_14_copy">
</g>
<g id="Layer_15_copy">
</g>
<g id="Layer_16_copy">
</g>
<g id="Layer_17_copy">
</g>
<g id="Layer_18_copy">
</g>
<g id="Layer_19_copy">
</g>
<g id="Layer_20_copy">
</g>
<g id="Layer_21_copy">
</g>
<g id="Layer_22_copy">
</g>
<g id="Layer_23_copy">
</g>
<g id="Layer_24">
</g>
<g id="Layer_25">
</g>
<g id="Layer_26">
</g>
<g id="Layer_27">
</g>
<g id="Layer_0-6_copy">
</g>
<g id="Layer_0-5_copy">
</g>
<g id="Layer_0-4_copy">
</g>
<g id="Layer_0-3_copy">
</g>
<g id="Layer_0-2_copy">
</g>
<g id="Layer_0-1_copy">
</g>
<g id="Layer_0-0_copy">
</g>
</svg>
