<?xml version="1.0" encoding="utf-8"?>
<!-- Generator: Adobe Illustrator 16.0.0, SVG Export Plug-In . SVG Version: 6.00 Build 0)  -->
<!DOCTYPE svg PUBLIC "-//W3C//DTD SVG 1.1//EN" "http://www.w3.org/Graphics/SVG/1.1/DTD/svg11.dtd">
<svg version="1.1" xmlns="http://www.w3.org/2000/svg" xmlns:xlink="http://www.w3.org/1999/xlink" x="0px" y="0px" width="600px"
	 height="800px" viewBox="0 0 600 800" enable-background="new 0 0 600 800" xml:space="preserve">
<g id="Layer_0-0">
</g>
<g id="Layer_0-1">
</g>
<g id="Layer_0-2">
</g>
<g id="Layer_0-3">
</g>
<g id="Layer_0-4">
</g>
<g id="Layer_0-5">
</g>
<g id="Layer_0-6">
</g>
<g id="Layer_1">
</g>
<g id="Layer_2">
</g>
<g id="Layer_3">
</g>
<g id="Layer_4">
</g>
<g id="Layer_5">
</g>
<g id="Layer_6">
</g>
<g id="Layer_7">
</g>
<g id="Layer_8">
</g>
<g id="Layer_9">
</g>
<g id="Layer_10">
</g>
<g id="Layer_11">
</g>
<g id="Layer_12">
</g>
<g id="Layer_13">
</g>
<g id="Layer_14">
</g>
<g id="Layer_15">
</g>
<g id="Layer_16">
</g>
<g id="Layer_17_1_">
</g>
<g id="Layer_18_1_">
</g>
<g id="Layer_19">
</g>
<g id="Layer_20">
</g>
<g id="Layer_21">
</g>
<g id="Layer_22">
</g>
<g id="Layer_23">
</g>
<g id="Layer_10_copy">
</g>
<g id="Layer_11_copy">
</g>
<g id="Layer_12_copy">
</g>
<g id="Layer_13_copy">
</g>
<g id="Layer_14_copy">
</g>
<g id="Layer_15_copy">
	<g>
		<path fill-rule="evenodd" clip-rule="evenodd" fill="#E8252A" d="M417.102,760.055c0.635-4.363,1.271-8.729,1.908-13.088
			c1.871,1.178,5.205,2.199,5.344,3.551c0.428,4.18,7.424,6.51,4.143,10.637C425.318,765.154,420.916,761.057,417.102,760.055z"/>
		<path fill-rule="evenodd" clip-rule="evenodd" fill="#E8252A" d="M426.549,708.949c-0.105-3.073-0.496-6.171-0.24-9.215
			c0.303-3.633,2.314-1.332,3.729-0.764c-0.836,2.987-1.654,5.978-2.453,8.974c-0.078,0.295,0.027,0.642-0.051,0.937
			C427.25,709.951,426.904,709.968,426.549,708.949z"/>
		<path fill-rule="evenodd" clip-rule="evenodd" fill="#3E456D" d="M213.172,121.701c-5.775-1.402-14.016-6.481-15.412-15.08
			c-1.332-8.195-5.318-11.72-9.215-16.737c-11.658-15.021-11.639-24.457,1.355-42.479c8.844-12.266,16.105-10.741,28.369-16.64
			c15.129-7.277,23.51-3.957,34.742,8.545c8.562,9.533,6.256,20.332,16.387,30.872c3.488,3.628,3.17,12.438,6.029,19.701
			c4.348,11.046-0.986,13.023-7.029,16.023c0,0-5.025,1.366-4.4,2.46c3.504,6.124,12.699,6.897,21.785,5.325
			c12.191-2.11,23.826,8.278,42.533,9.571c23.404-3.509,28.68,1.672,47.551,4.877c19.227,3.263-22.119,5.45-24.939,9.885
			c-2.934,4.378-7.021-0.05-11.223,3.056c-7.543,5.575-7.301,4.533,0.369,9.603c1.611,1.065,8.025,0.848,11.654,16.257
			c4.383,18.623,0.115,74.01-0.229,79.684c-0.836,13.892-0.625,27.8-3.398,41.613c-2.408,12.005-4.42,24.301-4.594,36.496
			c-0.328,22.919,0.9,45.857,1.297,68.79c1.131,65.267,11.381,129.328,25.102,192.958c4.076,18.908,9.109,37.553,11.215,56.964
			c1.967,18.107-1.16,36.411,3.088,54.294c3.256,13.707,1.648,26.918-3.84,39.769c-0.875-0.944-1.705-1.935-2.633-2.821
			c-3.529-3.366-7.594-7.736-12.361-6.184c-4.723,1.535-5.725,7.184-5.822,12.186c-0.012,0.649,0.088,1.34-0.1,1.938
			c-0.783,2.51,0.156,6.636-4.434,5.961c-4.295-0.633-5.08-4.221-3.826-7.447c3.584-9.219,3.043-18.094,0.406-27.521
			c-2.393-8.557,1.834-15.801,8.137-21.514c2.123-1.924,4.215-3.883,2.473-6.334c-1.641-2.313-3.674-0.775-5.408,1.159
			c-3.748,4.178-5.627-0.403-7.574-2.231c-6.246-5.862-11.668-5.725-15.104,2.364c-1.791,4.216-3.994,4.134-7.504,3.419
			c-12.707-2.593-23.936,9.953-19.49,22.409c5.307,14.88,11.543,29.428,17.383,44.116c0.238,0.604,0.531,1.185,0.797,1.777
			c2.992,6.713,5.674,14.571,1.426,20.481c-4.172,5.812-12.264,4.243-19.105,3.156c-5.76-0.915-11.582-1.448-17.361-2.242
			c-10.002-1.376-15.17-7.083-14.371-17.019c0.643-8.002-0.012-15.15-4.783-22.122c-3.48-5.082-3.896-11.547-3.584-17.845
			c0.418-8.408-3.955-13.555-11.828-11.682c-7.793,1.854-14.635-1.558-22.043-1.406c-6.086,0.123-6.25-5.857-5.451-10.393
			c1.254-7.104-1.527-8.222-7.918-7.321c-9.479,1.331-19.535,3.738-26.709-6.009c-0.469-0.635-1.846-1.124-2.615-0.934
			c-12.824,3.166-21.754-3.997-29.744-12.001c-11.541-11.558-28.061-13.916-40.717-23.231c-0.748-0.551-2.125-0.44-2.635-1.089
			c-3.975-5.042-13.293-5.93-12.369-14.636c0.887-8.378,9.029-6.654,14.168-9.173c6.664-3.266,13.463-6.572,16.57-14.072
			c7.508-18.117,22.402-29.817,36.252-42.613c16.736-15.461,31.789-32.431,39.973-54.284c4.316-11.533,5.098-23.922,8.891-35.701
			c5.246-16.308,10.914-32.459,19.461-47.144c6.863-11.795,7.043-24.386,6.512-36.537c-1.283-29.446,1.209-56.639,21.039-81.104
			c22.25-27.452,19.516-53.23-5.27-79.599c-6.529-6.947-37.426-10.069-42.115-29.262c-2.559-10.468,3.312-21.188,3.457-31.836
			c0.133-9.848,1.527-19.288,3.994-28.746c3.471-13.314,2.639-16.218-1.529-20.499C226.902,123.922,216.953,122.619,213.172,121.701
			z"/>
		<path fill-rule="evenodd" clip-rule="evenodd" fill="#D14C43" d="M455.129,493.994c-4.428,26.752-0.562,14.325-4.297,41.178
			c-2.816,20.245-2.125,40.777-1.076,61.219c0.18,3.512,2.049,6.11,3.66,8.787c8.441,14.035,15.387,29.118,23.723,42.945
			c7.494,12.432,23.789,73.617,14.781,71.935c-5.258-0.981-0.014,2.308-1.074,7.29c-1.07,5.029-2.502,10.273-2.117,15.285
			c1.086,14.116-6.955,22.268-16.771,29.1c-3.764,2.619-8.691,4.281-13.26,1.034c-4.549-3.233-6.6-7.776-5.139-13.505
			c2.545-9.981,5.082-19.969,7.918-29.865c1.768-6.168,0.08-9.558-6.236-9.738c-18.58-0.529-19.193-0.988-25.205-20.688
			c-1.361-0.568-3.295-2.869-3.588,0.764c-0.244,3.044,0.131,6.142,0.234,9.215c-0.744,2.781-0.85,6.026-2.346,8.26
			c-4.807,7.164-4.342,14.444-2.018,22.253c1.926,6.476,3.885,13.027,3.504,19.973c-0.611,4.358-1.223,8.724-1.834,13.088
			c-1.877,2.115-4.834,3.906-4.516,7.051c1.215,12.093-6.814,12.199-14.301,11.403c-4.984-0.531-8.963,0.73-13.422,2.416
			c-14.166,5.349-28.689,8.76-43.857,5.05c-2.902-0.71-6.387-0.991-6.613-5.474c-0.189-3.753,1.605-6.236,4.613-7.73
			c4.748-2.363,8.715-5.816,12.865-9.076c3.689-2.896,6.207-5.469,4.561-11.104c-1.945-6.651,3.568-10.753,7.258-14.621
			c3.727-3.909,5.301-7.743,4.484-12.93c5.279-12.851,6.828-26.062,3.695-39.769c-4.086-17.883-1.08-36.187-2.969-54.294
			c-2.029-19.411-6.869-38.056-10.791-56.964c-13.197-63.63-23.059-127.691-24.146-192.958c-0.383-22.933-1.562-45.871-1.246-68.79
			c0.166-12.195,2.102-24.491,4.42-36.496c2.664-13.813,2.463-27.722,3.268-41.613c0.33-5.674-0.719-8.918-7.242-7.066
			c-2.953,0.837-6.201,0.514-9.311,0.779c-6.627,0.566-9.455-2.877-10.355-9.473c-2.373-17.399-2.527-16.28-19.01-16.646
			c-9.938-0.221-19.865-1.349-29.783-2.219c-4.588-0.402-7.494-3.63-8.459-7.854c-1.363-5.99-2.229-12.598,0.832-18.029
			c1.814-3.226,6.877-2.122,9.455-0.358c7.379,5.046,17.078,2.862,24.094,9.487c3.244,3.064,7.996-0.619,10.943-3.015
			c3.014-2.449,1.582-6.523,0.01-9.824c-2.143-4.501-6.234-6.933-9.877-9.806c-3.463-2.735-3.51-6.806-1.445-9.469
			c2.855-3.686,4.5,1.102,6.484,2.479c4.99,3.469,9.135,8.22,11.523,13.649c3.641,8.275,9.238,8.916,17.205,8.647
			c17.816-0.604,19.371-2.345,15.154-20.968c-0.775-3.414-1.607-4.245-5.449-6.869c-1.545-1.056-3.391-1.674-4.939-2.738
			c-7.379-5.07-8.443-9.846-1.186-15.421c4.041-3.105,6.504-7.266,10.787-10.532c6.902-6.54,15.871-7.538,24.941-11.833
			c9.697-4.225,19.393-12.535,31.445-16.689c4.305-1.484-0.209-6.235,4.275-9.181c4.092-2.689-4.924-5.386-6.184-18.422
			c0.023-3.232-2.096-6.513-2.477-9.697c-2.639-22.052,8.234-34.465,17.439-52.705c11.461-11.391,40.4-20.83,53.025-2.644
			c5.527,7.962,9.689-1.544,10.879,20.894c-2.574,20.226-7.004,35.051-19.707,48.427c-9.643,10.155-5.387,22.102-3.338,33.019
			c3.426,18.224,10.949,35.305,13.568,54.009c2.852,20.362,0.271,72.688-7.959,90.732c-15.061,51.679-10.879,38.501-9.348,58.615
			c0.926,12.189,2.346,22.37,6.887,33.523c10.191,25.037,4.781,58.667,5.627,86.194L455.129,493.994z"/>
	</g>
</g>
<g id="Layer_16_copy">
</g>
<g id="Layer_17_copy">
</g>
<g id="Layer_18_copy">
</g>
<g id="Layer_19_copy">
</g>
<g id="Layer_20_copy">
</g>
<g id="Layer_21_copy">
</g>
<g id="Layer_22_copy">
</g>
<g id="Layer_23_copy">
</g>
<g id="Layer_24">
</g>
<g id="Layer_25">
</g>
<g id="Layer_26">
</g>
<g id="Layer_27">
</g>
<g id="Layer_0-6_copy">
</g>
<g id="Layer_0-5_copy">
</g>
<g id="Layer_0-4_copy">
</g>
<g id="Layer_0-3_copy">
</g>
<g id="Layer_0-2_copy">
</g>
<g id="Layer_0-1_copy">
</g>
<g id="Layer_0-0_copy">
</g>
</svg>
