<?xml version="1.0" encoding="utf-8"?>
<!-- Generator: Adobe Illustrator 16.0.0, SVG Export Plug-In . SVG Version: 6.00 Build 0)  -->
<!DOCTYPE svg PUBLIC "-//W3C//DTD SVG 1.1//EN" "http://www.w3.org/Graphics/SVG/1.1/DTD/svg11.dtd">
<svg version="1.1" xmlns="http://www.w3.org/2000/svg" xmlns:xlink="http://www.w3.org/1999/xlink" x="0px" y="0px" width="600px"
	 height="800px" viewBox="0 0 600 800" enable-background="new 0 0 600 800" xml:space="preserve">
<g id="Layer_0-0">
</g>
<g id="Layer_0-1">
</g>
<g id="Layer_0-2">
</g>
<g id="Layer_0-3">
</g>
<g id="Layer_0-4">
</g>
<g id="Layer_0-5">
</g>
<g id="Layer_0-6">
</g>
<g id="Layer_1">
</g>
<g id="Layer_2">
</g>
<g id="Layer_3">
</g>
<g id="Layer_4">
</g>
<g id="Layer_5">
</g>
<g id="Layer_6">
</g>
<g id="Layer_7">
</g>
<g id="Layer_8">
</g>
<g id="Layer_9">
</g>
<g id="Layer_10">
</g>
<g id="Layer_11">
</g>
<g id="Layer_12">
</g>
<g id="Layer_13">
</g>
<g id="Layer_14">
</g>
<g id="Layer_15">
</g>
<g id="Layer_16">
</g>
<g id="Layer_17_1_">
</g>
<g id="Layer_18_1_">
</g>
<g id="Layer_19">
</g>
<g id="Layer_20">
</g>
<g id="Layer_21">
</g>
<g id="Layer_22">
</g>
<g id="Layer_23">
</g>
<g id="Layer_10_copy">
</g>
<g id="Layer_11_copy">
</g>
<g id="Layer_12_copy">
</g>
<g id="Layer_13_copy">
</g>
<g id="Layer_14_copy">
</g>
<g id="Layer_15_copy">
</g>
<g id="Layer_16_copy">
</g>
<g id="Layer_17_copy">
</g>
<g id="Layer_18_copy">
</g>
<g id="Layer_19_copy">
</g>
<g id="Layer_20_copy">
</g>
<g id="Layer_21_copy">
</g>
<g id="Layer_22_copy">
	<g>
		<path fill-rule="evenodd" clip-rule="evenodd" fill="#3E456D" d="M500.499-693.335c-8.713-1.001-18.473,0.355-19.432-16.713
			c-6.42,15.57-12.264,26.586-11.906,39.002c0.229,7.938-2.166,13.775-7.676,18.804c-17.373,15.843-19.385,33.197-42.037,41.583
			c-13.801,5.209-24.602,11.346-39.695,12.653c-24.881,2.157-29.178-1.969-54.713-6.871c-10.574-2.031-21.475-4.068-32.5-3.426
			c-16.611,0.966-40.475-3.305-50.828-17.563c-3.887-5.352-10.189-8.443-15.432-12.513c-7.135-16.176-11.92-19.181,3.049-25.581
			c7.182-3.07,13.365-3.085,9.066-16.137c-2.826-8.58-1.771-20.664-5.566-25.086c-11.02-12.847-7.645-25.178-16.916-36.756
			c-12.158-15.187-21.627-19.574-39.592-12.155c-14.559,6.013-22.852,3.774-33.879,17.369
			c-16.201,19.978-16.842,30.882-4.354,49.008c4.174,6.055,8.551,10.39,9.553,19.948c1.049,10.031,10.35,14.52,16.932,16.52
			c4.309,1.31,5.189,0.012,9.225,5.278c3.844,5.019-1.234,9.356-4.377,12.878c-5.832,6.532-12.707,5.008-22.404,4.102
			c-38.732-3.612-18.404-21.201-57.279-24.239c-7.867-0.616-15.82,5.036-17.523,14.271c-1.895,10.27-1.588,21.234,3.961,27.211
			c14.471,15.586,11.34,18.647,28.916,20.879c7.684-0.482,9.396,0.44,16.158,0.159c19.021-0.79,16.688,19.545,29.371,35.737
			c9.805,12.515,27.166,37.81,21.373,46.891c-0.105,3.871,5.484,17.32,7.074,20.758c8.047,17.385,6.055,33.74-2.236,50.815
			c-10.791,22.22-14.545,46.344-14.26,71.03c0.092,7.766-0.889,15.126-5.285,21.897c-14.703,22.644-16.043,46.917-21.248,72.041
			c0.09,1.319,0.006,2.417-0.654,2.987c0.188-1,0.449-1.988,0.654-2.987c-0.084-1.231-0.621-2.677-0.371-4.036
			c19.439-105.076,7.246-123.14,11.873-184.577c1.174-15.601-8.854-50.789-4.652-66.149c1.379-7.762-3.582-12.964-8.34-17.287
			c-9.211-8.373-3.01-22.799-17.27-25.822c-8.033,1.472-9.381,3.956-9.961,5.701c-15.779,47.431,21.146,114.036,5.471,161.502
			c-5.98,18.105-16.357,36.43-6.811,55.193c3.477,6.83,3.666,13.389-0.24,20.366c-13.033,23.274-15.08,48.817-30.016,71.003
			c-4.387,6.518-2.221,8.232,3.627,11.497c7.592,4.24,7.176,7.944,10.969,14.974c7.875,14.598,10.533,26.322,12.984,42.854
			c2.086,14.077,6.057,12.229,14.713,28.421c3.371,6.307,5.836,12.584,2.951,20.379c-10.508,28.369-18.055,48.551-22.086,78.35
			c-1.27,9.41,2.236,11.62,9.682,13.552c8.689,2.257,16.936-5.64,23.062-3.782c19.434,5.889-2.133,5.859,17.562,8.059
			c18.828,2.098,56.809,4.982,75.566,7.66c25.25,3.6,14.281,10.926,39.295,10.993c17.965,0.047,35.908,23.13,53.93,22.685
			c12.471-0.311,16.17-13.641,27.854-13.582c0.607,0.004,9.672-4.957,11.365-5c12.457-0.32,6.684,7.307,14.709,6.025
			c7.861-1.257,6.436,1.455,14.078-3.36c13.084-8.245,21.326,2.501,28.619,0.644c7.6-1.934,1.99-13.963,7.244-10.154
			c0.762,0.554,25.887,8.133,21.506-5.598c-5.102-15.994-5.85-29.898-7.59-47.148c-2.15-21.316-5.572-42.5-8.445-63.743
			c-0.246-11.407-3.402-22.478-3.988-33.84c-4.246-14.067,2.338,0.337-3.482-13.215c-3.867-9.001-2.889-15.372,7.379-18.88
			c9.795-3.347,13.812-10.875,13.666-21.007c-0.318-22.735,15.66-45.296,12.725-68.119c0.252-16.226-10.658-32.651-8.6-48.646
			c8.535-66.19,38.08-132.171,38.518-199.15c0.045-6.97-18.893-14.504-10.777-18.002c-2.514-22.949-16.514-11.251-6.723-33.66
			c4.195-9.602,15.102-33.861,22.279-41.537c3.963-4.232,6.631-7.955,3.539-15.032c-3.611-8.265,0.875-16.276,8.605-20.449
			c6.281-3.391,10.514-7.899,13.621-13.948C511.138-692.976,505.454-692.767,500.499-693.335z M398.487-488.468
			c-14.244,16.729-28.631,33.287-44.201,48.786c-6.768,6.737-23.439,13.235-32.012,17.681c-16.182,8.391-22.557,5.258-25.967-12.523
			c-8.033-41.897-3.023-82.3,13.004-121.72c2.299-5.663,5.652-5.386,9.756-5.74c29.459-2.551,48.303,4.767,77.816,3.336
			c13.293-0.644,13.09,0.184,24.689-5.77c10.615-5.447,7.543-4.044,18.312-11.059C434.907-565.198,407.771-499.379,398.487-488.468z
			"/>
	</g>
</g>
<g id="Layer_23_copy">
</g>
<g id="Layer_24">
</g>
<g id="Layer_25">
</g>
<g id="Layer_26">
</g>
<g id="Layer_27">
</g>
<g id="Layer_0-6_copy">
</g>
<g id="Layer_0-5_copy">
</g>
<g id="Layer_0-4_copy">
</g>
<g id="Layer_0-3_copy">
</g>
<g id="Layer_0-2_copy">
	<g>
		<path fill-rule="evenodd" clip-rule="evenodd" fill="#3E456D" d="M517.872,81.203c-8.168-0.939-17.316,0.332-18.215-15.666
			c-6.018,14.595-11.494,24.92-11.158,36.557c0.213,7.443-2.031,12.912-7.195,17.627c-16.282,14.848-32.32,30.049-53.552,37.908
			c-12.935,4.884-22.157,17.85-36.306,19.076c-23.319,2.02-46.287,8.977-70.221,4.381c-9.912-1.904-20.129-3.813-30.463-3.211
			c-15.57,0.906-28.919-3.098-38.623-16.463c-3.641-5.017-9.55-7.914-14.463-11.729c-6.688-15.161-4.86-19.779,9.17-25.779
			c6.731-2.879,17.938-2.893,13.908-15.125c-2.65-8.043,0.461-20.864-4.314-23.514c-14.398-7.992-15.281-23.6-23.971-34.452
			c-11.397-14.232-20.271-18.346-37.109-11.393c-13.646,5.636-27.435,10.021-38.965,21.69c-19.412,19.65-21.402,24.775-4.082,45.936
			c4.367,5.332,9.334,9.957,7.148,18.697c-1.619,6.477,12.422,19.911,16.772,17.289c3.615-2.181,5.767-5.4,9.548-0.463
			c3.603,4.703,1.547,8.769-1.397,12.068c-5.466,6.123-11.911,10.105-20.998,9.256c-36.302-3.387-71.356,10.792-107.792,7.944
			c-7.373-0.579-14.83,4.72-16.426,13.375c-1.775,9.626,5.687,13.523,12.73,16.485c15.303,6.434,31.371,10.266,47.842,12.357
			c2.54-5.17,6.104-7.703,12.441-7.968c17.828-0.741,33.676,2.087,45.564,17.265c9.189,11.729,20.826,18.529,36.829,18.477
			c12.592-0.04,18.995,8.256,20.791,21.984c0.491,3.766,2.884,6.48,5.102,9.274c4.203,5.294,7.666,11.019,10.121,17.317
			c1.509,3.871,2.587,8.209-0.765,11.321c-4.015,3.731-7.421-0.59-10.793-2.171c-8.729-4.096-13.23-13.371-21.444-18.04
			c-4.757-2.702-9.87-9.199-15.3-0.687c-0.1,3.628,0.629,7.217,2.119,10.438c7.545,16.296,5.676,31.625-2.094,47.631
			c-10.113,20.826-13.633,43.438-13.365,66.577c0.084,7.278-0.832,14.177-4.954,20.524c-13.782,21.223-24.056,43.975-28.935,67.523
			c0.084,1.238,0.008,2.267-0.612,2.801c0.176-0.938,0.42-1.864,0.612-2.801c-0.076-1.154-0.293-2.488-0.346-3.783
			c-2.338-57.707-2.227-115.418,2.109-173.005c1.1-14.622,0.721-29.567,4.658-43.964c1.29-7.276-3.359-12.151-7.817-16.204
			c-8.632-7.848-11.837-21.37-25.204-24.204c-0.086,1.787,0.227,3.708-0.318,5.344c-14.789,44.458-29.776,88.85-44.47,133.34
			c-5.604,16.971-10.823,34.146-1.874,51.734c3.258,6.4,3.436,12.549-0.227,19.088c-12.215,21.816-22.248,44.856-36.247,65.65
			c-4.111,6.109-2.081,7.717,3.399,10.775c7.115,3.975,15.744,8.35,19.299,14.938c7.381,13.683,20.693,24.672,22.99,40.168
			c1.955,13.195,15.916,26.601-0.154,40.807c6.012,1.676,10.169,3.324,14.473,3.933c7.209,1.024,8.408,4.291,5.632,9.1
			c-37.225,105.409,48.981,134.551,65.312,148.209c8.902,7.446,11.617-49.298,38.412-40.04c7.289,2.518,12.684,0.883,15.902-5.342
			c9.305-17.98-14.735-34.63-17.452-35.1c0,0-31.7-32.391-9.103-22.605c7.494,3.244,14.358-47.503-12.199-33.2
			c-56.317,30.322-3.689-66.509,9.244-56.802c-10.953-48.74,13.688-54.403,9.415-34.562c0,0-6.174,79.939,30.888,66.947
			c-4.852,15.144-8.75,35.939-14.238,52.475c-9.974,30.055,7.023,38.168,13.492,39.761c67.004,16.483,66.287-48.915,65.684-21.192
			c-0.461,20.203-3.301,35.861-29.797,84.775c35.508-33.006,127.629-27.891,128-27.252c2.256,0.237,3.709,2.83,4.885,9.311
			c0.437,2.391-0.687,5.742,3.877,5.682c3.236-4.029-1.263-10.217,5.572-11.957c7.125-1.812,10.885,4.95,15.809,8.52
			c0.717,0.52,1.37,1.178,1.91,1.882c13.467,17.6,30.783,17.325,49.204,13.649c3.28-0.652,4.863,1.607,5.099-2.68
			c0.264-4.709-3.396-6.785-6.613-7.966c-13.363-4.916-28.039-11.692-32.146-24.563c-4.782-14.99-13.602-26.219-15.23-42.388
			c-2.016-19.979-5.223-39.836-7.916-59.747c-0.23-10.691-3.19-21.068-3.74-31.719c-3.978-13.185-6.825-26.74-12.281-39.441
			c-3.625-8.438-2.705-14.408,6.918-17.697c9.18-3.137,12.945-10.193,12.811-19.689c-0.301-21.31,4.755-42.457,2.004-63.848
			c0.236-15.209-0.971-30.605,0.961-45.596c7.999-62.041,44.711-123.886,45.121-186.666c0.042-6.531,0.328-13.595,7.934-16.874
			c-2.354-21.511-1.278-41.86,16.869-57.54c7.43-6.42,14.154-13.701,20.883-20.895c3.714-3.966,6.215-7.457,3.318-14.09
			c-3.387-7.746,0.818-15.256,8.064-19.167c5.889-3.179,9.854-7.403,12.768-13.073C527.845,81.539,522.517,81.735,517.872,81.203z
			 M123.032,652.582c0.029,4.667,3.543-1.418,15.157,0.902c18.007,3.604,19.952,22.75,17.569,29.729
			c-4.02,11.559-28.19,16.334-46.592,13.395c-17.77-2.795-28.981-38.785-13.348-57.477
			C107.431,625.25,122.985,644.994,123.032,652.582z M381.048,290.197c-13.349,15.681-26.834,31.2-41.429,45.728
			c-6.343,6.315-12.952,12.405-20.985,16.573c-15.167,7.863-21.144,4.928-24.34-11.739c-7.529-39.271-2.834-77.14,12.188-114.089
			c2.156-5.309,5.301-5.049,9.146-5.381c27.612-2.391,55.194-5.453,82.858-6.793c12.458-0.604,22.367-4.24,31.259-12.624
			c8.408-7.927,17.39-15.248,27.483-21.824C450.23,194.492,386.351,283.967,381.048,290.197z"/>
		<path fill-rule="evenodd" clip-rule="evenodd" fill="#D14C43" d="M427.752,157.629c-12.474,13.031-26.522,21.083-45.3,24.559
			c-34.105,6.311-67.439,0.465-101.094-0.805c-21.631-0.814-32.598-16.342-43.682-31.699c9.551-3.605,18.838-9.002,28.706-10.449
			c21.062-3.086,27.495-18.01,28.841-35.133c0.689-8.789-4.646-18.348-8.348-27.097c-3.301-7.795-8.127-15.172-8.84-23.67
			c-1.356-16.18,0.831-32.4,15.138-42.127c15.194-10.328,33.595-14.812,50.981-7.863c15.935,6.371,21.018,23.443,25.572,38.6
			c4.18,13.908,2.051,28.499,1.106,43.017c-0.608,9.372-3.704,12.307-11.614,14.459c-16.914,4.602-14.11,4.891-10.491,22.5
			c4.003,19.482,18.69,18.148,30.794,21.414C395.737,147.713,412.653,149.484,427.752,157.629z"/>
		<path fill-rule="evenodd" clip-rule="evenodd" fill="#D14C43" d="M408.733,555.061c-2.221-6.377-10.639-11.729-4.148-17.721
			c5.861-5.41,8.951-7.566,8.567-21.643c-0.536-19.74-3.114-69.73,1.353-89.275c9.107,17.039,40.355,70.006,44.314,88.591
			c2.443,11.474,6.806,21.171,15.999,28.337c8.049,6.273,13.331,14.482,16.751,23.757c9.524,25.855,21.353,51.073,25.993,78.417
			c3.593,21.182,22.233,36.356,23.132,57.604c0.734,17.386,12.234,25.823,22.47,35.939c5.909,5.836,10.34,12.555,12.124,20.381
			c1.74,7.628,3.863,16.162-4.84,21.795c-8.979,5.815-18.666,5.416-26.055-1.283c-13.152-11.928-26.68-24.168-32.033-42.027
			c-1.695-5.658-2.677-9.051-9.332-5.66c-4.893,2.487-8.346,0.615-10.377-4.568c-14.209-36.252-34.729-68.932-54.262-102.615
			C434.382,618.178,414.392,571.295,408.733,555.061z"/>
		<path fill-rule="evenodd" clip-rule="evenodd" fill="#D14C43" d="M99.741,214.057c-2.65-7.882-1.574-11.541,8.486-11.664
			c22.312-0.268,42.43,2.5,56.273,23.047c5.93,8.803,14.716,13.506,26.42,11.83c14.701-2.109,21.259,11.195,31.201,18.058
			c0.629,0.434,1.289,2.079,1.129,2.218c-12.48,10.68,4.087,13.773,5.633,20.787c1.115,5.059,5.681,9.418,6.527,14.455
			c0.787,4.686,0.197,11.037-2.525,14.507c-3.267,4.167-8.263-1.644-11.86-2.454c-9.361-2.105-13.226-9.445-19.114-15.065
			c-5.398-5.154-10.609-11.886-18.736-12.96c-6.469,0.869-12.019,2.322-18.369,4.332c-14.545,4.602-17.09,3.134-23.82-11.621
			c-10.842-12.388-21.684-24.774-32.525-37.162C103.319,227.326,99.55,221.633,99.741,214.057z"/>
		<path fill-rule="evenodd" clip-rule="evenodd" fill="#D14C43" d="M468.698,211.522c-1.871-0.864-5.773-0.284-5.336-2.746
			c3.234-18.134-1.088-38.415,15.117-52.968c9.635-8.652,18.84-17.783,28.1-26.844c1.582-1.548,4.773-2.775,2.48-6.23
			c-7.538-11.345-3.606-22.289,10.46-27.314c4.971-1.775,2.562-12.147,11.081-8.662c15.936,5.086,16.668,7.439,6.387,19.813
			c-2.271,2.736-4.998,5.267-7.19,7.911c-9.353,11.281-6.665,20.62-0.986,32.374c10.833,22.416-0.304,47.03-23.825,56.65
			C493.325,208.276,480.968,209.645,468.698,211.522z"/>
		<path fill-rule="evenodd" clip-rule="evenodd" fill="#D14C43" d="M429.744,201.872c-8.892,8.384-18.801,12.021-31.259,12.624
			c-27.664,1.34-55.246,4.402-82.858,6.793c-3.845,0.332-6.989,0.072-9.146,5.381c-15.021,36.949-19.717,74.818-12.188,114.089
			c3.196,16.667,9.173,19.603,24.34,11.739c8.033-4.168,14.643-10.258,20.985-16.573c14.595-14.527,28.08-30.047,41.429-45.728
			c5.303-6.23,9.461-12.59,11.8-20.287c0.718-5.254,1.22-10.548,2.191-15.755c5.658-30.38,5.694-30.374,35.484-34.725
			c12.731-10.606,19.707-24.938,26.704-39.383C447.134,186.624,438.152,193.945,429.744,201.872z"/>
		<path fill-rule="evenodd" clip-rule="evenodd" fill="#3E456D" d="M134.714,489.74c-2.338-57.707-2.227-115.418,2.109-173.005
			c1.1-14.622,8.721-89.567,12.658-103.964c1.29-7.276-3.359-12.151-7.817-16.204c-8.632-7.848-1.837-21.37-15.204-24.204
			c-0.086,1.787,0.227,3.708-0.318,5.344c-14.789,44.458-47.776,148.85-62.47,193.34c-5.604,16.971-10.823,34.146-1.874,51.734
			c3.258,6.4,3.436,12.549-0.227,19.088c-12.215,21.816-22.248,44.856-36.247,65.65c-4.111,6.109-2.081,7.717,3.399,10.775
			c7.115,3.975,15.744,8.35,19.299,14.938c7.381,13.683,20.693,24.672,22.99,40.168C72.968,586.596,134.767,491.035,134.714,489.74z
			"/>
	</g>
</g>
<g id="Layer_0-1_copy">
</g>
<g id="Layer_0-0_copy">
</g>
</svg>
