<?xml version="1.0" encoding="utf-8"?>
<!-- Generator: Adobe Illustrator 16.0.0, SVG Export Plug-In . SVG Version: 6.00 Build 0)  -->
<!DOCTYPE svg PUBLIC "-//W3C//DTD SVG 1.1//EN" "http://www.w3.org/Graphics/SVG/1.1/DTD/svg11.dtd">
<svg version="1.1" xmlns="http://www.w3.org/2000/svg" xmlns:xlink="http://www.w3.org/1999/xlink" x="0px" y="0px" width="600px"
	 height="800px" viewBox="0 0 600 800" enable-background="new 0 0 600 800" xml:space="preserve">
<g id="Layer_0-0">
</g>
<g id="Layer_0-1">
</g>
<g id="Layer_0-2">
</g>
<g id="Layer_0-3">
</g>
<g id="Layer_0-4">
</g>
<g id="Layer_0-5">
</g>
<g id="Layer_0-6">
</g>
<g id="Layer_1">
</g>
<g id="Layer_2">
</g>
<g id="Layer_3">
</g>
<g id="Layer_4">
</g>
<g id="Layer_5">
</g>
<g id="Layer_6">
</g>
<g id="Layer_7">
	<g>
		<path fill-rule="evenodd" clip-rule="evenodd" fill="#D14C43" d="M364.72,179.353c-9.21,8.685-19.474,12.45-32.38,13.075
			c-28.653,1.389-57.224,4.561-85.827,7.037c-3.982,0.344-57.411,15.086-56.854,20.996c4.67,49.506,14.011,147.586,3.736,216.716
			c-2.585,17.388,0.171,205.239,15.881,197.093c8.323-4.316,36.396,27.084,42.967,20.543
			c15.116-15.048,55.246-205.128,69.075-221.371c5.491-6.453,2.762-175.643,5.185-183.614c0.743-5.441,1.263-10.927,2.27-16.319
			c5.86-31.469,6.833-31.462,37.69-35.97c22.576-5.726,35.234-6.034,49.043-25.653C454.939,88.754,373.429,171.141,364.72,179.353z"
			/>
		<path fill-rule="evenodd" clip-rule="evenodd" fill="#D14C43" d="M357.985,155.944c56.74,36.96-12.079,38.499-31.531,42.099
			c-35.325,6.537-96.479,77.779-129.3,74.298c-22.298-2.365-80.793,0-84.141-57.485c-6.36-24.092,67.597-71.795,77.821-73.295
			c21.817-3.195,19.138-17.72,20.531-35.459c0.715-9.102-12.285-19.004-16.12-28.066c-3.419-8.073-2.813-14.781-3.55-23.584
			c-1.407-16.758,3.661-35.428,18.48-45.504C225.916-1.75,238.9-2.787,256.447,5.475c18.163,8.551,15.282,15.607,17.952,27.252
			c0.889,3.88-0.723,6.986,2.932,11.795c5.687,17.609,0.256,27.65-0.723,42.689c-0.631,9.707-5.672,9.703-8.294,17.78
			c-2.159,6.647-2.472,1.329,1.277,19.569c4.147,20.181,18.427,18.797,30.962,22.182
			C317.349,151.275,338.646,156.008,357.985,155.944z"/>
		<path fill-rule="evenodd" clip-rule="evenodd" fill="#D14C43" d="M359.091,184.246c-1.56-1.459-3.232-0.711-4.941-2.656
			c-15.504-17.642-12.234-24.414,16.955-33.055c12.282-5.392,14.165-6.637,26.208-12.549c2.06-1.012,17.182-7.537,16.044-11.68
			c-3.738-13.605,3.674-23.097,19.143-23.483c5.465-0.138,6.455-11.122,13.707-4.933c14.029,10.168,13.987,12.721-0.135,21.562
			c-3.124,1.957-6.627,3.563-9.639,5.455c-12.856,8.068-9.689,6.225-15.849,19.917c-17.631,24.204-20.579,25.691-43.895,39.457
			C368.406,184.335,371.771,186.373,359.091,184.246z"/>
		<path fill-rule="evenodd" clip-rule="evenodd" fill="#D14C43" d="M256.746,485.31c-0.403-6.915,4.999-14.903-2.896-18.538
			c-7.131-3.281-10.632-4.339-15.483-18.092c-6.807-19.289-22.975-68.541-34.093-85.971c-1.698,19.531-9.554,81.231-6.174,100.543
			c2.088,11.922,1.842,22.764-3.573,32.769c-4.74,8.758-6.344,18.466-5.922,28.585c1.186,28.207,0.116,56.564,6.13,84.582
			c4.659,21.704-6.081,42.611,0.963,63.479c5.766,17.076-1.2,29.08-6.439,42.287c-3.027,7.621-4.432,15.604-3.113,23.775
			c1.288,7.964,2.572,16.934,12.275,19.484c10.012,2.633,18.354-0.986,22.355-9.936c7.128-15.936,14.47-32.296,12.578-51.371
			c-0.601-6.043-0.991-9.654,6.09-8.593c5.203,0.776,7.539-2.188,7.408-7.885c-0.914-39.832,5.021-78.313,9.723-117.437
			C257.538,554.966,257.773,502.912,256.746,485.31z"/>
		<g>
			<path fill-rule="evenodd" clip-rule="evenodd" fill="#ED1D24" d="M391.696,186.259
				C391.202,187.007,392.438,185.811,391.696,186.259L391.696,186.259z"/>
			<path fill-rule="evenodd" clip-rule="evenodd" fill="#3E456D" d="M494.224,751.158c-4.953-15.527-28.101-19.686-29.788-36.434
				c-2.089-20.695-11.017-41.263-13.804-61.887c-0.24-11.076-3.306-21.824-3.875-32.855c-4.121-13.657-7.069-27.699-12.722-40.855
				c-3.755-8.739-1.514-13.754,7.167-8.988c8.81,4.836-5.273-19.9-5.415-29.736c-0.389-27.711-40.582-41.922-43.694-66.137
				c0.244-15.754,1.318-34.91-8.347-47.229c-21.123-26.922-16.919-21.472-17.923-31.055c-1.875-17.912,12.596-6.265,21.104-23.406
				c5.533-11.152-1.085-54.777,7.252-69.639c4.081-7.271,7.719-14.367,10.147-20.678c2.432-6.314,2.209-34.633,10.087-38.029
				c-2.439-22.281-20.008-54.57-1.21-70.811c7.695-6.652-4.022-21.666,2.948-29.117c3.847-4.109,6.437-7.725,3.436-14.596
				c-3.507-8.023,0.849-15.802,8.354-19.854c6.099-3.293,10.207-7.67,13.225-13.543c-2.854-5.404-8.372-5.201-13.186-5.753
				c-8.459-0.972-30.771,9.585-30.425,21.64c0.221,7.708-5.371,11.252-9.321,17.322c-9.94,15.279-5.688,15.047-16.144,21.005
				c-14.037,7.997-0.336,3.149-17.589,10.973c-5.848,2.651-12.696,1.107-15.916-1.872c0,0-2.408-1.332,0.945-6.205
				c3.519-5.112,10.508-6.19,13.557-8.861c5.59-4.897,10.029-1.861,11.875-6.696c3.31-8.668,8.492-11.845,10.39-18.435
				c6.68-23.202,5.278-26.471-2.864-47.58c-8.671-11.117-18.895-15.696-31.597-21.535c-15.671-7.202-23.931-2.942-34.539,11.802
				c-8.088,11.241-8.91,27.409-22.311,35.687c-4.444,2.743-2.669,15.772-4.016,24.355c-1.99,12.68,2.94,12.686,9.208,15.668
				c13.057,6.213,18.495,2.592,12.271,18.297c-4.571,3.95-18.123,10.504-18.123,10.504c-5.663,6.342-11.404,10.467-20.816,9.587
				c-27.226-2.54-71.09-5.96-100.734-14.554c-1.921-0.557-9.761-1.767-11.701-1.984c-9.796-1.098-9.71-1.062-18.347-0.035
				c-8.729,1.039-20.327,6.645-25.421,14.789c-4.377,7.002,5.535,16.652,11.098,20.504c0.851,0.588,3.513-4.548,3.957-4.361
				c15.853,6.665,43.28,4.359,74.286,17.049c14.922,4.434,26.74,4.473,32.502,7.629c11.221,6.146,11.519,7.323,9.835,27.223
				c-1.677,19.789-11.485,20.258-10.078,38.986c-0.006,18.166-0.378,23.084,0.33,26.692c3.459,17.63,2.184,32.133,3.434,49.336
				c1.835,25.271,4.072,45.513,1.103,68.963c-0.949,7.479,1.865,27.445,1.408,35.271c-1.609,27.524-11.808,33.203-21.266,99.002
				c-4.63,32.207,11.822,44.581-3.283,70.728c3.274,10.595-1.25,10.213,1.913,13.415c1.983,2.008,2.295,9.326,1.883,11.213
				c-4.2,19.293-6.163,21.58,2.242,37.3c3.271,6.123,3.432,11.735,2.862,19.786c-2.364,33.485,14.451-4.352,6.584,20.017
				c-2.833,8.774-7.17,20.624,0.057,22.499c8.437,2.191,7.102,5.736,13.049,7.539c18.869,5.718,18.798,16.016,35.736,6.889
				c26.752-14.416,30.943,20.865,54.684,24.253c24.513,3.495,13.865,2.2,38.15,2.266c17.441,0.046,6.838,3.774,24.334,3.341
				c12.108-0.301-12.326-13.244-0.982-13.188c0.59,0.004,9.391-4.812,11.034-4.854c12.096-0.311,6.489,7.094,14.28,5.85
				c7.635-1.22,6.25,1.414,13.668-3.263c12.703-8.005,20.707,2.429,27.785,0.625c7.38-1.877,11.277-13.556,16.376-9.858
				C474.085,775.814,498.479,764.49,494.224,751.158z M345.534,308.423c-7.303,6.86-6.544,0.101-4.404-17.073
				c5.041-40.469,13.8-47.068,26.888-83.494c1.88-5.234,0.515-11.352,1.729-12.26c8.287-6.195-5.414,1.278,5.026-1.193
				c4.705-1.113,7.774-0.798,13.993-5.893c1.736-1.423,2.567-2.032,2.93-2.251c0.212-0.322,0.743-1.002,1.895-2.331
				c-3.695,9.441-18.588,62.861-23.266,74.619c-8.448,21.241-4.935,20.008-13.361,33.683
				C353.302,298.174,349.403,304.787,345.534,308.423z"/>
		</g>
		<path fill-rule="evenodd" clip-rule="evenodd" fill="#D14C43" d="M116.527,227.447c-3.726-8.304,3.598-9.477,10.753-9.493
			c31.195-0.075,37.17,5.809,65.932,25.652c10.248,7.069,25.471,20.479,32.303,17.992c14.13-5.143,32.551,1.462,46.471,8.67
			c0.878,0.453-0.404,4.982-0.609,5.156c-11.648,9.987,3.246,11.628,10.445,14.38c5.617,2.147,11.413-0.437,12.609,4.876
			c1.111,4.94,0.303,13.513-3.493,17.183c-4.556,4.403-10.297,2.961-15.329,2.117c-13.092-2.188-17.594-4.941-26.762-9.285
			c-10.137-4.805-19.01-8.074-24.359-0.514c-9.043,0.937-16.135-1.955-26.001-5.659c-12.034-4.517-8.989-3.364-23.995-12.179
			c-20.457-12.014-28.041-18.183-43.699-31.617C123.589,249.432,116.275,235.441,116.527,227.447z"/>
		<path fill-rule="evenodd" clip-rule="evenodd" fill="#3E456D" d="M295.167,504.24c-4.253-63.58-55.026-109.479-66.903-172.847
			c-2.699-14.399-14.894-53.507,1.656-125.944c1.288-7.27-2.357-12.14-6.812-16.188c-8.625-7.841,8.173-8.351-5.184-11.182
			c-0.086,1.785-0.117,3.628-0.318,5.34c-9.837,83.776-20.034,115.97-18.104,192.326c0.451,17.849-6.309,34.114,2.633,51.687
			c3.254,6.395,3.434,12.537-0.227,19.07c-1.646,2.939,7.059,5.918,6.016,8.923c-6.688,19.269,26.988,39.595,14.889,57.568
			c-4.108,6.103-2.08,7.709,3.396,10.766c7.108,3.971-4.092,17.351-0.541,23.934C225.669,547.692,296.534,524.686,295.167,504.24z"
			/>
	</g>
</g>
<g id="Layer_8">
</g>
<g id="Layer_9">
</g>
<g id="Layer_10">
</g>
<g id="Layer_11">
</g>
<g id="Layer_12">
</g>
<g id="Layer_13">
</g>
<g id="Layer_14">
</g>
<g id="Layer_15">
</g>
<g id="Layer_16">
</g>
<g id="Layer_17_1_">
	<g>
		<path fill-rule="evenodd" clip-rule="evenodd" fill="#D14C43" d="M354.881,1280.738c-2.058,22.125-4.475,44.209-6.946,66.266
			c-2.449,21.832,4.566,43.846,1.538,65.623c-1.697,12.236-0.825,24.717,1.278,37.09c6.935,40.77-1.642,36.035,8.167,85.469
			c1.644,2.836,0.299,2.312,0.821,5.672c5.49,7.127-0.6-6.959,1.585,2.062c1.374,5.693,1.112,11.504-0.892,16.246
			c-5.225,12.359-0.084,6.143,0.596,18.912c1.789,4.596-1.893,9.168-3.719,13.717c-0.277,2.676-2.159,3.984-4.338,4.35
			c-12.047,2.023-24.066,1.758-35.987-1.605c-2.478-5.098-1.464-10.189-0.212-15.283c3.911-13.717,2.946-9.137,4.108-23.186
			c0.767-9.262-0.797-10.133-9.083-6.787c-3.604,1.449-7.133,3.387-10.891,4.1c-10.244,1.943-10.439,20.535-7.88,30.643
			c2.589,10.236-9.827,14.143-19.966,13.824c-15.283-0.486-20.131,2.578-35.43-0.297c-10.088-1.893-14.373-4.418-8.128-12.307
			c2.273-2.869,9.581-5.223,12.431-7.299c3.205-19.857,0.668-23.248-3.127-36.84c0.97-51.408,1.359-95.146,7.108-110.27
			c2.373-6.234,2.255-11.824-0.755-17.408c-5.119-9.479-5.749-19.916-6.415-30.16c-3.427-20.039-4.504-25.07-7.685-45.5
			c-0.344-2.209-19.403-88.352-10.196-108.621l0.062-3.332c2.169-13.336-1.381-26.715-2.891-39.992
			c-2.108-18.58-4.6-37.139-7.013-55.676c-2.185-16.797-3.378-33.752-6.607-50.43c-0.334-1.75-0.474-3.521-0.496-5.299
			c-0.201-15.074,5.782-28.196-5.545-38.778c-6.417-5.996-21.702-13.541-27.254-20.408c-3.832-4.74-55.947-14.33-59.018-17.119
			c-13.841-5.646-20.866-11.057-26.038-24.924c-3.445-9.229-21.783-43.863-21.951-50.812c-0.218-8.941-1.166-15.922,7.064-14.588
			c7.759-0.15,3.955-5.367,8.574-10.709c0.033-1.951,1.35-4.227,2.117-5.781c1.365-2.76-2.25-8.037,2.193-8.115
			c2.76-0.049,5.155,4.658,6.118,8.33c0.373,1.416,0.321,2.943,0.46,4.422c-1.292,5.133,0.852,8.727,1.847,13.236
			c10.001,45.369,56.082,45.324,63.258,44.059c23.171-4.082,18.209-7.686,38.188-9.803c14.832-1.572,28.986-6.83,41.438-15.748
			c5.018-3.598,6.215-7.812,4.129-14.188c-4.18-12.783-8.063-25.738-10.877-38.875c-2.722-12.723-0.284-25.584,1.378-38.242
			c1.065-8.09,1.632-16.643,7.954-22.816c21.306-20.811,54.771-17.568,69.938,9.053c3.174,5.568,2.877,11.812,3.037,17.809
			c0.411,15.133,1.934,29.98-8.56,43.498c-7.802,10.047-8.083,17.988-3.083,30.189c1.942,5.949,18.314,21.486,20.576,24.068
			c24.814,15.393,17.822,15.137,42.493,14.986c3.967-0.025,35.206,1.881,45.234,5.961c3.77,4.26,61.988,32.465,66.658,32.121
			c16.084,10.113-9.745,5.6-17.447,23.105c-0.703,1.604-11.337,38.732-29.435,40.184c-7.408-13.732,12.494-35.02,4.873-36.404
			c-12.926-6.947-78.13,19.262-79.06,24.076c-3.745,19.317-7.2,47.323-10.794,66.675c-0.691,3.721-1.301,7.473-2.195,11.133
			c-1.458,5.932-0.551,11.367,1.841,16.984c16.98,39.9,11.394,69.6,18.658,112.285L354.881,1280.738z"/>
	</g>
</g>
<g id="Layer_18_1_">
</g>
<g id="Layer_19">
</g>
<g id="Layer_20">
</g>
<g id="Layer_21">
</g>
<g id="Layer_22">
</g>
<g id="Layer_23">
</g>
<g id="Layer_10_copy">
</g>
<g id="Layer_11_copy">
</g>
<g id="Layer_12_copy">
</g>
<g id="Layer_13_copy">
</g>
<g id="Layer_14_copy">
</g>
<g id="Layer_15_copy">
</g>
<g id="Layer_16_copy">
</g>
<g id="Layer_17_copy">
</g>
<g id="Layer_18_copy">
</g>
<g id="Layer_19_copy">
</g>
<g id="Layer_20_copy">
</g>
<g id="Layer_21_copy">
</g>
<g id="Layer_22_copy">
</g>
<g id="Layer_23_copy">
</g>
<g id="Layer_24">
</g>
<g id="Layer_25">
</g>
<g id="Layer_26">
</g>
<g id="Layer_27">
</g>
<g id="Layer_0-6_copy">
</g>
<g id="Layer_0-5_copy">
</g>
<g id="Layer_0-4_copy">
</g>
<g id="Layer_0-3_copy">
</g>
<g id="Layer_0-2_copy">
</g>
<g id="Layer_0-1_copy">
</g>
<g id="Layer_0-0_copy">
</g>
</svg>
