<?xml version="1.0" encoding="utf-8"?>
<!-- Generator: Adobe Illustrator 16.0.0, SVG Export Plug-In . SVG Version: 6.00 Build 0)  -->
<!DOCTYPE svg PUBLIC "-//W3C//DTD SVG 1.1//EN" "http://www.w3.org/Graphics/SVG/1.1/DTD/svg11.dtd">
<svg version="1.1" xmlns="http://www.w3.org/2000/svg" xmlns:xlink="http://www.w3.org/1999/xlink" x="0px" y="0px" width="600px"
	 height="800px" viewBox="0 0 600 800" enable-background="new 0 0 600 800" xml:space="preserve">
<g id="Layer_0-0">
</g>
<g id="Layer_0-1">
</g>
<g id="Layer_0-2">
</g>
<g id="Layer_0-3">
</g>
<g id="Layer_0-4">
</g>
<g id="Layer_0-5">
</g>
<g id="Layer_0-6">
</g>
<g id="Layer_1">
</g>
<g id="Layer_2">
</g>
<g id="Layer_3">
</g>
<g id="Layer_4">
</g>
<g id="Layer_5">
</g>
<g id="Layer_6">
</g>
<g id="Layer_7">
</g>
<g id="Layer_8">
</g>
<g id="Layer_9">
</g>
<g id="Layer_10">
</g>
<g id="Layer_11">
</g>
<g id="Layer_12">
</g>
<g id="Layer_13">
</g>
<g id="Layer_14">
</g>
<g id="Layer_15">
</g>
<g id="Layer_16">
</g>
<g id="Layer_17_1_">
</g>
<g id="Layer_18_1_">
</g>
<g id="Layer_19">
</g>
<g id="Layer_20">
</g>
<g id="Layer_21">
</g>
<g id="Layer_22">
</g>
<g id="Layer_23">
</g>
<g id="Layer_10_copy">
</g>
<g id="Layer_11_copy">
</g>
<g id="Layer_12_copy">
</g>
<g id="Layer_13_copy">
</g>
<g id="Layer_14_copy">
</g>
<g id="Layer_15_copy">
</g>
<g id="Layer_16_copy">
</g>
<g id="Layer_17_copy">
	<g>
		<path fill="#3E456D" d="M539.518-640.837c-1.734-9-9.833-14.51-17.841-13.908c-39.575,2.963-48.962,16.352-88.39,19.873
			c-9.871,0.885-16.87-3.258-22.81-9.625c-3.199-3.432-8.371-7.66-4.454-12.551c2.248-2.812,10.199-13.078,13.779-22.434
			c3.346-8.752,4.568-13.207,6.161-20.156c3.21-14.004,0.638-35.605-6.46-43.984c-11.224-13.25-9.83-17.172-25.737-19.123
			c-19.099-2.346-30.134,0.184-42.515,14.986c-9.437,11.287-14.293,15.939-15.123,32.994c-0.275,5.672,1.479,15.793,3.15,24.453
			c2.577,13.352,5.621,11.244,11.05,17.604c5.083,5.957,2.548,6.535,1.282,16.494c-0.812,6.422-10.771,13.545-14.728,18.762
			c-10.541,13.898-25.04,18.061-41.95,17.119c-11.227-0.627-22.318,1.359-33.087,3.34c-25.993,4.777-16.657-2.455-41.983-4.557
			c-15.367-1.277-43.299,4.135-57.35-0.943c-23.061-8.174-40.479-23.98-58.163-39.424c-5.609-4.9-8.989-10.59-8.759-18.328
			c0.363-12.102-9.582-40.969-11.176-38.016c-7.617,9.092-6.188,4.938-15.059,5.912c-5.046,0.555-9.066,11.863-9.102,18.059
			c-0.039,6.693-1.975,8.387,4.421,11.691c7.87,4.066,12.435,11.877,8.759,19.932c-3.146,6.898,2.404,10.527,6.438,14.654
			c7.307,7.48,11.777,15.051,19.846,21.729c19.71,16.305,25.88,33.469,23.324,55.838c8.259,3.41-0.268,15.395,2.615,21.547
			c58.054,123.91,51.674,111.664,58.163,159.846c2.096,15.59,43.788,33.6,44.042,49.416c-2.984,22.248,2.539,48.236,2.213,70.398
			c-0.148,9.877-0.682,66.697-3.248,80.844c-1.979,10.91-19.221,30.4-20.126,41.484c-1.701,20.842-12.281,31.908-14.472,52.688
			c-1.455,13.807-18.454,38.633-9.344,32.311c5.35-3.715,9.435,8.012,17.173,9.896c7.421,1.811,15.814-8.664,29.134-0.629
			c7.779,4.695,6.326-22.512,14.332-21.289l15.894,9.648c6.188-0.078,8.585,4.492,6.867,10.695
			c-1.29,4.646-2.062,9.537-0.317,13.912c2.392,6,1.683,11.441-0.139,17.303c-2.26,7.275,0.639,12.398,7.869,15.102
			c4.178,1.562,8.432,2.934,12.575,4.582c4.921,1.957,10.694,4.482,14.781,0.848c4.157-3.699,3.474-10.01,2.365-15.518
			c-0.098-0.486-0.218-0.969-0.296-1.459c-1.895-11.936-4.699-37.203-4.699-37.203c18.344,0.434,26.815,43.861,45.105,43.814
			c25.461-0.064,4.502,10.615,30.207,7.105c26.994-3.689,48.288-24.521,47.89-14.969c-0.807,19.301,37.97-10.695,57.757-16.434
			c6.234-1.812-4.961-5.371,3.887-7.572c7.577-1.879,12.822-4.398,9.853-13.209c-8.246-24.463-10.554-14.404-13.032-48.023
			c-0.596-8.082-0.43-13.717,3-19.865c8.814-15.781,12.184-12.328-0.587-27.928c-4.732-5.785-3.821-10.07,4.912-11.26
			c4.675-0.631-4.176-11.793,2.354-13.535c-17.455-14.775,6.177-17.393,8.301-31.115c2.494-16.115,5.201-27.541,13.219-41.768
			c3.859-6.854-8.318-20.783-0.589-24.914c5.954-3.182,8.157-4.854,3.694-11.207c-15.206-21.625,1.953-46.521-11.314-69.209
			c-3.979-6.799-13.233-13.193-9.692-19.852c9.718-18.289,8.948-64.492,2.861-82.143c-15.962-46.266,13.104-72.529-2.959-118.762
			c-0.593-1.701-9.702-22.594-9.796-24.453c-14.518,2.947-17.999,17.01-27.374,25.172c-4.846,4.213-9.892,9.283-8.493,16.85
			c4.277,14.973,13.314,68.166,14.51,83.371c4.707,59.887-4.967,119.902-7.508,179.914c-0.055,1.346-0.289,2.734-0.376,3.936
			c0.21,0.975,0.478,1.938,0.666,2.912c-0.672-0.555-0.757-1.625-0.666-2.912c-5.298-24.488-4.661-31.332-13.794-56.156
			c-2.732-7.42-12.223-27.898-13.217-35.408c-3.114-23.541-8.58-45.84-14.516-69.236c-4.27-16.828,1.351-31.832-2.275-49.531
			c-0.743-3.623,18.976-53.742,28.958-65.939c12.911-15.783,30.125-35.605,49.491-34.834c6.882,0.273-15.107,1.25-4.404,1.721
			c17.894-2.174,29.293-7.979,45.914-14.67C538.063-619.214,541.445-630.827,539.518-640.837z M286.202-445.317
			c-3.472,17.334-5.452,24.872-21.538,15.957C197.067-466.826,143.067-550.826,135.71-588.2c10.964,6.838,15.508,2.535,24.64,10.781
			c9.659,8.717,38.336-6.395,51.867-5.768c30.048,1.393,25.719,5.516,55.711,8.002c4.176,0.346,7.592,0.074,9.935,5.596
			C294.177-531.165,294.378-486.155,286.202-445.317z"/>
	</g>
</g>
<g id="Layer_18_copy">
</g>
<g id="Layer_19_copy">
</g>
<g id="Layer_20_copy">
</g>
<g id="Layer_21_copy">
</g>
<g id="Layer_22_copy">
</g>
<g id="Layer_23_copy">
</g>
<g id="Layer_24">
</g>
<g id="Layer_25">
</g>
<g id="Layer_26">
</g>
<g id="Layer_27">
	<g>
		<path fill-rule="evenodd" clip-rule="evenodd" fill="#3E456D" d="M517.872,81.204c-8.168-0.939-17.316,0.332-18.215-15.666
			c-6.018,14.595-11.494,24.92-11.158,36.557c0.213,7.443-2.031,12.912-7.195,17.627c-16.282,14.848-32.32,30.049-53.552,37.908
			c-12.935,4.884-22.157,17.85-36.306,19.076c-23.319,2.02-46.287,8.977-70.221,4.381c-9.912-1.904-20.129-3.813-30.463-3.211
			c-15.57,0.906-28.919-3.098-38.623-16.463c-3.641-5.017-9.55-7.914-14.463-11.729c-6.688-15.161-4.86-19.779,9.17-25.779
			c6.731-2.879,17.938-2.893,13.908-15.125c-2.65-8.043,0.461-20.864-4.314-23.514c-14.398-7.992-15.281-23.6-23.971-34.452
			c-11.397-14.233-20.271-18.346-37.109-11.394c-13.646,5.637-27.435,10.021-38.965,21.691
			c-19.412,19.65-21.402,24.775-4.082,45.936c4.367,5.332,9.334,9.957,7.148,18.697c-1.619,6.477,12.422,19.911,16.772,17.289
			c3.615-2.181,5.767-5.4,9.548-0.463c3.603,4.703,1.547,8.769-1.397,12.068c-5.466,6.123-11.911,10.105-20.998,9.256
			c-36.302-3.387-71.356,10.792-107.792,7.944c-7.373-0.579-14.83,4.72-16.426,13.375c-1.775,9.626,5.687,13.523,12.73,16.485
			c15.303,6.434,31.371,10.266,47.842,12.357c2.54-5.17,6.104-7.703,12.441-7.968c17.828-0.741,33.676,2.087,45.564,17.265
			c9.189,11.729,20.826,18.529,36.829,18.477c12.592-0.04,18.995,8.256,20.791,21.984c0.491,3.766,2.884,6.48,5.102,9.274
			c4.203,5.294,7.666,11.019,10.121,17.317c1.509,3.871,2.587,8.209-0.765,11.321c-4.015,3.731-7.421-0.59-10.793-2.171
			c-8.729-4.096-13.23-13.371-21.444-18.04c-4.757-2.702-9.87-9.199-15.3-0.687c-0.1,3.628,0.629,7.217,2.119,10.438
			c7.545,16.296,5.676,31.625-2.094,47.631c-10.113,20.826-13.633,43.438-13.365,66.577c0.084,7.278-0.832,14.177-4.954,20.524
			c-13.782,21.223-24.056,43.975-28.935,67.523c0.084,1.238,0.008,2.267-0.612,2.801c0.176-0.938,0.42-1.864,0.612-2.801
			c-0.076-1.154-0.293-2.488-0.346-3.783c-2.338-57.707-2.227-115.418,2.109-173.005c1.1-14.622,0.721-29.567,4.658-43.964
			c1.29-7.276-3.359-12.151-7.817-16.204c-8.632-7.848-11.837-21.37-25.204-24.204c-0.086,1.787,0.227,3.708-0.318,5.344
			c-14.789,44.458-29.776,88.85-44.47,133.34c-5.604,16.971-10.823,34.146-1.874,51.734c3.258,6.4,3.436,12.549-0.227,19.088
			c-12.215,21.816-22.248,44.856-36.247,65.65c-4.111,6.109-2.081,7.717,3.399,10.775c7.115,3.975,15.744,8.35,19.299,14.938
			c7.381,13.683,20.693,24.672,22.99,40.168c1.955,13.195,15.916,26.601-0.154,40.807c6.012,1.676,10.169,3.324,14.473,3.933
			c8.043,1.144,8.88,5.263,4.523,10.825c-11.756,15.002-8.656,29.852-0.542,45.027c3.158,5.912,5.47,11.795,2.764,19.102
			c-9.849,26.59-13.312,54.525-17.091,82.455c-1.191,8.821,2.096,10.893,9.074,12.703c8.143,2.115,15.873-5.285,21.615-3.545
			c18.215,5.52,36.777,5.492,55.236,7.553c17.646,1.967,35.21,4.671,52.791,7.18c23.664,3.375,26.91-9.6,50.354-9.536
			c16.84,0.044,24.637-5.376,41.527-5.793c11.689-0.292,16.059-12.786,27.012-12.731c0.567,0.004,1.748-3.102,1.633-4.686
			c-0.748-10.254,6.266-11.189,13.787-12.391c7.37-1.178,15.051,1.365,22.214-3.15c12.263-7.729,16.455-13.535,19.179,1.469
			c0.437,2.391-0.687,5.742,3.877,5.682c3.236-4.029-1.263-10.217,5.572-11.957c7.125-1.812,10.885,4.95,15.809,8.52
			c0.717,0.52,1.37,1.178,1.91,1.882c13.467,17.6,30.783,17.325,49.204,13.649c3.28-0.652,4.863,1.607,5.099-2.68
			c0.264-4.709-3.396-6.785-6.613-7.966c-13.363-4.916-28.039-11.692-32.146-24.563c-4.782-14.99-13.602-26.219-15.23-42.388
			c-2.016-19.979-5.223-39.836-7.916-59.747c-0.23-10.691-3.19-21.068-3.74-31.719c-3.978-13.185-6.825-26.74-12.281-39.441
			c-3.625-8.438-2.705-14.408,6.918-17.697c9.18-3.137,12.945-10.193,12.811-19.689c-0.301-21.31,4.755-42.457,2.004-63.848
			c0.236-15.209-0.971-30.605,0.961-45.596c7.999-62.041,44.711-123.886,45.121-186.666c0.042-6.531,0.328-13.595,7.934-16.874
			c-2.354-21.511-1.278-41.86,16.869-57.54c7.43-6.42,14.154-13.701,20.883-20.895c3.714-3.966,6.215-7.457,3.318-14.09
			c-3.387-7.746,0.818-15.256,8.064-19.167c5.889-3.179,9.854-7.403,12.768-13.073C527.845,81.54,522.517,81.736,517.872,81.204z
			 M381.048,290.198c-13.349,15.681-26.834,31.2-41.429,45.728c-6.343,6.315-12.952,12.405-20.985,16.573
			c-15.167,7.863-21.144,4.928-24.34-11.739c-7.529-39.271-2.834-77.14,12.188-114.089c2.156-5.309,5.301-5.049,9.146-5.381
			c27.612-2.391,55.194-5.453,82.858-6.793c12.458-0.604,22.367-4.24,31.259-12.624c8.408-7.927,17.39-15.248,27.483-21.824
			C450.23,194.493,386.351,283.968,381.048,290.198z"/>
		<path fill-rule="evenodd" clip-rule="evenodd" fill="#D14C43" d="M427.752,157.63c-12.474,13.031-26.522,21.083-45.3,24.559
			c-34.105,6.311-67.439,0.465-101.094-0.805c-21.631-0.814-32.598-16.342-43.682-31.699c9.551-3.605,18.838-9.002,28.706-10.449
			c21.062-3.086,27.495-18.01,28.841-35.133c0.689-8.789-4.646-18.348-8.348-27.097c-3.301-7.795-8.127-15.172-8.84-23.669
			c-1.356-16.18,0.831-32.4,15.138-42.128c15.194-10.328,33.595-14.812,50.981-7.863c15.935,6.37,21.018,23.442,25.572,38.599
			c4.18,13.909,2.051,28.5,1.106,43.018c-0.608,9.372-3.704,12.307-11.614,14.459c-16.914,4.602-14.11,4.891-10.491,22.5
			c4.003,19.482,18.69,18.148,30.794,21.414C395.737,147.714,412.653,149.485,427.752,157.63z"/>
		<path fill-rule="evenodd" clip-rule="evenodd" fill="#D14C43" d="M408.733,555.062c-2.221-6.377-10.639-11.729-4.148-17.721
			c5.861-5.41,8.951-7.566,8.567-21.643c-0.536-19.74-3.114-69.73,1.353-89.275c9.107,17.039,40.355,70.006,44.314,88.591
			c2.443,11.474,6.806,21.171,15.999,28.337c8.049,6.273,13.331,14.482,16.751,23.757c9.524,25.855,21.353,51.073,25.993,78.417
			c3.593,21.182,22.233,36.356,23.132,57.604c0.734,17.386,12.234,25.823,22.47,35.939c5.909,5.836,10.34,12.555,12.124,20.381
			c1.74,7.628,3.863,16.162-4.84,21.795c-8.979,5.815-18.666,5.416-26.055-1.283c-13.152-11.928-26.68-24.168-32.033-42.027
			c-1.695-5.658-2.677-9.051-9.332-5.66c-4.893,2.487-8.346,0.615-10.377-4.568c-14.209-36.252-34.729-68.932-54.262-102.615
			C434.382,618.179,414.392,571.296,408.733,555.062z"/>
		<path fill-rule="evenodd" clip-rule="evenodd" fill="#D14C43" d="M99.741,214.058c-2.65-7.882-1.574-11.541,8.486-11.664
			c22.312-0.268,42.43,2.5,56.273,23.047c5.93,8.803,14.716,13.506,26.42,11.83c14.701-2.109,21.259,11.195,31.201,18.058
			c0.629,0.434,1.289,2.079,1.129,2.218c-12.48,10.68,4.087,13.773,5.633,20.787c1.115,5.059,5.681,9.418,6.527,14.455
			c0.787,4.686,0.197,11.037-2.525,14.507c-3.267,4.167-8.263-1.644-11.86-2.454c-9.361-2.105-13.226-9.445-19.114-15.065
			c-5.398-5.154-10.609-11.886-18.736-12.96c-6.469,0.869-12.019,2.322-18.369,4.332c-14.545,4.602-17.09,3.134-23.82-11.621
			c-10.842-12.388-21.684-24.774-32.525-37.162C103.319,227.327,99.55,221.634,99.741,214.058z"/>
		<path fill-rule="evenodd" clip-rule="evenodd" fill="#D14C43" d="M468.698,211.523c-1.871-0.864-5.773-0.284-5.336-2.746
			c3.234-18.134-1.088-38.415,15.117-52.968c9.635-8.652,18.84-17.783,28.1-26.844c1.582-1.548,4.773-2.775,2.48-6.23
			c-7.538-11.345-3.606-22.289,10.46-27.314c4.971-1.775,2.562-12.147,11.081-8.662c15.936,5.086,16.668,7.439,6.387,19.813
			c-2.271,2.736-4.998,5.267-7.19,7.911c-9.353,11.281-6.665,20.62-0.986,32.374c10.833,22.416-0.304,47.03-23.825,56.65
			C493.325,208.277,480.968,209.646,468.698,211.523z"/>
		<path fill-rule="evenodd" clip-rule="evenodd" fill="#D14C43" d="M429.744,201.873c-8.892,8.384-18.801,12.021-31.259,12.624
			c-27.664,1.34-55.246,4.402-82.858,6.793c-3.845,0.332-6.989,0.072-9.146,5.381c-15.021,36.949-19.717,74.818-12.188,114.089
			c3.196,16.667,9.173,19.603,24.34,11.739c8.033-4.168,14.643-10.258,20.985-16.573c14.595-14.527,28.08-30.047,41.429-45.728
			c5.303-6.23,9.461-12.59,11.8-20.287c0.718-5.254,1.22-10.548,2.191-15.755c5.658-30.38,5.694-30.374,35.484-34.725
			c12.731-10.606,19.707-24.938,26.704-39.383C447.134,186.625,438.152,193.946,429.744,201.873z"/>
		<path fill-rule="evenodd" clip-rule="evenodd" fill="#3E456D" d="M134.714,489.741c-2.338-57.707-2.227-115.418,2.109-173.005
			c1.1-14.622,8.721-89.567,12.658-103.964c1.29-7.276-3.359-12.151-7.817-16.204c-8.632-7.848-1.837-21.37-15.204-24.204
			c-0.086,1.787,0.227,3.708-0.318,5.344c-14.789,44.458-47.776,148.85-62.47,193.34c-5.604,16.971-10.823,34.146-1.874,51.734
			c3.258,6.4,3.436,12.549-0.227,19.088c-12.215,21.816-22.248,44.856-36.247,65.65c-4.111,6.109-2.081,7.717,3.399,10.775
			c7.115,3.975,15.744,8.35,19.299,14.938c7.381,13.683,20.693,24.672,22.99,40.168C72.968,586.597,134.767,491.036,134.714,489.741
			z"/>
	</g>
</g>
<g id="Layer_0-6_copy">
</g>
<g id="Layer_0-5_copy">
</g>
<g id="Layer_0-4_copy">
</g>
<g id="Layer_0-3_copy">
</g>
<g id="Layer_0-2_copy">
</g>
<g id="Layer_0-1_copy">
</g>
<g id="Layer_0-0_copy">
</g>
</svg>
