<?xml version="1.0" encoding="utf-8"?>
<!-- Generator: Adobe Illustrator 16.0.0, SVG Export Plug-In . SVG Version: 6.00 Build 0)  -->
<!DOCTYPE svg PUBLIC "-//W3C//DTD SVG 1.1//EN" "http://www.w3.org/Graphics/SVG/1.1/DTD/svg11.dtd">
<svg version="1.1" xmlns="http://www.w3.org/2000/svg" xmlns:xlink="http://www.w3.org/1999/xlink" x="0px" y="0px" width="600px"
	 height="800px" viewBox="0 0 600 800" enable-background="new 0 0 600 800" xml:space="preserve">
<g id="Layer_0-0">
</g>
<g id="Layer_0-1">
</g>
<g id="Layer_0-2">
</g>
<g id="Layer_0-3">
</g>
<g id="Layer_0-4">
</g>
<g id="Layer_0-5">
</g>
<g id="Layer_0-6">
</g>
<g id="Layer_1">
</g>
<g id="Layer_2">
</g>
<g id="Layer_3">
</g>
<g id="Layer_4">
</g>
<g id="Layer_5">
</g>
<g id="Layer_6">
</g>
<g id="Layer_7">
</g>
<g id="Layer_8">
</g>
<g id="Layer_9">
</g>
<g id="Layer_10">
</g>
<g id="Layer_11">
</g>
<g id="Layer_12">
</g>
<g id="Layer_13">
</g>
<g id="Layer_14">
</g>
<g id="Layer_15">
</g>
<g id="Layer_16">
</g>
<g id="Layer_17_1_">
</g>
<g id="Layer_18_1_">
</g>
<g id="Layer_19">
</g>
<g id="Layer_20">
</g>
<g id="Layer_21">
</g>
<g id="Layer_22">
</g>
<g id="Layer_23">
</g>
<g id="Layer_10_copy">
</g>
<g id="Layer_11_copy">
</g>
<g id="Layer_12_copy">
</g>
<g id="Layer_13_copy">
</g>
<g id="Layer_14_copy">
</g>
<g id="Layer_15_copy">
</g>
<g id="Layer_16_copy">
</g>
<g id="Layer_17_copy">
</g>
<g id="Layer_18_copy">
</g>
<g id="Layer_19_copy">
</g>
<g id="Layer_20_copy">
</g>
<g id="Layer_21_copy">
</g>
<g id="Layer_22_copy">
</g>
<g id="Layer_23_copy">
	<g>
		<path fill-rule="evenodd" clip-rule="evenodd" fill="#3E456D" d="M457.189-591.075c-0.145,1.166-3.219,23.662-3.961,33.905
			c-1.318,18.167-11.51,34.688-11.062,53.412c0.043,1.825-1.338,3.878-2.449,5.626c-1.133,1.787-1.943,3.654-1.953,5.784
			c-0.084,14.705-3.387,29.33-1.721,44.036c1.26,11.104,0.949,22.238,1.688,33.286c0.809,12.073-5.969,20.789-9.766,30.938
			c-11.232,4.454-22.49,11.188-34.105,0.796c-14.607-0.538-28.277-4.136-40.572-12.302c-5.594-2.713-9.459-7.055-11.973-12.669
			c-8.24-11.459-15.646-23.328-18.211-37.532c-2.068-23.116-6.256-46.201-1.402-69.488c0.729-3.497-0.004-7.061-0.562-10.576
			c-0.795-4.987-1.045-10.01-0.062-14.999c1-5.08,3.859-8.82,9.064-9.765c11.328-2.056,45.641-7.589,50.426-11.458
			c9.703-9.671,51.838-29.79,61.129-33.278c5.295-2.969,13.037-10.689,17.027-5.41C460.201-598.812,457.492-593.509,457.189-591.075
			z M474.451-610.039c4.396-6.411,9.266-11.299,11.889-18.256c-0.01-1.106,2.32-6.914,2.402-6.95
			c2.857-1.29,10.201-6.049,12.152-5.73c-0.576-1.15-1.156-2.303-1.73-3.455c0.852-10.574-5.34-16.045-14.193-19.584
			c-2.893-2.487-6.014-4.759-8.621-7.516c-3.371-3.566-14.496,1.87-14.758,5.831c-0.039,0.586-2.566,7.142-5.088,8.961
			c-1.078,0.749-5.768,17.108-5.469,24.796c-0.594,0.604-8.943,1.857-12.525,1.881c-1.803,0.01-66.664,22.973-72.32,24.751
			c-26.811,8.429-44.629,13.69-72.523,4.938c-9.697,1.417-24.229-13.279-36.955-23.303c-0.68-0.535-29.137-13.18-29.137-13.18
			c-6.869-15.575-30.01-18.469-15.596-24.632c6.916-2.957,12.871-2.971,8.73-15.539c-2.721-8.262-1.705-19.897-5.359-24.156
			c-10.609-12.37-7.359-24.243-16.287-35.394c-11.709-14.622-20.828-18.848-38.125-11.703c-14.02,5.789-22.004,3.634-32.623,16.725
			c-15.6,19.237-16.217,29.737-4.191,47.191c4.018,5.83,8.232,10.004,9.197,19.209c1.012,9.658,9.967,13.98,16.305,15.906
			c4.148,1.261,4.998,0.012,8.883,5.082c3.701,4.834-2.115,10.863-5.141,14.253c0,0-5.756,37.415,8.389,47.612
			c14.305,11.135,12.982,17.294,19.617,33.595c4.781,4.562,8.738,9.627,9.992,16.333c4.492,6.98,11.543,11.605,16.625,18.044
			c4.402,2.204,4.096,6.264,4.068,10.202c0.223,4.582,2.098,8.537,5.098,11.882c4.861,5.419,9.496,11.007,13.762,16.892
			c2.064,2.945,6.643,5.029,3.705,9.839c0.342,2.839,0.018,5.49-2.164,7.612c-7.555,16.381-9.992,66.79-22.062,79.866
			c-10.383,9.111-17.973,20.814-28.369,30.03c-5.16,4.576-1.066,9.619,3.426,13.309c8.615,7.068,10.717,14.601,6.92,24.815
			c-2.08,5.592-36.955,13.479-42.6,14.768c-8.232,1.882-20.023,5.917-19.826,5.78c-7.119-0.431-18.158,24.792-18.158,24.792
			s-5.467,61.209-3.166,63.655c6.479,6.883,5.719,13.051,0.264,20.329c-6.008,8.016-22.062,18.595-22.064,18.599
			c-2.309,0.435-4.723,0.57-6.904,1.352c-16.742,6.002-6.256,47.093-1.107,45.863c5.643-1.345,8.455,0.729,8.518,6.604
			c0.061,5.785,2.238,10.895,5.357,15.658v-0.004v0.004c1.711,3.396,3.229,6.91,5.166,10.173
			c13.461,22.657,24.293,18.508,49.594,23.869c9.467,2.007,13.02,22.491,10.602,31.778c4.576,2.217,7.018-1.129,9.736-3.759
			c7.176-9.313,18.615,0.128,19.996,2.266c11.396,44.073,32.711,26.099,61.346,14.573c1.129,1.729,3.229-0.543,3.475,1.18
			c0.691,4.854,0.006,8.8,2.76,8.726c5.645-0.151,7.607-4.604,5.643-10.448c-1.707-5.079,1.369-6.316,5.721-5.461
			c2.852,0.561,5.643,1.445,8.459,2.186c3.615,2.304,7.23,4.607,10.846,6.912v-0.002l0,0c2.93,1.623,4.76,5.097,8.629,5.141
			c2.553,2.049,5.209,3.876,8.678,3.857c11.168-0.062,22.342,0.049,33.502-0.287c4.725-0.143,9.268-1.637,12.93-4.971
			c2.92-0.733,5.85-1.676,5.57-5.435c-0.262-3.553-2.551-5.903-5.922-6.642c-4.504-0.988-9.109-1.52-13.672-2.246
			c-0.389-0.333-0.793-0.479-1.213-0.465c-11.104-4.308,9.918-40.875,14.264-46.113c2.814-3.394,21.693-11.938,27.479-8.157v0.001
			c0.549,1.245,1.094,2.49,1.643,3.736c3.141-0.277,6.26-1.648,9.424-0.205c20.6,3.591,20.6,3.591,28.062-15.893
			c0.209-0.551,10.893-9.297,12.689-15.902c0.67-3.773,0.455-7.605,0.678-11.412c1.133-19.451-0.697-38.602-5.637-57.467
			c-4.807-9.082-7.969-18.312-6.961-29.018c0.604-6.41,2.264-10.703,8.592-12.532c5.873-1.562,18.338-8.646,19.041-9.624
			c3.049-4.254,7.939-7.491,12.354-6.823c4.055,0.613,9.131-12.855,9.338-27.442c0.143-10.232,6.324-30.418,6.709-30.78
			c2.996-17.428,6.178-34.679,5.883-52.645c-0.76-46.412,0.76-92.874-4.062-139.167c2.412-2.352,4.828-4.705,7.24-7.057
			c4.359-1.683,6.867-4.897,7.803-9.416c1.373-6.949-4.301-11.453-6.031-17.331c0.855-10.884-4.939-20.612-5.379-31.326
			c-0.248-6.013,1.23-21.074-1.393-30.848c-1.287-5.308-7.746-8.929-6.691-14.854C470.398-596.456,471.783-606.148,474.451-610.039z
			"/>
	</g>
</g>
<g id="Layer_24">
</g>
<g id="Layer_25">
</g>
<g id="Layer_26">
</g>
<g id="Layer_27">
</g>
<g id="Layer_0-6_copy">
</g>
<g id="Layer_0-5_copy">
</g>
<g id="Layer_0-4_copy">
</g>
<g id="Layer_0-3_copy">
</g>
<g id="Layer_0-2_copy">
</g>
<g id="Layer_0-1_copy">
	<g>
		<path display="none" fill-rule="evenodd" clip-rule="evenodd" fill="#3E456D" d="M517.871,81.203
			c-8.167-0.939-17.316,0.332-18.214-15.666c-6.018,14.595-11.494,24.92-11.159,36.557c0.213,7.443-2.031,12.912-7.195,17.627
			c-16.281,14.848-32.319,30.049-53.551,37.908c-12.936,4.884-22.158,17.85-36.307,19.076c-23.318,2.02-46.286,8.977-70.22,4.381
			c-9.913-1.904-20.13-3.813-30.464-3.211c-15.569,0.906-28.918-3.098-38.622-16.463c-3.642-5.017-9.55-7.914-14.464-11.729
			c-6.687-15.161-4.859-19.779,9.171-25.779c6.731-2.879,17.937-2.893,13.907-15.125c-2.649-8.043,0.461-20.864-4.314-23.514
			c-14.397-7.992-15.281-23.6-23.971-34.452c-11.396-14.232-20.271-18.346-37.108-11.393c-13.646,5.636-27.435,10.021-38.966,21.69
			c-19.412,19.65-21.402,24.775-4.081,45.936c4.366,5.332,9.333,9.957,7.147,18.697c-1.619,6.477,12.423,19.911,16.773,17.289
			c3.615-2.181,5.766-5.4,9.547-0.463c3.604,4.703,1.547,8.769-1.396,12.068c-5.467,6.123-11.912,10.105-20.998,9.256
			c-36.303-3.387-71.357,10.792-107.793,7.944c-7.373-0.579-14.83,4.72-16.426,13.375c-1.774,9.626,5.688,13.523,12.73,16.485
			c15.303,6.434,31.371,10.266,47.843,12.357c2.54-5.17,6.104-7.703,12.44-7.968c17.829-0.741,33.676,2.087,45.564,17.265
			c9.189,11.729,20.827,18.529,36.83,18.477c12.592-0.04,18.995,8.256,20.791,21.984c0.491,3.766,2.883,6.48,5.102,9.274
			c4.203,5.294,7.666,11.019,10.121,17.317c1.508,3.871,2.587,8.209-0.765,11.321c-4.015,3.731-7.421-0.59-10.794-2.171
			c-8.729-4.096-13.229-13.371-21.443-18.04c-4.758-2.702-9.871-9.199-15.301-0.687c-0.099,3.628,0.63,7.217,2.12,10.438
			c7.544,16.296,5.676,31.625-2.095,47.631c-10.113,20.826-13.633,43.438-13.365,66.577c0.085,7.278-0.832,14.177-4.953,20.524
			c-13.783,21.223-24.056,43.975-28.935,67.523c0.084,1.238,0.008,2.267-0.612,2.801c0.176-0.938,0.42-1.864,0.612-2.801
			c-0.077-1.154-0.294-2.488-0.347-3.783c-2.338-57.707-2.226-115.418,2.109-173.005c1.101-14.622,0.721-29.567,4.659-43.964
			c1.29-7.276-3.359-12.151-7.817-16.204c-8.633-7.848-11.838-21.37-25.205-24.204c-0.086,1.787,0.227,3.708-0.318,5.344
			c-14.788,44.458-29.775,88.85-44.469,133.34c-5.605,16.971-10.823,34.146-1.875,51.734c3.258,6.4,3.437,12.549-0.227,19.088
			c-12.214,21.816-22.248,44.856-36.246,65.65c-4.111,6.109-2.082,7.717,3.399,10.775c7.114,3.975,15.744,8.35,19.299,14.938
			c7.38,13.683,20.693,24.672,22.989,40.168c1.956,13.195,15.916,26.601-0.154,40.807c6.012,1.676,10.17,3.324,14.473,3.933
			c8.043,1.144,8.881,5.263,4.524,10.825c-11.757,15.002-8.657,29.852-0.542,45.027c3.158,5.912,5.469,11.795,2.764,19.102
			c-9.849,26.59-13.312,54.525-17.091,82.455c-1.191,8.821,2.096,10.893,9.073,12.703c8.143,2.115,15.873-5.285,21.615-3.545
			c18.215,5.52,36.777,5.492,55.237,7.553c17.646,1.967,35.21,4.671,52.79,7.18c23.664,3.375,26.91-9.6,50.354-9.536
			c16.84,0.044,24.638-5.376,41.528-5.793c11.689-0.292,16.058-12.786,27.011-12.731c0.568,0.004,1.748-3.102,1.634-4.686
			c-0.748-10.254,6.265-11.189,13.786-12.391c7.371-1.178,15.052,1.365,22.215-3.15c12.263-7.729,16.455-13.535,19.179,1.469
			c0.437,2.391-0.687,5.742,3.877,5.682c3.235-4.029-1.263-10.217,5.571-11.957c7.125-1.812,10.886,4.95,15.809,8.52
			c0.717,0.52,1.371,1.178,1.911,1.882c13.466,17.6,30.783,17.325,49.204,13.649c3.279-0.652,4.863,1.607,5.099-2.68
			c0.263-4.709-3.396-6.785-6.614-7.966c-13.363-4.916-28.039-11.692-32.146-24.563c-4.781-14.99-13.601-26.219-15.23-42.388
			c-2.016-19.979-5.223-39.836-7.915-59.747c-0.231-10.691-3.19-21.068-3.74-31.719c-3.978-13.185-6.825-26.74-12.282-39.441
			c-3.624-8.438-2.705-14.408,6.918-17.697c9.181-3.137,12.946-10.193,12.811-19.689c-0.3-21.31,4.756-42.457,2.005-63.848
			c0.236-15.209-0.972-30.605,0.96-45.596c8-62.041,44.712-123.886,45.121-186.666c0.043-6.531,0.328-13.595,7.935-16.874
			c-2.354-21.511-1.278-41.86,16.869-57.54c7.43-6.42,14.153-13.701,20.883-20.895c3.714-3.966,6.214-7.457,3.317-14.09
			c-3.386-7.746,0.818-15.256,8.064-19.167c5.889-3.179,9.854-7.403,12.768-13.073C527.844,81.539,522.517,81.735,517.871,81.203z
			 M381.048,290.197c-13.349,15.681-26.835,31.2-41.429,45.728c-6.344,6.315-12.952,12.405-20.986,16.573
			c-15.166,7.863-21.143,4.928-24.339-11.739c-7.53-39.271-2.835-77.14,12.187-114.089c2.157-5.309,5.301-5.049,9.146-5.381
			c27.612-2.391,55.193-5.453,82.857-6.793c12.459-0.604,22.367-4.24,31.26-12.624c8.408-7.927,17.389-15.248,27.482-21.824
			C450.23,194.492,386.351,283.967,381.048,290.197z"/>
		<path fill-rule="evenodd" clip-rule="evenodd" fill="#3E456D" d="M517.871,81.203c-8.167-0.939-17.316,0.332-18.214-15.666
			c-6.018,14.595-11.494,24.92-11.159,36.557c0.213,7.443-2.031,12.912-7.195,17.627c-16.281,14.848-32.319,30.049-53.551,37.908
			c-12.936,4.884-22.158,17.85-36.307,19.076c-23.318,2.02-46.286,8.977-70.22,4.381c-9.913-1.904-20.13-3.813-30.464-3.211
			c-15.569,0.906-28.918-3.098-38.622-16.463c-3.642-5.017-9.55-7.914-14.464-11.729c-6.687-15.161-4.859-19.779,9.171-25.779
			c6.731-2.879,17.937-2.893,13.907-15.125c-2.649-8.043,0.461-20.864-4.314-23.514c-14.397-7.992-15.281-23.6-23.971-34.452
			c-11.396-14.232-20.271-18.346-37.108-11.393c-13.646,5.636-27.435,10.021-38.966,21.69c-19.412,19.65-21.402,24.775-4.081,45.936
			c4.366,5.332,9.333,9.957,7.147,18.697c-1.619,6.477,12.423,19.911,16.773,17.289c3.615-2.181,5.766-5.4,9.547-0.463
			c3.604,4.703,1.547,8.769-1.396,12.068c-5.467,6.123-11.912,10.105-20.998,9.256c-36.303-3.387-71.357,10.792-107.793,7.944
			c-7.373-0.579-14.83,4.72-16.426,13.375c-1.774,9.626,5.688,13.523,12.73,16.485c15.303,6.434,31.371,10.266,47.843,12.357
			c2.54-5.17,6.104-7.703,12.44-7.968c17.829-0.741,33.676,2.087,45.564,17.265c9.189,11.729,20.827,18.529,36.83,18.477
			c12.592-0.04,18.995,8.256,20.791,21.984c0.491,3.766,2.883,6.48,5.102,9.274c4.203,5.294,7.666,11.019,10.121,17.317
			c1.508,3.871,2.587,8.209-0.765,11.321c-4.015,3.731-7.421-0.59-10.794-2.171c-8.729-4.096-13.229-13.371-21.443-18.04
			c-4.758-2.702-9.871-9.199-15.301-0.687c-0.099,3.628,0.63,7.217,2.12,10.438c7.544,16.296,5.676,31.625-2.095,47.631
			c-10.113,20.826-13.633,43.438-13.365,66.577c0.085,7.278-0.832,14.177-4.953,20.524c-13.783,21.223-24.056,43.975-28.935,67.523
			c0.084,1.238,0.008,2.267-0.612,2.801c0.176-0.938,0.42-1.864,0.612-2.801c-0.077-1.154-0.294-2.488-0.347-3.783
			c-2.338-57.707-2.226-115.418,2.109-173.005c1.101-14.622,0.721-29.567,4.659-43.964c1.29-7.276-3.359-12.151-7.817-16.204
			c-8.633-7.848-11.838-21.37-25.205-24.204c-0.086,1.787,0.227,3.708-0.318,5.344c-14.788,44.458-29.775,88.85-44.469,133.34
			c-5.605,16.971-10.823,34.146-1.875,51.734c3.258,6.4,3.437,12.549-0.227,19.088c-12.214,21.816-22.248,44.856-36.246,65.65
			c-4.111,6.109-2.082,7.717,3.399,10.775c7.114,3.975,15.744,8.35,19.299,14.938c7.38,13.683,20.693,24.672,22.989,40.168
			c1.956,13.195,15.916,26.601-0.154,40.807c6.012,1.676,10.17,3.324,14.473,3.933c7.209,1.024,8.409,4.291,5.633,9.1
			c-37.225,105.409,39.246,82.907,52.164,89.968c12.918,7.066-3.184,44.583,13.147,58.241c8.901,7.446,11.616-49.298,38.411-40.04
			c7.29,2.518,12.684,0.883,15.902-5.342c9.305-17.98-14.734-34.63-17.451-35.1c0,0,14.477,18.584,2.409,23.371
			c-0.007,0.004-0.02,0-0.028,0c-55.86,8.174-34.082-55.762-11.484-45.977c7.494,3.244,14.359-47.503-12.199-33.2
			c-56.316,30.322-59.145-78.144-33.874-93.117c9.944-5.892,24.028,29.759,30.515,34.706c-3.549-15.607,0.545-33.148,1.465-32.643
			c0.028,0.258-1.795,24.545,11.139,34.252c-10.953-48.74,13.688-54.403,9.416-34.562c0,0,2.283-1.594,7.176,0.594
			c-6.542,1.568-6.516,4.776-7.176,6.927c-0.145,0.423-4.635,30.121-10.047,43.572c10.475-14.89,13.609-17.201,33.328-15.938
			c-28.465,5.67-29.455,44.785,7.606,31.793c-4.852,15.144-8.75,35.939-14.239,52.475c-9.973,30.055,7.023,38.168,13.493,39.761
			c67.003,16.483,38.161-27.485,32.296-18.144c-7.543,12.021-39.674-6.907-21.387-28.342c9.338-10.945,55.378-2.43,54.773,25.293
			c-0.46,20.203-3.301,35.861-29.797,84.775c35.508-33.006,127.629-27.891,128-27.252c2.257,0.237,3.709,2.83,4.886,9.311
			c0.437,2.391-0.687,5.742,3.877,5.682c3.235-4.029-1.263-10.217,5.571-11.957c7.125-1.812,10.886,4.95,15.809,8.52
			c0.717,0.52,1.371,1.178,1.911,1.882c13.466,17.6,30.783,17.325,49.204,13.649c3.279-0.652,4.863,1.607,5.099-2.68
			c0.263-4.709-3.396-6.785-6.614-7.966c-13.363-4.916-28.039-11.692-32.146-24.563c-4.781-14.99-13.601-26.219-15.23-42.388
			c-2.016-19.979-5.223-39.836-7.915-59.747c-0.231-10.691-3.19-21.068-3.74-31.719c-3.978-13.185-6.825-26.74-12.282-39.441
			c-3.624-8.438-2.705-14.408,6.918-17.697c9.181-3.137,12.946-10.193,12.811-19.689c-0.3-21.31,4.756-42.457,2.005-63.848
			c0.236-15.209-0.972-30.605,0.96-45.596c8-62.041,44.712-123.886,45.121-186.666c0.043-6.531,0.328-13.595,7.935-16.874
			c-2.354-21.511-1.278-41.86,16.869-57.54c7.43-6.42,14.153-13.701,20.883-20.895c3.714-3.966,6.214-7.457,3.317-14.09
			c-3.386-7.746,0.818-15.256,8.064-19.167c5.889-3.179,9.854-7.403,12.768-13.073C527.844,81.539,522.517,81.735,517.871,81.203z
			 M123.031,652.582c0.03,4.667-4.305,7.771-18.659,0.706c-14.354-7.066,3.796,16.773,8.612,18.366
			c17.883,5.916,13.59-20.49,25.205-18.17c18.007,3.604,19.952,22.75,17.568,29.729c-4.019,11.559-28.189,16.334-46.592,13.395
			c-17.77-2.795-28.98-38.785-13.348-57.477C107.43,625.25,122.984,644.994,123.031,652.582z M381.048,290.197
			c-13.349,15.681-26.835,31.2-41.429,45.728c-6.344,6.315-12.952,12.405-20.986,16.573c-15.166,7.863-21.143,4.928-24.339-11.739
			c-7.53-39.271-2.835-77.14,12.187-114.089c2.157-5.309,5.301-5.049,9.146-5.381c27.612-2.391,55.193-5.453,82.857-6.793
			c12.459-0.604,22.367-4.24,31.26-12.624c8.408-7.927,17.389-15.248,27.482-21.824C450.23,194.492,386.351,283.967,381.048,290.197
			z"/>
		<path fill-rule="evenodd" clip-rule="evenodd" fill="#D14C43" d="M427.752,157.629c-12.474,13.031-26.523,21.083-45.301,24.559
			c-34.104,6.311-67.439,0.465-101.093-0.805c-21.632-0.814-32.598-16.342-43.683-31.699c9.551-3.605,18.839-9.002,28.707-10.449
			c21.062-3.086,27.494-18.01,28.84-35.133c0.69-8.789-4.645-18.348-8.348-27.097c-3.301-7.795-8.127-15.172-8.839-23.67
			c-1.356-16.18,0.831-32.4,15.138-42.127c15.193-10.328,33.595-14.812,50.981-7.863c15.935,6.371,21.018,23.443,25.571,38.6
			c4.18,13.908,2.052,28.499,1.107,43.017c-0.609,9.372-3.705,12.307-11.615,14.459c-16.914,4.602-14.109,4.891-10.49,22.5
			c4.003,19.482,18.69,18.148,30.793,21.414C395.736,147.713,412.653,149.484,427.752,157.629z"/>
		<path fill-rule="evenodd" clip-rule="evenodd" fill="#D14C43" d="M408.732,555.061c-2.221-6.377-10.638-11.729-4.147-17.721
			c5.861-5.41,8.95-7.566,8.567-21.643c-0.536-19.74-3.114-69.73,1.352-89.275c9.107,17.039,40.355,70.006,44.315,88.591
			c2.443,11.474,6.806,21.171,15.999,28.337c8.049,6.273,13.331,14.482,16.751,23.757c9.524,25.855,21.353,51.073,25.993,78.417
			c3.592,21.182,22.232,36.356,23.131,57.604c0.734,17.386,12.234,25.823,22.471,35.939c5.909,5.836,10.34,12.555,12.124,20.381
			c1.739,7.628,3.863,16.162-4.84,21.795c-8.979,5.815-18.667,5.416-26.055-1.283c-13.153-11.928-26.68-24.168-32.033-42.027
			c-1.696-5.658-2.677-9.051-9.333-5.66c-4.892,2.487-8.346,0.615-10.377-4.568c-14.208-36.252-34.729-68.932-54.262-102.615
			C434.381,618.178,414.391,571.295,408.732,555.061z"/>
		<path fill-rule="evenodd" clip-rule="evenodd" fill="#D14C43" d="M99.741,214.057c-2.65-7.882-1.574-11.541,8.485-11.664
			c22.312-0.268,42.43,2.5,56.273,23.047c5.93,8.803,14.717,13.506,26.421,11.83c14.7-2.109,21.259,11.195,31.2,18.058
			c0.629,0.434,1.29,2.079,1.129,2.218c-12.48,10.68,4.088,13.773,5.633,20.787c1.116,5.059,5.682,9.418,6.527,14.455
			c0.787,4.686,0.197,11.037-2.525,14.507c-3.266,4.167-8.262-1.644-11.859-2.454c-9.361-2.105-13.227-9.445-19.115-15.065
			c-5.398-5.154-10.608-11.886-18.736-12.96c-6.469,0.869-12.018,2.322-18.369,4.332c-14.545,4.602-17.089,3.134-23.82-11.621
			c-10.842-12.388-21.684-24.774-32.525-37.162C103.318,227.326,99.55,221.633,99.741,214.057z"/>
		<path fill-rule="evenodd" clip-rule="evenodd" fill="#D14C43" d="M468.698,211.522c-1.872-0.864-5.774-0.284-5.336-2.746
			c3.233-18.134-1.089-38.415,15.116-52.968c9.635-8.652,18.841-17.783,28.1-26.844c1.583-1.548,4.773-2.775,2.48-6.23
			c-7.537-11.345-3.605-22.289,10.461-27.314c4.971-1.775,2.562-12.147,11.08-8.662c15.936,5.086,16.668,7.439,6.388,19.813
			c-2.272,2.736-4.999,5.267-7.19,7.911c-9.354,11.281-6.666,20.62-0.986,32.374c10.832,22.416-0.305,47.03-23.825,56.65
			C493.325,208.276,480.967,209.645,468.698,211.522z"/>
		<path fill-rule="evenodd" clip-rule="evenodd" fill="#D14C43" d="M429.744,201.872c-8.893,8.384-18.801,12.021-31.26,12.624
			c-27.664,1.34-55.245,4.402-82.857,6.793c-3.846,0.332-6.989,0.072-9.146,5.381c-15.021,36.949-19.717,74.818-12.187,114.089
			c3.196,16.667,9.173,19.603,24.339,11.739c8.034-4.168,14.643-10.258,20.986-16.573c14.594-14.527,28.08-30.047,41.429-45.728
			c5.303-6.23,9.461-12.59,11.8-20.287c0.717-5.254,1.22-10.548,2.191-15.755c5.658-30.38,5.694-30.374,35.484-34.725
			c12.73-10.606,19.707-24.938,26.703-39.383C447.133,186.624,438.152,193.945,429.744,201.872z"/>
		<path fill-rule="evenodd" clip-rule="evenodd" fill="#3E456D" d="M134.713,489.74c-2.338-57.707-2.226-115.418,2.109-173.005
			c1.101-14.622,8.721-89.567,12.659-103.964c1.29-7.276-3.359-12.151-7.817-16.204c-8.633-7.848-1.838-21.37-15.205-24.204
			c-0.086,1.787,0.227,3.708-0.318,5.344c-14.788,44.458-47.775,148.85-62.469,193.34c-5.605,16.971-10.823,34.146-1.875,51.734
			c3.258,6.4,3.437,12.549-0.227,19.088c-12.214,21.816-22.248,44.856-36.246,65.65c-4.111,6.109-2.082,7.717,3.399,10.775
			c7.114,3.975,15.744,8.35,19.299,14.938c7.38,13.683,20.693,24.672,22.989,40.168C72.968,586.596,134.766,491.035,134.713,489.74z
			"/>
	</g>
</g>
<g id="Layer_0-0_copy">
</g>
</svg>
