<?xml version="1.0" encoding="utf-8"?>
<!-- Generator: Adobe Illustrator 16.0.0, SVG Export Plug-In . SVG Version: 6.00 Build 0)  -->
<!DOCTYPE svg PUBLIC "-//W3C//DTD SVG 1.1//EN" "http://www.w3.org/Graphics/SVG/1.1/DTD/svg11.dtd">
<svg version="1.1" xmlns="http://www.w3.org/2000/svg" xmlns:xlink="http://www.w3.org/1999/xlink" x="0px" y="0px" width="600px"
	 height="800px" viewBox="0 0 600 800" enable-background="new 0 0 600 800" xml:space="preserve">
<g id="Layer_0-0">
</g>
<g id="Layer_0-1">
</g>
<g id="Layer_0-2">
</g>
<g id="Layer_0-3">
</g>
<g id="Layer_0-4">
</g>
<g id="Layer_0-5">
</g>
<g id="Layer_0-6">
</g>
<g id="Layer_1">
	<g>
		<path fill-rule="evenodd" clip-rule="evenodd" fill="#3E456D" d="M517.872,81.203c-8.167-0.939-17.316,0.332-18.214-15.666
			c-6.018,14.595-11.494,24.92-11.159,36.557c0.212,7.443-2.031,12.912-7.196,17.627c-16.281,14.848-32.318,30.049-53.551,37.908
			c-12.936,4.884-22.157,17.85-36.306,19.076c-23.319,2.02-46.287,8.977-70.22,4.381c-9.914-1.904-20.13-3.813-30.464-3.211
			c-15.569,0.906-28.919-3.098-38.622-16.463c-3.643-5.017-9.551-7.914-14.464-11.729c-6.687-15.161-4.86-19.779,9.171-25.779
			c6.73-2.879,17.937-2.893,13.906-15.125c-2.648-8.043,0.461-20.864-4.314-23.514c-14.396-7.992-15.28-23.6-23.971-34.452
			c-11.396-14.233-20.271-18.346-37.107-11.394c-13.646,5.637-27.436,10.021-38.967,21.691c-19.411,19.65-21.401,24.775-4.08,45.936
			c4.365,5.332,9.332,9.957,7.147,18.697c-1.62,6.477,12.423,19.911,16.772,17.289c3.615-2.181,5.766-5.4,9.547-0.463
			c3.604,4.703,1.548,8.769-1.396,12.068c-5.466,6.123-11.911,10.105-20.998,9.256c-36.303-3.387-71.357,10.792-107.793,7.944
			c-7.373-0.579-14.829,4.72-16.425,13.375c-1.774,9.626,5.687,13.523,12.729,16.485c15.304,6.434,31.371,10.266,47.844,12.357
			c2.539-5.17,6.104-7.703,12.439-7.968c17.83-0.741,33.676,2.087,45.564,17.265c9.189,11.729,20.828,18.529,36.83,18.477
			c12.592-0.04,18.996,8.256,20.791,21.984c0.492,3.766,2.883,6.48,5.102,9.274c4.203,5.294,7.666,11.019,10.121,17.317
			c1.508,3.871,2.588,8.209-0.765,11.321c-4.015,3.731-7.421-0.59-10.794-2.171c-8.729-4.096-13.229-13.371-21.443-18.04
			c-4.757-2.702-9.871-9.199-15.301-0.687c-0.098,3.628,0.631,7.217,2.121,10.438c7.544,16.296,5.676,31.625-2.096,47.631
			c-10.113,20.826-13.633,43.438-13.365,66.577c0.086,7.278-0.832,14.177-4.953,20.524c-13.782,21.223-24.055,43.975-28.934,67.523
			c0.084,1.238,0.008,2.267-0.613,2.801c0.176-0.938,0.42-1.864,0.613-2.801c-0.078-1.154-0.295-2.488-0.348-3.783
			c-2.338-57.707-2.225-115.418,2.109-173.005c1.102-14.622,0.722-29.567,4.66-43.964c1.289-7.276-3.359-12.151-7.818-16.204
			c-8.632-7.848-11.838-21.37-25.204-24.204c-0.087,1.787,0.226,3.708-0.319,5.344c-14.787,44.458-29.775,88.85-44.469,133.34
			c-5.604,16.971-10.822,34.146-1.875,51.734c3.258,6.4,3.438,12.549-0.226,19.088c-12.214,21.816-22.248,44.856-36.247,65.65
			c-4.111,6.109-2.081,7.717,3.4,10.775c7.114,3.975,15.744,8.35,19.299,14.938c7.379,13.683,20.693,24.672,22.989,40.168
			c1.956,13.195,15.916,26.601-0.155,40.807c6.013,1.676,10.17,3.324,14.474,3.933c8.043,1.144,8.88,5.263,4.524,10.825
			c-11.758,15.002-8.657,29.852-0.543,45.027c3.158,5.912,5.469,11.795,2.764,19.102c-9.848,26.59-13.312,54.525-17.09,82.455
			c-1.191,8.821,2.096,10.893,9.072,12.703c8.144,2.115,15.873-5.285,21.615-3.545c18.215,5.52,36.777,5.492,55.238,7.553
			c17.645,1.967,35.209,4.671,52.789,7.18c23.664,3.375,26.91-9.6,50.354-9.536c16.839,0.044,24.638-5.376,41.528-5.793
			c11.689-0.292,16.057-12.786,27.01-12.731c0.568,0.004,1.749-3.102,1.635-4.686c-0.748-10.254,6.264-11.189,13.785-12.391
			c7.371-1.178,15.053,1.365,22.215-3.15c12.264-7.729,16.455-13.535,19.18,1.469c0.436,2.391-0.688,5.742,3.876,5.682
			c3.235-4.029-1.263-10.217,5.571-11.957c7.125-1.812,10.887,4.95,15.81,8.52c0.716,0.52,1.37,1.178,1.91,1.882
			c13.466,17.6,30.784,17.325,49.204,13.649c3.28-0.652,4.863,1.607,5.1-2.68c0.262-4.709-3.396-6.785-6.615-7.966
			c-13.363-4.916-28.039-11.692-32.146-24.563c-4.781-14.99-13.6-26.219-15.229-42.388c-2.017-19.979-5.223-39.836-7.915-59.747
			c-0.231-10.691-3.191-21.068-3.74-31.719c-3.979-13.185-6.826-26.74-12.282-39.441c-3.625-8.438-2.706-14.408,6.918-17.697
			c9.181-3.137,12.946-10.193,12.81-19.689c-0.299-21.31,4.756-42.457,2.006-63.848c0.236-15.209-0.972-30.605,0.96-45.596
			c7.999-62.041,44.712-123.886,45.12-186.666c0.043-6.531,0.329-13.595,7.936-16.874c-2.355-21.511-1.279-41.86,16.869-57.54
			c7.43-6.42,14.152-13.701,20.882-20.895c3.714-3.966,6.215-7.457,3.317-14.09c-3.385-7.746,0.818-15.256,8.064-19.167
			c5.889-3.179,9.854-7.403,12.768-13.073C527.845,81.539,522.518,81.735,517.872,81.203z M381.049,290.197
			c-13.35,15.681-26.836,31.2-41.43,45.728c-6.344,6.315-12.951,12.405-20.986,16.573c-15.166,7.863-21.143,4.928-24.338-11.739
			c-7.531-39.271-2.835-77.14,12.186-114.089c2.158-5.309,5.302-5.049,9.146-5.381c27.613-2.391,55.193-5.453,82.857-6.793
			c12.459-0.604,22.368-4.24,31.26-12.624c8.408-7.927,17.389-15.248,27.482-21.824C450.23,194.492,386.352,283.967,381.049,290.197
			z"/>
		<path fill-rule="evenodd" clip-rule="evenodd" fill="#D14C43" d="M427.752,157.629c-12.473,13.031-26.522,21.083-45.3,24.559
			c-34.104,6.311-67.439,0.465-101.093-0.805c-21.633-0.814-32.598-16.342-43.683-31.699c9.55-3.605,18.839-9.002,28.706-10.449
			c21.062-3.086,27.494-18.01,28.841-35.133c0.69-8.789-4.646-18.348-8.349-27.097c-3.3-7.795-8.126-15.172-8.839-23.669
			c-1.356-16.18,0.831-32.4,15.138-42.128C308.367,0.88,326.77-3.604,344.156,3.345c15.934,6.37,21.018,23.442,25.571,38.599
			c4.18,13.909,2.052,28.5,1.106,43.018c-0.609,9.372-3.704,12.307-11.615,14.459c-16.914,4.602-14.109,4.891-10.49,22.5
			c4.004,19.482,18.691,18.148,30.793,21.414C395.736,147.713,412.654,149.484,427.752,157.629z"/>
		<path fill-rule="evenodd" clip-rule="evenodd" fill="#D14C43" d="M408.732,555.061c-2.22-6.377-10.637-11.729-4.146-17.721
			c5.861-5.41,8.949-7.566,8.566-21.643c-0.535-19.74-3.113-69.73,1.353-89.275c9.106,17.039,40.354,70.006,44.315,88.591
			c2.443,11.474,6.805,21.171,15.998,28.337c8.049,6.273,13.332,14.482,16.752,23.757c9.523,25.855,21.352,51.073,25.992,78.417
			c3.592,21.182,22.233,36.356,23.131,57.604c0.734,17.386,12.234,25.823,22.471,35.939c5.91,5.836,10.34,12.555,12.125,20.381
			c1.739,7.628,3.863,16.162-4.84,21.795c-8.98,5.815-18.668,5.416-26.055-1.283c-13.154-11.928-26.68-24.168-32.033-42.027
			c-1.697-5.658-2.678-9.051-9.333-5.66c-4.892,2.487-8.347,0.615-10.378-4.568c-14.207-36.252-34.729-68.932-54.262-102.615
			C434.381,618.178,414.391,571.295,408.732,555.061z"/>
		<path fill-rule="evenodd" clip-rule="evenodd" fill="#D14C43" d="M99.742,214.057c-2.65-7.882-1.574-11.541,8.484-11.664
			c22.312-0.268,42.43,2.5,56.273,23.047c5.93,8.803,14.717,13.506,26.422,11.83c14.699-2.109,21.258,11.195,31.2,18.058
			c0.628,0.434,1.29,2.079,1.128,2.218c-12.48,10.68,4.088,13.773,5.634,20.787c1.116,5.059,5.681,9.418,6.527,14.455
			c0.787,4.686,0.196,11.037-2.525,14.507c-3.267,4.167-8.263-1.644-11.86-2.454c-9.361-2.105-13.227-9.445-19.114-15.065
			c-5.398-5.154-10.608-11.886-18.736-12.96c-6.47,0.869-12.019,2.322-18.37,4.332c-14.545,4.602-17.088,3.134-23.82-11.621
			c-10.841-12.388-21.683-24.774-32.524-37.162C103.319,227.326,99.551,221.633,99.742,214.057z"/>
		<path fill-rule="evenodd" clip-rule="evenodd" fill="#D14C43" d="M468.699,211.522c-1.872-0.864-5.775-0.284-5.336-2.746
			c3.232-18.134-1.09-38.415,15.116-52.968c9.634-8.652,18.841-17.783,28.099-26.844c1.584-1.548,4.774-2.775,2.48-6.23
			c-7.537-11.345-3.605-22.289,10.461-27.314c4.971-1.775,2.562-12.147,11.08-8.662c15.936,5.086,16.668,7.439,6.389,19.813
			c-2.273,2.736-5,5.267-7.191,7.911c-9.354,11.281-6.666,20.62-0.986,32.374c10.833,22.416-0.305,47.03-23.824,56.65
			C493.325,208.276,480.967,209.645,468.699,211.522z"/>
		<path fill-rule="evenodd" clip-rule="evenodd" fill="#D14C43" d="M429.744,201.872c-8.892,8.384-18.801,12.021-31.26,12.624
			c-27.664,1.34-55.244,4.402-82.857,6.793c-3.845,0.332-6.988,0.072-9.146,5.381c-15.021,36.949-19.717,74.818-12.186,114.089
			c3.195,16.667,9.172,19.603,24.338,11.739c8.035-4.168,14.643-10.258,20.986-16.573c14.594-14.527,28.08-30.047,41.43-45.728
			c5.303-6.23,9.461-12.59,11.799-20.287c0.717-5.254,1.221-10.548,2.191-15.755c5.658-30.38,5.695-30.374,35.484-34.725
			c12.73-10.606,19.707-24.938,26.703-39.383C447.133,186.624,438.152,193.945,429.744,201.872z"/>
		<path fill-rule="evenodd" clip-rule="evenodd" fill="#3E456D" d="M134.713,489.74c-2.338-57.707-2.225-115.418,2.109-173.005
			c1.102-14.622,8.722-89.567,12.66-103.964c1.289-7.276-3.359-12.151-7.818-16.204c-8.632-7.848-1.838-21.37-15.204-24.204
			c-0.087,1.787,0.226,3.708-0.319,5.344c-14.787,44.458-47.775,148.85-62.469,193.34c-5.604,16.971-10.822,34.146-1.875,51.734
			c3.258,6.4,3.438,12.549-0.226,19.088c-12.214,21.816-22.248,44.856-36.247,65.65c-4.111,6.109-2.081,7.717,3.4,10.775
			c7.114,3.975,15.744,8.35,19.299,14.938c7.379,13.683,20.693,24.672,22.989,40.168C72.969,586.596,134.766,491.035,134.713,489.74
			z"/>
	</g>
</g>
<g id="Layer_2">
</g>
<g id="Layer_3">
</g>
<g id="Layer_4">
</g>
<g id="Layer_5">
</g>
<g id="Layer_6">
</g>
<g id="Layer_7">
</g>
<g id="Layer_8">
</g>
<g id="Layer_9">
</g>
<g id="Layer_10">
</g>
<g id="Layer_11">
	<g>
		<path fill-rule="evenodd" clip-rule="evenodd" fill="#D14C43" d="M194.191,975.602c15.395-4.473,88.676-32.819,104.56-35.505
			c13.94-2.357,33.505-14.784,35.528-25.142c0.611-3.132-2.465-22.138-7.5-28.783c-5.457-7.204-6.646-11.468-6.977-24.863
			c-0.062-2.591,0.484-4.226,0.58-3.996c-5.992-14.388-1.35-27.374,6.778-40.101c14.093-22.069,46.136-22.949,63.257-2.447
			c8.141,9.749,11.643,19.481,11.822,30.828c0.174,10.989,2.982,22.354,0.479,32.853c-2.481,10.396-6.521,19.882-11.769,29.841
			c-1.577,2.991,0.856,6.322,1.169,9.332c0.944,9.056,19.399,20.863,30.294,22.291c17.377,2.279,35.003,4.005,51.889,7.905
			c10.986,2.536,21.813,7.469,30.85,13.352c5.298,3.448,8.174,10.604,9.971,16.557c3.58,11.851-0.74,33.724-16.84,38.832
			c-7.638,2.422-16.08,3.087-24.2,4.356c-3.054,0.478-6.231,0.37-9.345,0.605c-13.958,1.059-25.155,2.038-31.107,17.242
			c-6.928,17.696-19.298,33.84-20.43,53.307c-0.184,3.159-3.687,6.103-5.189,9.301c-5.922,12.606-3.594,25.121,0.751,37.641
			c19.229,55.39,41.146,170.887,49.116,254.177c6.412,16.546,2.412,14.797,8.53,31.427c4.991,13.567,10.472,27.008,15.743,40.501
			c0.538,1.375,0.678,3.134,1.783,4.038c11.539,25.328,8.75,32.301,14.527,61.637c-0.714,26.488-6.02,24.994-10,43.162
			c-0.994,4.529-4.535,9.131-8.281,12.668c-7.27,6.869-15.336,7.405-22.023-0.164c-7.855-8.89-13.695-19.203-19.158-29.373
			c-5.224-9.721,0.459-10.75-3.906-20.918c-16.422,2.977-3.93-3.531-20.016-0.616c-14.867-48.376-15.479-56.837-47.091-98.624
			c2.868,17.86,5.735,35.72,8.679,54.036c-8.189-1.076-16.242-2.137-28.198-3.71c6.415,14.157-17.996,27.299-10.073,38.15
			c13.863,18.987,10.557,38.395,6.557,58.179c-0.45,2.228-4.807,5.019-7.842,5.548c-10.146,1.764-20.514,2.616-31.994,3.959
			c-0.354-11.184-7.091-9.178-14.533-5.775L194.191,975.602z"/>
	</g>
</g>
<g id="Layer_12">
</g>
<g id="Layer_13">
</g>
<g id="Layer_14">
</g>
<g id="Layer_15">
</g>
<g id="Layer_16">
</g>
<g id="Layer_17_1_">
</g>
<g id="Layer_18_1_">
</g>
<g id="Layer_19">
</g>
<g id="Layer_20">
</g>
<g id="Layer_21">
</g>
<g id="Layer_22">
</g>
<g id="Layer_23">
</g>
<g id="Layer_10_copy">
</g>
<g id="Layer_11_copy">
</g>
<g id="Layer_12_copy">
</g>
<g id="Layer_13_copy">
</g>
<g id="Layer_14_copy">
</g>
<g id="Layer_15_copy">
</g>
<g id="Layer_16_copy">
</g>
<g id="Layer_17_copy">
</g>
<g id="Layer_18_copy">
</g>
<g id="Layer_19_copy">
</g>
<g id="Layer_20_copy">
</g>
<g id="Layer_21_copy">
</g>
<g id="Layer_22_copy">
</g>
<g id="Layer_23_copy">
</g>
<g id="Layer_24">
</g>
<g id="Layer_25">
</g>
<g id="Layer_26">
</g>
<g id="Layer_27">
</g>
<g id="Layer_0-6_copy">
</g>
<g id="Layer_0-5_copy">
</g>
<g id="Layer_0-4_copy">
</g>
<g id="Layer_0-3_copy">
</g>
<g id="Layer_0-2_copy">
</g>
<g id="Layer_0-1_copy">
</g>
<g id="Layer_0-0_copy">
</g>
</svg>
