<?xml version="1.0" encoding="utf-8"?>
<!-- Generator: Adobe Illustrator 16.0.0, SVG Export Plug-In . SVG Version: 6.00 Build 0)  -->
<!DOCTYPE svg PUBLIC "-//W3C//DTD SVG 1.1//EN" "http://www.w3.org/Graphics/SVG/1.1/DTD/svg11.dtd">
<svg version="1.1" xmlns="http://www.w3.org/2000/svg" xmlns:xlink="http://www.w3.org/1999/xlink" x="0px" y="0px" width="600px"
	 height="800px" viewBox="0 0 600 800" enable-background="new 0 0 600 800" xml:space="preserve">
<g id="Layer_0-0">
</g>
<g id="Layer_0-1">
</g>
<g id="Layer_0-2">
</g>
<g id="Layer_0-3">
</g>
<g id="Layer_0-4">
</g>
<g id="Layer_0-5">
</g>
<g id="Layer_0-6">
</g>
<g id="Layer_1">
</g>
<g id="Layer_2">
</g>
<g id="Layer_3">
	<g>
		<path fill-rule="evenodd" clip-rule="evenodd" fill="#3E456D" d="M524.564-718.361c-8.211-0.943-17.408,0.335-18.312-15.748
			c-6.051,14.672-11.556,25.053-11.22,36.752c0.215,7.482-2.041,12.981-7.233,17.721c-16.37,14.928-32.493,30.211-53.839,38.113
			c-13.005,4.909-22.277,17.945-36.501,19.178c-23.445,2.031-46.535,9.025-70.597,4.404c-9.967-1.914-20.238-3.834-30.629-3.228
			c-15.652,0.91-29.073-3.114-38.83-16.552c-3.661-5.043-9.602-7.956-14.541-11.791c-6.725-15.243-11.233-18.072,2.873-24.105
			c6.768-2.895,12.595-2.907,8.543-15.205c-2.664-8.087-1.67-19.474-5.244-23.641c-10.385-12.106-7.205-23.727-15.941-34.637
			c-11.459-14.311-20.382-18.445-37.311-11.455c-13.719,5.667-21.533,3.557-31.924,16.368
			c-15.268,18.827-15.871,29.102-4.103,46.181c3.933,5.707,8.058,9.791,9,18.799c0.989,9.453,9.754,13.685,15.956,15.568
			c4.062,1.233,4.891,0.011,8.693,4.975c3.623,4.729-1.164,8.816-4.125,12.134c-5.495,6.155-11.976,10.159-21.111,9.306
			c-36.499-3.404-62.677,1.783-99.311-1.08c-7.412-0.582-14.909,4.746-16.514,13.447c-1.785,9.678,5.717,13.596,12.799,16.574
			c15.387,6.469,21.567,19.387,38.129,21.49c2.553-5.198,7.043-1.398,13.414-1.664c17.926-0.746,33.859,0.284,45.812,15.543
			c9.239,11.793,20.94,14.098,37.029,14.044c12.659-0.041,19.099,8.3,20.903,22.103c0.495,3.785,2.898,6.516,5.129,9.324
			c4.227,5.321,7.708,5.637,10.177,11.97c1.517,3.892,6.585,9.409,3.216,12.538c-4.037,3.752-11.446-5.375-14.836-6.965
			c-8.777-4.117-13.302-14.35-21.562-19.043c-4.782-2.718-14.456-8.344-19.916,0.215c-0.099,3.648,5.167,16.322,6.665,19.562
			c7.585,16.383,5.707,31.794-2.106,47.886c-10.167,20.938-13.706,43.672-13.438,66.936c0.085,7.316-0.837,14.253-4.979,20.634
			c-13.857,21.337-15.119,44.212-20.024,67.888c0.085,1.243,0.007,2.277-0.616,2.814c0.176-0.942,0.423-1.874,0.616-2.814
			c-0.077-1.161-0.296-2.502-0.349-3.805c-2.351-58.018-11.305-116.039-6.946-173.934c1.106-14.701,0.725-29.727,4.685-44.201
			c1.297-7.314-3.378-12.217-7.861-16.291c-8.678-7.889-11.9-21.484-25.34-24.334c-0.087,1.797,0.228,3.729-0.32,5.373
			c-14.869,44.696-25.405,89.327-40.178,134.057c-5.635,17.061-6.348,34.329,2.648,52.012c3.275,6.436,3.455,12.616-0.227,19.191
			c-12.281,21.932-5.143,46.002-19.217,66.908c-4.135,6.142-2.094,7.758,3.418,10.834c7.153,3.996,6.763,7.486,10.336,14.111
			c7.42,13.756,9.926,24.804,12.234,40.383c1.967,13.266,20.536,24.93,4.379,39.213c6.045,1.686,10.225,3.342,14.551,3.953
			c8.086,1.15,8.928,5.291,4.549,10.883c-11.821,15.084-5.077,27.293,3.08,42.551c3.177,5.943,5.5,11.857,2.779,19.204
			c-9.901,26.733-7.945,51.191-11.743,79.272c-1.198,8.867,2.107,11.856,9.122,13.677c8.188,2.126,15.96-2.595,21.732-0.845
			c18.314,5.549,23.377,5.521,41.938,7.594c17.741,1.979,35.4,4.696,53.076,7.219c23.793,3.393,20.712-5.119,44.282-5.055
			c16.93,0.044,24.771-5.404,41.752-5.824c11.752-0.293,15.237-12.854,26.249-12.8c0.57,0.003,9.113-4.671,10.709-4.711
			c11.74-0.302,6.299,6.886,13.86,5.678c7.41-1.185,6.065,1.372,13.267-3.167c12.33-7.77,20.098,2.357,26.969,0.606
			c7.162-1.821,10.943-13.157,15.895-9.569c0.719,0.523,24.395-10.469,20.266-23.409c-4.808-15.071-14.58-28.173-16.219-44.429
			c-2.027-20.088-5.252-40.051-7.958-60.068c-0.233-10.75-3.208-21.182-3.761-31.889c-4-13.256-6.861-26.885-12.347-39.654
			c-3.645-8.482-2.721-14.485,6.954-17.791c9.23-3.154,13.016-10.248,12.879-19.795c-0.301-21.425,5.688-42.686,2.923-64.191
			c0.237-15.291-0.977-30.77,0.965-45.841c8.043-62.375,44.95-124.552,45.362-187.669c0.043-6.566-1.482-13.668,6.163-16.965
			c-2.366-21.625,0.527-42.084,18.773-57.848c7.47-6.455,14.229-13.775,20.995-21.007c3.733-3.987,6.248-7.497,3.335-14.166
			c-3.403-7.788,0.823-15.337,8.108-19.271c5.92-3.195,9.907-7.443,12.836-13.143C534.591-718.023,529.234-717.825,524.564-718.361z
			 M387.006-508.244c-13.421,15.766-26.979,31.369-41.651,45.974c-6.377,6.349-13.021,12.472-21.099,16.661
			c-15.248,7.906-21.257,4.955-24.47-11.801c-7.571-39.482-2.851-77.555,12.253-114.703c2.168-5.336,5.329-5.074,9.194-5.408
			c27.761-2.404,55.491-6.391,83.302-7.736c12.527-0.607,22.489-4.264,31.428-12.691c8.453-7.971,7.107-3.81,17.256-10.42
			C448.527-598.685,395.756-518.525,387.006-508.244z"/>
	</g>
</g>
<g id="Layer_4">
</g>
<g id="Layer_5">
</g>
<g id="Layer_6">
</g>
<g id="Layer_7">
</g>
<g id="Layer_8">
</g>
<g id="Layer_9">
</g>
<g id="Layer_10">
</g>
<g id="Layer_11">
</g>
<g id="Layer_12">
</g>
<g id="Layer_13">
	<g>
		<path fill-rule="evenodd" clip-rule="evenodd" fill="#3E456D" d="M173.536,129.616c-5.599-1.359-13.587-6.283-14.941-14.62
			c-1.292-7.945-5.155-11.362-8.934-16.227c-11.302-14.563-11.285-23.712,1.313-41.186c8.576-11.892,15.616-10.412,27.506-16.132
			c14.668-7.056,22.793-3.837,33.682,8.285c8.301,9.241,6.066,19.712,15.888,29.93c3.382,3.518,3.073,12.061,5.845,19.101
			c4.215,10.71-0.956,12.627-6.815,15.536c0,0-4.871,1.324-4.265,2.384c3.396,5.938,24.752,7.271,37.55,7.738
			c20.274-3.773,98.113,52.151,101.63,67.091c4.249,18.056-54.014,53.712-54.345,59.213c-0.813,13.469-0.608,26.953-3.295,40.346
			c-2.337,11.639-4.286,23.558-4.454,35.382c-0.316,22.218,0.871,44.458,1.257,66.691c1.097,63.277,11.034,125.386,24.337,187.076
			c3.951,18.33,17.851,63.469,19.895,82.287c1.903,17.556-1.126,35.301,2.992,52.64c3.157,13.288,4.061,27.245,3.159,26.386
			c-3.421-3.265-32.217-1.852-34.772-10.992c-2.32-8.295,1.775-15.318,7.889-20.856c2.057-1.866,4.085-3.766,2.396-6.142
			c-1.594-2.242-3.563-0.751-5.244,1.124c-3.634,4.051-5.456-0.392-7.343-2.163c-6.056-5.685-11.313-5.551-14.643,2.291
			c-1.738,4.089-3.874-5.011-7.277-5.705c-12.318-2.514-22.263,5.876-17.952,17.952c5.146,14.426,12.551,8.604,18.212,22.845
			c0.23,0.584,0.517-0.739,0.772-0.164c2.902,6.507,5.5,3.748,1.384,9.479c-4.045,5.633-11.89,4.113-18.523,3.059
			c-5.585-0.886-11.228-1.404-16.833-2.173c-9.697-1.334-25.088,1.624-24.312-8.01c0.622-7.758-0.955,3.769-5.58-2.991
			c-3.376-4.927-3.779-11.194-3.476-17.301c0.404-8.15-3.834-13.141-11.469-11.326c-7.556,1.798-14.188-1.509-21.371-1.363
			c-5.9,0.12-6.059-5.679-5.285-10.076c1.217-6.887-1.479-7.97-7.675-7.098c-9.189,1.291-0.897,3.625-7.855-5.825
			c-0.451-0.614-1.789-1.089-2.535-0.905c-12.432,3.07-12.07-3.875-19.817-11.635c-11.189-11.206-11.521-98.233,1.907-110.639
			c16.226-14.99,30.82-31.442,38.753-52.629c4.188-11.182-4.078-23.193-0.401-34.614c5.088-15.811,10.583-31.469,18.868-45.705
			c6.655-11.436,6.829-23.643,6.314-35.424c-1.245-28.549-7.848-54.913,11.375-78.632c21.572-26.612,18.922-51.604-5.107-77.169
			c-52.93-14.693-27.769-41.739-95.56-37.806c-10.43,0.605-6.214-17.032-1.365-26.148c3.741-7.033,14.113-17.604,17.659-13.166
			c5.793,7.251,13.835,14.908,21.562,13.1c11.877-2.778,13.267-12,19.378-22.141c6.889-11.426,7.277-16.667,3.236-20.818
			C186.85,131.77,177.203,130.507,173.536,129.616z"/>
		<path fill-rule="evenodd" clip-rule="evenodd" fill="#3E456D" d="M193.551,378.537c8.143,13.383,11.951,49.538,20.42,36.503
			c4.08-6.278,33.036,40.063,40.45,36.683c5.714-2.604,7.868-4.041,4.268-10.465c-12.262-21.861-0.451-4.016-10.848-26.751
			c-3.119-6.818-2.439-12.93,1.329-19.047c10.349-16.799,11.282-41.552-45.6-113.18c-51.507-64.86-45.534-86.986-45.477-88.776
			C144.543,195.242,138.408,287.907,193.551,378.537z"/>
		<path fill-rule="evenodd" clip-rule="evenodd" fill="#D14C43" d="M480.558,769.121c-2.475-8.557-0.981-17.523-2.832-26.121
			c-0.122-0.57-0.96-1.278-0.812-1.571c6.868-13.376-3.938-22.445-8.27-32.643c-6.953-16.37-11.686-33.696-13.618-50.786
			c-3.326-29.451-9.32-57.544-23.237-83.708c0,0-19.459-35.358-19.253-41.15c0.743-20.83-1.467-40.651-0.661-62.312
			c0.041-1.074,5.615-69.073,2.338-86.453c-5.257-27.869-9.326-38.308-22.395-63.391c-3.645-6.993-2.106-14.266-1.091-21.574
			c5.983-43.011,12.389-86.011,6.879-129.654c-1.259-9.975-1.594-20.485-7.552-28.896c-17.252-24.363-14.406-27.656-15.337-41.893
			c-0.569-8.664,11.219-15.168,15.359-22.339c4.406-7.628,9.272-14.951,11.123-23.812c5.259-25.18-5.314-42.918-32.383-50.061
			c-3.464-0.914-6.918-2.076-10.483-2.404c-27.002-2.484-33.571,8.423-44.72,23.8c-2.908,4.009-2.429,7.158-2.738,12.633
			c-0.224,3.947,0.728,4.707-5.106,10.707c-2.252,2.315-5.497,2.837-5.115,6.938c3.738,12.438-1.707,18.018-2.846,26.681
			c-1.413,10.732,3.406,15.008,12.247,17.318c4.959,1.298,20.919,4.231,16.739,17.877c-1.837,5.994-44.115,27.485-44.73,37.284
			l-22.605,19.151c-13.21,2.605-79.146,10.101-88.208,2.514c-1.548-1.295-4.626-0.679-6.995-0.947
			c-1.367,0.824-6.465-0.763-7.168-3.472c-1.504-5.782-6.681-1.805-5.31,2.994c1.005,3.521,0.956,7.558-1.496,9.986
			c-2.403,2.373-6.264,6.016-8.563,2.668c-4.975-7.234-8.287-0.063-13.635-5.663c-1.87-1.958-5.105-5.133-6.69-1.84
			c-2.67,5.544-2.407,12.489-1.72,18.812c0.485,4.461,2.516,7.962,6.006,8.585c7.544,1.347,15.077,2.963,22.677,3.632
			c3.026,0.266,6.846-1.098,10.714-3.319c6.575,9.574,26.844,20.289,31.402,18.367c18.396-6.859,74.071,19.369,83.421,15.523
			c7.052-2.902,9.386,17.36,9.972,25.872c2.448,35.484-0.347,70.928,0.272,106.363c0.382,21.922,2.228,43.882,7.687,65.318
			l44.92,274.076c3.137,7.484,2.503,16.399-2.9,20.977c-8.906,7.547-15.324,6.404-16.128,6.706
			c-6.164,2.322-11.532-0.623-15.276,9.009c-2.84,7.298-0.547,11.057,4.641,11.314c21.724,1.078,30.005,6.293,55.043,4.782
			c1.922-0.735,4.432-2.464,5.489-0.16c3.225,7.022,12.081,5.457,18.438,6.339c0.391,0.056,0.789,0.111,1.188,0.165
			c-6.538,4.453-13.429,8.215-21.991,8.691c-4.709,0.264-4.738,3.774-2.79,7.396c4.196,7.8,11.856,10.87,19.373,11.735
			c19.112,2.197,37.874,0.518,54.646-10.775c2.275-1.53,4.548-2.969,6.009-5.398c2.322-3.86,3.343-3.094,7.718-0.934
			c8.928,4.406,17.009-4.825,26.034-6.236C478.746,775.432,481.629,772.822,480.558,769.121z M404.275,759.834
			c-0.212-1.708-0.289-3.399,0.139-4.918c0.761-2.717,1.201-5.418,1.404-8.108c0.925,0.384,1.656,1.136,2.041,2.593
			C408.877,753.254,407.83,757.336,404.275,759.834z"/>
	</g>
</g>
<g id="Layer_14">
</g>
<g id="Layer_15">
</g>
<g id="Layer_16">
</g>
<g id="Layer_17_1_">
</g>
<g id="Layer_18_1_">
</g>
<g id="Layer_19">
</g>
<g id="Layer_20">
</g>
<g id="Layer_21">
</g>
<g id="Layer_22">
</g>
<g id="Layer_23">
	<g>
		<path fill-rule="evenodd" clip-rule="evenodd" fill="#D14C43" d="M195.084,962.967c12.814,13.389,27.248,49.455,46.539,53.024
			c35.037,6.484,106.342-18.052,140.916-19.356c22.223-0.836,75.182-17.715,86.57-33.491c-9.811-3.705-61.047-17.587-71.186-19.074
			c-21.639-3.17-28.246-18.501-29.629-36.095c-0.709-9.026,1.068-18.848,4.871-27.836c3.391-8.008,8.35-15.586,9.08-24.316
			c1.395-16.621-0.852-33.284-15.551-43.277c-15.609-10.611-30.287-17.535-47.742-8.078c-11.285,6.114-18.383,16.013-18.902,21.891
			c-1.008,11.422-0.082,9.569-4.59,17.764c-7.193,13.07-2.285,10.334-2.062,44.191c0.062,9.647,3.805,12.644,11.932,14.855
			c17.375,4.726,11.715,5.023,7.996,23.114c-4.111,20.015-56.26,18.644-68.691,22C227.975,952.778,210.598,954.6,195.084,962.967z"
			/>
	</g>
</g>
<g id="Layer_10_copy">
</g>
<g id="Layer_11_copy">
</g>
<g id="Layer_12_copy">
</g>
<g id="Layer_13_copy">
</g>
<g id="Layer_14_copy">
</g>
<g id="Layer_15_copy">
</g>
<g id="Layer_16_copy">
</g>
<g id="Layer_17_copy">
</g>
<g id="Layer_18_copy">
</g>
<g id="Layer_19_copy">
</g>
<g id="Layer_20_copy">
</g>
<g id="Layer_21_copy">
</g>
<g id="Layer_22_copy">
</g>
<g id="Layer_23_copy">
</g>
<g id="Layer_24">
</g>
<g id="Layer_25">
</g>
<g id="Layer_26">
</g>
<g id="Layer_27">
</g>
<g id="Layer_0-6_copy">
</g>
<g id="Layer_0-5_copy">
</g>
<g id="Layer_0-4_copy">
</g>
<g id="Layer_0-3_copy">
</g>
<g id="Layer_0-2_copy">
</g>
<g id="Layer_0-1_copy">
</g>
<g id="Layer_0-0_copy">
</g>
</svg>
