<?xml version="1.0" encoding="utf-8"?>
<!-- Generator: Adobe Illustrator 16.0.0, SVG Export Plug-In . SVG Version: 6.00 Build 0)  -->
<!DOCTYPE svg PUBLIC "-//W3C//DTD SVG 1.1//EN" "http://www.w3.org/Graphics/SVG/1.1/DTD/svg11.dtd">
<svg version="1.1" xmlns="http://www.w3.org/2000/svg" xmlns:xlink="http://www.w3.org/1999/xlink" x="0px" y="0px" width="600px"
	 height="800px" viewBox="0 0 600 800" enable-background="new 0 0 600 800" xml:space="preserve">
<g id="Layer_0-0">
</g>
<g id="Layer_0-1">
</g>
<g id="Layer_0-2">
</g>
<g id="Layer_0-3">
</g>
<g id="Layer_0-4">
</g>
<g id="Layer_0-5">
</g>
<g id="Layer_0-6">
</g>
<g id="Layer_1">
</g>
<g id="Layer_2">
</g>
<g id="Layer_3">
</g>
<g id="Layer_4">
</g>
<g id="Layer_5">
</g>
<g id="Layer_6">
</g>
<g id="Layer_7">
	<g>
		<g>
			<path fill-rule="evenodd" clip-rule="evenodd" fill="#3E456D" d="M494.224-48.842c-4.953-15.527-28.101-19.686-29.788-36.434
				c-2.089-20.695-11.017-41.263-13.804-61.887c-0.24-11.076-3.306-21.824-3.875-32.855c-4.121-13.657-7.069-27.699-12.722-40.855
				c-3.755-8.739-1.514-13.754,7.167-8.988c8.81,4.836-5.273-19.9-5.415-29.736c-0.389-27.711-40.582-41.922-43.694-66.137
				c0.244-15.754,1.318-34.91-8.347-47.229c-21.123-26.922-16.919-21.472-17.923-31.055c-1.875-17.912,12.596-6.265,21.104-23.406
				c5.533-11.152-1.085-54.777,7.252-69.639c4.081-7.271,7.719-14.367,10.147-20.678c2.432-6.314,2.209-34.633,10.087-38.029
				c-2.439-22.281-20.008-54.57-1.21-70.811c7.695-6.652-4.022-21.666,2.948-29.117c3.847-4.109,6.437-7.725,3.436-14.596
				c-3.507-8.023,0.849-15.802,8.354-19.854c6.099-3.293,10.207-7.67,13.225-13.543c-2.854-5.404-8.372-5.201-13.186-5.753
				c-8.459-0.972-30.771,9.585-30.425,21.64c0.221,7.708-5.371,11.252-9.321,17.322c-9.94,15.279-5.688,15.047-16.144,21.005
				c-14.037,7.997-0.336,3.149-17.589,10.973c-5.848,2.651-12.696,1.107-15.916-1.872c0,0-2.408-1.332,0.945-6.205
				c3.519-5.112,10.508-6.19,13.557-8.861c5.59-4.897,10.029-1.861,11.875-6.696c3.31-8.668,8.492-11.845,10.39-18.435
				c6.68-23.202,5.278-26.471-2.864-47.58c-8.671-11.117-18.895-15.696-31.597-21.535c-15.671-7.202-23.931-2.942-34.539,11.802
				c-8.088,11.241-8.91,27.409-22.311,35.687c-4.444,2.743-2.669,15.772-4.016,24.355c-1.99,12.68,2.94,12.686,9.208,15.668
				c13.057,6.213,18.495,2.592,12.271,18.297c-4.571,3.95-18.123,10.504-18.123,10.504c-5.663,6.342-11.404,10.467-20.816,9.587
				c-27.226-2.54-71.09-5.96-100.734-14.554c-1.921-0.557-9.761-1.767-11.701-1.984c-9.796-1.098-9.71-1.062-18.347-0.035
				c-8.729,1.039-20.327,6.645-25.421,14.789c-4.377,7.002,5.535,16.652,11.098,20.504c0.851,0.588,3.513-4.548,3.957-4.361
				c15.853,6.665,43.28,4.359,74.286,17.049c14.922,4.434,26.74,4.473,32.502,7.629c11.221,6.146,11.519,7.323,9.835,27.223
				c-1.677,19.789-11.485,20.258-10.078,38.986c-0.006,18.166-0.378,23.084,0.33,26.692c3.459,17.63,2.184,32.133,3.434,49.336
				c1.835,25.271,4.072,45.513,1.103,68.963c-0.949,7.479,1.865,27.445,1.408,35.271c-1.609,27.524-11.808,33.203-21.266,99.002
				c-4.63,32.207,11.822,44.581-3.283,70.728c3.274,10.595-1.25,10.213,1.913,13.415c1.983,2.008,2.295,9.326,1.883,11.213
				c-4.2,19.293-6.163,21.58,2.242,37.3c3.271,6.123,3.432,11.735,2.862,19.786c-2.364,33.485,14.451-4.352,6.584,20.017
				c-2.833,8.774-7.17,20.624,0.057,22.499c8.437,2.191,7.102,5.736,13.049,7.539c18.869,5.718,18.798,16.016,35.736,6.889
				c26.752-14.416,30.943,20.865,54.684,24.253c24.513,3.495,13.865,2.2,38.15,2.266c17.441,0.046,6.838,3.774,24.334,3.341
				c12.108-0.301-12.326-13.244-0.982-13.188c0.59,0.004,9.391-4.812,11.034-4.854c12.096-0.311,6.489,7.094,14.28,5.85
				c7.635-1.22,6.25,1.414,13.668-3.263c12.703-8.005,20.707,2.429,27.785,0.625c7.38-1.877,11.277-13.556,16.376-9.858
				C474.085-24.186,498.479-35.51,494.224-48.842z M345.534-491.577c-7.303,6.86-6.544,0.101-4.404-17.073
				c5.041-40.469,13.8-47.068,26.888-83.494c1.88-5.234,0.515-11.352,1.729-12.26c8.287-6.195-5.414,1.278,5.026-1.193
				c4.705-1.113,7.774-0.798,13.993-5.893c1.736-1.423,2.567-2.032,2.93-2.251c0.212-0.322,0.743-1.002,1.895-2.331
				c-3.695,9.441-18.588,62.861-23.266,74.619c-8.448,21.241-4.935,20.008-13.361,33.683
				C353.302-501.826,349.403-495.213,345.534-491.577z"/>
		</g>
	</g>
</g>
<g id="Layer_8">
</g>
<g id="Layer_9">
</g>
<g id="Layer_10">
</g>
<g id="Layer_11">
</g>
<g id="Layer_12">
</g>
<g id="Layer_13">
</g>
<g id="Layer_14">
</g>
<g id="Layer_15">
</g>
<g id="Layer_16">
</g>
<g id="Layer_17_1_">
	<g>
		<path fill="#3E456D" d="M539.517,159.163c-1.734-9-9.832-14.51-17.84-13.908c-39.576,2.963-48.962,16.352-88.39,19.873
			c-9.872,0.885-16.87-3.258-22.81-9.625c-3.199-3.432-8.371-7.66-4.454-12.551c2.247-2.812,10.2-13.078,13.779-22.434
			c3.345-8.752,4.568-13.207,6.161-20.156c3.211-14.004,0.639-35.605-6.46-43.984c-11.224-13.25-9.831-17.172-25.737-19.123
			c-19.099-2.346-30.135,0.184-42.516,14.986c-9.436,11.287-14.291,15.939-15.122,32.994c-0.274,5.672,1.478,15.793,3.149,24.453
			c2.578,13.352,5.623,11.244,11.051,17.604c5.083,5.957,2.548,6.535,1.282,16.494c-0.812,6.422-10.771,13.545-14.728,18.762
			c-10.541,13.898-25.04,18.061-41.95,17.119c-11.226-0.627-22.319,1.359-33.087,3.34c-25.994,4.777-16.657-2.455-41.983-4.557
			c-15.368-1.277-43.299,4.135-57.35-0.943c-23.06-8.174-40.478-23.98-58.163-39.424c-5.609-4.9-8.99-10.59-8.759-18.328
			c0.363-12.102-9.582-40.969-11.176-38.016c-7.616,9.092-6.187,4.938-15.058,5.912c-5.047,0.555-9.067,11.863-9.103,18.059
			c-0.038,6.693-1.974,8.387,4.421,11.691c7.869,4.066,12.434,11.877,8.759,19.932c-3.146,6.898,2.404,10.527,6.438,14.654
			c7.307,7.48,11.777,15.051,19.847,21.729c19.709,16.305,25.879,33.469,23.323,55.838c8.259,3.41-0.268,15.395,2.614,21.547
			c58.055,123.909,51.675,111.663,58.164,159.845c2.096,15.59,43.787,33.6,44.043,49.416c-2.986,22.248,2.538,48.236,2.212,70.398
			c-0.147,9.877-0.681,66.697-3.247,80.844c-1.98,10.91-19.221,30.4-20.127,41.484c-1.701,20.842-12.281,31.908-14.471,52.688
			c-1.456,13.807-18.455,38.633-9.344,32.311c5.349-3.715,9.434,8.012,17.172,9.896c7.422,1.811,15.814-8.664,29.135-0.629
			c7.779,4.695,6.324-22.512,14.33-21.289l15.895,9.648c6.188-0.078,8.585,4.492,6.867,10.695
			c-1.289,4.646-2.061,9.537-0.317,13.912c2.392,6,1.683,11.441-0.138,17.303c-2.261,7.275,0.638,12.398,7.869,15.102
			c4.177,1.562,8.43,2.934,12.574,4.582c4.921,1.957,10.694,4.482,14.781,0.848c4.156-3.699,3.475-10.01,2.365-15.518
			c-0.098-0.486-0.218-0.969-0.295-1.459c-1.896-11.936-4.699-37.203-4.699-37.203c18.344,0.434,26.814,43.861,45.105,43.814
			c25.46-0.064,4.502,10.615,30.205,7.105c26.994-3.689,48.289-24.521,47.891-14.969c-0.807,19.301,37.971-10.695,57.757-16.434
			c6.235-1.812-4.961-5.371,3.886-7.572c7.578-1.879,12.824-4.398,9.854-13.209c-8.246-24.463-10.555-14.404-13.032-48.023
			c-0.596-8.082-0.43-13.717,3-19.865c8.814-15.781,12.184-12.328-0.587-27.928c-4.732-5.785-3.821-10.07,4.912-11.26
			c4.676-0.631-4.176-11.793,2.354-13.535c-17.455-14.775,6.177-17.393,8.301-31.115c2.495-16.115,5.201-27.541,13.219-41.768
			c3.859-6.854-8.318-20.783-0.589-24.914c5.954-3.182,8.157-4.854,3.693-11.207c-15.205-21.625,1.954-46.521-11.313-69.209
			c-3.979-6.799-13.233-13.193-9.692-19.852c9.718-18.289,8.948-64.492,2.861-82.143c-15.962-46.266,13.104-72.529-2.959-118.761
			c-0.593-1.701-9.702-22.594-9.796-24.453c-14.518,2.947-17.999,17.01-27.374,25.172c-4.846,4.213-9.892,9.283-8.493,16.85
			c4.276,14.973,13.314,68.165,14.51,83.37c4.707,59.887-4.967,119.902-7.508,179.914c-0.056,1.346-0.29,2.734-0.376,3.936
			c0.21,0.975,0.478,1.938,0.666,2.912c-0.672-0.555-0.757-1.625-0.666-2.912c-5.297-24.488-4.661-31.332-13.794-56.156
			c-2.733-7.42-12.222-27.898-13.217-35.408c-3.114-23.541-8.579-45.84-14.516-69.236c-4.27-16.828,1.351-31.832-2.274-49.531
			c-0.744-3.623,18.975-53.741,28.957-65.938c12.912-15.783,30.125-35.605,49.491-34.834c6.882,0.273-15.108,1.25-4.404,1.721
			c17.894-2.174,29.293-7.979,45.913-14.67C538.063,180.786,541.445,169.173,539.517,159.163z M286.202,354.682
			c-3.473,17.334-5.453,24.873-21.537,15.957C197.067,333.174,143.067,249.174,135.71,211.8c10.964,6.838,15.508,2.535,24.64,10.781
			c9.659,8.717,38.335-6.395,51.868-5.768c30.047,1.393,25.719,5.516,55.711,8.002c4.176,0.346,7.59,0.074,9.934,5.596
			C294.177,268.834,294.378,313.844,286.202,354.682z"/>
		<path fill-rule="evenodd" clip-rule="evenodd" fill="#D14C43" d="M354.881,480.738c-2.058,22.125-4.475,44.209-6.946,66.266
			c-2.449,21.832,4.566,43.846,1.538,65.623c-1.697,12.236-0.825,24.717,1.278,37.09c6.935,40.77-1.642,36.035,8.167,85.469
			c1.644,2.836,0.299,2.312,0.821,5.672c5.49,7.127-0.6-6.959,1.585,2.062c1.374,5.693,1.112,11.504-0.892,16.246
			c-5.225,12.359-0.084,6.143,0.596,18.912c1.789,4.596-1.893,9.168-3.719,13.717c-0.277,2.676-2.159,3.984-4.338,4.35
			c-12.047,2.023-24.066,1.758-35.987-1.605c-2.478-5.098-1.464-10.189-0.212-15.283c3.911-13.717,2.946-9.137,4.108-23.186
			c0.767-9.262-0.797-10.133-9.083-6.787c-3.604,1.449-7.133,3.387-10.891,4.1c-10.244,1.943-10.439,20.535-7.88,30.643
			c2.589,10.236-9.827,14.143-19.966,13.824c-15.283-0.486-20.131,2.578-35.43-0.297c-10.088-1.893-14.373-4.418-8.128-12.307
			c2.273-2.869,9.581-5.223,12.431-7.299c3.205-19.857,0.668-23.248-3.127-36.84c0.97-51.408,1.359-95.146,7.108-110.27
			c2.373-6.234,2.255-11.824-0.755-17.408c-5.119-9.479-5.749-19.916-6.415-30.16c-3.427-20.039-4.504-25.07-7.685-45.5
			c-0.344-2.209-19.403-88.352-10.196-108.621l0.062-3.332c2.169-13.336-1.381-26.715-2.891-39.992
			c-2.108-18.58-4.6-37.139-7.013-55.676c-2.185-16.797-3.378-33.752-6.607-50.43c-0.334-1.75-0.474-3.521-0.496-5.299
			c-0.201-15.074,5.782-28.196-5.545-38.778c-6.417-5.996-21.702-13.541-27.254-20.408c-3.832-4.74-55.947-14.33-59.018-17.119
			c-13.841-5.646-20.866-11.057-26.038-24.924c-3.445-9.229-21.783-43.863-21.951-50.812c-0.218-8.941-1.166-15.922,7.064-14.588
			c7.759-0.15,3.955-5.367,8.574-10.709c0.033-1.951,1.35-4.227,2.117-5.781c1.365-2.76-2.25-8.037,2.193-8.115
			c2.76-0.049,5.155,4.658,6.118,8.33c0.373,1.416,0.321,2.943,0.46,4.422c-1.292,5.133,0.852,8.727,1.847,13.236
			c10.001,45.369,56.082,45.324,63.258,44.059c23.171-4.082,18.209-7.686,38.188-9.803c14.832-1.572,28.986-6.83,41.438-15.748
			c5.018-3.598,6.215-7.812,4.129-14.188c-4.18-12.783-8.063-25.738-10.877-38.875c-2.722-12.723-0.284-25.584,1.378-38.242
			c1.065-8.09,1.632-16.643,7.954-22.816c21.306-20.811,54.771-17.568,69.938,9.053c3.174,5.568,2.877,11.812,3.037,17.809
			c0.411,15.133,1.934,29.98-8.56,43.498c-7.802,10.047-8.083,17.988-3.083,30.189c1.942,5.949,18.314,21.486,20.576,24.068
			c24.814,15.393,17.822,15.137,42.493,14.986c3.967-0.025,35.206,1.881,45.234,5.961c3.77,4.26,61.988,32.465,66.658,32.121
			c16.084,10.113-9.745,5.6-17.447,23.105c-0.703,1.604-11.337,38.732-29.435,40.184c-7.408-13.732,12.494-35.02,4.873-36.404
			c-12.926-6.947-78.13,19.262-79.06,24.076c-3.745,19.317-7.2,47.323-10.794,66.675c-0.691,3.721-1.301,7.473-2.195,11.133
			c-1.458,5.932-0.551,11.367,1.841,16.984c16.98,39.9,11.394,69.6,18.658,112.285L354.881,480.738z"/>
		<path fill="#3E456D" d="M469.35,183.872c-20.717,13.018-56.356,37.184-64.02,38.285c-11.984,1.721-20.581,4.801-34.409,13.846
			c10.552,8.762-3.543,16.15-1.06,24.722c1.413,4.877,21.75,7.203,27.61,9.221c5.266-4.133,39.588-29.433,42.961-34.114
			c6.115-8.486,15.348-10.484,24.845-14.906c36.23-16.877,65.389-44.297,64.274-50.998
			C526.19,149.737,486.679,172.985,469.35,183.872z"/>
	</g>
</g>
<g id="Layer_18_1_">
</g>
<g id="Layer_19">
</g>
<g id="Layer_20">
</g>
<g id="Layer_21">
</g>
<g id="Layer_22">
</g>
<g id="Layer_23">
</g>
<g id="Layer_10_copy">
</g>
<g id="Layer_11_copy">
</g>
<g id="Layer_12_copy">
</g>
<g id="Layer_13_copy">
	<g>
		<path fill-rule="evenodd" clip-rule="evenodd" fill="#D14C43" d="M480.558,1569.121c-2.475-8.557-0.981-17.523-2.832-26.121
			c-0.122-0.57-0.96-1.278-0.812-1.571c6.868-13.376-3.938-22.445-8.27-32.643c-6.953-16.37-11.686-33.696-13.618-50.786
			c-3.326-29.451-9.32-57.544-23.237-83.708c0,0-19.459-35.358-19.253-41.15c0.743-20.83-1.467-40.651-0.661-62.312
			c0.041-1.074,5.615-69.073,2.338-86.453c-5.257-27.869-9.326-38.308-22.395-63.391c-3.645-6.993-2.106-14.266-1.091-21.574
			c5.983-43.011,12.389-86.011,6.879-129.654c-1.259-9.975-1.594-20.485-7.552-28.896c-17.252-24.363-14.406-27.656-15.337-41.893
			c-0.569-8.664,11.219-15.168,15.359-22.339c4.406-7.628,9.272-14.951,11.123-23.812c5.259-25.18-5.314-42.918-32.383-50.061
			c-3.464-0.914-6.918-2.076-10.483-2.404c-27.002-2.484-33.571,8.423-44.72,23.8c-2.908,4.009-2.429,7.158-2.738,12.633
			c-0.224,3.947,0.728,4.707-5.106,10.707c-2.252,2.315-5.497,2.837-5.115,6.938c3.738,12.438-1.707,18.018-2.846,26.681
			c-1.413,10.732,3.406,15.008,12.247,17.318c4.959,1.298,20.919,4.231,16.739,17.877c-1.837,5.994-44.115,27.485-44.73,37.284
			l-22.605,19.151c-13.21,2.605-79.146,10.101-88.208,2.514c-1.548-1.295-4.626-0.679-6.995-0.947
			c-1.367,0.824-6.465-0.763-7.168-3.472c-1.504-5.782-6.681-1.805-5.31,2.994c1.005,3.521,0.956,7.558-1.496,9.986
			c-2.403,2.373-6.264,6.016-8.563,2.668c-4.975-7.234-8.287-0.063-13.635-5.663c-1.87-1.958-5.105-5.133-6.69-1.84
			c-2.67,5.544-2.407,12.489-1.72,18.812c0.485,4.461,2.516,7.962,6.006,8.585c7.544,1.347,15.077,2.963,22.677,3.632
			c3.026,0.266,6.846-1.098,10.714-3.319c6.575,9.574,26.844,20.289,31.402,18.367c18.396-6.859,74.071,19.369,83.421,15.523
			c7.052-2.902,9.386,17.36,9.972,25.872c2.448,35.484-0.347,70.928,0.272,106.363c0.382,21.922,2.228,43.882,7.687,65.318
			l44.92,274.076c3.137,7.484,2.503,16.399-2.9,20.977c-8.906,7.547-15.324,6.404-16.128,6.706
			c-6.164,2.322-11.532-0.623-15.276,9.009c-2.84,7.298-0.547,11.057,4.641,11.314c21.724,1.078,30.005,6.293,55.043,4.782
			c1.922-0.735,4.432-2.464,5.489-0.16c3.225,7.022,12.081,5.457,18.438,6.339c0.391,0.056,0.789,0.111,1.188,0.165
			c-6.538,4.453-13.429,8.215-21.991,8.691c-4.709,0.264-4.738,3.774-2.79,7.396c4.196,7.8,11.856,10.87,19.373,11.735
			c19.112,2.197,37.874,0.518,54.646-10.775c2.275-1.53,4.548-2.969,6.009-5.398c2.322-3.86,3.343-3.094,7.718-0.934
			c8.928,4.406,17.009-4.825,26.034-6.236C478.746,1575.432,481.629,1572.822,480.558,1569.121z M404.275,1559.834
			c-0.212-1.708-0.289-3.399,0.139-4.918c0.761-2.717,1.201-5.418,1.404-8.108c0.925,0.384,1.656,1.136,2.041,2.593
			C408.877,1553.254,407.83,1557.336,404.275,1559.834z"/>
	</g>
</g>
<g id="Layer_14_copy">
</g>
<g id="Layer_15_copy">
</g>
<g id="Layer_16_copy">
</g>
<g id="Layer_17_copy">
</g>
<g id="Layer_18_copy">
</g>
<g id="Layer_19_copy">
</g>
<g id="Layer_20_copy">
</g>
<g id="Layer_21_copy">
</g>
<g id="Layer_22_copy">
</g>
<g id="Layer_23_copy">
</g>
<g id="Layer_24">
</g>
<g id="Layer_25">
</g>
<g id="Layer_26">
</g>
<g id="Layer_27">
</g>
<g id="Layer_0-6_copy">
</g>
<g id="Layer_0-5_copy">
</g>
<g id="Layer_0-4_copy">
</g>
<g id="Layer_0-3_copy">
</g>
<g id="Layer_0-2_copy">
</g>
<g id="Layer_0-1_copy">
</g>
<g id="Layer_0-0_copy">
</g>
</svg>
