<?xml version="1.0" encoding="utf-8"?>
<!-- Generator: Adobe Illustrator 16.0.0, SVG Export Plug-In . SVG Version: 6.00 Build 0)  -->
<!DOCTYPE svg PUBLIC "-//W3C//DTD SVG 1.1//EN" "http://www.w3.org/Graphics/SVG/1.1/DTD/svg11.dtd">
<svg version="1.1" xmlns="http://www.w3.org/2000/svg" xmlns:xlink="http://www.w3.org/1999/xlink" x="0px" y="0px" width="600px"
	 height="800px" viewBox="0 0 600 800" enable-background="new 0 0 600 800" xml:space="preserve">
<g id="Layer_0-0">
</g>
<g id="Layer_0-1">
</g>
<g id="Layer_0-2">
</g>
<g id="Layer_0-3">
</g>
<g id="Layer_0-4">
</g>
<g id="Layer_0-5">
</g>
<g id="Layer_0-6">
</g>
<g id="Layer_1">
</g>
<g id="Layer_2">
</g>
<g id="Layer_3">
</g>
<g id="Layer_4">
</g>
<g id="Layer_5">
</g>
<g id="Layer_6">
</g>
<g id="Layer_7">
</g>
<g id="Layer_8">
</g>
<g id="Layer_9">
</g>
<g id="Layer_10">
</g>
<g id="Layer_11">
</g>
<g id="Layer_12">
</g>
<g id="Layer_13">
</g>
<g id="Layer_14">
</g>
<g id="Layer_15">
</g>
<g id="Layer_16">
</g>
<g id="Layer_17_1_">
</g>
<g id="Layer_18_1_">
</g>
<g id="Layer_19">
</g>
<g id="Layer_20">
</g>
<g id="Layer_21">
</g>
<g id="Layer_22">
</g>
<g id="Layer_23">
</g>
<g id="Layer_10_copy">
</g>
<g id="Layer_11_copy">
</g>
<g id="Layer_12_copy">
</g>
<g id="Layer_13_copy">
</g>
<g id="Layer_14_copy">
</g>
<g id="Layer_15_copy">
</g>
<g id="Layer_16_copy">
</g>
<g id="Layer_17_copy">
</g>
<g id="Layer_18_copy">
</g>
<g id="Layer_19_copy">
</g>
<g id="Layer_20_copy">
</g>
<g id="Layer_21_copy">
</g>
<g id="Layer_22_copy">
</g>
<g id="Layer_23_copy">
</g>
<g id="Layer_24">
</g>
<g id="Layer_25">
</g>
<g id="Layer_26">
</g>
<g id="Layer_27">
</g>
<g id="Layer_0-6_copy">
	<g>
		<path fill-rule="evenodd" clip-rule="evenodd" fill="#3E456D" d="M517.872,81.204c-8.168-0.939-17.316,0.332-18.215-15.666
			c-6.018,14.595-11.494,24.92-11.158,36.557c0.211,7.443-2.031,12.912-7.197,17.627c-16.281,14.848-32.318,30.049-53.551,37.908
			c-12.936,4.884-22.156,17.85-36.305,19.076c-23.32,2.02-46.287,8.977-70.221,4.381c-9.914-1.904-20.129-3.813-30.463-3.211
			c-15.57,0.906-28.92-3.098-38.623-16.463c-3.643-5.017-9.551-7.914-14.463-11.729c-6.688-15.161-4.861-19.779,9.17-25.779
			c6.73-2.879,17.938-2.893,13.906-15.125c-2.648-8.043,0.461-20.864-4.314-23.514c-14.396-7.992-15.279-23.6-23.971-34.452
			c-11.396-14.232-20.271-18.346-37.107-11.393c-13.646,5.636-27.436,10.021-38.967,21.69c-19.41,19.65-21.4,24.775-4.08,45.936
			c4.365,5.332,9.332,9.957,7.148,18.697c-1.621,6.477,12.422,19.911,16.771,17.289c3.615-2.181,5.766-5.4,9.547-0.463
			c3.604,4.703,1.549,8.769-1.396,12.068c-5.465,6.123-11.91,10.105-20.998,9.256c-36.303-3.387-71.357,10.792-107.793,7.944
			c-7.373-0.579-14.828,4.72-16.424,13.375c-1.775,9.626,5.686,13.523,12.729,16.485c15.305,6.434,31.371,10.266,47.844,12.357
			c2.539-5.17,6.104-7.703,12.439-7.968c17.83-0.741,33.676,2.087,45.564,17.265c9.189,11.729,20.828,18.529,36.83,18.477
			c12.592-0.04,18.996,8.256,20.791,21.984c0.492,3.766,2.883,6.48,5.102,9.274c4.203,5.294,7.666,11.019,10.121,17.317
			c1.508,3.871,2.588,8.209-0.764,11.321c-4.016,3.731-7.422-0.59-10.795-2.171c-8.729-4.096-13.229-13.371-21.443-18.04
			c-4.756-2.702-9.871-9.199-15.301-0.687c-0.098,3.628,0.631,7.217,2.121,10.438c7.545,16.296,5.676,31.625-2.096,47.631
			c-10.113,20.826-13.633,43.438-13.365,66.577c0.086,7.278-0.832,14.177-4.953,20.524c-13.781,21.223-24.055,43.975-28.934,67.523
			c0.084,1.238,0.008,2.267-0.613,2.801c0.176-0.938,0.42-1.864,0.613-2.801c-0.078-1.154-0.295-2.488-0.348-3.783
			c-2.338-57.707-2.225-115.418,2.109-173.005c1.102-14.622,0.723-29.567,4.66-43.964c1.289-7.276-3.359-12.151-7.818-16.204
			c-8.631-7.848-11.838-21.37-25.203-24.204c-0.088,1.787,0.225,3.708-0.32,5.344c-14.787,44.458-29.775,88.85-44.469,133.34
			c-5.604,16.971-10.822,34.146-1.875,51.734c3.258,6.4,3.438,12.549-0.225,19.088c-12.215,21.816-22.248,44.856-36.248,65.65
			c-4.111,6.109-2.08,7.717,3.4,10.775c7.115,3.975,15.744,8.35,19.299,14.938c7.379,13.683,20.693,24.672,22.99,40.168
			c1.955,13.195,15.916,26.601-0.156,40.807c6.014,1.676,10.17,3.324,14.475,3.933c8.043,1.144,8.879,5.263,4.523,10.825
			c-11.758,15.002-8.656,29.852-0.543,45.027c3.158,5.912,5.469,11.795,2.764,19.102c-9.848,26.59-13.312,54.525-17.09,82.455
			c-1.191,8.821,2.096,10.893,9.072,12.703c8.145,2.115,15.873-5.285,21.615-3.545c18.215,5.52,36.777,5.492,55.238,7.553
			c17.645,1.967,35.209,4.671,52.789,7.18c23.664,3.375,26.91-9.6,50.355-9.536c16.838,0.044,24.637-5.376,41.527-5.793
			c11.689-0.292,16.057-12.786,27.01-12.731c0.568,0.004,1.75-3.102,1.635-4.686c-0.748-10.254,6.264-11.189,13.785-12.391
			c7.371-1.178,15.053,1.365,22.215-3.15c12.264-7.729,16.455-13.535,19.18,1.469c0.436,2.391-0.688,5.742,3.877,5.682
			c3.234-4.029-1.264-10.217,5.57-11.957c7.125-1.812,10.887,4.95,15.811,8.52c0.715,0.52,1.369,1.178,1.91,1.882
			c13.465,17.6,30.783,17.325,49.203,13.649c3.281-0.652,4.863,1.607,5.1-2.68c0.262-4.709-3.396-6.785-6.615-7.966
			c-13.363-4.916-28.039-11.692-32.146-24.563c-4.781-14.99-13.6-26.219-15.229-42.388c-2.018-19.979-5.223-39.836-7.916-59.747
			c-0.23-10.691-3.191-21.068-3.74-31.719c-3.979-13.185-6.826-26.74-12.281-39.441c-3.625-8.438-2.707-14.408,6.918-17.697
			c9.18-3.137,12.945-10.193,12.809-19.689c-0.299-21.31,4.756-42.457,2.006-63.848c0.236-15.209-0.971-30.605,0.961-45.596
			c7.998-62.041,44.711-123.886,45.119-186.666c0.043-6.531,0.33-13.595,7.936-16.874c-2.355-21.511-1.279-41.86,16.869-57.54
			c7.43-6.42,14.152-13.701,20.883-20.895c3.713-3.966,6.215-7.457,3.316-14.09c-3.385-7.746,0.818-15.256,8.064-19.167
			c5.889-3.179,9.855-7.403,12.768-13.073C527.845,81.54,522.517,81.736,517.872,81.204z M381.048,290.198
			c-13.35,15.681-26.836,31.2-41.43,45.728c-6.344,6.315-12.951,12.405-20.986,16.573c-15.166,7.863-21.143,4.928-24.338-11.739
			c-7.531-39.271-2.834-77.14,12.186-114.089c2.158-5.309,5.303-5.049,9.146-5.381c27.613-2.391,55.193-5.453,82.857-6.793
			c12.459-0.604,22.369-4.24,31.26-12.624c8.408-7.927,17.389-15.248,27.482-21.824
			C450.229,194.493,386.351,283.968,381.048,290.198z"/>
		<path fill-rule="evenodd" clip-rule="evenodd" fill="#D14C43" d="M427.751,157.63c-12.473,13.031-26.521,21.083-45.299,24.559
			c-34.105,6.311-67.439,0.465-101.094-0.805c-21.633-0.814-32.598-16.342-43.682-31.699c9.549-3.605,18.838-9.002,28.705-10.449
			c21.062-3.086,27.494-18.01,28.842-35.133c0.689-8.789-4.646-18.348-8.35-27.097c-3.299-7.795-8.125-15.172-8.838-23.67
			c-1.357-16.18,0.83-32.4,15.137-42.127c15.193-10.328,33.596-14.812,50.982-7.863c15.934,6.371,21.018,23.443,25.572,38.6
			c4.18,13.908,2.051,28.499,1.105,43.017c-0.609,9.372-3.703,12.307-11.615,14.459c-16.914,4.602-14.109,4.891-10.49,22.5
			c4.004,19.482,18.691,18.148,30.793,21.414C395.735,147.714,412.653,149.485,427.751,157.63z"/>
		<path fill-rule="evenodd" clip-rule="evenodd" fill="#D14C43" d="M408.731,555.062c-2.219-6.377-10.637-11.729-4.146-17.721
			c5.861-5.41,8.949-7.566,8.566-21.643c-0.535-19.74-3.113-69.73,1.354-89.275c9.105,17.039,40.354,70.006,44.314,88.591
			c2.443,11.474,6.805,21.171,15.998,28.337c8.049,6.273,13.332,14.482,16.752,23.757c9.523,25.855,21.352,51.073,25.992,78.417
			c3.592,21.182,22.234,36.356,23.131,57.604c0.734,17.386,12.234,25.823,22.471,35.939c5.91,5.836,10.34,12.555,12.125,20.381
			c1.74,7.628,3.863,16.162-4.84,21.795c-8.98,5.815-18.668,5.416-26.055-1.283c-13.154-11.928-26.68-24.168-32.033-42.027
			c-1.697-5.658-2.678-9.051-9.332-5.66c-4.893,2.487-8.348,0.615-10.379-4.568c-14.207-36.252-34.729-68.932-54.262-102.615
			C434.38,618.179,414.39,571.296,408.731,555.062z"/>
		<path fill-rule="evenodd" clip-rule="evenodd" fill="#D14C43" d="M99.741,214.058c-2.65-7.882-1.574-11.541,8.484-11.664
			c22.312-0.268,42.43,2.5,56.273,23.047c5.93,8.803,14.717,13.506,26.422,11.83c14.699-2.109,21.258,11.195,31.201,18.058
			c0.627,0.434,1.289,2.079,1.127,2.218c-12.48,10.68,4.088,13.773,5.635,20.787c1.115,5.059,5.68,9.418,6.527,14.455
			c0.787,4.686,0.195,11.037-2.525,14.507c-3.268,4.167-8.264-1.644-11.861-2.454c-9.361-2.105-13.227-9.445-19.113-15.065
			c-5.398-5.154-10.609-11.886-18.736-12.96c-6.471,0.869-12.02,2.322-18.371,4.332c-14.545,4.602-17.088,3.134-23.82-11.621
			c-10.84-12.388-21.682-24.774-32.523-37.162C103.319,227.327,99.55,221.634,99.741,214.058z"/>
		<path fill-rule="evenodd" clip-rule="evenodd" fill="#D14C43" d="M468.698,211.523c-1.871-0.864-5.775-0.284-5.336-2.746
			c3.232-18.134-1.09-38.415,15.117-52.968c9.633-8.652,18.84-17.783,28.098-26.844c1.584-1.548,4.775-2.775,2.48-6.23
			c-7.537-11.345-3.605-22.289,10.461-27.314c4.971-1.775,2.562-12.147,11.08-8.662c15.936,5.086,16.668,7.439,6.389,19.813
			c-2.273,2.736-5,5.267-7.191,7.911c-9.354,11.281-6.666,20.62-0.986,32.374c10.834,22.416-0.305,47.03-23.824,56.65
			C493.325,208.277,480.966,209.646,468.698,211.523z"/>
		<path fill-rule="evenodd" clip-rule="evenodd" fill="#D14C43" d="M429.743,201.873c-8.891,8.384-18.801,12.021-31.26,12.624
			c-27.664,1.34-55.244,4.402-82.857,6.793c-3.844,0.332-6.988,0.072-9.146,5.381c-15.02,36.949-19.717,74.818-12.186,114.089
			c3.195,16.667,9.172,19.603,24.338,11.739c8.035-4.168,14.643-10.258,20.986-16.573c14.594-14.527,28.08-30.047,41.43-45.728
			c5.303-6.23,9.461-12.59,11.799-20.287c0.717-5.254,1.221-10.548,2.191-15.755c5.658-30.38,5.695-30.374,35.484-34.725
			c12.73-10.606,19.707-24.938,26.703-39.383C447.132,186.625,438.151,193.946,429.743,201.873z"/>
		<path fill-rule="evenodd" clip-rule="evenodd" fill="#3E456D" d="M134.712,489.741c-2.338-57.707-2.225-115.418,2.109-173.005
			c1.102-14.622,8.723-89.567,12.66-103.964c1.289-7.276-3.359-12.151-7.818-16.204c-8.631-7.848-1.838-21.37-15.203-24.204
			c-0.088,1.787,0.225,3.708-0.32,5.344c-14.787,44.458-47.775,148.85-62.469,193.34c-5.604,16.971-10.822,34.146-1.875,51.734
			c3.258,6.4,3.438,12.549-0.225,19.088c-12.215,21.816-22.248,44.856-36.248,65.65c-4.111,6.109-2.08,7.717,3.4,10.775
			c7.115,3.975,15.744,8.35,19.299,14.938c7.379,13.683,20.693,24.672,22.99,40.168C72.968,586.597,134.765,491.036,134.712,489.741
			z"/>
	</g>
</g>
<g id="Layer_0-5_copy">
</g>
<g id="Layer_0-4_copy">
</g>
<g id="Layer_0-3_copy">
</g>
<g id="Layer_0-2_copy">
</g>
<g id="Layer_0-1_copy">
</g>
<g id="Layer_0-0_copy">
</g>
</svg>
