<?xml version="1.0" encoding="utf-8"?>
<!-- Generator: Adobe Illustrator 16.0.0, SVG Export Plug-In . SVG Version: 6.00 Build 0)  -->
<!DOCTYPE svg PUBLIC "-//W3C//DTD SVG 1.1//EN" "http://www.w3.org/Graphics/SVG/1.1/DTD/svg11.dtd">
<svg version="1.1" xmlns="http://www.w3.org/2000/svg" xmlns:xlink="http://www.w3.org/1999/xlink" x="0px" y="0px" width="600px"
	 height="800px" viewBox="0 0 600 800" enable-background="new 0 0 600 800" xml:space="preserve">
<g id="Layer_0-0">
</g>
<g id="Layer_0-1">
</g>
<g id="Layer_0-2">
</g>
<g id="Layer_0-3">
</g>
<g id="Layer_0-4">
</g>
<g id="Layer_0-5">
</g>
<g id="Layer_0-6">
</g>
<g id="Layer_1">
</g>
<g id="Layer_2">
</g>
<g id="Layer_3">
</g>
<g id="Layer_4">
</g>
<g id="Layer_5">
</g>
<g id="Layer_6">
	<g>
		<g>
			<path fill-rule="evenodd" clip-rule="evenodd" fill="#3E456D" d="M482.322-48.852c-4.954-15.53-28.106-19.689-29.794-36.439
				c-2.09-20.7-11.019-41.271-13.807-61.9c-0.24-11.077-3.307-21.828-3.876-32.861c-4.122-13.66-7.07-27.704-12.724-40.863
				c-3.756-8.741-1.515-13.756,7.168-8.99c8.812,4.836-5.273-19.904-5.416-29.742c-0.389-27.717-40.589-41.93-43.702-66.149
				c0.245-15.757,1.318-34.917-8.349-47.237c-21.127-26.928,1.764-21.477,0.761-31.062c-1.876-17.915-6.089-6.265,2.421-23.41
				c5.535-11.154,8.258-64.132,16.599-78.995c4.081-7.273,7.718-14.37,10.147-20.682c2.432-6.316,2.209-34.641,10.089-38.037
				c-2.44-22.285-1.325-54.581,17.478-70.824c7.696-6.653-4.023-21.67,2.948-29.123c3.847-4.111,6.438-7.727,3.437-14.599
				c-3.508-8.024,0.848-15.805,8.355-19.857c6.1-3.293,10.209-7.671,13.228-13.546c-2.854-5.404-8.374-5.201-13.188-5.754
				c-8.462-0.972-30.778,9.588-30.432,21.645c0.221,7.709-5.372,11.254-9.322,17.326c-9.943,15.281-5.689,15.049-16.147,21.008
				c-14.039,7.999-9.679,3.15-26.936,10.975c-5.848,2.652-12.697,10.451-15.918,7.471c0,0-2.409-1.331,0.944-6.205
				c3.521-5.113,5.841-6.191,8.889-8.863c5.591-4.898,5.357-1.862,7.204-6.697c3.311-8.67,7.561-11.847,9.457-18.438
				c6.681-23.207,5.279-26.478-2.864-47.59c-8.673-11.119-18.899-15.699-31.603-21.539c-15.674-7.204-23.936-2.943-34.545,11.803
				c-8.091,11.244-8.912,27.414-22.314,35.693c-4.446,2.744-1.551,16.029-4.018,24.36c-3.751,12.675,6.681,12.688,12.948,15.671
				c13.061,6.215,25.039,2.594,18.812,18.301c-4.572,3.951-18.127,11.439-18.127,11.439c-5.503,4.33-16.714,7.133-25.491,8.655
				c-26.947,4.675-40.271,2.214-70.419-8.439c-1.885-0.666-20.028-5.804-21.979-5.721c-11.403,0.492-23.86-0.441-32.363-0.035
				c-7.654,0.366-20.97,11.431-22.623,20.397c-1.271,6.886,15.014,10.541,20.68,12.576c2.539,0.91,1.461-4.854,3.721-3.904
				c15.855,6.666,26.814,4.029,51.436,13.738c17.775,7.009,33.035,7.197,38.115,11.365c10.912,8.95,13.248,13.621,11.706,26.293
				c-2.401,19.719-9.617,20.263-8.21,38.994c-0.007,18.17-0.379,23.09,0.329,26.698c3.46,17.634,2.185,32.14,3.435,49.346
				c1.835,25.276,4.073,45.522,1.102,68.977c-0.948,7.481,1.867,27.45,1.408,35.278c-1.609,27.528-11.81,33.208-21.269,99.02
				c-4.632,32.214,2.48,53.934-12.629,80.085c3.275,10.597-1.25,10.215,1.915,13.419c1.983,2.008,2.295,9.326,1.884,11.215
				c-4.202,19.295-6.166,21.584,2.241,37.307c3.272,6.123,3.432,11.737,2.863,19.789c-2.365,33.492-4.234,14.335-12.103,38.709
				c-2.832,8.774-7.171,20.627,0.058,22.503c8.438,2.191,7.103,5.737,13.052,7.54c18.871,5.719,28.145,6.676,45.085-2.453
				c26.76-14.42,30.95,2.182,54.695,5.57c24.519,3.496,13.868,2.2,38.157,2.266c17.444,0.046,6.839,3.774,24.339,3.342
				c12.11-0.302-12.328-13.246-0.98-13.189c0.588,0.004,9.391-4.812,11.035-4.855c12.098-0.311,6.49,7.096,14.283,5.852
				c7.635-1.221,6.25,1.413,13.67-3.264c12.705-8.007,20.711,2.429,27.791,0.625c7.381-1.878,11.278-13.559,16.379-9.861
				C462.179-24.189,486.577-35.518,482.322-48.852z M352.291-491.672c-7.305,6.861-6.546,0.101-4.405-17.078
				c5.043-40.475,13.804-47.077,26.894-83.51c1.88-5.235,0.515-11.353,1.73-12.262c8.287-6.196,3.927-8.064,14.371-10.537
				c4.705-1.113,7.774-0.798,13.993-5.894c1.738-1.423,2.57-2.032,2.932-2.251c0.213-0.322,0.744-1.002,1.894-2.332
				c-3.695,9.443-27.933,72.217-32.611,83.978c-8.451,21.245-4.937,20.011-13.364,33.688
				C360.061-501.924,356.161-495.309,352.291-491.672z"/>
		</g>
	</g>
</g>
<g id="Layer_7">
</g>
<g id="Layer_8">
</g>
<g id="Layer_9">
</g>
<g id="Layer_10">
</g>
<g id="Layer_11">
</g>
<g id="Layer_12">
</g>
<g id="Layer_13">
</g>
<g id="Layer_14">
</g>
<g id="Layer_15">
</g>
<g id="Layer_16">
	<g>
		<path fill="#3E456D" d="M542.422,154.197c-1.682-8.721-9.525-14.059-17.285-13.477c-38.34,2.871-65.738,15.844-103.938,19.254
			c-9.562,0.857-16.344-3.156-22.098-9.324c-3.1-3.324,1.045-7.422,4.838-12.16c2.18-2.725,11.713-9.924,15.18-18.988
			c3.24-8.477,4.428-12.793,5.971-19.525c3.107-13.568-1.215-39.072-8.09-47.188c-10.873-12.838-9.525-17.553-24.936-19.443
			c-18.502-2.271-32.854,0.178-44.848,14.52c-9.141,10.934-10.188,18.188-10.988,34.709c-0.27,5.496,1.432,15.301,3.051,23.689
			c2.496,12.938,1.783,10.895,7.045,17.055c4.924,5.771,6.127,6.332,4.902,15.979c-0.787,6.223-19.59,13.123-23.422,18.178
			c-10.213,13.465-24.258,17.496-40.641,16.586c-10.875-0.607-21.623,1.316-32.054,3.234c-25.184,4.631-16.139-2.377-40.674-4.414
			c-14.889-1.236-41.947,4.006-55.561-0.912c-22.34-7.92-39.215-23.234-56.348-38.195c-5.434-4.748-7.794-10.26-7.57-17.756
			c0.352-11.725-7.898-39.256-11.742-36.83c-6.528,11.912-10.57,4.77-19.164,5.715c-4.889,0.535-4.088,12.238-6.988,17.494
			c3.068,5.713,0.834,8.139,7.029,11.342c7.623,3.939,15.707,11.506,12.146,19.309c-3.048,6.684-1.332,10.199,2.576,14.197
			c7.078,7.248,17.585,11.9,21.972,21.051c14.032,29.275,17.481,36.299,15.007,57.971c8,3.303,5.553,30.039,8.346,35.998
			c56.242,120.045,31.348,97.396,57.037,141.672c7.648,13.182,40.764,30.613,41.011,45.936c-2.892,21.555,2.46,42.857,2.144,64.326
			c-0.144,9.568-0.66,64.617-3.146,78.322c-1.918,10.57-18.621,29.451-19.498,40.189c-1.648,20.191-11.898,30.912-14.02,51.043
			c-1.41,13.377-17.879,37.428-9.053,31.303c5.182-3.598,9.141,7.762,16.637,9.588c7.189,1.754,15.321-8.395,28.225-0.609
			c7.537,4.549,6.129-21.811,13.885-20.625l15.397,9.348c5.994-0.076,8.316,4.354,6.652,10.361c-1.25,4.502-1.996,9.24-0.307,13.479
			c2.316,5.812,1.629,11.084-0.135,16.762c-2.189,7.049,0.619,12.014,7.623,14.631c4.047,1.514,8.168,2.844,12.184,4.439
			c4.766,1.895,10.359,4.342,14.318,0.82c4.027-3.582,3.367-9.697,2.293-15.033c-0.096-0.471-0.211-0.939-0.287-1.412
			c-1.836-11.564-4.553-36.043-4.553-36.043c17.771,0.42,25.979,42.492,43.699,42.447c24.666-0.062,4.361,10.283,29.264,6.883
			c26.15-3.574,55.934-14.602,55.547-5.348c-0.779,18.699,36.787,7.943,55.957,2.385c6.037-1.754-4.807-5.203,3.764-7.334
			c7.34-1.822,12.422-4.264,9.547-12.797c-7.99-23.701-19.379-11.213-21.779-43.781c-0.578-7.83-0.418-25.186,2.906-31.143
			c8.539-15.291,11.803-30.25-0.568-45.363c-4.586-5.604-3.703-9.756,4.758-10.908c4.529-0.611,5.109-5.934,11.436-7.621
			c-16.91-14.314-7.449-31.229-5.393-44.523c2.418-15.611-2.275-19.164,5.492-32.947c3.74-6.639,3.535-18.764,11.023-22.766
			c5.768-3.084,7.902-4.703,3.578-10.857c-14.73-20.951,0.082-26.768-12.771-48.746c-3.852-6.588-11.01-31.086-7.578-37.535
			c9.414-17.719,7.984-68.006,2.088-85.104c-15.465-44.824,13.379-64.742-2.184-109.533c-0.574-1.646-0.246-3.582-0.336-5.383
			c-14.064,2.854-7.439,16.479-16.52,24.385c-4.695,4.082-9.586,8.996-8.23,16.324c4.146,14.506-9.254,47.734-8.094,62.465
			c4.559,58.018-1.812,116.16-4.273,174.299c-0.055,1.305-0.281,2.648-0.365,3.812c0.203,0.945,0.463,1.877,0.645,2.822
			c-0.65-0.539-0.732-1.574-0.645-2.822c-5.133-23.725-4.516-30.354-13.363-54.402c-2.648-7.189-11.842-27.027-12.805-34.305
			c-3.018-22.807-8.312-44.41-14.062-67.076c-4.137-16.303,1.309-30.838-2.205-47.986c-0.719-3.508,18.385-52.062,28.055-63.881
			c12.51-15.291,29.186-34.494,47.947-33.748c6.668,0.268,3.67,1.211,14.039,1.67c17.336-2.107,28.379-7.732,44.48-14.215
			C541.014,175.143,544.289,163.895,542.422,154.197z M278.705,323.615c-3.365,16.791-3.934,21.004-20.865,15.457
			c-83.604-27.389-129.121-123.566-128.118-139.881c10.622,6.623,18.211,8.455,27.059,16.443c9.357,8.445,37.139-6.195,50.249-5.588
			c29.11,1.35,24.917,5.344,53.973,7.752c4.045,0.336,7.354,0.072,9.623,5.422C286.43,260.443,286.625,284.049,278.705,323.615z"/>
		<path fill-rule="evenodd" clip-rule="evenodd" fill="#D14C43" d="M398.326,465.738c-1.99,21.434-4.334,42.828-6.729,64.195
			c-2.371,21.152-2.898,42.479-5.832,63.576c-1.645,11.855-0.799,23.947,1.238,35.934c6.719,39.498,7.098,57.451,27.133,91.953
			c1.596,2.748,0.291,2.242,0.797,5.496c5.318,6.904-0.58-6.742,1.535,1.998c1.332,5.516,1.078,11.146-0.863,15.74
			c-5.061,11.973-3.744,24.256-3.084,36.627c1.734,4.453,1.828,8.883,0.057,13.289c-0.268,2.592-2.092,3.859-4.201,4.213
			c-11.67,1.961-23.316,1.703-34.863-1.553c-2.402-4.939-1.42-9.873-0.205-14.807c3.787-13.289,2.854-27.158,3.979-40.768
			c0.742-8.975-0.77-9.818-8.801-6.578c-3.488,1.404-6.908,3.281-10.549,3.973c-9.924,1.883-10.492,4.365-16.268-5.953
			c-9.004-16.092-17.223-54.496-19.145-58.799c-1.254,10.322-1.344,50.176-4.289,58.014c-3.346,8.906-4.277,17.479-1.799,27.271
			c2.508,9.916-1.281,13.701-11.105,13.393c-14.807-0.471-29.568,2.498-44.393-0.287c-9.769-1.834-13.923-4.281-7.872-11.922
			c2.201-2.779,9.284-5.061,12.042-7.072c12.285-8.969,10.715-22.521,7.037-35.691c0.939-49.803,7.725-92.176,13.295-106.826
			c2.297-6.041,2.186-11.457-0.732-16.867c-4.959-9.182-5.568-19.293-6.215-29.219c-3.318-19.414-4.363-24.287-7.445-44.08
			c-0.332-2.139-18.797-85.594-9.877-105.232l0.061-3.227c2.102-12.92-1.34-25.881-2.801-38.744
			c-2.043-18.002-4.454-35.979-6.793-53.939c-2.118-16.271-3.274-32.699-6.401-48.855c-0.325-1.695-0.461-3.412-0.482-5.133
			c-0.195-14.604-4.465-27.318-15.439-37.568c-6.217-5.809-23.609-17.842-29.527-18.496c-24.953-2.75-45.575-11.672-74.807-14.406
			c-4.07-0.381-35.179-27.561-43.826-41.33c-5.075-8.082-5.08-7.738-10.568-18.219c-7.516-14.352-8.718-12.498-9.785-17.279
			c-2.906-13.025,3.02-14.604,5.93-14.133c7.516-0.146,10.236-5.199,14.713-10.375c0.032-1.889,0.273-3.922,0.22-5.602
			c-0.099-3.146-2.179-7.785,2.128-7.861c2.672-0.047,4.994,4.514,5.927,8.07c0.361,1.371,0.31,2.852,0.443,4.283
			c0.784,6.701,3.966,8.385,4.535,12.824c1.834,14.273,6.741,17.445,15.843,29.715c17.092,23.041,64.602,16.682,69.24,16.631
			c19.507-0.221,35.945-11.107,55.303-13.158c14.369-1.523,28.079-6.617,40.142-15.258c4.861-3.486,6.021-7.568,4.002-13.744
			c-4.049-12.385-7.812-24.936-10.537-37.662c-2.639-12.326-0.277-24.787,1.334-37.049c1.033-7.838,1.582-16.123,7.705-22.105
			c20.641-20.16,53.062-17.018,67.756,8.77c3.074,5.396,2.785,11.447,2.943,17.254c0.396,14.662,1.871,29.045-8.295,42.141
			c-7.557,9.734-7.828,17.428-2.986,29.248c1.883,5.764,17.744,20.814,19.934,23.316c24.043,14.914,17.268,14.666,41.168,14.521
			c3.844-0.025,34.109,1.82,43.822,5.773c3.652,4.127,60.057,31.451,64.578,31.117c15.584,9.799,2.486,14.24-4.977,31.199
			c-0.682,1.555-21.658,18.49-28.543,26.455c-8.047,9.311-62.295,29.125-71.549,32.719c-0.844,0.324,3.51-11.264,5.152-16.992
			c3.029-10.557,37.008-34.867,29.623-36.209c-12.521-6.73-46.094,7.537-46.996,12.199c-3.627,18.717-6.977,45.848-10.457,64.596
			c-0.672,3.605-1.26,7.24-2.129,10.787c-1.412,5.744-0.531,11.01,1.787,16.453c16.449,38.656,18.357,67.428,25.395,108.781
			L398.326,465.738z"/>
		<path fill="#3E456D" d="M483.598,178.135c-20.07,12.609-54.6,36.023-62.023,37.09c-11.611,1.666-19.939,4.65-33.334,13.414
			c10.221,8.488-3.436,15.646-1.029,23.951c1.369,4.723,21.074,6.979,26.75,8.932c5.102-4.002,38.354-28.514,41.621-33.051
			c5.924-8.221,14.869-10.156,24.07-14.441c35.1-16.352,63.348-42.914,62.268-49.406
			C538.664,145.064,500.385,167.586,483.598,178.135z"/>
	</g>
</g>
<g id="Layer_17_1_">
</g>
<g id="Layer_18_1_">
</g>
<g id="Layer_19">
</g>
<g id="Layer_20">
</g>
<g id="Layer_21">
</g>
<g id="Layer_22">
</g>
<g id="Layer_23">
</g>
<g id="Layer_10_copy">
</g>
<g id="Layer_11_copy">
</g>
<g id="Layer_12_copy">
	<g>
		<path fill-rule="evenodd" clip-rule="evenodd" fill="#D14C43" d="M523.768,1040.391c4.07-10.072,9.766-21.537,13.171-32.121
			c0.574-1.787,3.947-39.283,3.937-46.971c3.472-21.068-13.1-21.809-17.704-42.332c-6.74-30.055-9.329-37.82,3.495-46.018
			c4.106-2.625,6.154-13.523,6.801-15.182c1.731-4.451,2.38-4.773,4.861-13.496c0.518-1.822,2.304-22.691-4.749-29.359
			c-18.93-17.898-24.15-15.803-39.041-13.195c-12.664,2.219-19.065,7.66-26.839,18.695c-9.069,12.873-2.365,19.529-6.882,34.037
			c4.807,18.283,2.38,38.67-20.087,39.328c-3.113,0.092-25.27,8.627-28.017,9.051c-6.102,0.939-23.136,11.33-38.613,12.182
			c-8.829,0.486-10.651,2.863-20.301,10.119c22.512,19.439,19.844,14.344,31.17,24.012c3.279-5.785,2.506-4.572,17.6-8.893
			c7.122-2.039,2.68,2.424,0.503,7.936c-4.74,12-2.854,3.156-3.075,4.229c-2.846,10.668-6.857,2.834-11.642,24.791
			c-0.321,1.469-0.837,3.443-2.905,3.793c-1.773,0.303-2.926-1.021-3.758-2.412c-3.119-5.207-6.455-10.299-11.027-14.305
			c-1.709-1.5-5.219-3.303-6.391-2.562c-2.245,1.414-3.439,4.498-1.204,7.49c0.532,0.713,0.722,1.807,0.768,2.736
			c0.128,2.709,2.076,5.91-1.146,7.893c-2.914,1.793-13.257,7.824-15.197,6.23c-1.201-0.986-3.068-1.164-4.217-2.209
			c-1.75-1.59,1.304-4.02-3.695-1.713c-3.07,1.416,5.018,5.18,6.857,10.836c3.842,11.812,17.367,23.117,21.944,25.404
			c3.599,1.799,6.458,1.707,7.995,5.986c3.377,9.391,2.765,11.322,11.141,17.42c5.119,3.725,4.543,10.98,4.655,17.004
			c0.235,12.797,0.06,54.727,0.144,67.529c0.031,4.461,1.041,8.414,3.344,12.633c8.451,15.486,16.648,31.104,25.473,46.402
			c7.784,13.494,15.39,26.814,28.58,36.023c10.912,7.615,21.504,15.693,32.112,23.734c2.884,2.188,11.949,13.33,11.949,13.33
			s3.888-10.457,3.806-14.293c-0.59-27.773-0.783-45.803-0.98-53.775c-0.234-9.592,1.951-19.041,2.825-22.039L523.768,1040.391z"/>
	</g>
</g>
<g id="Layer_13_copy">
</g>
<g id="Layer_14_copy">
</g>
<g id="Layer_15_copy">
</g>
<g id="Layer_16_copy">
</g>
<g id="Layer_17_copy">
</g>
<g id="Layer_18_copy">
</g>
<g id="Layer_19_copy">
</g>
<g id="Layer_20_copy">
</g>
<g id="Layer_21_copy">
</g>
<g id="Layer_22_copy">
</g>
<g id="Layer_23_copy">
</g>
<g id="Layer_24">
</g>
<g id="Layer_25">
</g>
<g id="Layer_26">
</g>
<g id="Layer_27">
</g>
<g id="Layer_0-6_copy">
</g>
<g id="Layer_0-5_copy">
</g>
<g id="Layer_0-4_copy">
</g>
<g id="Layer_0-3_copy">
</g>
<g id="Layer_0-2_copy">
</g>
<g id="Layer_0-1_copy">
</g>
<g id="Layer_0-0_copy">
</g>
</svg>
