<?xml version="1.0" encoding="utf-8"?>
<!-- Generator: Adobe Illustrator 16.0.0, SVG Export Plug-In . SVG Version: 6.00 Build 0)  -->
<!DOCTYPE svg PUBLIC "-//W3C//DTD SVG 1.1//EN" "http://www.w3.org/Graphics/SVG/1.1/DTD/svg11.dtd">
<svg version="1.1" xmlns="http://www.w3.org/2000/svg" xmlns:xlink="http://www.w3.org/1999/xlink" x="0px" y="0px" width="600px"
	 height="800px" viewBox="0 0 600 800" enable-background="new 0 0 600 800" xml:space="preserve">
<g id="Layer_0-0">
</g>
<g id="Layer_0-1">
</g>
<g id="Layer_0-2">
</g>
<g id="Layer_0-3">
</g>
<g id="Layer_0-4">
</g>
<g id="Layer_0-5">
</g>
<g id="Layer_0-6">
</g>
<g id="Layer_1">
</g>
<g id="Layer_2">
</g>
<g id="Layer_3">
</g>
<g id="Layer_4">
</g>
<g id="Layer_5">
</g>
<g id="Layer_6">
</g>
<g id="Layer_7">
</g>
<g id="Layer_8">
	<g>
		<path fill-rule="evenodd" clip-rule="evenodd" fill="#3E456D" d="M501.705-700.617c-8.355-0.959-17.714,11.412-18.633-4.954
			c-6.156,14.929-11.758,14.421-11.416,26.326c0.219,7.612-2.077,13.209-7.359,18.03c-16.656,15.191-14.611,12.288-36.332,20.33
			c-13.231,4.994-21.743,18.259-36.217,19.513c-23.855,2.068-15.059,9.184-39.543,4.483c-10.141-1.948-20.592-3.901-31.164-3.285
			c-15.928,0.926-29.583-3.17-39.511-16.842c-3.726-5.131-13.108-12.139-13.874-18.455c-1.189-9.798-0.02-10.365,4.768-16.225
			c5.113-6.258,4.422-4.182,6.851-17.318c1.575-8.519,3.226-18.473,2.966-24.055c-0.782-16.775-1.797-24.141-10.687-35.242
			c-11.659-14.562-25.612-17.05-43.601-14.744c-14.982,1.922-18.119,6.707-28.689,19.743c-6.686,8.241-10.889,34.138-7.865,47.913
			c1.499,6.836,2.652,11.219,5.806,19.828c3.369,9.203,17.088,16.512,19.206,19.278c3.687,4.812-1.184,8.972-4.195,12.347
			c-5.594,6.265-12.186,10.338-21.483,9.469c-37.138-3.464-60.083-15.713-97.358-18.627c-7.544-0.592-15.171,4.829-16.803,13.684
			c-1.816,9.846,5.815,13.834,13.022,16.864c15.655,6.581,17.331,16.959,34.184,19.099c10.083-0.465,8.271-4.162,14.571-2.616
			c56.396,13.837,36.783,24.481,46.615,37.034c9.399,11.999,22.357,29.795,16.801,38.502c-0.101,3.712,9.775,22.799,10.475,26.361
			c3.416,17.412,1.877,32.172-2.145,48.725c-5.591,23.016-10.738,44.949-13.672,68.107c-0.938,7.389-9.875,27.533-12.448,34.834
			c-8.604,24.417-8.004,31.148-12.995,55.238c0.087,1.267,0.008,2.318-0.627,2.865c0.181-0.959,0.432-1.906,0.627-2.865
			c-0.079-1.18-0.472-2.549-0.354-3.869c8.615-96.877,6.949-121.93,19.61-176.982c3.362-14.618-0.263-30.246,3.766-44.973
			c1.32-7.443-2.436-12.432-6.998-16.577c-8.83-8.028-1.883-31.087-15.559-33.985c-0.088,1.828,0.232,22.244-0.326,23.918
			c-15.129,45.479,2.899,71.518-12.131,117.031c-5.733,17.359-15.687,34.93-6.531,52.922c3.333,6.549,3.515,12.838-0.23,19.527
			c-12.498,22.316,4.768,46.809-9.555,68.082c-4.205,6.248-0.712,28.789,2.924,35.529c7.551,13.996-8.352,25.238-6.002,41.09
			c2,13.498,5.633,43.3,10.034,43.922c8.229,1.17-4.227,41.612,4.074,57.137c3.23,6.047,3.389,11.591,2.827,19.541
			c-2.336,33.07,5.047,23.381-2.723,47.447c-2.799,8.664,2.145,11.142,9.281,12.994c8.331,2.164-2.213,5.664,3.66,7.445
			c18.637,5.646,36.053,16.564,35.292-2.424c-0.375-9.394,19.354,11.099,44.781,14.727c24.208,3.452,4.466-7.053,28.45-6.988
			c17.227,0.045,25.205,22.18,42.483,21.752c11.958-0.299,15.505-13.08,26.708-13.023c0.582,0.003,9.273-4.753,10.896-4.795
			c11.945-0.307,6.409,7.007,14.104,5.777c7.538-1.205,6.171,1.396,13.499-3.222c12.545-7.906,20.448,2.397,27.441,0.617
			c7.287-1.854,11.135-13.388,16.172-9.737c0.732,0.531,24.823-10.652,20.621-23.818c-4.892-15.336-27.752-37.894-29.421-54.434
			c-2.062-20.439-10.877-40.752-13.632-61.121c-0.236-10.938-3.264-21.553-3.825-32.447c-4.07-13.488-6.983-27.355-12.563-40.349
			c-3.709-8.632-2.77-14.739,7.075-18.103c9.393-3.209,13.245-10.428,13.104-20.143c-0.307-21.799,5.787-43.433,2.975-65.316
			c0.241-15.558-0.994-31.307,0.982-46.643c8.184-63.467,49.428-117.508,49.848-181.73c0.043-6.683,0.334-13.906,8.115-17.261
			c-2.408-22.005-19.761-24.37-1.195-40.41c7.602-6.569,14.479-14.017,21.363-21.375c3.799-4.059,6.357-7.629,3.393-14.415
			c-3.463-7.924,0.838-15.605,8.251-19.607c6.023-3.251,10.081-7.573,13.062-13.374
			C511.908-700.271,506.457-700.072,501.705-700.617z M392.182-486.818c-11.095,22.197-17.304,12.542-32.232,27.402
			c-6.488,6.461-4.023,13.615-12.244,17.877c-15.515,8.045-15.168-17.1-18.439-34.15c-7.702-40.173-7.511-56.771,7.856-94.568
			c2.205-5.431,5.421-5.164,9.354-5.504c28.248-2.446,24.173-6.501,52.471-7.873c12.746-0.616,21.961-4.336,31.056-12.912
			c8.603-8.111,7.232-3.878,17.559-10.604C442.789-597.296,398.324-499.107,392.182-486.818z"/>
	</g>
</g>
<g id="Layer_9">
</g>
<g id="Layer_10">
</g>
<g id="Layer_11">
</g>
<g id="Layer_12">
</g>
<g id="Layer_13">
</g>
<g id="Layer_14">
</g>
<g id="Layer_15">
</g>
<g id="Layer_16">
</g>
<g id="Layer_17_1_">
</g>
<g id="Layer_18_1_">
	<g>
		<path fill-rule="evenodd" clip-rule="evenodd" fill="#3E456D" d="M200.617,131.767c-9.629,3.45-19.71,4.108-29.673,5.319
			c-9.237,1.125-18.62-0.695-27.872,1.6c-3.002,0.744-6.525,0.125-4.148-5.086c3.533-0.44,6.162-2.579,8.521-5.221
			c3.973-6.541,4.48-14.328,6.732-21.489C168.615,117.423,182.751,128.6,200.617,131.767z"/>
		<path fill-rule="evenodd" clip-rule="evenodd" fill="#3E456D" d="M316.253,454.625c-0.592-1.887-1.841-3.766-3.237-5.1
			c-6.919-6.609-10.402-14.283-8.123-24.49c0.541-2.417,0.388-6.244-1.01-7.729c-10.736-11.413-4.48-27.492-10.203-40.5
			c-5.791-13.155-4.8-28.255-3.066-42.164c2.412-19.371,22.643-38.837,24.588-58.189c0.677,2.481,0.979,4.978,1.098,7.483
			c0.084,3.372-0.059,6.754-0.135,10.131c-0.101,3.079-0.139,6.154,0.21,9.213c-0.284-3.062-0.277-6.136-0.21-9.213
			c0.113-3.379,0.293-6.762,0.135-10.131c-0.077-3.021-0.34-6.039-1.013-9.039c0.744-10.009,0.866-20.132,4.001-29.745
			c4.304-13.19,1.166-45.419,13.551-40.688c8.828,3.372,27.413,5.923,35.865,10.146c8.169,4.081,16.487,4.43,25.053,4.433
			c25.762,0.008,51.221-7.267,76.045-15.131c10.165,0.05,20.413,3.074,30.061,8.795c9.448,5.602,13.154,11.687,11.519,21.105
			c-1.258,7.243-7.439,11.271-18.193,11.854c-3.846-0.703-18.228,1.855-24.286,1.786c-10.908-0.124-11.278,0.201-9.266,12.06
			c1.142,6.727,2.495,13.406,1.816,20.31c-1.294,3.672-0.392,7.484-0.511,11.226c-0.021,0.63-1.475,2.688,0.978,2.439
			c1.525,14.423-6.101,57.993-4.978,72.452c2.213,28.548-8.289,54.978,7.586,78.416c11.769,17.377,1.073,36.85,17.948,49.77
			c4.62,3.536,2.931,8.832,1.625,13.093c-3.361,10.982-4.918,21.741-0.386,32.772c1.142,2.777,0.026,4.997-2.114,7.008
			c-2.47,2.322,4.227,4.707,2.752,7.726c-7.94,16.255,20.462,56.301,32.554,65.383c18.161,13.645,9.354,81.13,29.059,91.709
			c7.272,3.906-1.708,6.14-7.507,12.255c-8.602,9.069-10.496,13.534-20.588,20.134c-1.172,0.767-2.516,1.224-3.71,1.953
			c-13.818,8.427-30.79,37.294-38.165,10.604c-0.155-0.568-0.363-1.123-0.589-1.664c-6.204-14.951-15.55,14.241-30.375,17.402
			c-12.66,2.697-13.809-29.592-22.689-19.748c-3.557,3.943-8.717,5.028-12.812,8.031l-32.642-15.069
			c-0.886,6.676-3.917,12.988-2.702,20.034c0.544,3.153,0.167,6.42-3.882,5.975c-3.434-0.38-3.352-3.211-2.654-6.103
			c0.316-1.32,0.944-2.849-1.114-4.064c-3.024,2.353-2.55,6.149-2.858,9.437c-0.579,6.148-3.625,9.654-9.11,11.014
			c-7.903,1.958-15.935,2.055-23.897,1.154c-6.601-0.746-6.096-5.744-4.047-10.576c3.982-9.4,8.253-18.66,12.33-28.018
			c1.052-2.408,2.068-4.891,2.671-7.456c0.864-3.665,4.408-7.827-0.777-10.889c-5.456-3.225-5.796,2.943-7.368,5.484
			c-2.398,3.88-5.821,4.556-9.268,4.711c-22.806,1.032-45.727,3.29-67.82-5.724c-1.735-0.708-3.781-0.537-5.682-0.776
			c2.064-9.109,8.171-15.952,11.803-24.236c11.816-26.937,20.916-54.684,24.947-84.264c0.825-6.053-20.473-86.442-17.336-93.673
			C278.715,507.912,316.253,454.625,316.253,454.625z M403.922,439.675c-13.351-3.433-15.061-123.851-10.521-139.356l26.9-32.646
			c10.454,0.78,18.108-4.191,26.432-9.236c-0.25,11-3.789,29.862-5.992,40.432c-1.366,6.547-15.854,124.277-22.254,124.168
			C407.578,422.849,414.488,442.392,403.922,439.675z"/>
		<path fill-rule="evenodd" clip-rule="evenodd" fill="#3E456D" d="M436.268,559.882c4.688-14.947-0.201-26.847,9.226-39.207
			c4.542-5.953,13.748-8.926,21.396-11.737c5.894-2.167,8.15-3.437,5.044-10.113c-10.579-22.724,2.867-43.925-5.785-67.379
			c-2.597-7.034-1.459-13.077,2.76-18.893c11.586-15.972-8.664-36.567-11.547-54.205c-7.594-46.448,22.148-86.255,14.452-132.713
			c-0.285-1.699,0.325-3.547,0.518-5.327c-13.643,0.712-8.924,13.564-18.676,19.967c-5.037,3.309-10.39,7.397-10.255,14.785
			c1.64,14.834-1.068,29.537-2.268,44.15c-4.718,57.555-23.625,114.577-34.956,171.212c-0.251,1.269-0.674,2.553-0.932,3.681
			c0.043,0.955,0.142,1.908,0.166,2.863c-0.528-0.626-0.442-1.653-0.166-2.863C404.106,450.079,432.272,572.606,436.268,559.882z"/>
		<path fill-rule="evenodd" clip-rule="evenodd" fill="#D14C43" d="M415.403,274.398c2.625-7.795,1.533-4.226,5.749-13.306
			c-1.162-2.499,3.492-3.503,5.518-3.485c12.713,0.116,31.429-11.801,44.133-11.398c5.303,0.169,3.138-1.521,1.809,3.578
			c-1.119,4.304,1.669,10.719-7.496,13.246C461.521,264.023,417.729,278.542,415.403,274.398z"/>
		<path fill-rule="evenodd" clip-rule="evenodd" fill="#D14C43" d="M218.262,759.148c-1.101,7.221-4.148,14.08-3.388,21.666
			c0.627,6.242-1.972,9.453-7.875,11.227c-8.096,2.434-1.085,4.031-9.366,5.219c-11.137,2.77-22.273,4.435-33.413,0.017
			c-7.862-2.795-7.406-9.661-6.015-16.032c2.073-9.497,11.552-183.845,10.807-192.29c-7.061-80.073-1.25-42.523-3.928-89.396
			c-3.577-62.6-3.892-101.556,6.184-132.807c4.073-12.639,7.852-25.253,7.11-38.983c-0.652-12.034,4.562-23.112,5.783-34.912
			c2.586-25.009-5.312-49.019-15.013-71.951c-2.618-6.189-6.916-10.802-13.092-12.83c-7.293-2.394-11.469-7.796-13.73-15.283
			c-24.873-10.021-50.566-17.909-73.717-32.427c-2.121-1.329-4.103-2.972-5.992-4.67c-12.574-11.302-17.412-16.434,0.109-29.464
			c18.754-13.944,38.789-18.807,61.041-14.786c3.229,0.582,6.548,0.575,9.783,0.838c1.225-3.934-2.302-5.385-2.721-8.23
			c-0.711-4.831-0.081-9.205,1.581-13.849c1.815-5.083,9.642,0.165,9.163-6.36c-0.38-5.193-1.684-9.572,5.397-9.494
			c1.179,0.013,3.035-1.92,3.677-0.59c4.634,9.603,17.766,12.736,17.275,26.259c-0.081,2.267,0.923,4.579,1.427,6.871
			c2.61,8.373,1.671,16.124-3.504,23.134c-0.901,1.116-3.098,0.493-3.081,2.71c17.779,1.087,26.836-1.904,44.489-0.967
			c14.083-4.026,14.09-16.419,20.396-28.658c3.786-7.349,0.088-15.038-2.239-22.194c-3.333-10.262-7.75-19.973-8.82-31.156
			c-3.323-34.75,27.188-54.411,51.745-48.813c27.099,6.176,33.434,18.083,40.201,43.151c0.291,1.08,0.283,2.521,0.076,3.414
			c-2.144,9.226-2.673,11.191,1.27,16.411c2.947,3.903,1.96,6.723-0.884,10.625c-2.152,2.955-1.89,3.845-1.908,6.382
			c-0.048,6.526-0.304,12.125,0.085,18.625c0.438,7.299-3.329,9.334-9.052,9.434c-2.763,0.047-5.542-0.348-8.288-0.15
			c-3.797,0.274-9.458,0.962-9.811,5.352c-0.393,4.883-4.043,11.697,3.02,15.438c1.925,1.019,2.498,3.525,1.887,5.469
			c-2.31,7.349,2.281,10.838,6.668,14.44c4.365,3.583,9.113,4.802,13.225,8.681c7.57,7.145,16.977,2.171,25.223,4.973
			c12.688,4.311,27.092-5.445,38.623,2.816c7.434,5.325,72.566,41.117,78.919,42.679c7.698,1.89,15.71,2.896,22.212,8.433
			c0.24,6.179-4.708,5.832-8.035,6.847c-17.648,5.38-35.869,6.386-54.041,8.113c-21.924,2.085-43.082,12.133-63.001,3.356
			c-22.037-0.259-21.731,5.039-23.348,22.246c-0.579,6.162-2.134,19.124-1.165,25.41c0.123,0.999,0.033,1.98-0.205,2.949
			c-1.676,3.688-3.896,7.112-3.713,11.578c0.85,20.797-8.971,41.453-8.538,62.259c0.2,9.601-8.171,18.859-5.412,28.022
			c2.116,7.025,2.35,14.752,4.167,21.646c3.195,12.114,6.281,24.005,8.022,36.559c1.027,7.407-7.114,96.116-9.669,127.233
			c-2.502,23.879-3.704,43.896-8.963,65.572c-3.552,14.639-5.549,29.366-6.524,44.239c-0.364,5.561-4.735,37.123,0.476,43.668
			c2.366,2.971,10.285,7.2,13.026,14.611c4.921,13.297,4.737,15.448,4.675,29.817c-0.022,4.917,1.369,12.24-7.029,13.839
			c-1.394,0.347-2.193-0.675-4.052-0.159c-9.181-7.203-19.987-8.149-26.85-18.425c-3.555-4.08-6.606-13.144-23.009-12.834
			c-19.557,0.369-24.504-9.863-22.25-28.539c1.888-15.637,5.914-31.496,1.721-47.072L218.262,759.148z"/>
		<path fill-rule="evenodd" clip-rule="evenodd" fill="#3E456D" d="M333.455,164.517c14.344-4.172,7.836-6.065,16.454-7.319
			c13.259-1.932,7.067,0.861,18.21-2.5c13.775-4.156,11.615-4.247,15.109-13.343c5.361-13.97,4.607-13.104-5.566-23.128
			c-2.492-2.453-5.047-4.841-7.628-7.195c-3.55-3.245-2.646-6.411-2.125-10.789c1.065-8.959,9.186-16.668,6.217-26.846
			c-0.629-2.161,0.776-3.832,2.342-3.82c5.546,0.049,8.096-3.475,12.952-6.776c3.715-2.526,2.418-6.521,5.354-8.728
			c7.755-7.995,16.59-15.074,27.825-16.274c23.781-0.779,44.279,8.981,50.354,32.8c2.121,8.309,1.164,16.669-1.912,24.547
			c-2.428,6.216-5.535,10.24-3.976,19.062c-1.075,6.877-6.825,19.891-28.636,27.197c-2.686,10.866-0.014,19.861,6.875,28.09
			c4.83,5.772,8.502,22.337,18.771,24.633c7.735,1.729,16.673,12.31,24.983,14.283c3.024,5.392-3.406,6.735-5.909,9.152
			c-13.271,12.818-28.064-3.565-55.297-12.521c-26.938-5.222-48.698-36.659-70.43-35.415L333.455,164.517z"/>
	</g>
</g>
<g id="Layer_19">
</g>
<g id="Layer_20">
</g>
<g id="Layer_21">
</g>
<g id="Layer_22">
</g>
<g id="Layer_23">
</g>
<g id="Layer_10_copy">
</g>
<g id="Layer_11_copy">
</g>
<g id="Layer_12_copy">
</g>
<g id="Layer_13_copy">
</g>
<g id="Layer_14_copy">
	<g>
		<path fill-rule="evenodd" clip-rule="evenodd" fill="#D14C43" d="M432.704,1347.824c2.477-22.088-3.617-44.207-1.559-66.363
			l2.897-38.4c-2.136-47.975,7.969-50.818,1.375-105.555c-2.397-5.627-4.253-11.07-2.791-17.01c0.896-3.666,1.505-7.424,2.197-11.15
			c3.6-19.381,0.438-47.428,4.188-66.777c0.933-4.82,7.26-10.473,7.964-12.076c7.713-17.533,8.462-26.564,12.043-48.422
			c-4.212-19.771-6.211-18.441-9.985-22.707c-10.044-4.088-5.105-14.727-43.39-20.98c-2.264-2.586-18.661-18.145-20.607-24.104
			c-5.006-12.221-4.725-20.172,3.088-30.236c10.51-13.537,8.984-28.404,8.575-43.561c-0.163-6.006,0.135-12.26-3.044-17.838
			c-15.189-26.658-48.705-29.906-70.043-9.066c-6.331,6.186-6.898,14.75-7.965,22.852c-1.666,12.678-4.107,25.559-1.38,38.299
			c2.818,13.156,6.708,26.133,10.894,38.936c2.088,6.385,0.889,10.604-4.137,14.209c-12.47,8.932-27.723,27.238-41.499,33.014
			c-23.435,9.824-31.812,19.916-48.549,26.848c-3.046,1.262-24.835-6.988-34.72-4.961c-0.718-0.201-1.648-6.186-2.826-5.824
			c-5.867,1.797-14.936,0.324-19.807-7.398c-3.197-5.066-6.934,0.311-4.159,4.477c2.03,3.057,3.214,6.93,1.611,9.998
			c-1.573,3-4.153,7.654-7.37,5.158c-6.957-5.398-7.937,2.461-14.752-1.26c-2.383-1.303-6.44-3.35-6.953,0.279
			c-0.861,6.111,1.506,12.666,4.089,18.498c1.819,4.115,4.827,6.84,8.351,6.373c7.617-1.012,15.309-1.762,22.773-3.438
			c0.164-0.037,0.33-0.082,0.496-0.131c0.103,0.027,0.204,0.045,0.297,0.047c28.443,1.787,18.89,17.479,30.653,17.836
			c6.117,0.678,30.55,18.135,36.64,17.709c11.795-0.824,18.308-7.957,24.732-1.953c11.344,10.598,16.704,14.867,16.906,29.965
			c0.023,1.779,1.886,5.279,2.223,7.031c3.232,16.701,5.292,33.682,7.479,50.504c2.417,18.564,4.911,37.15,7.022,55.758
			c1.512,13.297,5.068,26.697,2.895,40.053l-0.062,3.336c-9.22,20.301,9.87,106.574,10.214,108.785
			c3.186,20.463,1.426,25.5,4.857,45.568c0.667,10.26,5.335,35.049,2.451,45.748c-4.22,15.646-5.204,60.846-6.174,112.328
			c3.8,13.613,5.423,27.625-7.275,36.896c-2.854,2.078-10.175,4.436-12.45,7.309c-6.256,7.9-1.963,10.43,8.14,12.324
			c15.323,2.881,30.585-0.188,45.89,0.301c10.156,0.318,14.074-3.596,11.481-13.848c-2.562-10.123-1.601-18.986,1.859-28.193
			c3.044-8.102,16.939-49.904,22.117-49.803c3.763-0.713,11.308,2.877,10.54,12.154c-1.162,14.068-8.518,14.92-9.055,33.523
			c-1.255,5.102-1.329,8.309,1.158,13.414c11.938,3.367,9.784,3.934,20.901-5.963c1.653-1.471,34.931-23.32,36.174-29.254
			c2.007-4.748,1.281-3.527-1.639-18.338c-0.523-3.361,11.233-8.518,9.586-11.357
			C435.991,1448.078,430.253,1369.689,432.704,1347.824z"/>
	</g>
</g>
<g id="Layer_15_copy">
</g>
<g id="Layer_16_copy">
</g>
<g id="Layer_17_copy">
</g>
<g id="Layer_18_copy">
</g>
<g id="Layer_19_copy">
</g>
<g id="Layer_20_copy">
</g>
<g id="Layer_21_copy">
</g>
<g id="Layer_22_copy">
</g>
<g id="Layer_23_copy">
</g>
<g id="Layer_24">
</g>
<g id="Layer_25">
</g>
<g id="Layer_26">
</g>
<g id="Layer_27">
</g>
<g id="Layer_0-6_copy">
</g>
<g id="Layer_0-5_copy">
</g>
<g id="Layer_0-4_copy">
</g>
<g id="Layer_0-3_copy">
</g>
<g id="Layer_0-2_copy">
</g>
<g id="Layer_0-1_copy">
</g>
<g id="Layer_0-0_copy">
</g>
</svg>
