<?xml version="1.0" encoding="utf-8"?>
<!-- Generator: Adobe Illustrator 16.0.0, SVG Export Plug-In . SVG Version: 6.00 Build 0)  -->
<!DOCTYPE svg PUBLIC "-//W3C//DTD SVG 1.1//EN" "http://www.w3.org/Graphics/SVG/1.1/DTD/svg11.dtd">
<svg version="1.1" xmlns="http://www.w3.org/2000/svg" xmlns:xlink="http://www.w3.org/1999/xlink" x="0px" y="0px" width="600px"
	 height="800px" viewBox="0 0 600 800" enable-background="new 0 0 600 800" xml:space="preserve">
<g id="Layer_0-0">
</g>
<g id="Layer_0-1">
</g>
<g id="Layer_0-2">
</g>
<g id="Layer_0-3">
</g>
<g id="Layer_0-4">
</g>
<g id="Layer_0-5">
</g>
<g id="Layer_0-6">
</g>
<g id="Layer_1">
</g>
<g id="Layer_2">
</g>
<g id="Layer_3">
</g>
<g id="Layer_4">
</g>
<g id="Layer_5">
</g>
<g id="Layer_6">
</g>
<g id="Layer_7">
</g>
<g id="Layer_8">
</g>
<g id="Layer_9">
</g>
<g id="Layer_10">
</g>
<g id="Layer_11">
</g>
<g id="Layer_12">
</g>
<g id="Layer_13">
</g>
<g id="Layer_14">
</g>
<g id="Layer_15">
</g>
<g id="Layer_16">
</g>
<g id="Layer_17_1_">
</g>
<g id="Layer_18_1_">
</g>
<g id="Layer_19">
</g>
<g id="Layer_20">
</g>
<g id="Layer_21">
</g>
<g id="Layer_22">
</g>
<g id="Layer_23">
</g>
<g id="Layer_10_copy">
</g>
<g id="Layer_11_copy">
</g>
<g id="Layer_12_copy">
</g>
<g id="Layer_13_copy">
</g>
<g id="Layer_14_copy">
</g>
<g id="Layer_15_copy">
	<g>
		<path fill-rule="evenodd" clip-rule="evenodd" fill="#D14C43" d="M455.129-306.006c-4.428,26.752-0.562,14.325-4.297,41.178
			c-2.816,20.245-2.125,40.777-1.076,61.219c0.18,3.512,2.049,6.11,3.66,8.787c8.441,14.035,15.387,29.118,23.723,42.945
			c7.494,12.432,23.789,73.617,14.781,71.935c-5.258-0.981-0.014,2.308-1.074,7.29c-1.07,5.029-2.502,10.273-2.117,15.285
			c1.086,14.116-6.955,22.268-16.771,29.1c-3.764,2.619-8.691,4.281-13.26,1.034c-4.549-3.233-6.6-7.776-5.139-13.505
			c2.545-9.981,5.082-19.969,7.918-29.865c1.768-6.168,0.08-9.558-6.236-9.738c-18.58-0.529-19.193-0.988-25.205-20.688
			c-1.361-0.568-3.295-2.869-3.588,0.764c-0.244,3.044,0.131,6.142,0.234,9.215c-0.744,2.781-0.85,6.026-2.346,8.26
			c-4.807,7.164-4.342,14.444-2.018,22.253c1.926,6.476,3.885,13.027,3.504,19.973c-0.611,4.358-1.223,8.724-1.834,13.088
			c-1.877,2.115-4.834,3.906-4.516,7.051c1.215,12.093-6.814,12.199-14.301,11.403c-4.984-0.531-8.963,0.73-13.422,2.416
			c-14.166,5.349-28.689,8.76-43.857,5.05c-2.902-0.71-6.387-0.991-6.613-5.474c-0.189-3.753,1.605-6.236,4.613-7.73
			c4.748-2.363,8.715-5.816,12.865-9.076c3.689-2.896,6.207-5.469,4.561-11.104c-1.945-6.651,3.568-10.753,7.258-14.621
			c3.727-3.909,5.301-7.743,4.484-12.93c5.279-12.851,6.828-26.062,3.695-39.769c-4.086-17.883-1.08-36.187-2.969-54.294
			c-2.029-19.411-6.869-38.056-10.791-56.964c-13.197-63.63-23.059-127.691-24.146-192.958c-0.383-22.933-1.562-45.871-1.246-68.79
			c0.166-12.195,2.102-24.491,4.42-36.496c2.664-13.813,2.463-27.722,3.268-41.613c0.33-5.674-0.719-8.918-7.242-7.066
			c-2.953,0.837-6.201,0.514-9.311,0.779c-6.627,0.566-9.455-2.877-10.355-9.473c-2.373-17.399-2.527-16.28-19.01-16.646
			c-9.938-0.221-19.865-1.349-29.783-2.219c-4.588-0.402-7.494-3.63-8.459-7.854c-1.363-5.99-2.229-12.598,0.832-18.029
			c1.814-3.226,6.877-2.122,9.455-0.358c7.379,5.046,17.078,2.862,24.094,9.487c3.244,3.064,7.996-0.619,10.943-3.015
			c3.014-2.449,1.582-6.523,0.01-9.824c-2.143-4.501-6.234-6.933-9.877-9.806c-3.463-2.735-3.51-6.806-1.445-9.469
			c2.855-3.686,4.5,1.102,6.484,2.479c4.99,3.469,9.135,8.22,11.523,13.649c3.641,8.275,9.238,8.916,17.205,8.647
			c17.816-0.604,19.371-2.345,15.154-20.968c-0.775-3.414-1.607-4.245-5.449-6.869c-1.545-1.056-3.391-1.674-4.939-2.738
			c-7.379-5.07-8.443-9.846-1.186-15.421c4.041-3.105,6.504-7.266,10.787-10.532c6.902-6.54,15.871-7.538,24.941-11.833
			c9.697-4.225,19.393-12.535,31.445-16.689c4.305-1.484-0.209-6.235,4.275-9.181c4.092-2.689-4.924-5.386-6.184-18.422
			c0.023-3.232-2.096-6.513-2.477-9.697c-2.639-22.052,8.234-34.465,17.439-52.705c11.461-11.391,40.4-20.83,53.025-2.644
			c5.527,7.962,9.689-1.544,10.879,20.894c-2.574,20.226-7.004,35.051-19.707,48.427c-9.643,10.155-5.387,22.102-3.338,33.019
			c3.426,18.224,10.949,35.305,13.568,54.009c2.852,20.362,0.271,72.688-7.959,90.732c-15.061,51.679-10.879,38.501-9.348,58.615
			c0.926,12.189,2.346,22.37,6.887,33.523c10.191,25.037,4.781,58.667,5.627,86.194L455.129-306.006z"/>
	</g>
</g>
<g id="Layer_16_copy">
</g>
<g id="Layer_17_copy">
</g>
<g id="Layer_18_copy">
</g>
<g id="Layer_19_copy">
</g>
<g id="Layer_20_copy">
</g>
<g id="Layer_21_copy">
</g>
<g id="Layer_22_copy">
</g>
<g id="Layer_23_copy">
</g>
<g id="Layer_24">
</g>
<g id="Layer_25">
	<g>
		<path fill-rule="evenodd" clip-rule="evenodd" fill="#3E456D" d="M526.516,81.204c-8.166-0.938-17.314,0.332-18.213-15.664
			c-6.018,14.594-11.494,24.918-11.16,36.555c0.213,7.441-2.029,12.912-7.193,17.625c-16.283,14.85-32.32,30.051-53.553,37.91
			c-12.936,4.883-22.156,17.85-36.305,19.074c-23.32,2.023-46.287,8.979-70.221,4.383c-9.914-1.902-20.129-3.812-30.465-3.211
			c-15.568,0.906-28.918-3.098-38.621-16.463c-3.643-5.016-9.551-7.914-14.463-11.729c-6.688-15.16-4.861-19.781,9.17-25.779
			c6.73-2.879,17.938-2.893,13.908-15.127c-2.65-8.041,0.459-20.863-4.316-23.512c-14.396-7.992-15.279-23.598-23.971-34.453
			c-11.396-14.232-20.27-18.344-37.107-11.391c-13.646,5.635-27.436,10.02-38.967,21.689c-19.41,19.65-21.4,24.775-4.08,45.936
			c4.365,5.332,9.332,9.957,7.148,18.697c-1.619,6.477,12.422,19.912,16.771,17.287c3.615-2.18,5.766-5.398,9.547-0.461
			c3.604,4.703,1.549,8.77-1.396,12.068c-5.465,6.123-11.91,10.105-20.998,9.256c-36.303-3.387-71.357,10.793-107.793,7.943
			c-7.371-0.578-14.828,4.721-16.426,13.377c-1.773,9.625,5.688,13.523,12.73,16.484c15.305,6.434,31.371,10.266,47.844,12.357
			c2.539-5.17,6.104-7.705,12.439-7.967c17.83-0.742,33.678,2.086,45.564,17.262c9.189,11.73,20.828,18.531,36.83,18.479
			c12.592-0.041,18.996,8.256,20.791,21.986c0.492,3.764,2.883,6.479,5.102,9.273c4.203,5.293,7.666,11.016,10.121,17.316
			c1.51,3.871,2.588,8.209-0.764,11.32c-4.016,3.732-7.422-0.59-10.795-2.172c-8.729-4.094-13.229-13.371-21.443-18.039
			c-4.756-2.701-9.869-9.199-15.301-0.686c-0.098,3.627,0.631,7.217,2.121,10.439c7.545,16.293,5.676,31.623-2.096,47.629
			c-10.113,20.826-13.633,43.438-13.365,66.578c0.086,7.277-0.832,14.176-4.953,20.523c-13.781,21.223-24.055,43.975-28.934,67.523
			c0.084,1.238,0.008,2.266-0.613,2.801c0.176-0.938,0.42-1.863,0.613-2.801c-0.078-1.154-0.295-2.488-0.346-3.781
			c-2.34-57.709-2.227-115.422,2.107-173.008c1.102-14.621,0.723-29.566,4.66-43.963c1.289-7.275-3.359-12.15-7.818-16.205
			c-8.631-7.848-11.838-21.369-25.203-24.203c-0.088,1.787,0.227,3.707-0.32,5.344c-14.861,44.684,8.293,88.648-6.467,133.34
			c-5.604,16.971-28.822,34.146-19.875,51.734c3.258,6.402,3.438,12.549-0.227,19.09c-12.213,21.814-2.244,44.855-16.244,65.648
			c-4.111,6.109-2.082,7.717,3.4,10.777c7.115,3.973,15.744,8.348,19.299,14.938c7.379,13.68,0.691,24.67,2.986,40.166
			c1.957,13.193-4.084,26.6-20.154,40.807c6.012,1.676,10.168,3.324,14.473,3.934c8.043,1.141,8.879,5.262,4.523,10.824
			c-11.758,15.002,11.346,9.85,19.459,25.025c3.158,5.91,5.469,11.795,2.764,19.102c-9.848,26.59-13.312,54.525-17.09,82.457
			c-1.191,8.82,2.096,10.891,9.072,12.701c8.145,2.115,15.873-5.285,21.615-3.545c18.215,5.52,16.775,25.494,35.236,27.555
			c17.645,1.967,35.209,4.67,52.791,7.18c23.664,3.375,26.91-9.6,50.354-9.537c16.84,0.045,24.637-5.375,41.527-5.793
			c11.689-0.289,16.057-12.785,27.01-12.73c0.568,0.004,1.75-3.102,1.635-4.686c-0.748-10.256,6.264-11.189,13.787-12.391
			c7.369-1.178,15.051,1.365,22.213-3.15c12.264-7.727,10.455-27.537,13.18-12.533c0.436,2.391,5.312-10.258,9.877-10.318
			c3.236-4.029,5.23-19.332,3.602-35.5c-2.018-19.98,14.779-39.836,12.086-59.748c-0.23-10.693-3.191-21.068-3.74-31.719
			c-3.979-13.186-6.826-26.74-12.281-39.443c-3.625-8.438-2.705-14.406,6.918-17.695c9.18-3.137,12.945-10.193,12.811-19.689
			c-0.301-21.311-15.248-42.457-17.998-63.85c0.236-15.207-0.971-30.602,0.961-45.594c7.998-62.043,64.713-123.887,65.123-186.666
			c0.041-6.533,0.328-13.596,7.934-16.873c-2.355-21.512-1.279-41.859,16.869-57.539c7.43-6.422,14.154-13.703,20.883-20.895
			c3.713-3.969,6.215-7.459,3.316-14.092c-3.385-7.746,0.82-15.256,8.064-19.166c5.889-3.18,9.855-7.404,12.77-13.074
			C536.49,81.54,531.162,81.735,526.516,81.204z M389.693,290.198c-13.35,15.682-26.836,31.201-41.43,45.729
			c-6.342,6.314-12.951,12.404-20.986,16.572c-15.166,7.863-21.143,4.928-24.338-11.74c-7.531-39.27-2.836-77.141,12.188-114.088
			c2.156-5.309,5.301-5.049,9.145-5.381c27.613-2.391,55.195-5.453,82.857-6.793c12.459-0.604,22.369-4.238,31.26-12.625
			c8.408-7.926,17.389-15.246,27.482-21.822C458.875,194.493,394.996,283.968,389.693,290.198z"/>
		<path fill-rule="evenodd" clip-rule="evenodd" fill="#D14C43" d="M436.396,157.63c-12.473,13.031-26.521,21.082-45.299,24.559
			c-34.105,6.312-67.439,0.465-101.094-0.805c-21.633-0.814-32.598-16.342-43.682-31.699c9.549-3.605,18.838-9,28.705-10.449
			c21.062-3.086,27.496-18.01,28.842-35.133c0.689-8.789-10.646-18.348-14.35-27.098c-3.299-7.793-8.125-15.172-8.838-23.668
			c-1.357-16.18,0.83-32.4,15.137-42.129c15.193-10.328,31.596-14.811,48.982-7.861c15.939,6.369,19.016,23.441,23.572,38.6
			c4.18,13.906,0.051,28.496-0.895,43.016c-0.607,9.371-0.436,10.498-7.613,14.459c-5.887,3.248-6.111,4.891-2.492,22.5
			c4.004,19.482,18.691,18.148,30.795,21.414C404.381,147.712,421.299,149.485,436.396,157.63z"/>
		<path fill-rule="evenodd" clip-rule="evenodd" fill="#D14C43" d="M108.387,214.058c-2.65-7.881-1.574-11.541,8.484-11.664
			c22.312-0.268,42.43,2.5,56.273,23.049c5.93,8.801,14.717,13.504,26.422,11.828c14.699-2.109,21.258,11.195,31.201,18.059
			c0.627,0.434,1.289,2.078,1.127,2.215c-12.48,10.682,4.088,13.777,5.635,20.789c1.115,5.059,5.68,9.418,6.527,14.455
			c0.787,4.686,0.195,11.037-2.525,14.506c-3.268,4.168-8.264-1.643-11.861-2.453c-9.361-2.105-13.227-9.445-19.113-15.066
			c-5.398-5.152-10.609-11.883-18.736-12.957c-6.471,0.867-12.02,2.32-18.371,4.328c-14.543,4.602-17.088,3.137-23.82-11.619
			c-10.84-12.389-21.682-24.775-32.523-37.162C111.965,227.327,108.195,221.634,108.387,214.058z"/>
		<path fill-rule="evenodd" clip-rule="evenodd" fill="#D14C43" d="M477.344,211.524c-1.871-0.867-5.773-0.285-5.336-2.746
			c3.232-18.133-1.09-38.416,15.117-52.969c9.633-8.652,18.84-17.783,28.098-26.844c1.584-1.547,4.775-2.775,2.48-6.23
			c-7.537-11.344-3.605-22.289,10.461-27.314c4.971-1.775,2.562-12.146,11.082-8.662c15.934,5.086,16.666,7.439,6.387,19.812
			c-2.273,2.738-5,5.27-7.191,7.912c-9.354,11.281-6.666,20.619-0.986,32.373c10.834,22.418-0.305,47.031-23.824,56.652
			C501.971,208.278,489.611,209.646,477.344,211.524z"/>
		<path fill-rule="evenodd" clip-rule="evenodd" fill="#D14C43" d="M438.389,201.872c-8.891,8.387-18.801,12.021-31.26,12.625
			c-27.662,1.34-55.244,4.402-82.857,6.793c-3.844,0.332-6.988,0.072-9.145,5.381c-15.023,36.947-19.719,74.818-12.188,114.088
			c3.195,16.668,9.172,19.604,24.338,11.74c8.035-4.168,14.645-10.258,20.986-16.572c14.594-14.527,28.08-30.047,41.43-45.729
			c5.303-6.23,9.461-12.592,11.799-20.287c0.717-5.254,1.221-10.547,2.191-15.754c5.658-30.383,5.695-30.375,35.484-34.727
			c12.73-10.605,19.707-24.938,26.703-39.381C455.777,186.626,446.797,193.946,438.389,201.872z"/>
		<path fill-rule="evenodd" clip-rule="evenodd" fill="#3E456D" d="M304.869,751.485c12.264-7.727,16.455-13.535,19.18,1.469
			c0.436,2.391-0.688,5.742,3.877,5.682c3.236-4.029-1.262-10.217,5.57-11.957c7.125-1.812,10.887,4.951,15.811,8.52
			c0.715,0.52,1.369,1.178,1.91,1.881c13.465,17.602,30.783,17.326,49.203,13.652c3.279-0.654,4.863,1.605,5.1-2.684
			c0.262-4.707-3.396-6.783-6.615-7.965c-13.361-4.914-28.037-11.691-32.146-24.562c-4.781-14.99-13.6-26.219-15.229-42.387"/>
		<path fill-rule="evenodd" clip-rule="evenodd" fill="#3E456D" d="M143.705,493.524c-0.078-1.154-0.295-2.488-0.346-3.781
			c-2.34-57.709,2.773-165.422,7.107-223.008c1.102-14.621,0.723-39.566,4.66-53.963c1.289-7.275,1.641-12.15-2.818-16.205
			c-8.631-7.848-14.395-0.165-15.523,1.141c-46.826,54.166-11.707,128.648-26.467,173.34c-5.604,16.971-28.822,34.146-19.875,51.734
			c3.258,6.402,3.438,12.549-0.227,19.09c-12.213,21.814-2.244,44.855-16.244,65.648c-4.111,6.109-2.082,7.717,3.4,10.777
			c7.115,3.973,15.744,8.348,19.299,14.938C104.051,546.915,143.512,494.462,143.705,493.524z"/>
	</g>
</g>
<g id="Layer_26">
</g>
<g id="Layer_27">
</g>
<g id="Layer_0-6_copy">
</g>
<g id="Layer_0-5_copy">
</g>
<g id="Layer_0-4_copy">
</g>
<g id="Layer_0-3_copy">
</g>
<g id="Layer_0-2_copy">
</g>
<g id="Layer_0-1_copy">
</g>
<g id="Layer_0-0_copy">
</g>
</svg>
