<?xml version="1.0" encoding="utf-8"?>
<!-- Generator: Adobe Illustrator 16.0.0, SVG Export Plug-In . SVG Version: 6.00 Build 0)  -->
<!DOCTYPE svg PUBLIC "-//W3C//DTD SVG 1.1//EN" "http://www.w3.org/Graphics/SVG/1.1/DTD/svg11.dtd">
<svg version="1.1" xmlns="http://www.w3.org/2000/svg" xmlns:xlink="http://www.w3.org/1999/xlink" x="0px" y="0px" width="600px"
	 height="800px" viewBox="0 0 600 800" enable-background="new 0 0 600 800" xml:space="preserve">
<g id="Layer_0-0">
</g>
<g id="Layer_0-1">
</g>
<g id="Layer_0-2">
</g>
<g id="Layer_0-3">
</g>
<g id="Layer_0-4">
</g>
<g id="Layer_0-5">
</g>
<g id="Layer_0-6">
</g>
<g id="Layer_1">
</g>
<g id="Layer_2">
</g>
<g id="Layer_3">
</g>
<g id="Layer_4">
</g>
<g id="Layer_5">
</g>
<g id="Layer_6">
</g>
<g id="Layer_7">
</g>
<g id="Layer_8">
</g>
<g id="Layer_9">
</g>
<g id="Layer_10">
</g>
<g id="Layer_11">
</g>
<g id="Layer_12">
</g>
<g id="Layer_13">
</g>
<g id="Layer_14">
</g>
<g id="Layer_15">
</g>
<g id="Layer_16">
</g>
<g id="Layer_17_1_">
</g>
<g id="Layer_18_1_">
</g>
<g id="Layer_19">
</g>
<g id="Layer_20">
</g>
<g id="Layer_21">
	<g>
		<path fill-rule="evenodd" clip-rule="evenodd" fill="#D14C43" d="M383.132,216.879c-9.652,9.102-20.408,13.049-33.934,13.703
			c-30.031,1.455-59.973,4.779-89.947,7.375c-4.174,0.361-7.588,0.078-9.93,5.842c-16.307,40.109-21.404,81.221-13.229,123.852
			c3.469,18.094,8.73,34.473,25.195,25.936c8.721-4.523,18.566,7.344,25.451,0.488c15.844-15.77,36.414,18.006,50.906,0.984
			c5.756-6.764,2.895-95.965,5.434-104.32c0.777-5.703,1.324-11.451,2.379-17.104c6.143-32.979,6.182-32.973,38.521-37.695
			c23.662-6,54.572-11.205,62.166-26.885C453.653,174.791,392.261,208.273,383.132,216.879z"/>
		<path fill-rule="evenodd" clip-rule="evenodd" fill="#D14C43" d="M368.243,170.809c59.465,38.734-4.828,32.516-25.211,36.287
			c-37.025,6.852-140.961,73.635-177.494,72.256c-23.484-0.885-62.838-49.695-64.361-88.898c5.848-6.48,81.176-30.211,91.889-31.783
			c22.865-3.35,29.848-29.34,31.309-47.93c0.75-9.539-14.834-19.918-18.855-29.414c-3.58-8.463-5.883-15.492-6.656-24.718
			c-1.473-17.563,0.902-37.129,16.432-47.688c16.494-11.213,30.598-11.186,49.471-3.641c12.797,5.114,19.643,17.384,22.773,30.997
			c1.736,7.563-1.418,8.249,2.051,13.841c8.309,13.397,0.447,9.337-0.758,40.824c-0.389,10.188-3.984,10.17-6.734,18.635
			c-2.262,6.967-2.59,1.393,1.34,20.508c4.346,21.15,19.311,19.701,32.449,23.248C333.489,158.084,351.853,161.965,368.243,170.809z
			"/>
		<path fill-rule="evenodd" clip-rule="evenodd" fill="#D14C43" d="M453.548,204.809c-1.777-1.361-6.477,0.238-5.426-2.266
			c7.729-18.439-13.113-14.684,7.51-26.25c12.26-6.877,24.18-14.365,36.137-21.762c2.045-1.266,5.717-1.809,4.107-6.014
			c-5.289-13.807,1.475-24.465,17.566-26.449c5.688-0.701,5.6-12.26,13.795-6.545c15.672,9.174,15.891,11.84,2.062,22.506
			c-3.059,2.357-6.547,4.393-9.496,6.672c-12.586,9.73-20.904,15.295-25.928,30.205c-15.918,27.045,0.74,9.316-22.172,26.059
			C463.272,203.951,466.991,205.734,453.548,204.809z"/>
		<path fill-rule="evenodd" clip-rule="evenodd" fill="#D14C43" d="M241.046,736.025c-3.998,6.006-11.957,52.326-4.232,55.828
			c12.227,6.34,17.92,1.287,35.525-19.994L241.046,736.025z"/>
		<path fill-rule="evenodd" clip-rule="evenodd" fill="#3E456D" d="M516.005,105.463c-8.865-1.018-18.797,12.111-19.771-5.258
			c-6.533,15.844-12.479,15.305-12.115,27.938c0.232,8.078-2.205,14.018-7.811,19.135c-17.676,16.119-15.504,13.039-38.553,21.572
			c-14.043,5.301-23.074,19.377-38.434,20.707c-25.314,2.195-15.982,9.746-41.963,4.758c-10.764-2.066-21.854-4.141-33.072-3.486
			c-16.902,0.982-31.393-3.363-41.928-17.871c-3.953-5.445-13.91-12.883-14.723-19.584c-1.262-10.398-0.021-11,5.061-17.219
			c5.426-6.641,4.691-4.438,7.268-18.379c1.67-9.039,3.422-19.602,3.146-25.525c-0.828-17.803-1.904-25.617-11.338-37.399
			c-12.373-15.452-27.18-18.093-46.27-15.646c-15.896,2.039-19.227,7.118-30.445,20.951c-7.092,8.746-11.553,36.227-8.346,50.846
			c1.592,7.254,2.816,11.904,6.16,21.041c3.574,9.766,18.133,17.521,20.381,20.457c3.912,5.107-1.256,9.521-4.453,13.104
			c-5.932,6.646-12.93,10.971-22.795,10.047c-39.41-3.676-67.678-17.652-107.232-20.746c-8.004-0.627-16.1,5.125-17.832,14.521
			c-1.928,10.449,6.174,14.68,13.82,17.896c16.613,6.984,23.289,20.934,41.172,23.203c10.697-0.492,7.795-3.438,14.482-1.797
			c59.846,14.684,39.035,23.043,49.467,36.363c9.977,12.734,23.727,31.617,17.83,40.857c-0.105,3.939,10.371,24.195,11.113,27.975
			c3.625,18.477,1.994,34.141-2.273,51.707c-5.936,24.422-1.605,47.697-4.719,72.273c-0.994,7.84-10.48,29.217-13.209,36.965
			c-9.131,25.912-8.494,33.055-13.791,58.619c0.092,1.344,0.008,2.459-0.664,3.039c0.191-1.018,0.457-2.023,0.664-3.039
			c-0.084-1.254-0.318-2.701-0.377-4.107c-2.537-62.646,17.166-125.295,21.873-187.811c1.195-15.873-9.008-32.096-4.732-47.725
			c1.398-7.898-3.648-13.191-8.488-17.59c-9.371-8.52-1.104-32.99-15.613-36.066c-0.125,2.6-1.311,21.676-1.324,25.383
			c-0.217,55.018,11.531,62.848,6.549,124.189c-1.572,19.338-8.723,13.059-6.932,56.162c0.322,7.789,3.73,13.623-0.244,20.721
			c-13.262,23.684-5.553,49.674-20.752,72.248c-4.463,6.631-0.756,30.551,3.104,37.703c8.014,14.852-8.863,26.783-6.369,43.604
			c2.123,14.324,5.977,45.949,10.648,46.611c8.732,1.24-4.486,24.576,4.322,41.051c3.428,6.418,3.598,12.299,3,20.736
			c-2.479,35.094,5.355,5.23-2.889,30.77c-2.969,9.193,2.275,2.033,9.85,3.998c8.84,2.297-2.35,15.803,3.885,17.691
			c19.775,5.992,38.258,27.369,37.449,7.219c-0.396-9.969,10.75-7.803,37.73-3.953c25.691,3.664,4.742,2.307,30.193,2.375
			c18.277,0.047,26.744,13.744,45.08,13.291c12.691-0.316,45.826-23.67,57.715-23.611c0.617,0.004,9.842-5.043,11.564-5.086
			c12.676-0.326,6.801,7.436,14.967,6.131c8-1.279,6.549,1.48,14.324-3.42c13.314-8.391,21.699,2.545,29.121,0.654
			c7.732-1.967,11.814-14.207,17.162-10.332c0.775,0.564,26.342-11.305,21.883-25.277c-5.191-16.271-29.451-20.629-31.223-38.182
			c-2.188-21.689-11.543-43.246-14.465-64.861c-0.252-11.605-3.463-22.871-4.061-34.432c-4.318-14.312,2.381-29.029-3.543-42.818
			c-3.934-9.158-2.936-15.641,7.512-19.211c9.965-3.404,4.264-11.064,4.113-21.373c-0.324-23.135,6.143-46.09,3.158-69.312
			c0.256-16.51-1.057-33.223,1.041-49.498c8.686-67.35,23.082-85.533,23.525-153.688c0.047-7.092,0.357-14.758,8.613-18.316
			c-2.557-23.352-20.969-25.861-1.268-42.883c8.064-6.971,15.365-14.873,22.67-22.684c4.031-4.307,6.746-8.096,3.602-15.295
			c-3.676-8.41,0.889-16.561,8.756-20.809c6.391-3.449,10.697-8.037,13.859-14.191C526.831,105.83,521.048,106.043,516.005,105.463z
			 M399.78,332.344c-11.773,23.555-18.361,13.309-34.205,29.078c-6.887,6.855-4.27,14.447-12.992,18.973
			c-16.463,8.537-16.098-18.148-19.566-36.24c-8.176-42.633-7.973-60.246,8.334-100.355c2.342-5.764,5.756-5.48,9.93-5.842
			c29.975-2.596,25.65-6.898,55.682-8.354c13.525-0.654,23.303-4.602,32.955-13.703c9.127-8.607,7.672-4.115,18.631-11.252
			C453.481,215.105,406.298,319.303,399.78,332.344z"/>
		<path fill-rule="evenodd" clip-rule="evenodd" fill="#D14C43" d="M119.946,232.639c-2.551-8.354,1.123-6.451,6.947-6.121
			c25.398,1.443,58.846,8.486,75.49,29.016c22.32,27.535,19.088,19.992,32.508,19.008c16.855-1.238,31.354,9.197,42.266,16.969
			c0.688,0.49,0.268,3.121,0.074,3.252c-12.83,8.689,0.145,9.799,8.139,13.025c5.051,2.037,13.852,1.068,14.518,6.357
			c0.619,4.916-0.508,9.412-3.811,12.84c-3.963,4.115-11.996,7.082-16.045,6.008c-10.529-2.789-19.152-4.322-25.521-10.539
			c-5.844-5.703-11.252-5.367-20.412-10.553c-7.416,0.484-2.402-4.576-15.297,4.047c-7.658,5.121-20.541-0.252-30.301-12.434
			c-11.609-13.564-48.102-37.732-59.713-51.297C123.233,246.652,119.278,240.496,119.946,232.639z"/>
		<path fill-rule="evenodd" clip-rule="evenodd" fill="#3E456D" d="M174.833,533.488c-0.084-1.254-0.318-2.701-0.377-4.107
			c-2.537-62.646,19.332-125.17,21.873-187.811c2.125-52.428-9.008-102.096-4.732-117.725c1.398-7.898-3.648-13.191-8.488-17.59
			c-9.371-8.52-4.104-12.99-18.613-16.066c-0.125,2.6,1.689,21.676,1.676,25.383c-0.217,55.018,6.052,80.967-13.451,174.189
			c-3.974,18.99-8.723,13.059-6.932,56.162c0.322,7.789,3.73,13.623-0.244,20.721c-13.262,23.684,14.447,49.674-0.752,72.248
			c-4.463,6.631-0.756,30.551,3.104,37.703C155.909,591.447,174.626,534.504,174.833,533.488z"/>
	</g>
</g>
<g id="Layer_22">
</g>
<g id="Layer_23">
</g>
<g id="Layer_10_copy">
</g>
<g id="Layer_11_copy">
</g>
<g id="Layer_12_copy">
</g>
<g id="Layer_13_copy">
</g>
<g id="Layer_14_copy">
</g>
<g id="Layer_15_copy">
</g>
<g id="Layer_16_copy">
</g>
<g id="Layer_17_copy">
	<g>
		<path fill-rule="evenodd" clip-rule="evenodd" fill="#D14C43" d="M354.881,1280.739c-2.057,22.125-4.475,44.209-6.947,66.266
			c-2.448,21.832,4.567,43.846,1.539,65.623c-1.697,12.236-0.824,24.717,1.279,37.09c6.934,40.77-1.643,36.035,8.166,85.469
			c1.645,2.836,0.299,2.312,0.821,5.672c5.491,7.127-0.6-6.959,1.585,2.062c1.375,5.693,1.112,11.504-0.892,16.246
			c-5.226,12.359-0.085,6.143,0.597,18.912c1.787,4.596-1.894,9.168-3.721,13.717c-0.276,2.676-2.158,3.984-4.338,4.35
			c-12.047,2.023-24.065,1.758-35.986-1.605c-2.479-5.098-1.463-10.189-0.213-15.283c3.912-13.717,2.947-9.137,4.109-23.186
			c0.766-9.262-0.797-10.133-9.083-6.787c-3.604,1.449-7.134,3.387-10.89,4.1c-10.244,1.943-10.439,20.535-7.881,30.643
			c2.589,10.236-9.827,14.143-19.966,13.824c-15.283-0.486-20.13,2.578-35.43-0.297c-10.087-1.893-14.374-4.418-8.128-12.307
			c2.273-2.869,9.582-5.223,12.431-7.299c3.205-19.857,0.668-23.248-3.128-36.84c0.971-51.408,1.36-95.146,7.109-110.27
			c2.373-6.234,2.255-11.824-0.754-17.408c-5.121-9.479-5.75-19.916-6.416-30.16c-3.426-20.039-4.504-25.07-7.685-45.5
			c-0.343-2.209-19.403-88.352-10.196-108.621l0.061-3.332c2.17-13.336-1.38-26.715-2.889-39.992
			c-2.109-18.58-4.6-37.139-7.014-55.676c-2.185-16.797-3.379-33.752-6.607-50.43c-0.334-1.75-0.475-3.521-0.496-5.299
			c-0.201-15.074,5.782-28.197-5.545-38.779c-6.417-5.996-21.702-13.541-27.254-20.408c-3.832-4.74-55.947-14.33-59.018-17.119
			c-13.84-5.646-20.866-11.057-26.038-24.924c-3.444-9.229-21.783-43.863-21.951-50.812c-0.218-8.941-1.166-15.922,7.065-14.588
			c7.758-0.15,3.953-5.367,8.574-10.709c0.033-1.951,1.348-4.227,2.115-5.781c1.365-2.76-2.248-8.037,2.194-8.115
			c2.761-0.049,5.155,4.658,6.118,8.33c0.373,1.416,0.321,2.943,0.459,4.422c-1.291,5.133,0.854,8.727,1.848,13.236
			c10,45.369,56.082,45.324,63.258,44.059c23.17-4.082,18.209-7.686,38.188-9.803c14.833-1.572,28.987-6.83,41.438-15.748
			c5.02-3.598,6.217-7.812,4.13-14.188c-4.179-12.783-8.063-25.738-10.877-38.875c-2.722-12.723-0.284-25.584,1.378-38.242
			c1.064-8.09,1.631-16.643,7.955-22.816c21.305-20.811,54.77-17.568,69.937,9.053c3.173,5.568,2.876,11.812,3.037,17.809
			c0.411,15.133,1.934,29.98-8.56,43.498c-7.801,10.047-8.084,17.988-3.083,30.189c1.942,5.949,18.314,21.486,20.576,24.068
			c24.815,15.393,17.822,15.137,42.493,14.986c3.967-0.025,35.207,1.881,45.234,5.961c3.77,4.26,61.988,32.465,66.658,32.121
			c16.084,10.113-9.746,5.6-17.447,23.105c-0.703,1.604-11.336,38.732-29.436,40.184c-7.408-13.732,12.496-35.02,4.873-36.404
			c-12.924-6.947-78.129,19.262-79.059,24.076c-3.746,19.318-7.199,47.324-10.794,66.676c-0.692,3.721-1.301,7.473-2.196,11.133
			c-1.457,5.932-0.549,11.367,1.842,16.984c16.98,39.9,11.394,69.6,18.658,112.285L354.881,1280.739z"/>
	</g>
</g>
<g id="Layer_18_copy">
</g>
<g id="Layer_19_copy">
</g>
<g id="Layer_20_copy">
</g>
<g id="Layer_21_copy">
</g>
<g id="Layer_22_copy">
</g>
<g id="Layer_23_copy">
</g>
<g id="Layer_24">
</g>
<g id="Layer_25">
</g>
<g id="Layer_26">
</g>
<g id="Layer_27">
</g>
<g id="Layer_0-6_copy">
</g>
<g id="Layer_0-5_copy">
</g>
<g id="Layer_0-4_copy">
</g>
<g id="Layer_0-3_copy">
</g>
<g id="Layer_0-2_copy">
</g>
<g id="Layer_0-1_copy">
</g>
<g id="Layer_0-0_copy">
</g>
</svg>
