<?xml version="1.0" encoding="utf-8"?>
<!-- Generator: Adobe Illustrator 16.0.0, SVG Export Plug-In . SVG Version: 6.00 Build 0)  -->
<!DOCTYPE svg PUBLIC "-//W3C//DTD SVG 1.1//EN" "http://www.w3.org/Graphics/SVG/1.1/DTD/svg11.dtd">
<svg version="1.1" xmlns="http://www.w3.org/2000/svg" xmlns:xlink="http://www.w3.org/1999/xlink" x="0px" y="0px" width="600px"
	 height="800px" viewBox="0 0 600 800" enable-background="new 0 0 600 800" xml:space="preserve">
<g id="Layer_0-0">
</g>
<g id="Layer_0-1">
</g>
<g id="Layer_0-2">
</g>
<g id="Layer_0-3">
</g>
<g id="Layer_0-4">
</g>
<g id="Layer_0-5">
</g>
<g id="Layer_0-6">
	<g>
		<path fill-rule="evenodd" clip-rule="evenodd" fill="#3E456D" d="M517.871-718.797c-8.166-0.939-17.316,0.332-18.213-15.666
			c-6.018,14.595-11.494,24.92-11.16,36.557c0.213,7.443-2.031,12.912-7.195,17.627c-16.281,14.848-32.318,30.049-53.551,37.908
			c-12.936,4.884-22.158,17.85-36.307,19.076c-23.318,2.02-46.285,8.977-70.219,4.381c-9.914-1.904-20.131-3.813-30.465-3.211
			c-15.568,0.906-28.918-3.098-38.621-16.463c-3.643-5.017-9.551-7.914-14.465-11.729c-6.686-15.161-4.859-19.779,9.172-25.779
			c6.73-2.879,17.936-2.893,13.906-15.125c-2.648-8.043,0.461-20.864-4.314-23.514c-14.396-7.992-15.281-23.6-23.971-34.452
			c-11.396-14.233-20.271-18.346-37.107-11.394c-13.646,5.637-27.436,10.021-38.967,21.691c-19.412,19.65-21.402,24.775-4.08,45.936
			c4.365,5.332,9.332,9.957,7.146,18.697c-1.619,6.477,12.424,19.911,16.773,17.289c3.615-2.181,5.766-5.4,9.547-0.463
			c3.604,4.703,1.547,8.769-1.396,12.068c-5.467,6.123-11.912,10.105-20.998,9.256c-36.303-3.387-71.357,10.792-107.793,7.944
			c-7.373-0.579-14.83,4.72-16.426,13.375c-1.773,9.626,5.688,13.523,12.73,16.485c15.303,6.434,31.371,10.266,47.844,12.357
			c2.539-5.17,6.104-7.703,12.439-7.968c17.83-0.741,33.676,2.087,45.564,17.265c9.189,11.729,20.828,18.529,36.83,18.477
			c12.592-0.04,18.996,8.256,20.791,21.984c0.492,3.766,2.883,6.48,5.102,9.274c4.203,5.294,7.666,11.019,10.121,17.317
			c1.508,3.871,2.588,8.209-0.764,11.321c-4.016,3.731-7.422-0.59-10.795-2.171c-8.729-4.096-13.229-13.371-21.443-18.04
			c-4.758-2.702-9.871-9.199-15.301-0.687c-0.098,3.628,0.631,7.217,2.121,10.438c7.543,16.296,5.676,31.625-2.096,47.631
			c-10.113,20.826-13.633,43.438-13.365,66.577c0.086,7.278-0.832,14.177-4.953,20.524c-13.783,21.223-24.055,43.975-28.934,67.523
			c0.084,1.238,0.008,2.267-0.613,2.801c0.176-0.938,0.42-1.864,0.613-2.801c-0.078-1.154-0.295-2.488-0.348-3.783
			c-2.338-57.707-2.225-115.418,2.109-173.005c1.102-14.622,0.721-29.567,4.66-43.964c1.289-7.276-3.359-12.151-7.818-16.204
			c-8.633-7.848-11.838-21.37-25.205-24.204c-0.086,1.787,0.227,3.708-0.318,5.344c-14.787,44.458-29.775,88.85-44.469,133.34
			c-5.605,16.971-10.822,34.146-1.875,51.734c3.258,6.4,3.438,12.549-0.227,19.088c-12.213,21.816-22.248,44.856-36.246,65.65
			c-4.111,6.109-2.082,7.717,3.4,10.775c7.113,3.975,15.744,8.35,19.299,14.938c7.379,13.683,20.693,24.672,22.988,40.168
			c1.957,13.195,15.916,26.601-0.154,40.807c6.012,1.676,10.17,3.324,14.473,3.933c8.043,1.144,8.881,5.263,4.525,10.825
			c-11.758,15.002-8.658,29.852-0.543,45.027c3.158,5.912,5.469,11.795,2.764,19.102c-9.848,26.59-13.312,54.525-17.09,82.455
			c-1.191,8.821,2.096,10.893,9.072,12.703c8.143,2.115,15.873-5.285,21.615-3.545c18.215,5.52,36.777,5.492,55.238,7.553
			c17.645,1.967,35.209,4.671,52.789,7.18c23.664,3.375,26.91-9.6,50.354-9.536c16.84,0.044,24.639-5.376,41.529-5.793
			c11.689-0.292,16.057-12.786,27.01-12.731c0.568,0.004,1.748-3.102,1.635-4.686c-0.748-10.254,6.264-11.189,13.785-12.391
			c7.371-1.178,15.053,1.365,22.215-3.15c12.264-7.729,16.455-13.535,19.18,1.469c0.436,2.391-0.688,5.742,3.877,5.682
			c3.234-4.029-1.264-10.217,5.57-11.957c7.125-1.812,10.887,4.95,15.809,8.52c0.717,0.52,1.371,1.178,1.912,1.882
			c13.465,17.6,30.783,17.325,49.203,13.649c3.279-0.652,4.863,1.607,5.1-2.68c0.262-4.709-3.396-6.785-6.615-7.966
			c-13.363-4.916-28.039-11.692-32.146-24.563c-4.781-14.99-13.6-26.219-15.23-42.388c-2.016-19.979-5.223-39.836-7.914-59.747
			c-0.232-10.691-3.191-21.068-3.74-31.719c-3.979-13.185-6.826-26.74-12.283-39.441c-3.623-8.438-2.705-14.408,6.918-17.697
			c9.182-3.137,12.947-10.193,12.811-19.689c-0.299-21.31,4.756-42.457,2.006-63.848c0.236-15.209-0.973-30.605,0.959-45.596
			c8-62.041,44.713-123.886,45.121-186.666c0.043-6.531,0.328-13.595,7.936-16.874c-2.355-21.511-1.279-41.86,16.869-57.54
			c7.43-6.42,14.152-13.701,20.883-20.895c3.713-3.966,6.213-7.457,3.316-14.09c-3.385-7.746,0.818-15.256,8.064-19.167
			c5.889-3.179,9.854-7.403,12.768-13.073C527.844-718.461,522.518-718.265,517.871-718.797z M381.049-509.803
			c-13.35,15.681-26.836,31.2-41.43,45.728c-6.344,6.315-12.951,12.405-20.986,16.573c-15.166,7.863-21.143,4.928-24.338-11.739
			c-7.531-39.271-2.836-77.14,12.186-114.089c2.158-5.309,5.301-5.049,9.146-5.381c27.613-2.391,55.193-5.453,82.857-6.793
			c12.459-0.604,22.367-4.24,31.26-12.624c8.408-7.927,17.389-15.248,27.482-21.824C450.23-605.508,386.352-516.033,381.049-509.803
			z"/>
	</g>
</g>
<g id="Layer_1">
</g>
<g id="Layer_2">
</g>
<g id="Layer_3">
</g>
<g id="Layer_4">
</g>
<g id="Layer_5">
</g>
<g id="Layer_6">
</g>
<g id="Layer_7">
</g>
<g id="Layer_8">
</g>
<g id="Layer_9">
</g>
<g id="Layer_10">
	<g>
		<path fill-rule="evenodd" clip-rule="evenodd" fill="#D14C43" d="M213.473,163.411c12.836,13.41,27.293,49.536,46.615,53.111
			c35.096,6.495,106.517-18.081,141.148-19.389c22.26-0.838,38.186-27.024,49.591-42.826c-9.827-3.711-24.024-8.336-34.181-9.825
			c-21.674-3.176-28.293-18.532-29.678-36.154c-0.711-9.042,4.781-18.88,8.591-27.882c3.396-8.021,8.362-15.612,9.095-24.357
			c1.397-16.648-0.854-33.339-15.576-43.349c-15.635-10.628-35.913-17.957-52.461-8.091c-15.422,9.193-21.443,17.31-23.512,30.702
			c-0.727,4.707-0.262,4.01-2.803,9.017c-6.766,13.325-1.139,5.896-1.139,44.265c0,9.664,3.812,12.665,11.951,14.88
			c17.404,4.734,14.52,5.032,10.795,23.152c-4.12,20.048-56.354,18.675-68.807,22.036
			C246.418,153.205,229.01,155.029,213.473,163.411z"/>
		<path fill-rule="evenodd" clip-rule="evenodd" fill="#D14C43" d="M546.812,200.549c-1.597-3.578-13.082-20.898-20.889-21.613
			c0.01-0.001-13.406-6.705-21.303-5.394c-8.248-0.054-17.422-27.949-25.669-28.002c-4.729-3.595-7.466,25.583-11.022,29.903
			c-2.256,2.74-0.465,1.666-3.268,3.97c-3.392,5.493-4.498,3.169-10.441,7.026c-9.429,7.944-12.224,10.484-22.945,15.791
			c-0.042,0-0.082,0.021-0.12,0.056c-8.835,4.176-17.669,8.353-26.503,12.527c-10.318,2.007-17.951,9.905-27.951,12.71
			c-3.406,0.956-6.37,3.084-7.677,6.757c-2.3,2.339-4.835,5.084-8.058,5.098c-12.798,0.05-25.029,3.827-37.58,5.165
			c-10.951,1.167-17.057,6.357-16.822,17.553c0.264,12.56,2.787,25.162-1.612,37.534c-0.467,1.311-0.29,2.967-0.037,4.396
			c3.104,17.481,1.739,35.286,3.901,52.832c3.895,14.314,12.699,25.901,20.994,37.769c2.648,5.426,5.746,10.498,10.912,13.953
			c-0.001-0.002-0.001-0.003-0.001-0.005l0.002,0.003c12.968,8.035,26.308,13.639,42.329,12.704c0.002,0,0.004,0.001,0.005,0.002
			c12.832,7.874,27.045,7.823,37.609-0.134c3.106-1.069,5.048-3.569,5.584-6.444c1.452-7.813,4.364-15.238,5.181-23.257
			c1.424-13.968-0.842-27.639-1.886-41.443c-1.931-25.493,5.298-49.8,10.897-74.22c4.76-20.755,9.172-41.505,10.441-62.811
			c0.597-2.959-1.217-6.864,1.939-8.706c2.523-1.472,3.466,2.163,5.242,3.332V207.6l0,0l0.076-0.042
			c-0.872,6.188,1.473,11.376,5.033,16.186c1.074,15.951,2.178,16.79,18.19,16.013c7.052-0.342,45.29,0.266,50.287,0.092
			C536.236,239.688,552.881,214.143,546.812,200.549z"/>
		<path fill-rule="evenodd" clip-rule="evenodd" fill="#D14C43" d="M150.26,275.156c2.068,27.599,7.716,33.171,32.331,31.898
			c-0.002-0.001-0.003-0.002-0.005-0.002c0.002,0,0.003,0,0.005,0.001c2.226,0.713,4.451,1.426,6.679,2.14
			c10.229,4.547,17.426,13.128,26.149,19.679c5.309,3.144,10.071,6.586,7.647,13.965c2.602-1.662,3.578-4.159,3.652-7.117
			c4.91-3.916,4.874-4.137-2.056-12.351c-6.147-9.339-16.173-16.27-17.683-28.485c-2.858-3.694,3.436-11.2-5.201-12.486
			c-6.018-4.668-11.293-10.075-16.021-16.03c-2.122-6.289-5.663-11.66-10.478-16.207c0,0,0-0.001-0.002-0.002
			c-5.529-17.903-9.681-37.318-25.461-48.304c-1.611-2.92-4.4-3.116-7.263-3.141c-6.608,10.673-13.147,25.529-8.005,37.377
			C141.354,250.917,145.219,253.441,150.26,275.156z"/>
		<path fill-rule="evenodd" clip-rule="evenodd" fill="#D14C43" d="M228.404,734.272c-1.479-1.57-2.717-3.489-5.205-3.603
			c-7.861-8.409-20.435-10.95-26.664-21.395c0-0.002,0-0.004-0.002-0.004l0.098-0.055c0.102-4.603-5.044-6.398-5.674-10.609
			l-0.002,0.002v-0.002c0.023-3.482,0.045-6.963,0.066-10.442c-0.992-3.213-3.5-4.009-6.287-3.257
			c-8.307,2.238-16.727,3.14-25.31,3.082c-3.496-0.023-5.345,2.058-5.454,5.59l0,0l0,0c-0.596,3.271-2.676,5.384-5.438,6.965
			c-3.711,9.688-5.947,19.646-5.471,30.095c-5.601,3.925-28.6,42.079-22.986,47.835c2.773,3.163,6.517,3.99,10.42,3.875
			c17.685-0.523,32.51-5.981,39.213-24.17c1.991-5.401,4.858-7.855,10.578-5.74l0,0l0,0c5.303,3.871,11.391,6.552,17.631,7.603
			c7.256,1.222,15.256,3.477,21.615-3.206C220.906,755.395,231.289,732.1,228.404,734.272z"/>
		<path fill-rule="evenodd" clip-rule="evenodd" fill="#D14C43" d="M444.004,581.634c-0.154-5.847,0.045-11.719-0.453-17.536
			c-0.289-3.335-2.729-7.684-5.905-3.563c-4.771,6.189-7.063,9.588-11.97,15.333c-5.968-0.148-4.539,5.135-10.377,5.367
			c-4.569-0.354-10.039-0.508-10.302,5.301c-0.634,13.9-3.221,28.214,4.792,41.171c0,0,0.001,0.006,0.001,0.009
			c-1.46,9.781,4.962,18.118,5.161,27.521c0.303,14.415,0.13,28.842,0.157,43.263c-4.009,3.119-7.688,6.549-10.356,10.938
			c-2.352,2.803-2.984,6.291-3.875,9.683c-1.842,7.03-0.185,10.673-7.898,8.364c-3.052-0.914-6.194-1.525-9.297-2.273
			c0.002,0,0.002,0,0.002,0c-6.355-6.023-7.648-0.492-9.354,4.095c-0.248,4.397-0.472,8.796-0.752,13.19
			c-0.287,4.509-0.48,8.956,4.323,11.549c-0.026,3.217,1.061,7.012-0.26,9.561c-8.166,15.781,14.527,25.566,14.797,25.676
			c12.021,8.207,17.369,8.119,27.766-0.208l-0.047,0.122c10.724-3.166,12.34-12.938,10.194-23.315
			c-4.396-21.258-6.476-42.188-0.813-64.452c-2.898,11.401,9.752-47.327,12.989-61.435
			C446.836,632.195,444.115,586.006,444.004,581.634z"/>
		<path fill-rule="evenodd" clip-rule="evenodd" fill="#3E456D" d="M448.168,209.443c-0.146,1.168-3.226,23.701-3.969,33.961
			c-1.317,18.197-11.527,34.745-11.079,53.5c0.043,1.829-1.339,3.886-2.452,5.637c-1.137,1.789-1.947,3.66-1.96,5.793
			c-0.083,14.729-3.389,29.378-1.722,44.108c1.262,11.123,0.95,22.274,1.691,33.341c0.809,12.094-5.98,20.824-9.781,30.99
			c-11.252,4.461-22.528,11.205-34.164,0.797c-14.631-0.539-28.324-4.143-40.637-12.321c-5.605-2.718-9.475-7.067-11.992-12.69
			c-8.254-11.479-15.674-23.367-18.244-37.594c-2.071-23.155-6.264-46.277-1.403-69.604c0.731-3.503-0.003-7.072-0.564-10.594
			c-0.796-4.995-1.045-10.026-0.062-15.023c1-5.088,3.865-8.835,9.078-9.781c11.348-2.059,45.716-7.601,50.512-11.477
			c9.719-9.687,51.924-29.84,61.227-33.333c5.307-2.974,13.061-10.708,17.057-5.419
			C451.186,201.694,448.473,207.006,448.168,209.443z M465.459,190.448c4.404-6.422,9.281-11.317,11.907-18.286
			c-0.009-1.108,2.323-6.925,2.405-6.961c2.865-1.293,10.219-6.06,12.172-5.74c-0.576-1.152-1.154-2.308-1.73-3.461
			c0.852-10.592-5.349-16.071-14.219-19.616c-2.898-2.491-6.022-4.767-8.635-7.528c-3.377-3.572-14.521,1.873-14.781,5.841
			c-0.038,0.587-2.57,7.153-5.097,8.976c-1.078,0.75-5.778,17.138-5.478,24.836c-0.594,0.605-8.958,1.861-12.547,1.886
			c-1.803,0.009-66.774,23.01-72.439,24.791c-26.855,8.442-44.701,13.713-72.644,4.946c-9.713,1.42-24.268-13.301-37.015-23.341
			c-0.68-0.535-29.186-13.201-29.186-13.201c-6.882-15.602-30.059-18.499-15.62-24.673c6.927-2.962,12.892-2.976,8.745-15.564
			c-2.727-8.275-1.709-19.931-5.369-24.196c-10.627-12.39-7.373-24.283-16.314-35.451c-11.729-14.647-20.861-18.879-38.188-11.724
			c-14.043,5.8-22.041,3.641-32.676,16.753c-15.627,19.269-16.245,29.786-4.199,47.269c4.025,5.84,8.246,10.021,9.212,19.24
			c1.013,9.675,9.983,14.005,16.331,15.934c4.156,1.263,5.006,0.012,8.897,5.091c3.708,4.841-2.118,10.881-5.149,14.276
			c0,0-5.764,37.476,8.402,47.689c14.33,11.154,13.006,17.323,19.65,33.651c4.789,4.569,8.752,9.643,10.008,16.359
			c4.5,6.991,11.562,11.625,16.652,18.073c4.411,2.208,4.104,6.275,4.076,10.22c0.225,4.59,2.1,8.552,5.105,11.901
			c4.871,5.428,9.512,11.025,13.787,16.92c2.066,2.949,6.652,5.037,3.708,9.854c0.343,2.844,0.019,5.5-2.167,7.625
			c-7.568,16.408-19.289,29.778-31.379,42.876c-10.4,9.126-18.003,20.849-28.415,30.08c-5.169,4.583-1.069,9.635,3.432,13.331
			c8.628,7.079,10.735,14.624,6.93,24.855c-2.083,5.602-37.015,13.502-42.669,14.792c-8.244,1.885-20.056,5.927-19.859,5.79
			c-7.129-0.432-18.188,24.833-18.188,24.833s-5.477,24.188-3.17,26.639c6.486,6.895,5.727,13.072,0.264,20.362
			c-6.019,8.029-22.1,18.626-22.104,18.629c-2.311,0.436-4.729,0.571-6.914,1.354c-16.77,6.012-6.268,47.17-1.107,45.939
			c5.65-1.348,8.467,0.729,8.529,6.613c0.062,5.794,2.242,10.912,5.367,15.684v-0.003c0,0,0,0.002,0,0.003
			c1.715,3.402,3.232,6.922,5.174,10.19c13.482,22.694,33.613,55.66,58.956,61.03c9.482,2.01,13.042,22.529,10.62,31.831
			c4.582,2.22,7.027-1.131,9.752-3.765c7.186-9.329,18.645,0.128,20.029,2.269c11.414,44.146,32.764,63.263,61.445,51.72
			c1.131,1.732,3.234-0.545,3.48,1.181c0.693,4.862,0.008,8.815,2.767,8.741c5.651-0.152,7.618-4.613,5.651-10.467
			c-1.71-5.087,1.37-6.326,5.73-5.469c2.856,0.561,5.649,1.446,8.472,2.188c3.621,2.308,7.242,4.614,10.863,6.924v-0.002
			c0,0,0,0,0.001,0c2.934,1.626,4.766,5.104,8.643,5.147c2.555,2.055,5.217,3.884,8.69,3.865c11.188-0.062,22.38,0.049,33.56-0.287
			c4.732-0.145,9.28-1.641,12.951-4.979c2.923-0.735,5.859-1.679,5.578-5.443c-0.264-3.559-2.555-5.913-5.931-6.652
			c-4.513-0.991-9.126-1.522-13.696-2.251c-0.388-0.333-0.793-0.479-1.213-0.465c-11.123-4.314,9.933-40.942,14.285-46.189
			c2.818-3.399,21.73-11.957,27.525-8.17l0,0c0.549,1.247,1.096,2.495,1.645,3.743c3.146-0.278,6.271-1.651,9.44-0.206
			c20.632,3.597,20.632,3.597,28.106-15.918c0.211-0.553,10.913-9.312,12.713-15.929c0.67-3.78,0.457-7.618,0.68-11.431
			c1.135-19.483-0.701-38.666-5.649-57.562c-4.812-9.097-7.981-18.342-6.972-29.065c0.606-6.421,2.27-10.72,8.606-12.553
			c5.885-1.563,18.37-8.659,19.073-9.64c3.053-4.262,7.953-7.504,12.372-6.835c4.063,0.614,9.149-12.876,9.355-27.488
			c0.144-10.249,6.335-30.467,6.721-30.83c2.999-17.456,6.186-34.736,5.89-52.731c-0.761-46.488,0.762-93.027-4.068-139.396
			c2.418-2.355,4.836-4.713,7.252-7.068c4.369-1.686,6.881-4.906,7.818-9.432c1.373-6.96-4.311-11.472-6.045-17.359
			c0.859-10.902-4.947-20.646-5.385-31.378c-0.248-6.022,1.23-21.109-1.395-30.898c-1.291-5.316-7.762-8.943-6.705-14.879
			C461.398,204.054,462.785,194.345,465.459,190.448z"/>
		<path fill-rule="evenodd" clip-rule="evenodd" fill="#3E456D" d="M175.143,466.014c-0.148,1.232-0.414,2.229-1.123,2.639
			C174.365,467.762,174.779,466.898,175.143,466.014c0.139-1.148,0.174-2.5,0.365-3.779c8.453-57.135,19.318-113.816,34.307-169.586
			c3.805-14.16,6.219-28.914,12.77-42.324c2.621-6.908-1.037-12.564-4.662-17.379c-7.018-9.318-7.65-23.199-20.252-28.475
			c-0.42,1.74-0.469,3.686-1.311,5.189c-22.928,41.133-8.369,88.643-31.197,129.801c-8.668,15.629-34.682,28.18-29.168,47.125
			c2.008,6.898,1.039,12.971-3.779,18.715c-16.062,19.156-10.562,43.652-28.191,61.471c-5.178,5.236-3.482,7.193,1.334,11.223
			c6.25,5.229,13.912,11.135,16.178,18.271c4.701,14.816-3.918,24.367-4.551,40.02C116.449,549.611,184.324,443.785,175.143,466.014
			z"/>
	</g>
</g>
<g id="Layer_11">
</g>
<g id="Layer_12">
</g>
<g id="Layer_13">
</g>
<g id="Layer_14">
</g>
<g id="Layer_15">
</g>
<g id="Layer_16">
</g>
<g id="Layer_17_1_">
</g>
<g id="Layer_18_1_">
</g>
<g id="Layer_19">
</g>
<g id="Layer_20">
	<g>
		<path fill-rule="evenodd" clip-rule="evenodd" fill="#D14C43" d="M186.724,1199.784c5.391-27.937,4.688-50.103,18.092-75.245
			c3.739-7.009,2.162-14.299,1.121-21.625c-6.137-43.112-12.708-86.215-7.057-129.962c1.291-9.997,1.674-20.508,7.746-28.964
			c9.214-12.832,8.001-27.722,8.957-41.991c0.582-8.685-6.668-15.204-10.916-22.392c-4.518-7.646-9.51-14.986-11.408-23.868
			c-5.394-25.239,7.387-45.856,35.147-53.017c3.556-0.916,7.097-2.081,10.756-2.41c27.692-2.49,34.432,10.336,45.864,25.748
			c2.983,4.019,2.492,7.175,2.81,12.664c0.229,3.955-0.746,5.662,5.237,11.677c2.311,2.321,5.639,2.844,5.248,6.954
			c-3.836,12.467,1.748,18.061,2.916,26.743c1.449,10.759-3.491,15.044-12.56,17.36c-5.087,1.3-13.509,1.98-11.36,8.461
			c1.98,5.979,8.913,10.805,13.564,9.402c13.432-4.052,20.389-13.795,38.182-23.936c11.519-9.292,22.096-22.661,31.917-33.689
			c3.078-3.453,5.988-5.669,10.458-5.993c-3.826,5.079-7.133,10.7-11.61,15.143c-11.27,11.182-15.691,23.601-9.184,38.808
			c-1.754,2.229-4.397,5.638-4.729,8.597c-2.125,18.925-7.123,12.899-11.893,19.63c-6.232,8.795-14.829,12.562-23.061,17.222
			c-14.005,7.927-14.033,9.472-7.944,19.497c4.675,7.695,11.866,10.16,12.498,19.981c-1.403,0.843,6.982,33.832,21.185,36.571
			c13.55,2.61,27.134,20.695,41.087,20.163c6.975-0.265,14.144,1.409,20.972,3.71c9.774,3.293,19.118,3.25,28.415-4.354
			c1.586-1.3,4.742,3.319,7.173,3.05c7.904,4.648,10.643,9.395,6.977,19.413c-3.726,10.182-9.88,9.704-20.354,12.918
			c-4.604,1.412-8.332,4.675-13.513,2.54c-25.553-3.295-53.598-7.646-53.598-7.646s-22.374-14.228-31.963-18.082
			c-7.233-2.909-9.626-1.514-10.228,7.019c-2.511,35.567,0.355,71.096-0.28,106.614c-0.391,21.975-2.284,43.986-7.884,65.474
			c-1.556,5.971-5.334,10.206-9.205,14.408c-32.4,35.188-55.144,75.896-69.367,121.42c-2.878,9.209-1.33,18.938-1.148,28.402
			c0.205,10.859-2.644,19.968-9.275,28.902c-7.758,10.451-13.604,22.326-20.276,33.579c0.999-14.404,2.001-28.808,3.001-43.211
			c-0.83-0.258-1.66-0.517-2.491-0.773c-6.801,10.116-13.81,20.1-20.358,30.377c-13.939,21.876-27.652,43.899-41.427,65.882
			c-2.901,4.629-6.251,9.09-8.388,14.061c-5.969,13.885-11.845,10.566-21.84,6.898c-3.244-1.19-6.234-4.994-9.353-1.649
			c-2.954,3.165-3.849,7.728-1.085,11.925c8.018,12.171,11.61,27.414,25.339,35.666c4.144,2.494,2.523,5.619-0.941,7.893
			c-7.462,4.895-15.847,3.938-23.064,1.096c-18.354-7.229-34.572-17.72-44.479-35.773c-1.345-2.448-2.729-4.812-2.914-7.668
			c-0.295-4.533-1.579-4.344-6.558-4.531c-10.159-0.382-13.153-12.438-20.673-18.021c-2.087-1.552-3.478-5.246-0.77-8.011
			c6.255-6.393,9.108-15.052,14.818-21.779c0.379-0.447,1.47-0.673,1.472-1.002c0.05-15.147,14.101-17.993,22.811-24.947
			c13.981-11.164,22.95-26.066,32.717-40.276c16.831-24.491,36.304-46.046,61.191-62.544c5.293-3.507,10.021-7.871,14.955-11.904
			c7.377-6.028,8.933-14.678,8.624-23.188c-0.762-20.88,1.303-41.704,4.581-62.46
			C179.568,1273.674,183.362,1217.204,186.724,1199.784z"/>
	</g>
</g>
<g id="Layer_21">
</g>
<g id="Layer_22">
</g>
<g id="Layer_23">
</g>
<g id="Layer_10_copy">
</g>
<g id="Layer_11_copy">
</g>
<g id="Layer_12_copy">
</g>
<g id="Layer_13_copy">
</g>
<g id="Layer_14_copy">
</g>
<g id="Layer_15_copy">
</g>
<g id="Layer_16_copy">
</g>
<g id="Layer_17_copy">
</g>
<g id="Layer_18_copy">
</g>
<g id="Layer_19_copy">
</g>
<g id="Layer_20_copy">
</g>
<g id="Layer_21_copy">
</g>
<g id="Layer_22_copy">
</g>
<g id="Layer_23_copy">
</g>
<g id="Layer_24">
</g>
<g id="Layer_25">
</g>
<g id="Layer_26">
</g>
<g id="Layer_27">
</g>
<g id="Layer_0-6_copy">
</g>
<g id="Layer_0-5_copy">
</g>
<g id="Layer_0-4_copy">
</g>
<g id="Layer_0-3_copy">
</g>
<g id="Layer_0-2_copy">
</g>
<g id="Layer_0-1_copy">
</g>
<g id="Layer_0-0_copy">
</g>
</svg>
