<?xml version="1.0" encoding="utf-8"?>
<!-- Generator: Adobe Illustrator 16.0.0, SVG Export Plug-In . SVG Version: 6.00 Build 0)  -->
<!DOCTYPE svg PUBLIC "-//W3C//DTD SVG 1.1//EN" "http://www.w3.org/Graphics/SVG/1.1/DTD/svg11.dtd">
<svg version="1.1" xmlns="http://www.w3.org/2000/svg" xmlns:xlink="http://www.w3.org/1999/xlink" x="0px" y="0px" width="600px"
	 height="800px" viewBox="0 0 600 800" enable-background="new 0 0 600 800" xml:space="preserve">
<g id="Layer_0-0">
</g>
<g id="Layer_0-1">
</g>
<g id="Layer_0-2">
</g>
<g id="Layer_0-3">
</g>
<g id="Layer_0-4">
</g>
<g id="Layer_0-5">
</g>
<g id="Layer_0-6">
</g>
<g id="Layer_1">
</g>
<g id="Layer_2">
</g>
<g id="Layer_3">
</g>
<g id="Layer_4">
</g>
<g id="Layer_5">
</g>
<g id="Layer_6">
</g>
<g id="Layer_7">
</g>
<g id="Layer_8">
</g>
<g id="Layer_9">
</g>
<g id="Layer_10">
	<g>
		<path fill-rule="evenodd" clip-rule="evenodd" fill="#3E456D" d="M448.168-590.557c-0.146,1.168-3.226,23.701-3.969,33.961
			c-1.317,18.197-11.527,34.745-11.079,53.5c0.043,1.829-1.339,3.886-2.452,5.637c-1.137,1.789-1.947,3.66-1.96,5.793
			c-0.083,14.729-3.389,29.378-1.722,44.108c1.262,11.123,0.95,22.274,1.691,33.341c0.809,12.094-5.98,20.824-9.781,30.99
			c-11.252,4.461-22.528,11.205-34.164,0.797c-14.631-0.539-28.324-4.143-40.637-12.321c-5.605-2.718-9.475-7.067-11.992-12.69
			c-8.254-11.479-15.674-23.367-18.244-37.594c-2.071-23.155-6.264-46.277-1.403-69.604c0.731-3.503-0.003-7.072-0.564-10.594
			c-0.796-4.995-1.045-10.026-0.062-15.023c1-5.088,3.865-8.835,9.078-9.781c11.348-2.059,45.716-7.601,50.512-11.477
			c9.719-9.687,51.924-29.84,61.227-33.333c5.307-2.974,13.061-10.708,17.057-5.419
			C451.186-598.306,448.473-592.994,448.168-590.557z M465.459-609.552c4.404-6.422,9.281-11.317,11.907-18.286
			c-0.009-1.108,2.323-6.925,2.405-6.961c2.865-1.293,10.219-6.06,12.172-5.74c-0.576-1.152-1.154-2.308-1.73-3.461
			c0.852-10.592-5.349-16.071-14.219-19.616c-2.898-2.491-6.022-4.767-8.635-7.528c-3.377-3.572-14.521,1.873-14.781,5.841
			c-0.038,0.587-2.57,7.153-5.097,8.976c-1.078,0.75-5.778,17.138-5.478,24.836c-0.594,0.605-8.958,1.861-12.547,1.886
			c-1.803,0.009-66.774,23.01-72.439,24.791c-26.855,8.442-44.701,13.713-72.644,4.946c-9.713,1.42-24.268-13.301-37.015-23.341
			c-0.68-0.535-29.186-13.201-29.186-13.201c-6.882-15.602-30.059-18.499-15.62-24.673c6.927-2.962,12.892-2.976,8.745-15.564
			c-2.727-8.275-1.709-19.931-5.369-24.196c-10.627-12.39-7.373-24.283-16.314-35.451c-11.729-14.647-20.861-18.879-38.188-11.724
			c-14.043,5.8-22.041,3.641-32.676,16.753c-15.627,19.269-16.245,29.786-4.199,47.269c4.025,5.84,8.246,10.021,9.212,19.24
			c1.013,9.675,9.983,14.005,16.331,15.934c4.156,1.263,5.006,0.012,8.897,5.091c3.708,4.841-2.118,10.881-5.149,14.276
			c0,0-5.764,37.476,8.402,47.689c14.33,11.154,13.006,17.323,19.65,33.651c4.789,4.569,8.752,9.643,10.008,16.359
			c4.5,6.991,11.562,11.625,16.652,18.073c4.411,2.208,4.104,6.275,4.076,10.22c0.225,4.59,2.1,8.552,5.105,11.901
			c4.871,5.428,9.512,11.025,13.787,16.92c2.066,2.949,6.652,5.037,3.708,9.854c0.343,2.844,0.019,5.5-2.167,7.625
			c-7.568,16.408-19.289,29.778-31.379,42.876c-10.4,9.126-18.003,20.849-28.415,30.08c-5.169,4.583-1.069,9.635,3.432,13.331
			c8.628,7.079,10.735,14.624,6.93,24.855c-2.083,5.602-37.015,13.502-42.669,14.792c-8.244,1.885-20.056,5.927-19.859,5.79
			c-7.129-0.432-18.188,24.833-18.188,24.833s-5.477,24.188-3.17,26.639c6.486,6.895,5.727,13.072,0.264,20.362
			c-6.019,8.029-22.1,18.626-22.104,18.629c-2.311,0.436-4.729,0.571-6.914,1.354c-16.77,6.012-6.268,47.17-1.107,45.939
			c5.65-1.348,8.467,0.729,8.529,6.613c0.062,5.794,2.242,10.912,5.367,15.684v-0.003c0,0,0,0.002,0,0.003
			c1.715,3.402,3.232,6.922,5.174,10.19c13.482,22.694,33.613,55.66,58.956,61.03c9.482,2.01,13.042,22.529,10.62,31.831
			c4.582,2.22,7.027-1.131,9.752-3.765c7.186-9.329,18.645,0.128,20.029,2.269c11.414,44.146,32.764,63.263,61.445,51.72
			c1.131,1.732,3.234-0.545,3.48,1.181c0.693,4.862,0.008,8.815,2.767,8.741c5.651-0.152,7.618-4.613,5.651-10.467
			c-1.71-5.087,1.37-6.326,5.73-5.469c2.856,0.561,5.649,1.446,8.472,2.188c3.621,2.308,7.242,4.614,10.863,6.924v-0.002
			c0,0,0,0,0.001,0c2.934,1.626,4.766,5.104,8.643,5.147c2.555,2.055,5.217,3.884,8.69,3.865c11.188-0.062,22.38,0.049,33.56-0.287
			c4.732-0.145,9.28-1.641,12.951-4.979c2.923-0.735,5.859-1.679,5.578-5.443c-0.264-3.559-2.555-5.913-5.931-6.652
			c-4.513-0.991-9.126-1.522-13.696-2.251c-0.388-0.333-0.793-0.479-1.213-0.465c-11.123-4.314,9.933-40.942,14.285-46.189
			c2.818-3.399,21.73-11.957,27.525-8.17l0,0c0.549,1.247,1.096,2.495,1.645,3.743c3.146-0.278,6.271-1.651,9.44-0.206
			c20.632,3.597,20.632,3.597,28.106-15.918c0.211-0.553,10.913-9.312,12.713-15.929c0.67-3.78,0.457-7.618,0.68-11.431
			c1.135-19.483-0.701-38.666-5.649-57.562c-4.812-9.097-7.981-18.342-6.972-29.065c0.606-6.421,2.27-10.72,8.606-12.553
			c5.885-1.563,18.37-8.659,19.073-9.64c3.053-4.262,7.953-7.504,12.372-6.835c4.063,0.614,9.149-12.876,9.355-27.488
			c0.144-10.249,6.335-30.467,6.721-30.83c2.999-17.456,6.186-34.736,5.89-52.731c-0.761-46.488,0.762-93.027-4.068-139.396
			c2.418-2.355,4.836-4.713,7.252-7.068c4.369-1.686,6.881-4.906,7.818-9.432c1.373-6.96-4.311-11.472-6.045-17.359
			c0.859-10.902-4.947-20.646-5.385-31.378c-0.248-6.022,1.23-21.109-1.395-30.898c-1.291-5.316-7.762-8.943-6.705-14.879
			C461.398-595.946,462.785-605.655,465.459-609.552z"/>
	</g>
</g>
<g id="Layer_11">
</g>
<g id="Layer_12">
</g>
<g id="Layer_13">
</g>
<g id="Layer_14">
</g>
<g id="Layer_15">
</g>
<g id="Layer_16">
</g>
<g id="Layer_17_1_">
</g>
<g id="Layer_18_1_">
</g>
<g id="Layer_19">
</g>
<g id="Layer_20">
	<g>
		<path fill-rule="evenodd" clip-rule="evenodd" fill="#3E456D" d="M418.457,274.59c-4.108,9.857-18.562,39.925-21.396,50.235
			c-3.804,13.839-2.193,27.009,6.006,38.575c14.871,20.975,28.382,35.223,29.41,59.818c0.585,13.951,2.605,27.523,6.906,40.606
			c6.074,18.479,21.685,25.987,38.767,31.468c19.48,6.248,16.422,22.588,35.862,28.963c33.313,10.924-14.795,38.855,20.379,41.189
			c11.991,0.797,41.43,49.271,35.359,46.425c-6.876-3.227,16.416,26.671,13.212,33.903c-5.359,12.103-14.974,15.092-26.98,14.477
			c-7.929-0.406-27.11,2.024-28.714,1.965c-6.141-0.229-14.967,54.812-34.39,56.731c-17.909,1.77-27.882-3.052-27.613,7.122
			c0.257,9.609,0.93,9.819,6.834,18.397c2.429,3.528,2.447,7.524-1.958,10.023c-4.255,2.41-4.71-2.245-6.592-3.967
			c-2.453-2.245-4.77-4.74-6.67-7.46c-1.718-2.463-2.92-6.175-6.476-4.866c-3.362,1.237-2.337,5.295-2.689,8.214
			c-1.021,8.479-0.198,17.763-5.083,24.934c-11.161,16.379-27.943,24.748-46.901,28.413c-8.961,1.734-14.288-6.107-9.672-14.017
			c5.185-8.881,11.481-17.129,17.559-25.459c2.533-3.473,3.511-6.973,2.521-12.105c-5.641,3.344-8.878,8.058-11.24,13.28
			c-3.352,7.417-8.473,11.106-16.904,11.579c-15.373,0.859-30.716,1.17-46.084,0.52c-3.031-0.129-6.487-0.185-7.966-3.509
			c-1.584-3.567,0.452-6.378,2.636-9.127c3.831-4.813,8.777-8.202,13.868-11.442c2.237-1.425,5.157-2.139,5.594-6.55
			c-4.093,0-8.191,0.204-12.262-0.042c-8.826-0.531-14.53-5.858-16.05-14.664c-2.118-12.278-6.659-14.376-17.147-7.847
			c-2.707,1.686-5.64,2.76-8.74,2.402c-6.409-0.739-11.205,1.406-14.946,6.698c-3.155,4.466-7.473,3.369-11.561,1.419
			c-2.724-1.298-5.275-2.95-7.902-4.447c-2.628-6.2-9.197-5.229-13.909-6.944c-17.33-6.308-35.021-11.574-53.272-2.829
			c-8.555-2.327-11.585-6.945-8.578-16.089c3.587-10.91,8.483-21.229,12.56-31.903c6.673-11.253,12.519-23.128,20.276-33.579
			c6.632-8.935,9.48-18.043,9.275-28.902c-0.182-9.465-1.729-19.193,1.148-28.402c14.224-45.524,36.967-86.231,69.367-121.42
			c3.871-4.202,7.649-8.438,9.205-14.408c5.6-21.487,7.493-43.499,7.884-65.474c0.636-35.519-2.23-71.047,0.28-106.614
			c0.602-8.532,2.994-9.928,10.228-7.019c9.589,3.854,19.263,7.508,28.963,11.082C369.702,280.888,399.59,267.715,418.457,274.59z"
			/>
		<path fill-rule="evenodd" clip-rule="evenodd" fill="#D14C43" d="M186.724,399.784c5.391-27.937,4.688-50.103,18.092-75.245
			c3.739-7.009,2.162-14.299,1.121-21.625c-6.137-43.112-12.708-86.215-7.057-129.962c1.291-9.997,1.674-20.508,7.746-28.964
			c9.214-12.832,8.001-27.722,8.957-41.991c0.582-8.685-6.668-15.204-10.916-22.392c-4.518-7.646-9.51-14.986-11.408-23.868
			c-5.394-25.239,7.387-45.856,35.147-53.017c3.556-0.916,7.097-2.081,10.756-2.41c27.692-2.49,34.432,10.336,45.864,25.748
			c2.983,4.019,2.492,7.175,2.81,12.664c0.229,3.955-0.746,5.662,5.237,11.677c2.311,2.321,5.639,2.844,5.248,6.954
			c-3.836,12.467,1.748,18.061,2.916,26.743c1.449,10.759-3.491,15.044-12.56,17.36c-5.087,1.3-13.509,1.98-11.36,8.461
			c1.98,5.979,8.913,10.805,13.564,9.402c13.432-4.052,20.389-13.795,38.182-23.936c11.519-9.292,22.096-22.661,31.917-33.689
			c3.078-3.453,5.988-5.669,10.458-5.993c-3.826,5.079-7.133,10.7-11.61,15.143c-11.27,11.182-15.691,23.601-9.184,38.808
			c-1.754,2.229-4.397,5.638-4.729,8.597c-2.125,18.925-7.123,12.899-11.893,19.63c-6.232,8.795-14.829,12.562-23.061,17.222
			c-14.005,7.927-14.033,9.472-7.944,19.497c4.675,7.695,11.866,10.16,12.498,19.981c-1.403,0.843,6.982,33.832,21.185,36.571
			c13.55,2.61,27.134,20.695,41.087,20.163c6.975-0.265,14.144,1.409,20.972,3.71c9.774,3.293,19.118,3.25,28.415-4.354
			c1.586-1.3,4.742,3.319,7.173,3.05c7.904,4.648,10.643,9.395,6.977,19.413c-3.726,10.182-9.88,9.704-20.354,12.918
			c-4.604,1.412-8.332,4.675-13.513,2.54c-25.553-3.295-53.598-7.646-53.598-7.646s-22.374-14.228-31.963-18.082
			c-7.233-2.909-9.626-1.514-10.228,7.019c-2.511,35.567,0.355,71.096-0.28,106.614c-0.391,21.975-2.284,43.986-7.884,65.474
			c-1.556,5.971-5.334,10.206-9.205,14.408c-32.4,35.188-55.144,75.896-69.367,121.42c-2.878,9.209-1.33,18.938-1.148,28.402
			c0.205,10.859-2.644,19.968-9.275,28.902c-7.758,10.451-13.604,22.326-20.276,33.579c0.999-14.404,2.001-28.808,3.001-43.211
			c-0.83-0.258-1.66-0.517-2.491-0.773c-6.801,10.116-13.81,20.1-20.358,30.377c-13.939,21.876-27.652,43.899-41.427,65.882
			c-2.901,4.629-6.251,9.09-8.388,14.061c-5.969,13.885-11.845,10.566-21.84,6.898c-3.244-1.19-6.234-4.994-9.353-1.649
			c-2.954,3.165-3.849,7.728-1.085,11.925c8.018,12.171,11.61,27.414,25.339,35.666c4.144,2.494,2.523,5.619-0.941,7.893
			c-7.462,4.895-15.847,3.938-23.064,1.096c-18.354-7.229-34.572-17.72-44.479-35.773c-1.345-2.448-2.729-4.812-2.914-7.668
			c-0.295-4.533-1.579-4.344-6.558-4.531c-10.159-0.382-13.153-12.438-20.673-18.021c-2.087-1.552-3.478-5.246-0.77-8.011
			c6.255-6.393,9.108-15.052,14.818-21.779c0.379-0.447,1.47-0.673,1.472-1.002c0.05-15.147,14.101-17.993,22.811-24.947
			c13.981-11.164,22.95-26.066,32.717-40.276c16.831-24.491,36.304-46.046,61.191-62.544c5.293-3.507,10.021-7.871,14.955-11.904
			c7.377-6.028,8.933-14.678,8.624-23.188c-0.762-20.88,1.303-41.704,4.581-62.46C179.568,473.674,183.362,417.204,186.724,399.784z
			"/>
		<path fill-rule="evenodd" clip-rule="evenodd" fill="#3E456D" d="M350.645,109.652c-6.508-15.207-2.086-27.626,9.184-38.808
			c4.478-4.442,7.784-10.063,11.61-15.143c1.307-2.729,3.539-4.805,6.465-3.77c2.812,0.996,2.229,3.991,1.647,6.448
			c-0.697,2.942,0.421,5.725,1.838,7.896c5.822,8.924,1.832,17.604-1.743,25.181c-5.793,12.282-6.328,16.972,1.627,27.115
			c3.569,4.552,7.113,9.13,10.496,13.821c3.473,4.818,6.956,4.516,8.158-0.992c4.6-21.106,22.074-32.51,35.134-47.133
			c3.024-3.386,6.055-6.906,8.7-10.482c4.495-6.08,10.632-6.401,15.466-3.43c15.456,9.506,31.656,18.248,38.939,36.96
			c5.728,14.712,4.231,42.624-13.049,52.769c-9.083,5.331-16.687,12.668-28.146,14.419c-8.758,1.339-10.858,10.214-11.948,18.532
			c-2.243,17.158-2.439,44.788-10.677,60.689c-2.431,0.262-5.587-0.357-7.173,0.942c-9.297,7.604-18.641,4.647-28.415,1.354
			c-6.828-2.301-13.997,0.025-20.972,0.29c-13.953,0.532-27.537-11.553-41.087-14.163c-14.202-2.739-25.521-15.861-36.994-23.446
			c-15.576-10.3-30.312-7.437-45.176-3.37c-6.303,1.725-3.973-0.536,1.173-7.439c1.368-1.837,2.751-2.832,1.659-5.702
			c-1.059-2.788-2.051-3.267-4.88-3.846c-3.3-0.675-8.384,3.996-8.336-0.268c0.048-4.391,6.197-4.894,10.56-5.01
			c9.513-0.255,18.982,2.268,28.464,1.143c9.444-1.12,29.942,6.21,31.345,5.358c7.721,1.803,14.77,0.774,22.089,3.62
			c11.153,4.336,20.667,0.22,30.895-6.144c7.512-4.674,9.788-9.844,8.586-18.123c-1.303-8.975-5.911-16.59-9.056-24.778
			C361.361,139.385,360.23,122.951,350.645,109.652z"/>
		<path fill-rule="evenodd" clip-rule="evenodd" fill="#D14C43" d="M190.251,716.673c18.252-8.745,35.942-3.479,53.272,2.829
			c4.712,1.715,11.281,0.744,13.909,6.944c-3.217,7.501,0.36,12.538,5.9,17.126c9.135,7.563,18.949,13.188,31.348,12.435
			c0.915-0.056,1.924-0.165,2.749,0.138c6.321,2.328,15.454,2.65,14.692,11.956c-0.645,7.847-9.189,7.183-14.51,7.441
			c-22.282,1.079-44.701,2.114-66.21-5.935c-1.97-0.736-4.826-2.581-5.63-0.16c-3.573,10.77-12.39,5.47-18.911,6.354
			c-5.69,0.771-12.707,1.803-17.124-0.755c-4.91-2.843-0.187-10.249-1.711-15.549C183.863,744.996,189.101,730.93,190.251,716.673z"
			/>
		<path fill-rule="evenodd" clip-rule="evenodd" fill="#3E456D" d="M409.371,525.883c4.688-14.947-0.201-26.847,9.226-39.207
			c4.542-5.953,13.748-8.926,21.396-11.737c5.894-2.167,8.15-3.437,5.044-10.113c-10.579-22.724,2.867-43.925-5.785-67.379
			c-2.597-7.034-1.459-13.077,2.76-18.893c11.586-15.972-8.664-36.567-11.547-54.205c-9.202-56.289,20.576-95.747,14.452-132.713
			c-0.285-1.699,0.325-3.547,0.518-5.327c-13.643,0.712-8.924,13.564-18.676,19.967c-5.037,3.309-10.39,7.397-10.255,14.785
			c1.64,14.834-1.068,29.537-2.268,44.15c-4.718,57.555-23.625,114.577-34.956,171.212c-0.251,1.269-0.674,2.553-0.932,3.681
			c0.043,0.955,0.142,1.908,0.166,2.863c-0.528-0.626-0.442-1.653-0.166-2.863C377.21,416.08,405.376,538.607,409.371,525.883z"/>
	</g>
</g>
<g id="Layer_21">
</g>
<g id="Layer_22">
</g>
<g id="Layer_23">
</g>
<g id="Layer_10_copy">
</g>
<g id="Layer_11_copy">
</g>
<g id="Layer_12_copy">
</g>
<g id="Layer_13_copy">
</g>
<g id="Layer_14_copy">
</g>
<g id="Layer_15_copy">
</g>
<g id="Layer_16_copy">
	<g>
		<path fill-rule="evenodd" clip-rule="evenodd" fill="#D14C43" d="M398.327,1265.738c-1.991,21.434-4.335,42.828-6.728,64.195
			c-2.373,21.152-2.9,42.479-5.834,63.576c-1.645,11.855-0.799,23.947,1.239,35.934c6.72,39.498,7.097,57.451,27.134,91.953
			c1.594,2.748,0.291,2.242,0.795,5.496c5.32,6.904-0.579-6.742,1.535,1.998c1.332,5.516,1.078,11.146-0.863,15.74
			c-5.061,11.973-3.743,24.256-3.084,36.627c1.734,4.453,1.829,8.883,0.058,13.289c-0.269,2.592-2.091,3.859-4.2,4.213
			c-11.672,1.961-23.316,1.703-34.864-1.553c-2.402-4.939-1.419-9.873-0.206-14.807c3.788-13.289,2.855-27.158,3.979-40.768
			c0.741-8.975-0.771-9.818-8.8-6.578c-3.49,1.404-6.909,3.281-10.551,3.973c-9.924,1.883-10.492,4.365-16.266-5.953
			c-9.004-16.092-17.223-54.496-19.146-58.799c-1.254,10.322-1.343,50.176-4.289,58.014c-3.346,8.906-4.277,17.479-1.798,27.271
			c2.509,9.916-1.282,13.701-11.106,13.393c-14.806-0.471-29.566,2.498-44.391-0.287c-9.771-1.834-13.926-4.281-7.875-11.922
			c2.203-2.779,9.285-5.061,12.043-7.072c12.286-8.969,10.715-22.521,7.037-35.691c0.941-49.803,7.725-92.176,13.297-106.826
			c2.297-6.041,2.184-11.457-0.733-16.867c-4.958-9.182-5.568-19.293-6.216-29.219c-3.316-19.414-4.363-24.287-7.444-44.08
			c-0.333-2.139-18.798-85.594-9.878-105.232l0.061-3.227c2.102-12.92-1.339-25.881-2.801-38.744
			c-2.041-18.002-4.455-35.979-6.793-53.939c-2.118-16.271-3.274-32.699-6.4-48.855c-0.326-1.695-0.462-3.412-0.483-5.133
			c-0.194-14.604-4.466-27.318-15.438-37.568c-6.217-5.809-23.609-17.842-29.528-18.496c-24.952-2.75-45.575-11.672-74.807-14.406
			c-4.07-0.381-35.179-27.561-43.827-41.33c-5.074-8.082-5.08-7.738-10.567-18.219c-7.515-14.352-8.718-12.498-9.785-17.279
			c-2.906-13.025,3.019-14.604,5.929-14.133c7.518-0.146,10.238-5.199,14.714-10.375c0.032-1.889,0.273-3.922,0.22-5.602
			c-0.098-3.146-2.179-7.785,2.127-7.861c2.673-0.047,4.994,4.514,5.928,8.07c0.361,1.371,0.309,2.852,0.443,4.283
			c0.785,6.701,3.967,8.385,4.535,12.824c1.834,14.273,6.74,17.445,15.843,29.715c17.093,23.041,64.601,16.682,69.239,16.631
			c19.508-0.221,35.946-11.107,55.303-13.158c14.371-1.523,28.081-6.617,40.143-15.258c4.863-3.486,6.023-7.568,4.003-13.744
			c-4.049-12.385-7.813-24.936-10.538-37.662c-2.638-12.326-0.276-24.787,1.334-37.049c1.033-7.838,1.582-16.123,7.706-22.105
			c20.641-20.16,53.063-17.018,67.755,8.77c3.074,5.396,2.787,11.447,2.943,17.254c0.397,14.662,1.872,29.045-8.293,42.141
			c-7.559,9.734-7.83,17.428-2.988,29.248c1.883,5.764,17.746,20.814,19.936,23.316c24.042,14.914,17.266,14.666,41.166,14.521
			c3.844-0.025,34.11,1.82,43.824,5.773c3.651,4.127,60.055,31.451,64.578,31.117c15.584,9.799,2.484,14.24-4.977,31.199
			c-0.684,1.555-21.66,18.49-28.543,26.455c-8.049,9.311-62.297,29.125-71.551,32.719c-0.844,0.324,3.512-11.264,5.154-16.992
			c3.027-10.557,37.007-34.867,29.623-36.209c-12.521-6.73-46.096,7.537-46.998,12.199c-3.627,18.717-6.975,45.848-10.457,64.596
			c-0.67,3.605-1.259,7.24-2.127,10.787c-1.412,5.744-0.533,11.01,1.785,16.453c16.451,38.656,18.357,67.428,25.396,108.781
			L398.327,1265.738z"/>
	</g>
</g>
<g id="Layer_17_copy">
</g>
<g id="Layer_18_copy">
</g>
<g id="Layer_19_copy">
</g>
<g id="Layer_20_copy">
</g>
<g id="Layer_21_copy">
</g>
<g id="Layer_22_copy">
</g>
<g id="Layer_23_copy">
</g>
<g id="Layer_24">
</g>
<g id="Layer_25">
</g>
<g id="Layer_26">
</g>
<g id="Layer_27">
</g>
<g id="Layer_0-6_copy">
</g>
<g id="Layer_0-5_copy">
</g>
<g id="Layer_0-4_copy">
</g>
<g id="Layer_0-3_copy">
</g>
<g id="Layer_0-2_copy">
</g>
<g id="Layer_0-1_copy">
</g>
<g id="Layer_0-0_copy">
</g>
</svg>
