<?xml version="1.0" encoding="utf-8"?>
<!-- Generator: Adobe Illustrator 16.0.0, SVG Export Plug-In . SVG Version: 6.00 Build 0)  -->
<!DOCTYPE svg PUBLIC "-//W3C//DTD SVG 1.1//EN" "http://www.w3.org/Graphics/SVG/1.1/DTD/svg11.dtd">
<svg version="1.1" xmlns="http://www.w3.org/2000/svg" xmlns:xlink="http://www.w3.org/1999/xlink" x="0px" y="0px" width="600px"
	 height="800px" viewBox="0 0 600 800" enable-background="new 0 0 600 800" xml:space="preserve">
<g id="Layer_0-0">
</g>
<g id="Layer_0-1">
</g>
<g id="Layer_0-2">
</g>
<g id="Layer_0-3">
</g>
<g id="Layer_0-4">
</g>
<g id="Layer_0-5">
</g>
<g id="Layer_0-6">
</g>
<g id="Layer_1">
</g>
<g id="Layer_2">
</g>
<g id="Layer_3">
	<g>
		<path fill-rule="evenodd" clip-rule="evenodd" fill="#D14C43" d="M396.068,202.957c-8.938,8.428-18.9,12.085-31.427,12.691
			c-27.812,1.347-55.541,4.426-83.302,6.83c-3.866,0.334-7.027,0.072-9.195,5.408c-15.103,37.148-19.823,75.221-12.252,114.703
			c3.213,16.756,8.086,31.926,23.334,24.019c8.078-4.189,17.194,6.802,23.572,0.454c14.672-14.605,33.723-19.594,47.145-35.359
			c5.33-6.264,2.68-52.605,5.031-60.344c0.721-5.281,1.227-10.604,2.203-15.839c5.689-30.544,5.725-30.536,35.676-34.911
			c21.914-5.559,50.541-10.377,57.574-24.899C461.379,163.979,404.522,194.986,396.068,202.957z"/>
		<path fill-rule="evenodd" clip-rule="evenodd" fill="#D14C43" d="M382.279,158.477c55.072,35.873-4.471,31.926-23.35,35.42
			c-34.287,6.346-89.994-10.262-123.83-11.539c-21.748-0.82-28.24-16.43-39.385-31.869c9.602-3.625,14.406-9.051,24.328-10.506
			c21.177-3.104,27.644-18.106,28.996-35.322c0.694-8.836-4.67-18.445-8.394-27.242c-3.317-7.836-8.169-15.252-8.886-23.796
			c-1.364-16.267,0.836-32.575,15.219-42.354c15.275-10.384,27.43-14.892,44.909-7.905c16.021,6.404,22.037,23.568,26.616,38.806
			c4.202,13.983,2.062,28.653,1.111,43.249c-0.611,9.422-3.979,11.59-11.676,14.536c-9.754,3.733-7.84,4.917-4.201,22.621
			c4.025,19.587,17.885,18.246,30.053,21.528C350.092,148.506,367.101,150.287,382.279,158.477z"/>
		<path fill-rule="evenodd" clip-rule="evenodd" fill="#3E456D" d="M524.564,81.639c-8.211-0.943-17.408,0.335-18.312-15.748
			c-6.051,14.672-11.556,25.053-11.22,36.752c0.215,7.482-2.041,12.981-7.233,17.721c-16.37,14.928-32.493,30.211-53.839,38.113
			c-13.005,4.909-22.277,17.945-36.501,19.178c-23.445,2.031-46.535,9.025-70.597,4.404c-9.967-1.914-20.238-3.834-30.629-3.228
			c-15.652,0.91-29.073-3.114-38.83-16.552c-3.661-5.043-9.602-7.956-14.541-11.791c-6.725-15.243-11.233-18.072,2.873-24.105
			c6.768-2.895,12.595-2.907,8.543-15.205c-2.664-8.087-1.67-19.474-5.244-23.641C238.65,75.431,241.83,63.811,233.094,52.9
			c-11.459-14.311-20.382-18.445-37.311-11.455c-13.719,5.667-21.533,3.557-31.924,16.368
			c-15.268,18.827-15.871,29.102-4.103,46.181c3.933,5.707,8.058,9.791,9,18.799c0.989,9.453,9.754,13.685,15.956,15.568
			c4.062,1.233,4.891,0.011,8.693,4.975c3.623,4.729-1.164,8.816-4.125,12.134c-5.495,6.155-11.976,10.159-21.111,9.306
			c-36.499-3.404-62.677,1.783-99.311-1.08c-7.412-0.582-14.909,4.746-16.514,13.447c-1.785,9.678,5.717,13.596,12.799,16.574
			c15.387,6.469,21.567,19.387,38.129,21.49c2.553-5.198,7.043-1.398,13.414-1.664c17.926-0.746,33.859,0.284,45.812,15.543
			c9.239,11.793,20.94,14.098,37.029,14.044c12.659-0.041,19.099,8.3,20.903,22.103c0.495,3.785,2.898,6.516,5.129,9.324
			c4.227,5.321,7.708,5.637,10.177,11.97c1.517,3.892,6.585,9.409,3.216,12.538c-4.037,3.752-11.446-5.375-14.836-6.965
			c-8.777-4.117-13.302-14.35-21.562-19.043c-4.782-2.718-14.456-8.344-19.916,0.215c-0.099,3.648,5.167,16.322,6.665,19.562
			c7.585,16.383,5.707,31.794-2.106,47.886c-10.167,20.938-13.706,43.672-13.438,66.936c0.085,7.316-0.837,14.253-4.979,20.634
			c-13.857,21.337-15.119,44.212-20.024,67.888c0.085,1.243,0.007,2.277-0.616,2.814c0.176-0.942,0.423-1.874,0.616-2.814
			c-0.077-1.161-0.296-2.502-0.349-3.805c-2.351-58.018-11.305-116.039-6.946-173.934c1.106-14.701,0.725-29.727,4.685-44.201
			c1.297-7.314-3.378-12.217-7.861-16.291c-8.678-7.889-11.9-21.484-25.34-24.334c-0.087,1.797,0.228,3.729-0.32,5.373
			c-14.869,44.696-25.405,89.327-40.178,134.057c-5.635,17.061-6.348,34.329,2.648,52.012c3.275,6.436,3.455,12.616-0.227,19.191
			c-12.281,21.932-5.143,46.002-19.217,66.908c-4.135,6.142-2.094,7.758,3.418,10.834c7.153,3.996,6.763,7.486,10.336,14.111
			c7.42,13.756,9.926,24.804,12.234,40.383c1.967,13.266,20.536,24.93,4.379,39.213c6.045,1.686,10.225,3.342,14.551,3.953
			c8.086,1.15,8.928,5.291,4.549,10.883c-11.821,15.084-5.077,27.293,3.08,42.551c3.177,5.943,5.5,11.857,2.779,19.204
			c-9.901,26.733-7.945,51.191-11.743,79.272c-1.198,8.867,2.107,11.856,9.122,13.677c8.188,2.126,15.96-2.595,21.732-0.845
			c18.314,5.549,23.377,5.521,41.938,7.594c17.741,1.979,35.4,4.696,53.076,7.219c23.793,3.393,20.712-5.119,44.282-5.055
			c16.93,0.044,24.771-5.404,41.752-5.824c11.752-0.293,15.237-12.854,26.249-12.8c0.57,0.003,9.113-4.671,10.709-4.711
			c11.74-0.302,6.299,6.886,13.86,5.678c7.41-1.185,6.065,1.372,13.267-3.167c12.33-7.77,20.098,2.357,26.969,0.606
			c7.162-1.821,10.943-13.157,15.895-9.569c0.719,0.523,24.395-10.469,20.266-23.409c-4.808-15.071-14.58-28.173-16.219-44.429
			c-2.027-20.088-5.252-40.051-7.958-60.068c-0.233-10.75-3.208-21.182-3.761-31.889c-4-13.256-6.861-26.885-12.347-39.654
			c-3.645-8.482-2.721-14.485,6.954-17.791c9.23-3.154,13.016-10.248,12.879-19.795c-0.301-21.425,5.688-42.686,2.923-64.191
			c0.237-15.291-0.977-30.77,0.965-45.841c8.043-62.375,44.95-124.552,45.362-187.669c0.043-6.566-1.482-13.668,6.163-16.965
			c-2.366-21.625,0.527-42.084,18.773-57.848c7.47-6.455,14.229-13.775,20.995-21.007c3.733-3.987,6.248-7.497,3.335-14.166
			c-3.403-7.788,0.823-15.337,8.108-19.271c5.92-3.195,9.907-7.443,12.836-13.143C534.591,81.977,529.234,82.175,524.564,81.639z
			 M387.006,291.756c-13.421,15.766-26.979,31.369-41.651,45.974c-6.377,6.349-13.021,12.472-21.099,16.661
			c-15.248,7.906-21.257,4.955-24.47-11.801c-7.571-39.482-2.851-77.555,12.253-114.703c2.168-5.336,5.329-5.074,9.194-5.408
			c27.761-2.404,55.491-6.391,83.302-7.736c12.527-0.607,22.489-4.264,31.428-12.691c8.453-7.971,7.107-3.81,17.256-10.42
			C448.527,201.315,395.756,281.475,387.006,291.756z"/>
		<path fill-rule="evenodd" clip-rule="evenodd" fill="#D14C43" d="M476.034,198.152c-1.88-0.869-3.991,1.528-3.55-0.947
			c3.25-18.23-6.535-32.275,9.758-46.905c9.686-8.698,18.941-17.88,28.249-26.987c1.592-1.557,4.801-2.791,2.494-6.266
			c-7.578-11.405-3.626-22.408,10.518-27.461c4.997-1.785,2.574-12.213,11.14-8.709c16.021,5.115,16.756,7.48,6.422,19.921
			c-2.285,2.751-5.026,5.296-7.229,7.953c-9.403,11.342-14.886,18.056-16.406,32.548c-6.187,21.168-4.978,34.465-23.046,49.701
			C487.369,195.408,488.369,196.266,476.034,198.152z"/>
		<path fill-rule="evenodd" clip-rule="evenodd" fill="#D14C43" d="M100.448,220.613c-3.37-7.65,0.097-6.322,5.22-6.786
			c22.343-2.025,42.712-1.351,58.439,17.966c6.737,8.275,15.963,12.187,27.53,9.445c14.527-3.445,22.302,9.281,32.881,15.248
			c0.667,0.377,0.661,2.95,0.51,3.103c-9.997,10.029,6.904,10.548,9.089,17.43c1.576,4.964,8.022,5.139,9.327,10.105
			c1.213,4.619,1.198,11.032-1.212,14.755c-2.894,4.467-17.493-0.979-21.17-1.463c-9.564-1.258-14.101-8.256-20.507-13.349
			c-5.873-4.671-11.62-10.034-19.856-10.371c-6.398,1.457-2.834,2.595-9.011,5.183c-14.146,5.929-16.827,4.691-24.907-9.472
			c-11.98-11.419-23.961-22.837-35.941-34.255C105.234,233.574,100.944,228.217,100.448,220.613z"/>
		<path fill-rule="evenodd" clip-rule="evenodd" fill="#3E456D" d="M148.408,492.371c-2.351-58.018-11.305-116.039-6.946-173.934
			c1.106-14.701,9.725-89.727,13.685-104.201c1.297-7.314-3.378-12.217-7.861-16.291c-8.678-7.889-3.9-21.484-17.34-24.334
			c-0.087,1.797,0.228,3.729-0.32,5.373c-14.869,44.696-42.405,149.327-57.178,194.057c-5.635,17.061-6.348,34.329,2.648,52.012
			c3.275,6.436,3.455,12.616-0.227,19.191c-12.281,21.932-5.143,46.002-19.217,66.908c-4.135,6.142-2.094,7.758,3.418,10.834
			c7.153,3.996,6.763,7.486,10.336,14.111C76.826,549.854,148.461,493.674,148.408,492.371z"/>
	</g>
</g>
<g id="Layer_4">
</g>
<g id="Layer_5">
</g>
<g id="Layer_6">
</g>
<g id="Layer_7">
</g>
<g id="Layer_8">
</g>
<g id="Layer_9">
</g>
<g id="Layer_10">
</g>
<g id="Layer_11">
</g>
<g id="Layer_12">
</g>
<g id="Layer_13">
	<g>
		<path fill-rule="evenodd" clip-rule="evenodd" fill="#D14C43" d="M480.558,1569.121c-2.475-8.557-0.981-17.523-2.832-26.121
			c-0.122-0.57-0.96-1.278-0.812-1.571c6.868-13.376-3.938-22.445-8.27-32.643c-6.953-16.37-11.686-33.696-13.618-50.786
			c-3.326-29.451-9.32-57.544-23.237-83.708c0,0-19.459-35.358-19.253-41.15c0.743-20.83-1.467-40.651-0.661-62.312
			c0.041-1.074,5.615-69.073,2.338-86.453c-5.257-27.869-9.326-38.308-22.395-63.391c-3.645-6.993-2.106-14.266-1.091-21.574
			c5.983-43.011,12.389-86.011,6.879-129.654c-1.259-9.975-1.594-20.485-7.552-28.896c-17.252-24.363-14.406-27.656-15.337-41.893
			c-0.569-8.664,11.219-15.168,15.359-22.339c4.406-7.628,9.272-14.951,11.123-23.812c5.259-25.18-5.314-42.918-32.383-50.061
			c-3.464-0.914-6.918-2.076-10.483-2.404c-27.002-2.484-33.571,8.423-44.72,23.8c-2.908,4.009-2.429,7.158-2.738,12.633
			c-0.224,3.947,0.728,4.707-5.106,10.707c-2.252,2.315-5.497,2.837-5.115,6.938c3.738,12.438-1.707,18.018-2.846,26.681
			c-1.413,10.732,3.406,15.008,12.247,17.318c4.959,1.298,20.919,4.231,16.739,17.877c-1.837,5.994-44.115,27.485-44.73,37.284
			l-22.605,19.151c-13.21,2.605-79.146,10.101-88.208,2.514c-1.548-1.295-4.626-0.679-6.995-0.947
			c-1.367,0.824-6.465-0.763-7.168-3.472c-1.504-5.782-6.681-1.805-5.31,2.994c1.005,3.521,0.956,7.558-1.496,9.986
			c-2.403,2.373-6.264,6.016-8.563,2.668c-4.975-7.234-8.287-0.063-13.635-5.663c-1.87-1.958-5.105-5.133-6.69-1.84
			c-2.67,5.544-2.407,12.489-1.72,18.812c0.485,4.461,2.516,7.962,6.006,8.585c7.544,1.347,15.077,2.963,22.677,3.632
			c3.026,0.266,6.846-1.098,10.714-3.319c6.575,9.574,26.844,20.289,31.402,18.367c18.396-6.859,74.071,19.369,83.421,15.523
			c7.052-2.902,9.386,17.36,9.972,25.872c2.448,35.484-0.347,70.928,0.272,106.363c0.382,21.922,2.228,43.882,7.687,65.318
			l44.92,274.076c3.137,7.484,2.503,16.399-2.9,20.977c-8.906,7.547-15.324,6.404-16.128,6.706
			c-6.164,2.322-11.532-0.623-15.276,9.009c-2.84,7.298-0.547,11.057,4.641,11.314c21.724,1.078,30.005,6.293,55.043,4.782
			c1.922-0.735,4.432-2.464,5.489-0.16c3.225,7.022,12.081,5.457,18.438,6.339c0.391,0.056,0.789,0.111,1.188,0.165
			c-6.538,4.453-13.429,8.215-21.991,8.691c-4.709,0.264-4.738,3.774-2.79,7.396c4.196,7.8,11.856,10.87,19.373,11.735
			c19.112,2.197,37.874,0.518,54.646-10.775c2.275-1.53,4.548-2.969,6.009-5.398c2.322-3.86,3.343-3.094,7.718-0.934
			c8.928,4.406,17.009-4.825,26.034-6.236C478.746,1575.432,481.629,1572.822,480.558,1569.121z M404.275,1559.834
			c-0.212-1.708-0.289-3.399,0.139-4.918c0.761-2.717,1.201-5.418,1.404-8.108c0.925,0.384,1.656,1.136,2.041,2.593
			C408.877,1553.254,407.83,1557.336,404.275,1559.834z"/>
	</g>
</g>
<g id="Layer_14">
</g>
<g id="Layer_15">
</g>
<g id="Layer_16">
</g>
<g id="Layer_17_1_">
</g>
<g id="Layer_18_1_">
</g>
<g id="Layer_19">
</g>
<g id="Layer_20">
</g>
<g id="Layer_21">
</g>
<g id="Layer_22">
</g>
<g id="Layer_23">
</g>
<g id="Layer_10_copy">
</g>
<g id="Layer_11_copy">
</g>
<g id="Layer_12_copy">
</g>
<g id="Layer_13_copy">
</g>
<g id="Layer_14_copy">
</g>
<g id="Layer_15_copy">
</g>
<g id="Layer_16_copy">
</g>
<g id="Layer_17_copy">
</g>
<g id="Layer_18_copy">
</g>
<g id="Layer_19_copy">
</g>
<g id="Layer_20_copy">
</g>
<g id="Layer_21_copy">
</g>
<g id="Layer_22_copy">
</g>
<g id="Layer_23_copy">
</g>
<g id="Layer_24">
</g>
<g id="Layer_25">
</g>
<g id="Layer_26">
</g>
<g id="Layer_27">
</g>
<g id="Layer_0-6_copy">
</g>
<g id="Layer_0-5_copy">
</g>
<g id="Layer_0-4_copy">
</g>
<g id="Layer_0-3_copy">
</g>
<g id="Layer_0-2_copy">
</g>
<g id="Layer_0-1_copy">
</g>
<g id="Layer_0-0_copy">
</g>
</svg>
