<?xml version="1.0" encoding="utf-8"?>
<!-- Generator: Adobe Illustrator 16.0.0, SVG Export Plug-In . SVG Version: 6.00 Build 0)  -->
<!DOCTYPE svg PUBLIC "-//W3C//DTD SVG 1.1//EN" "http://www.w3.org/Graphics/SVG/1.1/DTD/svg11.dtd">
<svg version="1.1" xmlns="http://www.w3.org/2000/svg" xmlns:xlink="http://www.w3.org/1999/xlink" x="0px" y="0px" width="600px"
	 height="800px" viewBox="0 0 600 800" enable-background="new 0 0 600 800" xml:space="preserve">
<g id="Layer_0-0">
</g>
<g id="Layer_0-1">
</g>
<g id="Layer_0-2">
</g>
<g id="Layer_0-3">
</g>
<g id="Layer_0-4">
</g>
<g id="Layer_0-5">
</g>
<g id="Layer_0-6">
</g>
<g id="Layer_1">
</g>
<g id="Layer_2">
</g>
<g id="Layer_3">
</g>
<g id="Layer_4">
</g>
<g id="Layer_5">
</g>
<g id="Layer_6">
</g>
<g id="Layer_7">
</g>
<g id="Layer_8">
</g>
<g id="Layer_9">
</g>
<g id="Layer_10">
</g>
<g id="Layer_11">
</g>
<g id="Layer_12">
	<g>
		<path fill-rule="evenodd" clip-rule="evenodd" fill="#D14C43" d="M545.412-85.01c4.676-8.958,2.68-16.866-0.12-25.702
			c-2.5-7.891-28.187-132.075-29.967-135.397c-6.001-11.199-12.291-22.269-13.402-35.315c0.35-0.896-3.534-8.335-3.534-8.335
			s-1.044,0.836-1.684,1.971c-18.356,4.74-37.761-2.956-56.14,5.986c-10.546,5.132-15.235,7.434-13.075,16.024
			c1.903,7.566,5.603,14.663,7.916,22.152c3.717,12.032,11.21,23.239,10.815,36.104c-0.356,11.628,1.591,21.981,7.183,32.173
			c4.162,7.582,8.667,14.862,13.438,22.05c5.695,8.577,3.802,12.736-6.434,15.301c-1.238,0.311-2.676,0.146-3.754,0.711
			c-9.303,4.848-25.315,1.547-23.94,19.545c0.055,0.724-0.971,1.611-1.625,2.293c-4.827,5.03-9.386,10.377-14.646,14.909
			c-3.612,3.113-2.846,5.787-1.071,9.049c13.201-1.452,22.396-8.191,29.004-19.838c6.8-11.985,19.97-15.464,31.381-9.613
			c1.589,0.815,2.317,2.143,2.497,3.8c0.139,1.269,0.137,2.559,0.122,3.84c-0.148,14.011-0.425,28.156,7.22,40.649
			c6.216,10.16,5.064,19.46-0.77,29.288c-7.02,11.821-15.389,21.881-28.722,26.779c-3.262,2.502-3.343,1.854-5.819,6.206
			c0.012,4.835,9.616,8.749,12.544,9.226c22.223,3.616,45.402-0.669,56.163-21.256l0.125-0.105c4.106-4.836,9.06-6.575,13.399-7.426
			c8.395-1.643,19.718-2.62,21.013-12.042c1.536-11.208,2.926-16.498-2.52-28.047C548.791-74.735,542.361-79.162,545.412-85.01z"/>
	</g>
</g>
<g id="Layer_13">
</g>
<g id="Layer_14">
</g>
<g id="Layer_15">
</g>
<g id="Layer_16">
</g>
<g id="Layer_17_1_">
</g>
<g id="Layer_18_1_">
</g>
<g id="Layer_19">
</g>
<g id="Layer_20">
</g>
<g id="Layer_21">
</g>
<g id="Layer_22">
	<g>
		<path fill-rule="evenodd" clip-rule="evenodd" fill="#D14C43" d="M417.726,215.375c-9.486,8.944-20.059,12.824-33.352,13.468
			c-29.512,1.43-58.939,4.696-88.398,7.247c-4.104,0.354-7.457,0.077-9.758,5.741c-16.025,39.419-21.035,79.822-13.002,121.72
			c3.41,17.781,8.58,33.879,24.762,25.488c8.572-4.445,18.246,7.219,25.016,0.481c15.568-15.499,35.785-20.792,50.027-37.522
			c5.656-6.646,2.846-55.824,5.342-64.035c0.764-5.604,1.299-11.254,2.338-16.809c6.035-32.412,6.074-32.405,37.857-37.049
			c23.254-5.896,44.012-11.011,51.477-26.422C477.409,174.011,426.696,206.916,417.726,215.375z"/>
		<path fill-rule="evenodd" clip-rule="evenodd" fill="#D14C43" d="M152.349,168.172c-58.443,38.068,4.744,33.881,24.777,37.588
			c36.387,6.733,105.123-1.269,141.029-2.624c23.08-0.868,168.982,11.28,80.281-33.818c-10.191-3.848-63.396-19.226-73.926-20.771
			c-22.473-3.292-29.334-19.214-30.77-37.484c-0.738-9.375,4.957-19.574,8.906-28.908c3.521-8.315,8.67-16.186,9.43-25.253
			c1.449-17.261-0.885-34.565-16.15-44.944c-16.211-11.019-29.105-15.803-47.656-8.388c-17,6.794-23.387,25.011-28.246,41.181
			c-4.459,14.838-2.186,30.403-1.18,45.893c0.65,9.999,4.223,12.301,12.391,15.428c10.354,3.961,8.322,5.217,4.459,24.004
			c-4.27,20.786-18.979,19.361-31.891,22.848C186.505,157.591,168.456,159.482,152.349,168.172z"/>
		<path fill-rule="evenodd" clip-rule="evenodd" fill="#D14C43" d="M439.081,238.181c-1.996-0.925-44.646,1.62-44.178-1.006
			c3.449-19.347,46.945-43.872,64.234-59.397c10.279-9.231,20.102-18.975,29.98-28.639c1.689-1.653,5.094-2.963,2.645-6.648
			c-8.041-12.104-3.846-23.779,11.162-29.141c5.303-1.896,2.732-12.961,11.822-9.243c17,5.429,17.781,7.938,6.812,21.14
			c-2.424,2.919-5.332,5.619-7.67,8.441c-9.98,12.035-16.76,19.158-18.371,34.537c-9.453,29.358-11.857,31.766-30.23,52.744
			C457.845,225.646,452.171,236.178,439.081,238.181z"/>
		<path fill-rule="evenodd" clip-rule="evenodd" fill="#D14C43" d="M217.517,723.361c-5.807,4.069-29.652,43.627-23.832,49.596
			c8.928,10.176,15.943,7.584,39.67-5.605L217.517,723.361z"/>
		<path fill-rule="evenodd" clip-rule="evenodd" fill="#3E456D" d="M500.499,106.664c-8.713-1.001-18.473,0.355-19.432-16.713
			c-6.42,15.57-12.264,26.586-11.906,39.002c0.229,7.938-2.166,13.775-7.676,18.804c-17.373,15.843-19.385,33.197-42.037,41.583
			c-13.801,5.209-24.602,11.346-39.695,12.653c-24.881,2.157-29.178-1.969-54.713-6.871c-10.574-2.031-21.475-4.068-32.5-3.426
			c-16.611,0.966-40.475-3.305-50.828-17.563c-3.887-5.352-10.189-8.443-15.432-12.513c-7.135-16.176-11.92-19.181,3.049-25.581
			c7.182-3.07,13.365-3.085,9.066-16.137c-2.826-8.58-1.771-20.664-5.566-25.086c-11.02-12.847-7.645-25.178-16.916-36.756
			c-12.158-15.187-21.627-19.574-39.592-12.155c-14.559,6.013-22.852,3.774-33.879,17.369
			c-16.201,19.978-16.842,30.882-4.354,49.008c4.174,6.055,8.551,10.39,9.553,19.948c1.049,10.031,10.35,14.52,16.932,16.52
			c4.309,1.31,5.189,0.012,9.225,5.278c3.844,5.019-1.234,9.356-4.377,12.878c-5.832,6.532-12.707,5.008-22.404,4.102
			c-38.732-3.612-18.404-21.201-57.279-24.239c-7.867-0.616-15.82,5.036-17.523,14.271c-1.895,10.27-1.588,21.234,3.961,27.211
			c14.471,15.586,11.34,18.647,28.916,20.879c7.684-0.482,9.396,0.44,16.158,0.159c19.021-0.79,16.688,19.545,29.371,35.737
			c9.805,12.515,27.166,37.81,21.373,46.891c-0.105,3.871,5.484,17.32,7.074,20.758c8.047,17.385,6.055,33.74-2.236,50.815
			c-10.791,22.22-14.545,46.344-14.26,71.03c0.092,7.766-0.889,15.126-5.285,21.897c-14.703,22.644-16.043,46.917-21.248,72.041
			c0.09,1.319,0.006,2.417-0.654,2.987c0.188-1,0.449-1.988,0.654-2.987c-0.084-1.231-0.621-2.677-0.371-4.036
			c19.439-105.076,7.246-123.14,11.873-184.577c1.174-15.601-8.854-50.789-4.652-66.149c1.379-7.762-3.582-12.964-8.34-17.287
			c-9.211-8.373-3.01-22.799-17.27-25.822c-8.033,1.472-9.381,3.956-9.961,5.701c-15.779,47.431,21.146,114.036,5.471,161.502
			c-5.98,18.105-16.357,36.43-6.811,55.193c3.477,6.83,3.666,13.389-0.24,20.366c-13.033,23.274-15.08,48.817-30.016,71.003
			c-4.387,6.518-2.221,8.232,3.627,11.497c7.592,4.24,7.176,7.944,10.969,14.974c7.875,14.598,10.533,26.322,12.984,42.854
			c2.086,14.077,6.057,12.229,14.713,28.421c3.371,6.307,5.836,12.584,2.951,20.379c-10.508,28.369-18.055,48.551-22.086,78.35
			c-1.27,9.41,2.236,11.62,9.682,13.552c8.689,2.257,16.936-5.64,23.062-3.782c19.434,5.889-2.133,5.859,17.562,8.059
			c18.828,2.098,56.809,4.982,75.566,7.66c25.25,3.6,14.281,10.926,39.295,10.993c17.965,0.047,35.908,23.13,53.93,22.685
			c12.471-0.311,16.17-13.641,27.854-13.582c0.607,0.004,9.672-4.957,11.365-5c12.457-0.32,6.684,7.307,14.709,6.025
			c7.861-1.257,6.436,1.455,14.078-3.36c13.084-8.245,21.326,2.501,28.619,0.644c7.6-1.934,1.99-13.963,7.244-10.154
			c0.762,0.554,25.887,8.133,21.506-5.598c-5.102-15.994-5.85-29.898-7.59-47.148c-2.15-21.316-5.572-42.5-8.445-63.743
			c-0.246-11.407-3.402-22.478-3.988-33.84c-4.246-14.067,2.338,0.337-3.482-13.215c-3.867-9.001-2.889-15.372,7.379-18.88
			c9.795-3.347,13.812-10.875,13.666-21.007c-0.318-22.735,15.66-45.296,12.725-68.119c0.252-16.226-10.658-32.651-8.6-48.646
			c8.535-66.19,38.08-132.171,38.518-199.15c0.045-6.97-18.893-14.504-10.777-18.002c-2.514-22.949-16.514-11.251-6.723-33.66
			c4.195-9.602,15.102-33.861,22.279-41.537c3.963-4.232,6.631-7.955,3.539-15.032c-3.611-8.265,0.875-16.276,8.605-20.449
			c6.281-3.391,10.514-7.899,13.621-13.948C511.138,107.023,505.454,107.232,500.499,106.664z M398.487,311.531
			c-14.244,16.729-28.631,33.287-44.201,48.786c-6.768,6.737-23.439,13.235-32.012,17.681c-16.182,8.391-22.557,5.258-25.967-12.523
			c-8.033-41.897-3.023-82.3,13.004-121.72c2.299-5.663,5.652-5.386,9.756-5.74c29.459-2.551,48.303,4.767,77.816,3.336
			c13.293-0.644,13.09,0.184,24.689-5.77c10.615-5.447,7.543-4.044,18.312-11.059C434.907,234.801,407.771,300.62,398.487,311.531z"
			/>
		<path fill-rule="evenodd" clip-rule="evenodd" fill="#D14C43" d="M102.249,214.658c-2.445-9.05,5.193-9.057,12.475-7.916
			c31.744,4.977,21.564,5.407,36.824,17.029c10.201,7.768,22.59,24.955,29.945,23.531c15.203-2.943,32.871,6.758,45.865,16.344
			c0.818,0.604-1.221,5.002-1.455,5.146c-13.467,8.274,1.416,12.354,8.295,16.318c5.363,3.094,11.68,1.403,12.037,7.001
			c0.328,5.205-1.879,13.794-6.336,16.913c-5.35,3.741-10.953,1.344-15.936-0.329c-12.963-4.345-17.096-7.876-25.717-13.778
			c-9.533-6.528-18.031-11.29-24.695-4.468c-9.352-0.511-17.068-3.43-21.879-6.496c-20.607-13.132-25.578-23.036-39.33-39.238
			C105.872,238.163,100.698,222.749,102.249,214.658z"/>
		<path fill-rule="evenodd" clip-rule="evenodd" fill="#3E456D" d="M135.667,524.422c19.439-105.076,26.948-117.59,13.873-184.577
			c-10.698-54.806-8.698-68.306-1.652-131.149c1.379-7.762-9.582-12.964-14.34-17.287c-9.211-8.373,7.99-12.799-6.27-15.822
			c-8.033,1.472-9.192,4.03-9.961,5.701c-36.476,79.252,11.146,169.036-4.529,216.502c-5.98,18.105-16.357,36.43-6.811,55.193
			c3.477,6.83,3.666,13.389-0.24,20.366c-13.033,23.274-15.08,48.817-30.016,71.003c-4.387,6.518-2.221,8.232,3.627,11.497
			c7.592,4.24,7.176,7.944,10.969,14.974C98.192,585.42,135.417,525.781,135.667,524.422z"/>
	</g>
</g>
<g id="Layer_23">
</g>
<g id="Layer_10_copy">
</g>
<g id="Layer_11_copy">
</g>
<g id="Layer_12_copy">
</g>
<g id="Layer_13_copy">
</g>
<g id="Layer_14_copy">
</g>
<g id="Layer_15_copy">
</g>
<g id="Layer_16_copy">
</g>
<g id="Layer_17_copy">
</g>
<g id="Layer_18_copy">
	<g>
		<path fill-rule="evenodd" clip-rule="evenodd" fill="#D14C43" d="M218.261,1559.148c-1.1,7.221-4.148,14.08-3.387,21.666
			c0.627,6.242-1.973,9.453-7.875,11.227c-8.096,2.434-1.086,4.031-9.367,5.219c-11.137,2.77-22.273,4.435-33.412,0.017
			c-7.863-2.795-7.406-9.661-6.016-16.032c2.074-9.497,11.553-183.845,10.807-192.29c-7.061-80.073-1.25-42.523-3.928-89.396
			c-3.576-62.6-3.891-101.556,6.184-132.807c4.074-12.639,7.852-25.253,7.111-38.983c-0.652-12.034,4.562-23.112,5.783-34.912
			c2.586-25.009-5.312-49.019-15.014-71.951c-2.617-6.189-6.916-10.802-13.092-12.83c-7.293-2.394-11.469-7.796-13.73-15.283
			c-24.873-10.021-50.566-17.909-73.717-32.427c-2.121-1.329-4.102-2.972-5.992-4.67c-12.574-11.302-17.412-16.434,0.109-29.464
			c18.754-13.944,38.789-18.807,61.041-14.786c3.229,0.582,6.549,0.575,9.783,0.838c1.225-3.934-2.301-5.385-2.721-8.23
			c-0.711-4.831-0.08-9.205,1.582-13.849c1.814-5.083,9.641,0.165,9.162-6.36c-0.379-5.193-1.684-9.572,5.398-9.494
			c1.178,0.013,3.035-1.92,3.676-0.59c4.635,9.603,17.766,12.736,17.275,26.259c-0.08,2.267,0.924,4.579,1.428,6.871
			c2.609,8.373,1.67,16.124-3.504,23.134c-0.902,1.116-3.098,0.493-3.082,2.71c17.779,1.087,26.836-1.904,44.49-0.967
			c14.082-4.026,14.09-16.419,20.395-28.658c3.787-7.349,0.088-15.038-2.238-22.194c-3.334-10.262-7.75-19.973-8.82-31.156
			c-3.324-34.75,27.188-54.411,51.744-48.813c27.1,6.176,33.434,18.083,40.201,43.151c0.291,1.08,0.283,2.521,0.076,3.414
			c-2.143,9.226-2.672,11.191,1.27,16.411c2.947,3.903,1.961,6.723-0.883,10.625c-2.152,2.955-1.891,3.845-1.908,6.382
			c-0.049,6.526-0.305,12.125,0.084,18.625c0.438,7.299-3.328,9.334-9.051,9.434c-2.764,0.047-5.543-0.348-8.289-0.15
			c-3.797,0.274-9.457,0.962-9.811,5.352c-0.393,4.883-4.043,11.697,3.02,15.438c1.926,1.019,2.498,3.525,1.887,5.469
			c-2.309,7.349,2.281,10.838,6.668,14.44c4.365,3.583,9.113,4.802,13.225,8.681c7.57,7.145,16.977,2.171,25.223,4.973
			c12.688,4.311,27.092-5.445,38.623,2.816c7.434,5.325,72.566,41.117,78.92,42.679c7.697,1.89,15.709,2.896,22.211,8.433
			c0.24,6.179-4.707,5.832-8.035,6.847c-17.648,5.38-35.869,6.386-54.041,8.113c-21.924,2.085-43.082,12.133-63,3.356
			c-22.037-0.259-21.732,5.039-23.348,22.246c-0.58,6.162-2.135,19.124-1.166,25.41c0.123,0.999,0.033,1.98-0.205,2.949
			c-1.676,3.688-3.896,7.112-3.713,11.578c0.85,20.797-8.971,41.453-8.537,62.259c0.199,9.601-8.172,18.859-5.412,28.022
			c2.115,7.025,2.35,14.752,4.166,21.646c3.195,12.114,6.281,24.005,8.023,36.559c1.027,7.407-7.115,96.116-9.67,127.233
			c-2.502,23.879-3.703,43.896-8.963,65.572c-3.551,14.639-5.549,29.366-6.523,44.239c-0.365,5.561-4.736,37.123,0.475,43.668
			c2.367,2.971,10.285,7.2,13.027,14.611c4.92,13.297,4.736,15.448,4.674,29.817c-0.021,4.917,1.369,12.24-7.029,13.839
			c-1.393,0.347-2.193-0.675-4.051-0.159c-9.182-7.203-19.988-8.149-26.85-18.425c-3.555-4.08-6.607-13.144-23.01-12.834
			c-19.557,0.369-24.504-9.863-22.25-28.539c1.889-15.637,5.914-31.496,1.721-47.072L218.261,1559.148z"/>
	</g>
</g>
<g id="Layer_19_copy">
</g>
<g id="Layer_20_copy">
</g>
<g id="Layer_21_copy">
</g>
<g id="Layer_22_copy">
</g>
<g id="Layer_23_copy">
</g>
<g id="Layer_24">
</g>
<g id="Layer_25">
</g>
<g id="Layer_26">
</g>
<g id="Layer_27">
</g>
<g id="Layer_0-6_copy">
</g>
<g id="Layer_0-5_copy">
</g>
<g id="Layer_0-4_copy">
</g>
<g id="Layer_0-3_copy">
</g>
<g id="Layer_0-2_copy">
</g>
<g id="Layer_0-1_copy">
</g>
<g id="Layer_0-0_copy">
</g>
</svg>
