<?xml version="1.0" encoding="utf-8"?>
<!-- Generator: Adobe Illustrator 16.0.0, SVG Export Plug-In . SVG Version: 6.00 Build 0)  -->
<!DOCTYPE svg PUBLIC "-//W3C//DTD SVG 1.1//EN" "http://www.w3.org/Graphics/SVG/1.1/DTD/svg11.dtd">
<svg version="1.1" xmlns="http://www.w3.org/2000/svg" xmlns:xlink="http://www.w3.org/1999/xlink" x="0px" y="0px" width="600px"
	 height="800px" viewBox="0 0 600 800" enable-background="new 0 0 600 800" xml:space="preserve">
<g id="Layer_0-0">
</g>
<g id="Layer_0-1">
</g>
<g id="Layer_0-2">
</g>
<g id="Layer_0-3">
</g>
<g id="Layer_0-4">
</g>
<g id="Layer_0-5">
</g>
<g id="Layer_0-6">
</g>
<g id="Layer_1">
</g>
<g id="Layer_2">
</g>
<g id="Layer_3">
</g>
<g id="Layer_4">
</g>
<g id="Layer_5">
</g>
<g id="Layer_6">
</g>
<g id="Layer_7">
</g>
<g id="Layer_8">
</g>
<g id="Layer_9">
</g>
<g id="Layer_10">
</g>
<g id="Layer_11">
</g>
<g id="Layer_12">
</g>
<g id="Layer_13">
</g>
<g id="Layer_14">
</g>
<g id="Layer_15">
</g>
<g id="Layer_16">
</g>
<g id="Layer_17_1_">
</g>
<g id="Layer_18_1_">
</g>
<g id="Layer_19">
</g>
<g id="Layer_20">
</g>
<g id="Layer_21">
</g>
<g id="Layer_22">
</g>
<g id="Layer_23">
</g>
<g id="Layer_10_copy">
</g>
<g id="Layer_11_copy">
</g>
<g id="Layer_12_copy">
	<g>
		<path fill-rule="evenodd" clip-rule="evenodd" fill="#D14C43" d="M545.412,714.99c4.676-8.959,2.68-16.867-0.12-25.703
			c-2.5-7.891-28.187-132.074-29.967-135.396c-6.001-11.199-12.291-22.27-13.402-35.316c0.35-0.895-3.534-8.334-3.534-8.334
			s-1.044,0.836-1.684,1.971c-18.356,4.74-37.761-2.957-56.14,5.986c-10.546,5.131-15.235,7.434-13.075,16.023
			c1.903,7.566,5.603,14.664,7.916,22.152c3.717,12.033,11.21,23.24,10.815,36.104c-0.356,11.629,1.591,21.982,7.183,32.174
			c4.162,7.582,8.667,14.861,13.438,22.049c5.695,8.578,3.802,12.736-6.434,15.301c-1.238,0.311-2.676,0.146-3.754,0.711
			c-9.303,4.848-25.315,1.547-23.94,19.545c0.055,0.725-0.971,1.611-1.625,2.293c-4.827,5.031-9.386,10.377-14.646,14.91
			c-3.612,3.113-2.846,5.787-1.071,9.049c13.201-1.453,22.396-8.191,29.004-19.838c6.8-11.986,19.97-15.465,31.381-9.613
			c1.589,0.814,2.317,2.143,2.497,3.799c0.139,1.27,0.137,2.559,0.122,3.84c-0.148,14.012-0.425,28.156,7.22,40.65
			c6.216,10.16,5.064,19.459-0.77,29.287c-7.02,11.822-15.389,21.881-28.722,26.779c-3.262,2.502-3.343,1.855-5.819,6.207
			c0.012,4.834,9.616,8.748,12.544,9.225c22.223,3.617,45.402-0.668,56.163-21.256l0.125-0.105c4.106-4.836,9.06-6.574,13.399-7.426
			c8.395-1.643,19.718-2.619,21.013-12.041c1.536-11.209,2.926-16.498-2.52-28.047C548.791,725.264,542.361,720.838,545.412,714.99z
			"/>
		<path fill-rule="evenodd" clip-rule="evenodd" fill="#3E456D" d="M308.518,104.467c-1.304-6.609,10.931-4.527,5.415-15.018
			c-3.623-6.896-4.445-17.326-8.303-20.547c-11.201-9.361-10.084-20.33-19.619-28.861c-12.504-11.188-21.184-13.572-35.41-4.705
			c-11.527,7.186-18.9,6.461-26.347,19.596c-10.938,19.299-9.933,28.666,3.271,42.309c4.412,4.555,8.75,7.621,10.963,15.609
			c2.32,8.383,10.869,10.879,16.753,11.643c3.853,0.502,4.418-0.729,8.601,3.178l0.562,1.713
			c12.244,24.896-18.819,30.721-3.475,60.482c17.263,33.484,26.369,39.117,26.939,41.283c16.607,62.918-6.69,55.15-24.192,115.51
			c-0.288,6.389-2.372,11.943-7.481,15.816c-17.826,13.518-33.916,27.734-51.736,41.26c-14.832,11.26-29.051,23.381-44.314,34.008
			c-20.527,14.287-17.525,26.539-38.479,40.213c-6.516,4.252-11.531,10.289-19.751,12.551
			c-17.044,4.689-33.751,10.609-50.538,16.199c-4.769,1.592-8.684,4.879-4.52,9.906c6.832,8.248,8.219,18.387,11.395,27.947
			c1.818,5.479,3.976,10.678,8.684,14.592c3.23,2.686,4.711,6.529,5.639,10.82c2.162,10.035,12.66,13.805,17.409,22.045
			c2.112,3.664,5.808,1.277,8.812,1.498c5.533,0.406,4.741,2.98,2.077,6.16c-2.667,3.18-5.381,6.322-8.009,9.531
			c-2.43,2.967-2.808,5.924,0.992,7.979c14.093,7.619,22.145,26.146,42.093,23.287c2.319-0.334,3.903,1.934,5.851,2.91
			c7.901,3.967,8.586,9.361,18.287,7.994c2.098-0.293-14.557-0.01-12.936,1.16c11.161,8.068,23.543,12.91,36.662,17.107
			c15.441,4.943,15.037,6.027,25.502-7.447c3.494-4.5,7.131-6.705,12.908-2.318c4.707,3.572,10.514,5.74,15.934,8.314
			c1.729,0.82,4.004,0.984,4.062,3.371c0.231,9.693,7.036,18.68,2.89,28.92c-0.896,2.211-0.505,5.086-0.219,7.596
			c0.359,3.105,2.164,5.447,5.435,5.863c4.36,0.555,4.224-3.32,4.802-5.82c0.857-3.713,0.719-7.654,1.525-11.389
			c0.857-3.961,2.85-7.012,7.688-7.197c4.727-0.178,8.604,0.061,10.861,5.408c4.854,11.486,12.127,18.398,26.238,19.467
			c14.314,1.084,25.776-0.893,35.328-11.963c5.713-6.617,12.799-8.654,21.586-5.627c4.903,1.688,6.921,2.656,2.998,7.496
			c-6.043,7.453-7.461,16.391-5.411,25.408c1.522,6.693,1.166,13.352,1.823,20.006c0.367,3.705-2.793,10.416,2.71,10.445
			c6.166,0.031,2.554-6.965,3.489-10.805c0.221-0.912,0.051-1.916,0.113-2.877c0.205-3.186-0.02-6.635,3.939-7.914
			c4.094-1.318,7.301-0.213,10.135,3.178c6.092,7.289,11.286,14.857,15.067,23.824c4.874,11.574,12.707,20.412,27.59,18.738
			c7.268-0.82,14.732,0.275,22.091,0.023c4.168-0.145,8.683-10.025,4.836-11.961c-15.306-7.697-23.262-19.443-27.053-36.291
			c-2.064-9.164-5.206-18.035-5.307-27.584c-1.774-3.262-2.541-5.936,1.071-9.049c5.26-4.533,9.818-9.879,14.646-14.91
			c0.654-0.682,1.68-1.568,1.625-2.293c-1.375-17.998,14.638-14.697,23.94-19.545c1.078-0.564,2.516-0.4,3.754-0.711
			c10.235-2.564,12.129-6.723,6.434-15.301c-4.771-7.188-9.275-14.467-13.438-22.049c-5.592-10.191-7.539-20.545-7.183-32.174
			c0.395-12.863-7.099-24.07-10.815-36.104c-2.313-7.488-6.013-14.586-7.916-22.152c-2.16-8.59,2.529-10.893,13.075-16.023
			c18.379-8.943,37.783-1.246,56.14-5.986c5.29-7.146,12.545-8.176,20.791-7.258c3.472,0.387,8.4,1.893,9.93-3.053
			c1.276-4.131-0.923-8.072-3.781-11.199c-8.515-9.312-17.25-18.43-25.641-27.85c-1.689-1.895-13.292-15.547-16.176-17.734
			c-10.608-8.041-21.2-16.119-32.112-23.734c-13.19-9.209-20.796-22.529-28.58-36.023c-8.824-15.299-17.021-30.916-25.473-46.402
			c-2.303-4.219-3.312-8.172-3.344-12.633c-0.084-12.803,4.945-25.607,4.711-38.404c-0.113-6.023,5.318-22.986,0.2-26.713
			c-8.376-6.096-7.731-62.123-7.904-63.617c-1.31-11.303-2.587-14.949-2.336-19.812c0.131-2.539-1.569-14.908-1.048-17.33
			c0.077-14.26,1.131-16.113-11.985-23.205c-7.066-3.822-12.073-8.26-17.764-10.916c-2.857-1.334-0.431-2.881,0.62-4.369
			c23.984-14.512,22.637,6.42,39.704-6.537c4.226-1.75-1.759-1.264,12.197-3.578c2.243-0.371,3.224,0.32,5.389,0.082
			c10.991-1.207,11.112-3.148,25.942-3.602c-51.922-9.699-53.378,0.008-56.775,0.516c-18.903,2.824-18.932,10.557-49.293,10.414
			C328.248,119.223,309.628,110.088,308.518,104.467z"/>
		<path fill-rule="evenodd" clip-rule="evenodd" fill="#D14C43" d="M523.768,240.391c4.07-10.072,9.766-21.537,13.171-32.121
			c0.574-1.787,3.947-39.283,3.937-46.971c3.472-21.068-13.1-21.809-17.704-42.332c-6.74-30.055-9.329-37.82,3.495-46.018
			c4.106-2.625,6.154-13.523,6.801-15.182c1.731-4.451,2.38-4.773,4.861-13.496c0.518-1.822,2.304-22.691-4.749-29.359
			c-18.93-17.898-24.15-15.803-39.041-13.195c-12.664,2.219-19.065,7.66-26.839,18.695c-9.069,12.873-2.365,19.529-6.882,34.037
			c4.807,18.283,2.38,38.67-20.087,39.328c-3.113,0.092-25.27,8.627-28.017,9.051c-6.102,0.939-23.136,11.33-38.613,12.182
			c-8.829,0.486-10.651,2.863-20.301,10.119c22.512,19.439,19.844,14.344,31.17,24.012c3.279-5.785,2.506-4.572,17.6-8.893
			c7.122-2.039,2.68,2.424,0.503,7.936c-4.74,12-2.854,3.156-3.075,4.229c-2.846,10.668-6.857,2.834-11.642,24.791
			c-0.321,1.469-0.837,3.443-2.905,3.793c-1.773,0.303-2.926-1.021-3.758-2.412c-3.119-5.207-6.455-10.299-11.027-14.305
			c-1.709-1.5-5.219-3.303-6.391-2.562c-2.245,1.414-3.439,4.498-1.204,7.49c0.532,0.713,0.722,1.807,0.768,2.736
			c0.128,2.709,2.076,5.91-1.146,7.893c-2.914,1.793-13.257,7.824-15.197,6.23c-1.201-0.986-3.068-1.164-4.217-2.209
			c-1.75-1.59,1.304-4.02-3.695-1.713c-3.07,1.416,5.018,5.18,6.857,10.836c3.842,11.812,17.367,23.117,21.944,25.404
			c3.599,1.799,6.458,1.707,7.995,5.986c3.377,9.391,2.765,11.322,11.141,17.42c5.119,3.725,4.543,10.98,4.655,17.004
			c0.235,12.797,0.06,54.727,0.144,67.529c0.031,4.461,1.041,8.414,3.344,12.633c8.451,15.486,16.648,31.104,25.473,46.402
			c7.784,13.494,15.39,26.814,28.58,36.023c10.912,7.615,21.504,15.693,32.112,23.734c2.884,2.188,11.949,13.33,11.949,13.33
			s3.888-10.457,3.806-14.293c-0.59-27.773-0.783-45.803-0.98-53.775c-0.234-9.592,1.951-19.041,2.825-22.039L523.768,240.391z"/>
	</g>
</g>
<g id="Layer_13_copy">
</g>
<g id="Layer_14_copy">
</g>
<g id="Layer_15_copy">
</g>
<g id="Layer_16_copy">
</g>
<g id="Layer_17_copy">
</g>
<g id="Layer_18_copy">
</g>
<g id="Layer_19_copy">
</g>
<g id="Layer_20_copy">
</g>
<g id="Layer_21_copy">
</g>
<g id="Layer_22_copy">
</g>
<g id="Layer_23_copy">
</g>
<g id="Layer_24">
</g>
<g id="Layer_25">
</g>
<g id="Layer_26">
</g>
<g id="Layer_27">
</g>
<g id="Layer_0-6_copy">
</g>
<g id="Layer_0-5_copy">
</g>
<g id="Layer_0-4_copy">
</g>
<g id="Layer_0-3_copy">
</g>
<g id="Layer_0-2_copy">
</g>
<g id="Layer_0-1_copy">
</g>
<g id="Layer_0-0_copy">
</g>
</svg>
