<?xml version="1.0" encoding="utf-8"?>
<!-- Generator: Adobe Illustrator 16.0.0, SVG Export Plug-In . SVG Version: 6.00 Build 0)  -->
<!DOCTYPE svg PUBLIC "-//W3C//DTD SVG 1.1//EN" "http://www.w3.org/Graphics/SVG/1.1/DTD/svg11.dtd">
<svg version="1.1" xmlns="http://www.w3.org/2000/svg" xmlns:xlink="http://www.w3.org/1999/xlink" x="0px" y="0px" width="600px"
	 height="800px" viewBox="0 0 600 800" enable-background="new 0 0 600 800" xml:space="preserve">
<g id="Layer_0-0">
</g>
<g id="Layer_0-1">
</g>
<g id="Layer_0-2">
</g>
<g id="Layer_0-3">
</g>
<g id="Layer_0-4">
</g>
<g id="Layer_0-5">
</g>
<g id="Layer_0-6">
</g>
<g id="Layer_1">
</g>
<g id="Layer_2">
</g>
<g id="Layer_3">
</g>
<g id="Layer_4">
</g>
<g id="Layer_5">
</g>
<g id="Layer_6">
</g>
<g id="Layer_7">
</g>
<g id="Layer_8">
</g>
<g id="Layer_9">
</g>
<g id="Layer_10">
</g>
<g id="Layer_11">
</g>
<g id="Layer_12">
</g>
<g id="Layer_13">
</g>
<g id="Layer_14">
</g>
<g id="Layer_15">
</g>
<g id="Layer_16">
</g>
<g id="Layer_17_1_">
</g>
<g id="Layer_18_1_">
</g>
<g id="Layer_19">
</g>
<g id="Layer_20">
</g>
<g id="Layer_21">
</g>
<g id="Layer_22">
</g>
<g id="Layer_23">
</g>
<g id="Layer_10_copy">
</g>
<g id="Layer_11_copy">
</g>
<g id="Layer_12_copy">
</g>
<g id="Layer_13_copy">
</g>
<g id="Layer_14_copy">
	<g>
		<path fill-rule="evenodd" clip-rule="evenodd" fill="#3E456D" d="M194.748,135.717c-5.614-1.363-13.625-6.301-14.983-14.662
			c-1.295-7.967-5.171-11.395-8.959-16.271c-11.334-14.604-11.316-23.777,1.318-41.301c8.6-11.924,15.658-10.441,27.58-16.176
			c14.709-7.076,22.857-3.848,33.777,8.307c8.324,9.268,6.082,19.768,15.932,30.016c3.392,3.527,3.082,12.092,5.861,19.152
			c4.227,10.74-0.958,12.662-6.834,15.58c0,0-4.885,1.328-4.277,2.391c3.406,5.955,24.822,7.293,37.655,7.758
			c20.331-3.781,119.927,22.27,137.305,18.275c22.756-3.412,8.959-3.084,27.309,0.029c18.689,3.174-10.779,61.771-13.522,66.084
			c-2.852,4.256-11.559-42.924-15.642-39.904c-7.334,5.42-7.099,4.408,0.358,9.336c1.566,1.035,3.499,1.547,4.991,2.662
			c10.868,8.121-42.413-4.186-38.888,10.797c4.262,18.107-54.162,53.863-54.494,59.377c-0.814,13.508-0.609,27.029-3.305,40.461
			c-2.344,11.67-4.299,23.623-4.467,35.479c-0.318,22.281,0.875,44.582,1.261,66.879c1.101,63.453,11.065,125.734,24.405,187.598
			c3.961,18.381,17.9,63.645,19.949,82.518c1.911,17.604-1.128,35.398,3.002,52.785c3.164,13.324,1.6,26.17-3.734,38.666
			c-0.852-0.92-1.655-1.883-2.561-2.746c-3.429-3.271-7.382-7.52-12.018-6.012c-4.59,1.492-5.564,6.984-5.66,11.848
			c-0.012,0.631,0.086,1.305-0.096,1.883c-0.762,2.439,0.152,6.453-4.311,5.795c-4.176-0.615-4.938-4.102-3.72-7.24
			c3.483-8.963,2.958-17.59,0.396-26.758c-2.326-8.318,1.781-15.361,7.91-20.914c2.062-1.871,4.099-3.775,2.404-6.158
			c-1.598-2.248-3.572-0.754-5.26,1.127c-3.642,4.061-5.471-0.393-7.363-2.17c-6.072-5.697-11.343-5.566-14.684,2.299
			c-1.742,4.102-3.884-5.025-7.297-5.723c-12.352-2.521-23.27,9.678-18.949,21.787c5.163,14.467,2.178,10.521,7.855,24.801
			c0.232,0.586,0.518,1.15,0.775,1.727c2.908,6.529,5.515,14.17,1.388,19.914c-4.058,5.648-11.923,4.125-18.575,3.07
			c-5.602-0.893-11.259-1.412-16.881-2.182c-9.725-1.338-14.748-6.889-13.97-16.545c0.624-7.781-0.012-5.686-4.65-12.463
			c-3.386-4.941-3.79-11.227-3.485-17.35c0.404-8.174-3.846-13.178-11.502-11.357c-7.574,1.803-14.228-1.514-21.427-1.367
			c-5.919,0.119-6.078-5.693-5.302-10.104c1.219-6.908-1.483-7.994-7.697-7.117c-9.215,1.293-0.9,3.635-7.878-5.842
			c-0.452-0.617-1.794-1.094-2.542-0.908c-12.465,3.078,5.141-3.887-2.629-11.668c-11.22-11.236-11.552-98.508,1.912-110.947
			c16.271-15.031,13.664-31.529,21.618-52.775c4.198-11.213-4.089-23.258-0.4-34.711c5.099-15.855,10.61-31.557,18.919-45.834
			c6.674-11.467,6.848-23.707,6.332-35.521c-1.248-28.627-7.871-55.064,11.409-78.85c21.631-26.689,18.972-51.75-5.124-77.385
			c-53.076-14.734-27.848-41.857-95.826-37.912c-10.459,0.607-6.229-17.08-1.369-26.221c3.75-7.055,14.152-17.654,17.707-13.203
			c5.811,7.271,13.875,14.949,21.624,13.137c11.909-2.787,13.301-12.035,19.434-22.203c6.904-11.457,7.295-16.715,3.242-20.875
			C208.098,137.877,198.425,136.609,194.748,135.717z"/>
		<path fill-rule="evenodd" clip-rule="evenodd" fill="#3E456D" d="M219.659,370.537c9.241,12.648,11.951,49.537,20.42,36.502
			c4.08-6.277,33.036,40.064,40.45,36.684c5.714-2.605,7.868-4.041,4.268-10.465c-12.262-21.861-0.451-4.016-10.848-26.752
			c-3.119-6.818-2.439-12.93,1.329-19.047c10.349-16.799,11.282-31.551-45.6-103.18c-51.507-64.859-45.534-96.986-45.477-98.775
			C170.651,187.242,149.799,274.906,219.659,370.537z"/>
		<path fill-rule="evenodd" clip-rule="evenodd" fill="#D14C43" d="M432.704,547.824c2.477-22.088-3.617-44.207-1.559-66.363
			l2.897-38.4c-2.136-47.975,7.969-50.818,1.375-105.555c-2.397-5.627-4.253-11.07-2.791-17.01c0.896-3.666,1.505-7.424,2.197-11.15
			c3.6-19.381,0.438-47.428,4.188-66.777c0.933-4.82,7.26-10.473,7.964-12.076c7.713-17.533,8.462-26.564,12.043-48.422
			c-4.212-19.771-6.211-18.441-9.985-22.707c-10.044-4.088-5.105-14.727-43.39-20.98c-2.264-2.586-18.661-18.145-20.607-24.104
			c-5.006-12.221-4.725-20.172,3.088-30.236c10.51-13.537,8.984-28.404,8.575-43.561c-0.163-6.006,0.135-12.26-3.044-17.838
			c-15.189-26.658-48.705-29.906-70.043-9.066c-6.331,6.186-6.898,14.75-7.965,22.852c-1.666,12.678-4.107,25.559-1.38,38.299
			c2.818,13.156,6.708,26.133,10.894,38.936c2.088,6.385,0.889,10.604-4.137,14.209c-12.47,8.932-27.723,27.238-41.499,33.014
			c-23.435,9.824-31.812,19.916-48.549,26.848c-3.046,1.262-24.835-6.988-34.72-4.961c-0.718-0.201-1.648-6.186-2.826-5.824
			c-5.867,1.797-14.936,0.324-19.807-7.398c-3.197-5.066-6.934,0.311-4.159,4.477c2.03,3.057,3.214,6.93,1.611,9.998
			c-1.573,3-4.153,7.654-7.37,5.158c-6.957-5.398-7.937,2.461-14.752-1.26c-2.383-1.303-6.44-3.35-6.953,0.279
			c-0.861,6.111,1.506,12.666,4.089,18.498c1.819,4.115,4.827,6.84,8.351,6.373c7.617-1.012,15.309-1.762,22.773-3.438
			c0.164-0.037,0.33-0.082,0.496-0.131c0.103,0.027,0.204,0.045,0.297,0.047c28.443,1.787,18.89,17.479,30.653,17.836
			c6.117,0.678,30.55,18.135,36.64,17.709c11.795-0.824,18.308-7.957,24.732-1.953c11.344,10.598,16.704,14.867,16.906,29.965
			c0.023,1.779,1.886,5.279,2.223,7.031c3.232,16.701,5.292,33.682,7.479,50.504c2.417,18.564,4.911,37.15,7.022,55.758
			c1.512,13.297,5.068,26.697,2.895,40.053l-0.062,3.336c-9.22,20.301,9.87,106.574,10.214,108.785
			c3.186,20.463,1.426,25.5,4.857,45.568c0.667,10.26,5.335,35.049,2.451,45.748c-4.22,15.646-5.204,60.846-6.174,112.328
			c3.8,13.613,5.423,27.625-7.275,36.896c-2.854,2.078-10.175,4.436-12.45,7.309c-6.256,7.9-1.963,10.43,8.14,12.324
			c15.323,2.881,30.585-0.188,45.89,0.301c10.156,0.318,14.074-3.596,11.481-13.848c-2.562-10.123-1.601-18.986,1.859-28.193
			c3.044-8.102,16.939-49.904,22.117-49.803c3.763-0.713,11.308,2.877,10.54,12.154c-1.162,14.068-8.518,14.92-9.055,33.523
			c-1.255,5.102-1.329,8.309,1.158,13.414c11.938,3.367,9.784,3.934,20.901-5.963c1.653-1.471,34.931-23.32,36.174-29.254
			c2.007-4.748,1.281-3.527-1.639-18.338c-0.523-3.361,11.233-8.518,9.586-11.357C435.991,648.078,430.253,569.689,432.704,547.824z
			"/>
		<path fill-rule="evenodd" clip-rule="evenodd" fill="#3E456D" d="M431.564,162.584c-1.013,1.412-2.12,3-0.406,4.592
			c1.292,1.203,2.641,0.396,3.962-0.293c1.409-0.736,2.413-2.74,4.854-1.414c1.291,3.277-3.307,6.955,0.196,10.531
			c5.745-3.35,15.48-1.24,17.469-7.488c0.866-2.719-2.352-5.604-3.54-8.377C447.869,145.584,438.089,153.471,431.564,162.584z"/>
	</g>
</g>
<g id="Layer_15_copy">
</g>
<g id="Layer_16_copy">
</g>
<g id="Layer_17_copy">
</g>
<g id="Layer_18_copy">
</g>
<g id="Layer_19_copy">
</g>
<g id="Layer_20_copy">
</g>
<g id="Layer_21_copy">
</g>
<g id="Layer_22_copy">
</g>
<g id="Layer_23_copy">
</g>
<g id="Layer_24">
	<g>
		<path fill-rule="evenodd" clip-rule="evenodd" fill="#D14C43" d="M213.14,960.965c12.885,13.462,27.399,49.727,46.797,53.316
			c35.232,6.52,106.928-18.151,141.692-19.464c22.346-0.841,38.331-27.128,49.782-42.991c-9.867-3.725-24.118-8.367-34.312-9.862
			c-21.758-3.188-28.402-18.604-29.793-36.293c-0.714-9.077,3.867-18.952,7.691-27.989c3.41-8.052,7.463-15.672,8.2-24.451
			c1.401-16.713-0.858-31.604-15.638-41.652c-15.695-10.669-30.045-15.301-48.006-8.121c-12.75,5.096-22.295,17.152-23.961,30.066
			c-0.626,4.857-0.708,6.104-3.386,10.736c-11.679,20.203-1.143,9.8-1.143,41.64c0,9.702,0.642,14.938,11.999,14.938
			c16.882,0,13.332,4.391,9.746,19.729c-0.26,1.111-4.246,2.282-4.5,3.512c-4.135,20.125-52.845,18.746-65.348,22.121
			C246.211,950.721,228.735,952.552,213.14,960.965z"/>
	</g>
</g>
<g id="Layer_25">
</g>
<g id="Layer_26">
</g>
<g id="Layer_27">
</g>
<g id="Layer_0-6_copy">
</g>
<g id="Layer_0-5_copy">
</g>
<g id="Layer_0-4_copy">
</g>
<g id="Layer_0-3_copy">
</g>
<g id="Layer_0-2_copy">
</g>
<g id="Layer_0-1_copy">
</g>
<g id="Layer_0-0_copy">
</g>
</svg>
