<?xml version="1.0" encoding="utf-8"?>
<!-- Generator: Adobe Illustrator 16.0.0, SVG Export Plug-In . SVG Version: 6.00 Build 0)  -->
<!DOCTYPE svg PUBLIC "-//W3C//DTD SVG 1.1//EN" "http://www.w3.org/Graphics/SVG/1.1/DTD/svg11.dtd">
<svg version="1.1" xmlns="http://www.w3.org/2000/svg" xmlns:xlink="http://www.w3.org/1999/xlink" x="0px" y="0px" width="600px"
	 height="800px" viewBox="0 0 600 800" enable-background="new 0 0 600 800" xml:space="preserve">
<g id="Layer_0-0">
</g>
<g id="Layer_0-1">
</g>
<g id="Layer_0-2">
</g>
<g id="Layer_0-3">
</g>
<g id="Layer_0-4">
</g>
<g id="Layer_0-5">
</g>
<g id="Layer_0-6">
</g>
<g id="Layer_1">
</g>
<g id="Layer_2">
</g>
<g id="Layer_3">
</g>
<g id="Layer_4">
</g>
<g id="Layer_5">
</g>
<g id="Layer_6">
</g>
<g id="Layer_7">
</g>
<g id="Layer_8">
</g>
<g id="Layer_9">
</g>
<g id="Layer_10">
</g>
<g id="Layer_11">
</g>
<g id="Layer_12">
</g>
<g id="Layer_13">
</g>
<g id="Layer_14">
</g>
<g id="Layer_15">
</g>
<g id="Layer_16">
</g>
<g id="Layer_17_1_">
</g>
<g id="Layer_18_1_">
</g>
<g id="Layer_19">
</g>
<g id="Layer_20">
</g>
<g id="Layer_21">
</g>
<g id="Layer_22">
</g>
<g id="Layer_23">
</g>
<g id="Layer_10_copy">
</g>
<g id="Layer_11_copy">
</g>
<g id="Layer_12_copy">
	<g>
		<path fill-rule="evenodd" clip-rule="evenodd" fill="#D14C43" d="M545.412-85.01c4.676-8.959,2.68-16.867-0.12-25.703
			c-2.5-7.891-28.187-132.074-29.967-135.396c-6.001-11.199-12.291-22.27-13.402-35.316c0.35-0.895-3.534-8.334-3.534-8.334
			s-1.044,0.836-1.684,1.971c-18.356,4.74-37.761-2.957-56.14,5.986c-10.546,5.131-15.235,7.434-13.075,16.023
			c1.903,7.566,5.603,14.664,7.916,22.152c3.717,12.033,11.21,23.24,10.815,36.104c-0.356,11.629,1.591,21.982,7.183,32.174
			c4.162,7.582,8.667,14.861,13.438,22.049c5.695,8.578,3.802,12.736-6.434,15.301c-1.238,0.311-2.676,0.146-3.754,0.711
			c-9.303,4.848-25.315,1.547-23.94,19.545c0.055,0.725-0.971,1.611-1.625,2.293c-4.827,5.031-9.386,10.377-14.646,14.91
			c-3.612,3.113-2.846,5.787-1.071,9.049c13.201-1.453,22.396-8.191,29.004-19.838c6.8-11.986,19.97-15.465,31.381-9.613
			c1.589,0.814,2.317,2.143,2.497,3.799c0.139,1.27,0.137,2.559,0.122,3.84c-0.148,14.012-0.425,28.156,7.22,40.65
			c6.216,10.16,5.064,19.459-0.77,29.287c-7.02,11.822-15.389,21.881-28.722,26.779c-3.262,2.502-3.343,1.855-5.819,6.207
			c0.012,4.834,9.616,8.748,12.544,9.225c22.223,3.617,45.402-0.668,56.163-21.256l0.125-0.105c4.106-4.836,9.06-6.574,13.399-7.426
			c8.395-1.643,19.718-2.619,21.013-12.041c1.536-11.209,2.926-16.498-2.52-28.047C548.791-74.736,542.361-79.162,545.412-85.01z"/>
	</g>
</g>
<g id="Layer_13_copy">
</g>
<g id="Layer_14_copy">
</g>
<g id="Layer_15_copy">
</g>
<g id="Layer_16_copy">
</g>
<g id="Layer_17_copy">
</g>
<g id="Layer_18_copy">
</g>
<g id="Layer_19_copy">
</g>
<g id="Layer_20_copy">
</g>
<g id="Layer_21_copy">
</g>
<g id="Layer_22_copy">
	<g>
		<path fill-rule="evenodd" clip-rule="evenodd" fill="#D14C43" d="M417.726,215.376c-9.486,8.944-20.059,12.824-33.352,13.468
			c-29.512,1.43-58.939,4.696-88.398,7.247c-4.104,0.354-7.457,0.077-9.758,5.741c-16.025,39.419-21.035,79.822-13.002,121.72
			c3.41,17.781,8.58,33.879,24.762,25.488c8.572-4.445,18.246,7.219,25.016,0.481c15.568-15.499,35.785-20.792,50.027-37.522
			c5.656-6.646,2.846-55.824,5.342-64.035c0.764-5.604,1.299-11.254,2.338-16.809c6.035-32.412,6.074-32.405,37.857-37.049
			c23.254-5.896,44.012-11.011,51.477-26.422C477.409,174.012,426.696,206.917,417.726,215.376z"/>
		<path fill-rule="evenodd" clip-rule="evenodd" fill="#D14C43" d="M152.349,168.173c-58.443,38.068,4.744,33.881,24.777,37.588
			c36.387,6.733,105.123-1.269,141.029-2.624c23.08-0.868,168.982,11.28,80.281-33.818c-10.191-3.848-63.396-19.226-73.926-20.771
			c-22.473-3.292-29.334-19.214-30.77-37.484c-0.738-9.375,4.957-19.574,8.906-28.908c3.521-8.315,8.67-16.186,9.43-25.253
			c1.449-17.261-0.885-34.565-16.15-44.944C279.716,0.939,266.821-3.845,248.271,3.57c-17,6.794-23.387,25.011-28.246,41.181
			c-4.459,14.838-2.186,30.403-1.18,45.893c0.65,9.999,4.223,12.301,12.391,15.428c10.354,3.961,8.322,5.217,4.459,24.004
			c-4.27,20.786-18.979,19.361-31.891,22.848C186.505,157.592,168.456,159.483,152.349,168.173z"/>
		<path fill-rule="evenodd" clip-rule="evenodd" fill="#D14C43" d="M439.081,238.182c-1.996-0.925-44.646,1.62-44.178-1.006
			c3.449-19.347,46.945-43.872,64.234-59.397c10.279-9.231,20.102-18.975,29.98-28.639c1.689-1.653,5.094-2.963,2.645-6.648
			c-8.041-12.104-3.846-23.779,11.162-29.141c5.303-1.896,2.732-12.961,11.822-9.243c17,5.429,17.781,7.938,6.812,21.14
			c-2.424,2.919-5.332,5.619-7.67,8.441c-9.98,12.035-16.76,19.158-18.371,34.537c-9.453,29.358-11.857,31.766-30.23,52.744
			C457.845,225.646,452.171,236.179,439.081,238.182z"/>
		<path fill-rule="evenodd" clip-rule="evenodd" fill="#D14C43" d="M217.517,723.362c-5.807,4.069-29.652,43.627-23.832,49.596
			c8.928,10.176,15.943,7.584,39.67-5.605L217.517,723.362z"/>
		<path fill-rule="evenodd" clip-rule="evenodd" fill="#3E456D" d="M500.499,106.665c-8.713-1.001-18.473,0.355-19.432-16.713
			c-6.42,15.57-12.264,26.586-11.906,39.002c0.229,7.938-2.166,13.775-7.676,18.804c-17.373,15.843-19.385,33.197-42.037,41.583
			c-13.801,5.209-24.602,11.346-39.695,12.653c-24.881,2.157-29.178-1.969-54.713-6.871c-10.574-2.031-21.475-4.068-32.5-3.426
			c-16.611,0.966-40.475-3.305-50.828-17.563c-3.887-5.352-10.189-8.443-15.432-12.513c-7.135-16.176-11.92-19.181,3.049-25.581
			c7.182-3.07,13.365-3.085,9.066-16.137c-2.826-8.58-1.771-20.664-5.566-25.086c-11.02-12.847-7.645-25.178-16.916-36.756
			c-12.158-15.187-21.627-19.574-39.592-12.155c-14.559,6.013-22.852,3.774-33.879,17.369
			c-16.201,19.978-16.842,30.882-4.354,49.008c4.174,6.055,8.551,10.39,9.553,19.948c1.049,10.031,10.35,14.52,16.932,16.52
			c4.309,1.31,5.189,0.012,9.225,5.278c3.844,5.019-1.234,9.356-4.377,12.878c-5.832,6.532-12.707,5.008-22.404,4.102
			c-38.732-3.612-18.404-21.201-57.279-24.239c-7.867-0.616-15.82,5.036-17.523,14.271c-1.895,10.27-1.588,21.234,3.961,27.211
			c14.471,15.586,11.34,18.647,28.916,20.879c7.684-0.482,9.396,0.44,16.158,0.159c19.021-0.79,16.688,19.545,29.371,35.737
			c9.805,12.515,27.166,37.81,21.373,46.891c-0.105,3.871,5.484,17.32,7.074,20.758c8.047,17.385,6.055,33.74-2.236,50.815
			c-10.791,22.22-14.545,46.344-14.26,71.03c0.092,7.766-0.889,15.126-5.285,21.897c-14.703,22.644-16.043,46.917-21.248,72.041
			c0.09,1.319,0.006,2.417-0.654,2.987c0.188-1,0.449-1.988,0.654-2.987c-0.084-1.231-0.621-2.677-0.371-4.036
			c19.439-105.076,7.246-123.14,11.873-184.577c1.174-15.601-8.854-50.789-4.652-66.149c1.379-7.762-3.582-12.964-8.34-17.287
			c-9.211-8.373-3.01-22.799-17.27-25.822c-8.033,1.472-9.381,3.956-9.961,5.701c-15.779,47.431,21.146,114.036,5.471,161.502
			c-5.98,18.105-16.357,36.43-6.811,55.193c3.477,6.83,3.666,13.389-0.24,20.366c-13.033,23.274-15.08,48.817-30.016,71.003
			c-4.387,6.518-2.221,8.232,3.627,11.497c7.592,4.24,7.176,7.944,10.969,14.974c7.875,14.598,10.533,26.322,12.984,42.854
			c2.086,14.077,6.057,12.229,14.713,28.421c3.371,6.307,5.836,12.584,2.951,20.379c-10.508,28.369-18.055,48.551-22.086,78.35
			c-1.27,9.41,2.236,11.62,9.682,13.552c8.689,2.257,16.936-5.64,23.062-3.782c19.434,5.889-2.133,5.859,17.562,8.059
			c18.828,2.098,56.809,4.982,75.566,7.66c25.25,3.6,14.281,10.926,39.295,10.993c17.965,0.047,35.908,23.13,53.93,22.685
			c12.471-0.311,16.17-13.641,27.854-13.582c0.607,0.004,9.672-4.957,11.365-5c12.457-0.32,6.684,7.307,14.709,6.025
			c7.861-1.257,6.436,1.455,14.078-3.36c13.084-8.245,21.326,2.501,28.619,0.644c7.6-1.934,1.99-13.963,7.244-10.154
			c0.762,0.554,25.887,8.133,21.506-5.598c-5.102-15.994-5.85-29.898-7.59-47.148c-2.15-21.316-5.572-42.5-8.445-63.743
			c-0.246-11.407-3.402-22.478-3.988-33.84c-4.246-14.067,2.338,0.337-3.482-13.215c-3.867-9.001-2.889-15.372,7.379-18.88
			c9.795-3.347,13.812-10.875,13.666-21.007c-0.318-22.735,15.66-45.296,12.725-68.119c0.252-16.226-10.658-32.651-8.6-48.646
			c8.535-66.19,38.08-132.171,38.518-199.15c0.045-6.97-18.893-14.504-10.777-18.002c-2.514-22.949-16.514-11.251-6.723-33.66
			c4.195-9.602,15.102-33.861,22.279-41.537c3.963-4.232,6.631-7.955,3.539-15.032c-3.611-8.265,0.875-16.276,8.605-20.449
			c6.281-3.391,10.514-7.899,13.621-13.948C511.138,107.024,505.454,107.233,500.499,106.665z M398.487,311.532
			c-14.244,16.729-28.631,33.287-44.201,48.786c-6.768,6.737-23.439,13.235-32.012,17.681c-16.182,8.391-22.557,5.258-25.967-12.523
			c-8.033-41.897-3.023-82.3,13.004-121.72c2.299-5.663,5.652-5.386,9.756-5.74c29.459-2.551,48.303,4.767,77.816,3.336
			c13.293-0.644,13.09,0.184,24.689-5.77c10.615-5.447,7.543-4.044,18.312-11.059C434.907,234.802,407.771,300.621,398.487,311.532z
			"/>
		<path fill-rule="evenodd" clip-rule="evenodd" fill="#D14C43" d="M102.249,214.659c-2.445-9.05,5.193-9.057,12.475-7.916
			c31.744,4.977,21.564,5.407,36.824,17.029c10.201,7.768,22.59,24.955,29.945,23.531c15.203-2.943,32.871,6.758,45.865,16.344
			c0.818,0.604-1.221,5.002-1.455,5.146c-13.467,8.274,1.416,12.354,8.295,16.318c5.363,3.094,11.68,1.403,12.037,7.001
			c0.328,5.205-1.879,13.794-6.336,16.913c-5.35,3.741-10.953,1.344-15.936-0.329c-12.963-4.345-17.096-7.876-25.717-13.778
			c-9.533-6.528-18.031-11.29-24.695-4.468c-9.352-0.511-17.068-3.43-21.879-6.496c-20.607-13.132-25.578-23.036-39.33-39.238
			C105.872,238.164,100.698,222.75,102.249,214.659z"/>
		<path fill-rule="evenodd" clip-rule="evenodd" fill="#3E456D" d="M135.667,524.423c19.439-105.076,26.948-117.59,13.873-184.577
			c-10.698-54.806-8.698-68.306-1.652-131.149c1.379-7.762-9.582-12.964-14.34-17.287c-9.211-8.373,7.99-12.799-6.27-15.822
			c-8.033,1.472-9.192,4.03-9.961,5.701c-36.476,79.252,11.146,169.036-4.529,216.502c-5.98,18.105-16.357,36.43-6.811,55.193
			c3.477,6.83,3.666,13.389-0.24,20.366c-13.033,23.274-15.08,48.817-30.016,71.003c-4.387,6.518-2.221,8.232,3.627,11.497
			c7.592,4.24,7.176,7.944,10.969,14.974C98.192,585.421,135.417,525.782,135.667,524.423z"/>
	</g>
</g>
<g id="Layer_23_copy">
</g>
<g id="Layer_24">
</g>
<g id="Layer_25">
</g>
<g id="Layer_26">
</g>
<g id="Layer_27">
</g>
<g id="Layer_0-6_copy">
</g>
<g id="Layer_0-5_copy">
</g>
<g id="Layer_0-4_copy">
</g>
<g id="Layer_0-3_copy">
</g>
<g id="Layer_0-2_copy">
	<g>
		<path fill-rule="evenodd" clip-rule="evenodd" fill="#D14C43" d="M427.752,957.629c-12.474,13.031-26.522,21.083-45.3,24.559
			c-34.105,6.311-67.439,0.465-101.094-0.805c-21.631-0.814-32.598-16.342-43.682-31.699c9.551-3.605,18.838-9.002,28.706-10.449
			c21.062-3.086,27.495-18.01,28.841-35.133c0.689-8.789-4.646-18.348-8.348-27.097c-3.301-7.795-8.127-15.172-8.84-23.67
			c-1.356-16.18,0.831-32.4,15.138-42.127c15.194-10.328,33.595-14.812,50.981-7.863c15.935,6.371,21.018,23.443,25.572,38.6
			c4.18,13.908,2.051,28.499,1.106,43.017c-0.608,9.372-3.704,12.307-11.614,14.459c-16.914,4.602-14.11,4.891-10.491,22.5
			c4.003,19.482,18.69,18.148,30.794,21.414C395.737,947.713,412.653,949.484,427.752,957.629z"/>
	</g>
</g>
<g id="Layer_0-1_copy">
</g>
<g id="Layer_0-0_copy">
</g>
</svg>
