<?xml version="1.0" encoding="utf-8"?>
<!-- Generator: Adobe Illustrator 16.0.0, SVG Export Plug-In . SVG Version: 6.00 Build 0)  -->
<!DOCTYPE svg PUBLIC "-//W3C//DTD SVG 1.1//EN" "http://www.w3.org/Graphics/SVG/1.1/DTD/svg11.dtd">
<svg version="1.1" xmlns="http://www.w3.org/2000/svg" xmlns:xlink="http://www.w3.org/1999/xlink" x="0px" y="0px" width="600px"
	 height="800px" viewBox="0 0 600 800" enable-background="new 0 0 600 800" xml:space="preserve">
<g id="Layer_0-0">
</g>
<g id="Layer_0-1">
</g>
<g id="Layer_0-2">
</g>
<g id="Layer_0-3">
</g>
<g id="Layer_0-4">
</g>
<g id="Layer_0-5">
</g>
<g id="Layer_0-6">
</g>
<g id="Layer_1">
</g>
<g id="Layer_2">
</g>
<g id="Layer_3">
</g>
<g id="Layer_4">
</g>
<g id="Layer_5">
</g>
<g id="Layer_6">
	<g>
		<path fill-rule="evenodd" clip-rule="evenodd" fill="#D14C43" d="M371.479,179.232c-9.211,8.686-19.477,12.453-32.385,13.078
			c-28.66,1.389-57.235,4.561-85.843,7.037c-3.983,0.345-57.424,15.09-56.866,21c4.671,49.518,14.014,147.615,3.736,216.759
			c-2.585,17.391,0.171,205.278,15.884,197.131c8.325-4.317,36.403,27.089,42.976,20.546c15.12-15.05,55.257-205.166,69.088-221.412
			c5.493-6.455,2.763-175.677,5.186-183.65c0.743-5.443,1.264-10.929,2.271-16.322c5.861-31.476,6.833-31.469,37.697-35.977
			c22.582-5.727,35.241-6.036,49.053-25.658C461.718,88.616,380.191,171.018,371.479,179.232z"/>
		<path fill-rule="evenodd" clip-rule="evenodd" fill="#D14C43" d="M375.956,152.082c56.752,36.969-23.293,42.244-42.748,45.844
			c-35.333,6.539-86.295,78.223-119.121,74.74c-22.303-2.365-65.399,0.935-79.904-54.069c-6.934-28.144,53.154-69.124,63.379-70.623
			c21.822-3.197,19.143-24.264,20.537-42.006c0.715-9.104-12.288-19.009-16.125-28.071c-3.418-8.076-2.812-14.785-3.551-23.589
			c-1.406-16.763,3.663-35.435,18.484-45.513c15.742-10.701,28.558-11.363,46.279-3.475c18.167,8.086,18.4,17.195,19.556,34.134
			c0.281,4.13-0.688,4.316,1.332,8.658c3.819,10.84,2.418,8.737-0.723,38.96c-0.63,9.71-5.672,9.706-8.295,17.784
			c-2.159,6.649-2.473,1.329,1.277,19.573c4.147,20.185,18.43,18.801,30.969,22.186C324.102,151.15,356.612,152.146,375.956,152.082
			z"/>
		<path fill-rule="evenodd" clip-rule="evenodd" fill="#D14C43" d="M365.851,184.126c-1.561-1.458-3.233-0.71-4.943-2.657
			c-15.506-17.644-12.236-24.417,16.96-33.059c12.284-5.394,14.167-6.639,26.213-12.553c2.06-1.012,17.185-7.539,16.046-11.682
			c-3.739-13.607,3.675-23.102,19.146-23.488c5.466-0.137,6.456-11.124,13.71-4.934c14.032,10.171,13.99,12.723-0.136,21.567
			c-3.123,1.957-6.627,3.563-9.64,5.455c-12.859,8.069-9.691,6.228-15.852,19.922c-17.634,24.208-20.583,25.696-43.902,39.464
			C375.168,184.216,378.532,186.254,365.851,184.126z"/>
		<g>
			<path fill-rule="evenodd" clip-rule="evenodd" fill="#ED1D24" d="M407.806,176.797
				C407.311,177.545,408.546,176.348,407.806,176.797L407.806,176.797z"/>
			<path fill-rule="evenodd" clip-rule="evenodd" fill="#3E456D" d="M482.322,751.148c-4.954-15.53-28.106-19.689-29.794-36.439
				c-2.09-20.7-11.019-41.271-13.807-61.9c-0.24-11.077-3.307-21.828-3.876-32.861c-4.122-13.66-7.07-27.704-12.724-40.863
				c-3.756-8.741-1.515-13.756,7.168-8.99c8.812,4.836-5.273-19.904-5.416-29.742c-0.389-27.717-40.589-41.93-43.702-66.149
				c0.245-15.757,1.318-34.917-8.349-47.237c-21.127-26.928,1.764-21.477,0.761-31.062c-1.876-17.915-6.089-6.265,2.421-23.41
				c5.535-11.154,8.258-64.132,16.599-78.995c4.081-7.273,7.718-14.37,10.147-20.682c2.432-6.316,2.209-34.641,10.089-38.037
				c-2.44-22.285-1.325-54.581,17.478-70.824c7.696-6.653-4.023-21.67,2.948-29.123c3.847-4.111,6.438-7.727,3.437-14.599
				c-3.508-8.024,0.848-15.805,8.355-19.857c6.1-3.293,10.209-7.671,13.228-13.546c-2.854-5.404-8.374-5.201-13.188-5.754
				c-8.462-0.972-30.778,9.588-30.432,21.645c0.221,7.709-5.372,11.254-9.322,17.326c-9.943,15.281-5.689,15.049-16.147,21.008
				c-14.039,7.999-9.679,3.15-26.936,10.975c-5.848,2.652-12.697,10.451-15.918,7.471c0,0-2.409-1.331,0.944-6.205
				c3.521-5.113,5.841-6.191,8.889-8.863c5.591-4.898,5.357-1.862,7.204-6.697c3.311-8.67,7.561-11.847,9.457-18.438
				c6.681-23.207,5.279-26.478-2.864-47.59c-8.673-11.119-18.899-15.699-31.603-21.539c-15.674-7.204-23.936-2.943-34.545,11.803
				c-8.091,11.244-8.912,27.414-22.314,35.693c-4.446,2.744-1.551,16.029-4.018,24.36c-3.751,12.675,6.681,12.688,12.948,15.671
				c13.061,6.215,25.039,2.594,18.812,18.301c-4.572,3.951-18.127,11.439-18.127,11.439c-5.503,4.33-16.714,7.133-25.491,8.655
				c-26.947,4.675-40.271,2.214-70.419-8.439c-1.885-0.666-20.028-5.804-21.979-5.721c-11.403,0.492-23.86-0.441-32.363-0.035
				c-7.654,0.366-20.97,11.431-22.623,20.397c-1.271,6.886,15.014,10.541,20.68,12.576c2.539,0.91,1.461-4.854,3.721-3.904
				c15.855,6.666,26.814,4.029,51.436,13.738c17.775,7.009,33.035,7.197,38.115,11.365c10.912,8.95,13.248,13.621,11.706,26.293
				c-2.401,19.719-9.617,20.263-8.21,38.994c-0.007,18.17-0.379,23.09,0.329,26.698c3.46,17.634,2.185,32.14,3.435,49.346
				c1.835,25.276,4.073,45.522,1.102,68.977c-0.948,7.481,1.867,27.45,1.408,35.278c-1.609,27.528-11.81,33.208-21.269,99.02
				c-4.632,32.214,2.48,53.934-12.629,80.085c3.275,10.597-1.25,10.215,1.915,13.419c1.983,2.008,2.295,9.326,1.884,11.215
				c-4.202,19.295-6.166,21.584,2.241,37.307c3.272,6.123,3.432,11.737,2.863,19.789c-2.365,33.492-4.234,14.335-12.103,38.709
				c-2.832,8.774-7.171,20.627,0.058,22.503c8.438,2.191,7.103,5.737,13.052,7.54c18.871,5.719,28.145,6.676,45.085-2.453
				c26.76-14.42,30.95,2.182,54.695,5.57c24.519,3.496,13.868,2.2,38.157,2.266c17.444,0.046,6.839,3.774,24.339,3.342
				c12.11-0.302-12.328-13.246-0.98-13.189c0.588,0.004,9.391-4.812,11.035-4.855c12.098-0.311,6.49,7.096,14.283,5.852
				c7.635-1.221,6.25,1.413,13.67-3.264c12.705-8.007,20.711,2.429,27.791,0.625c7.381-1.878,11.278-13.559,16.379-9.861
				C462.179,775.811,486.577,764.482,482.322,751.148z M352.291,308.328c-7.305,6.861-6.546,0.101-4.405-17.078
				c5.043-40.475,13.804-47.077,26.894-83.51c1.88-5.235,0.515-11.353,1.73-12.262c8.287-6.196,3.927-8.064,14.371-10.537
				c4.705-1.113,7.774-0.798,13.993-5.894c1.738-1.423,2.57-2.032,2.932-2.251c0.213-0.322,0.744-1.002,1.894-2.332
				c-3.695,9.443-27.933,72.217-32.611,83.978c-8.451,21.245-4.937,20.011-13.364,33.688
				C360.061,298.076,356.161,304.691,352.291,308.328z"/>
		</g>
		<path fill-rule="evenodd" clip-rule="evenodd" fill="#D14C43" d="M141.381,230.105c-3.725-8.306,3.601-9.479,10.755-9.495
			c31.203-0.075,37.178,5.81,65.947,25.657c10.247,7.071,25.474,20.484,32.309,17.996c14.131-5.145,32.557,1.463,46.48,8.671
			c0.877,0.454-0.406,4.983-0.61,5.157c-11.652,9.99,3.245,11.631,10.447,14.383c5.617,2.148,11.415-0.437,12.61,4.877
			c1.112,4.941,0.305,13.516-3.493,17.187c-4.558,4.403-10.298,2.96-15.333,2.116c-13.094-2.187-17.597-4.941-26.765-9.287
			c-10.141-4.805-19.016-8.074-24.366-0.514c-9.045,0.938-16.138-1.955-26.006-5.659c-12.036-4.518-8.989-3.365-23.998-12.181
			c-20.461-12.018-28.046-18.187-43.709-31.624C148.446,252.094,141.13,238.102,141.381,230.105z"/>
		<path fill-rule="evenodd" clip-rule="evenodd" fill="#3E456D" d="M294.357,508.833c-4.253-63.58-55.026-109.478-66.903-172.847
			c-2.699-14.398-14.894-53.506,1.656-125.943c1.288-7.27-2.357-12.141-6.812-16.189c-8.625-7.84,8.173-8.35-5.184-11.182
			c-0.086,1.785-0.117,3.629-0.318,5.34c-9.837,83.777-20.034,115.971-18.104,192.326c0.451,17.85-6.309,34.115,2.633,51.687
			c3.254,6.396,3.434,12.538-0.227,19.071c-1.646,2.939,7.059,5.918,6.016,8.922c-6.688,19.269,26.988,39.596,14.889,57.568
			c-4.108,6.104-2.08,7.709,3.396,10.766c7.108,3.971-4.092,17.352-0.541,23.934C224.859,552.285,295.725,529.279,294.357,508.833z"
			/>
	</g>
</g>
<g id="Layer_7">
</g>
<g id="Layer_8">
</g>
<g id="Layer_9">
</g>
<g id="Layer_10">
</g>
<g id="Layer_11">
</g>
<g id="Layer_12">
</g>
<g id="Layer_13">
</g>
<g id="Layer_14">
</g>
<g id="Layer_15">
</g>
<g id="Layer_16">
	<g>
		<path fill-rule="evenodd" clip-rule="evenodd" fill="#D14C43" d="M398.326,1265.738c-1.99,21.434-4.334,42.828-6.729,64.195
			c-2.371,21.152-2.898,42.479-5.832,63.576c-1.645,11.855-0.799,23.947,1.238,35.934c6.719,39.498,7.098,57.451,27.133,91.953
			c1.596,2.748,0.291,2.242,0.797,5.496c5.318,6.904-0.58-6.742,1.535,1.998c1.332,5.516,1.078,11.146-0.863,15.74
			c-5.061,11.973-3.744,24.256-3.084,36.627c1.734,4.453,1.828,8.883,0.057,13.289c-0.268,2.592-2.092,3.859-4.201,4.213
			c-11.67,1.961-23.316,1.703-34.863-1.553c-2.402-4.939-1.42-9.873-0.205-14.807c3.787-13.289,2.854-27.158,3.979-40.768
			c0.742-8.975-0.77-9.818-8.801-6.578c-3.488,1.404-6.908,3.281-10.549,3.973c-9.924,1.883-10.492,4.365-16.268-5.953
			c-9.004-16.092-17.223-54.496-19.145-58.799c-1.254,10.322-1.344,50.176-4.289,58.014c-3.346,8.906-4.277,17.479-1.799,27.271
			c2.508,9.916-1.281,13.701-11.105,13.393c-14.807-0.471-29.568,2.498-44.393-0.287c-9.769-1.834-13.923-4.281-7.872-11.922
			c2.201-2.779,9.284-5.061,12.042-7.072c12.285-8.969,10.715-22.521,7.037-35.691c0.939-49.803,7.725-92.176,13.295-106.826
			c2.297-6.041,2.186-11.457-0.732-16.867c-4.959-9.182-5.568-19.293-6.215-29.219c-3.318-19.414-4.363-24.287-7.445-44.08
			c-0.332-2.139-18.797-85.594-9.877-105.232l0.061-3.227c2.102-12.92-1.34-25.881-2.801-38.744
			c-2.043-18.002-4.454-35.979-6.793-53.939c-2.118-16.271-3.274-32.699-6.401-48.855c-0.325-1.695-0.461-3.412-0.482-5.133
			c-0.195-14.604-4.465-27.318-15.439-37.568c-6.217-5.809-23.609-17.842-29.527-18.496c-24.953-2.75-45.575-11.672-74.807-14.406
			c-4.07-0.381-35.179-27.561-43.826-41.33c-5.075-8.082-5.08-7.738-10.568-18.219c-7.516-14.352-8.718-12.498-9.785-17.279
			c-2.906-13.025,3.02-14.604,5.93-14.133c7.516-0.146,10.236-5.199,14.713-10.375c0.032-1.889,0.273-3.922,0.22-5.602
			c-0.099-3.146-2.179-7.785,2.128-7.861c2.672-0.047,4.994,4.514,5.927,8.07c0.361,1.371,0.31,2.852,0.443,4.283
			c0.784,6.701,3.966,8.385,4.535,12.824c1.834,14.273,6.741,17.445,15.843,29.715c17.092,23.041,64.602,16.682,69.24,16.631
			c19.507-0.221,35.945-11.107,55.303-13.158c14.369-1.523,28.079-6.617,40.142-15.258c4.861-3.486,6.021-7.568,4.002-13.744
			c-4.049-12.385-7.812-24.936-10.537-37.662c-2.639-12.326-0.277-24.787,1.334-37.049c1.033-7.838,1.582-16.123,7.705-22.105
			c20.641-20.16,53.062-17.018,67.756,8.77c3.074,5.396,2.785,11.447,2.943,17.254c0.396,14.662,1.871,29.045-8.295,42.141
			c-7.557,9.734-7.828,17.428-2.986,29.248c1.883,5.764,17.744,20.814,19.934,23.316c24.043,14.914,17.268,14.666,41.168,14.521
			c3.844-0.025,34.109,1.82,43.822,5.773c3.652,4.127,60.057,31.451,64.578,31.117c15.584,9.799,2.486,14.24-4.977,31.199
			c-0.682,1.555-21.658,18.49-28.543,26.455c-8.047,9.311-62.295,29.125-71.549,32.719c-0.844,0.324,3.51-11.264,5.152-16.992
			c3.029-10.557,37.008-34.867,29.623-36.209c-12.521-6.73-46.094,7.537-46.996,12.199c-3.627,18.717-6.977,45.848-10.457,64.596
			c-0.672,3.605-1.26,7.24-2.129,10.787c-1.412,5.744-0.531,11.01,1.787,16.453c16.449,38.656,18.357,67.428,25.395,108.781
			L398.326,1265.738z"/>
	</g>
</g>
<g id="Layer_17_1_">
</g>
<g id="Layer_18_1_">
</g>
<g id="Layer_19">
</g>
<g id="Layer_20">
</g>
<g id="Layer_21">
</g>
<g id="Layer_22">
</g>
<g id="Layer_23">
</g>
<g id="Layer_10_copy">
</g>
<g id="Layer_11_copy">
</g>
<g id="Layer_12_copy">
</g>
<g id="Layer_13_copy">
</g>
<g id="Layer_14_copy">
</g>
<g id="Layer_15_copy">
</g>
<g id="Layer_16_copy">
</g>
<g id="Layer_17_copy">
</g>
<g id="Layer_18_copy">
</g>
<g id="Layer_19_copy">
</g>
<g id="Layer_20_copy">
</g>
<g id="Layer_21_copy">
</g>
<g id="Layer_22_copy">
</g>
<g id="Layer_23_copy">
</g>
<g id="Layer_24">
</g>
<g id="Layer_25">
</g>
<g id="Layer_26">
</g>
<g id="Layer_27">
</g>
<g id="Layer_0-6_copy">
</g>
<g id="Layer_0-5_copy">
</g>
<g id="Layer_0-4_copy">
</g>
<g id="Layer_0-3_copy">
</g>
<g id="Layer_0-2_copy">
</g>
<g id="Layer_0-1_copy">
</g>
<g id="Layer_0-0_copy">
</g>
</svg>
