<?xml version="1.0" encoding="utf-8"?>
<!-- Generator: Adobe Illustrator 16.0.0, SVG Export Plug-In . SVG Version: 6.00 Build 0)  -->
<!DOCTYPE svg PUBLIC "-//W3C//DTD SVG 1.1//EN" "http://www.w3.org/Graphics/SVG/1.1/DTD/svg11.dtd">
<svg version="1.1" xmlns="http://www.w3.org/2000/svg" xmlns:xlink="http://www.w3.org/1999/xlink" x="0px" y="0px" width="600px"
	 height="800px" viewBox="0 0 600 800" enable-background="new 0 0 600 800" xml:space="preserve">
<g id="Layer_0-0">
</g>
<g id="Layer_0-1">
</g>
<g id="Layer_0-2">
</g>
<g id="Layer_0-3">
</g>
<g id="Layer_0-4">
</g>
<g id="Layer_0-5">
</g>
<g id="Layer_0-6">
</g>
<g id="Layer_1">
</g>
<g id="Layer_2">
</g>
<g id="Layer_3">
</g>
<g id="Layer_4">
</g>
<g id="Layer_5">
</g>
<g id="Layer_6">
</g>
<g id="Layer_7">
</g>
<g id="Layer_8">
</g>
<g id="Layer_9">
</g>
<g id="Layer_10">
</g>
<g id="Layer_11">
</g>
<g id="Layer_12">
</g>
<g id="Layer_13">
</g>
<g id="Layer_14">
</g>
<g id="Layer_15">
</g>
<g id="Layer_16">
</g>
<g id="Layer_17_1_">
</g>
<g id="Layer_18_1_">
</g>
<g id="Layer_19">
</g>
<g id="Layer_20">
</g>
<g id="Layer_21">
</g>
<g id="Layer_22">
</g>
<g id="Layer_23">
</g>
<g id="Layer_10_copy">
</g>
<g id="Layer_11_copy">
</g>
<g id="Layer_12_copy">
</g>
<g id="Layer_13_copy">
</g>
<g id="Layer_14_copy">
</g>
<g id="Layer_15_copy">
</g>
<g id="Layer_16_copy">
</g>
<g id="Layer_17_copy">
	<g>
		<path fill="#3E456D" d="M539.518,159.163c-1.734-9-9.833-14.51-17.841-13.908c-39.575,2.963-48.962,16.352-88.39,19.873
			c-9.871,0.885-16.87-3.258-22.81-9.625c-3.199-3.432-8.371-7.66-4.454-12.551c2.248-2.812,10.199-13.078,13.779-22.434
			c3.346-8.752,4.568-13.207,6.161-20.156c3.21-14.004,0.638-35.605-6.46-43.984c-11.224-13.25-9.83-17.172-25.737-19.123
			c-19.099-2.346-30.134,0.184-42.515,14.986c-9.437,11.287-14.293,15.939-15.123,32.994c-0.275,5.672,1.479,15.793,3.15,24.453
			c2.577,13.352,5.621,11.244,11.05,17.604c5.083,5.957,2.548,6.535,1.282,16.494c-0.812,6.422-10.771,13.545-14.728,18.762
			c-10.541,13.898-25.04,18.061-41.95,17.119c-11.227-0.627-22.318,1.359-33.087,3.34c-25.993,4.777-16.657-2.455-41.983-4.557
			c-15.367-1.277-43.299,4.135-57.35-0.943c-23.061-8.174-40.479-23.98-58.163-39.424c-5.609-4.9-8.989-10.59-8.759-18.328
			c0.363-12.102-9.582-40.969-11.176-38.016c-7.617,9.092-6.188,4.938-15.059,5.912c-5.046,0.555-9.066,11.863-9.102,18.059
			c-0.039,6.693-1.975,8.387,4.421,11.691c7.87,4.066,12.435,11.877,8.759,19.932c-3.146,6.898,2.404,10.527,6.438,14.654
			c7.307,7.48,11.777,15.051,19.846,21.729c19.71,16.305,25.88,33.469,23.324,55.838c8.259,3.41-0.268,15.395,2.615,21.547
			c58.054,123.91,51.674,111.664,58.163,159.846c2.096,15.59,43.788,33.6,44.042,49.416c-2.984,22.248,2.539,48.236,2.213,70.398
			c-0.148,9.877-0.682,66.697-3.248,80.844c-1.979,10.91-19.221,30.4-20.126,41.484c-1.701,20.842-12.281,31.908-14.472,52.688
			c-1.455,13.807-18.454,38.633-9.344,32.311c5.35-3.715,9.435,8.012,17.173,9.896c7.421,1.811,15.814-8.664,29.134-0.629
			c7.779,4.695,6.326-22.512,14.332-21.289l15.894,9.648c6.188-0.078,8.585,4.492,6.867,10.695
			c-1.29,4.646-2.062,9.537-0.317,13.912c2.392,6,1.683,11.441-0.139,17.303c-2.26,7.275,0.639,12.398,7.869,15.102
			c4.178,1.562,8.432,2.934,12.575,4.582c4.921,1.957,10.694,4.482,14.781,0.848c4.157-3.699,3.474-10.01,2.365-15.518
			c-0.098-0.486-0.218-0.969-0.296-1.459c-1.895-11.936-4.699-37.203-4.699-37.203c18.344,0.434,26.815,43.861,45.105,43.814
			c25.461-0.064,4.502,10.615,30.207,7.105c26.994-3.689,48.288-24.521,47.89-14.969c-0.807,19.301,37.97-10.695,57.757-16.434
			c6.234-1.812-4.961-5.371,3.887-7.572c7.577-1.879,12.822-4.398,9.853-13.209c-8.246-24.463-10.554-14.404-13.032-48.023
			c-0.596-8.082-0.43-13.717,3-19.865c8.814-15.781,12.184-12.328-0.587-27.928c-4.732-5.785-3.821-10.07,4.912-11.26
			c4.675-0.631-4.176-11.793,2.354-13.535c-17.455-14.775,6.177-17.393,8.301-31.115c2.494-16.115,5.201-27.541,13.219-41.768
			c3.859-6.854-8.318-20.783-0.589-24.914c5.954-3.182,8.157-4.854,3.694-11.207c-15.206-21.625,1.953-46.521-11.314-69.209
			c-3.979-6.799-13.233-13.193-9.692-19.852c9.718-18.289,8.948-64.492,2.861-82.143c-15.962-46.266,13.104-72.529-2.959-118.762
			c-0.593-1.701-9.702-22.594-9.796-24.453c-14.518,2.947-17.999,17.01-27.374,25.172c-4.846,4.213-9.892,9.283-8.493,16.85
			c4.277,14.973,13.314,68.166,14.51,83.371c4.707,59.887-4.967,119.902-7.508,179.914c-0.055,1.346-0.289,2.734-0.376,3.936
			c0.21,0.975,0.478,1.938,0.666,2.912c-0.672-0.555-0.757-1.625-0.666-2.912c-5.298-24.488-4.661-31.332-13.794-56.156
			c-2.732-7.42-12.223-27.898-13.217-35.408c-3.114-23.541-8.58-45.84-14.516-69.236c-4.27-16.828,1.351-31.832-2.275-49.531
			c-0.743-3.623,18.976-53.742,28.958-65.939c12.911-15.783,30.125-35.605,49.491-34.834c6.882,0.273-15.107,1.25-4.404,1.721
			c17.894-2.174,29.293-7.979,45.914-14.67C538.063,180.786,541.445,169.173,539.518,159.163z M286.202,354.683
			c-3.472,17.334-5.452,24.872-21.538,15.957C197.067,333.174,143.067,249.174,135.71,211.8c10.964,6.838,15.508,2.535,24.64,10.781
			c9.659,8.717,38.336-6.395,51.867-5.768c30.048,1.393,25.719,5.516,55.711,8.002c4.176,0.346,7.592,0.074,9.935,5.596
			C294.177,268.835,294.378,313.845,286.202,354.683z"/>
		<path fill-rule="evenodd" clip-rule="evenodd" fill="#D14C43" d="M354.881,480.739c-2.057,22.125-4.475,44.209-6.947,66.266
			c-2.448,21.832,4.567,43.846,1.539,65.623c-1.697,12.236-0.824,24.717,1.279,37.09c6.934,40.77-1.643,36.035,8.166,85.469
			c1.645,2.836,0.299,2.312,0.821,5.672c5.491,7.127-0.6-6.959,1.585,2.062c1.375,5.693,1.112,11.504-0.892,16.246
			c-5.226,12.359-0.085,6.143,0.597,18.912c1.787,4.596-1.894,9.168-3.721,13.717c-0.276,2.676-2.158,3.984-4.338,4.35
			c-12.047,2.023-24.065,1.758-35.986-1.605c-2.479-5.098-1.463-10.189-0.213-15.283c3.912-13.717,2.947-9.137,4.109-23.186
			c0.766-9.262-0.797-10.133-9.083-6.787c-3.604,1.449-7.134,3.387-10.89,4.1c-10.244,1.943-10.439,20.535-7.881,30.643
			c2.589,10.236-9.827,14.143-19.966,13.824c-15.283-0.486-20.13,2.578-35.43-0.297c-10.087-1.893-14.374-4.418-8.128-12.307
			c2.273-2.869,9.582-5.223,12.431-7.299c3.205-19.857,0.668-23.248-3.128-36.84c0.971-51.408,1.36-95.146,7.109-110.27
			c2.373-6.234,2.255-11.824-0.754-17.408c-5.121-9.479-5.75-19.916-6.416-30.16c-3.426-20.039-4.504-25.07-7.685-45.5
			c-0.343-2.209-19.403-88.352-10.196-108.621l0.061-3.332c2.17-13.336-1.38-26.715-2.889-39.992
			c-2.109-18.58-4.6-37.139-7.014-55.676c-2.185-16.797-3.379-33.752-6.607-50.43c-0.334-1.75-0.475-3.521-0.496-5.299
			c-0.201-15.074,5.782-28.197-5.545-38.779c-6.417-5.996-21.702-13.541-27.254-20.408c-3.832-4.74-55.947-14.33-59.018-17.119
			c-13.84-5.646-20.866-11.057-26.038-24.924c-3.444-9.229-21.783-43.863-21.951-50.812c-0.218-8.941-1.166-15.922,7.065-14.588
			c7.758-0.15,3.953-5.367,8.574-10.709c0.033-1.951,1.348-4.227,2.115-5.781c1.365-2.76-2.248-8.037,2.194-8.115
			c2.761-0.049,5.155,4.658,6.118,8.33c0.373,1.416,0.321,2.943,0.459,4.422c-1.291,5.133,0.854,8.727,1.848,13.236
			c10,45.369,56.082,45.324,63.258,44.059c23.17-4.082,18.209-7.686,38.188-9.803c14.833-1.572,28.987-6.83,41.438-15.748
			c5.02-3.598,6.217-7.812,4.13-14.188c-4.179-12.783-8.063-25.738-10.877-38.875c-2.722-12.723-0.284-25.584,1.378-38.242
			c1.064-8.09,1.631-16.643,7.955-22.816c21.305-20.811,54.77-17.568,69.937,9.053c3.173,5.568,2.876,11.812,3.037,17.809
			c0.411,15.133,1.934,29.98-8.56,43.498c-7.801,10.047-8.084,17.988-3.083,30.189c1.942,5.949,18.314,21.486,20.576,24.068
			c24.815,15.393,17.822,15.137,42.493,14.986c3.967-0.025,35.207,1.881,45.234,5.961c3.77,4.26,61.988,32.465,66.658,32.121
			c16.084,10.113-9.746,5.6-17.447,23.105c-0.703,1.604-11.336,38.732-29.436,40.184c-7.408-13.732,12.496-35.02,4.873-36.404
			c-12.924-6.947-78.129,19.262-79.059,24.076c-3.746,19.318-7.199,47.324-10.794,66.676c-0.692,3.721-1.301,7.473-2.196,11.133
			c-1.457,5.932-0.549,11.367,1.842,16.984c16.98,39.9,11.394,69.6,18.658,112.285L354.881,480.739z"/>
		<path fill="#3E456D" d="M469.35,183.872c-20.717,13.018-56.357,37.184-64.02,38.285c-11.984,1.721-20.58,4.801-34.41,13.846
			c10.553,8.762-3.542,16.15-1.059,24.723c1.413,4.877,21.75,7.203,27.61,9.221c5.266-4.133,39.589-29.434,42.962-34.115
			c6.114-8.486,15.347-10.484,24.844-14.906c36.23-16.877,65.389-44.297,64.274-50.998
			C526.189,149.737,486.679,172.985,469.35,183.872z"/>
	</g>
</g>
<g id="Layer_18_copy">
</g>
<g id="Layer_19_copy">
</g>
<g id="Layer_20_copy">
</g>
<g id="Layer_21_copy">
</g>
<g id="Layer_22_copy">
</g>
<g id="Layer_23_copy">
</g>
<g id="Layer_24">
</g>
<g id="Layer_25">
</g>
<g id="Layer_26">
</g>
<g id="Layer_27">
</g>
<g id="Layer_0-6_copy">
</g>
<g id="Layer_0-5_copy">
</g>
<g id="Layer_0-4_copy">
</g>
<g id="Layer_0-3_copy">
</g>
<g id="Layer_0-2_copy">
</g>
<g id="Layer_0-1_copy">
</g>
<g id="Layer_0-0_copy">
</g>
</svg>
