<?xml version="1.0" encoding="utf-8"?>
<!-- Generator: Adobe Illustrator 16.0.0, SVG Export Plug-In . SVG Version: 6.00 Build 0)  -->
<!DOCTYPE svg PUBLIC "-//W3C//DTD SVG 1.1//EN" "http://www.w3.org/Graphics/SVG/1.1/DTD/svg11.dtd">
<svg version="1.1" xmlns="http://www.w3.org/2000/svg" xmlns:xlink="http://www.w3.org/1999/xlink" x="0px" y="0px" width="600px"
	 height="800px" viewBox="0 0 600 800" enable-background="new 0 0 600 800" xml:space="preserve">
<g id="Layer_0-0">
</g>
<g id="Layer_0-1">
</g>
<g id="Layer_0-2">
</g>
<g id="Layer_0-3">
	<g>
		<path fill-rule="evenodd" clip-rule="evenodd" fill="#3E456D" d="M517.871,81.204c-8.166-0.939-17.316,0.332-18.213-15.666
			c-6.018,14.595-11.494,24.92-11.16,36.557c0.213,7.443-2.031,12.912-7.195,17.627c-16.281,14.847-32.318,30.048-53.551,37.908
			c-12.936,4.884-22.158,17.85-36.307,19.076c-23.318,2.02-46.285,8.977-70.219,4.381c-9.914-1.904-20.131-3.813-30.465-3.211
			c-15.568,0.906-28.918-3.098-38.621-16.463c-3.643-5.017-9.551-7.914-14.465-11.729c-6.687-15.161-4.859-19.779,9.172-25.779
			c6.73-2.879,17.936-2.893,13.906-15.125c-2.648-8.043,0.461-20.864-4.314-23.514c-14.396-7.992-15.281-23.6-23.971-34.452
			c-11.396-14.233-20.271-18.346-37.108-11.394c-13.646,5.637-27.435,10.021-38.966,21.691
			c-19.412,19.65-21.402,24.775-4.081,45.936c4.366,5.332,9.333,9.957,7.147,18.697c-1.619,6.476,12.423,19.911,16.773,17.289
			c3.615-2.181,5.766-5.4,9.547-0.463c3.604,4.703,1.547,8.769-1.396,12.068c-5.467,6.123-11.912,10.105-20.998,9.256
			c-36.303-3.387-71.357,10.792-107.793,7.944c-7.373-0.579-14.83,4.72-16.426,13.375c-1.774,9.626,5.688,13.523,12.73,16.485
			c15.303,6.434,31.371,10.266,47.843,12.357c2.54-5.17,6.104-7.703,12.44-7.968c17.829-0.741,33.676,2.087,45.564,17.265
			c9.189,11.729,20.827,18.529,36.83,18.477c12.592-0.04,18.995,8.256,20.791,21.984c0.491,3.766,2.883,6.48,5.102,9.274
			c4.203,5.294,7.666,11.019,10.121,17.317c1.508,3.871,2.587,8.209-0.765,11.321c-4.015,3.731-7.421-0.59-10.794-2.171
			c-8.729-4.096-13.229-13.371-21.443-18.04c-4.758-2.702-9.871-9.199-15.301-0.687c-0.099,3.628,0.63,7.217,2.12,10.438
			c7.544,16.296,5.676,31.625-2.095,47.631c-10.113,20.826-13.633,43.438-13.365,66.577c0.085,7.278-0.832,14.177-4.953,20.524
			c-13.783,21.223-24.056,43.975-28.935,67.523c0.084,1.238,0.008,2.267-0.612,2.801c0.176-0.938,0.42-1.864,0.612-2.801
			c-0.077-1.154-0.294-2.488-0.347-3.783c-2.338-57.707-2.226-115.418,2.109-173.005c1.101-14.622,0.721-29.567,4.659-43.964
			c1.29-7.276-3.359-12.151-7.817-16.204c-8.633-7.848-11.838-21.37-25.205-24.204c-0.086,1.787,0.227,3.708-0.318,5.344
			c-14.788,44.458-29.775,88.85-44.469,133.34c-5.605,16.971-10.823,34.146-1.875,51.734c3.258,6.4,3.437,12.549-0.227,19.088
			c-12.214,21.816-22.248,44.856-36.246,65.65c-4.111,6.109-2.082,7.717,3.399,10.775c7.114,3.975,15.744,8.35,19.299,14.938
			c7.38,13.683,20.693,24.672,22.989,40.168c1.956,13.195,15.916,26.601-0.154,40.807c6.012,1.676,10.17,3.324,14.473,3.933
			c7.209,1.024,8.409,4.291,5.633,9.1c-37.225,105.409-37.594,134.515,65.312,148.209c11.504,1.53,51.095-39.157,54.313-45.382
			c9.305-17.98-14.734-34.63-17.451-35.1c0,0,5.256-70.108-21.303-55.806c-56.316,30.322-3.689-66.509,9.244-56.802
			c-10.953-48.74,3.241,45.377,40.304,32.385c-4.852,15.144-8.75,35.939-14.239,52.475c-9.973,30.055,7.023,38.168,13.493,39.761
			c67.003,16.483,62.382,14.669,35.886,63.583c35.508-33.006,127.629-27.891,128-27.252c2.258,0.237,3.709,2.83,4.887,9.311
			c0.436,2.391-0.688,5.742,3.877,5.682c3.234-4.029-1.264-10.217,5.57-11.957c7.125-1.812,10.887,4.95,15.809,8.52
			c0.717,0.52,1.371,1.178,1.912,1.882c13.465,17.6,30.783,17.325,49.203,13.649c3.279-0.652,4.863,1.607,5.1-2.68
			c0.262-4.709-3.396-6.785-6.615-7.966c-13.363-4.916-28.039-11.692-32.146-24.563c-4.781-14.99-13.6-26.219-15.23-42.388
			c-2.016-19.979-5.223-39.836-7.914-59.747c-0.232-10.691-3.191-21.068-3.74-31.719c-3.979-13.185-6.826-26.74-12.283-39.441
			c-3.623-8.438-2.705-14.408,6.918-17.697c9.182-3.137,12.947-10.193,12.811-19.689c-0.299-21.31,4.756-42.457,2.006-63.848
			c0.236-15.209-0.973-30.605,0.959-45.596c8-62.041,44.713-123.886,45.121-186.666c0.043-6.531,0.328-13.595,7.936-16.874
			c-2.355-21.511-1.279-41.86,16.869-57.54c7.43-6.42,14.152-13.701,20.883-20.895c3.713-3.966,6.213-7.457,3.316-14.089
			c-3.385-7.746,0.818-15.256,8.064-19.167c5.889-3.179,9.854-7.403,12.768-13.073C527.844,81.54,522.518,81.736,517.871,81.204z
			 M138.189,653.484c18.007,3.604,19.952,22.75,17.568,29.729c-4.019,11.559-28.189,16.334-46.592,13.395
			C91.396,693.812,126.574,651.164,138.189,653.484z M381.049,290.197c-13.35,15.681-26.836,31.2-41.43,45.728
			c-6.344,6.315-12.951,12.405-20.986,16.573c-15.166,7.863-21.143,4.928-24.338-11.739c-7.531-39.271-2.836-77.14,12.186-114.089
			c2.158-5.309,5.301-5.049,9.146-5.381c27.613-2.391,55.192-5.453,82.857-6.793c12.459-0.604,22.367-4.24,31.26-12.624
			c8.408-7.927,17.389-15.248,27.482-21.824C450.23,194.492,386.352,283.967,381.049,290.197z"/>
		<path fill-rule="evenodd" clip-rule="evenodd" fill="#D14C43" d="M427.752,157.629c-12.473,13.031-26.523,21.083-45.301,24.559
			c-34.104,6.311-67.439,0.465-101.092-0.805c-21.633-0.814-32.598-16.342-43.684-31.699c9.551-3.605,18.84-9.002,28.707-10.449
			c21.062-3.086,27.494-18.009,28.84-35.132c0.691-8.789-4.645-18.348-8.348-27.097c-3.301-7.795-8.127-15.172-8.838-23.669
			c-1.357-16.18,0.83-32.4,15.137-42.128C308.367,0.88,326.77-3.603,344.156,3.345c15.934,6.37,21.018,23.442,25.57,38.599
			c4.18,13.909,2.053,28.5,1.107,43.018c-0.609,9.372-3.705,12.307-11.615,14.459c-16.914,4.602-14.109,4.891-10.49,22.5
			c4.004,19.482,18.691,18.148,30.793,21.414C395.736,147.713,412.654,149.484,427.752,157.629z"/>
		<path fill-rule="evenodd" clip-rule="evenodd" fill="#D14C43" d="M408.732,555.061c-2.221-6.377-10.637-11.729-4.146-17.721
			c5.861-5.41,8.949-7.566,8.566-21.643c-0.535-19.74-3.113-69.73,1.352-89.275c9.107,17.039,40.355,70.006,44.316,88.591
			c2.443,11.474,6.805,21.171,15.998,28.337c8.049,6.273,13.332,14.482,16.752,23.757c9.523,25.855,21.352,51.073,25.992,78.417
			c3.592,21.182,22.232,36.356,23.131,57.604c0.734,17.386,12.234,25.823,22.471,35.939c5.91,5.836,10.34,12.555,12.125,20.381
			c1.738,7.628,3.863,16.162-4.84,21.795c-8.98,5.815-18.668,5.416-26.055-1.283c-13.154-11.928-26.68-24.168-32.033-42.027
			c-1.697-5.658-2.678-9.051-9.334-5.66c-4.891,2.487-8.346,0.615-10.377-4.568c-14.207-36.252-34.729-68.932-54.262-102.615
			C434.381,618.178,414.391,571.295,408.732,555.061z"/>
		<path fill-rule="evenodd" clip-rule="evenodd" fill="#D14C43" d="M99.741,214.057c-2.65-7.882-1.574-11.541,8.485-11.664
			c22.312-0.268,42.43,2.5,56.273,23.047c5.93,8.803,14.717,13.506,26.421,11.83c14.7-2.109,21.259,11.195,31.2,18.058
			c0.629,0.434,1.29,2.079,1.129,2.218c-12.48,10.68,4.088,13.773,5.633,20.787c1.116,5.059,5.682,9.418,6.527,14.455
			c0.787,4.686,0.197,11.037-2.525,14.507c-3.266,4.167-8.262-1.644-11.859-2.454c-9.361-2.105-13.227-9.445-19.115-15.065
			c-5.398-5.154-10.608-11.886-18.736-12.96c-6.469,0.869-12.018,2.322-18.369,4.332c-14.545,4.602-17.089,3.134-23.82-11.621
			c-10.842-12.388-21.684-24.774-32.525-37.162C103.318,227.326,99.55,221.633,99.741,214.057z"/>
		<path fill-rule="evenodd" clip-rule="evenodd" fill="#D14C43" d="M468.699,211.522c-1.873-0.864-5.775-0.284-5.336-2.746
			c3.232-18.134-1.09-38.415,15.115-52.968c9.635-8.652,18.842-17.783,28.1-26.844c1.584-1.547,4.773-2.775,2.48-6.23
			c-7.537-11.345-3.605-22.289,10.461-27.314c4.971-1.775,2.562-12.147,11.08-8.662c15.936,5.086,16.668,7.439,6.389,19.813
			c-2.273,2.736-5,5.267-7.191,7.911c-9.354,11.281-6.666,20.62-0.986,32.374c10.832,22.416-0.305,47.03-23.824,56.65
			C493.326,208.276,480.967,209.645,468.699,211.522z"/>
		<path fill-rule="evenodd" clip-rule="evenodd" fill="#D14C43" d="M429.744,201.872c-8.893,8.384-18.801,12.021-31.26,12.624
			c-27.665,1.34-55.244,4.402-82.857,6.793c-3.846,0.332-6.988,0.072-9.146,5.381c-15.021,36.949-19.717,74.818-12.186,114.089
			c3.195,16.667,9.172,19.603,24.338,11.739c8.035-4.168,14.643-10.258,20.986-16.573c14.594-14.527,28.08-30.047,41.43-45.728
			c5.303-6.23,9.461-12.59,11.799-20.287c0.717-5.254,1.221-10.548,2.191-15.755c5.658-30.38,5.695-30.374,35.484-34.725
			c12.73-10.606,19.707-24.938,26.703-39.383C447.133,186.624,438.152,193.945,429.744,201.872z"/>
		<path fill-rule="evenodd" clip-rule="evenodd" fill="#3E456D" d="M134.713,489.74c-2.338-57.707-2.226-115.418,2.109-173.005
			c1.101-14.622,8.721-89.567,12.659-103.964c1.29-7.276-3.359-12.151-7.817-16.204c-8.633-7.848-1.838-21.37-15.205-24.204
			c-0.086,1.787,0.227,3.708-0.318,5.344c-14.788,44.458-47.775,148.85-62.469,193.34c-5.605,16.971-10.823,34.146-1.875,51.734
			c3.258,6.4,3.437,12.549-0.227,19.088c-12.214,21.816-22.248,44.856-36.246,65.65c-4.111,6.109-2.082,7.717,3.399,10.775
			c7.114,3.975,15.744,8.35,19.299,14.938c7.38,13.683,20.693,24.672,22.989,40.168C72.968,586.596,134.766,491.035,134.713,489.74z
			"/>
	</g>
</g>
<g id="Layer_0-4">
</g>
<g id="Layer_0-5">
</g>
<g id="Layer_0-6">
</g>
<g id="Layer_1">
</g>
<g id="Layer_2">
</g>
<g id="Layer_3">
</g>
<g id="Layer_4">
</g>
<g id="Layer_5">
</g>
<g id="Layer_6">
</g>
<g id="Layer_7">
</g>
<g id="Layer_8">
</g>
<g id="Layer_9">
</g>
<g id="Layer_10">
</g>
<g id="Layer_11">
</g>
<g id="Layer_12">
</g>
<g id="Layer_13">
</g>
<g id="Layer_14">
</g>
<g id="Layer_15">
</g>
<g id="Layer_16">
</g>
<g id="Layer_17_1_">
</g>
<g id="Layer_18_1_">
</g>
<g id="Layer_19">
</g>
<g id="Layer_20">
</g>
<g id="Layer_21">
</g>
<g id="Layer_22">
</g>
<g id="Layer_23">
</g>
<g id="Layer_10_copy">
</g>
<g id="Layer_11_copy">
</g>
<g id="Layer_12_copy">
</g>
<g id="Layer_13_copy">
</g>
<g id="Layer_14_copy">
</g>
<g id="Layer_15_copy">
</g>
<g id="Layer_16_copy">
</g>
<g id="Layer_17_copy">
</g>
<g id="Layer_18_copy">
</g>
<g id="Layer_19_copy">
</g>
<g id="Layer_20_copy">
</g>
<g id="Layer_21_copy">
</g>
<g id="Layer_22_copy">
</g>
<g id="Layer_23_copy">
</g>
<g id="Layer_24">
</g>
<g id="Layer_25">
</g>
<g id="Layer_26">
</g>
<g id="Layer_27">
</g>
<g id="Layer_0-6_copy">
</g>
<g id="Layer_0-5_copy">
</g>
<g id="Layer_0-4_copy">
</g>
<g id="Layer_0-3_copy">
</g>
<g id="Layer_0-2_copy">
</g>
<g id="Layer_0-1_copy">
</g>
<g id="Layer_0-0_copy">
</g>
</svg>
