<?xml version="1.0" encoding="utf-8"?>
<!-- Generator: Adobe Illustrator 16.0.0, SVG Export Plug-In . SVG Version: 6.00 Build 0)  -->
<!DOCTYPE svg PUBLIC "-//W3C//DTD SVG 1.1//EN" "http://www.w3.org/Graphics/SVG/1.1/DTD/svg11.dtd">
<svg version="1.1" xmlns="http://www.w3.org/2000/svg" xmlns:xlink="http://www.w3.org/1999/xlink" x="0px" y="0px" width="600px"
	 height="800px" viewBox="0 0 600 800" enable-background="new 0 0 600 800" xml:space="preserve">
<g id="Layer_0-0">
</g>
<g id="Layer_0-1">
</g>
<g id="Layer_0-2">
</g>
<g id="Layer_0-3">
</g>
<g id="Layer_0-4">
</g>
<g id="Layer_0-5">
</g>
<g id="Layer_0-6">
</g>
<g id="Layer_1">
</g>
<g id="Layer_2">
</g>
<g id="Layer_3">
</g>
<g id="Layer_4">
	<g>
		<path fill-rule="evenodd" clip-rule="evenodd" fill="#3E456D" d="M507.634-715.555c-8.159-0.938-17.299,0.333-18.196-15.65
			c-6.013,14.581-11.483,24.896-11.149,36.523c0.213,7.436-2.029,12.9-7.188,17.609c-16.268,14.834-32.291,30.021-53.504,37.875
			c-12.923,4.879-21.235,17.833-35.371,19.058c-23.298,2.019-14.707,8.968-38.619,4.376c-9.903-1.9-20.109-3.809-30.436-3.207
			c-15.555,0.904-28.892-3.095-38.588-16.448c-3.639-5.011-12.801-11.854-13.549-18.024c-1.162-9.568-0.02-10.121,4.656-15.845
			c4.994-6.111,4.318-4.084,6.689-16.913c1.539-8.32,3.15-18.042,2.896-23.492c-0.764-16.385-1.754-23.577-10.436-34.42
			c-11.388-14.221-25.014-16.651-42.583-14.398c-14.633,1.875-17.696,6.55-28.021,19.281c-6.529,8.049-10.635,33.34-7.682,46.793
			c1.464,6.678,2.59,10.957,5.67,19.365c3.291,8.987,16.689,16.127,18.759,18.828c3.601,4.701-1.156,8.762-4.099,12.059
			c-5.462,6.117-11.901,10.096-20.981,9.248c-36.272-3.385-62.286-16.249-98.69-19.094c-7.367-0.578-14.816,4.717-16.411,13.363
			c-1.774,9.617,5.681,13.51,12.719,16.471c15.29,6.427,21.432,20.166,37.89,22.256c9.847-0.455,6.998,0.412,13.329,0.148
			c17.816-0.74,33.65,17.402,45.528,32.564c9.181,11.719,21.837,27.297,16.41,35.801c-0.099,3.625,9.547,22.266,10.229,25.746
			c3.336,17.004,1.833,31.42-2.094,47.586c-5.461,22.477-10.488,43.898-13.354,66.516c-0.915,7.215-9.646,26.889-12.158,34.02
			c-8.402,23.847-7.816,30.421-12.691,53.949c0.085,1.236,0.007,2.264-0.612,2.797c0.176-0.937,0.421-1.862,0.612-2.797
			c-0.077-1.154-0.294-2.486-0.347-3.78c-2.335-57.655-11.234-115.313-6.903-172.847c1.1-14.608-0.279-48.561,3.656-62.943
			c1.288-7.27-3.357-12.141-7.812-16.189c-8.625-7.84-8.827-20.35-22.184-23.182c-0.086,1.785,0.227,3.705-0.318,5.34
			c-14.776,44.416-7.423,96.877-22.103,141.326c-5.599,16.955-6.309,34.115,2.632,51.687c3.255,6.396,3.434,12.538-0.226,19.071
			c-12.204,21.795-5.11,45.715-19.097,66.49c-4.108,6.104-2.08,7.709,3.397,10.766c7.108,3.971-4.092,17.352-0.541,23.934
			c7.374,13.67,9.864,24.648,12.159,40.131c1.954,13.182,15,24.773-1.056,38.967c6.007,1.675,6.557,3.321,10.856,3.93
			c8.036,1.142,8.872,5.258,4.52,10.814c-11.747,14.988-8.649,29.824-0.542,44.986c3.156,5.906,3.31,11.319,2.762,19.084
			c-2.281,32.298-13.093,49.865-20.68,73.369c-2.732,8.463,2.094,10.883,9.064,12.691c8.137,2.113-2.161,5.532,3.576,7.271
			c18.199,5.515,71.251,16.178,70.51-2.366c-0.367-9.174,27.914,10.84,52.747,14.383c23.643,3.371,4.362-6.889,27.786-6.826
			c16.824,0.045,24.616-5.369,41.491-5.787c11.679-0.291,15.142-12.773,26.084-12.719c0.568,0.003,9.057-4.643,10.643-4.682
			c11.666-0.301,6.259,6.842,13.774,5.642c7.362-1.177,6.026,1.362,13.184-3.147c12.252-7.721,19.97,2.342,26.8,0.604
			c7.117-1.811,10.874-13.076,15.795-9.51c0.714,0.52,24.242-10.404,20.139-23.263c-4.777-14.977-27.104-37.008-28.733-53.161
			c-2.013-19.962-10.623-39.8-13.313-59.693c-0.23-10.682-3.188-21.049-3.736-31.688c-3.975-13.173-6.82-26.716-12.27-39.405
			c-3.622-8.43-2.705-14.396,6.91-17.682c9.173-3.133,12.936-10.184,12.798-19.671c-0.299-21.29,5.652-42.417,2.905-63.79
			c0.236-15.194-0.972-30.576,0.959-45.553c7.992-61.984,48.273-114.762,48.684-177.484c0.042-6.525,0.326-13.582,7.925-16.858
			c-2.351-21.491-1.277-41.821,16.854-57.487c7.424-6.414,14.141-13.688,20.864-20.875c3.709-3.962,6.208-7.449,3.313-14.076
			c-3.382-7.74,0.818-15.242,8.058-19.15c5.882-3.176,9.845-7.396,12.756-13.061C517.6-715.219,512.276-715.021,507.634-715.555z
			 M393.464-506.752c-10.837,21.678-16.9,39.28-31.48,53.795c-6.337,6.309-12.939,13.295-20.967,17.459
			c-15.152,7.857-16.619,1.319-19.812-15.332c-7.522-39.234-7.336-82.477,7.672-119.391c2.154-5.303,5.295-5.044,9.137-5.375
			c27.588-2.389,23.607-6.35,51.245-7.688c12.448-0.603,21.446-4.236,30.329-12.612c8.401-7.92,7.063-3.785,17.148-10.355
			C432.074-596.627,399.462-518.752,393.464-506.752z"/>
	</g>
</g>
<g id="Layer_5">
</g>
<g id="Layer_6">
</g>
<g id="Layer_7">
</g>
<g id="Layer_8">
</g>
<g id="Layer_9">
</g>
<g id="Layer_10">
</g>
<g id="Layer_11">
</g>
<g id="Layer_12">
</g>
<g id="Layer_13">
</g>
<g id="Layer_14">
	<g>
		<path fill-rule="evenodd" clip-rule="evenodd" fill="#3E456D" d="M194.748,135.717c-5.614-1.363-13.625-6.301-14.983-14.662
			c-1.295-7.966-5.171-11.395-8.959-16.271c-11.334-14.603-11.316-23.777,1.318-41.3c8.6-11.924,15.658-10.442,27.58-16.177
			c14.709-7.076,22.857-3.847,33.777,8.307c8.324,9.268,6.082,19.768,15.932,30.016c3.392,3.528,3.082,12.092,5.861,19.153
			c4.227,10.74-0.958,12.661-6.834,15.579c0,0-4.885,1.328-4.277,2.391c3.406,5.956,24.822,7.293,37.655,7.758
			c20.331-3.78,119.927,22.271,137.305,18.276c22.756-3.413,8.959-3.085,27.309,0.028c18.689,3.174-10.779,61.772-13.522,66.085
			c-2.852,4.256-11.559-42.924-15.642-39.904c-7.334,5.42-7.099,4.408,0.358,9.335c1.566,1.036,3.499,1.547,4.991,2.663
			c10.868,8.121-42.413-4.186-38.888,10.796c4.262,18.107-54.162,53.864-54.494,59.377c-0.814,13.509-0.609,27.029-3.305,40.462
			c-2.344,11.67-4.299,23.622-4.467,35.478c-0.318,22.282,0.875,44.583,1.261,66.88c1.101,63.453,11.065,125.733,24.405,187.598
			c3.961,18.381,17.9,63.645,19.949,82.518c1.911,17.604-1.128,35.398,3.002,52.785c3.164,13.324,1.6,26.17-3.734,38.665
			c-0.852-0.919-1.655-1.882-2.561-2.745c-3.429-3.271-7.382-7.521-12.018-6.012c-4.59,1.492-5.564,6.984-5.66,11.848
			c-0.012,0.631,0.086,1.304-0.096,1.883c-0.762,2.439,0.152,6.452-4.311,5.795c-4.176-0.615-4.938-4.103-3.72-7.24
			c3.483-8.963,2.958-17.591,0.396-26.758c-2.326-8.318,1.781-15.361,7.91-20.914c2.062-1.871,4.099-3.775,2.404-6.158
			c-1.598-2.249-3.572-0.754-5.26,1.127c-3.642,4.061-5.471-0.393-7.363-2.17c-6.072-5.698-11.343-5.566-14.684,2.299
			c-1.742,4.101-3.884-5.025-7.297-5.723c-12.352-2.521-23.27,9.678-18.949,21.787c5.163,14.467,2.178,10.521,7.855,24.801
			c0.232,0.586,0.518,1.15,0.775,1.727c2.908,6.528,5.515,14.169,1.388,19.914c-4.058,5.648-11.923,4.125-18.575,3.069
			c-5.602-0.892-11.259-1.411-16.881-2.181c-9.725-1.338-14.748-6.889-13.97-16.546c0.624-7.78-0.012-5.685-4.65-12.463
			c-3.386-4.94-3.79-11.226-3.485-17.349c0.404-8.174-3.846-13.178-11.502-11.357c-7.574,1.803-14.228-1.514-21.427-1.367
			c-5.919,0.119-6.078-5.693-5.302-10.104c1.219-6.908-1.483-7.994-7.697-7.117c-9.215,1.293-0.9,3.635-7.878-5.843
			c-0.452-0.616-1.794-1.093-2.542-0.907c-12.465,3.078,5.141-3.887-2.629-11.668c-11.22-11.236-11.552-98.508,1.912-110.947
			c16.271-15.031,13.664-31.529,21.618-52.776c4.198-11.212-4.089-23.257-0.4-34.71c5.099-15.855,10.61-31.557,18.919-45.834
			c6.674-11.467,6.848-23.707,6.332-35.521c-1.248-28.627-7.871-55.065,11.409-78.85c21.631-26.69,18.972-51.751-5.124-77.386
			c-53.076-14.734-27.848-41.857-95.826-37.912c-10.459,0.607-6.229-17.08-1.369-26.221c3.75-7.054,14.152-17.654,17.707-13.202
			c5.811,7.271,13.875,14.948,21.624,13.136c11.909-2.786,13.301-12.035,19.434-22.203c6.904-11.456,7.295-16.714,3.242-20.875
			C208.098,137.877,198.425,136.609,194.748,135.717z"/>
		<path fill-rule="evenodd" clip-rule="evenodd" fill="#3E456D" d="M219.659,370.537c9.241,12.649,11.951,49.538,20.42,36.503
			c4.08-6.278,33.036,40.063,40.45,36.683c5.714-2.604,7.868-4.041,4.268-10.465c-12.262-21.861-0.451-4.016-10.848-26.751
			c-3.119-6.818-2.439-12.93,1.329-19.047c10.349-16.799,11.282-31.552-45.6-103.18c-51.507-64.86-45.534-96.986-45.477-98.776
			C170.651,187.242,149.799,274.907,219.659,370.537z"/>
		<path fill-rule="evenodd" clip-rule="evenodd" fill="#D14C43" d="M432.704,547.825c2.477-22.088-3.617-44.207-1.559-66.363
			l2.897-38.4c-2.136-47.976,7.969-50.819,1.375-105.555c-2.397-5.627-4.253-11.07-2.791-17.01c0.896-3.666,1.505-7.425,2.197-11.15
			c3.6-19.382,0.438-47.428,4.188-66.777c0.933-4.82,7.26-10.473,7.964-12.077c7.713-17.533,8.462-26.564,12.043-48.421
			c-4.212-19.771-6.211-18.441-9.985-22.708c-10.044-4.087-5.105-14.726-43.39-20.98c-2.264-2.585-18.661-18.145-20.607-24.104
			c-5.006-12.22-4.725-20.172,3.088-30.236c10.51-13.537,8.984-28.404,8.575-43.561c-0.163-6.006,0.135-12.26-3.044-17.838
			c-15.189-26.658-48.705-29.906-70.043-9.066c-6.331,6.186-6.898,14.751-7.965,22.852c-1.666,12.678-4.107,25.559-1.38,38.299
			c2.818,13.157,6.708,26.134,10.894,38.936c2.088,6.386,0.889,10.604-4.137,14.209c-12.47,8.932-27.723,27.238-41.499,33.014
			c-23.435,9.825-31.812,19.917-48.549,26.849c-3.046,1.262-24.835-6.989-34.72-4.962c-0.718-0.201-1.648-6.185-2.826-5.823
			c-5.867,1.796-14.936,0.323-19.807-7.398c-3.197-5.066-6.934,0.31-4.159,4.476c2.03,3.058,3.214,6.93,1.611,9.999
			c-1.573,3-4.153,7.654-7.37,5.157c-6.957-5.397-7.937,2.462-14.752-1.259c-2.383-1.304-6.44-3.351-6.953,0.279
			c-0.861,6.11,1.506,12.666,4.089,18.497c1.819,4.116,4.827,6.84,8.351,6.373c7.617-1.011,15.309-1.761,22.773-3.437
			c0.164-0.037,0.33-0.082,0.496-0.131c0.103,0.027,0.204,0.045,0.297,0.047c28.443,1.786,18.89,17.479,30.653,17.836
			c6.117,0.678,30.55,18.134,36.64,17.709c11.795-0.825,18.308-7.957,24.732-1.954c11.344,10.599,16.704,14.868,16.906,29.966
			c0.023,1.779,1.886,5.279,2.223,7.031c3.232,16.7,5.292,33.682,7.479,50.504c2.417,18.564,4.911,37.15,7.022,55.758
			c1.512,13.297,5.068,26.697,2.895,40.053l-0.062,3.336c-9.22,20.301,9.87,106.574,10.214,108.785
			c3.186,20.463,1.426,25.5,4.857,45.568c0.667,10.26,5.335,35.049,2.451,45.748c-4.22,15.646-5.204,60.845-6.174,112.328
			c3.8,13.613,5.423,27.625-7.275,36.896c-2.854,2.078-10.175,4.436-12.45,7.309c-6.256,7.9-1.963,10.43,8.14,12.324
			c15.323,2.881,30.585-0.188,45.89,0.3c10.156,0.318,14.074-3.595,11.481-13.847c-2.562-10.123-1.601-18.986,1.859-28.193
			c3.044-8.102,16.939-49.904,22.117-49.803c3.763-0.713,11.308,2.877,10.54,12.154c-1.162,14.068-8.518,14.919-9.055,33.523
			c-1.255,5.101-1.329,8.309,1.158,13.414c11.938,3.367,9.784,3.934,20.901-5.963c1.653-1.471,34.931-23.321,36.174-29.254
			c2.007-4.749,1.281-3.528-1.639-18.338c-0.523-3.361,11.233-8.518,9.586-11.357C435.991,648.079,430.253,569.69,432.704,547.825z"
			/>
		<path fill-rule="evenodd" clip-rule="evenodd" fill="#3E456D" d="M431.564,162.584c-1.013,1.413-2.12,3.001-0.406,4.592
			c1.292,1.204,2.641,0.397,3.962-0.293c1.409-0.736,2.413-2.739,4.854-1.413c1.291,3.277-3.307,6.954,0.196,10.53
			c5.745-3.349,15.48-1.24,17.469-7.487c0.866-2.72-2.352-5.604-3.54-8.378C447.869,145.584,438.089,153.471,431.564,162.584z"/>
	</g>
</g>
<g id="Layer_15">
</g>
<g id="Layer_16">
</g>
<g id="Layer_17_1_">
</g>
<g id="Layer_18_1_">
</g>
<g id="Layer_19">
</g>
<g id="Layer_20">
</g>
<g id="Layer_21">
</g>
<g id="Layer_22">
</g>
<g id="Layer_23">
</g>
<g id="Layer_10_copy">
	<g>
		<path fill-rule="evenodd" clip-rule="evenodd" fill="#D14C43" d="M213.472,963.411c12.836,13.41,27.293,49.536,46.616,53.111
			c35.096,6.495,106.516-18.081,141.148-19.389c22.26-0.838,38.186-27.024,49.59-42.826c-9.826-3.711-24.023-8.336-34.18-9.825
			c-21.674-3.176-28.293-18.532-29.678-36.154c-0.711-9.042,4.781-18.88,8.59-27.882c3.396-8.021,8.363-15.612,9.096-24.357
			c1.396-16.648-0.854-33.339-15.576-43.349c-15.635-10.628-35.914-17.957-52.461-8.091c-15.422,9.193-21.443,17.31-23.512,30.702
			c-0.727,4.707-0.262,4.01-2.803,9.017c-6.766,13.325-1.139,5.896-1.139,44.265c0,9.664,3.811,12.665,11.951,14.88
			c17.404,4.734,14.52,5.032,10.795,23.152c-4.121,20.048-56.354,18.675-68.807,22.036
			C246.417,953.205,229.009,955.029,213.472,963.411z"/>
	</g>
</g>
<g id="Layer_11_copy">
</g>
<g id="Layer_12_copy">
</g>
<g id="Layer_13_copy">
</g>
<g id="Layer_14_copy">
</g>
<g id="Layer_15_copy">
</g>
<g id="Layer_16_copy">
</g>
<g id="Layer_17_copy">
</g>
<g id="Layer_18_copy">
</g>
<g id="Layer_19_copy">
</g>
<g id="Layer_20_copy">
</g>
<g id="Layer_21_copy">
</g>
<g id="Layer_22_copy">
</g>
<g id="Layer_23_copy">
</g>
<g id="Layer_24">
</g>
<g id="Layer_25">
</g>
<g id="Layer_26">
</g>
<g id="Layer_27">
</g>
<g id="Layer_0-6_copy">
</g>
<g id="Layer_0-5_copy">
</g>
<g id="Layer_0-4_copy">
</g>
<g id="Layer_0-3_copy">
</g>
<g id="Layer_0-2_copy">
</g>
<g id="Layer_0-1_copy">
</g>
<g id="Layer_0-0_copy">
</g>
</svg>
