<?xml version="1.0" encoding="utf-8"?>
<!-- Generator: Adobe Illustrator 16.0.0, SVG Export Plug-In . SVG Version: 6.00 Build 0)  -->
<!DOCTYPE svg PUBLIC "-//W3C//DTD SVG 1.1//EN" "http://www.w3.org/Graphics/SVG/1.1/DTD/svg11.dtd">
<svg version="1.1" xmlns="http://www.w3.org/2000/svg" xmlns:xlink="http://www.w3.org/1999/xlink" x="0px" y="0px" width="600px"
	 height="800px" viewBox="0 0 600 800" enable-background="new 0 0 600 800" xml:space="preserve">
<g id="Layer_0-0">
</g>
<g id="Layer_0-1">
</g>
<g id="Layer_0-2">
</g>
<g id="Layer_0-3">
</g>
<g id="Layer_0-4">
</g>
<g id="Layer_0-5">
</g>
<g id="Layer_0-6">
</g>
<g id="Layer_1">
</g>
<g id="Layer_2">
	<g>
		<path fill-rule="evenodd" clip-rule="evenodd" fill="#3E456D" d="M517.871,81.204c-8.166-0.939-17.314,0.332-18.213-15.666
			c-6.019,14.595-11.494,24.92-11.16,36.557c0.213,7.443-2.03,12.912-7.195,17.627c-16.281,14.847-32.319,30.048-53.551,37.908
			c-12.936,4.884-22.158,17.85-36.307,19.076c-23.318,2.02-46.285,8.977-70.219,4.381c-9.914-1.904-20.129-3.813-30.465-3.211
			c-15.569,0.906-28.918-3.098-38.621-16.463c-3.643-5.017-9.551-7.914-14.464-11.729c-6.687-15.162-4.86-19.779,9.171-25.779
			c6.73-2.879,17.938-2.893,13.906-15.125c-2.648-8.043,0.461-20.864-4.314-23.514c-14.396-7.992-15.28-23.6-23.971-34.452
			c-11.396-14.233-20.271-18.346-37.108-11.394c-13.646,5.637-27.435,10.021-38.966,21.691c-19.411,19.65-21.401,24.775-4.08,45.936
			c4.365,5.332,9.332,9.957,7.147,18.697c-1.62,6.476,12.423,19.911,16.772,17.289c3.615-2.182,5.766-5.4,9.547-0.464
			c3.604,4.704,1.548,8.77-1.396,12.069c-5.466,6.123-11.912,10.105-20.998,9.256c-36.303-3.387-71.357,10.792-107.793,7.944
			c-7.373-0.579-14.829,4.72-16.425,13.375c-1.774,9.626,5.687,13.522,12.729,16.485c15.304,6.434,31.371,10.266,47.844,12.357
			c2.539-5.17,6.104-7.703,12.439-7.968c17.829-0.741,33.676,2.087,45.564,17.265c9.189,11.729,20.828,18.529,36.83,18.477
			c12.592-0.04,18.996,8.256,20.791,21.984c0.491,3.766,2.883,6.48,5.102,9.274c4.203,5.294,7.666,11.019,10.121,17.317
			c1.508,3.871,2.588,8.209-0.764,11.321c-4.016,3.731-7.422-0.59-10.795-2.171c-8.729-4.096-13.229-13.371-21.443-18.04
			c-4.758-2.702-9.871-9.199-15.301-0.687c-0.099,3.628,0.631,7.217,2.121,10.438c7.544,16.296,5.676,31.625-2.096,47.631
			c-10.113,20.826-13.633,43.438-13.365,66.577c0.086,7.278-0.832,14.177-4.953,20.524c-13.782,21.223-24.055,43.975-28.934,67.523
			c0.084,1.238,0.007,2.267-0.613,2.801c0.176-0.938,0.42-1.864,0.613-2.801c-0.078-1.154-0.295-2.488-0.348-3.783
			c-2.338-57.707-2.225-115.418,2.109-173.005c1.102-14.622,0.722-29.567,4.66-43.964c1.289-7.276-3.359-12.151-7.818-16.204
			c-8.632-7.848-11.838-21.37-25.204-24.204c-0.087,1.787,0.226,3.708-0.319,5.344c-14.787,44.458-29.775,88.85-44.469,133.34
			c-5.604,16.971-10.822,34.146-1.875,51.734c3.258,6.4,3.437,12.549-0.226,19.088c-12.214,21.816-22.248,44.856-36.247,65.65
			c-4.111,6.109-2.082,7.717,3.4,10.775c7.114,3.975,15.744,8.35,19.299,14.938c7.379,13.683,20.693,24.672,22.989,40.168
			c1.956,13.195,15.915,26.601-0.155,40.807c6.013,1.676,10.17,3.324,14.474,3.933c8.043,1.144,8.88,5.263,4.524,10.825
			c-11.758,15.002-8.657,29.852-0.543,45.027c3.158,5.912,5.469,11.795,2.764,19.102c-9.848,26.59-13.312,54.525-17.091,82.455
			c-1.19,8.821,2.097,10.893,9.073,12.703c8.144,2.115,15.873-5.285,21.615-3.545c18.215,5.52,36.777,5.492,55.238,7.553
			c17.645,1.967,35.209,4.671,52.789,7.18c23.664,3.375,44.947-9.6,68.391-9.536c16.84,0.044,33.656-5.376,50.547-5.793
			c11.689-0.292,16.057-12.786,27.01-12.731c0.568,0.004,1.75-3.102,1.634-4.686c-0.747-10.255,6.265-11.189,13.786-12.391
			c7.371-1.178,15.053,1.365,22.215-3.15c12.264-7.729,14.652-6.321,17.375,8.684c0.438,2.39-0.688,5.741,3.877,5.682
			c3.236-4.029-1.262-12.02,5.572-13.762c7.125-1.812,10.886,4.951,15.809,8.52c0.716,0.52,1.37,1.179,1.91,1.883
			c13.467,17.6,31.686,15.521,50.105,11.846c3.281-0.652,7.57-2,7.806-6.287c0.263-4.709-4.3-4.981-7.517-6.162
			c-13.363-4.916-28.039-11.693-32.146-24.563c-4.781-14.99-14.502-28.022-16.133-44.191c-2.016-19.979-5.223-39.836-7.915-59.747
			c-0.231-10.692-3.19-21.068-3.739-31.719c-3.979-13.185-6.826-26.74-12.281-39.441c-3.625-8.438-2.707-14.408,6.917-17.697
			c9.181-3.137,12.946-10.193,12.81-19.689c-0.299-21.31,4.756-42.457,2.006-63.848c0.236-15.209-0.972-30.605,0.959-45.596
			c8-62.041,17.658-123.886,18.066-186.666c0.043-6.531,0.329-13.595,7.934-16.874c-2.354-21.511-1.277-41.86,16.87-57.54
			c7.431-6.42,14.153-13.701,20.884-20.895c3.713-3.966,6.214-7.457,3.316-14.089c-3.385-7.746,0.818-15.256,8.064-19.167
			c5.889-3.179,9.855-7.403,12.768-13.073C527.845,81.54,522.518,81.736,517.871,81.204z M381.049,290.197
			c-13.35,15.681-26.836,31.2-41.43,45.728c-6.344,6.315-12.951,12.405-20.986,16.573c-15.166,7.863-21.143,4.928-24.338-11.739
			c-7.531-39.271-2.836-77.14,12.187-114.089c2.157-5.309,5.301-5.049,9.146-5.381c27.613-2.391,55.195-5.453,82.856-6.793
			c12.46-0.604,22.369-4.24,31.261-12.624c8.408-7.927,17.389-15.248,27.482-21.824C450.23,194.492,386.352,283.967,381.049,290.197
			z"/>
		<path fill-rule="evenodd" clip-rule="evenodd" fill="#D14C43" d="M427.752,157.629c-12.475,13.031-26.521,21.083-45.3,24.559
			c-34.104,6.311-67.438,0.465-101.094-0.805c-21.632-0.814-32.597-16.342-43.682-31.699c9.55-3.605,18.839-9.002,28.706-10.449
			c21.062-3.086,27.494-18.009,28.84-35.132c0.691-8.789-4.645-18.348-8.348-27.097c-3.3-7.795-8.126-15.172-8.838-23.669
			c-1.357-16.18,0.83-32.4,15.137-42.128C308.367,0.88,326.77-3.603,344.156,3.345c15.934,6.37,21.018,23.442,25.572,38.599
			c4.179,13.909,2.051,28.5,1.105,43.018c-0.609,9.372-3.704,12.307-11.614,14.459c-16.915,4.602-14.11,4.891-10.491,22.5
			c4.004,19.482,18.691,18.148,30.793,21.414C395.736,147.713,412.654,149.484,427.752,157.629z"/>
		<path fill-rule="evenodd" clip-rule="evenodd" fill="#D14C43" d="M413.242,555.061c-2.221-6.377-2.305-10.584,6.414-12
			c12.459-2.018,17.504-8.979,17.121-23.055c-0.535-19.74,0.494-39.803,4.961-59.348c9.105,17.038,13.121,35.77,17.082,54.354
			c2.443,11.474,6.805,21.171,15.998,28.337c8.049,6.273,13.331,14.482,16.752,23.757c9.523,25.855,21.352,51.073,25.992,78.417
			c3.592,21.182,22.233,36.356,23.132,57.604c0.734,17.386,12.233,25.823,22.47,35.939c5.91,5.836,10.34,12.555,12.125,20.381
			c1.738,7.628,3.863,16.162-4.84,21.795c-8.98,5.815-18.668,5.416-26.055-1.283c-13.154-11.928-26.68-24.168-32.034-42.027
			c-1.696-5.658-2.677-9.051-9.332-5.66c-4.892,2.487-8.347,0.615-10.376-4.568c-14.209-36.252-34.73-68.932-54.264-102.615
			C434.381,618.178,418.899,571.295,413.242,555.061z"/>
		<path fill-rule="evenodd" clip-rule="evenodd" fill="#D14C43" d="M99.742,214.057c-2.65-7.882-1.574-11.541,8.484-11.664
			c22.312-0.268,42.43,2.5,56.273,23.047c5.93,8.803,14.717,13.506,26.422,11.83c14.699-2.109,21.258,11.195,31.2,18.058
			c0.628,0.434,1.29,2.079,1.128,2.218c-12.48,10.68,4.088,13.773,5.633,20.787c1.117,5.059,5.682,9.418,6.527,14.455
			c0.788,4.686,0.197,11.037-2.524,14.507c-3.267,4.167-8.263-1.644-11.86-2.454c-9.361-2.105-13.227-9.445-19.114-15.065
			c-5.398-5.154-10.608-10.983-18.737-12.058c-6.469,0.869-12.018,1.42-18.369,3.43c-14.545,4.602-17.088,3.134-23.82-11.621
			c-10.841-12.388-21.683-24.775-32.524-37.162C103.319,227.326,99.551,221.633,99.742,214.057z"/>
		<path fill-rule="evenodd" clip-rule="evenodd" fill="#D14C43" d="M468.697,211.522c-1.869-0.864-5.773-0.284-5.334-2.746
			c3.232-18.134-1.09-38.415,15.115-52.968c9.635-8.652,18.842-17.783,28.1-26.844c1.584-1.547,4.775-2.775,2.48-6.23
			c-7.537-11.345-3.605-22.289,10.461-27.314c4.971-1.775,2.562-12.147,11.08-8.662c15.936,5.086,16.668,7.439,6.389,19.813
			c-2.273,2.736-5,5.267-7.191,7.911c-9.354,11.281-6.666,20.62-0.986,32.374c10.833,22.416-0.305,47.03-23.824,56.65
			C493.326,208.276,480.967,209.645,468.697,211.522z"/>
		<path fill-rule="evenodd" clip-rule="evenodd" fill="#D14C43" d="M429.744,201.872c-8.892,8.384-18.801,12.021-31.261,12.624
			c-27.661,1.34-55.243,4.402-82.856,6.793c-3.845,0.332-6.988,0.072-9.146,5.381c-15.022,36.949-19.718,74.818-12.187,114.089
			c3.195,16.667,9.172,19.603,24.338,11.739c8.035-4.168,14.643-10.258,20.986-16.573c14.594-14.527,28.08-30.047,41.43-45.728
			c5.303-6.23,9.461-12.59,11.799-20.287c0.717-5.254,1.22-10.548,2.191-15.755c5.658-30.38,5.694-30.374,35.484-34.725
			c12.73-10.606,19.707-24.938,26.703-39.383C447.133,186.624,438.152,193.945,429.744,201.872z"/>
		<path fill-rule="evenodd" clip-rule="evenodd" fill="#3E456D" d="M134.713,490.74c-2.338-57.707-2.225-115.418,2.109-173.005
			c1.102-14.622,8.722-89.567,12.66-103.964c1.289-7.276-3.359-12.151-7.818-16.204c-8.632-7.848-1.838-21.37-15.204-24.204
			c-0.087,1.787,0.226,3.708-0.319,5.344c-14.787,44.458-47.775,148.85-62.469,193.34c-5.604,16.971-10.822,34.146-1.875,51.734
			c3.258,6.4,3.437,12.549-0.226,19.088c-12.214,21.816-22.248,44.856-36.247,65.65c-4.111,6.109-2.081,7.717,3.4,10.775
			c7.114,3.975,15.744,8.35,19.299,14.938c7.379,13.683,20.693,24.672,22.989,40.168C72.969,587.596,134.766,492.035,134.713,490.74
			z"/>
	</g>
</g>
<g id="Layer_3">
</g>
<g id="Layer_4">
</g>
<g id="Layer_5">
</g>
<g id="Layer_6">
</g>
<g id="Layer_7">
</g>
<g id="Layer_8">
</g>
<g id="Layer_9">
</g>
<g id="Layer_10">
</g>
<g id="Layer_11">
</g>
<g id="Layer_12">
	<g>
		<path fill-rule="evenodd" clip-rule="evenodd" fill="#D14C43" d="M523.768,1040.392c4.07-10.072,9.766-21.537,13.171-32.122
			c0.574-1.786,3.947-39.282,3.937-46.97c3.472-21.069-13.1-21.81-17.704-42.333c-6.74-30.054-9.329-37.82,3.495-46.017
			c4.106-2.626,6.154-13.523,6.801-15.183c1.731-4.45,2.38-4.772,4.861-13.496c0.518-1.821,2.304-22.69-4.749-29.359
			c-18.93-17.898-24.15-15.803-39.041-13.195c-12.664,2.219-19.065,7.661-26.839,18.696c-9.069,12.873-2.365,19.528-6.882,34.037
			c4.807,18.283,2.38,38.669-20.087,39.328c-3.113,0.092-25.27,8.627-28.017,9.05c-6.102,0.94-23.136,11.33-38.613,12.182
			c-8.829,0.486-10.651,2.863-20.301,10.12c22.512,19.439,19.844,14.343,31.17,24.011c3.279-5.785,2.506-4.571,17.6-8.893
			c7.122-2.039,2.68,2.424,0.503,7.937c-4.74,12-2.854,3.155-3.075,4.229c-2.846,10.667-6.857,2.833-11.642,24.79
			c-0.321,1.469-0.837,3.443-2.905,3.793c-1.773,0.304-2.926-1.021-3.758-2.412c-3.119-5.206-6.455-10.298-11.027-14.304
			c-1.709-1.5-5.219-3.304-6.391-2.563c-2.245,1.415-3.439,4.498-1.204,7.491c0.532,0.713,0.722,1.807,0.768,2.736
			c0.128,2.709,2.076,5.91-1.146,7.892c-2.914,1.793-13.257,7.825-15.197,6.231c-1.201-0.986-3.068-1.165-4.217-2.209
			c-1.75-1.591,1.304-4.021-3.695-1.713c-3.07,1.416,5.018,5.179,6.857,10.836c3.842,11.812,17.367,23.116,21.944,25.404
			c3.599,1.799,6.458,1.706,7.995,5.986c3.377,9.39,2.765,11.322,11.141,17.42c5.119,3.725,4.543,10.979,4.655,17.003
			c0.235,12.797,0.06,54.728,0.144,67.529c0.031,4.462,1.041,8.414,3.344,12.634c8.451,15.486,16.648,31.104,25.473,46.402
			c7.784,13.494,15.39,26.814,28.58,36.022c10.912,7.616,21.504,15.693,32.112,23.734c2.884,2.188,11.949,13.33,11.949,13.33
			s3.888-10.456,3.806-14.293c-0.59-27.772-0.783-45.803-0.98-53.775c-0.234-9.592,1.951-19.041,2.825-22.038L523.768,1040.392z"/>
	</g>
</g>
<g id="Layer_13">
</g>
<g id="Layer_14">
</g>
<g id="Layer_15">
</g>
<g id="Layer_16">
</g>
<g id="Layer_17_1_">
</g>
<g id="Layer_18_1_">
</g>
<g id="Layer_19">
</g>
<g id="Layer_20">
</g>
<g id="Layer_21">
</g>
<g id="Layer_22">
</g>
<g id="Layer_23">
</g>
<g id="Layer_10_copy">
</g>
<g id="Layer_11_copy">
</g>
<g id="Layer_12_copy">
</g>
<g id="Layer_13_copy">
</g>
<g id="Layer_14_copy">
</g>
<g id="Layer_15_copy">
</g>
<g id="Layer_16_copy">
</g>
<g id="Layer_17_copy">
</g>
<g id="Layer_18_copy">
</g>
<g id="Layer_19_copy">
</g>
<g id="Layer_20_copy">
</g>
<g id="Layer_21_copy">
</g>
<g id="Layer_22_copy">
</g>
<g id="Layer_23_copy">
</g>
<g id="Layer_24">
</g>
<g id="Layer_25">
</g>
<g id="Layer_26">
</g>
<g id="Layer_27">
</g>
<g id="Layer_0-6_copy">
</g>
<g id="Layer_0-5_copy">
</g>
<g id="Layer_0-4_copy">
</g>
<g id="Layer_0-3_copy">
</g>
<g id="Layer_0-2_copy">
</g>
<g id="Layer_0-1_copy">
</g>
<g id="Layer_0-0_copy">
</g>
</svg>
