<?xml version="1.0" encoding="utf-8"?>
<!-- Generator: Adobe Illustrator 16.0.0, SVG Export Plug-In . SVG Version: 6.00 Build 0)  -->
<!DOCTYPE svg PUBLIC "-//W3C//DTD SVG 1.1//EN" "http://www.w3.org/Graphics/SVG/1.1/DTD/svg11.dtd">
<svg version="1.1" xmlns="http://www.w3.org/2000/svg" xmlns:xlink="http://www.w3.org/1999/xlink" x="0px" y="0px" width="600px"
	 height="800px" viewBox="0 0 600 800" enable-background="new 0 0 600 800" xml:space="preserve">
<g id="Layer_0-0">
</g>
<g id="Layer_0-1">
</g>
<g id="Layer_0-2">
</g>
<g id="Layer_0-3">
</g>
<g id="Layer_0-4">
</g>
<g id="Layer_0-5">
</g>
<g id="Layer_0-6">
</g>
<g id="Layer_1">
	<g>
		<path fill-rule="evenodd" clip-rule="evenodd" fill="#3E456D" d="M517.872-718.797c-8.167-0.939-17.316,0.332-18.214-15.666
			c-6.018,14.595-11.494,24.92-11.159,36.557c0.212,7.443-2.031,12.912-7.196,17.627c-16.281,14.848-32.318,30.049-53.551,37.908
			c-12.936,4.884-22.157,17.85-36.306,19.076c-23.319,2.02-46.287,8.977-70.22,4.381c-9.914-1.904-20.13-3.813-30.464-3.211
			c-15.569,0.906-28.919-3.098-38.622-16.463c-3.643-5.017-9.551-7.914-14.464-11.729c-6.687-15.161-4.86-19.779,9.171-25.779
			c6.73-2.879,17.937-2.893,13.906-15.125c-2.648-8.043,0.461-20.864-4.314-23.514c-14.396-7.992-15.28-23.6-23.971-34.452
			c-11.396-14.233-20.271-18.346-37.107-11.394c-13.646,5.637-27.436,10.021-38.967,21.691c-19.411,19.65-21.401,24.775-4.08,45.936
			c4.365,5.332,9.332,9.957,7.147,18.697c-1.62,6.477,12.423,19.911,16.772,17.289c3.615-2.181,5.766-5.4,9.547-0.463
			c3.604,4.703,1.548,8.769-1.396,12.068c-5.466,6.123-11.911,10.105-20.998,9.256c-36.303-3.387-71.357,10.792-107.793,7.944
			c-7.373-0.579-14.829,4.72-16.425,13.375c-1.774,9.626,5.687,13.523,12.729,16.485c15.304,6.434,31.371,10.266,47.844,12.357
			c2.539-5.17,6.104-7.703,12.439-7.968c17.83-0.741,33.676,2.087,45.564,17.265c9.189,11.729,20.828,18.529,36.83,18.477
			c12.592-0.04,18.996,8.256,20.791,21.984c0.492,3.766,2.883,6.48,5.102,9.274c4.203,5.294,7.666,11.019,10.121,17.317
			c1.508,3.871,2.588,8.209-0.765,11.321c-4.015,3.731-7.421-0.59-10.794-2.171c-8.729-4.096-13.229-13.371-21.443-18.04
			c-4.757-2.702-9.871-9.199-15.301-0.687c-0.098,3.628,0.631,7.217,2.121,10.438c7.544,16.296,5.676,31.625-2.096,47.631
			c-10.113,20.826-13.633,43.438-13.365,66.577c0.086,7.278-0.832,14.177-4.953,20.524c-13.782,21.223-24.055,43.975-28.934,67.523
			c0.084,1.238,0.008,2.267-0.613,2.801c0.176-0.938,0.42-1.864,0.613-2.801c-0.078-1.154-0.295-2.488-0.348-3.783
			c-2.338-57.707-2.225-115.418,2.109-173.005c1.102-14.622,0.722-29.567,4.66-43.964c1.289-7.276-3.359-12.151-7.818-16.204
			c-8.632-7.848-11.838-21.37-25.204-24.204c-0.087,1.787,0.226,3.708-0.319,5.344c-14.787,44.458-29.775,88.85-44.469,133.34
			c-5.604,16.971-10.822,34.146-1.875,51.734c3.258,6.4,3.438,12.549-0.226,19.088c-12.214,21.816-22.248,44.856-36.247,65.65
			c-4.111,6.109-2.081,7.717,3.4,10.775c7.114,3.975,15.744,8.35,19.299,14.938c7.379,13.683,20.693,24.672,22.989,40.168
			c1.956,13.195,15.916,26.601-0.155,40.807c6.013,1.676,10.17,3.324,14.474,3.933c8.043,1.144,8.88,5.263,4.524,10.825
			c-11.758,15.002-8.657,29.852-0.543,45.027c3.158,5.912,5.469,11.795,2.764,19.102c-9.848,26.59-13.312,54.525-17.09,82.455
			c-1.191,8.821,2.096,10.893,9.072,12.703c8.144,2.115,15.873-5.285,21.615-3.545c18.215,5.52,36.777,5.492,55.238,7.553
			c17.645,1.967,35.209,4.671,52.789,7.18c23.664,3.375,26.91-9.6,50.354-9.536c16.839,0.044,24.638-5.376,41.528-5.793
			c11.689-0.292,16.057-12.786,27.01-12.731c0.568,0.004,1.749-3.102,1.635-4.686c-0.748-10.254,6.264-11.189,13.785-12.391
			c7.371-1.178,15.053,1.365,22.215-3.15c12.264-7.729,16.455-13.535,19.18,1.469c0.436,2.391-0.688,5.742,3.876,5.682
			c3.235-4.029-1.263-10.217,5.571-11.957c7.125-1.812,10.887,4.95,15.81,8.52c0.716,0.52,1.37,1.178,1.91,1.882
			c13.466,17.6,30.784,17.325,49.204,13.649c3.28-0.652,4.863,1.607,5.1-2.68c0.262-4.709-3.396-6.785-6.615-7.966
			c-13.363-4.916-28.039-11.692-32.146-24.563c-4.781-14.99-13.6-26.219-15.229-42.388c-2.017-19.979-5.223-39.836-7.915-59.747
			c-0.231-10.691-3.191-21.068-3.74-31.719c-3.979-13.185-6.826-26.74-12.282-39.441c-3.625-8.438-2.706-14.408,6.918-17.697
			c9.181-3.137,12.946-10.193,12.81-19.689c-0.299-21.31,4.756-42.457,2.006-63.848c0.236-15.209-0.972-30.605,0.96-45.596
			c7.999-62.041,44.712-123.886,45.12-186.666c0.043-6.531,0.329-13.595,7.936-16.874c-2.355-21.511-1.279-41.86,16.869-57.54
			c7.43-6.42,14.152-13.701,20.882-20.895c3.714-3.966,6.215-7.457,3.317-14.09c-3.385-7.746,0.818-15.256,8.064-19.167
			c5.889-3.179,9.854-7.403,12.768-13.073C527.845-718.461,522.518-718.265,517.872-718.797z M381.049-509.803
			c-13.35,15.681-26.836,31.2-41.43,45.728c-6.344,6.315-12.951,12.405-20.986,16.573c-15.166,7.863-21.143,4.928-24.338-11.739
			c-7.531-39.271-2.835-77.14,12.186-114.089c2.158-5.309,5.302-5.049,9.146-5.381c27.613-2.391,55.193-5.453,82.857-6.793
			c12.459-0.604,22.368-4.24,31.26-12.624c8.408-7.927,17.389-15.248,27.482-21.824C450.23-605.508,386.352-516.033,381.049-509.803
			z"/>
	</g>
</g>
<g id="Layer_2">
</g>
<g id="Layer_3">
</g>
<g id="Layer_4">
</g>
<g id="Layer_5">
</g>
<g id="Layer_6">
</g>
<g id="Layer_7">
</g>
<g id="Layer_8">
</g>
<g id="Layer_9">
</g>
<g id="Layer_10">
</g>
<g id="Layer_11">
	<g>
		<path fill-rule="evenodd" clip-rule="evenodd" fill="#D14C43" d="M194.191,175.602c15.395-4.473,88.676-32.819,104.56-35.505
			c13.94-2.357,33.505-14.784,35.528-25.142c0.611-3.132-2.465-22.138-7.5-28.783c-5.457-7.204-6.646-11.468-6.977-24.863
			c-0.062-2.591,0.484-4.226,0.58-3.996c-5.992-14.388-1.35-27.374,6.778-40.101c14.093-22.069,46.136-22.949,63.257-2.447
			c8.141,9.749,11.643,19.481,11.822,30.828c0.174,10.989,2.982,22.354,0.479,32.853c-2.481,10.396-6.521,19.882-11.769,29.841
			c-1.577,2.991,0.856,6.322,1.169,9.332c0.944,9.056,19.399,20.863,30.294,22.291c17.377,2.279,35.003,4.005,51.889,7.905
			c10.986,2.536,21.813,7.469,30.85,13.352c5.298,3.448,8.174,10.604,9.971,16.557c3.58,11.851-0.74,33.724-16.84,38.832
			c-7.638,2.422-16.08,3.087-24.2,4.356c-3.054,0.478-6.231,0.37-9.345,0.605c-13.958,1.059-25.155,2.038-31.107,17.242
			c-6.928,17.696-19.298,33.84-20.43,53.307c-0.184,3.159-3.687,6.103-5.189,9.301c-5.922,12.606-3.594,25.121,0.751,37.641
			c19.229,55.39,41.146,170.887,49.116,254.177c6.412,16.546,2.412,14.797,8.53,31.427c4.991,13.567,10.472,27.008,15.743,40.501
			c0.538,1.375,0.678,3.134,1.783,4.038c11.539,25.328,8.75,32.301,14.527,61.637c-0.714,26.488-6.02,24.994-10,43.162
			c-0.994,4.529-4.535,9.131-8.281,12.668c-7.27,6.869-15.336,7.405-22.023-0.164c-7.855-8.89-13.695-19.203-19.158-29.373
			c-5.224-9.721,0.459-10.75-3.906-20.918c-16.422,2.977-3.93-3.531-20.016-0.616c-14.867-48.376-15.479-56.837-47.091-98.624
			c2.868,17.86,5.735,35.72,8.679,54.036c-8.189-1.076-16.242-2.137-28.198-3.71c6.415,14.157-17.996,27.299-10.073,38.15
			c13.863,18.987,10.557,38.395,6.557,58.179c-0.45,2.228-4.807,5.019-7.842,5.548c-10.146,1.764-20.514,2.616-31.994,3.959
			c-0.354-11.184-7.091-9.178-14.533-5.775L194.191,175.602z"/>
		<path fill-rule="evenodd" clip-rule="evenodd" fill="#D14C43" d="M163.696,274.038c2.074,27.657,7.733,33.241,32.4,31.965
			c-0.001,0-0.001-0.002-0.003-0.002c0.002,0,0.002,0,0.003,0.002c2.23,0.714,4.463,1.429,6.693,2.144
			c10.253,4.558,17.464,13.156,26.205,19.722c5.319,3.149,10.095,6.6,7.665,13.994c2.607-1.666,3.585-4.168,3.661-7.133
			c4.921-3.924,4.884-4.145-2.062-12.377c-6.161-9.358-16.207-16.304-17.719-28.546c-2.867-3.702,3.441-11.224-5.213-12.513
			c-6.031-4.678-11.318-10.097-16.057-16.064c-2.125-6.302-5.674-11.685-10.5-16.242l0,0c-5.541-17.942-9.702-37.399-25.516-48.408
			c-1.614-2.927-4.409-3.123-7.279-3.147c-6.621,10.696-13.174,25.584-8.021,37.457
			C154.773,249.746,158.646,252.276,163.696,274.038z"/>
		<path fill-rule="evenodd" clip-rule="evenodd" fill="#3E456D" d="M425.04,217.484c-0.146,1.171-3.231,23.752-3.976,34.033
			c-1.322,18.236-11.554,34.819-11.104,53.615c0.042,1.832-1.344,3.893-2.457,5.647c-1.139,1.793-1.953,3.668-1.963,5.806
			c-0.084,14.761,5.902,29.44,7.573,44.202c1.265,11.146,0.952,22.322,1.694,33.412c0.811,12.119,21.908,11.568,18.098,21.756
			c-11.275,4.471-22.574,11.23-34.234,0.799c-14.664-0.54-28.385-4.15-40.725-12.348c-5.616-2.724-9.496-7.082-12.019-12.718
			c-8.271-11.502-15.708-23.416-18.28-37.674c-2.076-23.204-6.279-46.376-1.408-69.751c0.731-3.511-0.004-7.088-0.564-10.616
			c-0.798-5.007-1.049-10.049-0.062-15.056c1.003-5.1,3.875-8.854,9.098-9.802c11.372-2.063,45.814-7.618,50.618-11.502
			c9.739-9.707,12.917-16.585,24.158-24.104c5.315-2.98,13.087-10.73,17.093-5.431C428.064,209.719,425.346,215.042,425.04,217.484z
			 M442.367,198.449c4.414-6.437,9.301-11.342,11.936-18.325c-0.012-1.111,2.328-6.94,2.41-6.977
			c2.871-1.295,10.24-6.072,12.197-5.752c-0.578-1.155-1.158-2.312-1.736-3.469c0.855-10.614-5.359-16.105-14.246-19.658
			c-2.904-2.496-6.038-4.776-8.655-7.544c-3.384-3.579-14.551,1.877-14.813,5.854c-0.038,0.588-2.576,7.169-5.105,8.995
			c-1.082,0.752-5.791,17.174-5.488,24.889c-0.599,0.607-8.98,1.865-12.574,1.889c-1.808,0.01-29.717,13.76-35.395,15.544
			c-26.911,8.461-44.798,13.743-72.798,4.958c-9.733,1.422-24.319-13.33-37.093-23.391c-0.684-0.537-29.248-13.23-29.248-13.23
			c-6.896-15.635-30.123-18.538-15.654-24.725c6.941-2.969,12.919-2.982,8.764-15.599c-2.732-8.293-1.713-19.973-5.381-24.247
			c-10.65-12.417-7.389-24.335-16.35-35.527c-11.753-14.678-20.905-18.919-38.27-11.748c-14.072,5.812-22.087,3.647-32.744,16.789
			c-15.66,19.31-16.279,29.849-4.209,47.369c4.033,5.852,8.264,10.042,9.232,19.281c1.016,9.695,10.004,14.034,16.366,15.967
			c4.165,1.266,5.017,0.012,8.916,5.102c3.716,4.852-2.124,10.904-5.16,14.307c0,0-5.777,37.557,8.421,47.792
			c14.359,11.178,13.031,17.36,19.691,33.723c4.799,4.58,8.771,9.664,10.029,16.395c4.51,7.007,11.588,11.649,16.688,18.112
			c4.419,2.212,4.113,6.288,4.085,10.241c0.224,4.6,2.105,8.569,5.116,11.927c4.881,5.439,9.533,11.049,13.815,16.955
			c2.072,2.956,6.667,5.049,3.718,9.876c0.344,2.85,0.018,5.512-2.172,7.642c-7.584,16.443-19.331,29.842-31.447,42.967
			c-10.42,9.146-8.74,20.895-19.174,30.146c-5.181,4.592-1.072,9.655,3.438,13.358c8.647,7.095,10.758,14.655,6.945,24.909
			c-2.086,5.613-37.094,13.53-42.76,14.823c-8.263,1.89-10.799,5.939-10.6,5.803c-7.146-0.433-18.227,24.886-18.227,24.886
			s-5.489,24.239-3.18,26.695c6.503,6.909,5.74,13.1,0.264,20.405c-6.03,8.047-22.144,55.867-22.146,55.87
			c-2.316,0.437-4.741,0.573-6.932,1.357c-16.805,6.024-6.281,47.271-1.109,46.037c5.662-1.351,8.485,0.73,8.549,6.628
			c0.062,5.807,2.246,10.936,5.378,15.717v-0.003v0.003c1.718,3.409-6.062,34.837-4.116,38.113
			c13.512,22.742,24.386,18.577,49.783,23.959c9.502,2.014,13.068,22.577,10.641,31.898c4.594,2.225,7.044-1.133,9.773-3.773
			c7.202-9.348,18.685,0.13,20.072,2.275c11.439,44.239,23.533,35.496,52.275,23.929c1.134,1.735,3.242-0.546,3.488,1.183
			c0.695,4.873,39.227-0.392,42.855,1.922v-0.002l0,0c2.941,1.63,4.777,5.116,8.66,5.16c2.563,2.057,5.229,3.891,8.711,3.871
			c11.211-0.062,41.27-23.949,45.633-29.207c2.824-3.406,21.775-11.981,27.581-8.188v0.001c0.551,1.249,1.1,2.5,1.649,3.751
			c3.153-0.279,6.283-1.655,9.459-0.207c20.679,3.605,20.679,3.605,28.169-15.952c0.211-0.553,10.935-46.532,12.737-53.163
			c0.672-3.789,0.458-7.635,0.682-11.455c1.139-19.525-0.701-38.748-5.66-57.685c-4.824-9.117-7.998-18.382-6.986-29.128
			c0.605-6.436,2.273-10.743,8.625-12.579c5.896-1.567,18.408-8.679,19.113-9.661c3.061-4.27,7.969-7.52,12.398-6.85
			c4.07,0.616,9.17-12.903,9.375-27.546c0.143-10.271,6.348-30.532,6.734-30.896c3.008-17.494,6.201-34.81,5.904-52.844
			c-0.763-46.588-20.629-56.024-25.469-102.492c2.422-2.361-1.664-14.023,0.757-16.385c4.379-1.688-2.405-23.517-1.464-28.052
			c1.375-6.976-4.319-11.496-6.057-17.396c0.858-10.926-4.959-20.69-5.398-31.444c-0.247-6.036,1.234-21.154-1.398-30.965
			c-1.291-5.327-7.775-8.963-6.717-14.911C438.301,212.083,439.689,202.354,442.367,198.449z"/>
		<path fill-rule="evenodd" clip-rule="evenodd" fill="#3E456D" d="M202.84,477.089c-0.148,1.232-0.414,2.229-1.123,2.639
			C202.062,478.837,202.477,477.974,202.84,477.089c0.139-1.148,0.174-2.5,0.365-3.779c8.453-57.135,19.318-113.816,34.307-169.586
			c3.805-14.16,6.219-28.914,12.77-42.324c2.621-6.908-1.037-12.564-4.662-17.379c-7.018-9.318-7.65-23.199-20.252-28.475
			c-0.42,1.74-0.469,3.686-1.311,5.189c-22.928,41.133-8.369,88.643-31.197,129.801c-8.668,15.629-34.682,28.18-29.168,47.125
			c2.008,6.898,1.039,12.971-3.779,18.715c-16.062,19.156-10.562,43.652-28.191,61.471c-5.178,5.236-3.482,7.193,1.334,11.223
			c6.25,5.229,13.912,11.135,16.178,18.271c4.701,14.816-3.918,24.367-4.551,40.02C144.146,560.687,212.021,454.86,202.84,477.089z"
			/>
	</g>
</g>
<g id="Layer_12">
</g>
<g id="Layer_13">
</g>
<g id="Layer_14">
</g>
<g id="Layer_15">
</g>
<g id="Layer_16">
</g>
<g id="Layer_17_1_">
</g>
<g id="Layer_18_1_">
</g>
<g id="Layer_19">
</g>
<g id="Layer_20">
</g>
<g id="Layer_21">
	<g>
		<path fill-rule="evenodd" clip-rule="evenodd" fill="#D14C43" d="M368.243,970.809c59.465,38.734-4.828,32.516-25.211,36.287
			c-37.025,6.852-140.961,73.635-177.494,72.256c-23.484-0.885-62.838-49.695-64.361-88.898c5.848-6.48,81.176-30.211,91.889-31.783
			c22.865-3.35,29.848-29.34,31.309-47.93c0.75-9.539-14.834-19.918-18.855-29.414c-3.58-8.463-5.883-15.492-6.656-24.718
			c-1.473-17.563,0.902-37.129,16.432-47.688c16.494-11.213,30.598-11.186,49.471-3.641c12.797,5.114,19.643,17.384,22.773,30.997
			c1.736,7.563-1.418,8.249,2.051,13.841c8.309,13.397,0.447,9.337-0.758,40.824c-0.389,10.188-3.984,10.17-6.734,18.635
			c-2.262,6.967-2.59,1.393,1.34,20.508c4.346,21.15,19.311,19.701,32.449,23.248C333.489,958.084,351.853,961.965,368.243,970.809z
			"/>
	</g>
</g>
<g id="Layer_22">
</g>
<g id="Layer_23">
</g>
<g id="Layer_10_copy">
</g>
<g id="Layer_11_copy">
</g>
<g id="Layer_12_copy">
</g>
<g id="Layer_13_copy">
</g>
<g id="Layer_14_copy">
</g>
<g id="Layer_15_copy">
</g>
<g id="Layer_16_copy">
</g>
<g id="Layer_17_copy">
</g>
<g id="Layer_18_copy">
</g>
<g id="Layer_19_copy">
</g>
<g id="Layer_20_copy">
</g>
<g id="Layer_21_copy">
</g>
<g id="Layer_22_copy">
</g>
<g id="Layer_23_copy">
</g>
<g id="Layer_24">
</g>
<g id="Layer_25">
</g>
<g id="Layer_26">
</g>
<g id="Layer_27">
</g>
<g id="Layer_0-6_copy">
</g>
<g id="Layer_0-5_copy">
</g>
<g id="Layer_0-4_copy">
</g>
<g id="Layer_0-3_copy">
</g>
<g id="Layer_0-2_copy">
</g>
<g id="Layer_0-1_copy">
</g>
<g id="Layer_0-0_copy">
</g>
</svg>
