<?xml version="1.0" encoding="utf-8"?>
<!-- Generator: Adobe Illustrator 16.0.0, SVG Export Plug-In . SVG Version: 6.00 Build 0)  -->
<!DOCTYPE svg PUBLIC "-//W3C//DTD SVG 1.1//EN" "http://www.w3.org/Graphics/SVG/1.1/DTD/svg11.dtd">
<svg version="1.1" xmlns="http://www.w3.org/2000/svg" xmlns:xlink="http://www.w3.org/1999/xlink" x="0px" y="0px" width="600px"
	 height="800px" viewBox="0 0 600 800" enable-background="new 0 0 600 800" xml:space="preserve">
<g id="Layer_5">
	<g>
		<path fill-rule="evenodd" clip-rule="evenodd" fill="#FFFFFF" d="M493.666-68.107c-4.729-14.824-26.829-18.793-28.44-34.783
			c-1.994-19.76-10.517-39.395-13.179-59.086c-0.229-10.574-3.155-20.836-3.698-31.367c-3.936-13.039-6.751-26.445-12.146-39.006
			c-3.584-8.344-1.446-13.131,6.842-8.582c8.41,4.617-5.034-18.998-5.169-28.389c-0.372-26.457-38.745-40.024-41.717-63.143
			c0.233-15.04-25.497-33.33-34.725-45.09c-20.166-25.703-7.235-20.5-8.193-29.648c-1.79-17.102,3.106-5.98,11.229-22.348
			c5.284-10.646,7.883-61.215,15.844-75.402c3.896-6.943,7.369-13.717,9.688-19.742c2.321-6.029,2.109-33.065,9.63-36.308
			c-2.329-21.272-1.265-52.1,16.683-67.604c7.348-6.352-3.84-20.686,2.815-27.799c3.671-3.924,6.145-7.375,3.279-13.935
			c-3.348-7.661,0.811-15.087,7.976-18.955c5.823-3.144,12.663-5.733,12.627-12.038c-0.033-5.834-7.993-5.857-12.588-6.385
			c-4.51-0.518-13.142,2.396-19.829,7.073c-1.486,1.04,0.175-5.269-1.43-4.665c-3.837,1.443-7.894,14.599-7.789,18.252
			c0.21,7.359-3.792,8.311-8.899,12.972c-16.101,14.685-10.781,10.798-20.765,16.486c-13.4,7.635-12.79,6.937-29.276,11.368
			c-8.153,2.19-12.672,0.751-13.412-5.355c-1.149-9.471-0.02-12.695,4.609-18.359c4.942-6.049,4.273-3.15,6.622-15.851
			c1.522-8.233,3.117-8.048,2.866-13.442c-0.756-16.219-1.736-34.039-10.33-44.772c-11.271-14.076-24.76-16.481-42.149-14.252
			c-14.483,1.856-17.516,6.483-27.734,19.085c-6.462,7.967-10.526,33.002-7.604,46.318c1.449,6.609,2.564,10.846,5.612,19.168
			c3.257,8.896,16.52,12.396,18.567,15.069c3.563,4.652-1.145,14.916-4.057,18.179c-5.406,6.056-11.779,13.561-20.768,12.721
			c-25.992-2.425-59.795,0.775-86.836-11.623c-1.735-0.796-12.061-3.137-13.845-3.677c-9.501-2.876-26.182-2.954-34.461-3.601
			c-7.292-0.572-11.99,8.235-13.568,16.795c-1.233,6.688,10.486,17.273,16.27,19.752c2.447,1.048,1.383-5.212,3.454-4.341
			c15.135,6.362,21.926,4.862,39.289,17.571c12.957,7.577,50.055,24.085,48.446,43.083c-1.6,18.894-10.963,19.341-9.62,37.222
			c-0.006,17.344,2.313,20.256,2.989,23.699c3.303,16.832,2.979,32.463,4.17,48.887c1.753,24.127,0.322,43.452-2.515,65.84
			c-0.905,7.142,1.782,26.203,1.345,33.674c-1.536,26.277-11.273,31.699-20.303,94.52c-4.42,30.748,3.839,62.395-12.055,76.443
			c5.946,1.658,6.49,3.287,10.747,3.889c7.953,1.131,8.782,5.205,4.473,10.705c-11.626,14.838-17.479,29.521-9.454,44.531
			c3.123,5.846,3.275,11.203,2.733,18.889c-2.259,31.971-30.797,49.359-38.308,72.625c-2.703,8.375,2.073,10.77,8.974,12.561
			c8.054,2.092-2.14,5.477,3.539,7.197c18.015,5.459,69.768,4.785,78.71-11.26c16.078-28.85,38.461,2.082,61.127,5.316
			c23.403,3.338,13.236-6.818,36.422-6.756c16.653,0.043,15.447-5.316,32.15-5.729c11.561-0.289,14.988-12.645,25.819-12.59
			c0.562,0.002,8.964-4.596,10.534-4.635c11.549-0.297,6.195,6.773,13.635,5.586c7.288-1.166,5.966,1.348,13.049-3.115
			c12.128-7.645,19.769,2.318,26.527,0.596c7.046-1.793,10.766-12.943,15.635-9.412C474.438-44.566,497.728-55.379,493.666-68.107z
			 M329.666-507.098c4.813-38.635,13.176-44.937,25.671-79.713c1.795-4.998,9.408-10.837,10.569-11.705
			c7.911-5.914,3.749-7.697,13.717-10.057c4.492-1.064,7.422-0.762,13.359-5.627c6.52-5.34-0.292,1.286,4.605-4.374
			c-3.527,9.014-26.663,68.933-31.129,80.159c-8.067,20.279-13.632,19.102-21.675,32.158c-3.496,5.674-7.219,11.988-10.912,15.459
			C326.898-484.246,327.624-490.699,329.666-507.098z"/>
	</g>
</g>
<g id="Layer_15">
	<g>
		<path fill-rule="evenodd" clip-rule="evenodd" fill="#E8252A" d="M417.103,760.055c0.635-4.363,1.271-8.729,1.907-13.088
			c1.872,1.178,5.206,2.199,5.344,3.551c0.429,4.18,7.424,6.51,4.143,10.637C425.318,765.154,420.916,761.057,417.103,760.055z"/>
		<path fill-rule="evenodd" clip-rule="evenodd" fill="#E8252A" d="M426.55,708.949c-0.105-3.073-0.497-6.171-0.241-9.215
			c0.303-3.633,2.314-1.332,3.729-0.764c-0.836,2.987-1.654,5.978-2.453,8.974c-0.078,0.295,0.027,0.642-0.051,0.937
			C427.251,709.951,426.905,709.968,426.55,708.949z"/>
		<path fill-rule="evenodd" clip-rule="evenodd" fill="#FFFFFF" d="M213.172,121.701c-5.775-1.402-14.015-6.481-15.412-15.08
			c-1.331-8.195-5.318-11.72-9.214-16.737c-11.658-15.021-11.64-24.457,1.355-42.479c8.844-12.266,16.105-10.741,28.368-16.64
			c15.13-7.277,23.511-3.957,34.742,8.545c8.562,9.533,6.256,20.332,16.388,30.872c3.488,3.628,3.17,12.438,6.028,19.701
			c4.348,11.046-0.986,13.023-7.029,16.023c0,0-5.024,1.366-4.399,2.46c3.503,6.124,12.698,6.897,21.784,5.325
			c12.191-2.11,23.827,8.278,42.533,9.571c23.404-3.509,28.68,1.672,47.551,4.877c19.227,3.263-22.119,5.45-24.939,9.885
			c-2.933,4.378-7.021-0.05-11.223,3.056c-7.543,5.575-7.301,4.533,0.369,9.603c1.611,1.065,8.026,0.848,11.654,16.257
			c4.383,18.623,0.115,74.01-0.228,79.684c-0.837,13.892-0.626,27.8-3.398,41.613c-2.409,12.005-4.421,24.301-4.594,36.496
			c-0.328,22.919,0.899,45.857,1.297,68.79c1.13,65.267,11.38,129.328,25.102,192.958c4.076,18.908,9.108,37.553,11.215,56.964
			c1.966,18.107-1.161,36.411,3.087,54.294c3.257,13.707,1.648,26.918-3.84,39.769c-0.875-0.944-1.705-1.935-2.633-2.821
			c-3.529-3.366-7.594-7.736-12.361-6.184c-4.722,1.535-5.724,7.184-5.822,12.186c-0.012,0.649,0.089,1.34-0.1,1.938
			c-0.783,2.51,0.156,6.636-4.433,5.961c-4.295-0.633-5.081-4.221-3.826-7.447c3.583-9.219,3.042-18.094,0.406-27.521
			c-2.394-8.557,1.834-15.801,8.137-21.514c2.122-1.924,4.214-3.883,2.473-6.334c-1.642-2.313-3.675-0.775-5.409,1.159
			c-3.748,4.178-5.627-0.403-7.574-2.231c-6.246-5.862-11.667-5.725-15.104,2.364c-1.791,4.216-3.993,4.134-7.504,3.419
			c-12.707-2.593-23.936,9.953-19.49,22.409c5.308,14.88,11.544,29.428,17.383,44.116c0.238,0.604,0.532,1.185,0.797,1.777
			c2.993,6.713,5.674,14.571,1.427,20.481c-4.172,5.812-12.264,4.243-19.105,3.156c-5.761-0.915-11.582-1.448-17.362-2.242
			c-10.002-1.376-15.17-7.083-14.37-17.019c0.643-8.002-0.012-15.15-4.784-22.122c-3.48-5.082-3.896-11.547-3.584-17.845
			c0.418-8.408-3.954-13.555-11.828-11.682c-7.793,1.854-14.635-1.558-22.042-1.406c-6.087,0.123-6.251-5.857-5.451-10.393
			c1.253-7.104-1.527-8.222-7.918-7.321c-9.479,1.331-19.536,3.738-26.71-6.009c-0.468-0.635-1.846-1.124-2.615-0.934
			c-12.824,3.166-21.753-3.997-29.744-12.001c-11.541-11.558-28.06-13.916-40.716-23.231c-0.749-0.551-2.125-0.44-2.635-1.089
			c-3.976-5.042-13.294-5.93-12.37-14.636c0.888-8.378,9.029-6.654,14.169-9.173c6.663-3.266,13.462-6.572,16.569-14.072
			c7.508-18.117,22.402-29.817,36.252-42.613c16.736-15.461,31.79-32.431,39.973-54.284c4.317-11.533,5.099-23.922,8.891-35.701
			c5.246-16.308,10.914-32.459,19.461-47.144c6.864-11.795,7.043-24.386,6.512-36.537c-1.283-29.446,1.21-56.639,21.039-81.104
			c22.25-27.452,19.517-53.23-5.269-79.599c-6.53-6.947-37.426-10.069-42.116-29.262c-2.559-10.468,3.312-21.188,3.457-31.836
			c0.133-9.848,1.527-19.288,3.994-28.746c3.471-13.314,2.64-16.218-1.528-20.499C226.903,123.922,216.953,122.619,213.172,121.701z
			"/>
		<path fill-rule="evenodd" clip-rule="evenodd" fill="#D14C43" d="M455.129,493.994c-4.427,26.752-0.562,14.325-4.297,41.178
			c-2.816,20.245-2.125,40.777-1.076,61.219c0.18,3.512,2.05,6.11,3.66,8.787c8.442,14.035,15.387,29.118,23.723,42.945
			c7.494,12.432,23.79,73.617,14.781,71.935c-5.258-0.981-0.014,2.308-1.073,7.29c-1.071,5.029-2.503,10.273-2.118,15.285
			c1.086,14.116-6.954,22.268-16.771,29.1c-3.763,2.619-8.691,4.281-13.26,1.034c-4.549-3.233-6.6-7.776-5.139-13.505
			c2.546-9.981,5.083-19.969,7.919-29.865c1.768-6.168,0.079-9.558-6.237-9.738c-18.579-0.529-19.192-0.988-25.205-20.688
			c-1.36-0.568-3.295-2.869-3.588,0.764c-0.243,3.044,0.132,6.142,0.234,9.215c-0.744,2.781-0.85,6.026-2.346,8.26
			c-4.807,7.164-4.342,14.444-2.018,22.253c1.927,6.476,3.885,13.027,3.504,19.973c-0.611,4.358-1.222,8.724-1.834,13.088
			c-1.876,2.115-4.834,3.906-4.516,7.051c1.216,12.093-6.814,12.199-14.301,11.403c-4.984-0.531-8.962,0.73-13.421,2.416
			c-14.167,5.349-28.69,8.76-43.858,5.05c-2.902-0.71-6.386-0.991-6.613-5.474c-0.189-3.753,1.605-6.236,4.613-7.73
			c4.748-2.363,8.716-5.816,12.866-9.076c3.688-2.896,6.206-5.469,4.56-11.104c-1.944-6.651,3.569-10.753,7.258-14.621
			c3.727-3.909,5.301-7.743,4.484-12.93c5.279-12.851,6.828-26.062,3.695-39.769c-4.086-17.883-1.08-36.187-2.969-54.294
			c-2.028-19.411-6.868-38.056-10.79-56.964c-13.198-63.63-23.06-127.691-24.147-192.958c-0.382-22.933-1.562-45.871-1.246-68.79
			c0.166-12.195,2.102-24.491,4.42-36.496c2.665-13.813,2.464-27.722,3.269-41.613c0.33-5.674-0.719-8.918-7.243-7.066
			c-2.952,0.837-6.2,0.514-9.311,0.779c-6.626,0.566-9.455-2.877-10.354-9.473c-2.373-17.399-2.527-16.28-19.01-16.646
			c-9.938-0.221-19.865-1.349-29.783-2.219c-4.589-0.402-7.494-3.63-8.459-7.854c-1.364-5.99-2.229-12.598,0.831-18.029
			c1.815-3.226,6.877-2.122,9.456-0.358c7.379,5.046,17.078,2.862,24.094,9.487c3.243,3.064,7.995-0.619,10.943-3.015
			c3.013-2.449,1.581-6.523,0.01-9.824c-2.144-4.501-6.234-6.933-9.877-9.806c-3.464-2.735-3.51-6.806-1.446-9.469
			c2.855-3.686,4.501,1.102,6.484,2.479c4.99,3.469,9.136,8.22,11.523,13.649c3.641,8.275,9.238,8.916,17.205,8.647
			c17.816-0.604,19.371-2.345,15.154-20.968c-0.775-3.414-1.607-4.245-5.449-6.869c-1.545-1.056-3.39-1.674-4.939-2.738
			c-7.378-5.07-8.442-9.846-1.186-15.421c4.041-3.105,6.505-7.266,10.787-10.532c6.902-6.54,15.872-7.538,24.942-11.833
			c9.697-4.225,19.393-12.535,31.444-16.689c4.306-1.484-0.208-6.235,4.275-9.181c4.092-2.689-4.924-5.386-6.184-18.422
			c0.024-3.232-2.096-6.513-2.477-9.697c-2.638-22.052,8.234-34.465,17.439-52.705c11.462-11.391,40.401-20.83,53.025-2.644
			c5.528,7.962,9.689-1.544,10.879,20.894c-2.574,20.226-7.004,35.051-19.706,48.427c-9.644,10.155-5.388,22.102-3.338,33.019
			c3.425,18.224,10.949,35.305,13.567,54.009c2.852,20.362,0.272,72.688-7.959,90.732c-15.061,51.679-10.879,38.501-9.348,58.615
			c0.927,12.189,2.347,22.37,6.887,33.523c10.191,25.037,4.782,58.667,5.627,86.194L455.129,493.994z"/>
	</g>
</g>
<g id="Layer_11_copy">
	<g>
		<path fill-rule="evenodd" clip-rule="evenodd" fill="#D14C43" d="M194.191,975.602c15.395-4.473,88.676-32.818,104.561-35.504
			c13.939-2.357,33.504-14.785,35.527-25.143c0.611-3.131-2.465-22.137-7.5-28.783c-5.457-7.203-6.645-11.467-6.977-24.863
			c-0.062-2.59,0.484-4.225,0.58-3.996c-5.992-14.387-1.35-27.373,6.779-40.1c14.092-22.07,46.135-22.949,63.256-2.447
			c8.141,9.748,11.643,19.48,11.822,30.828c0.174,10.988,2.982,22.354,0.48,32.852c-2.482,10.396-6.521,19.883-11.77,29.842
			c-1.576,2.99,0.857,6.322,1.17,9.332c0.943,9.055,19.398,20.863,30.293,22.291c17.377,2.279,35.004,4.004,51.889,7.904
			c10.986,2.537,21.814,7.469,30.85,13.352c5.299,3.449,8.174,10.605,9.971,16.557c3.58,11.852-0.74,33.725-16.84,38.832
			c-7.637,2.422-16.08,3.088-24.199,4.357c-3.055,0.477-6.232,0.369-9.346,0.605c-13.957,1.059-25.154,2.037-31.107,17.242
			c-6.928,17.695-19.297,33.84-20.43,53.307c-0.184,3.158-3.686,6.102-5.189,9.301c-5.922,12.605-3.594,25.121,0.752,37.641
			c19.229,55.389,41.145,170.887,49.115,254.176c6.412,16.547,2.412,14.797,8.531,31.428c4.99,13.566,10.471,27.008,15.742,40.5
			c0.539,1.375,0.678,3.135,1.783,4.039c11.539,25.328,8.75,32.301,14.527,61.637c-0.713,26.488-6.02,24.994-10,43.162
			c-0.994,4.529-4.535,9.131-8.281,12.668c-7.27,6.869-15.336,7.404-22.023-0.164c-7.855-8.891-13.695-19.203-19.158-29.373
			c-5.223-9.721,0.459-10.75-3.906-20.918c-16.422,2.977-3.93-3.531-20.016-0.617c-14.867-48.375-15.479-56.836-47.09-98.623
			c2.867,17.859,5.734,35.719,8.678,54.035c-8.189-1.076-16.242-2.137-28.197-3.709c6.414,14.156-17.996,27.299-10.074,38.15
			c13.863,18.986,10.557,38.395,6.557,58.178c-0.449,2.229-4.807,5.02-7.842,5.549c-10.146,1.764-20.514,2.615-31.994,3.959
			c-0.354-11.184-7.09-9.178-14.533-5.775L194.191,975.602z"/>
	</g>
</g>
</svg>
