<?xml version="1.0" encoding="utf-8"?>
<!-- Generator: Adobe Illustrator 16.0.0, SVG Export Plug-In . SVG Version: 6.00 Build 0)  -->
<!DOCTYPE svg PUBLIC "-//W3C//DTD SVG 1.1//EN" "http://www.w3.org/Graphics/SVG/1.1/DTD/svg11.dtd">
<svg version="1.1" xmlns="http://www.w3.org/2000/svg" xmlns:xlink="http://www.w3.org/1999/xlink" x="0px" y="0px" width="600px"
	 height="800px" viewBox="0 0 600 800" enable-background="new 0 0 600 800" xml:space="preserve">
<g id="Layer_0-1">
	<g>
		<path display="none" fill-rule="evenodd" clip-rule="evenodd" fill="#FFFFFF" d="M517.871-718.796
			c-8.167-0.939-17.316,0.332-18.214-15.666c-6.018,14.595-11.494,24.92-11.159,36.557c0.213,7.443-2.031,12.912-7.195,17.627
			c-16.281,14.847-32.319,30.048-53.551,37.908c-12.936,4.884-22.158,17.85-36.307,19.076c-23.318,2.02-46.286,8.977-70.22,4.381
			c-9.913-1.904-20.13-3.813-30.464-3.211c-15.569,0.906-28.918-3.098-38.622-16.463c-3.642-5.017-9.55-7.914-14.464-11.729
			c-6.687-15.161-4.859-19.779,9.171-25.779c6.731-2.879,17.937-2.893,13.907-15.125c-2.649-8.043,0.461-20.864-4.314-23.514
			c-14.397-7.992-15.281-23.6-23.971-34.452c-11.397-14.233-20.271-18.346-37.108-11.394c-13.646,5.637-27.435,10.021-38.966,21.691
			c-19.412,19.65-21.402,24.775-4.081,45.936c4.366,5.332,9.333,9.957,7.147,18.697c-1.619,6.476,12.423,19.911,16.773,17.289
			c3.615-2.181,5.766-5.4,9.547-0.463c3.604,4.703,1.547,8.769-1.396,12.068c-5.467,6.123-11.912,10.105-20.998,9.256
			c-36.303-3.387-71.357,10.792-107.793,7.944c-7.373-0.579-14.83,4.72-16.426,13.375c-1.774,9.626,5.688,13.523,12.73,16.485
			c15.303,6.434,31.371,10.266,47.843,12.357c2.539-5.17,6.104-7.703,12.44-7.968c17.829-0.741,33.676,2.087,45.564,17.265
			c9.189,11.729,20.827,18.529,36.83,18.477c12.592-0.04,18.995,8.256,20.791,21.984c0.491,3.766,2.883,6.48,5.102,9.274
			c4.203,5.294,7.666,11.019,10.121,17.317c1.508,3.871,2.587,8.209-0.765,11.321c-4.015,3.731-7.422-0.59-10.794-2.171
			c-8.729-4.096-13.229-13.371-21.443-18.04c-4.758-2.702-9.871-9.199-15.301-0.687c-0.099,3.628,0.63,7.217,2.12,10.438
			c7.544,16.296,5.676,31.625-2.095,47.631c-10.113,20.826-13.633,43.438-13.365,66.577c0.085,7.278-0.832,14.177-4.953,20.524
			c-13.783,21.223-24.056,43.975-28.935,67.523c0.084,1.238,0.008,2.267-0.612,2.801c0.176-0.938,0.42-1.864,0.612-2.801
			c-0.077-1.154-0.294-2.488-0.347-3.783c-2.338-57.707-2.226-115.418,2.109-173.005c1.101-14.622,0.721-29.567,4.659-43.964
			c1.29-7.276-3.359-12.151-7.817-16.204c-8.633-7.848-11.838-21.37-25.205-24.204c-0.086,1.787,0.227,3.708-0.318,5.344
			c-14.788,44.458-29.775,88.85-44.469,133.34c-5.605,16.971-10.823,34.146-1.875,51.734c3.258,6.4,3.437,12.549-0.227,19.088
			c-12.214,21.816-22.248,44.856-36.246,65.65c-4.111,6.109-2.082,7.717,3.399,10.775c7.114,3.975,15.744,8.35,19.299,14.938
			c7.38,13.683,20.693,24.672,22.989,40.168c1.956,13.195,15.916,26.601-0.154,40.807c6.012,1.676,10.17,3.324,14.473,3.933
			c8.043,1.144,8.881,5.263,4.524,10.825c-11.757,15.002-8.657,29.852-0.542,45.027c3.158,5.912,5.469,11.795,2.764,19.102
			c-9.849,26.59-13.312,54.525-17.091,82.455c-1.191,8.821,2.096,10.893,9.073,12.703c8.143,2.115,15.873-5.285,21.615-3.545
			c18.215,5.52,36.777,5.492,55.237,7.553c17.646,1.967,35.21,4.671,52.79,7.18c23.664,3.375,26.91-9.6,50.354-9.536
			c16.84,0.044,24.638-5.376,41.528-5.793c11.689-0.292,16.058-12.786,27.011-12.731c0.568,0.004,1.748-3.102,1.634-4.686
			c-0.748-10.254,6.265-11.189,13.786-12.391c7.371-1.178,15.052,1.365,22.215-3.15c12.263-7.729,16.455-13.535,19.179,1.469
			c0.437,2.391-0.687,5.742,3.877,5.682c3.235-4.029-1.263-10.217,5.571-11.957c7.125-1.812,10.886,4.95,15.809,8.52
			c0.717,0.52,1.371,1.178,1.911,1.882c13.466,17.6,30.783,17.325,49.203,13.649c3.28-0.652,4.864,1.607,5.1-2.68
			c0.263-4.709-3.396-6.785-6.614-7.966c-13.363-4.916-28.039-11.692-32.146-24.563c-4.781-14.99-13.601-26.219-15.23-42.388
			c-2.016-19.979-5.223-39.836-7.915-59.747c-0.231-10.691-3.19-21.068-3.74-31.719c-3.978-13.185-6.825-26.74-12.282-39.441
			c-3.624-8.438-2.705-14.408,6.918-17.697c9.181-3.137,12.946-10.193,12.811-19.689c-0.3-21.31,4.756-42.457,2.005-63.848
			c0.236-15.209-0.972-30.605,0.96-45.596c8-62.041,44.712-123.886,45.121-186.666c0.043-6.531,0.328-13.595,7.935-16.874
			c-2.354-21.511-1.278-41.86,16.869-57.54c7.43-6.42,14.153-13.701,20.883-20.895c3.714-3.966,6.214-7.457,3.317-14.089
			c-3.386-7.746,0.818-15.256,8.064-19.167c5.889-3.179,9.854-7.403,12.768-13.073C527.844-718.46,522.517-718.264,517.871-718.796z
			 M381.048-509.803c-13.349,15.681-26.835,31.2-41.429,45.728c-6.344,6.315-12.952,12.405-20.986,16.573
			c-15.166,7.863-21.143,4.928-24.339-11.739c-7.53-39.271-2.835-77.14,12.187-114.089c2.157-5.309,5.301-5.049,9.146-5.381
			c27.612-2.391,55.193-5.453,82.857-6.793c12.459-0.604,22.367-4.24,31.26-12.624c8.408-7.927,17.389-15.248,27.482-21.824
			C450.23-605.508,386.351-516.033,381.048-509.803z"/>
	</g>
</g>
<g id="Layer_5">
	<g>
		<path fill-rule="evenodd" clip-rule="evenodd" fill="#D14C43" d="M358.431,168.14c-8.793,8.291-18.592,11.887-30.913,12.483
			c-27.356,1.326-54.633,4.354-81.94,6.719c-3.803,0.328-63.731,14.402-63.199,20.045c4.459,47.266,22.295,140.903,12.485,206.903
			c-2.469,16.601-17.675,124.595-2.676,116.817c7.946-4.121,52.587,97.209,58.858,90.965
			c14.433-14.367,52.745-195.84,65.947-211.348c5.243-6.162,2.638-167.689,4.951-175.301c0.709-5.195,1.205-10.432,2.166-15.581
			c5.595-30.044,6.523-30.037,35.984-34.341c21.555-5.466,33.639-5.762,46.821-24.492
			C444.565,81.643,366.746,160.299,358.431,168.14z"/>
		<path fill-rule="evenodd" clip-rule="evenodd" fill="#D14C43" d="M353.784,148.467c54.173,35.287-11.531,36.756-30.102,40.191
			c-33.727,6.242-109.134,58.962-139.643,51.081c-42.387-10.948-80.141,9.562-58.361-46.511
			c3.454-21.711,52.918-53.363,59.604-55.818c20.728-7.609,27.19-19.594,28.521-36.529c0.683-8.689-11.729-18.144-15.39-26.795
			c-3.265-7.709-2.687-14.112-3.391-22.517c-1.342-16,3.496-33.823,17.645-43.443c15.026-10.214,26.98-10.189,44.176-3.316
			c12.43,4.968,17.17,15.673,17.533,27.75c0.152,5.089,1.454,6.364,2.404,9.529c4.134,13.755,0.244,26.399-0.689,40.757
			c-0.603,9.268-5.415,9.264-7.918,16.975c-2.062,6.348-2.36,1.27,1.219,18.684c3.96,19.267,17.593,17.946,29.561,21.178
			C314.989,144.01,335.321,148.527,353.784,148.467z"/>
		<path fill-rule="evenodd" clip-rule="evenodd" fill="#D14C43" d="M353.058,172.811c-1.489-1.391-3.087-0.678-4.72-2.535
			c-14.801-16.842-7.221-25.092,20.648-33.341c13.981-6.138,16.552-6.494,25.912-11.089c1.967-0.967,11.053-6.305,9.967-10.26
			c-3.569-12.988,3.508-22.051,18.276-22.42c5.217-0.131,8.838-3.484,15.762,2.425c13.395,9.708,5.328,16.604-8.155,25.046
			c-2.981,1.868-6.326,2.51-9.202,4.315c-12.273,7.703-3.899-4.758-9.779,8.314c-16.833,23.107-19.647,24.528-41.908,37.671
			C361.95,172.896,365.163,174.842,353.058,172.811z"/>
		<path fill-rule="evenodd" clip-rule="evenodd" fill="#FFFFFF" d="M493.666,731.893c-4.729-14.824-26.829-18.793-28.44-34.783
			c-1.994-19.76-10.517-39.395-13.179-59.086c-0.229-10.574-3.155-20.836-3.698-31.367c-3.936-13.039-6.751-26.445-12.146-39.006
			c-3.584-8.344-1.446-13.131,6.842-8.582c8.41,4.617-5.034-18.998-5.169-28.389c-0.372-26.457-38.745-40.024-41.717-63.143
			c0.233-15.04-25.497-33.33-34.725-45.09c-20.166-25.703-7.235-20.5-8.193-29.648c-1.79-17.102,3.106-5.98,11.229-22.348
			c5.284-10.646,7.883-61.215,15.844-75.402c3.896-6.943,7.369-13.717,9.688-19.742c2.321-6.029,2.109-33.065,9.63-36.308
			c-2.329-21.272-1.265-52.1,16.683-67.604c7.348-6.352-3.84-20.686,2.815-27.799c3.671-3.924,6.145-7.375,3.279-13.935
			c-3.348-7.661,0.811-15.087,7.976-18.955c5.823-3.144,12.663-5.733,12.627-12.038c-0.033-5.834-7.993-5.857-12.588-6.385
			c-4.51-0.518-13.142,2.396-19.829,7.073c-1.486,1.04,0.175-5.269-1.43-4.665c-3.837,1.443-7.894,14.599-7.789,18.252
			c0.21,7.359-3.792,8.311-8.899,12.972c-16.101,14.685-10.781,10.798-20.765,16.486c-13.4,7.635-12.79,6.937-29.276,11.368
			c-8.153,2.19-12.672,0.751-13.412-5.355c-1.149-9.471-0.02-12.695,4.609-18.359c4.942-6.049,4.273-3.15,6.622-15.851
			c1.522-8.233,3.117-8.048,2.866-13.442c-0.756-16.219-1.736-34.039-10.33-44.772c-11.271-14.076-24.76-16.481-42.149-14.252
			c-14.483,1.856-17.516,6.483-27.734,19.085c-6.462,7.967-10.526,33.002-7.604,46.318c1.449,6.609,2.564,10.846,5.612,19.168
			c3.257,8.896,16.52,12.396,18.567,15.069c3.563,4.652-1.145,14.916-4.057,18.179c-5.406,6.056-11.779,13.561-20.768,12.721
			c-25.992-2.425-59.795,0.775-86.836-11.623c-1.735-0.796-12.061-3.137-13.845-3.677c-9.501-2.876-26.182-2.954-34.461-3.601
			c-7.292-0.572-11.99,8.235-13.568,16.795c-1.233,6.688,10.486,17.273,16.27,19.752c2.447,1.048,1.383-5.212,3.454-4.341
			c15.135,6.362,21.926,4.862,39.289,17.571c12.957,7.577,50.055,24.085,48.446,43.083c-1.6,18.894-10.963,19.341-9.62,37.222
			c-0.006,17.344,2.313,20.256,2.989,23.699c3.303,16.832,2.979,32.463,4.17,48.887c1.753,24.127,0.322,43.452-2.515,65.84
			c-0.905,7.142,1.782,26.203,1.345,33.674c-1.536,26.277-11.273,31.699-20.303,94.52c-4.42,30.748,3.839,62.395-12.055,76.443
			c5.946,1.658,6.49,3.287,10.747,3.889c7.953,1.131,8.782,5.205,4.473,10.705c-11.626,14.838-17.479,29.521-9.454,44.531
			c3.123,5.846,3.275,11.203,2.733,18.889c-2.259,31.971-30.797,49.359-38.308,72.625c-2.703,8.375,2.073,10.77,8.974,12.561
			c8.054,2.092-2.14,5.477,3.539,7.197c18.015,5.459,69.768,4.785,78.71-11.26c16.078-28.85,38.461,2.082,61.127,5.316
			c23.403,3.338,13.236-6.818,36.422-6.756c16.653,0.043,15.447-5.316,32.15-5.729c11.561-0.289,14.988-12.645,25.819-12.59
			c0.562,0.002,8.964-4.596,10.534-4.635c11.549-0.297,6.195,6.773,13.635,5.586c7.288-1.166,5.966,1.348,13.049-3.115
			c12.128-7.645,19.769,2.318,26.527,0.596c7.046-1.793,10.766-12.943,15.635-9.412
			C474.438,755.434,497.728,744.621,493.666,731.893z M329.666,292.902c4.813-38.635,13.176-44.937,25.671-79.713
			c1.795-4.998,9.408-10.837,10.569-11.705c7.911-5.914,3.749-7.697,13.717-10.057c4.492-1.064,7.422-0.762,13.359-5.627
			c6.52-5.34-0.292,1.286,4.605-4.374c-3.527,9.014-26.663,68.933-31.129,80.159c-8.067,20.279-13.632,19.102-21.675,32.158
			c-3.496,5.674-7.219,11.988-10.912,15.459C326.898,315.754,327.624,309.301,329.666,292.902z"/>
		<path fill-rule="evenodd" clip-rule="evenodd" fill="#D14C43" d="M120.572,225.174c-3.556-7.928,3.437-9.048,10.267-9.063
			c29.783-0.071,39.054,6.438,66.515,25.383c9.782,6.749,31.45,21.337,37.975,18.962c13.488-4.91,31.076,1.396,44.367,8.276
			c0.837,0.433-0.388,4.757-0.582,4.923c-11.123,9.535,3.097,11.102,9.972,13.729c5.362,2.051,10.896-0.416,12.037,4.656
			c1.062,4.716,0.291,12.9-3.334,16.404c-4.351,4.203-9.83,2.826-14.636,2.021c-12.499-2.087-16.797-4.718-25.548-8.864
			c-9.68-4.587-18.152-7.708-23.259-0.49c-8.634,0.894-15.404-1.867-24.824-5.402c-11.488-4.312-15.714-4.996-30.04-13.412
			c-19.531-11.47-30.339-18.25-45.29-31.077C127.316,246.162,123.223,232.951,120.572,225.174z"/>
		<path fill-rule="evenodd" clip-rule="evenodd" fill="#FFFFFF" d="M252.909,508.833c-4.253-63.58-35.026-109.478-46.903-172.847
			c-2.699-14.398-16.894-39.506-0.344-111.943c1.288-7.27-3.357-12.141-7.812-16.189c-8.625-7.84,5.173-21.35-8.184-24.182
			c-0.086,1.785,0.096,3.668-0.318,5.34c-19.947,80.528-11.236,107.469-22.104,191.326c-2.295,17.707-6.309,34.115,2.633,51.687
			c3.254,6.396,3.434,12.538-0.227,19.071c-1.646,2.939-2.941,5.918-3.984,8.922c-6.688,19.269,26.988,39.596,14.889,57.568
			c-4.108,6.104-2.08,7.709,3.396,10.766c7.108,3.971-4.092,17.352-0.541,23.934C183.411,552.285,254.276,529.279,252.909,508.833z"
			/>
	</g>
</g>
<g id="Layer_15">
	<g>
		<path fill-rule="evenodd" clip-rule="evenodd" fill="#D14C43" d="M455.129,1293.994c-4.427,26.752-0.562,14.325-4.297,41.178
			c-2.816,20.245-2.125,40.777-1.076,61.219c0.18,3.512,2.05,6.11,3.66,8.787c8.442,14.035,15.387,29.118,23.723,42.945
			c7.494,12.432,23.79,73.617,14.781,71.935c-5.258-0.981-0.014,2.308-1.073,7.29c-1.071,5.029-2.503,10.273-2.118,15.285
			c1.086,14.116-6.954,22.268-16.771,29.1c-3.763,2.619-8.691,4.281-13.26,1.034c-4.549-3.233-6.6-7.776-5.139-13.505
			c2.546-9.981,5.083-19.969,7.919-29.865c1.768-6.168,0.079-9.558-6.237-9.738c-18.579-0.529-19.192-0.988-25.205-20.688
			c-1.36-0.568-3.295-2.869-3.588,0.764c-0.243,3.044,0.132,6.142,0.234,9.215c-0.744,2.781-0.85,6.026-2.346,8.26
			c-4.807,7.164-4.342,14.444-2.018,22.253c1.927,6.476,3.885,13.027,3.504,19.973c-0.611,4.358-1.222,8.724-1.834,13.088
			c-1.876,2.115-4.834,3.906-4.516,7.051c1.216,12.093-6.814,12.199-14.301,11.403c-4.984-0.531-8.962,0.73-13.421,2.416
			c-14.167,5.349-28.69,8.76-43.858,5.05c-2.902-0.71-6.386-0.991-6.613-5.474c-0.189-3.753,1.605-6.236,4.613-7.73
			c4.748-2.363,8.716-5.816,12.866-9.076c3.688-2.896,6.206-5.469,4.56-11.104c-1.944-6.651,3.569-10.753,7.258-14.621
			c3.727-3.909,5.301-7.743,4.484-12.93c5.279-12.851,6.828-26.062,3.695-39.769c-4.086-17.883-1.08-36.187-2.969-54.294
			c-2.028-19.411-6.868-38.056-10.79-56.964c-13.198-63.63-23.06-127.691-24.147-192.958c-0.382-22.933-1.562-45.871-1.246-68.79
			c0.166-12.195,2.102-24.491,4.42-36.496c2.665-13.813,2.464-27.722,3.269-41.613c0.33-5.674-0.719-8.918-7.243-7.066
			c-2.952,0.837-6.2,0.514-9.311,0.779c-6.626,0.566-9.455-2.877-10.354-9.473c-2.373-17.399-2.527-16.28-19.01-16.646
			c-9.938-0.221-19.865-1.349-29.783-2.219c-4.589-0.402-7.494-3.63-8.459-7.854c-1.364-5.99-2.229-12.598,0.831-18.029
			c1.815-3.226,6.877-2.122,9.456-0.358c7.379,5.046,17.078,2.862,24.094,9.487c3.243,3.064,7.995-0.619,10.943-3.015
			c3.013-2.449,1.581-6.523,0.01-9.824c-2.144-4.501-6.234-6.933-9.877-9.806c-3.464-2.735-3.51-6.806-1.446-9.469
			c2.855-3.686,4.501,1.102,6.484,2.479c4.99,3.469,9.136,8.22,11.523,13.649c3.641,8.275,9.238,8.916,17.205,8.647
			c17.816-0.604,19.371-2.345,15.154-20.968c-0.775-3.414-1.607-4.245-5.449-6.869c-1.545-1.056-3.39-1.674-4.939-2.738
			c-7.378-5.07-8.442-9.846-1.186-15.421c4.041-3.105,6.505-7.266,10.787-10.532c6.902-6.54,15.872-7.538,24.942-11.833
			c9.697-4.225,19.393-12.535,31.444-16.689c4.306-1.484-0.208-6.235,4.275-9.181c4.092-2.689-4.924-5.386-6.184-18.422
			c0.024-3.232-2.096-6.513-2.477-9.697c-2.638-22.052,8.234-34.465,17.439-52.705c11.462-11.391,40.401-20.83,53.025-2.644
			c5.528,7.962,9.689-1.544,10.879,20.894c-2.574,20.226-7.004,35.051-19.706,48.427c-9.644,10.155-5.388,22.102-3.338,33.019
			c3.425,18.224,10.949,35.305,13.567,54.009c2.852,20.362,0.272,72.688-7.959,90.732c-15.061,51.679-10.879,38.501-9.348,58.615
			c0.927,12.189,2.347,22.37,6.887,33.523c10.191,25.037,4.782,58.667,5.627,86.194L455.129,1293.994z"/>
	</g>
</g>
</svg>
