<?xml version="1.0" encoding="utf-8"?>
<!-- Generator: Adobe Illustrator 16.0.0, SVG Export Plug-In . SVG Version: 6.00 Build 0)  -->
<!DOCTYPE svg PUBLIC "-//W3C//DTD SVG 1.1//EN" "http://www.w3.org/Graphics/SVG/1.1/DTD/svg11.dtd">
<svg version="1.1" xmlns="http://www.w3.org/2000/svg" xmlns:xlink="http://www.w3.org/1999/xlink" x="0px" y="0px" width="600px"
	 height="800px" viewBox="0 0 600 800" enable-background="new 0 0 600 800" xml:space="preserve">
<g id="Layer_11_copy">
	<g>
		<path fill-rule="evenodd" clip-rule="evenodd" fill="#FFFFFF" d="M425.041-582.516c-0.146,1.172-3.232,23.752-3.977,34.033
			c-1.322,18.236-11.553,34.82-11.104,53.615c0.043,1.832-1.344,3.893-2.457,5.648c-1.139,1.793-1.953,3.668-1.963,5.805
			c-0.084,14.762,5.902,29.441,7.574,44.203c1.264,11.146,0.951,22.322,1.693,33.412c0.811,12.119,21.908,11.568,18.098,21.756
			c-11.275,4.471-22.574,11.23-34.234,0.799c-14.664-0.541-28.385-4.15-40.725-12.348c-5.615-2.725-9.496-7.082-12.018-12.719
			c-8.271-11.502-15.709-23.416-18.281-37.674c-2.076-23.203-6.279-46.375-1.408-69.75c0.732-3.512-0.004-7.088-0.564-10.617
			c-0.797-5.006-1.049-10.049-0.062-15.055c1.004-5.1,3.875-8.854,9.098-9.803c11.373-2.062,45.814-7.617,50.619-11.502
			c9.738-9.707,12.916-16.584,24.158-24.104c5.314-2.98,13.086-10.73,17.092-5.43C428.064-590.281,425.346-584.957,425.041-582.516z
			 M442.367-601.551c4.414-6.436,9.301-11.342,11.936-18.324c-0.012-1.111,2.328-6.941,2.41-6.977
			c2.871-1.295,10.24-6.072,12.197-5.752c-0.578-1.156-1.158-2.312-1.736-3.469c0.855-10.615-5.359-16.105-14.246-19.658
			c-2.904-2.496-6.037-4.777-8.654-7.545c-3.385-3.578-14.551,1.877-14.814,5.854c-0.037,0.588-2.576,7.17-5.105,8.996
			c-1.082,0.752-5.791,17.174-5.488,24.889c-0.598,0.607-8.98,1.865-12.574,1.889c-1.807,0.01-29.717,13.76-35.395,15.543
			c-26.91,8.461-44.797,13.744-72.797,4.959c-9.734,1.422-24.32-13.33-37.094-23.391c-0.684-0.537-29.248-13.23-29.248-13.23
			c-6.896-15.635-30.123-18.539-15.654-24.725c6.941-2.969,12.92-2.982,8.764-15.6c-2.732-8.293-1.713-19.973-5.381-24.246
			c-10.65-12.418-7.389-24.336-16.35-35.527c-11.752-14.678-20.904-18.92-38.27-11.748c-14.072,5.811-22.086,3.646-32.744,16.789
			c-15.66,19.309-16.279,29.848-4.209,47.369c4.033,5.852,8.264,10.041,9.232,19.281c1.016,9.695,10.004,14.033,16.367,15.967
			c4.164,1.266,5.016,0.012,8.916,5.102c3.715,4.852-2.125,10.904-5.16,14.307c0,0-5.777,37.557,8.42,47.791
			c14.359,11.178,13.031,17.361,19.691,33.723c4.799,4.58,8.771,9.664,10.029,16.395c4.51,7.008,11.588,11.65,16.688,18.113
			c4.42,2.211,4.113,6.287,4.086,10.24c0.223,4.6,2.105,8.57,5.115,11.928c4.881,5.439,9.533,11.049,13.816,16.955
			c2.072,2.955,6.666,5.049,3.717,9.875c0.344,2.85,0.018,5.512-2.172,7.643c-7.584,16.443-19.33,29.842-31.447,42.967
			c-10.42,9.146-8.74,20.895-19.174,30.145c-5.18,4.592-1.072,9.656,3.438,13.359c8.648,7.094,10.758,14.654,6.945,24.908
			c-2.086,5.613-37.094,13.531-42.76,14.824c-8.262,1.889-10.799,5.939-10.6,5.803c-7.146-0.434-18.227,24.885-18.227,24.885
			s-5.488,24.24-3.18,26.695c6.504,6.91,5.74,13.1,0.264,20.406c-6.029,8.047-22.143,55.867-22.146,55.869
			c-2.316,0.438-4.74,0.574-6.932,1.357c-16.805,6.025-6.281,47.271-1.109,46.037c5.662-1.35,8.486,0.73,8.549,6.629
			c0.062,5.807,2.246,10.936,5.379,15.717v-0.004v0.004c1.717,3.408-6.062,34.836-4.117,38.113
			c13.512,22.742,24.387,18.576,49.783,23.959c9.502,2.014,13.068,22.576,10.641,31.898c4.594,2.225,7.045-1.133,9.773-3.773
			c7.203-9.348,18.686,0.129,20.072,2.275c11.439,44.238,23.533,35.496,52.275,23.928c1.135,1.736,3.242-0.545,3.488,1.184
			c0.695,4.873,39.227-0.393,42.855,1.922v-0.002l0,0c2.941,1.629,4.777,5.115,8.66,5.16c2.564,2.057,5.23,3.891,8.711,3.871
			c11.211-0.062,41.27-23.949,45.633-29.207c2.824-3.406,21.775-11.982,27.582-8.188l0,0c0.551,1.25,1.1,2.5,1.648,3.752
			c3.154-0.279,6.283-1.656,9.459-0.207c20.68,3.605,20.68,3.605,28.17-15.953c0.211-0.553,10.934-46.531,12.736-53.162
			c0.672-3.789,0.459-7.635,0.682-11.455c1.139-19.525-0.701-38.748-5.66-57.686c-4.824-9.117-7.998-18.381-6.986-29.127
			c0.605-6.436,2.273-10.744,8.625-12.58c5.896-1.566,18.408-8.678,19.113-9.66c3.061-4.27,7.969-7.52,12.398-6.85
			c4.07,0.615,9.17-12.904,9.375-27.547c0.143-10.271,6.348-30.531,6.734-30.896c3.008-17.494,6.201-34.809,5.904-52.844
			c-0.762-46.588-20.629-56.023-25.469-102.492c2.422-2.361-1.664-14.023,0.758-16.385c4.379-1.688-2.406-23.516-1.465-28.051
			c1.375-6.977-4.318-11.496-6.057-17.396c0.859-10.926-4.959-20.691-5.398-31.445c-0.246-6.035,1.234-21.154-1.398-30.965
			c-1.291-5.326-7.775-8.963-6.717-14.91C438.301-587.916,439.689-597.645,442.367-601.551z"/>
	</g>
</g>
<g id="Layer_21_copy">
	<g>
		<path fill-rule="evenodd" clip-rule="evenodd" fill="#D14C43" d="M383.132,216.88c-9.652,9.102-20.408,13.049-33.934,13.703
			c-30.031,1.455-59.973,4.779-89.947,7.375c-4.174,0.36-7.588,0.078-9.93,5.842c-16.307,40.109-21.404,81.22-13.229,123.852
			c3.469,18.093,8.73,34.473,25.195,25.936c8.721-4.524,18.566,7.344,25.451,0.488c15.844-15.77,36.414,18.006,50.906,0.983
			c5.756-6.764,2.895-95.964,5.434-104.319c0.777-5.703,1.324-11.451,2.379-17.104c6.143-32.979,6.182-32.973,38.521-37.696
			c23.662-6,54.572-11.205,62.166-26.885C453.653,174.791,392.261,208.273,383.132,216.88z"/>
		<path fill-rule="evenodd" clip-rule="evenodd" fill="#D14C43" d="M368.243,170.809c59.465,38.735-4.828,32.516-25.211,36.288
			c-37.025,6.852-140.961,73.635-177.494,72.256c-23.484-0.885-62.838-49.696-64.361-88.898
			c5.848-6.481,81.176-30.211,91.889-31.783c22.865-3.35,29.848-29.34,31.309-47.93c0.75-9.539-14.834-19.918-18.855-29.415
			c-3.58-8.462-5.883-15.491-6.656-24.717c-1.473-17.563,0.902-37.129,16.432-47.688c16.494-11.213,30.598-11.186,49.471-3.641
			c12.797,5.114,19.643,17.384,22.773,30.997c1.736,7.563-1.418,8.249,2.051,13.841c8.309,13.397,0.447,9.337-0.758,40.824
			c-0.389,10.188-3.984,10.17-6.734,18.634c-2.262,6.968-2.59,1.394,1.34,20.509c4.346,21.15,19.311,19.701,32.449,23.248
			C333.489,158.084,351.853,161.966,368.243,170.809z"/>
		<path fill-rule="evenodd" clip-rule="evenodd" fill="#D14C43" d="M453.548,204.81c-1.777-1.361-6.477,0.238-5.426-2.266
			c7.729-18.44-13.113-14.684,7.51-26.25c12.26-6.877,24.18-14.365,36.137-21.763c2.045-1.266,5.717-1.808,4.107-6.013
			c-5.289-13.807,1.475-24.466,17.567-26.449c5.688-0.701,5.6-12.26,13.795-6.545c15.672,9.173,15.891,11.84,2.062,22.506
			c-3.059,2.357-6.547,4.392-9.496,6.672c-12.587,9.73-20.905,15.294-25.929,30.205c-15.918,27.045,0.74,9.316-22.172,26.058
			C463.272,203.951,466.991,205.734,453.548,204.81z"/>
		<path fill-rule="evenodd" clip-rule="evenodd" fill="#D14C43" d="M241.046,736.025c-3.998,6.007-11.957,52.326-4.232,55.829
			c12.227,6.34,17.92,1.287,35.525-19.995L241.046,736.025z"/>
		<path fill-rule="evenodd" clip-rule="evenodd" fill="#FFFFFF" d="M516.006,105.464c-8.866-1.018-18.798,12.11-19.772-5.258
			c-6.533,15.844-12.479,15.305-12.115,27.938c0.232,8.078-2.205,14.018-7.811,19.134c-17.676,16.12-15.504,13.04-38.553,21.573
			c-14.043,5.3-23.074,19.376-38.434,20.707c-25.314,2.195-15.982,9.745-41.963,4.757c-10.764-2.066-21.854-4.14-33.072-3.485
			c-16.902,0.982-31.393-3.363-41.928-17.871c-3.953-5.446-13.91-12.883-14.723-19.585c-1.262-10.397-0.021-11,5.061-17.218
			c5.426-6.641,4.691-4.438,7.268-18.379c1.67-9.039,3.422-19.603,3.146-25.525c-0.828-17.803-1.904-25.617-11.338-37.399
			c-12.373-15.452-27.18-18.093-46.27-15.646c-15.896,2.039-19.227,7.118-30.445,20.951c-7.092,8.746-11.553,36.227-8.346,50.846
			c1.592,7.254,2.816,11.904,6.16,21.04c3.574,9.766,18.133,17.522,20.381,20.458c3.912,5.107-1.256,9.521-4.453,13.104
			c-5.932,6.646-12.93,10.97-22.795,10.047c-39.41-3.676-67.678-17.653-107.232-20.746c-8.004-0.628-16.1,5.125-17.832,14.521
			c-1.928,10.449,6.174,14.681,13.82,17.896c16.613,6.984,23.289,20.934,41.172,23.204c10.697-0.493,7.795-3.438,14.482-1.797
			c59.846,14.684,39.035,23.043,49.467,36.362c9.977,12.734,23.727,31.618,17.83,40.858c-0.105,3.939,10.371,24.194,11.113,27.975
			c3.625,18.477,1.994,34.141-2.273,51.706c-5.936,24.423-1.605,47.698-4.719,72.274c-0.994,7.84-10.48,29.217-13.209,36.965
			c-9.131,25.911-8.494,33.055-13.791,58.619c0.092,1.343,0.008,2.459-0.664,3.039c0.191-1.018,0.457-2.023,0.664-3.039
			c-0.084-1.254-0.318-2.701-0.377-4.107c-2.537-62.646,17.166-125.296,21.873-187.811c1.195-15.873-9.008-32.096-4.732-47.725
			c1.398-7.898-3.648-13.191-8.488-17.591c-9.371-8.519-1.104-32.989-15.613-36.065c-0.125,2.599-1.311,21.675-1.324,25.382
			c-0.217,55.018,11.531,62.849,6.549,124.19c-1.572,19.338-8.723,13.059-6.932,56.161c0.322,7.79,3.73,13.623-0.244,20.722
			c-13.262,23.683-5.553,49.674-20.752,72.248c-4.463,6.631-0.756,30.55,3.104,37.703c8.014,14.852-8.863,26.782-6.369,43.604
			c2.123,14.324,5.977,45.949,10.648,46.61c8.732,1.241-4.486,24.577,4.322,41.052c3.428,6.417,3.598,12.299,3,20.736
			c-2.479,35.094,5.355,5.23-2.889,30.769c-2.969,9.194,2.275,2.034,9.85,3.999c8.84,2.297-2.35,15.802,3.885,17.691
			c19.775,5.992,38.258,27.368,37.449,7.219c-0.396-9.969,10.75-7.803,37.73-3.953c25.691,3.663,4.742,2.306,30.193,2.375
			c18.277,0.047,26.744,13.744,45.08,13.291c12.691-0.316,45.826-23.67,57.715-23.611c0.617,0.004,9.842-5.043,11.564-5.086
			c12.676-0.326,6.801,7.435,14.967,6.131c8-1.279,6.549,1.48,14.324-3.42c13.314-8.391,21.699,2.545,29.121,0.654
			c7.732-1.967,11.814-14.207,17.162-10.332c0.775,0.564,26.342-11.305,21.883-25.277c-5.191-16.272-29.451-20.63-31.223-38.182
			c-2.188-21.69-11.543-43.246-14.465-64.861c-0.252-11.606-3.463-22.871-4.061-34.432c-4.318-14.313,2.381-29.029-3.543-42.818
			c-3.934-9.159-2.936-15.641,7.512-19.211c9.965-3.404,4.264-11.065,4.113-21.374c-0.324-23.134,6.143-46.09,3.158-69.312
			c0.256-16.511-1.057-33.224,1.041-49.498c8.686-67.351,23.082-85.534,23.525-153.688c0.047-7.092,0.357-14.758,8.613-18.316
			c-2.557-23.352-20.969-25.862-1.268-42.883c8.064-6.971,15.365-14.873,22.67-22.684c4.031-4.307,6.746-8.096,3.602-15.296
			c-3.676-8.409,0.889-16.561,8.757-20.808c6.391-3.45,10.697-8.037,13.859-14.192C526.832,105.831,521.049,106.043,516.006,105.464
			z M399.78,332.344c-11.773,23.555-18.361,13.31-34.205,29.079c-6.887,6.855-4.27,14.447-12.992,18.972
			c-16.463,8.537-16.098-18.147-19.566-36.24c-8.176-42.632-7.973-60.245,8.334-100.354c2.342-5.764,5.756-5.481,9.93-5.842
			c29.975-2.596,25.65-6.898,55.682-8.354c13.525-0.654,23.303-4.602,32.955-13.703c9.127-8.607,7.672-4.115,18.631-11.252
			C453.481,215.106,406.298,319.304,399.78,332.344z"/>
		<path fill-rule="evenodd" clip-rule="evenodd" fill="#D14C43" d="M119.946,232.64c-2.551-8.354,1.123-6.452,6.947-6.121
			c25.398,1.442,58.846,8.485,75.49,29.015c22.32,27.535,19.088,19.992,32.508,19.009c16.855-1.239,31.354,9.197,42.266,16.969
			c0.688,0.49,0.268,3.121,0.074,3.252c-12.83,8.688,0.145,9.799,8.139,13.025c5.051,2.036,13.852,1.068,14.518,6.357
			c0.619,4.916-0.508,9.411-3.811,12.839c-3.963,4.116-11.996,7.083-16.045,6.009c-10.529-2.79-19.152-4.323-25.521-10.54
			c-5.844-5.703-11.252-5.367-20.412-10.552c-7.416,0.484-2.402-4.576-15.297,4.047c-7.658,5.121-20.541-0.252-30.301-12.435
			c-11.609-13.564-48.102-37.731-59.713-51.297C123.233,246.653,119.278,240.496,119.946,232.64z"/>
		<path fill-rule="evenodd" clip-rule="evenodd" fill="#FFFFFF" d="M174.833,533.489c-0.084-1.254-0.318-2.701-0.377-4.107
			c-2.537-62.646,19.332-125.171,21.873-187.811c2.125-52.429-9.008-102.096-4.732-117.725c1.398-7.898-3.648-13.191-8.488-17.591
			c-9.371-8.519-4.104-12.989-18.613-16.065c-0.125,2.599,1.689,21.675,1.676,25.382c-0.217,55.018,6.052,80.967-13.451,174.19
			c-3.974,18.99-8.723,13.059-6.932,56.161c0.322,7.79,3.73,13.623-0.244,20.722c-13.262,23.683,14.447,49.674-0.752,72.248
			c-4.463,6.631-0.756,30.55,3.104,37.703C155.909,591.448,174.626,534.505,174.833,533.489z"/>
	</g>
</g>
<g id="Layer_0-3_copy">
	<g>
		<path fill-rule="evenodd" clip-rule="evenodd" fill="#D14C43" d="M427.751,957.629c-12.473,13.031-26.521,21.083-45.299,24.559
			c-34.105,6.311-67.439,0.465-101.094-0.805c-21.633-0.814-32.598-16.342-43.682-31.699c9.549-3.605,18.838-9.002,28.705-10.449
			c21.062-3.086,27.494-18.01,28.842-35.133c0.689-8.789-4.646-18.348-8.35-27.097c-3.299-7.795-8.125-15.172-8.838-23.67
			c-1.357-16.18,0.83-32.4,15.137-42.127c15.193-10.328,33.596-14.812,50.982-7.863c15.934,6.371,21.018,23.443,25.572,38.6
			c4.18,13.908,2.051,28.499,1.105,43.017c-0.609,9.372-3.703,12.307-11.615,14.459c-16.914,4.602-14.109,4.891-10.49,22.5
			c4.004,19.482,18.691,18.148,30.793,21.414C395.735,947.713,412.653,949.484,427.751,957.629z"/>
	</g>
</g>
</svg>
