<?xml version="1.0" encoding="utf-8"?>
<!-- Generator: Adobe Illustrator 16.0.0, SVG Export Plug-In . SVG Version: 6.00 Build 0)  -->
<!DOCTYPE svg PUBLIC "-//W3C//DTD SVG 1.1//EN" "http://www.w3.org/Graphics/SVG/1.1/DTD/svg11.dtd">
<svg version="1.1" xmlns="http://www.w3.org/2000/svg" xmlns:xlink="http://www.w3.org/1999/xlink" x="0px" y="0px" width="600px"
	 height="800px" viewBox="0 0 600 800" enable-background="new 0 0 600 800" xml:space="preserve">
<g id="Layer_9">
	<g>
		<path fill-rule="evenodd" clip-rule="evenodd" fill="#D14C43" d="M410.932,203.987c-8.984,8.471-18.997,12.146-31.587,12.756
			c-27.953,1.354-55.823,4.447-83.725,6.863c-3.885,0.336-7.062,0.074-9.242,5.438c-15.18,37.336-19.924,75.602-12.313,115.283
			c3.228,16.842,8.126,32.088,23.452,24.143c8.119-4.211,17.282,6.836,23.691,0.455c14.746-14.68,33.895-19.693,47.383-35.539
			c5.359-6.295,2.695-52.871,5.059-60.648c0.725-5.309,1.233-10.66,2.215-15.92c5.718-30.699,5.754-30.691,35.855-35.09
			c22.026-5.584,41.686-10.43,48.754-25.025C467.46,164.81,419.429,195.976,410.932,203.987z"/>
		<path fill-rule="evenodd" clip-rule="evenodd" fill="#D14C43" d="M159.588,159.28c-55.354,36.055,4.492,32.088,23.468,35.6
			c34.461,6.379,99.564-1.201,133.571-2.484c21.858-0.822,160.046,10.684,76.036-32.031c-9.651-3.643-60.043-18.209-70.016-19.672
			c-21.283-3.117-27.783-18.197-29.143-35.502c-0.698-8.879,4.693-18.539,8.436-27.379c3.334-7.877,8.21-15.332,8.931-23.918
			c1.37-16.35-0.84-32.738-15.295-42.568C280.222,0.89,268.006-3.642,250.438,3.38c-16.102,6.436-22.148,23.689-26.752,39.004
			c-4.223,14.053-2.072,28.795-1.117,43.467c0.614,9.469,3.999,11.65,11.736,14.611c9.803,3.752,7.879,4.941,4.221,22.734
			c-4.045,19.688-17.975,18.338-30.203,21.639C191.938,149.259,174.844,151.05,159.588,159.28z"/>
		<path fill-rule="evenodd" clip-rule="evenodd" fill="#D14C43" d="M431.16,225.587c-1.89-0.875-42.285,1.535-41.842-0.953
			c3.266-18.322,44.462-41.551,60.838-56.256c9.735-8.744,19.038-17.971,28.394-27.125c1.6-1.566,4.824-2.807,2.506-6.297
			c-7.616-11.463-3.645-22.521,10.57-27.6c5.023-1.795,2.588-12.275,11.197-8.754c16.102,5.141,16.842,7.518,6.454,20.021
			c-2.297,2.766-5.052,5.322-7.267,7.994c-9.451,11.4-15.872,18.146-17.4,32.711c-8.949,27.807-11.229,30.086-28.63,49.955
			C448.931,213.714,443.558,223.69,431.16,225.587z"/>
		<path fill-rule="evenodd" clip-rule="evenodd" fill="#FFFFFF" d="M489.329,101.024c-8.253-0.947-17.496,0.336-18.404-15.83
			c-6.082,14.748-11.615,25.18-11.276,36.939c0.216,7.52-2.052,13.049-7.271,17.811c-16.451,15.004-18.357,31.441-39.812,39.385
			c-13.07,4.934-23.301,10.744-37.598,11.984c-23.562,2.043-27.635-1.865-51.818-6.508c-10.018-1.924-20.34-3.854-30.784-3.244
			c-15.733,0.914-38.333-3.131-48.14-16.637c-3.68-5.068-9.65-7.996-14.615-11.85c-6.758-15.32-11.29-18.166,2.887-24.229
			c6.803-2.908,12.66-2.922,8.588-15.285c-2.678-8.125-1.678-19.57-5.271-23.758c-10.438-12.168-7.241-23.848-16.022-34.814
			c-11.517-14.383-20.485-18.537-37.499-11.512c-13.789,5.695-21.643,3.574-32.086,16.451c-15.345,18.922-15.953,29.25-4.123,46.416
			c3.951,5.734,8.098,9.842,9.045,18.895c0.995,9.5,9.804,13.752,16.037,15.646c4.082,1.24,4.916,0.01,8.736,4.998
			c3.643,4.754-1.169,8.863-4.145,12.197c-5.523,6.188-12.004,4.279-21.219,3.885c-25.75-1.104-3.729-4.902-36.938-13.846
			c-7.217-1.943-30.477-4.342-32.089,4.404c-1.794,9.727-3.325,20.111,1.929,25.771c13.706,14.764,10.741,17.662,27.387,19.775
			c7.277-0.457,8.9,0.418,15.305,0.15c18.018-0.748,15.806,18.512,27.818,33.848c9.287,11.854,10.855,20.674,20.243,44.412
			c-0.1,3.666,5.193,16.404,6.698,19.66c7.625,16.465,5.736,31.955-2.115,48.129c-10.219,21.043-13.777,43.893-13.507,67.273
			c0.085,7.355-0.84,14.326-5.005,20.74c-13.928,21.445-15.195,44.436-20.125,68.232c0.084,1.25,0.008,2.289-0.619,2.828
			c0.176-0.947,0.424-1.883,0.619-2.828c-0.078-1.168-0.589-2.537-0.351-3.824c18.409-99.52,6.862-116.627,11.243-174.816
			c1.111-14.775-13.384-48.104-9.404-62.652c1.304-7.352-3.395-12.277-7.9-16.373c-8.723-7.93,7.152-21.594-6.356-24.457
			c-7.606,1.395-8.884,3.746-9.435,5.4c-14.944,44.922,15.029,108.006,0.183,152.963c-5.663,17.146-15.493,34.504-6.452,52.275
			c3.293,6.469,3.474,12.68-0.227,19.289c-12.344,22.043-14.281,46.236-28.428,67.248c-4.154,6.172-2.104,7.797,3.436,10.889
			c7.189,4.016,6.797,7.525,10.389,14.184c7.457,13.824,9.976,24.93,12.297,40.588c1.977,13.332,20.639,25.057,4.4,39.41
			c6.074,1.695,10.276,3.359,14.625,3.975c8.127,1.154,8.973,5.318,4.572,10.938c-11.883,15.16-17.861,21.053-9.662,36.387
			c3.191,5.973,5.527,11.918,2.793,19.303c-9.951,26.867-17.098,45.982-20.915,74.205c-1.205,8.914,2.118,11.006,9.167,12.836
			c8.23,2.137,16.041-5.342,21.844-3.582c18.407,5.576-2.02,5.549,16.635,7.631c17.831,1.988,53.805,4.721,71.571,7.256
			c23.913,3.41,13.526,10.348,37.217,10.412c17.015,0.045,15.782-5.432,32.851-5.854c11.812-0.295,15.314-12.92,26.382-12.865
			c0.574,0.004,9.159-4.693,10.764-4.734c11.8-0.303,6.331,6.92,13.931,5.707c7.447-1.191,6.098,1.379,13.334-3.184
			c12.393-7.809,20.199,2.369,27.105,0.609c7.199-1.83,11-13.225,15.975-9.617c0.723,0.525,24.52-10.523,20.369-23.527
			c-4.832-15.148-14.654-28.316-16.301-44.656c-2.037-20.188-5.277-40.252-7.998-60.373c-0.234-10.803-3.225-21.289-3.779-32.049
			c-4.021-13.324,2.215-27.021-3.299-39.855c-3.662-8.527-2.732-14.561,6.992-17.883c9.275-3.17,13.08-10.301,12.943-19.896
			c-0.303-21.531,14.828-42.9,12.05-64.516c0.238-15.369-0.981-30.926,0.97-46.074c8.084-62.691,36.065-125.184,36.48-188.621
			c0.043-6.602-17.894,4.49-10.209,1.178c-2.379-21.736-6.527-19.77,2.746-40.994c3.975-9.094,14.303-32.07,21.103-39.34
			c3.752-4.01,6.278-7.537,3.352-14.238c-3.421-7.828,0.827-15.416,8.149-19.369c5.949-3.211,9.957-7.48,12.9-13.211
			C499.407,101.364,494.024,101.562,489.329,101.024z M392.71,295.06c-13.488,15.844-27.115,31.527-41.862,46.205
			c-6.409,6.383-22.2,12.537-30.319,16.748c-15.326,7.945-21.364,4.979-24.593-11.863c-7.61-39.682-2.865-77.947,12.313-115.283
			c2.181-5.363,5.357-5.102,9.242-5.438c27.901-2.416,45.748,4.516,73.701,3.16c12.59-0.609,12.399,0.174,23.386-5.465
			c10.054-5.158,7.142-3.83,17.342-10.473C427.206,222.386,401.505,284.726,392.71,295.06z"/>
		<path fill-rule="evenodd" clip-rule="evenodd" fill="#D14C43" d="M118.606,205.144c0.343-9.824,1.783-7.555,6.72-8.004
			c21.54-1.953,23.856,1.467,39.511,21.797c7.613,9.887,7.473,16.725,18.589,13.691c13.958-3.814,19.003,5.184,29.347,12.539
			c0.652,0.469,0.637,3.508,0.557,3.723c-4.658,12.51,2.787,6.16,9.145,11.918c5.182,4.693,7.857,4.486,9.223,10.453
			c1.268,5.549,1.389,13.215-0.861,17.615c-2.702,5.279-8.195,3.227-11.756,2.572c-9.266-1.705-11.973-2.877-18.266-9.102
			c-5.771-5.705-12.347-8.594-20.309-9.17c-6.15,1.609-1.676,0.297-7.293,3.975c-7.549,4.941-14.961-0.867-24.258-11.848
			c-11.812-13.902-15.422-24.16-27.233-38.062C116.212,221.651,118.232,215.839,118.606,205.144z"/>
		<path fill-rule="evenodd" clip-rule="evenodd" fill="#FFFFFF" d="M143.789,496.692c18.409-99.52,6.862-116.627,11.243-174.816
			c1.111-14.775-18.373-96.078-10.404-122.652c1.304-7.352-3.395-12.277-7.9-16.373c-8.723-7.93,6.152-1.594-7.356-4.457
			c-7.606,1.395-9.084,3.691-9.435,5.4c-19.104,93.111,17.896,112.111,2.183,192.963c-3.445,17.725-15.493,34.504-6.452,52.275
			c3.293,6.469,3.474,12.68-0.227,19.289c-12.344,22.043-14.281,46.236-28.428,67.248c-4.154,6.172-2.104,7.797,3.436,10.889
			c7.189,4.016,6.797,7.525,10.389,14.184L143.789,496.692z"/>
	</g>
</g>
<g id="Layer_19">
	<g>
		<path fill-rule="evenodd" clip-rule="evenodd" fill="#D14C43" d="M137.319,869.933c-0.423-2.467-0.894-4.926-1.259-7.402
			c-0.566-3.84,0.189-6.445,4.957-5.029c10.235,18.127,17.34,36.66,7.283,57.375c-1.406,5.496-2.885,10.461-8.664,13.752
			c-3.792,2.162-5.934,7.098-9.115,10.512c-1.487,1.596-2.492,2.924-1.081,4.834c1.381,1.867,2.983,0.309,4.206-0.262
			c11.731-5.48,24.133-7.008,36.898-6.539c4.141,0.475,8.268,1.191,12.418,1.371c7.555,0.324,12.589-3.586,15.789-10.18
			c9.668-3.887,17.2-7.963,20.501-20.359c2.546-9.555-0.152-15.764-3.015-23.27c-5.122-13.43-10.089-26.98-10.635-41.516
			c-0.777-20.666,2.219-26.941,20.111-35.826c11.113-5.52,23.843-8.508,36.994-7.008c5.284,0.604,10.087,3.32,12.109,6.75
			c5.76,9.771,12.866,20.137,14.105,30.881c2.237,19.4,5.804,39.361-0.723,58.896c-0.777,2.322-1.832,4.703-4.108,4.816
			c-15.47,0.771-6.169,12.342-7.619,18.617c-1.745,7.539,6.215,9.52,11.441,11.285c14.835,5.01,24.352,11.178,42.271,11.418
			c12.381,0.166,53.47,16.1,64.801,19.723c52.535,7.733,71.38,32.266,79.176,44.246c5.135,12.291,8.201,22.609-2.053,31.561
			c-0.467,0.406-22.295,11.057-35.734,9.021c1.524-4.684,4.062-7.951,6.986-11.689c3.263-4.172,8.224-7.861,1.459-10.107
			c-5.452-1.811-94.696-1.219-105.584-1.434c-6.541-0.129-9.668,2.922-10.318,8.734c-1.533,13.668-4.247,27.238-5.609,40.812
			c-1.8,17.906-5.148,35.508-8.171,53.121c-3.489,20.34-8.297,40.471-15.297,60.115c-7.302,20.494-9.924,42.232-13.401,63.703
			c-4.144,25.582-7.171,51.289-10.48,76.977c-1.633,12.668,3.388,24.027-9.646,32.387c-4.144,2.656-8.788,7.877-7.413,14.691
			c-7.392,6.811-5.165,17.57-11.083,25.443c-18.062,24.023-5.091,25.297-16.218,52.461c-4.587,11.199-2.52,19.453-9.062,28.994
			c-9.681,14.119-13.694,39.057-4.57,55.496c5.12,9.223,8.949,9.223,7.524,20.119c-1.541,11.771-15.461,8.749-31.266,19.631
			c-3.393,2.336-8.779-3.576-9.781,4.105c-0.265,2.029-14.427,5.155-18.56,5.486c-8.19,0.656-10.189-3.096-10.252-10.799
			c-0.115-14.268-1.924-28.506,2.451-42.557c1.521-4.887-15.554,7.382-22.1,1.266c-4.625-2.922-4.625-2.922-4.316-9.807
			c0.362-8.077,5.021-16.016,1.129-22.926c-6.527-11.592-5.454-15.672,4.596-23.531c1.41-1.1,4.746-2.521,3.008-3.801
			c-7.837-5.766-1.609-11.713-0.508-17.172c5.182-25.688,12.856-29.715,17.932-55.42c2.787-14.121,11.153-35.447,12.076-49.787
			c1.404-21.789-2.029-36.432,0.174-58.127c2.717-26.729-1.717-53.256-4.569-79.654c1.544-30.117,1.984-48.471,15.9-84.996
			c8.397-22.041,4.215-34.151,3.581-57.285c-0.123-4.481-1.473-8.066-1.584-12.188c-0.111-4.15,0.434-8.51-0.647-12.404
			c-1.686-6.068-3.849-12.205-7.007-17.615c-4.078-6.98-11.191-0.877-16.772-2.561c-3.339-1.006-7.535-0.588-9.912-3.18
			c-9.884-10.785-22.474-10.453-35.507-9.98c-7.583,0.273-14.986-1.564-22.5-3.549c-17.508-4.623-22.16-19.688-28.438-33.055
			c-4.164-8.867,0.518-17.396,6.088-24.824c6.066-8.086,11.877-16.396,18.392-24.107c3.729-4.416,7.478-9.148,14.942-8.438
			c4.55,0.432,14.857-14.252,15.982-19.578c1.775-8.424-1.045-17.912,5.645-25.217c6.246-1.789,10.35,2.307,14.816,6.141
			C139.604,876.985,139.479,873.349,137.319,869.933z"/>
	</g>
</g>
</svg>
