<?xml version="1.0" encoding="utf-8"?>
<!-- Generator: Adobe Illustrator 16.0.0, SVG Export Plug-In . SVG Version: 6.00 Build 0)  -->
<!DOCTYPE svg PUBLIC "-//W3C//DTD SVG 1.1//EN" "http://www.w3.org/Graphics/SVG/1.1/DTD/svg11.dtd">
<svg version="1.1" xmlns="http://www.w3.org/2000/svg" xmlns:xlink="http://www.w3.org/1999/xlink" x="0px" y="0px" width="600px"
	 height="800px" viewBox="0 0 600 800" enable-background="new 0 0 600 800" xml:space="preserve">
<g id="Layer_13">
	<g>
		<path fill-rule="evenodd" clip-rule="evenodd" fill="#D14C43" d="M480.558-30.879c-2.475-8.557-0.981-17.523-2.832-26.121
			c-0.122-0.57-0.96-1.278-0.812-1.571c6.868-13.376-3.938-22.445-8.27-32.643c-6.953-16.37-11.686-33.696-13.618-50.786
			c-3.326-29.451-9.32-57.544-23.237-83.708c0,0-19.459-35.358-19.253-41.15c0.743-20.83-1.467-40.651-0.661-62.312
			c0.041-1.074,5.615-69.073,2.338-86.453c-5.257-27.869-9.326-38.308-22.395-63.391c-3.645-6.993-2.106-14.266-1.091-21.574
			c5.983-43.011,12.389-86.011,6.879-129.654c-1.259-9.975-1.594-20.485-7.552-28.896c-17.252-24.363-14.406-27.656-15.337-41.893
			c-0.569-8.664,11.219-15.168,15.359-22.339c4.406-7.628,9.272-14.951,11.123-23.812c5.259-25.18-5.314-42.918-32.383-50.061
			c-3.464-0.914-6.918-2.076-10.483-2.404c-27.002-2.484-33.571,8.423-44.72,23.8c-2.908,4.009-2.429,7.158-2.738,12.633
			c-0.224,3.947,0.728,4.707-5.106,10.707c-2.252,2.315-5.497,2.837-5.115,6.938c3.738,12.438-1.707,18.018-2.846,26.681
			c-1.413,10.732,3.406,15.008,12.247,17.318c4.959,1.298,20.919,4.231,16.739,17.877c-1.837,5.994-44.115,27.485-44.73,37.284
			l-22.605,19.151c-13.21,2.605-79.146,10.101-88.208,2.514c-1.548-1.295-4.626-0.679-6.995-0.947
			c-1.367,0.824-6.465-0.763-7.168-3.472c-1.504-5.782-6.681-1.805-5.31,2.994c1.005,3.521,0.956,7.558-1.496,9.986
			c-2.403,2.373-6.264,6.016-8.563,2.668c-4.975-7.234-8.287-0.063-13.635-5.663c-1.87-1.958-5.105-5.133-6.69-1.84
			c-2.67,5.544-2.407,12.489-1.72,18.812c0.485,4.461,2.516,7.962,6.006,8.585c7.544,1.347,15.077,2.963,22.677,3.632
			c3.026,0.266,6.846-1.098,10.714-3.319c6.575,9.574,26.844,20.289,31.402,18.367c18.396-6.859,74.071,19.369,83.421,15.523
			c7.052-2.902,9.386,17.36,9.972,25.872c2.448,35.484-0.347,70.928,0.272,106.363c0.382,21.922,2.228,43.882,7.687,65.318
			l44.92,274.076c3.137,7.484,2.503,16.399-2.9,20.977c-8.906,7.547-15.324,6.404-16.128,6.706
			c-6.164,2.322-11.532-0.623-15.276,9.009c-2.84,7.298-0.547,11.057,4.641,11.314c21.724,1.078,30.005,6.293,55.043,4.782
			c1.922-0.735,4.432-2.464,5.489-0.16c3.225,7.022,12.081,5.457,18.438,6.339c0.391,0.056,0.789,0.111,1.188,0.165
			c-6.538,4.453-13.429,8.215-21.991,8.691c-4.709,0.264-4.738,3.774-2.79,7.396c4.196,7.8,11.856,10.87,19.373,11.735
			c19.112,2.197,37.874,0.518,54.646-10.775c2.275-1.53,4.548-2.969,6.009-5.398c2.322-3.86,3.343-3.094,7.718-0.934
			c8.928,4.406,17.009-4.825,26.034-6.236C478.746-24.568,481.629-27.178,480.558-30.879z M404.275-40.166
			c-0.212-1.708-0.289-3.399,0.139-4.918c0.761-2.717,1.201-5.418,1.404-8.108c0.925,0.384,1.656,1.136,2.041,2.593
			C408.877-46.746,407.83-42.664,404.275-40.166z"/>
	</g>
</g>
<g id="Layer_23">
	<g>
		<path fill-rule="evenodd" clip-rule="evenodd" fill="#D14C43" d="M195.084,162.967c12.814,13.389,27.248,49.455,46.539,53.024
			c35.037,6.484,106.342-18.052,140.916-19.356c22.223-0.836,75.182-17.715,86.57-33.491c-9.811-3.705-61.047-17.587-71.186-19.074
			c-21.639-3.17-28.246-18.501-29.629-36.095c-0.709-9.026,1.068-18.848,4.871-27.836c3.391-8.008,8.35-15.586,9.08-24.316
			c1.395-16.621-0.852-33.284-15.551-43.277C351.086,1.934,336.408-4.99,318.953,4.467c-11.285,6.114-18.383,16.013-18.902,21.891
			c-1.008,11.422-0.082,9.569-4.59,17.764c-7.193,13.07-2.285,10.334-2.062,44.191c0.062,9.647,3.805,12.644,11.932,14.855
			c17.375,4.726,11.715,5.023,7.996,23.114c-4.111,20.015-56.26,18.644-68.691,22C227.975,152.778,210.598,154.6,195.084,162.967z"
			/>
		<path fill-rule="evenodd" clip-rule="evenodd" fill="#D14C43" d="M527.875,200.044c-1.594-3.572-13.061-20.864-20.854-21.578
			c0.01-0.001-13.383-6.694-21.268-5.384c-8.234-0.055-17.395-27.903-25.627-27.957c-4.721-3.588-7.453,25.541-11.004,29.855
			c-2.252,2.735-0.465,1.662-3.264,3.962c-3.385,5.484-4.488,3.164-10.424,7.016c-9.414,7.932-12.203,10.466-22.906,15.765
			c-0.043,0-0.082,0.021-0.121,0.056c-8.82,4.169-17.639,8.339-26.459,12.507c-10.301,2.004-17.922,9.89-27.906,12.688
			c-3.4,0.954-6.357,3.08-7.662,6.747c-2.297,2.334-4.828,5.075-8.045,5.088c-12.777,0.051-24.988,3.821-37.52,5.156
			c-10.932,1.166-17.027,6.348-16.793,17.524c0.264,12.54,2.781,25.12-1.609,37.473c-0.467,1.308-0.291,2.962-0.037,4.389
			c3.098,17.452,1.736,35.228,3.895,52.745c3.889,14.29,12.678,25.857,20.961,37.706c2.643,5.417,5.734,10.48,10.893,13.93v-0.005
			l0.002,0.003c12.945,8.022,26.264,13.616,42.258,12.684l0.006,0.002c12.811,7.86,27,7.81,37.547-0.134
			c3.102-1.068,5.039-3.563,5.576-6.434c1.449-7.801,4.355-15.214,5.17-23.219c1.422-13.944-0.84-27.593-1.881-41.375
			c-1.928-25.451,5.289-49.718,10.879-74.098c4.752-20.721,19.141-56.758,22.695-51.956c1.07,15.925,2.174,16.763,18.16,15.986
			c7.041-0.341,45.215,0.265,50.205,0.091C517.318,239.119,533.934,213.615,527.875,200.044z"/>
		<path fill-rule="evenodd" clip-rule="evenodd" fill="#D14C43" d="M256.316,732.889c-1.475-1.568-2.711-3.482-5.193-3.596
			c-7.852-8.396-20.404-10.934-26.623-21.361v-0.003l0.096-0.054c0.104-4.596-5.035-6.389-5.662-10.594l-0.002,0.004v-0.002
			c0.023-3.479,0.045-6.952,0.066-10.426c-0.992-3.207-3.496-4.002-6.277-3.251c-8.295,2.233-16.701,3.134-25.268,3.077
			c-3.49-0.025-5.338,2.053-5.447,5.58h0.002l0,0c-0.596,3.266-2.672,5.375-5.43,6.953c-3.705,9.672-5.939,19.613-5.461,30.045
			c-5.592,3.918-28.553,42.01-22.951,47.756c2.771,3.158,6.508,3.984,10.404,3.869c17.654-0.523,32.455-5.971,39.148-24.131
			c1.988-5.393,4.852-7.842,10.561-5.73h0.002c-0.002,0.001-0.002,0.001-0.002,0.001c5.295,3.864,11.371,6.54,17.602,7.59
			c7.244,1.22,15.23,3.47,21.582-3.201C248.832,753.976,259.195,730.721,256.316,732.889z"/>
		<path fill-rule="evenodd" clip-rule="evenodd" fill="#D14C43" d="M397.439,580.502c-0.152-5.838,0.045-11.7-0.451-17.508
			c-0.287-3.33-2.723-7.672-5.895-3.558c-4.764,6.179-7.053,9.571-11.951,15.308c-5.959-0.148-4.531,5.126-10.359,5.358
			c-4.561-0.354-10.021-0.507-10.285,5.292c-0.635,13.878-3.217,28.167,4.785,41.104c0,0,0,0.006,0.002,0.008
			c-1.459,9.766,4.953,18.09,5.15,27.476c0.303,14.392,0.129,28.794,0.156,43.192c-4,3.113-7.676,6.538-10.338,10.92
			c-2.348,2.797-2.98,6.279-3.869,9.666c-1.838,7.018-0.186,10.655-7.885,8.35c-3.047-0.912-6.184-1.522-9.281-2.269v-0.001
			c-6.344-6.014-7.635-0.491-9.336,4.088c-0.248,4.391-0.473,8.782-0.752,13.17c-0.285,4.5-0.48,8.941,4.316,11.529
			c-0.025,3.211,1.059,7-0.26,9.545c-8.152,15.754,14.502,25.523,14.771,25.634c12.002,8.192,17.342,8.105,27.719-0.208
			l-0.045,0.121c10.705-3.161,12.318-12.916,10.176-23.276c-4.385-21.223-6.463-42.119-0.812-64.346
			c-2.893,11.382,9.738-47.249,12.969-61.334C400.27,630.979,397.555,584.866,397.439,580.502z"/>
		<path fill-rule="evenodd" clip-rule="evenodd" fill="#FFFFFF" d="M457.189,208.924c-0.145,1.166-3.219,23.662-3.961,33.905
			c-1.318,18.167-11.51,34.688-11.062,53.412c0.043,1.825-1.338,3.878-2.449,5.626c-1.133,1.787-1.943,3.654-1.953,5.784
			c-0.084,14.705-3.387,29.33-1.721,44.036c1.26,11.104,0.949,22.238,1.688,33.286c0.809,12.073-5.969,20.789-9.766,30.938
			c-11.232,4.454-22.49,11.188-34.105,0.796c-14.607-0.538-28.277-4.136-40.572-12.302c-5.594-2.713-9.459-7.055-11.973-12.669
			c-8.24-11.459-15.646-23.328-18.211-37.532c-2.068-23.116-6.256-46.201-1.402-69.488c0.729-3.497-0.004-7.061-0.562-10.576
			c-0.795-4.987-1.045-10.01-0.062-14.999c1-5.08,3.859-8.82,9.064-9.765c11.328-2.056,45.641-7.589,50.426-11.458
			c9.703-9.671,51.838-29.79,61.129-33.278c5.295-2.969,13.037-10.689,17.027-5.41C460.201,201.188,457.492,206.49,457.189,208.924z
			 M474.451,189.96c4.396-6.411,9.266-11.299,11.889-18.256c-0.01-1.106,2.32-6.914,2.402-6.95c2.857-1.29,10.201-6.049,12.152-5.73
			c-0.576-1.15-1.156-2.303-1.73-3.455c0.852-10.574-5.34-16.045-14.193-19.584c-2.893-2.487-6.014-4.759-8.621-7.516
			c-3.371-3.566-14.496,1.87-14.758,5.831c-0.039,0.586-2.566,7.142-5.088,8.961c-1.078,0.749-5.768,17.108-5.469,24.796
			c-0.594,0.604-8.943,1.857-12.525,1.881c-1.803,0.01-66.664,22.973-72.32,24.751c-26.811,8.429-44.629,13.69-72.523,4.938
			c-9.697,1.417-24.229-13.279-36.955-23.303c-0.68-0.535-29.137-13.18-29.137-13.18c-6.869-15.575-30.01-18.469-15.596-24.632
			c6.916-2.957,12.871-2.971,8.73-15.539c-2.721-8.262-1.705-19.897-5.359-24.156c-10.609-12.37-7.359-24.243-16.287-35.394
			c-11.709-14.622-20.828-18.848-38.125-11.703c-14.02,5.789-22.004,3.634-32.623,16.725c-15.6,19.237-16.217,29.737-4.191,47.191
			c4.018,5.83,8.232,10.004,9.197,19.209c1.012,9.658,9.967,13.98,16.305,15.906c4.148,1.261,4.998,0.012,8.883,5.082
			c3.701,4.834-2.115,10.863-5.141,14.253c0,0-5.756,37.415,8.389,47.612c14.305,11.135,12.982,17.294,19.617,33.595
			c4.781,4.562,8.738,9.627,9.992,16.333c4.492,6.98,11.543,11.605,16.625,18.044c4.402,2.204,4.096,6.264,4.068,10.202
			c0.223,4.582,2.098,8.537,5.098,11.882c4.861,5.419,9.496,11.007,13.762,16.892c2.064,2.945,6.643,5.029,3.705,9.839
			c0.342,2.839,0.018,5.49-2.164,7.612c-7.555,16.381-9.992,66.79-22.062,79.866c-10.383,9.111-17.973,20.814-28.369,30.03
			c-5.16,4.576-1.066,9.619,3.426,13.309c8.615,7.068,10.717,14.601,6.92,24.815c-2.08,5.592-36.955,13.479-42.6,14.768
			c-8.232,1.882-20.023,5.917-19.826,5.78c-7.119-0.431-18.158,24.792-18.158,24.792s-5.467,61.209-3.166,63.655
			c6.479,6.883,5.719,13.051,0.264,20.329c-6.008,8.016-22.062,18.595-22.064,18.599c-2.309,0.435-4.723,0.57-6.904,1.352
			c-16.742,6.002-6.256,47.093-1.107,45.863c5.643-1.345,8.455,0.729,8.518,6.604c0.061,5.785,2.238,10.895,5.357,15.658v-0.004
			v0.004c1.711,3.396,3.229,6.91,5.166,10.173c13.461,22.657,24.293,18.508,49.594,23.869c9.467,2.007,13.02,22.491,10.602,31.778
			c4.576,2.217,7.018-1.129,9.736-3.759c7.176-9.313,18.615,0.128,19.996,2.266c11.396,44.073,32.711,26.099,61.346,14.573
			c1.129,1.729,3.229-0.543,3.475,1.18c0.691,4.854,0.006,8.8,2.76,8.726c5.645-0.151,7.607-4.604,5.643-10.448
			c-1.707-5.079,1.369-6.316,5.721-5.461c2.852,0.561,5.643,1.445,8.459,2.186c3.615,2.304,7.23,4.607,10.846,6.912v-0.002l0,0
			c2.93,1.623,4.76,5.097,8.629,5.141c2.553,2.049,5.209,3.876,8.678,3.857c11.168-0.062,22.342,0.049,33.502-0.287
			c4.725-0.143,9.268-1.637,12.93-4.971c2.92-0.733,5.85-1.676,5.57-5.435c-0.262-3.553-2.551-5.903-5.922-6.642
			c-4.504-0.988-9.109-1.52-13.672-2.246c-0.389-0.333-0.793-0.479-1.213-0.465c-11.104-4.308,9.918-40.875,14.264-46.113
			c2.814-3.394,21.693-11.938,27.479-8.157v0.001c0.549,1.245,1.094,2.49,1.643,3.736c3.141-0.277,6.26-1.648,9.424-0.205
			c20.6,3.591,20.6,3.591,28.062-15.893c0.209-0.551,10.893-9.297,12.689-15.902c0.67-3.773,0.455-7.605,0.678-11.412
			c1.133-19.451-0.697-38.602-5.637-57.467c-4.807-9.082-7.969-18.312-6.961-29.018c0.604-6.41,2.264-10.703,8.592-12.532
			c5.873-1.562,18.338-8.646,19.041-9.624c3.049-4.254,7.939-7.491,12.354-6.823c4.055,0.613,9.131-12.855,9.338-27.442
			c0.143-10.232,6.324-30.418,6.709-30.78c2.996-17.428,6.178-34.679,5.883-52.645c-0.76-46.412,0.76-92.874-4.062-139.167
			c2.412-2.352,4.828-4.705,7.24-7.057c4.359-1.683,6.867-4.897,7.803-9.416c1.373-6.949-4.301-11.453-6.031-17.331
			c0.855-10.884-4.939-20.612-5.379-31.326c-0.248-6.013,1.23-21.074-1.393-30.848c-1.287-5.308-7.746-8.929-6.691-14.854
			C470.398,203.543,471.783,193.851,474.451,189.96z"/>
		<path fill-rule="evenodd" clip-rule="evenodd" fill="#D14C43" d="M169.037,274.529c2.064,27.553,7.701,33.115,32.277,31.845
			c-0.002-0.001-0.004-0.002-0.004-0.002l0.004,0.001c2.223,0.712,4.443,1.424,6.668,2.136c10.213,4.54,17.396,13.106,26.105,19.647
			c5.301,3.138,16.148,2.707,9.229-5.494c-6.137-9.324-16.145-16.243-17.652-28.438c-2.854-3.688,3.43-11.183-5.193-12.466
			c-6.008-4.66-11.273-10.059-15.994-16.004c-2.117-6.278-5.654-11.641-10.459-16.181c-0.002-0.001-0.002-0.001-0.002-0.001
			c-5.521-17.874-9.666-37.258-25.42-48.225c-1.607-2.916-4.393-3.111-7.252-3.136c-6.596,10.655-13.125,25.487-7.99,37.315
			C160.145,250.329,164.002,252.85,169.037,274.529z"/>
		<path fill-rule="evenodd" clip-rule="evenodd" fill="#FFFFFF" d="M198.582,486.725c-0.148,1.232-0.414,2.229-1.123,2.639
			C197.805,488.473,198.219,487.609,198.582,486.725c0.139-1.148,0.174-2.5,0.365-3.779c8.453-57.135,19.318-113.816,34.307-169.586
			c3.805-14.16,6.219-28.914,12.77-42.324c2.621-6.908-1.037-12.564-4.662-17.379c-7.018-9.318-7.65-23.199-20.252-28.475
			c-0.42,1.74-0.469,3.686-1.311,5.189c-22.928,41.133-8.369,88.643-31.197,129.801c-8.668,15.629-34.682,28.18-29.168,47.125
			c2.008,6.898,1.039,12.971-3.779,18.715c-16.062,19.156-10.562,43.652-28.191,61.471c-5.178,5.236-3.482,7.193,1.334,11.223
			c6.25,5.229,13.912,11.135,16.178,18.271c4.701,14.816-3.918,24.367-4.551,40.02C139.889,570.322,207.764,464.496,198.582,486.725
			z"/>
	</g>
</g>
<g id="Layer_19_copy">
	<g>
		<path fill-rule="evenodd" clip-rule="evenodd" fill="#D14C43" d="M137.319,869.933c-0.424-2.467-0.895-4.926-1.26-7.402
			c-0.566-3.84,0.189-6.445,4.957-5.029c10.236,18.127,17.34,36.66,7.283,57.375c-1.406,5.496-2.885,10.461-8.664,13.752
			c-3.791,2.162-5.934,7.098-9.115,10.512c-1.486,1.596-2.492,2.924-1.08,4.834c1.381,1.867,2.982,0.309,4.205-0.262
			c11.732-5.48,24.133-7.008,36.898-6.539c4.141,0.475,8.268,1.191,12.418,1.371c7.555,0.324,12.59-3.586,15.789-10.18
			c9.668-3.887,17.201-7.963,20.502-20.359c2.545-9.555-0.152-15.764-3.016-23.27c-5.121-13.43-10.088-26.98-10.635-41.516
			c-0.777-20.666,2.219-26.941,20.111-35.826c11.113-5.52,23.844-8.508,36.994-7.008c5.285,0.604,10.088,3.32,12.109,6.75
			c5.76,9.771,12.867,20.137,14.105,30.881c2.238,19.4,5.805,39.361-0.723,58.896c-0.777,2.322-1.832,4.703-4.107,4.816
			c-15.471,0.771-6.17,12.342-7.619,18.617c-1.746,7.539,6.215,9.52,11.441,11.285c14.834,5.01,24.352,11.178,42.271,11.418
			c12.381,0.166,53.469,16.1,64.801,19.723c52.535,7.733,71.379,32.266,79.176,44.246c5.135,12.291,8.201,22.609-2.053,31.561
			c-0.467,0.406-22.295,11.057-35.734,9.021c1.523-4.684,4.061-7.951,6.986-11.689c3.262-4.172,8.223-7.861,1.459-10.107
			c-5.453-1.811-94.697-1.219-105.584-1.434c-6.541-0.129-9.668,2.922-10.318,8.734c-1.533,13.668-4.248,27.238-5.609,40.812
			c-1.801,17.906-5.148,35.508-8.172,53.121c-3.488,20.34-8.297,40.471-15.297,60.115c-7.301,20.494-9.924,42.232-13.4,63.703
			c-4.145,25.582-7.172,51.289-10.48,76.977c-1.633,12.668,3.387,24.027-9.646,32.387c-4.143,2.656-8.787,7.877-7.412,14.691
			c-7.393,6.811-5.166,17.57-11.084,25.443c-18.061,24.023-5.09,25.297-16.217,52.461c-4.588,11.199-2.52,19.453-9.062,28.994
			c-9.68,14.119-13.693,39.057-4.57,55.496c5.121,9.223,8.949,9.223,7.525,20.119c-1.541,11.771-15.461,8.749-31.266,19.631
			c-3.393,2.336-8.779-3.576-9.781,4.105c-0.266,2.029-14.428,5.155-18.561,5.486c-8.189,0.656-10.189-3.096-10.252-10.799
			c-0.115-14.268-1.924-28.506,2.451-42.557c1.521-4.887-15.553,7.382-22.1,1.266c-4.625-2.922-4.625-2.922-4.316-9.807
			c0.363-8.077,5.021-16.016,1.129-22.926c-6.527-11.592-5.453-15.672,4.596-23.531c1.41-1.1,4.746-2.521,3.008-3.801
			c-7.836-5.766-1.609-11.713-0.508-17.172c5.182-25.688,12.857-29.715,17.932-55.42c2.787-14.121,11.154-35.447,12.076-49.787
			c1.404-21.789-2.029-36.432,0.174-58.127c2.717-26.729-1.717-53.256-4.568-79.654c1.543-30.117,1.984-48.471,15.9-84.996
			c8.396-22.041,4.215-34.151,3.58-57.285c-0.123-4.481-1.473-8.066-1.584-12.188c-0.111-4.15,0.434-8.51-0.646-12.404
			c-1.686-6.068-3.85-12.205-7.008-17.615c-4.078-6.98-11.191-0.877-16.771-2.561c-3.34-1.006-7.535-0.588-9.912-3.18
			c-9.885-10.785-22.475-10.453-35.508-9.98c-7.582,0.273-14.986-1.564-22.5-3.549c-17.508-4.623-22.16-19.688-28.438-33.055
			c-4.164-8.867,0.518-17.396,6.088-24.824c6.066-8.086,11.877-16.396,18.393-24.107c3.729-4.416,7.477-9.148,14.941-8.438
			c4.551,0.432,14.857-14.252,15.982-19.578c1.775-8.424-1.045-17.912,5.645-25.217c6.246-1.789,10.35,2.307,14.816,6.141
			C139.603,876.985,139.478,873.349,137.319,869.933z"/>
	</g>
</g>
</svg>
