<?xml version="1.0" encoding="utf-8"?>
<!-- Generator: Adobe Illustrator 16.0.0, SVG Export Plug-In . SVG Version: 6.00 Build 0)  -->
<!DOCTYPE svg PUBLIC "-//W3C//DTD SVG 1.1//EN" "http://www.w3.org/Graphics/SVG/1.1/DTD/svg11.dtd">
<svg version="1.1" xmlns="http://www.w3.org/2000/svg" xmlns:xlink="http://www.w3.org/1999/xlink" x="0px" y="0px" width="600px"
	 height="800px" viewBox="0 0 600 800" enable-background="new 0 0 600 800" xml:space="preserve">
<g id="Layer_18_copy">
	<g>
		<path fill-rule="evenodd" clip-rule="evenodd" fill="#FFFFFF" d="M200.616,131.767c-9.629,3.45-19.709,4.108-29.672,5.319
			c-9.238,1.125-18.621-0.695-27.873,1.6c-3.002,0.744-6.525,0.125-4.148-5.086c3.533-0.44,6.162-2.579,8.521-5.221
			c3.973-6.541,4.48-14.328,6.732-21.489C168.614,117.423,182.751,128.6,200.616,131.767z"/>
		<path fill-rule="evenodd" clip-rule="evenodd" fill="#FFFFFF" d="M316.253,454.625c-0.592-1.887-1.842-3.766-3.238-5.1
			c-6.918-6.609-10.402-14.283-8.123-24.49c0.541-2.417,0.389-6.244-1.01-7.729c-10.736-11.413-4.48-27.492-10.203-40.5
			c-5.791-13.155-4.799-28.255-3.066-42.164c2.412-19.371,22.643-38.837,24.588-58.189c0.678,2.481,0.979,4.978,1.098,7.483
			c0.084,3.372-0.059,6.754-0.135,10.131c-0.1,3.079-0.139,6.154,0.211,9.213c-0.285-3.062-0.277-6.136-0.211-9.213
			c0.113-3.379,0.293-6.762,0.135-10.131c-0.076-3.021-0.34-6.039-1.012-9.039c0.744-10.009,0.865-20.132,4-29.745
			c4.305-13.19,1.166-45.419,13.551-40.688c8.828,3.372,27.414,5.923,35.865,10.146c8.17,4.081,16.488,4.43,25.053,4.433
			c25.762,0.008,51.221-7.267,76.045-15.131c10.166,0.05,20.414,3.074,30.061,8.795c9.449,5.602,13.154,11.687,11.52,21.105
			c-1.258,7.243-7.439,11.271-18.193,11.854c-3.846-0.703-18.229,1.855-24.287,1.786c-10.908-0.124-11.277,0.201-9.266,12.06
			c1.143,6.727,2.496,13.406,1.816,20.31c-1.293,3.672-0.391,7.484-0.51,11.226c-0.021,0.63-1.475,2.688,0.977,2.439
			c1.525,14.423-6.1,57.993-4.977,72.452c2.213,28.548-8.289,54.978,7.586,78.416c11.768,17.377,1.072,36.85,17.947,49.77
			c4.621,3.536,2.932,8.832,1.625,13.093c-3.361,10.982-4.918,21.741-0.385,32.772c1.141,2.777,0.025,4.997-2.115,7.008
			c-2.469,2.322,4.227,4.707,2.752,7.726c-7.939,16.255,20.463,56.301,32.555,65.383c18.16,13.645,9.354,81.13,29.059,91.709
			c7.271,3.906-1.709,6.14-7.508,12.255c-8.602,9.069-10.496,13.534-20.588,20.134c-1.172,0.767-2.516,1.224-3.709,1.953
			c-13.818,8.427-30.791,37.294-38.166,10.604c-0.154-0.568-0.363-1.123-0.588-1.664c-6.205-14.951-15.551,14.241-30.375,17.402
			c-12.66,2.697-13.809-29.592-22.689-19.748c-3.557,3.943-8.717,5.028-12.812,8.031l-32.643-15.069
			c-0.885,6.676-3.916,12.988-2.701,20.034c0.543,3.153,0.166,6.42-3.883,5.975c-3.434-0.38-3.352-3.211-2.654-6.103
			c0.316-1.32,0.945-2.849-1.113-4.064c-3.025,2.353-2.551,6.149-2.859,9.437c-0.578,6.148-3.625,9.654-9.109,11.014
			c-7.904,1.958-15.936,2.055-23.898,1.154c-6.6-0.746-6.096-5.744-4.047-10.576c3.982-9.4,8.254-18.66,12.33-28.018
			c1.053-2.408,2.068-4.891,2.672-7.456c0.863-3.665,4.408-7.827-0.777-10.889c-5.457-3.225-5.797,2.943-7.369,5.484
			c-2.398,3.88-5.82,4.556-9.268,4.711c-22.805,1.032-45.727,3.29-67.82-5.724c-1.734-0.708-3.781-0.537-5.682-0.776
			c2.064-9.109,8.172-15.952,11.803-24.236c11.816-26.937,20.916-54.684,24.947-84.264c0.826-6.053-20.473-86.442-17.336-93.673
			C278.714,507.912,316.253,454.625,316.253,454.625z M403.921,439.675c-13.35-3.433-15.061-123.851-10.521-139.356l26.9-32.646
			c10.455,0.78,18.109-4.191,26.432-9.236c-0.25,11-3.789,29.862-5.992,40.432c-1.365,6.547-15.854,124.277-22.254,124.168
			C407.577,422.849,414.487,442.392,403.921,439.675z"/>
		<path fill-rule="evenodd" clip-rule="evenodd" fill="#FFFFFF" d="M436.267,559.882c4.689-14.947-0.201-26.847,9.227-39.207
			c4.541-5.953,13.748-8.926,21.396-11.737c5.893-2.167,8.15-3.437,5.043-10.113c-10.578-22.724,2.867-43.925-5.785-67.379
			c-2.596-7.034-1.459-13.077,2.76-18.893c11.586-15.972-8.664-36.567-11.547-54.205c-7.594-46.448,22.148-86.255,14.453-132.713
			c-0.285-1.699,0.324-3.547,0.518-5.327c-13.643,0.712-8.924,13.564-18.676,19.967c-5.037,3.309-10.391,7.397-10.256,14.785
			c1.641,14.834-1.068,29.537-2.268,44.15c-4.717,57.555-23.625,114.577-34.955,171.212c-0.252,1.269-0.674,2.553-0.932,3.681
			c0.043,0.955,0.141,1.908,0.166,2.863c-0.529-0.626-0.443-1.653-0.166-2.863C404.106,450.079,432.272,572.606,436.267,559.882z"/>
		<path fill-rule="evenodd" clip-rule="evenodd" fill="#D14C43" d="M415.403,274.398c2.625-7.795,1.533-4.226,5.748-13.306
			c-1.162-2.499,3.492-3.503,5.518-3.485c12.713,0.116,31.43-11.801,44.133-11.398c5.303,0.169,3.139-1.521,1.809,3.578
			c-1.119,4.304,1.67,10.719-7.496,13.246C461.521,264.023,417.728,278.542,415.403,274.398z"/>
		<path fill-rule="evenodd" clip-rule="evenodd" fill="#D14C43" d="M218.261,759.148c-1.1,7.221-4.148,14.08-3.387,21.666
			c0.627,6.242-1.973,9.453-7.875,11.227c-8.096,2.434-1.086,4.031-9.367,5.219c-11.137,2.77-22.273,4.435-33.412,0.017
			c-7.863-2.795-7.406-9.661-6.016-16.032c2.074-9.497,11.553-183.845,10.807-192.29c-7.061-80.073-1.25-42.523-3.928-89.396
			c-3.576-62.6-3.891-101.556,6.184-132.807c4.074-12.639,7.852-25.253,7.111-38.983c-0.652-12.034,4.562-23.112,5.783-34.912
			c2.586-25.009-5.312-49.019-15.014-71.951c-2.617-6.189-6.916-10.802-13.092-12.83c-7.293-2.394-11.469-7.796-13.73-15.283
			c-24.873-10.021-50.566-17.909-73.717-32.427c-2.121-1.329-4.102-2.972-5.992-4.67c-12.574-11.302-17.412-16.434,0.109-29.464
			c18.754-13.944,38.789-18.807,61.041-14.786c3.229,0.582,6.549,0.575,9.783,0.838c1.225-3.934-2.301-5.385-2.721-8.23
			c-0.711-4.831-0.08-9.205,1.582-13.849c1.814-5.083,9.641,0.165,9.162-6.36c-0.379-5.193-1.684-9.572,5.398-9.494
			c1.178,0.013,3.035-1.92,3.676-0.59c4.635,9.603,17.766,12.736,17.275,26.259c-0.08,2.267,0.924,4.579,1.428,6.871
			c2.609,8.373,1.67,16.124-3.504,23.134c-0.902,1.116-3.098,0.493-3.082,2.71c17.779,1.087,26.836-1.904,44.49-0.967
			c14.082-4.026,14.09-16.419,20.395-28.658c3.787-7.349,0.088-15.038-2.238-22.194c-3.334-10.262-7.75-19.973-8.82-31.156
			c-3.324-34.75,27.188-54.411,51.744-48.813c27.1,6.176,33.434,18.083,40.201,43.151c0.291,1.08,0.283,2.521,0.076,3.414
			c-2.143,9.226-2.672,11.191,1.27,16.411c2.947,3.903,1.961,6.723-0.883,10.625c-2.152,2.955-1.891,3.845-1.908,6.382
			c-0.049,6.526-0.305,12.125,0.084,18.625c0.438,7.299-3.328,9.334-9.051,9.434c-2.764,0.047-5.543-0.348-8.289-0.15
			c-3.797,0.274-9.457,0.962-9.811,5.352c-0.393,4.883-4.043,11.697,3.02,15.438c1.926,1.019,2.498,3.525,1.887,5.469
			c-2.309,7.349,2.281,10.838,6.668,14.44c4.365,3.583,9.113,4.802,13.225,8.681c7.57,7.145,16.977,2.171,25.223,4.973
			c12.688,4.311,27.092-5.445,38.623,2.816c7.434,5.325,72.566,41.117,78.92,42.679c7.697,1.89,15.709,2.896,22.211,8.433
			c0.24,6.179-4.707,5.832-8.035,6.847c-17.648,5.38-35.869,6.386-54.041,8.113c-21.924,2.085-43.082,12.133-63,3.356
			c-22.037-0.259-21.732,5.039-23.348,22.246c-0.58,6.162-2.135,19.124-1.166,25.41c0.123,0.999,0.033,1.98-0.205,2.949
			c-1.676,3.688-3.896,7.112-3.713,11.578c0.85,20.797-8.971,41.453-8.537,62.259c0.199,9.601-8.172,18.859-5.412,28.022
			c2.115,7.025,2.35,14.752,4.166,21.646c3.195,12.114,6.281,24.005,8.023,36.559c1.027,7.407-7.115,96.116-9.67,127.233
			c-2.502,23.879-3.703,43.896-8.963,65.572c-3.551,14.639-5.549,29.366-6.523,44.239c-0.365,5.561-4.736,37.123,0.475,43.668
			c2.367,2.971,10.285,7.2,13.027,14.611c4.92,13.297,4.736,15.448,4.674,29.817c-0.021,4.917,1.369,12.24-7.029,13.839
			c-1.393,0.347-2.193-0.675-4.051-0.159c-9.182-7.203-19.988-8.149-26.85-18.425c-3.555-4.08-6.607-13.144-23.01-12.834
			c-19.557,0.369-24.504-9.863-22.25-28.539c1.889-15.637,5.914-31.496,1.721-47.072L218.261,759.148z"/>
		<path fill-rule="evenodd" clip-rule="evenodd" fill="#FFFFFF" d="M333.454,164.517c14.344-4.172,7.836-6.065,16.455-7.319
			c13.258-1.932,7.066,0.861,18.209-2.5c13.775-4.156,11.615-4.247,15.109-13.343c5.361-13.97,4.607-13.104-5.566-23.128
			c-2.492-2.453-5.047-4.841-7.627-7.195c-3.551-3.245-2.646-6.411-2.125-10.789c1.064-8.959,9.186-16.668,6.217-26.846
			c-0.629-2.161,0.775-3.832,2.342-3.82c5.545,0.049,8.096-3.475,12.951-6.776c3.715-2.526,2.418-6.521,5.354-8.728
			c7.756-7.995,16.59-15.074,27.826-16.274c23.781-0.779,44.279,8.981,50.354,32.8c2.121,8.309,1.164,16.669-1.912,24.547
			c-2.428,6.216-5.535,10.24-3.975,19.062c-1.076,6.877-6.826,19.891-28.637,27.197c-2.686,10.866-0.014,19.861,6.875,28.09
			c4.83,5.772,8.502,22.337,18.771,24.633c7.736,1.729,16.674,12.31,24.984,14.283c3.023,5.392-3.406,6.735-5.91,9.152
			c-13.27,12.818-28.064-3.565-55.297-12.521c-26.938-5.222-48.697-36.659-70.43-35.415L333.454,164.517z"/>
	</g>
</g>
</svg>
