<?xml version="1.0" encoding="utf-8"?>
<!-- Generator: Adobe Illustrator 16.0.0, SVG Export Plug-In . SVG Version: 6.00 Build 0)  -->
<!DOCTYPE svg PUBLIC "-//W3C//DTD SVG 1.1//EN" "http://www.w3.org/Graphics/SVG/1.1/DTD/svg11.dtd">
<svg version="1.1" xmlns="http://www.w3.org/2000/svg" xmlns:xlink="http://www.w3.org/1999/xlink" x="0px" y="0px" width="600px"
	 height="800px" viewBox="0 0 600 800" enable-background="new 0 0 600 800" xml:space="preserve">
<g id="Layer_0-0">
	<g>
		<path display="none" fill-rule="evenodd" clip-rule="evenodd" fill="#FFFFFF" d="M517.871,81.203
			c-8.167-0.939-17.316,0.332-18.214-15.666c-6.018,14.595-11.494,24.92-11.159,36.557c0.213,7.443-2.031,12.912-7.195,17.627
			c-16.281,14.848-32.319,30.049-53.551,37.908c-12.936,4.884-22.158,17.85-36.307,19.076c-23.318,2.02-46.286,8.977-70.22,4.381
			c-9.913-1.904-20.13-3.813-30.464-3.211c-15.569,0.906-28.918-3.098-38.622-16.463c-3.641-5.017-9.55-7.914-14.463-11.729
			c-6.687-15.161-4.86-19.779,9.17-25.779c6.731-2.879,17.937-2.893,13.907-15.125c-2.649-8.043,0.461-20.864-4.314-23.514
			c-14.397-7.992-15.28-23.6-23.97-34.452c-11.397-14.233-20.271-18.346-37.108-11.394c-13.646,5.637-27.435,10.021-38.966,21.691
			c-19.412,19.65-21.402,24.775-4.081,45.936c4.366,5.332,9.333,9.957,7.148,18.697c-1.62,6.477,12.422,19.911,16.772,17.289
			c3.615-2.181,5.766-5.4,9.547-0.463c3.603,4.703,1.547,8.769-1.397,12.068c-5.466,6.123-11.911,10.105-20.998,9.256
			c-36.302-3.387-71.357,10.792-107.792,7.944c-7.373-0.579-14.83,4.72-16.425,13.375c-1.775,9.626,5.687,13.523,12.73,16.485
			c15.303,6.434,31.371,10.266,47.843,12.357c2.54-5.17,6.104-7.703,12.44-7.968c17.829-0.741,33.676,2.087,45.564,17.265
			c9.189,11.729,20.827,18.529,36.83,18.477c12.592-0.04,18.996,8.256,20.791,21.984c0.492,3.766,2.883,6.48,5.102,9.274
			c4.203,5.294,7.666,11.019,10.121,17.317c1.508,3.871,2.587,8.209-0.764,11.321c-4.015,3.731-7.422-0.59-10.794-2.171
			c-8.729-4.096-13.229-13.371-21.444-18.04c-4.757-2.702-9.871-9.199-15.3-0.687c-0.099,3.628,0.63,7.217,2.12,10.438
			c7.544,16.296,5.676,31.625-2.095,47.631c-10.113,20.826-13.633,43.438-13.365,66.577c0.085,7.278-0.832,14.177-4.954,20.524
			c-13.782,21.223-24.055,43.975-28.934,67.523c0.084,1.238,0.008,2.267-0.613,2.801c0.176-0.938,0.42-1.864,0.613-2.801
			c-0.077-1.154-0.294-2.488-0.347-3.783c-2.338-57.707-2.226-115.418,2.109-173.005c1.101-14.622,0.721-29.567,4.659-43.964
			c1.29-7.276-3.359-12.151-7.818-16.204c-8.632-7.848-11.837-21.37-25.204-24.204c-0.086,1.787,0.226,3.708-0.319,5.344
			c-14.788,44.458-29.776,88.85-44.469,133.34c-5.604,16.971-10.823,34.146-1.875,51.734c3.258,6.4,3.437,12.549-0.226,19.088
			c-12.214,21.816-22.248,44.856-36.247,65.65c-4.111,6.109-2.081,7.717,3.4,10.775c7.115,3.975,15.744,8.35,19.299,14.938
			c7.38,13.683,20.693,24.672,22.99,40.168c1.956,13.195,15.916,26.601-0.155,40.807c6.012,1.676,10.169,3.324,14.473,3.933
			c8.043,1.144,8.88,5.263,4.524,10.825c-11.757,15.002-8.657,29.852-0.542,45.027c3.158,5.912,5.469,11.795,2.764,19.102
			c-9.848,26.59-13.312,54.525-17.09,82.455c-1.191,8.821,2.096,10.893,9.073,12.703c8.143,2.115,15.873-5.285,21.615-3.545
			c18.215,5.52,36.777,5.492,55.237,7.553c17.646,1.967,35.209,4.671,52.79,7.18c23.664,3.375,26.91-9.6,50.354-9.536
			c16.839,0.044,24.637-5.376,41.527-5.793c11.689-0.292,16.058-12.786,27.011-12.731c0.568,0.004,1.748-3.102,1.634-4.686
			c-0.748-10.254,6.265-11.189,13.786-12.391c7.371-1.178,15.052,1.365,22.215-3.15c12.263-7.729,16.455-13.535,19.179,1.469
			c0.437,2.391-0.687,5.742,3.877,5.682c3.235-4.029-1.263-10.217,5.571-11.957c7.125-1.812,10.886,4.95,15.809,8.52
			c0.717,0.52,1.371,1.178,1.911,1.882c13.466,17.6,30.783,17.325,49.203,13.649c3.28-0.652,4.864,1.607,5.1-2.68
			c0.263-4.709-3.396-6.785-6.614-7.966c-13.363-4.916-28.039-11.692-32.146-24.563c-4.781-14.99-13.601-26.219-15.23-42.388
			c-2.016-19.979-5.223-39.836-7.915-59.747c-0.231-10.691-3.191-21.068-3.74-31.719c-3.978-13.185-6.826-26.74-12.282-39.441
			c-3.624-8.438-2.705-14.408,6.918-17.697c9.181-3.137,12.946-10.193,12.811-19.689c-0.3-21.31,4.756-42.457,2.005-63.848
			c0.236-15.209-0.972-30.605,0.96-45.596c8-62.041,44.712-123.886,45.121-186.666c0.043-6.531,0.328-13.595,7.935-16.874
			c-2.354-21.511-1.278-41.86,16.869-57.54c7.43-6.42,14.153-13.701,20.883-20.895c3.714-3.966,6.214-7.457,3.317-14.09
			c-3.386-7.746,0.818-15.256,8.064-19.167c5.889-3.179,9.854-7.403,12.768-13.073C527.844,81.539,522.517,81.735,517.871,81.203z
			 M381.048,290.197c-13.349,15.681-26.835,31.2-41.429,45.728c-6.344,6.315-12.952,12.405-20.986,16.573
			c-15.166,7.863-21.143,4.928-24.339-11.739c-7.53-39.271-2.835-77.14,12.187-114.089c2.157-5.309,5.301-5.049,9.146-5.381
			c27.612-2.391,55.193-5.453,82.857-6.793c12.459-0.604,22.367-4.24,31.26-12.624c8.408-7.927,17.389-15.248,27.482-21.824
			C450.23,194.492,386.351,283.967,381.048,290.197z"/>
		<path fill-rule="evenodd" clip-rule="evenodd" fill="#FFFFFF" d="M517.871,81.203c-8.167-0.939-17.316,0.332-18.214-15.666
			c-6.018,14.595-11.494,24.92-11.159,36.557c0.213,7.443-2.031,12.912-7.195,17.627c-16.281,14.848-32.319,30.049-53.551,37.908
			c-12.936,4.884-22.158,17.85-36.307,19.076c-23.318,2.02-46.286,8.977-70.22,4.381c-9.913-1.904-20.13-3.813-30.464-3.211
			c-15.569,0.906-28.918-3.098-38.622-16.463c-3.641-5.017-9.55-7.914-14.463-11.729c-6.687-15.161-4.86-19.779,9.17-25.779
			c6.731-2.879,17.937-2.893,13.907-15.125c-2.649-8.043,0.461-20.864-4.314-23.514c-14.397-7.992-15.28-23.6-23.97-34.452
			c-11.397-14.233-20.271-18.346-37.108-11.394c-13.646,5.637-27.435,10.021-38.966,21.691
			c-19.412,19.65-21.402,24.775-4.081,45.936c4.366,5.332,9.333,9.957,7.148,18.697c-1.62,6.477,12.422,19.911,16.772,17.289
			c3.615-2.181,5.766-5.4,9.547-0.463c3.603,4.703,1.547,8.769-1.397,12.068c-5.466,6.123-11.911,10.105-20.998,9.256
			c-36.302-3.387-71.357,10.792-107.792,7.944c-7.373-0.579-14.83,4.72-16.425,13.375c-1.775,9.626,5.687,13.523,12.73,16.485
			c15.303,6.434,31.371,10.266,47.843,12.357c2.54-5.17,6.104-7.703,12.44-7.968c17.829-0.741,33.676,2.087,45.564,17.265
			c9.189,11.729,20.827,18.529,36.83,18.477c12.592-0.04,18.996,8.256,20.791,21.984c0.492,3.766,2.883,6.48,5.102,9.274
			c4.203,5.294,7.666,11.019,10.121,17.317c1.508,3.871,2.587,8.209-0.764,11.321c-4.015,3.731-7.422-0.59-10.794-2.171
			c-8.729-4.096-13.229-13.371-21.444-18.04c-4.757-2.702-9.871-9.199-15.3-0.687c-0.099,3.628,0.63,7.217,2.12,10.438
			c7.544,16.296,5.676,31.625-2.095,47.631c-10.113,20.826-13.633,43.438-13.365,66.577c0.085,7.278-0.832,14.177-4.954,20.524
			c-13.782,21.223-24.055,43.975-28.934,67.523c0.084,1.238,0.008,2.267-0.613,2.801c0.176-0.938,0.42-1.864,0.613-2.801
			c-0.077-1.154-0.294-2.488-0.347-3.783c-2.338-57.707-2.226-115.418,2.109-173.005c1.101-14.622,0.721-29.567,4.659-43.964
			c1.29-7.276-3.359-12.151-7.818-16.204c-8.632-7.848-11.837-21.37-25.204-24.204c-0.086,1.787,0.226,3.708-0.319,5.344
			c-14.788,44.458-29.776,88.85-44.469,133.34c-5.604,16.971-10.823,34.146-1.875,51.734c3.258,6.4,3.437,12.549-0.226,19.088
			c-12.214,21.816-22.248,44.856-36.247,65.65c-4.111,6.109-2.081,7.717,3.4,10.775c7.115,3.975,15.744,8.35,19.299,14.938
			c7.38,13.683,20.693,24.672,22.99,40.168c1.956,13.195,15.916,26.601-0.155,40.807c6.012,1.676,10.169,3.324,14.473,3.933
			c7.209,1.024,8.409,4.291,5.632,9.1c-20.912,41.163-33.485,115.624,40.021,128.883c-3.874-0.702-24.917-10.511-33.444-29.703
			c-9.186-20.739,32.668-16.272,45.587-9.212c12.918,7.066-3.184,44.583,13.147,58.241c8.901,7.446,27.242,13.642,76.937,7.122
			c-115.934-6.029-65.32-56.42-38.525-47.162c7.29,2.518,12.684,0.883,15.902-5.342c9.305-17.98-14.735-34.63-17.452-35.1
			c0,0,14.476,18.584,2.41,23.371c-0.007,0.004-0.02,0-0.028,0c-55.861,8.174-34.082-55.762-11.484-45.977
			c7.494,3.244-1.808,19.449-4.047,26.594c41.16-66.111-3.072-105.394-44.755-109.251c13.292,4.58,63.16,35.154,36.602,49.457
			c-56.317,30.322-59.145-78.144-33.874-93.117c9.944-5.892,24.027,29.759,30.515,34.706c-3.549-15.607,0.545-33.148,1.464-32.643
			c0.028,0.258-1.794,24.545,11.139,34.252c-10.953-48.74,18.732-90.672,5.683-145.138c16.374,28.397,8.005,90.734,3.732,110.575
			c0,0,2.284-1.594,7.177,0.594c-6.542,1.568-6.516,4.776-7.177,6.927c-0.144,0.423-4.634,30.121-10.047,43.572
			c10.475-14.89,13.61-17.201,33.328-15.938c-28.465,5.67-29.456,44.785,7.607,31.793c-4.852,15.144-8.75,35.939-14.239,52.475
			c-9.974,30.055,7.023,38.168,13.493,39.761c67.002,16.483,42.741-34.062,33.731-33.911c-5.303,0.087-8.649,4.182-10.506,10.207
			c6.849-5.611,14.937-3.781,9.072,5.561c-7.544,12.021-39.674-6.907-21.388-28.342c9.338-10.945,55.378-2.43,54.773,25.293
			c-0.46,20.203-3.301,35.861-29.796,84.775c35.507-33.006,127.628-27.891,127.999-27.252c2.257,0.237,3.709,2.83,4.886,9.311
			c0.437,2.391-0.687,5.742,3.877,5.682c3.235-4.029-1.263-10.217,5.571-11.957c7.125-1.812,10.886,4.95,15.809,8.52
			c0.717,0.52,1.371,1.178,1.911,1.882c13.466,17.6,30.783,17.325,49.203,13.649c3.28-0.652,4.864,1.607,5.1-2.68
			c0.263-4.709-3.396-6.785-6.614-7.966c-13.363-4.916-28.039-11.692-32.146-24.563c-4.781-14.99-13.601-26.219-15.23-42.388
			c-2.016-19.979-5.223-39.836-7.915-59.747c-0.231-10.691-3.191-21.068-3.74-31.719c-3.978-13.185-6.826-26.74-12.282-39.441
			c-3.624-8.438-2.705-14.408,6.918-17.697c9.181-3.137,12.946-10.193,12.811-19.689c-0.3-21.31,4.756-42.457,2.005-63.848
			c0.236-15.209-0.972-30.605,0.96-45.596c8-62.041,44.712-123.886,45.121-186.666c0.043-6.531,0.328-13.595,7.935-16.874
			c-2.354-21.511-1.278-41.86,16.869-57.54c7.43-6.42,14.153-13.701,20.883-20.895c3.714-3.966,6.214-7.457,3.317-14.09
			c-3.386-7.746,0.818-15.256,8.064-19.167c5.889-3.179,9.854-7.403,12.768-13.073C527.844,81.539,522.517,81.735,517.871,81.203z
			 M123.032,652.582c0.03,4.667-4.305,7.771-18.66,0.706c-14.354-7.066,3.796,16.773,8.613,18.366
			c17.882,5.916,13.59-20.49,25.204-18.17c18.007,3.604,19.953,22.75,17.569,29.729c-4.019,11.559-28.19,16.334-46.591,13.395
			c-17.77-2.795-28.981-38.785-13.348-57.477C107.431,625.25,122.985,644.994,123.032,652.582z M381.048,290.197
			c-13.349,15.681-26.835,31.2-41.429,45.728c-6.344,6.315-12.952,12.405-20.986,16.573c-15.166,7.863-21.143,4.928-24.339-11.739
			c-7.53-39.271-2.835-77.14,12.187-114.089c2.157-5.309,5.301-5.049,9.146-5.381c27.612-2.391,55.193-5.453,82.857-6.793
			c12.459-0.604,22.367-4.24,31.26-12.624c8.408-7.927,17.389-15.248,27.482-21.824C450.23,194.492,386.351,283.967,381.048,290.197
			z"/>
		<path fill-rule="evenodd" clip-rule="evenodd" fill="#D14C43" d="M427.752,157.629c-12.474,13.031-26.523,21.083-45.301,24.559
			c-34.104,6.311-67.439,0.465-101.093-0.805c-21.632-0.814-32.597-16.342-43.682-31.699c9.55-3.605,18.838-9.002,28.706-10.449
			c21.062-3.086,27.494-18.01,28.84-35.133c0.69-8.789-4.645-18.348-8.348-27.097c-3.301-7.795-8.127-15.172-8.839-23.669
			c-1.356-16.18,0.831-32.4,15.138-42.128c15.193-10.328,33.595-14.812,50.981-7.863c15.935,6.37,21.018,23.442,25.571,38.599
			c4.18,13.909,2.052,28.5,1.107,43.018c-0.609,9.372-3.705,12.307-11.615,14.459c-16.914,4.602-14.109,4.891-10.49,22.5
			c4.003,19.482,18.69,18.148,30.793,21.414C395.736,147.713,412.653,149.484,427.752,157.629z"/>
		<path fill-rule="evenodd" clip-rule="evenodd" fill="#D14C43" d="M408.732,555.061c-2.221-6.377-10.638-11.729-4.147-17.721
			c5.861-5.41,8.95-7.566,8.567-21.643c-0.536-19.74-3.114-69.73,1.352-89.275c9.107,17.039,40.355,70.006,44.315,88.591
			c2.443,11.474,6.806,21.171,15.999,28.337c8.049,6.273,13.331,14.482,16.751,23.757c9.524,25.855,21.353,51.073,25.993,78.417
			c3.592,21.182,22.232,36.356,23.131,57.604c0.734,17.386,12.234,25.823,22.471,35.939c5.909,5.836,10.34,12.555,12.124,20.381
			c1.739,7.628,3.863,16.162-4.84,21.795c-8.979,5.815-18.667,5.416-26.055-1.283c-13.153-11.928-26.68-24.168-32.033-42.027
			c-1.696-5.658-2.677-9.051-9.333-5.66c-4.892,2.487-8.346,0.615-10.377-4.568c-14.208-36.252-34.729-68.932-54.262-102.615
			C434.381,618.178,414.391,571.295,408.732,555.061z"/>
		<path fill-rule="evenodd" clip-rule="evenodd" fill="#D14C43" d="M99.742,214.057c-2.65-7.882-1.574-11.541,8.485-11.664
			c22.312-0.268,42.43,2.5,56.273,23.047c5.93,8.803,14.716,13.506,26.421,11.83c14.7-2.109,21.258,11.195,31.201,18.058
			c0.628,0.434,1.29,2.079,1.128,2.218c-12.48,10.68,4.087,13.773,5.633,20.787c1.116,5.059,5.681,9.418,6.527,14.455
			c0.787,4.686,0.197,11.037-2.525,14.507c-3.267,4.167-8.263-1.644-11.86-2.454c-9.361-2.105-13.226-9.445-19.114-15.065
			c-5.398-5.154-10.609-11.886-18.736-12.96c-6.469,0.869-12.019,2.322-18.37,4.332c-14.545,4.602-17.089,3.134-23.82-11.621
			c-10.841-12.388-21.683-24.774-32.525-37.162C103.319,227.326,99.55,221.633,99.742,214.057z"/>
		<path fill-rule="evenodd" clip-rule="evenodd" fill="#D14C43" d="M468.698,211.522c-1.872-0.864-5.774-0.284-5.336-2.746
			c3.233-18.134-1.089-38.415,15.116-52.968c9.635-8.652,18.841-17.783,28.1-26.844c1.583-1.548,4.773-2.775,2.48-6.23
			c-7.537-11.345-3.605-22.289,10.461-27.314c4.971-1.775,2.562-12.147,11.08-8.662c15.936,5.086,16.668,7.439,6.388,19.813
			c-2.272,2.736-4.999,5.267-7.19,7.911c-9.354,11.281-6.666,20.62-0.986,32.374c10.832,22.416-0.305,47.03-23.825,56.65
			C493.325,208.276,480.967,209.645,468.698,211.522z"/>
		<path fill-rule="evenodd" clip-rule="evenodd" fill="#D14C43" d="M429.744,201.872c-8.893,8.384-18.801,12.021-31.26,12.624
			c-27.664,1.34-55.245,4.402-82.857,6.793c-3.846,0.332-6.989,0.072-9.146,5.381c-15.021,36.949-19.717,74.818-12.187,114.089
			c3.196,16.667,9.173,19.603,24.339,11.739c8.034-4.168,14.643-10.258,20.986-16.573c14.594-14.527,28.08-30.047,41.429-45.728
			c5.303-6.23,9.461-12.59,11.8-20.287c0.717-5.254,1.22-10.548,2.191-15.755c5.658-30.38,5.694-30.374,35.484-34.725
			c12.73-10.606,19.707-24.938,26.703-39.383C447.133,186.624,438.152,193.945,429.744,201.872z"/>
		<path fill-rule="evenodd" clip-rule="evenodd" fill="#FFFFFF" d="M134.713,489.74c-2.338-57.707-2.226-115.418,2.109-173.005
			c1.101-14.622,8.721-89.567,12.659-103.964c1.29-7.276-3.359-12.151-7.818-16.204c-8.632-7.848-1.837-21.37-15.204-24.204
			c-0.086,1.787,0.226,3.708-0.319,5.344c-14.788,44.458-47.776,148.85-62.469,193.34c-5.604,16.971-10.823,34.146-1.875,51.734
			c3.258,6.4,3.437,12.549-0.226,19.088c-12.214,21.816-22.248,44.856-36.247,65.65c-4.111,6.109-2.081,7.717,3.4,10.775
			c7.115,3.975,15.744,8.35,19.299,14.938c7.38,13.683,20.693,24.672,22.99,40.168C72.968,586.596,134.766,491.035,134.713,489.74z"
			/>
	</g>
</g>
<g id="Layer_4">
	<g>
		<path fill-rule="evenodd" clip-rule="evenodd" fill="#D14C43" d="M353.624,955.396c54.729,35.649-4.441,31.727-23.203,35.199
			c-34.072,6.305-107.453-1.189-141.079-2.458c-21.613-0.813-37.076-7.316-48.149-22.659c5.381-5.965,41.349-8.994,51.208-10.439
			c21.045-3.084,27.472-36.014,28.816-53.121c0.689-8.781-13.652-18.331-17.352-27.072c-3.297-7.787-5.417-14.257-6.128-22.746
			c-1.356-16.166,0.829-34.173,15.124-43.891c15.182-10.318,28.159-10.293,45.531-3.352c15.92,6.365,20.098,22.521,24.647,37.662
			c4.176,13.896,0.247,26.672-0.696,41.177c-0.608,9.363-5.471,9.358-7.999,17.147c-2.084,6.414-2.385,1.283,1.231,18.877
			c3.999,19.464,17.772,18.131,29.863,21.394C321.639,945.488,338.54,947.259,353.624,955.396z"/>
	</g>
</g>
</svg>
