<?xml version="1.0" encoding="utf-8"?>
<!-- Generator: Adobe Illustrator 16.0.0, SVG Export Plug-In . SVG Version: 6.00 Build 0)  -->
<!DOCTYPE svg PUBLIC "-//W3C//DTD SVG 1.1//EN" "http://www.w3.org/Graphics/SVG/1.1/DTD/svg11.dtd">
<svg version="1.1" xmlns="http://www.w3.org/2000/svg" xmlns:xlink="http://www.w3.org/1999/xlink" x="0px" y="0px" width="600px"
	 height="800px" viewBox="0 0 600 800" enable-background="new 0 0 600 800" xml:space="preserve">
<g id="Layer_24">
	<g>
		<path fill-rule="evenodd" clip-rule="evenodd" fill="#FFFFFF" d="M448.739-592.825c-0.145,1.173-3.236,23.792-3.982,34.091
			c-1.324,18.268-11.572,34.879-11.121,53.707c0.041,1.835-1.347,3.899-2.462,5.656c-1.141,1.797-1.956,3.675-1.967,5.816
			c-0.083,14.785-3.403,29.49-1.729,44.277c1.267,11.166,0.954,22.36,1.696,33.47c0.812,12.14-6.002,20.903-9.819,31.108
			c-11.295,4.479-22.613,11.25-34.294,0.801c-14.688-0.541-28.433-4.158-40.794-12.369c-5.625-2.729-9.512-7.094-12.038-12.739
			c-8.286-11.522-15.734-23.456-18.312-37.738c-2.08-23.243-6.289-46.455-1.41-69.87c0.733-3.518-0.004-7.1-0.565-10.635
			c-0.799-5.015-1.05-10.065-0.062-15.082c1.004-5.107,3.881-8.868,9.113-9.817c11.391-2.067,45.892-7.631,50.703-11.521
			c9.756-9.724,52.123-29.954,61.465-33.461c5.324-2.985,13.107-10.749,17.121-5.44
			C451.769-600.604,449.046-595.272,448.739-592.825z M466.097-611.894c4.421-6.446,9.317-11.36,11.955-18.356
			c-0.011-1.112,2.332-6.952,2.414-6.988c2.877-1.297,10.258-6.082,12.219-5.762c-0.578-1.157-1.16-2.316-1.738-3.475
			c0.856-10.632-5.369-16.133-14.271-19.691c-2.909-2.501-6.048-4.785-8.67-7.557c-3.389-3.586-14.574,1.88-14.838,5.862
			c-0.039,0.59-2.58,7.182-5.115,9.011c-1.084,0.753-5.8,17.203-5.498,24.932c-0.598,0.607-8.994,1.869-12.596,1.893
			c-1.81,0.009-67.031,23.099-72.718,24.886c-26.958,8.476-44.875,13.767-72.924,4.966c-9.751,1.425-24.362-13.352-37.158-23.431
			c-0.685-0.537-29.299-13.252-29.299-13.252c-6.909-15.661-30.175-18.57-15.681-24.768c6.953-2.974,12.94-2.987,8.777-15.624
			c-2.736-8.308-1.715-20.007-5.389-24.289c-10.668-12.438-7.4-24.377-16.379-35.588c-11.771-14.703-20.939-18.951-38.334-11.769
			c-14.096,5.822-22.125,3.654-32.801,16.817c-15.688,19.343-16.307,29.9-4.215,47.45c4.041,5.862,8.277,10.06,9.248,19.314
			c1.016,9.712,10.02,14.059,16.393,15.994c4.172,1.269,5.025,0.012,8.932,5.11c3.723,4.859-2.127,10.923-5.168,14.332
			c0,0-5.787,37.619,8.434,47.873c14.385,11.196,13.055,17.389,19.727,33.779c4.807,4.588,8.785,9.681,10.047,16.423
			c4.518,7.019,11.607,11.67,16.717,18.144c4.426,2.216,4.119,6.298,4.092,10.258c0.223,4.607,2.107,8.585,5.125,11.947
			c4.889,5.449,9.548,11.068,13.838,16.984c2.076,2.961,6.679,5.057,3.725,9.893c0.344,2.855,0.018,5.521-2.177,7.654
			c-7.596,16.473-19.364,29.894-31.501,43.041c-10.438,9.162-18.072,20.93-28.521,30.196c-5.191,4.601-1.076,9.672,3.443,13.382
			c8.662,7.106,10.775,14.68,6.957,24.951c-2.092,5.623-37.156,13.554-42.834,14.85c-8.275,1.892-20.133,5.949-19.934,5.812
			c-7.158-0.433-18.258,24.929-18.258,24.929s-5.498,24.281-3.184,26.74c6.514,6.922,5.748,13.123,0.264,20.441
			c-6.041,8.06-22.182,18.697-22.186,18.7c-2.32,0.438-4.748,0.573-6.943,1.36c-16.832,6.035-6.291,47.351-1.111,46.115
			c5.674-1.353,8.5,0.731,8.564,6.639c0.061,5.816,2.25,10.955,5.387,15.744v-0.003v0.003c1.721,3.415,3.244,6.948,5.195,10.229
			c13.531,22.781,33.74,55.874,59.182,61.265c9.52,2.018,13.09,22.615,10.66,31.953c4.6,2.229,7.055-1.135,9.789-3.779
			c7.215-9.364,18.717,0.129,20.105,2.277c11.459,44.316,32.891,63.507,61.685,51.919c1.135,1.739,3.246-0.546,3.493,1.186
			c0.694,4.882,0.007,8.849,2.776,8.774c5.674-0.153,7.648-4.631,5.673-10.506c-1.716-5.107,1.377-6.352,5.754-5.492
			c2.867,0.564,5.672,1.453,8.506,2.199c3.635,2.315,7.27,4.631,10.905,6.949v-0.002l0,0c2.945,1.633,4.785,5.125,8.676,5.168
			c2.566,2.062,5.237,3.898,8.725,3.879c11.23-0.062,22.467,0.051,33.688-0.288c4.751-0.144,9.317-1.646,13-4.998
			c2.937-0.737,5.882-1.685,5.602-5.464c-0.264-3.572-2.564-5.936-5.955-6.679c-4.527-0.994-9.158-1.528-13.746-2.259
			c-0.392-0.334-0.797-0.48-1.22-0.467c-11.165-4.332,9.972-41.1,14.343-46.367c2.828-3.412,21.812-12.002,27.629-8.201l0,0
			c0.551,1.252,1.101,2.504,1.651,3.758c3.159-0.279,6.294-1.658,9.476-0.207c20.713,3.61,20.713,3.61,28.217-15.979
			c0.211-0.554,10.952-9.349,12.759-15.989c0.673-3.795,0.459-7.648,0.683-11.475c1.141-19.559-0.702-38.814-5.669-57.783
			c-4.833-9.133-8.013-18.414-6.999-29.178c0.607-6.446,2.277-10.762,8.64-12.602c5.905-1.57,18.439-8.693,19.146-9.677
			c3.065-4.277,7.983-7.532,12.421-6.86c4.077,0.616,9.185-12.926,9.39-27.594c0.144-10.289,6.359-30.585,6.746-30.949
			c3.014-17.523,6.211-34.869,5.915-52.935c-0.765-46.667,0.765-93.385-4.085-139.932c2.426-2.365,4.854-4.731,7.279-7.097
			c4.387-1.69,6.906-4.924,7.85-9.467c1.377-6.987-4.327-11.516-6.068-17.427c0.861-10.943-4.967-20.726-5.406-31.498
			c-0.248-6.046,1.236-21.19-1.401-31.018c-1.294-5.336-7.789-8.978-6.728-14.937C462.023-598.236,463.415-607.981,466.097-611.894z
			"/>
	</g>
</g>
<g id="Layer_0-0_copy">
	<g>
		<path display="none" fill-rule="evenodd" clip-rule="evenodd" fill="#FFFFFF" d="M517.871,81.203
			c-8.166-0.939-17.316,0.332-18.213-15.666c-6.018,14.595-11.494,24.92-11.16,36.557c0.213,7.443-2.031,12.912-7.195,17.627
			c-16.281,14.848-32.318,30.049-53.551,37.908c-12.936,4.884-22.158,17.85-36.307,19.076c-23.318,2.02-46.285,8.977-70.219,4.381
			c-9.914-1.904-20.131-3.813-30.465-3.211c-15.568,0.906-28.918-3.098-38.621-16.463c-3.643-5.017-9.551-7.914-14.465-11.729
			c-6.686-15.161-4.859-19.779,9.172-25.779c6.73-2.879,17.936-2.893,13.906-15.125c-2.648-8.043,0.461-20.864-4.314-23.514
			c-14.396-7.992-15.281-23.6-23.971-34.452c-11.396-14.232-20.271-18.346-37.107-11.393c-13.646,5.636-27.436,10.021-38.967,21.69
			c-19.412,19.65-21.402,24.775-4.08,45.936c4.365,5.332,9.332,9.957,7.146,18.697c-1.619,6.477,12.424,19.911,16.773,17.289
			c3.615-2.181,5.766-5.4,9.547-0.463c3.604,4.703,1.547,8.769-1.396,12.068c-5.467,6.123-11.912,10.105-20.998,9.256
			c-36.303-3.387-71.357,10.792-107.793,7.944c-7.373-0.579-14.83,4.72-16.426,13.375c-1.773,9.626,5.688,13.523,12.73,16.485
			c15.303,6.434,31.371,10.266,47.844,12.357c2.539-5.17,6.104-7.703,12.439-7.968c17.83-0.741,33.676,2.087,45.564,17.265
			c9.189,11.729,20.828,18.529,36.83,18.477c12.592-0.04,18.996,8.256,20.791,21.984c0.492,3.766,2.883,6.48,5.102,9.274
			c4.203,5.294,7.666,11.019,10.121,17.317c1.508,3.871,2.588,8.209-0.764,11.321c-4.016,3.731-7.422-0.59-10.795-2.171
			c-8.729-4.096-13.229-13.371-21.443-18.04c-4.758-2.702-9.871-9.199-15.301-0.687c-0.098,3.628,0.631,7.217,2.121,10.438
			c7.543,16.296,5.676,31.625-2.096,47.631c-10.113,20.826-13.633,43.438-13.365,66.577c0.086,7.278-0.832,14.177-4.953,20.524
			c-13.783,21.223-24.055,43.975-28.934,67.523c0.084,1.238,0.008,2.267-0.613,2.801c0.176-0.938,0.42-1.864,0.613-2.801
			c-0.078-1.154-0.295-2.488-0.348-3.783c-2.338-57.707-2.225-115.418,2.109-173.005c1.102-14.622,0.721-29.567,4.66-43.964
			c1.289-7.276-3.359-12.151-7.818-16.204c-8.633-7.848-11.838-21.37-25.205-24.204c-0.086,1.787,0.227,3.708-0.318,5.344
			c-14.787,44.458-29.775,88.85-44.469,133.34c-5.605,16.971-10.822,34.146-1.875,51.734c3.258,6.4,3.438,12.549-0.227,19.088
			c-12.213,21.816-22.248,44.856-36.246,65.65c-4.111,6.109-2.082,7.717,3.4,10.775c7.113,3.975,15.744,8.35,19.299,14.938
			c7.379,13.683,20.693,24.672,22.988,40.168c1.957,13.195,15.916,26.601-0.154,40.807c6.012,1.676,10.17,3.324,14.473,3.933
			c8.043,1.144,8.881,5.263,4.525,10.825c-11.758,15.002-8.658,29.852-0.543,45.027c3.158,5.912,5.469,11.795,2.764,19.102
			c-9.848,26.59-13.312,54.525-17.09,82.455c-1.191,8.821,2.096,10.893,9.072,12.703c8.143,2.115,15.873-5.285,21.615-3.545
			c18.215,5.52,36.777,5.492,55.238,7.553c17.645,1.967,35.209,4.671,52.789,7.18c23.664,3.375,26.91-9.6,50.354-9.536
			c16.84,0.044,24.639-5.376,41.529-5.793c11.689-0.292,16.057-12.786,27.01-12.731c0.568,0.004,1.748-3.102,1.635-4.686
			c-0.748-10.254,6.264-11.189,13.785-12.391c7.371-1.178,15.053,1.365,22.215-3.15c12.264-7.729,16.455-13.535,19.18,1.469
			c0.436,2.391-0.688,5.742,3.877,5.682c3.234-4.029-1.264-10.217,5.57-11.957c7.125-1.812,10.887,4.95,15.809,8.52
			c0.717,0.52,1.371,1.178,1.912,1.882c13.465,17.6,30.783,17.325,49.203,13.649c3.279-0.652,4.863,1.607,5.1-2.68
			c0.262-4.709-3.396-6.785-6.615-7.966c-13.363-4.916-28.039-11.692-32.146-24.563c-4.781-14.99-13.6-26.219-15.23-42.388
			c-2.016-19.979-5.223-39.836-7.914-59.747c-0.232-10.691-3.191-21.068-3.74-31.719c-3.979-13.185-6.826-26.74-12.283-39.441
			c-3.623-8.438-2.705-14.408,6.918-17.697c9.182-3.137,12.947-10.193,12.811-19.689c-0.299-21.31,4.756-42.457,2.006-63.848
			c0.236-15.209-0.973-30.605,0.959-45.596c8-62.041,44.713-123.886,45.121-186.666c0.043-6.531,0.328-13.595,7.936-16.874
			c-2.355-21.511-1.279-41.86,16.869-57.54c7.43-6.42,14.152-13.701,20.883-20.895c3.713-3.966,6.213-7.457,3.316-14.09
			c-3.385-7.746,0.818-15.256,8.064-19.167c5.889-3.179,9.854-7.403,12.768-13.073C527.844,81.539,522.518,81.735,517.871,81.203z
			 M381.049,290.197c-13.35,15.681-26.836,31.2-41.43,45.728c-6.344,6.315-12.951,12.405-20.986,16.573
			c-15.166,7.863-21.143,4.928-24.338-11.739c-7.531-39.271-2.836-77.14,12.186-114.089c2.158-5.309,5.301-5.049,9.146-5.381
			c27.613-2.391,55.193-5.453,82.857-6.793c12.459-0.604,22.367-4.24,31.26-12.624c8.408-7.927,17.389-15.248,27.482-21.824
			C450.23,194.492,386.352,283.967,381.049,290.197z"/>
		<path fill-rule="evenodd" clip-rule="evenodd" fill="#FFFFFF" d="M517.871,81.203c-8.166-0.939-17.316,0.332-18.213-15.666
			c-6.018,14.595-11.494,24.92-11.16,36.557c0.213,7.443-2.031,12.912-7.195,17.627c-16.281,14.848-32.318,30.049-53.551,37.908
			c-12.936,4.884-22.158,17.85-36.307,19.076c-23.318,2.02-46.285,8.977-70.219,4.381c-9.914-1.904-20.131-3.813-30.465-3.211
			c-15.568,0.906-28.918-3.098-38.621-16.463c-3.643-5.017-9.551-7.914-14.465-11.729c-6.686-15.161-4.859-19.779,9.172-25.779
			c6.73-2.879,17.936-2.893,13.906-15.125c-2.648-8.043,0.461-20.864-4.314-23.514c-14.396-7.992-15.281-23.6-23.971-34.452
			c-11.396-14.232-20.271-18.346-37.107-11.393c-13.646,5.636-27.436,10.021-38.967,21.69c-19.412,19.65-21.402,24.775-4.08,45.936
			c4.365,5.332,9.332,9.957,7.146,18.697c-1.619,6.477,12.424,19.911,16.773,17.289c3.615-2.181,5.766-5.4,9.547-0.463
			c3.604,4.703,1.547,8.769-1.396,12.068c-5.467,6.123-11.912,10.105-20.998,9.256c-36.303-3.387-71.357,10.792-107.793,7.944
			c-7.373-0.579-14.83,4.72-16.426,13.375c-1.773,9.626,5.688,13.523,12.73,16.485c15.303,6.434,31.371,10.266,47.844,12.357
			c2.539-5.17,6.104-7.703,12.439-7.968c17.83-0.741,33.676,2.087,45.564,17.265c9.189,11.729,20.828,18.529,36.83,18.477
			c12.592-0.04,18.996,8.256,20.791,21.984c0.492,3.766,2.883,6.48,5.102,9.274c4.203,5.294,7.666,11.019,10.121,17.317
			c1.508,3.871,2.588,8.209-0.764,11.321c-4.016,3.731-7.422-0.59-10.795-2.171c-8.729-4.096-13.229-13.371-21.443-18.04
			c-4.758-2.702-9.871-9.199-15.301-0.687c-0.098,3.628,0.631,7.217,2.121,10.438c7.543,16.296,5.676,31.625-2.096,47.631
			c-10.113,20.826-13.633,43.438-13.365,66.577c0.086,7.278-0.832,14.177-4.953,20.524c-13.783,21.223-24.055,43.975-28.934,67.523
			c0.084,1.238,0.008,2.267-0.613,2.801c0.176-0.938,0.42-1.864,0.613-2.801c-0.078-1.154-0.295-2.488-0.348-3.783
			c-2.338-57.707-2.225-115.418,2.109-173.005c1.102-14.622,0.721-29.567,4.66-43.964c1.289-7.276-3.359-12.151-7.818-16.204
			c-8.633-7.848-11.838-21.37-25.205-24.204c-0.086,1.787,0.227,3.708-0.318,5.344c-14.787,44.458-29.775,88.85-44.469,133.34
			c-5.605,16.971-10.822,34.146-1.875,51.734c3.258,6.4,3.438,12.549-0.227,19.088c-12.213,21.816-22.248,44.856-36.246,65.65
			c-4.111,6.109-2.082,7.717,3.4,10.775c7.113,3.975,15.744,8.35,19.299,14.938c7.379,13.683,20.693,24.672,22.988,40.168
			c1.957,13.195,15.916,26.601-0.154,40.807c6.012,1.676,10.17,3.324,14.473,3.933c7.209,1.024,8.41,4.291,5.633,9.1
			c-20.912,41.163-33.486,115.624,40.021,128.883c-3.873-0.702-24.918-10.511-33.443-29.703
			c-9.188-20.739,32.668-16.272,45.586-9.212c12.918,7.066-3.184,44.583,13.148,58.241c8.9,7.446,27.24,13.642,76.936,7.122
			c-115.934-6.029-65.32-56.42-38.525-47.162c7.291,2.518,12.684,0.883,15.902-5.342c9.305-17.98-14.734-34.63-17.451-35.1
			c0,0,14.477,18.584,2.41,23.371c-0.008,0.004-0.02,0-0.029,0c-55.859,8.174-34.082-55.762-11.484-45.977
			c7.494,3.244-1.807,19.449-4.047,26.594c41.16-66.111-3.072-105.394-44.754-109.251c13.291,4.58,63.16,35.154,36.602,49.457
			c-56.316,30.322-59.145-78.144-33.873-93.117c9.943-5.892,24.027,29.759,30.514,34.706c-3.549-15.607,0.545-33.148,1.465-32.643
			c0.029,0.258-1.795,24.545,11.139,34.252c-10.953-48.74,18.732-90.672,5.684-145.138c16.373,28.397,8.004,90.734,3.732,110.575
			c0,0,2.283-1.594,7.176,0.594c-6.541,1.568-6.516,4.776-7.176,6.927c-0.145,0.423-4.635,30.121-10.047,43.572
			c10.475-14.89,13.609-17.201,33.328-15.938c-28.465,5.67-29.455,44.785,7.607,31.793c-4.852,15.144-8.75,35.939-14.24,52.475
			c-9.973,30.055,7.023,38.168,13.494,39.761c67.002,16.483,42.74-34.062,33.73-33.911c-5.303,0.087-8.648,4.182-10.506,10.207
			c6.848-5.611,14.936-3.781,9.07,5.561c-7.543,12.021-39.674-6.907-21.387-28.342c9.338-10.945,55.379-2.43,54.773,25.293
			c-0.459,20.203-3.301,35.861-29.797,84.775c35.508-33.006,127.629-27.891,128-27.252c2.258,0.237,3.709,2.83,4.887,9.311
			c0.436,2.391-0.688,5.742,3.877,5.682c3.234-4.029-1.264-10.217,5.57-11.957c7.125-1.812,10.887,4.95,15.809,8.52
			c0.717,0.52,1.371,1.178,1.912,1.882c13.465,17.6,30.783,17.325,49.203,13.649c3.279-0.652,4.863,1.607,5.1-2.68
			c0.262-4.709-3.396-6.785-6.615-7.966c-13.363-4.916-28.039-11.692-32.146-24.563c-4.781-14.99-13.6-26.219-15.23-42.388
			c-2.016-19.979-5.223-39.836-7.914-59.747c-0.232-10.691-3.191-21.068-3.74-31.719c-3.979-13.185-6.826-26.74-12.283-39.441
			c-3.623-8.438-2.705-14.408,6.918-17.697c9.182-3.137,12.947-10.193,12.811-19.689c-0.299-21.31,4.756-42.457,2.006-63.848
			c0.236-15.209-0.973-30.605,0.959-45.596c8-62.041,44.713-123.886,45.121-186.666c0.043-6.531,0.328-13.595,7.936-16.874
			c-2.355-21.511-1.279-41.86,16.869-57.54c7.43-6.42,14.152-13.701,20.883-20.895c3.713-3.966,6.213-7.457,3.316-14.09
			c-3.385-7.746,0.818-15.256,8.064-19.167c5.889-3.179,9.854-7.403,12.768-13.073C527.844,81.539,522.518,81.735,517.871,81.203z
			 M123.031,652.582c0.031,4.667-4.305,7.771-18.658,0.706c-14.355-7.066,3.795,16.773,8.611,18.366
			c17.883,5.916,13.59-20.49,25.205-18.17c18.008,3.604,19.953,22.75,17.568,29.729c-4.018,11.559-28.189,16.334-46.592,13.395
			c-17.77-2.795-28.98-38.785-13.348-57.477C107.43,625.25,122.984,644.994,123.031,652.582z M381.049,290.197
			c-13.35,15.681-26.836,31.2-41.43,45.728c-6.344,6.315-12.951,12.405-20.986,16.573c-15.166,7.863-21.143,4.928-24.338-11.739
			c-7.531-39.271-2.836-77.14,12.186-114.089c2.158-5.309,5.301-5.049,9.146-5.381c27.613-2.391,55.193-5.453,82.857-6.793
			c12.459-0.604,22.367-4.24,31.26-12.624c8.408-7.927,17.389-15.248,27.482-21.824C450.23,194.492,386.352,283.967,381.049,290.197
			z"/>
		<path fill-rule="evenodd" clip-rule="evenodd" fill="#D14C43" d="M427.752,157.629c-12.473,13.031-26.523,21.083-45.301,24.559
			c-34.104,6.311-67.439,0.465-101.092-0.805c-21.633-0.814-32.598-16.342-43.684-31.699c9.551-3.605,18.84-9.002,28.707-10.449
			c21.062-3.086,27.494-18.01,28.84-35.133c0.691-8.789-4.645-18.348-8.348-27.097c-3.301-7.795-8.127-15.172-8.838-23.67
			c-1.357-16.18,0.83-32.4,15.137-42.127C308.367,0.88,326.77-3.604,344.156,3.345c15.934,6.371,21.018,23.443,25.57,38.6
			c4.18,13.908,2.053,28.499,1.107,43.017c-0.609,9.372-3.705,12.307-11.615,14.459c-16.914,4.602-14.109,4.891-10.49,22.5
			c4.004,19.482,18.691,18.148,30.793,21.414C395.736,147.713,412.654,149.484,427.752,157.629z"/>
		<path fill-rule="evenodd" clip-rule="evenodd" fill="#D14C43" d="M408.732,555.061c-2.221-6.377-10.637-11.729-4.146-17.721
			c5.861-5.41,8.949-7.566,8.566-21.643c-0.535-19.74-3.113-69.73,1.352-89.275c9.107,17.039,40.355,70.006,44.316,88.591
			c2.443,11.474,6.805,21.171,15.998,28.337c8.049,6.273,13.332,14.482,16.752,23.757c9.523,25.855,21.352,51.073,25.992,78.417
			c3.592,21.182,22.232,36.356,23.131,57.604c0.734,17.386,12.234,25.823,22.471,35.939c5.91,5.836,10.34,12.555,12.125,20.381
			c1.738,7.628,3.863,16.162-4.84,21.795c-8.98,5.815-18.668,5.416-26.055-1.283c-13.154-11.928-26.68-24.168-32.033-42.027
			c-1.697-5.658-2.678-9.051-9.334-5.66c-4.891,2.487-8.346,0.615-10.377-4.568c-14.207-36.252-34.729-68.932-54.262-102.615
			C434.381,618.178,414.391,571.295,408.732,555.061z"/>
		<path fill-rule="evenodd" clip-rule="evenodd" fill="#D14C43" d="M99.742,214.057c-2.65-7.882-1.574-11.541,8.484-11.664
			c22.312-0.268,42.43,2.5,56.273,23.047c5.93,8.803,14.717,13.506,26.422,11.83c14.699-2.109,21.258,11.195,31.199,18.058
			c0.629,0.434,1.291,2.079,1.129,2.218c-12.48,10.68,4.088,13.773,5.633,20.787c1.117,5.059,5.682,9.418,6.527,14.455
			c0.787,4.686,0.197,11.037-2.525,14.507c-3.266,4.167-8.262-1.644-11.859-2.454c-9.361-2.105-13.227-9.445-19.115-15.065
			c-5.398-5.154-10.607-11.886-18.736-12.96c-6.469,0.869-12.018,2.322-18.369,4.332c-14.545,4.602-17.088,3.134-23.82-11.621
			c-10.842-12.388-21.684-24.774-32.525-37.162C103.318,227.326,99.551,221.633,99.742,214.057z"/>
		<path fill-rule="evenodd" clip-rule="evenodd" fill="#D14C43" d="M468.699,211.522c-1.873-0.864-5.775-0.284-5.336-2.746
			c3.232-18.134-1.09-38.415,15.115-52.968c9.635-8.652,18.842-17.783,28.1-26.844c1.584-1.548,4.773-2.775,2.48-6.23
			c-7.537-11.345-3.605-22.289,10.461-27.314c4.971-1.775,2.562-12.147,11.08-8.662c15.936,5.086,16.668,7.439,6.389,19.813
			c-2.273,2.736-5,5.267-7.191,7.911c-9.354,11.281-6.666,20.62-0.986,32.374c10.832,22.416-0.305,47.03-23.824,56.65
			C493.326,208.276,480.967,209.645,468.699,211.522z"/>
		<path fill-rule="evenodd" clip-rule="evenodd" fill="#D14C43" d="M429.744,201.872c-8.893,8.384-18.801,12.021-31.26,12.624
			c-27.664,1.34-55.244,4.402-82.857,6.793c-3.846,0.332-6.988,0.072-9.146,5.381c-15.021,36.949-19.717,74.818-12.186,114.089
			c3.195,16.667,9.172,19.603,24.338,11.739c8.035-4.168,14.643-10.258,20.986-16.573c14.594-14.527,28.08-30.047,41.43-45.728
			c5.303-6.23,9.461-12.59,11.799-20.287c0.717-5.254,1.221-10.548,2.191-15.755c5.658-30.38,5.695-30.374,35.484-34.725
			c12.73-10.606,19.707-24.938,26.703-39.383C447.133,186.624,438.152,193.945,429.744,201.872z"/>
		<path fill-rule="evenodd" clip-rule="evenodd" fill="#FFFFFF" d="M134.713,489.74c-2.338-57.707-2.225-115.418,2.109-173.005
			c1.102-14.622,8.721-89.567,12.66-103.964c1.289-7.276-3.359-12.151-7.818-16.204c-8.633-7.848-1.838-21.37-15.205-24.204
			c-0.086,1.787,0.227,3.708-0.318,5.344c-14.787,44.458-47.775,148.85-62.469,193.34c-5.605,16.971-10.822,34.146-1.875,51.734
			c3.258,6.4,3.438,12.549-0.227,19.088c-12.213,21.816-22.248,44.856-36.246,65.65c-4.111,6.109-2.082,7.717,3.4,10.775
			c7.113,3.975,15.744,8.35,19.299,14.938c7.379,13.683,20.693,24.672,22.988,40.168C72.969,586.596,134.766,491.035,134.713,489.74
			z"/>
	</g>
</g>
</svg>
