<?xml version="1.0" encoding="utf-8"?>
<!-- Generator: Adobe Illustrator 16.0.0, SVG Export Plug-In . SVG Version: 6.00 Build 0)  -->
<!DOCTYPE svg PUBLIC "-//W3C//DTD SVG 1.1//EN" "http://www.w3.org/Graphics/SVG/1.1/DTD/svg11.dtd">
<svg version="1.1" xmlns="http://www.w3.org/2000/svg" xmlns:xlink="http://www.w3.org/1999/xlink" x="0px" y="0px" width="600px"
	 height="800px" viewBox="0 0 600 800" enable-background="new 0 0 600 800" xml:space="preserve">
<g id="Layer_23">
	<g>
		<path fill-rule="evenodd" clip-rule="evenodd" fill="#FFFFFF" d="M457.189-591.076c-0.145,1.166-3.219,23.662-3.961,33.905
			c-1.318,18.167-11.51,34.688-11.062,53.412c0.043,1.825-1.338,3.878-2.449,5.626c-1.133,1.787-1.943,3.654-1.953,5.784
			c-0.084,14.705-3.387,29.33-1.721,44.036c1.26,11.104,0.949,22.238,1.688,33.286c0.809,12.073-5.969,20.789-9.766,30.938
			c-11.232,4.454-22.49,11.188-34.105,0.796c-14.607-0.538-28.277-4.136-40.572-12.302c-5.594-2.713-9.459-7.055-11.973-12.669
			c-8.24-11.459-15.646-23.328-18.211-37.532c-2.068-23.116-6.256-46.201-1.402-69.488c0.729-3.497-0.004-7.061-0.562-10.576
			c-0.795-4.987-1.045-10.01-0.062-14.999c1-5.08,3.859-8.82,9.064-9.765c11.328-2.056,45.641-7.589,50.426-11.458
			c9.703-9.671,51.838-29.79,61.129-33.278c5.295-2.969,13.037-10.689,17.027-5.41C460.201-598.812,457.492-593.51,457.189-591.076z
			 M474.451-610.04c4.396-6.411,9.266-11.299,11.889-18.256c-0.01-1.106,2.32-6.914,2.402-6.95c2.857-1.29,10.201-6.049,12.152-5.73
			c-0.576-1.15-1.156-2.303-1.73-3.455c0.852-10.574-5.34-16.045-14.193-19.584c-2.893-2.487-6.014-4.759-8.621-7.516
			c-3.371-3.566-14.496,1.87-14.758,5.831c-0.039,0.586-2.566,7.142-5.088,8.961c-1.078,0.749-5.768,17.108-5.469,24.796
			c-0.594,0.604-8.943,1.857-12.525,1.881c-1.803,0.01-66.664,22.973-72.32,24.751c-26.811,8.429-44.629,13.69-72.523,4.938
			c-9.697,1.417-24.229-13.279-36.955-23.303c-0.68-0.535-29.137-13.18-29.137-13.18c-6.869-15.575-30.01-18.469-15.596-24.632
			c6.916-2.957,12.871-2.971,8.73-15.539c-2.721-8.262-1.705-19.897-5.359-24.156c-10.609-12.37-7.359-24.243-16.287-35.394
			c-11.709-14.622-20.828-18.848-38.125-11.703c-14.02,5.789-22.004,3.634-32.623,16.725c-15.6,19.237-16.217,29.737-4.191,47.191
			c4.018,5.83,8.232,10.004,9.197,19.209c1.012,9.658,9.967,13.98,16.305,15.906c4.148,1.261,4.998,0.012,8.883,5.082
			c3.701,4.834-2.115,10.863-5.141,14.253c0,0-5.756,37.415,8.389,47.612c14.305,11.135,12.982,17.294,19.617,33.595
			c4.781,4.562,8.738,9.627,9.992,16.333c4.492,6.98,11.543,11.605,16.625,18.044c4.402,2.204,4.096,6.264,4.068,10.202
			c0.223,4.582,2.098,8.537,5.098,11.882c4.861,5.419,9.496,11.007,13.762,16.892c2.064,2.945,6.643,5.029,3.705,9.839
			c0.342,2.839,0.018,5.49-2.164,7.612c-7.555,16.381-9.992,66.79-22.062,79.866c-10.383,9.111-17.973,20.814-28.369,30.03
			c-5.16,4.576-1.066,9.619,3.426,13.309c8.615,7.068,10.717,14.601,6.92,24.815c-2.08,5.592-36.955,13.479-42.6,14.768
			c-8.232,1.882-20.023,5.917-19.826,5.78c-7.119-0.431-18.158,24.792-18.158,24.792s-5.467,61.209-3.166,63.655
			c6.479,6.883,5.719,13.051,0.264,20.329c-6.008,8.016-22.062,18.595-22.064,18.599c-2.309,0.435-4.723,0.57-6.904,1.352
			c-16.742,6.002-6.256,47.093-1.107,45.863c5.643-1.345,8.455,0.729,8.518,6.604c0.061,5.785,2.238,10.895,5.357,15.658v-0.004
			v0.004c1.711,3.396,3.229,6.91,5.166,10.173c13.461,22.657,24.293,18.508,49.594,23.869c9.467,2.007,13.02,22.491,10.602,31.778
			c4.576,2.217,7.018-1.129,9.736-3.759c7.176-9.313,18.615,0.128,19.996,2.266c11.396,44.073,32.711,26.099,61.346,14.573
			c1.129,1.729,3.229-0.543,3.475,1.18c0.691,4.854,0.006,8.8,2.76,8.726c5.645-0.151,7.607-4.604,5.643-10.448
			c-1.707-5.079,1.369-6.316,5.721-5.461c2.852,0.561,5.643,1.445,8.459,2.186c3.615,2.304,7.23,4.607,10.846,6.912v-0.002l0,0
			c2.93,1.623,4.76,5.097,8.629,5.141c2.553,2.049,5.209,3.876,8.678,3.857c11.168-0.062,22.342,0.049,33.502-0.287
			c4.725-0.143,9.268-1.637,12.93-4.971c2.92-0.733,5.85-1.676,5.57-5.435c-0.262-3.553-2.551-5.903-5.922-6.642
			c-4.504-0.988-9.109-1.52-13.672-2.246c-0.389-0.333-0.793-0.479-1.213-0.465c-11.104-4.308,9.918-40.875,14.264-46.113
			c2.814-3.394,21.693-11.938,27.479-8.157v0.001c0.549,1.245,1.094,2.49,1.643,3.736c3.141-0.277,6.26-1.648,9.424-0.205
			c20.6,3.591,20.6,3.591,28.062-15.893c0.209-0.551,10.893-9.297,12.689-15.902c0.67-3.773,0.455-7.605,0.678-11.412
			c1.133-19.451-0.697-38.602-5.637-57.467c-4.807-9.082-7.969-18.312-6.961-29.018c0.604-6.41,2.264-10.703,8.592-12.532
			c5.873-1.562,18.338-8.646,19.041-9.624c3.049-4.254,7.939-7.491,12.354-6.823c4.055,0.613,9.131-12.855,9.338-27.442
			c0.143-10.232,6.324-30.418,6.709-30.78c2.996-17.428,6.178-34.679,5.883-52.645c-0.76-46.412,0.76-92.874-4.062-139.167
			c2.412-2.352,4.828-4.705,7.24-7.057c4.359-1.683,6.867-4.897,7.803-9.416c1.373-6.949-4.301-11.453-6.031-17.331
			c0.855-10.884-4.939-20.612-5.379-31.326c-0.248-6.013,1.23-21.074-1.393-30.848c-1.287-5.308-7.746-8.929-6.691-14.854
			C470.398-596.457,471.783-606.149,474.451-610.04z"/>
	</g>
</g>
<g id="Layer_19_copy">
	<g>
		<path fill-rule="evenodd" clip-rule="evenodd" fill="#FFFFFF" d="M444.612,514.883c4.689-14.947-0.201-26.847,9.227-39.207
			c4.541-5.953,13.748-8.926,21.396-11.737c5.893-2.167,8.15-3.437,5.043-10.113c-10.578-22.724,2.867-43.925-5.785-67.379
			c-2.596-7.034-1.459-13.077,2.76-18.893c11.586-15.972-8.664-36.567-11.547-54.205c-7.594-46.448,22.148-86.255,14.453-132.713
			c-0.285-1.699,0.324-3.547,0.518-5.327c-13.643,0.712-8.924,13.564-18.676,19.967c-5.037,3.309-10.391,7.397-10.256,14.785
			c1.641,14.834-1.068,29.537-2.268,44.15c-4.717,57.555-23.625,114.577-34.955,171.212c-0.252,1.269-0.674,2.553-0.932,3.681
			c0.043,0.955,0.141,1.908,0.166,2.863c-0.529-0.626-0.443-1.653-0.166-2.863C412.452,405.08,440.618,527.607,444.612,514.883z"/>
		<path fill-rule="evenodd" clip-rule="evenodd" fill="#D14C43" d="M137.319,69.933c-0.424-2.467-0.895-4.926-1.26-7.402
			c-0.566-3.84,0.189-6.445,4.957-5.029c10.236,18.127,17.34,36.66,7.283,57.375c-1.406,5.496-2.885,10.461-8.664,13.752
			c-3.791,2.162-5.934,7.098-9.115,10.512c-1.486,1.596-2.492,2.924-1.08,4.834c1.381,1.867,2.982,0.309,4.205-0.262
			c11.732-5.48,24.133-7.008,36.898-6.539c4.141,0.475,8.268,1.191,12.418,1.371c7.555,0.324,12.59-3.586,15.789-10.18
			c9.668-3.887,17.201-7.963,20.502-20.359c2.545-9.555-0.152-15.764-3.016-23.27c-5.121-13.43-10.088-26.98-10.635-41.516
			c-0.777-20.666,2.219-26.941,20.111-35.826c11.113-5.52,23.844-8.508,36.994-7.008c5.285,0.604,10.088,3.32,12.109,6.75
			c5.76,9.771,12.867,20.137,14.105,30.881c2.238,19.4,5.805,39.361-0.723,58.896c-0.777,2.322-1.832,4.703-4.107,4.816
			c-15.471,0.771-6.17,12.342-7.619,18.617c-1.746,7.539,6.215,9.52,11.441,11.285c14.834,5.01,24.352,11.178,42.271,11.418
			c12.381,0.166,53.469,16.1,64.801,19.723c52.535,7.733,71.379,32.266,79.176,44.246c5.135,12.291,8.201,22.609-2.053,31.561
			c-0.467,0.406-22.295,11.057-35.734,9.021c1.523-4.684,4.061-7.951,6.986-11.689c3.262-4.172,8.223-7.861,1.459-10.107
			c-5.453-1.811-94.697-1.219-105.584-1.434c-6.541-0.129-9.668,2.922-10.318,8.734c-1.533,13.668-4.248,27.238-5.609,40.812
			c-1.801,17.906-5.148,35.508-8.172,53.121c-3.488,20.34-8.297,40.471-15.297,60.115c-7.301,20.494-9.924,42.232-13.4,63.703
			c-4.145,25.582-7.172,51.289-10.48,76.977c-1.633,12.668,3.387,24.027-9.646,32.387c-4.143,2.656-8.787,7.877-7.412,14.691
			c-7.393,6.811-5.166,17.57-11.084,25.443c-18.061,24.023-5.09,25.297-16.217,52.461c-4.588,11.199-2.52,19.453-9.062,28.994
			c-9.68,14.119-13.693,39.057-4.57,55.496c5.121,9.223,8.949,9.223,7.525,20.119c-1.541,11.771-15.461,8.749-31.266,19.631
			c-3.393,2.336-8.779-3.576-9.781,4.105c-0.266,2.029-14.428,5.155-18.561,5.486c-8.189,0.656-10.189-3.096-10.252-10.799
			c-0.115-14.268-1.924-28.506,2.451-42.557c1.521-4.887-15.553,7.382-22.1,1.266c-4.625-2.922-4.625-2.922-4.316-9.807
			c0.363-8.077,5.021-16.016,1.129-22.926c-6.527-11.592-5.453-15.672,4.596-23.531c1.41-1.1,4.746-2.521,3.008-3.801
			c-7.836-5.766-1.609-11.713-0.508-17.172c5.182-25.688,12.857-29.715,17.932-55.42c2.787-14.121,11.154-35.447,12.076-49.787
			c1.404-21.789-2.029-36.432,0.174-58.127c2.717-26.729-1.717-53.256-4.568-79.654c1.543-30.117,1.984-48.471,15.9-84.996
			c8.396-22.041,4.215-34.151,3.58-57.285c-0.123-4.481-1.473-8.066-1.584-12.188c-0.111-4.15,0.434-8.51-0.646-12.404
			c-1.686-6.068-3.85-12.205-7.008-17.615c-4.078-6.98-11.191-0.877-16.771-2.561c-3.34-1.006-7.535-0.588-9.912-3.18
			c-9.885-10.785-22.475-10.453-35.508-9.98c-7.582,0.273-14.986-1.564-22.5-3.549c-17.508-4.623-22.16-19.688-28.438-33.055
			c-4.164-8.867,0.518-17.396,6.088-24.824c6.066-8.086,11.877-16.396,18.393-24.107c3.729-4.416,7.477-9.148,14.941-8.438
			c4.551,0.432,14.857-14.252,15.982-19.578c1.775-8.424-1.045-17.912,5.645-25.217c6.246-1.789,10.35,2.307,14.816,6.141
			C139.603,76.985,139.478,73.349,137.319,69.933z"/>
		<path fill-rule="evenodd" clip-rule="evenodd" fill="#FFFFFF" d="M252.901,573.767c-1.375-6.814,3.27-12.035,7.412-14.693
			c13.033-8.357,14.014-21.719,15.646-34.385c3.309-25.688,6.336-51.395,10.48-76.979c3.477-21.469,6.1-43.207,13.4-63.701
			c7-19.645,11.809-39.777,15.297-60.115c3.023-17.613,6.371-35.215,8.172-53.123c1.361-13.574,4.076-27.143,5.609-40.811
			c0.65-5.812,3.816-8.009,10.318-8.736c108.285-12.109,104.131-0.377,109.584,1.436c6.764,2.244,2.803,5.936-0.459,10.107
			c-2.926,3.738-7.463,7.006-8.986,11.689c-10.285,12.924-20.361,25.963-27.072,41.252c-3.809,8.68-3.252,16.486,0.371,25.631
			c13.898,35.07,23.947,71.053,18.814,109.504c-0.424,3.182-0.652,6.391-1.156,9.559c-2.697,16.986,1.424,30.094,17.877,39.037
			c16.402,8.912,16.699,11.549,13.537,29.098c-3.326,18.475,8.322,61.008,24.213,71.301c5.484,3.553,9.598,8.039,11.721,14.459
			c2.299,6.951,4.514,14.123,9.377,19.797c9.504,11.074,29.883,45.826,31.783,58.98c0.732,5.057-1.6,60.178-6.23,61.6
			c-8.85,2.719-28.289,12.492-37.195,11.256c-7.832-1.086-13.238-0.438-15.309,9.307c-1.664,7.834-21.184-5.154-19.666,5.352
			c0.373,2.578-10.246,5.355-13.465,6.229c-4.264,1.158-3.457-2.914-4.365-4.795c-6.703-13.836-11.219-14.451-20.428-2.121
			c-4.182,5.604-9.094,1.842-11.178,8.279c-3.232,9.971-10.113,20.096-18.895,19.963c-11.836-0.178-23.764,1.148-35.504-1.463
			c-10.982-2.443-16.375,0.473-16.486-10.832c-0.094-9.32-11.207,12.922-13.107,3.748c-1.201-5.787-3.85-8.324-9.84-7.686
			c-4.771,0.51-9.611,0.334-14.408,0.645c-6.752,0.43-12.293-1.26-13.801-8.682c-1.076-5.289-4.844-4.547-8.139-4.033
			c-13.484,2.096-26.256-1.32-38.615-5.629c-10.248-3.574-14.857-11.311-7.352-20.434c1.629-1.975,2.844-4.344,4.662-6.107
			c10.787-10.465,25.699-51.895,20.852-68.814c-4.912-17.143-6.486-36.566-1.979-55.18
			C260.204,586.218,256.271,579.985,252.901,573.767z M389.335,729.966c-15.115,1.027-19.58,8.166-15.006,22.523
			c2.1,6.602,7.615,2.58,6.869,10.18c-0.145,1.459,0.85,2.373,2.262,2.562c2.166,0.293,2.291-1.375,2.914-2.893
			c4.539-11.029,5.584-13.551,9.016-24.852C397.323,731.116,396.274,727.95,389.335,729.966z"/>
		<path fill-rule="evenodd" clip-rule="evenodd" fill="#FFFFFF" d="M148.3,114.876c10.057-20.715,2.953-39.248-7.283-57.375
			c4.086-2.068,7.746-3.994,8.334,3.414c0.297,3.748,2.561,7.15,5.391,9.883c7.041,6.793,12.959,13.865,9.16,24.832
			c-0.545,1.568,0.85,4.74,2.338,5.93c10.973,8.775,20.543,19.256,32.514,26.805c-3.201,6.594-8.236,10.504-15.791,10.18
			c-4.15-0.18-8.277-0.896-12.42-1.371C164.798,128.075,155.935,122.089,148.3,114.876z"/>
		<path fill-rule="evenodd" clip-rule="evenodd" fill="#FFFFFF" d="M137.319,69.933c2.158,3.416,2.283,7.053,1.166,11.564
			c-4.467-3.834-8.57-7.93-14.816-6.141C125.708,67.229,131.833,69.388,137.319,69.933z"/>
		<path fill-rule="evenodd" clip-rule="evenodd" fill="#FFFFFF" d="M456.058,140.235c-1.172-1.203-1.834-6.307,1.424-9.184
			c5.977-5.275,7.598-4.971,12.695-7.213c8.281-3.643,11.424-11.33,11.105-19.854c7.141-24.99,5.643-26.416-3.062-49.15
			c-9.268-11.975-17.053-15.857-30.633-22.146c-16.752-7.758-26.629-4.219-37.969,11.662c-8.646,12.109-8.475,27.424-22.801,36.34
			c-4.752,2.955-2.854,16.988-4.293,26.232c-2.129,13.656,3.146,13.664,9.842,16.875c13.961,6.693,16.775,2.994,12.07,14.676
			c-1.676,4.162-13.768,3.66-17.766,5.547c-7.879,3.715-18.771,5.844-23.748,8.836c-2.199,3.65,75.646,27.754,86.438,31.232
			c14,4.512,20.365,17.529,27.791,29.025c10.617-4.662,22.049-6.516,33.117-9.609c7.494-2.094,15.102-5.203,15.455-13.314
			c0.348-7.977-2.332-16.469-9.787-21.68c-9.006-6.299-19.654-7.414-30.076-8.934c-8.244-1.203-12.57-4.879-20.855-5.779
			C463.56,147.667,462.562,146.913,456.058,140.235z"/>
		<path fill-rule="evenodd" clip-rule="evenodd" fill="#FFFFFF" d="M512.536,166.858c13.355,0.903,9.113,15.324,7.371,29.595
			c-1.93,1.103-4.746,1.863-5.645,3.375c-5.275,8.852-13.971,10.314-23.129,11.703c-6.398,0.971-11.6,5.315-17.299,8.141
			c-11.4,5.653-23.332,9.332-35.402,12.629c-12.654,3.453-24.961,1.338-36.902,0.361c-16.213-1.33-28.877,7.657-39.9,16.135
			c-4.674,3.595-0.295-8.654-2.121-10.254c-1.77-1.556-4.404-0.759-6.936-0.095c-2.953,0.776-5.143-0.049-6.467-3.057
			c-1.365-3.099,3.572-5.777,7.152-7.511c7.807-3.778,15.506-7.697,23.01-12.074c7.471-4.36,15.354-8.214,24.207-6.363
			c1.426,0.298,2.609-0.613,3.5-1.741c6.979-1.656,13.965-4.021,20.945-4.795c10.635-1.18,18.168-5.563,24.611-13.897
			C454.267,182.89,496.364,165.765,512.536,166.858z"/>
	</g>
</g>
</svg>
