<?xml version="1.0" encoding="utf-8"?>
<!-- Generator: Adobe Illustrator 16.0.0, SVG Export Plug-In . SVG Version: 6.00 Build 0)  -->
<!DOCTYPE svg PUBLIC "-//W3C//DTD SVG 1.1//EN" "http://www.w3.org/Graphics/SVG/1.1/DTD/svg11.dtd">
<svg version="1.1" xmlns="http://www.w3.org/2000/svg" xmlns:xlink="http://www.w3.org/1999/xlink" x="0px" y="0px" width="600px"
	 height="800px" viewBox="0 0 600 800" enable-background="new 0 0 600 800" xml:space="preserve">
<g id="Layer_20">
	<g>
		<path fill-rule="evenodd" clip-rule="evenodd" fill="#FFFFFF" d="M418.457-525.41c-4.108,9.857-18.562,39.925-21.396,50.235
			c-3.804,13.839-2.193,27.009,6.006,38.575c14.871,20.975,28.382,35.223,29.41,59.818c0.585,13.951,2.605,27.523,6.906,40.606
			c6.074,18.479,21.685,25.987,38.767,31.468c19.48,6.248,16.422,22.588,35.862,28.963c33.313,10.924-14.795,38.855,20.379,41.189
			c11.991,0.797,41.43,49.271,35.359,46.425c-6.876-3.227,16.416,26.671,13.212,33.903c-5.359,12.103-14.974,15.092-26.98,14.477
			c-7.929-0.406-27.11,2.024-28.714,1.965c-6.141-0.229-14.967,54.812-34.39,56.731c-17.909,1.77-27.882-3.052-27.613,7.122
			c0.257,9.609,0.93,9.819,6.834,18.397c2.429,3.528,2.447,7.524-1.958,10.023c-4.255,2.41-4.71-2.245-6.592-3.967
			c-2.453-2.245-4.77-4.74-6.67-7.46c-1.718-2.463-2.92-6.175-6.476-4.866c-3.362,1.237-2.337,5.295-2.689,8.214
			c-1.021,8.479-0.198,17.763-5.083,24.934C431.471-12.277,414.688-3.908,395.73-0.243c-8.961,1.734-14.288-6.107-9.672-14.017
			c5.185-8.881,11.481-17.129,17.559-25.459c2.533-3.473,3.511-6.973,2.521-12.105c-5.641,3.344-8.878,8.058-11.24,13.28
			c-3.352,7.417-8.473,11.106-16.904,11.579c-15.373,0.859-30.716,1.17-46.084,0.52c-3.031-0.129-6.487-0.185-7.966-3.509
			c-1.584-3.567,0.452-6.378,2.636-9.127c3.831-4.813,8.777-8.202,13.868-11.442c2.237-1.425,5.157-2.139,5.594-6.55
			c-4.093,0-8.191,0.204-12.262-0.042c-8.826-0.531-14.53-5.858-16.05-14.664c-2.118-12.278-6.659-14.376-17.147-7.847
			c-2.707,1.686-5.64,2.76-8.74,2.402c-6.409-0.739-11.205,1.406-14.946,6.698c-3.155,4.466-7.473,3.369-11.561,1.419
			c-2.724-1.298-5.275-2.95-7.902-4.447c-2.628-6.2-9.197-5.229-13.909-6.944c-17.33-6.308-35.021-11.574-53.272-2.829
			c-8.555-2.327-11.585-6.945-8.578-16.089c3.587-10.91,8.483-21.229,12.56-31.903c6.673-11.253,12.519-23.128,20.276-33.579
			c6.632-8.935,9.48-18.043,9.275-28.902c-0.182-9.465-1.729-19.193,1.148-28.402c14.224-45.524,36.967-86.231,69.367-121.42
			c3.871-4.202,7.649-8.438,9.205-14.408c5.6-21.487,7.493-43.499,7.884-65.474c0.636-35.519-2.23-71.047,0.28-106.614
			c0.602-8.532,2.994-9.928,10.228-7.019c9.589,3.854,19.263,7.508,28.963,11.082C369.702-519.112,399.59-532.285,418.457-525.41z"
			/>
	</g>
</g>
<g id="Layer_16_copy">
	<g>
		<path fill="#FFFFFF" d="M542.422,154.197c-1.68-8.721-9.525-14.059-17.283-13.477c-38.342,2.871-65.74,15.844-103.938,19.254
			c-9.564,0.857-16.344-3.156-22.098-9.324c-3.1-3.324,1.043-7.422,4.836-12.16c2.18-2.725,11.715-9.924,15.18-18.988
			c3.242-8.477,4.428-12.793,5.971-19.525c3.109-13.568-1.213-39.072-8.088-47.188c-10.874-12.838-9.525-17.553-24.937-19.443
			c-18.503-2.271-32.853,0.178-44.847,14.52c-9.143,10.934-10.188,18.188-10.99,34.709c-0.268,5.496,1.432,15.301,3.051,23.689
			c2.498,12.938,1.784,10.895,7.045,17.055c4.925,5.771,6.128,6.332,4.903,15.979c-0.786,6.223-19.589,13.123-23.422,18.178
			c-10.212,13.465-24.259,17.496-40.642,16.586c-10.875-0.607-21.622,1.316-32.054,3.234c-25.183,4.631-16.138-2.377-40.674-4.414
			c-14.888-1.236-41.948,4.006-55.56-0.912c-22.341-7.92-39.215-23.234-56.349-38.195c-5.435-4.748-7.794-10.26-7.57-17.756
			c0.353-11.725-7.899-39.256-11.742-36.83c-6.528,11.912-10.569,4.77-19.164,5.715c-4.89,0.535-4.089,12.238-6.987,17.494
			c3.066,5.713,0.832,8.139,7.028,11.342c7.624,3.939,15.707,11.506,12.146,19.309c-3.047,6.684-1.331,10.199,2.576,14.197
			c7.079,7.248,17.586,11.9,21.973,21.051c14.032,29.275,17.482,36.299,15.006,57.971c8.002,3.303,5.555,30.039,8.347,35.998
			c56.243,120.045,31.348,97.396,57.038,141.672c7.647,13.182,40.764,30.613,41.01,45.936c-2.893,21.555,2.459,42.857,2.143,64.326
			c-0.143,9.568-0.659,64.617-3.146,78.322c-1.918,10.57-18.62,29.451-19.499,40.189c-1.647,20.191-11.896,30.912-14.02,51.043
			c-1.41,13.377-17.879,37.428-9.051,31.303c5.182-3.598,9.139,7.762,16.636,9.588c7.189,1.754,15.321-8.395,28.226-0.609
			c7.535,4.549,6.127-21.811,13.883-20.625l15.398,9.348c5.996-0.076,8.317,4.354,6.653,10.361
			c-1.249,4.502-1.997,9.24-0.308,13.479c2.316,5.812,1.631,11.084-0.135,16.762c-2.189,7.049,0.619,12.014,7.625,14.631
			c4.047,1.514,8.167,2.844,12.182,4.439c4.768,1.895,10.36,4.342,14.32,0.82c4.027-3.582,3.365-9.697,2.291-15.033
			c-0.095-0.471-0.211-0.939-0.285-1.412c-1.836-11.564-4.554-36.043-4.554-36.043c17.772,0.42,25.979,42.492,43.698,42.447
			c24.666-0.062,4.361,10.283,29.264,6.883c26.151-3.574,55.934-14.602,55.547-5.348c-0.779,18.699,36.788,7.943,55.957,2.385
			c6.039-1.754-4.807-5.203,3.766-7.334c7.339-1.822,12.421-4.264,9.545-12.797c-7.99-23.701-19.379-11.213-21.779-43.781
			c-0.578-7.83-0.416-25.186,2.906-31.143c8.539-15.291,11.803-30.25-0.568-45.363c-4.585-5.604-3.701-9.756,4.758-10.908
			c4.53-0.611,5.109-5.934,11.436-7.621c-16.91-14.314-7.449-31.229-5.391-44.523c2.416-15.611-2.275-19.164,5.49-32.947
			c3.74-6.639,3.536-18.764,11.024-22.766c5.769-3.084,7.902-4.703,3.579-10.857c-14.732-20.951,0.082-26.768-12.772-48.746
			c-3.853-6.588-11.009-31.086-7.579-37.535c9.414-17.719,7.984-68.006,2.088-85.104c-15.465-44.824,13.379-64.742-2.183-109.533
			c-0.573-1.646-0.247-3.582-0.337-5.383c-14.063,2.854-7.438,16.479-16.52,24.385c-4.693,4.082-9.584,8.996-8.229,16.324
			c4.146,14.506-9.253,47.734-8.095,62.465c4.561,58.018-1.812,116.16-4.273,174.299c-0.054,1.305-0.281,2.648-0.365,3.812
			c0.204,0.945,0.463,1.877,0.646,2.822c-0.65-0.539-0.733-1.574-0.646-2.822c-5.131-23.725-4.516-30.354-13.363-54.402
			c-2.647-7.189-11.84-27.027-12.805-34.305c-3.017-22.807-8.312-44.41-14.062-67.076c-4.136-16.303,1.309-30.838-2.203-47.986
			c-0.721-3.508,18.383-52.062,28.053-63.881c12.51-15.291,29.186-34.494,47.947-33.748c6.668,0.268,3.67,1.211,14.039,1.67
			c17.336-2.107,28.379-7.732,44.481-14.215C541.014,175.143,544.29,163.895,542.422,154.197z M278.705,323.615
			c-3.363,16.791-3.934,21.004-20.865,15.457c-83.604-27.389-129.121-123.566-128.117-139.881
			c10.621,6.623,18.211,8.455,27.057,16.443c9.358,8.445,37.141-6.195,50.25-5.588c29.109,1.35,24.916,5.344,53.973,7.752
			c4.045,0.336,7.354,0.072,9.624,5.422C286.432,260.443,286.626,284.049,278.705,323.615z"/>
		<path fill-rule="evenodd" clip-rule="evenodd" fill="#D14C43" d="M398.327,465.738c-1.991,21.434-4.335,42.828-6.728,64.195
			c-2.373,21.152-2.9,42.479-5.834,63.576c-1.645,11.855-0.799,23.947,1.239,35.934c6.72,39.498,7.097,57.451,27.134,91.953
			c1.594,2.748,0.291,2.242,0.795,5.496c5.32,6.904-0.579-6.742,1.535,1.998c1.332,5.516,1.078,11.146-0.863,15.74
			c-5.061,11.973-3.743,24.256-3.084,36.627c1.734,4.453,1.829,8.883,0.058,13.289c-0.269,2.592-2.091,3.859-4.2,4.213
			c-11.672,1.961-23.316,1.703-34.864-1.553c-2.402-4.939-1.419-9.873-0.206-14.807c3.788-13.289,2.855-27.158,3.979-40.768
			c0.741-8.975-0.771-9.818-8.8-6.578c-3.49,1.404-6.909,3.281-10.551,3.973c-9.924,1.883-10.492,4.365-16.266-5.953
			c-9.004-16.092-17.223-54.496-19.146-58.799c-1.254,10.322-1.343,50.176-4.289,58.014c-3.346,8.906-4.277,17.479-1.798,27.271
			c2.509,9.916-1.282,13.701-11.106,13.393c-14.806-0.471-29.566,2.498-44.391-0.287c-9.771-1.834-13.926-4.281-7.875-11.922
			c2.203-2.779,9.285-5.061,12.043-7.072c12.286-8.969,10.715-22.521,7.037-35.691c0.941-49.803,7.725-92.176,13.297-106.826
			c2.297-6.041,2.184-11.457-0.733-16.867c-4.958-9.182-5.568-19.293-6.216-29.219c-3.316-19.414-4.363-24.287-7.444-44.08
			c-0.333-2.139-18.798-85.594-9.878-105.232l0.061-3.227c2.102-12.92-1.339-25.881-2.801-38.744
			c-2.041-18.002-4.455-35.979-6.793-53.939c-2.118-16.271-3.274-32.699-6.4-48.855c-0.326-1.695-0.462-3.412-0.483-5.133
			c-0.194-14.604-4.466-27.318-15.438-37.568c-6.217-5.809-23.609-17.842-29.528-18.496c-24.952-2.75-45.575-11.672-74.807-14.406
			c-4.07-0.381-35.179-27.561-43.827-41.33c-5.074-8.082-5.08-7.738-10.567-18.219c-7.515-14.352-8.718-12.498-9.785-17.279
			c-2.906-13.025,3.019-14.604,5.929-14.133c7.518-0.146,10.238-5.199,14.714-10.375c0.032-1.889,0.273-3.922,0.22-5.602
			c-0.098-3.146-2.179-7.785,2.127-7.861c2.673-0.047,4.994,4.514,5.928,8.07c0.361,1.371,0.309,2.852,0.443,4.283
			c0.785,6.701,3.967,8.385,4.535,12.824c1.834,14.273,6.74,17.445,15.843,29.715c17.093,23.041,64.601,16.682,69.239,16.631
			c19.508-0.221,35.946-11.107,55.303-13.158c14.371-1.523,28.081-6.617,40.143-15.258c4.863-3.486,6.023-7.568,4.003-13.744
			c-4.049-12.385-7.813-24.936-10.538-37.662c-2.638-12.326-0.276-24.787,1.334-37.049c1.033-7.838,1.582-16.123,7.706-22.105
			c20.641-20.16,53.063-17.018,67.755,8.77c3.074,5.396,2.787,11.447,2.943,17.254c0.397,14.662,1.872,29.045-8.293,42.141
			c-7.559,9.734-7.83,17.428-2.988,29.248c1.883,5.764,17.746,20.814,19.936,23.316c24.042,14.914,17.266,14.666,41.166,14.521
			c3.844-0.025,34.11,1.82,43.824,5.773c3.651,4.127,60.055,31.451,64.578,31.117c15.584,9.799,2.484,14.24-4.977,31.199
			c-0.684,1.555-21.66,18.49-28.543,26.455c-8.049,9.311-62.297,29.125-71.551,32.719c-0.844,0.324,3.512-11.264,5.154-16.992
			c3.027-10.557,37.007-34.867,29.623-36.209c-12.521-6.73-46.096,7.537-46.998,12.199c-3.627,18.717-6.975,45.848-10.457,64.596
			c-0.67,3.605-1.259,7.24-2.127,10.787c-1.412,5.744-0.533,11.01,1.785,16.453c16.451,38.656,18.357,67.428,25.396,108.781
			L398.327,465.738z"/>
		<path fill="#FFFFFF" d="M483.598,178.135c-20.07,12.609-54.598,36.023-62.021,37.09c-11.611,1.666-19.939,4.65-33.336,13.414
			c10.221,8.488-3.434,15.646-1.027,23.951c1.369,4.723,21.072,6.979,26.748,8.932c5.102-4.002,38.354-28.514,41.621-33.051
			c5.924-8.221,14.871-10.156,24.07-14.441c35.101-16.352,63.35-42.914,62.268-49.406
			C538.664,145.064,500.387,167.586,483.598,178.135z"/>
	</g>
</g>
</svg>
