<?xml version="1.0" encoding="utf-8"?>
<!-- Generator: Adobe Illustrator 16.0.0, SVG Export Plug-In . SVG Version: 6.00 Build 0)  -->
<!DOCTYPE svg PUBLIC "-//W3C//DTD SVG 1.1//EN" "http://www.w3.org/Graphics/SVG/1.1/DTD/svg11.dtd">
<svg version="1.1" xmlns="http://www.w3.org/2000/svg" xmlns:xlink="http://www.w3.org/1999/xlink" x="0px" y="0px" width="600px"
	 height="800px" viewBox="0 0 600 800" enable-background="new 0 0 600 800" xml:space="preserve">
<g id="Layer_15">
	<g>
		<path fill-rule="evenodd" clip-rule="evenodd" fill="#D14C43" d="M455.129-306.006c-4.427,26.752-0.562,14.325-4.297,41.178
			c-2.816,20.245-2.125,40.777-1.076,61.219c0.18,3.512,2.05,6.11,3.66,8.787c8.442,14.035,15.387,29.118,23.723,42.945
			c7.494,12.432,23.79,73.617,14.781,71.935c-5.258-0.981-0.014,2.308-1.073,7.29c-1.071,5.029-2.503,10.273-2.118,15.285
			c1.086,14.116-6.954,22.268-16.771,29.1c-3.763,2.619-8.691,4.281-13.26,1.034c-4.549-3.233-6.6-7.776-5.139-13.505
			c2.546-9.981,5.083-19.969,7.919-29.865c1.768-6.168,0.079-9.558-6.237-9.738c-18.579-0.529-19.192-0.988-25.205-20.688
			c-1.36-0.568-3.295-2.869-3.588,0.764c-0.243,3.044,0.132,6.142,0.234,9.215c-0.744,2.781-0.85,6.026-2.346,8.26
			c-4.807,7.164-4.342,14.444-2.018,22.253c1.927,6.476,3.885,13.027,3.504,19.973c-0.611,4.358-1.222,8.724-1.834,13.088
			c-1.876,2.115-4.834,3.906-4.516,7.051c1.216,12.093-6.814,12.199-14.301,11.403c-4.984-0.531-8.962,0.73-13.421,2.416
			c-14.167,5.349-28.69,8.76-43.858,5.05c-2.902-0.71-6.386-0.991-6.613-5.474c-0.189-3.753,1.605-6.236,4.613-7.73
			c4.748-2.363,8.716-5.816,12.866-9.076c3.688-2.896,6.206-5.469,4.56-11.104c-1.944-6.651,3.569-10.753,7.258-14.621
			c3.727-3.909,5.301-7.743,4.484-12.93c5.279-12.851,6.828-26.062,3.695-39.769c-4.086-17.883-1.08-36.187-2.969-54.294
			c-2.028-19.411-6.868-38.056-10.79-56.964c-13.198-63.63-23.06-127.691-24.147-192.958c-0.382-22.933-1.562-45.871-1.246-68.79
			c0.166-12.195,2.102-24.491,4.42-36.496c2.665-13.813,2.464-27.722,3.269-41.613c0.33-5.674-0.719-8.918-7.243-7.066
			c-2.952,0.837-6.2,0.514-9.311,0.779c-6.626,0.566-9.455-2.877-10.354-9.473c-2.373-17.399-2.527-16.28-19.01-16.646
			c-9.938-0.221-19.865-1.349-29.783-2.219c-4.589-0.402-7.494-3.63-8.459-7.854c-1.364-5.99-2.229-12.598,0.831-18.029
			c1.815-3.226,6.877-2.122,9.456-0.358c7.379,5.046,17.078,2.862,24.094,9.487c3.243,3.064,7.995-0.619,10.943-3.015
			c3.013-2.449,1.581-6.523,0.01-9.824c-2.144-4.501-6.234-6.933-9.877-9.806c-3.464-2.735-3.51-6.806-1.446-9.469
			c2.855-3.686,4.501,1.102,6.484,2.479c4.99,3.469,9.136,8.22,11.523,13.649c3.641,8.275,9.238,8.916,17.205,8.647
			c17.816-0.604,19.371-2.345,15.154-20.968c-0.775-3.414-1.607-4.245-5.449-6.869c-1.545-1.056-3.39-1.674-4.939-2.738
			c-7.378-5.07-8.442-9.846-1.186-15.421c4.041-3.105,6.505-7.266,10.787-10.532c6.902-6.54,15.872-7.538,24.942-11.833
			c9.697-4.225,19.393-12.535,31.444-16.689c4.306-1.484-0.208-6.235,4.275-9.181c4.092-2.689-4.924-5.386-6.184-18.422
			c0.024-3.232-2.096-6.513-2.477-9.697c-2.638-22.052,8.234-34.465,17.439-52.705c11.462-11.391,40.401-20.83,53.025-2.644
			c5.528,7.962,9.689-1.544,10.879,20.894c-2.574,20.226-7.004,35.051-19.706,48.427c-9.644,10.155-5.388,22.102-3.338,33.019
			c3.425,18.224,10.949,35.305,13.567,54.009c2.852,20.362,0.272,72.688-7.959,90.732c-15.061,51.679-10.879,38.501-9.348,58.615
			c0.927,12.189,2.347,22.37,6.887,33.523c10.191,25.037,4.782,58.667,5.627,86.194L455.129-306.006z"/>
	</g>
</g>
<g id="Layer_11_copy">
	<g>
		<path fill-rule="evenodd" clip-rule="evenodd" fill="#D14C43" d="M194.191,175.602c15.395-4.473,88.676-32.818,104.561-35.504
			c13.939-2.357,33.504-14.785,35.527-25.143c0.611-3.131-2.465-22.137-7.5-28.783c-5.457-7.203-6.645-11.467-6.977-24.863
			c-0.062-2.59,0.484-4.225,0.58-3.996c-5.992-14.387-1.35-27.373,6.779-40.1c14.092-22.07,46.135-22.949,63.256-2.447
			c8.141,9.748,11.643,19.48,11.822,30.828c0.174,10.988,2.982,22.354,0.48,32.852c-2.482,10.396-6.521,19.883-11.77,29.842
			c-1.576,2.99,0.857,6.322,1.17,9.332c0.943,9.055,19.398,20.863,30.293,22.291c17.377,2.279,35.004,4.004,51.889,7.904
			c10.986,2.537,21.814,7.469,30.85,13.352c5.299,3.449,8.174,10.605,9.971,16.557c3.58,11.852-0.74,33.725-16.84,38.832
			c-7.637,2.422-16.08,3.088-24.199,4.357c-3.055,0.477-6.232,0.369-9.346,0.605c-13.957,1.059-25.154,2.037-31.107,17.242
			c-6.928,17.695-19.297,33.84-20.43,53.307c-0.184,3.158-3.686,6.102-5.189,9.301c-5.922,12.605-3.594,25.121,0.752,37.641
			c19.229,55.389,41.145,170.887,49.115,254.176c6.412,16.547,2.412,14.797,8.531,31.428c4.99,13.566,10.471,27.008,15.742,40.5
			c0.539,1.375,0.678,3.135,1.783,4.039c11.539,25.328,8.75,32.301,14.527,61.637c-0.713,26.488-6.02,24.994-10,43.162
			c-0.994,4.529-4.535,9.131-8.281,12.668c-7.27,6.869-15.336,7.404-22.023-0.164c-7.855-8.891-13.695-19.203-19.158-29.373
			c-5.223-9.721,0.459-10.75-3.906-20.918c-16.422,2.977-3.93-3.531-20.016-0.617c-14.867-48.375-15.479-56.836-47.09-98.623
			c2.867,17.859,5.734,35.719,8.678,54.035c-8.189-1.076-16.242-2.137-28.197-3.709c6.414,14.156-17.996,27.299-10.074,38.15
			c13.863,18.986,10.557,38.395,6.557,58.178c-0.449,2.229-4.807,5.02-7.842,5.549c-10.146,1.764-20.514,2.615-31.994,3.959
			c-0.354-11.184-7.09-9.178-14.533-5.775L194.191,175.602z"/>
		<path fill-rule="evenodd" clip-rule="evenodd" fill="#D14C43" d="M163.697,274.039c2.074,27.656,7.732,33.24,32.4,31.965
			c-0.002,0-0.002-0.002-0.004-0.002c0.002,0,0.002,0,0.004,0.002c2.23,0.713,4.463,1.428,6.693,2.143
			c10.252,4.559,17.463,13.156,26.205,19.723c5.318,3.148,10.094,6.6,7.664,13.994c2.607-1.666,3.586-4.168,3.662-7.133
			c4.92-3.924,4.883-4.145-2.062-12.377c-6.16-9.359-16.207-16.305-17.719-28.547c-2.867-3.701,3.441-11.223-5.213-12.512
			c-6.031-4.678-11.318-10.098-16.057-16.064c-2.125-6.303-5.674-11.686-10.5-16.242l0,0c-5.541-17.943-9.701-37.4-25.516-48.408
			c-1.613-2.928-4.408-3.123-7.279-3.148c-6.621,10.697-13.174,25.584-8.021,37.457
			C154.773,249.746,158.646,252.277,163.697,274.039z"/>
		<path fill-rule="evenodd" clip-rule="evenodd" fill="#FFFFFF" d="M425.041,217.484c-0.146,1.172-3.232,23.752-3.977,34.033
			c-1.322,18.236-11.553,34.82-11.104,53.615c0.043,1.832-1.344,3.893-2.457,5.648c-1.139,1.793-1.953,3.668-1.963,5.805
			c-0.084,14.762,5.902,29.441,7.574,44.203c1.264,11.146,0.951,22.322,1.693,33.412c0.811,12.119,21.908,11.568,18.098,21.756
			c-11.275,4.471-22.574,11.23-34.234,0.799c-14.664-0.541-28.385-4.15-40.725-12.348c-5.615-2.725-9.496-7.082-12.018-12.719
			c-8.271-11.502-15.709-23.416-18.281-37.674c-2.076-23.203-6.279-46.375-1.408-69.75c0.732-3.512-0.004-7.088-0.564-10.617
			c-0.797-5.006-1.049-10.049-0.062-15.055c1.004-5.1,3.875-8.854,9.098-9.803c11.373-2.062,45.814-7.617,50.619-11.502
			c9.738-9.707,12.916-16.584,24.158-24.104c5.314-2.98,13.086-10.73,17.092-5.43C428.064,209.719,425.346,215.043,425.041,217.484z
			 M442.367,198.449c4.414-6.436,9.301-11.342,11.936-18.324c-0.012-1.111,2.328-6.941,2.41-6.977
			c2.871-1.295,10.24-6.072,12.197-5.752c-0.578-1.156-1.158-2.312-1.736-3.469c0.855-10.615-5.359-16.105-14.246-19.658
			c-2.904-2.496-6.037-4.777-8.654-7.545c-3.385-3.578-14.551,1.877-14.814,5.854c-0.037,0.588-2.576,7.17-5.105,8.996
			c-1.082,0.752-5.791,17.174-5.488,24.889c-0.598,0.607-8.98,1.865-12.574,1.889c-1.807,0.01-29.717,13.76-35.395,15.543
			c-26.91,8.461-44.797,13.744-72.797,4.959c-9.734,1.422-24.32-13.33-37.094-23.391c-0.684-0.537-29.248-13.23-29.248-13.23
			c-6.896-15.635-30.123-18.539-15.654-24.725c6.941-2.969,12.92-2.982,8.764-15.6c-2.732-8.293-1.713-19.973-5.381-24.246
			c-10.65-12.418-7.389-24.336-16.35-35.527c-11.752-14.678-20.904-18.92-38.27-11.748c-14.072,5.811-22.086,3.646-32.744,16.789
			c-15.66,19.309-16.279,29.848-4.209,47.369c4.033,5.852,8.264,10.041,9.232,19.281c1.016,9.695,10.004,14.033,16.367,15.967
			c4.164,1.266,5.016,0.012,8.916,5.102c3.715,4.852-2.125,10.904-5.16,14.307c0,0-5.777,37.557,8.42,47.791
			c14.359,11.178,13.031,17.361,19.691,33.723c4.799,4.58,8.771,9.664,10.029,16.395c4.51,7.008,11.588,11.65,16.688,18.113
			c4.42,2.211,4.113,6.287,4.086,10.24c0.223,4.6,2.105,8.57,5.115,11.928c4.881,5.439,9.533,11.049,13.816,16.955
			c2.072,2.955,6.666,5.049,3.717,9.875c0.344,2.85,0.018,5.512-2.172,7.643c-7.584,16.443-19.33,29.842-31.447,42.967
			c-10.42,9.146-8.74,20.895-19.174,30.145c-5.18,4.592-1.072,9.656,3.438,13.359c8.648,7.094,10.758,14.654,6.945,24.908
			c-2.086,5.613-37.094,13.531-42.76,14.824c-8.262,1.889-10.799,5.939-10.6,5.803c-7.146-0.434-18.227,24.885-18.227,24.885
			s-5.488,24.24-3.18,26.695c6.504,6.91,5.74,13.1,0.264,20.406c-6.029,8.047-22.143,55.867-22.146,55.869
			c-2.316,0.438-4.74,0.574-6.932,1.357c-16.805,6.025-6.281,47.271-1.109,46.037c5.662-1.35,8.486,0.73,8.549,6.629
			c0.062,5.807,2.246,10.936,5.379,15.717v-0.004v0.004c1.717,3.408-6.062,34.836-4.117,38.113
			c13.512,22.742,24.387,18.576,49.783,23.959c9.502,2.014,13.068,22.576,10.641,31.898c4.594,2.225,7.045-1.133,9.773-3.773
			c7.203-9.348,18.686,0.129,20.072,2.275c11.439,44.238,23.533,35.496,52.275,23.928c1.135,1.736,3.242-0.545,3.488,1.184
			c0.695,4.873,39.227-0.393,42.855,1.922v-0.002l0,0c2.941,1.629,4.777,5.115,8.66,5.16c2.564,2.057,5.23,3.891,8.711,3.871
			c11.211-0.062,41.27-23.949,45.633-29.207c2.824-3.406,21.775-11.982,27.582-8.188l0,0c0.551,1.25,1.1,2.5,1.648,3.752
			c3.154-0.279,6.283-1.656,9.459-0.207c20.68,3.605,20.68,3.605,28.17-15.953c0.211-0.553,10.934-46.531,12.736-53.162
			c0.672-3.789,0.459-7.635,0.682-11.455c1.139-19.525-0.701-38.748-5.66-57.686c-4.824-9.117-7.998-18.381-6.986-29.127
			c0.605-6.436,2.273-10.744,8.625-12.58c5.896-1.566,18.408-8.678,19.113-9.66c3.061-4.27,7.969-7.52,12.398-6.85
			c4.07,0.615,9.17-12.904,9.375-27.547c0.143-10.271,6.348-30.531,6.734-30.896c3.008-17.494,6.201-34.809,5.904-52.844
			c-0.762-46.588-20.629-56.023-25.469-102.492c2.422-2.361-1.664-14.023,0.758-16.385c4.379-1.688-2.406-23.516-1.465-28.051
			c1.375-6.977-4.318-11.496-6.057-17.396c0.859-10.926-4.959-20.691-5.398-31.445c-0.246-6.035,1.234-21.154-1.398-30.965
			c-1.291-5.326-7.775-8.963-6.717-14.91C438.301,212.084,439.689,202.355,442.367,198.449z"/>
		<path fill-rule="evenodd" clip-rule="evenodd" fill="#FFFFFF" d="M202.84,477.09c-0.148,1.232-0.414,2.229-1.123,2.639
			C202.062,478.838,202.477,477.975,202.84,477.09c0.139-1.148,0.174-2.5,0.365-3.779c8.453-57.135,19.318-113.816,34.307-169.586
			c3.805-14.16,6.219-28.914,12.77-42.324c2.621-6.908-1.037-12.564-4.662-17.379c-7.018-9.318-7.65-23.199-20.252-28.475
			c-0.42,1.74-0.469,3.686-1.311,5.189c-22.928,41.133-8.369,88.643-31.197,129.801c-8.668,15.629-34.682,28.18-29.168,47.125
			c2.008,6.898,1.039,12.971-3.779,18.715c-16.062,19.156-10.562,43.652-28.191,61.471c-5.178,5.236-3.482,7.193,1.334,11.223
			c6.25,5.229,13.912,11.135,16.178,18.271c4.701,14.816-3.918,24.367-4.551,40.02C144.146,560.688,212.021,454.861,202.84,477.09z"
			/>
	</g>
</g>
</svg>
