<?xml version="1.0" encoding="utf-8"?>
<!-- Generator: Adobe Illustrator 16.0.0, SVG Export Plug-In . SVG Version: 6.00 Build 0)  -->
<!DOCTYPE svg PUBLIC "-//W3C//DTD SVG 1.1//EN" "http://www.w3.org/Graphics/SVG/1.1/DTD/svg11.dtd">
<svg version="1.1" xmlns="http://www.w3.org/2000/svg" xmlns:xlink="http://www.w3.org/1999/xlink" x="0px" y="0px" width="600px"
	 height="800px" viewBox="0 0 600 800" enable-background="new 0 0 600 800" xml:space="preserve">
<g id="Layer_2">
	<g>
		<path fill-rule="evenodd" clip-rule="evenodd" fill="#FFFFFF" d="M517.871-718.796c-8.166-0.939-17.314,0.332-18.213-15.666
			c-6.019,14.595-11.494,24.92-11.16,36.557c0.213,7.443-2.03,12.912-7.195,17.627c-16.281,14.847-32.319,30.048-53.551,37.908
			c-12.936,4.884-22.158,17.85-36.307,19.076c-23.318,2.02-46.285,8.977-70.219,4.381c-9.914-1.904-20.129-3.813-30.465-3.211
			c-15.569,0.906-28.918-3.098-38.621-16.463c-3.643-5.017-9.551-7.914-14.464-11.729c-6.687-15.162-4.86-19.779,9.171-25.779
			c6.73-2.879,17.938-2.893,13.906-15.125c-2.648-8.043,0.461-20.864-4.314-23.514c-14.396-7.992-15.28-23.6-23.971-34.452
			c-11.396-14.233-20.271-18.346-37.108-11.394c-13.646,5.637-27.435,10.021-38.966,21.691c-19.411,19.65-21.401,24.775-4.08,45.936
			c4.365,5.332,9.332,9.957,7.147,18.697c-1.62,6.476,12.423,19.911,16.772,17.289c3.615-2.182,5.766-5.4,9.547-0.464
			c3.604,4.704,1.548,8.77-1.396,12.069c-5.466,6.123-11.912,10.105-20.998,9.256c-36.303-3.387-71.357,10.792-107.793,7.944
			c-7.373-0.579-14.829,4.72-16.425,13.375c-1.774,9.626,5.687,13.522,12.729,16.485c15.304,6.434,31.371,10.266,47.844,12.357
			c2.539-5.17,6.104-7.703,12.439-7.968c17.829-0.741,33.676,2.087,45.564,17.265c9.189,11.729,20.828,18.529,36.83,18.477
			c12.592-0.04,18.996,8.256,20.791,21.984c0.491,3.766,2.883,6.48,5.102,9.274c4.203,5.294,7.666,11.019,10.121,17.317
			c1.508,3.871,2.588,8.209-0.764,11.321c-4.016,3.731-7.422-0.59-10.795-2.171c-8.729-4.096-13.229-13.371-21.443-18.04
			c-4.758-2.702-9.871-9.199-15.301-0.687c-0.099,3.628,0.631,7.217,2.121,10.438c7.544,16.296,5.676,31.625-2.096,47.631
			c-10.113,20.826-13.633,43.438-13.365,66.577c0.086,7.278-0.832,14.177-4.953,20.524c-13.782,21.223-24.055,43.975-28.934,67.523
			c0.084,1.238,0.007,2.267-0.613,2.801c0.176-0.938,0.42-1.864,0.613-2.801c-0.078-1.154-0.295-2.488-0.348-3.783
			c-2.338-57.707-2.225-115.418,2.109-173.005c1.102-14.622,0.722-29.567,4.66-43.964c1.289-7.276-3.359-12.151-7.818-16.204
			c-8.632-7.848-11.838-21.37-25.204-24.204c-0.087,1.787,0.226,3.708-0.319,5.344c-14.787,44.458-29.775,88.85-44.469,133.34
			c-5.604,16.971-10.822,34.146-1.875,51.734c3.258,6.4,3.437,12.549-0.226,19.088c-12.214,21.816-22.248,44.856-36.247,65.65
			c-4.111,6.109-2.082,7.717,3.4,10.775c7.114,3.975,15.744,8.35,19.299,14.938c7.379,13.683,20.693,24.672,22.989,40.168
			c1.956,13.195,15.915,26.601-0.155,40.807c6.013,1.676,10.17,3.324,14.474,3.933c8.043,1.144,8.88,5.263,4.524,10.825
			c-11.758,15.002-8.657,29.852-0.543,45.027c3.158,5.912,5.469,11.795,2.764,19.102c-9.848,26.59-13.312,54.525-17.091,82.455
			c-1.19,8.821,2.097,10.893,9.073,12.703c8.144,2.115,15.873-5.285,21.615-3.545c18.215,5.52,36.777,5.492,55.238,7.553
			c17.645,1.967,35.209,4.671,52.789,7.18c23.664,3.375,44.947-9.6,68.391-9.536c16.84,0.044,33.656-5.376,50.547-5.793
			c11.689-0.292,16.057-12.786,27.01-12.731c0.568,0.004,1.75-3.102,1.634-4.686c-0.747-10.255,6.265-11.189,13.786-12.391
			c7.371-1.178,15.053,1.365,22.215-3.15c12.264-7.729,14.652-6.321,17.375,8.684c0.438,2.39-0.688,5.741,3.877,5.682
			c3.236-4.029-1.262-12.02,5.572-13.762c7.125-1.812,10.886,4.951,15.809,8.52c0.716,0.52,1.37,1.179,1.91,1.883
			c13.467,17.6,31.686,15.521,50.105,11.846c3.281-0.652,7.57-2,7.806-6.287c0.263-4.709-4.3-4.981-7.517-6.162
			c-13.363-4.916-28.039-11.693-32.146-24.563c-4.781-14.99-14.502-28.022-16.133-44.191c-2.016-19.979-5.223-39.836-7.915-59.747
			c-0.231-10.692-3.19-21.068-3.739-31.719c-3.979-13.185-6.826-26.74-12.281-39.441c-3.625-8.438-2.707-14.408,6.917-17.697
			c9.181-3.137,12.946-10.193,12.81-19.689c-0.299-21.31,4.756-42.457,2.006-63.848c0.236-15.209-0.972-30.605,0.959-45.596
			c8-62.041,17.658-123.886,18.066-186.666c0.043-6.531,0.329-13.595,7.934-16.874c-2.354-21.511-1.277-41.86,16.87-57.54
			c7.431-6.42,14.153-13.701,20.884-20.895c3.713-3.966,6.214-7.457,3.316-14.089c-3.385-7.746,0.818-15.256,8.064-19.167
			c5.889-3.179,9.855-7.403,12.768-13.073C527.845-718.46,522.518-718.264,517.871-718.796z M381.049-509.803
			c-13.35,15.681-26.836,31.2-41.43,45.728c-6.344,6.315-12.951,12.405-20.986,16.573c-15.166,7.863-21.143,4.928-24.338-11.739
			c-7.531-39.271-2.836-77.14,12.187-114.089c2.157-5.309,5.301-5.049,9.146-5.381c27.613-2.391,55.195-5.453,82.856-6.793
			c12.46-0.604,22.369-4.24,31.261-12.624c8.408-7.927,17.389-15.248,27.482-21.824C450.23-605.508,386.352-516.033,381.049-509.803
			z"/>
	</g>
</g>
<g id="Layer_12">
	<g>
		<path fill-rule="evenodd" clip-rule="evenodd" fill="#D14C43" d="M545.412,714.99c4.676-8.958,2.68-16.866-0.12-25.702
			c-2.5-7.891-28.187-132.075-29.967-135.397c-6.001-11.199-12.291-22.269-13.402-35.315c0.35-0.896-3.534-8.335-3.534-8.335
			s-1.044,0.836-1.684,1.971c-18.356,4.74-37.761-2.956-56.14,5.986c-10.546,5.132-15.235,7.434-13.075,16.024
			c1.903,7.566,5.603,14.663,7.916,22.152c3.717,12.032,11.21,23.239,10.815,36.104c-0.356,11.628,1.591,21.981,7.183,32.173
			c4.162,7.582,8.667,14.862,13.438,22.05c5.695,8.577,3.802,12.736-6.434,15.301c-1.238,0.311-2.676,0.146-3.754,0.711
			c-9.303,4.848-25.315,1.547-23.94,19.545c0.055,0.724-0.971,1.611-1.625,2.293c-4.827,5.03-9.386,10.377-14.646,14.909
			c-3.612,3.113-2.846,5.787-1.071,9.049c13.201-1.452,22.396-8.191,29.004-19.838c6.8-11.985,19.97-15.464,31.381-9.613
			c1.589,0.815,2.317,2.143,2.497,3.8c0.139,1.269,0.137,2.559,0.122,3.84c-0.148,14.011-0.425,28.156,7.22,40.649
			c6.216,10.16,5.064,19.46-0.77,29.288c-7.02,11.821-15.389,21.881-28.722,26.779c-3.262,2.502-3.343,1.854-5.819,6.206
			c0.012,4.835,9.616,8.749,12.544,9.226c22.223,3.616,45.402-0.669,56.163-21.256l0.125-0.105c4.106-4.836,9.06-6.575,13.399-7.426
			c8.395-1.643,19.718-2.62,21.013-12.042c1.536-11.208,2.926-16.498-2.52-28.047C548.791,725.265,542.361,720.838,545.412,714.99z"
			/>
		<path fill-rule="evenodd" clip-rule="evenodd" fill="#FFFFFF" d="M308.518,104.468c-1.304-6.609,10.931-4.527,5.415-15.019
			c-3.623-6.896-4.445-17.325-8.303-20.547c-11.201-9.36-10.084-20.33-19.619-28.86c-12.504-11.188-21.184-13.572-35.41-4.706
			c-11.527,7.187-18.9,6.462-26.347,19.597c-10.938,19.299-9.933,28.666,3.271,42.308c4.412,4.556,8.75,7.622,10.963,15.61
			c2.32,8.383,10.869,10.879,16.753,11.643c3.853,0.501,4.418-0.729,8.601,3.177l0.562,1.714
			c12.244,24.896-18.819,30.72-3.475,60.482c17.263,33.483,26.369,39.117,26.939,41.282c16.607,62.919-6.69,55.151-24.192,115.511
			c-0.288,6.389-2.372,11.943-7.481,15.816c-17.826,13.517-33.916,27.734-51.736,41.26c-14.832,11.26-29.051,23.381-44.314,34.007
			c-20.527,14.288-17.525,26.539-38.479,40.214c-6.516,4.251-11.531,10.289-19.751,12.551
			c-17.044,4.689-33.751,10.608-50.538,16.199c-4.769,1.591-8.684,4.878-4.52,9.906c6.832,8.248,8.219,18.387,11.395,27.947
			c1.818,5.479,3.976,10.677,8.684,14.592c3.23,2.685,4.711,6.528,5.639,10.819c2.162,10.036,12.66,13.805,17.409,22.046
			c2.112,3.664,5.808,1.276,8.812,1.498c5.533,0.405,4.741,2.98,2.077,6.16c-2.667,3.18-5.381,6.322-8.009,9.531
			c-2.43,2.966-2.808,5.924,0.992,7.978c14.093,7.62,22.145,26.146,42.093,23.288c2.319-0.334,3.903,1.934,5.851,2.91
			c7.901,3.966,8.586,9.361,18.287,7.994c2.098-0.294-14.557-0.01-12.936,1.159c11.161,8.068,23.543,12.911,36.662,17.107
			c15.441,4.944,15.037,6.027,25.502-7.446c3.494-4.5,7.131-6.705,12.908-2.318c4.707,3.572,10.514,5.74,15.934,8.314
			c1.729,0.82,4.004,0.984,4.062,3.37c0.231,9.694,7.036,18.681,2.89,28.92c-0.896,2.212-0.505,5.086-0.219,7.597
			c0.359,3.104,2.164,5.447,5.435,5.863c4.36,0.555,4.224-3.321,4.802-5.82c0.857-3.714,0.719-7.655,1.525-11.389
			c0.857-3.961,2.85-7.012,7.688-7.197c4.727-0.178,8.604,0.061,10.861,5.408c4.854,11.485,12.127,18.398,26.238,19.466
			c14.314,1.085,25.776-0.892,35.328-11.962c5.713-6.617,12.799-8.654,21.586-5.628c4.903,1.688,6.921,2.657,2.998,7.497
			c-6.043,7.453-7.461,16.391-5.411,25.407c1.522,6.694,1.166,13.352,1.823,20.007c0.367,3.704-2.793,10.416,2.71,10.444
			c6.166,0.032,2.554-6.964,3.489-10.804c0.221-0.913,0.051-1.917,0.113-2.877c0.205-3.186-0.02-6.635,3.939-7.914
			c4.094-1.318,7.301-0.214,10.135,3.178c6.092,7.289,11.286,14.856,15.067,23.824c4.874,11.574,12.707,20.411,27.59,18.738
			c7.268-0.82,14.732,0.275,22.091,0.022c4.168-0.144,8.683-10.025,4.836-11.961c-15.306-7.697-23.262-19.442-27.053-36.29
			c-2.064-9.164-5.206-18.035-5.307-27.585c-1.774-3.262-2.541-5.936,1.071-9.049c5.26-4.532,9.818-9.879,14.646-14.909
			c0.654-0.682,1.68-1.569,1.625-2.293c-1.375-17.998,14.638-14.697,23.94-19.545c1.078-0.564,2.516-0.4,3.754-0.711
			c10.235-2.564,12.129-6.724,6.434-15.301c-4.771-7.188-9.275-14.468-13.438-22.05c-5.592-10.191-7.539-20.545-7.183-32.173
			c0.395-12.864-7.099-24.071-10.815-36.104c-2.313-7.489-6.013-14.586-7.916-22.152c-2.16-8.591,2.529-10.893,13.075-16.024
			c18.379-8.942,37.783-1.246,56.14-5.986c5.29-7.146,12.545-8.176,20.791-7.257c3.472,0.387,8.4,1.893,9.93-3.054
			c1.276-4.13-0.923-8.071-3.781-11.198c-8.515-9.313-17.25-18.43-25.641-27.851c-1.689-1.894-13.292-15.546-16.176-17.734
			c-10.608-8.041-21.2-16.118-32.112-23.734c-13.19-9.208-20.796-22.528-28.58-36.022c-8.824-15.299-17.021-30.916-25.473-46.402
			c-2.303-4.22-3.312-8.172-3.344-12.634c-0.084-12.802,4.945-25.606,4.711-38.403c-0.113-6.024,5.318-22.986,0.2-26.713
			c-8.376-6.097-7.731-62.124-7.904-63.617c-1.31-11.303-2.587-14.949-2.336-19.813c0.131-2.538-1.569-14.907-1.048-17.329
			c0.077-14.261,1.131-16.114-11.985-23.206c-7.066-3.821-12.073-8.259-17.764-10.916c-2.857-1.333-0.431-2.88,0.62-4.369
			c23.984-14.511,22.637,6.421,39.704-6.536c4.226-1.75-1.759-1.265,12.197-3.578c2.243-0.371,3.224,0.319,5.389,0.082
			c10.991-1.207,11.112-3.148,25.942-3.602c-51.922-9.699-53.378,0.008-56.775,0.516c-18.903,2.824-18.932,10.557-49.293,10.413
			C328.248,119.224,309.628,110.088,308.518,104.468z"/>
		<path fill-rule="evenodd" clip-rule="evenodd" fill="#D14C43" d="M523.768,240.392c4.07-10.072,9.766-21.537,13.171-32.122
			c0.574-1.786,3.947-39.282,3.937-46.97c3.472-21.069-13.1-21.81-17.704-42.333c-6.74-30.054-9.329-37.82,3.495-46.017
			c4.106-2.626,6.154-13.523,6.801-15.183c1.731-4.45,2.38-4.772,4.861-13.496c0.518-1.821,2.304-22.69-4.749-29.359
			c-18.93-17.898-24.15-15.803-39.041-13.195c-12.664,2.219-19.065,7.661-26.839,18.696c-9.069,12.873-2.365,19.528-6.882,34.037
			c4.807,18.283,2.38,38.669-20.087,39.328c-3.113,0.092-25.27,8.627-28.017,9.05c-6.102,0.94-23.136,11.33-38.613,12.182
			c-8.829,0.486-10.651,2.863-20.301,10.12c22.512,19.439,19.844,14.343,31.17,24.011c3.279-5.785,2.506-4.571,17.6-8.893
			c7.122-2.039,2.68,2.424,0.503,7.937c-4.74,12-2.854,3.155-3.075,4.229c-2.846,10.667-6.857,2.833-11.642,24.79
			c-0.321,1.469-0.837,3.443-2.905,3.793c-1.773,0.304-2.926-1.021-3.758-2.412c-3.119-5.206-6.455-10.298-11.027-14.304
			c-1.709-1.5-5.219-3.304-6.391-2.563c-2.245,1.415-3.439,4.498-1.204,7.491c0.532,0.713,0.722,1.807,0.768,2.736
			c0.128,2.709,2.076,5.91-1.146,7.892c-2.914,1.793-13.257,7.825-15.197,6.231c-1.201-0.986-3.068-1.165-4.217-2.209
			c-1.75-1.591,1.304-4.021-3.695-1.713c-3.07,1.416,5.018,5.179,6.857,10.836c3.842,11.812,17.367,23.116,21.944,25.404
			c3.599,1.799,6.458,1.706,7.995,5.986c3.377,9.39,2.765,11.322,11.141,17.42c5.119,3.725,4.543,10.979,4.655,17.003
			c0.235,12.797,0.06,54.728,0.144,67.529c0.031,4.462,1.041,8.414,3.344,12.634c8.451,15.486,16.648,31.104,25.473,46.402
			c7.784,13.494,15.39,26.814,28.58,36.022c10.912,7.616,21.504,15.693,32.112,23.734c2.884,2.188,11.949,13.33,11.949,13.33
			s3.888-10.456,3.806-14.293c-0.59-27.772-0.783-45.803-0.98-53.775c-0.234-9.592,1.951-19.041,2.825-22.038L523.768,240.392z"/>
	</g>
</g>
<g id="Layer_22">
	<g>
		<path fill-rule="evenodd" clip-rule="evenodd" fill="#D14C43" d="M152.349,968.172c-58.443,38.068,4.744,33.881,24.777,37.588
			c36.387,6.733,105.123-1.269,141.029-2.624c23.08-0.868,168.982,11.28,80.281-33.818c-10.191-3.848-63.396-19.226-73.926-20.771
			c-22.473-3.292-29.334-19.214-30.77-37.484c-0.738-9.375,4.957-19.574,8.906-28.908c3.521-8.315,8.67-16.186,9.43-25.253
			c1.449-17.261-0.885-34.565-16.15-44.944c-16.211-11.019-29.105-15.803-47.656-8.388c-17,6.794-23.387,25.011-28.246,41.181
			c-4.459,14.838-2.186,30.403-1.18,45.893c0.65,9.999,4.223,12.301,12.391,15.428c10.354,3.961,8.322,5.217,4.459,24.004
			c-4.27,20.786-18.979,19.361-31.891,22.848C186.505,957.591,168.456,959.482,152.349,968.172z"/>
	</g>
</g>
</svg>
