<?xml version="1.0" encoding="utf-8"?>
<!-- Generator: Adobe Illustrator 16.0.0, SVG Export Plug-In . SVG Version: 6.00 Build 0)  -->
<!DOCTYPE svg PUBLIC "-//W3C//DTD SVG 1.1//EN" "http://www.w3.org/Graphics/SVG/1.1/DTD/svg11.dtd">
<svg version="1.1" xmlns="http://www.w3.org/2000/svg" xmlns:xlink="http://www.w3.org/1999/xlink" x="0px" y="0px" width="600px"
	 height="800px" viewBox="0 0 600 800" enable-background="new 0 0 600 800" xml:space="preserve">
<g id="Layer_10_copy">
	<g>
		<path fill-rule="evenodd" clip-rule="evenodd" fill="#FFFFFF" d="M448.168-590.557c-0.146,1.168-3.227,23.701-3.969,33.961
			c-1.318,18.197-11.527,34.745-11.08,53.5c0.043,1.829-1.338,3.886-2.451,5.637c-1.137,1.789-1.947,3.66-1.961,5.793
			c-0.082,14.729-3.389,29.378-1.721,44.108c1.262,11.123,0.949,22.274,1.691,33.341c0.809,12.094-5.98,20.824-9.781,30.99
			c-11.252,4.461-22.529,11.205-34.164,0.797c-14.631-0.539-28.324-4.143-40.637-12.321c-5.605-2.718-9.475-7.067-11.992-12.69
			c-8.254-11.479-15.674-23.367-18.244-37.594c-2.072-23.155-6.264-46.277-1.404-69.604c0.732-3.503-0.002-7.072-0.564-10.594
			c-0.795-4.995-1.045-10.026-0.061-15.023c1-5.088,3.865-8.835,9.078-9.781c11.348-2.059,45.715-7.601,50.512-11.477
			c9.719-9.687,51.924-29.84,61.227-33.333c5.307-2.974,13.061-10.708,17.057-5.419
			C451.186-598.306,448.473-592.994,448.168-590.557z M465.459-609.552c4.404-6.422,9.281-11.317,11.906-18.286
			c-0.008-1.108,2.324-6.925,2.406-6.961c2.865-1.293,10.219-6.06,12.172-5.74c-0.576-1.152-1.154-2.308-1.73-3.461
			c0.852-10.592-5.35-16.071-14.219-19.616c-2.898-2.491-6.023-4.767-8.635-7.528c-3.377-3.572-14.521,1.873-14.781,5.841
			c-0.039,0.587-2.57,7.153-5.098,8.976c-1.078,0.75-5.777,17.138-5.477,24.836c-0.594,0.605-8.959,1.861-12.547,1.886
			c-1.803,0.009-66.775,23.01-72.439,24.791c-26.855,8.442-44.701,13.713-72.645,4.946c-9.713,1.42-24.268-13.301-37.014-23.341
			c-0.68-0.535-29.186-13.201-29.186-13.201c-6.882-15.602-30.059-18.499-15.62-24.673c6.927-2.962,12.892-2.976,8.745-15.564
			c-2.727-8.275-1.709-19.931-5.369-24.196c-10.627-12.39-7.373-24.283-16.314-35.451c-11.729-14.647-20.861-18.879-38.188-11.724
			c-14.043,5.8-22.041,3.641-32.676,16.753c-15.627,19.269-16.245,29.786-4.199,47.269c4.025,5.84,8.246,10.021,9.212,19.24
			c1.014,9.675,9.983,14.005,16.331,15.934c4.156,1.263,5.006,0.012,8.897,5.091c3.708,4.841-2.118,10.881-5.149,14.276
			c0,0-5.764,37.476,8.402,47.689c14.33,11.154,13.006,17.323,19.65,33.651c4.789,4.569,8.752,9.643,10.008,16.359
			c4.5,6.991,11.562,11.625,16.652,18.073c4.411,2.208,4.104,6.275,4.076,10.22c0.225,4.59,2.1,8.552,5.105,11.901
			c4.871,5.428,9.512,11.025,13.787,16.92c2.066,2.949,6.652,5.037,3.708,9.854c0.343,2.844,0.019,5.5-2.167,7.625
			c-7.568,16.408-19.289,29.778-31.379,42.876c-10.4,9.126-18.003,20.849-28.415,30.08c-5.169,4.583-1.069,9.635,3.432,13.331
			c8.628,7.079,10.735,14.624,6.93,24.855c-2.083,5.602-37.015,13.502-42.669,14.792c-8.244,1.885-20.056,5.927-19.858,5.79
			c-7.13-0.432-18.188,24.833-18.188,24.833s-5.478,24.188-3.171,26.639c6.487,6.895,5.727,13.072,0.264,20.362
			c-6.019,8.029-22.099,18.626-22.103,18.629c-2.311,0.436-4.729,0.571-6.914,1.354c-16.77,6.012-6.268,47.17-1.108,45.939
			c5.651-1.348,8.468,0.729,8.53,6.613c0.062,5.794,2.241,10.912,5.366,15.684v-0.003c0,0,0,0.002,0.001,0.003
			c1.714,3.402,3.232,6.922,5.174,10.19c13.482,22.694,33.612,55.66,58.955,61.03c9.482,2.01,13.042,22.529,10.62,31.831
			c4.582,2.22,7.027-1.131,9.752-3.765c7.186-9.329,18.645,0.128,20.029,2.269c11.414,44.146,32.764,63.263,61.445,51.72
			c1.131,1.732,3.234-0.545,3.48,1.181c0.693,4.862,0.008,8.815,2.767,8.741c5.652-0.152,7.619-4.613,5.652-10.467
			c-1.71-5.087,1.369-6.326,5.73-5.469c2.855,0.561,5.648,1.446,8.471,2.188c3.621,2.308,7.242,4.614,10.863,6.924v-0.002
			c0,0,0,0,0.002,0c2.934,1.626,4.766,5.104,8.643,5.147c2.555,2.055,5.217,3.884,8.689,3.865
			c11.189-0.062,22.381,0.049,33.561-0.287c4.732-0.145,9.279-1.641,12.951-4.979c2.922-0.735,5.859-1.679,5.578-5.443
			c-0.264-3.559-2.555-5.913-5.932-6.652c-4.512-0.991-9.125-1.522-13.695-2.251c-0.389-0.333-0.793-0.479-1.213-0.465
			c-11.123-4.314,9.932-40.942,14.285-46.189c2.818-3.399,21.73-11.957,27.525-8.17l0,0c0.549,1.247,1.096,2.495,1.645,3.743
			c3.146-0.278,6.27-1.651,9.439-0.206c20.633,3.597,20.633,3.597,28.107-15.918c0.211-0.553,10.912-9.312,12.713-15.929
			c0.67-3.78,0.457-7.618,0.68-11.431c1.135-19.483-0.701-38.666-5.65-57.562c-4.811-9.097-7.98-18.342-6.971-29.065
			c0.605-6.421,2.27-10.72,8.605-12.553c5.885-1.563,18.371-8.659,19.074-9.64c3.053-4.262,7.953-7.504,12.371-6.835
			c4.064,0.614,9.15-12.876,9.355-27.488c0.145-10.249,6.336-30.467,6.721-30.83c3-17.456,6.186-34.736,5.891-52.731
			c-0.762-46.488,0.762-93.027-4.068-139.396c2.418-2.355,4.836-4.713,7.252-7.068c4.369-1.686,6.881-4.906,7.818-9.432
			c1.373-6.96-4.311-11.472-6.045-17.359c0.859-10.902-4.947-20.646-5.385-31.378c-0.248-6.022,1.23-21.109-1.395-30.898
			c-1.291-5.316-7.762-8.943-6.705-14.879C461.398-595.946,462.785-605.655,465.459-609.552z"/>
	</g>
</g>
<g id="Layer_20_copy">
	<g>
		<path fill-rule="evenodd" clip-rule="evenodd" fill="#FFFFFF" d="M418.457,274.591c-4.107,9.857-18.561,39.925-21.395,50.235
			c-3.805,13.839-2.193,27.009,6.006,38.575c14.871,20.975,28.381,35.223,29.41,59.818c0.584,13.951,2.605,27.523,6.906,40.606
			c6.074,18.479,21.684,25.987,38.766,31.468c19.48,6.248,16.422,22.588,35.863,28.963c33.312,10.924-14.795,38.855,20.379,41.189
			c11.99,0.797,41.43,49.271,35.359,46.425c-6.877-3.227,16.416,26.671,13.211,33.903c-5.359,12.103-14.973,15.092-26.98,14.477
			c-7.928-0.406-27.109,2.024-28.713,1.965c-6.141-0.229-14.967,54.812-34.391,56.731c-17.908,1.77-27.881-3.052-27.613,7.122
			c0.258,9.609,0.93,9.819,6.834,18.397c2.43,3.528,2.447,7.524-1.957,10.023c-4.256,2.41-4.711-2.245-6.592-3.967
			c-2.453-2.245-4.77-4.74-6.67-7.46c-1.719-2.463-2.92-6.175-6.477-4.866c-3.361,1.237-2.336,5.295-2.689,8.214
			c-1.02,8.479-0.197,17.763-5.082,24.934c-11.162,16.379-27.943,24.748-46.902,28.413c-8.961,1.734-14.287-6.107-9.672-14.017
			c5.186-8.881,11.482-17.129,17.559-25.459c2.533-3.473,3.512-6.973,2.521-12.105c-5.641,3.344-8.879,8.058-11.24,13.28
			c-3.352,7.417-8.473,11.106-16.904,11.579c-15.373,0.859-30.717,1.17-46.084,0.52c-3.031-0.129-6.488-0.185-7.967-3.509
			c-1.584-3.567,0.453-6.378,2.637-9.127c3.83-4.813,8.777-8.202,13.867-11.442c2.238-1.425,5.158-2.139,5.594-6.55
			c-4.092,0-8.191,0.204-12.262-0.042c-8.826-0.531-14.529-5.858-16.049-14.664c-2.119-12.278-6.66-14.376-17.148-7.847
			c-2.707,1.686-5.639,2.76-8.74,2.402c-6.408-0.739-11.205,1.406-14.945,6.698c-3.156,4.466-7.473,3.369-11.561,1.419
			c-2.725-1.298-5.275-2.95-7.902-4.447c-2.629-6.2-9.198-5.229-13.91-6.944c-17.33-6.308-35.021-11.574-53.272-2.829
			c-8.555-2.327-11.585-6.945-8.578-16.089c3.587-10.91,8.483-21.229,12.56-31.903c6.673-11.253,12.519-23.128,20.276-33.579
			c6.632-8.935,9.48-18.043,9.275-28.902c-0.182-9.465-1.729-19.193,1.148-28.402c14.224-45.524,36.968-86.231,69.368-121.42
			c3.871-4.202,7.648-8.438,9.205-14.408c5.6-21.487,7.492-43.499,7.883-65.474c0.637-35.519-2.23-71.047,0.281-106.614
			c0.602-8.532,2.994-9.928,10.227-7.019c9.59,3.854,19.264,7.508,28.963,11.082C369.703,280.889,399.59,267.716,418.457,274.591z"
			/>
		<path fill-rule="evenodd" clip-rule="evenodd" fill="#D14C43" d="M186.724,399.785c5.391-27.937,4.688-50.103,18.092-75.245
			c3.739-7.009,2.162-14.299,1.121-21.625c-6.137-43.112-12.708-86.215-7.057-129.962c1.291-9.997,1.674-20.508,7.746-28.964
			c9.214-12.832,8.001-27.722,8.957-41.991c0.582-8.685-6.668-15.204-10.916-22.392c-4.518-7.646-9.51-14.986-11.408-23.868
			c-5.394-25.239,7.387-45.856,35.147-53.017c3.556-0.916,7.097-2.081,10.756-2.41c27.693-2.49,34.432,10.336,45.865,25.748
			c2.982,4.019,2.492,7.175,2.809,12.664c0.229,3.955-0.746,5.662,5.238,11.677c2.311,2.321,5.639,2.844,5.248,6.954
			c-3.836,12.467,1.748,18.061,2.916,26.743c1.449,10.759-3.492,15.044-12.561,17.36c-5.086,1.3-13.508,1.98-11.359,8.461
			c1.98,5.979,8.912,10.805,13.564,9.402c13.432-4.052,20.389-13.795,38.182-23.936c11.518-9.292,22.096-22.661,31.916-33.689
			c3.078-3.453,5.988-5.669,10.459-5.993c-3.826,5.079-7.133,10.7-11.611,15.143c-11.27,11.182-15.691,23.601-9.184,38.808
			c-1.754,2.229-4.396,5.638-4.729,8.597c-2.125,18.925-7.123,12.899-11.893,19.63c-6.232,8.795-14.83,12.562-23.061,17.222
			c-14.006,7.927-14.033,9.472-7.945,19.497c4.676,7.695,11.867,10.16,12.498,19.981c-1.402,0.843,6.982,33.832,21.186,36.571
			c13.549,2.61,27.133,20.695,41.086,20.163c6.975-0.265,14.145,1.409,20.973,3.71c9.773,3.293,19.117,3.25,28.414-4.354
			c1.586-1.3,4.742,3.319,7.174,3.05c7.904,4.648,10.643,9.395,6.977,19.413c-3.727,10.182-9.881,9.704-20.354,12.918
			c-4.605,1.412-8.332,4.675-13.514,2.54c-25.553-3.295-53.598-7.646-53.598-7.646s-22.373-14.228-31.963-18.082
			c-7.232-2.909-9.625-1.514-10.227,7.019c-2.512,35.567,0.355,71.096-0.281,106.614c-0.391,21.975-2.283,43.986-7.883,65.474
			c-1.557,5.971-5.334,10.206-9.205,14.408c-32.4,35.188-55.145,75.896-69.368,121.42c-2.878,9.209-1.33,18.938-1.148,28.402
			c0.205,10.859-2.644,19.968-9.275,28.902c-7.758,10.451-13.604,22.326-20.276,33.579c0.999-14.404,2.001-28.808,3.001-43.211
			c-0.83-0.258-1.66-0.517-2.491-0.773c-6.801,10.116-13.81,20.1-20.358,30.377c-13.939,21.876-27.652,43.899-41.427,65.882
			c-2.901,4.629-6.251,9.09-8.388,14.061c-5.969,13.885-11.845,10.566-21.84,6.898c-3.244-1.19-6.234-4.994-9.353-1.649
			c-2.954,3.165-3.849,7.728-1.085,11.925c8.018,12.171,11.61,27.414,25.339,35.666c4.144,2.494,2.523,5.619-0.941,7.893
			c-7.462,4.895-15.847,3.938-23.064,1.096c-18.354-7.229-34.572-17.72-44.479-35.773c-1.345-2.448-2.729-4.812-2.914-7.668
			c-0.295-4.533-1.579-4.344-6.558-4.531c-10.159-0.382-13.153-12.438-20.673-18.021c-2.087-1.552-3.478-5.246-0.77-8.011
			c6.255-6.393,9.108-15.052,14.818-21.779c0.379-0.447,1.47-0.673,1.472-1.002c0.05-15.147,14.101-17.993,22.811-24.947
			c13.981-11.164,22.95-26.066,32.717-40.276c16.831-24.491,36.304-46.046,61.191-62.544c5.293-3.507,10.021-7.871,14.955-11.904
			c7.377-6.028,8.933-14.678,8.624-23.188c-0.762-20.88,1.303-41.704,4.581-62.46C179.568,473.675,183.362,417.205,186.724,399.785z
			"/>
		<path fill-rule="evenodd" clip-rule="evenodd" fill="#FFFFFF" d="M350.645,109.653c-6.508-15.207-2.086-27.626,9.184-38.808
			c4.479-4.442,7.785-10.063,11.611-15.143c1.307-2.729,3.539-4.805,6.465-3.77c2.812,0.996,2.229,3.991,1.646,6.448
			c-0.697,2.942,0.422,5.725,1.838,7.896c5.822,8.924,1.832,17.604-1.742,25.181c-5.793,12.282-6.328,16.972,1.627,27.115
			c3.568,4.552,7.113,9.13,10.496,13.821c3.473,4.818,6.955,4.516,8.158-0.992c4.6-21.106,22.074-32.51,35.133-47.133
			c3.025-3.386,6.055-6.906,8.701-10.482c4.494-6.08,10.631-6.401,15.465-3.43c15.457,9.506,31.656,18.248,38.939,36.96
			c5.729,14.712,4.232,42.624-13.049,52.769c-9.082,5.331-16.686,12.668-28.145,14.419c-8.758,1.339-10.859,10.214-11.949,18.532
			c-2.242,17.158-2.439,44.788-10.676,60.689c-2.432,0.262-5.588-0.357-7.174,0.942c-9.297,7.604-18.641,4.647-28.414,1.354
			c-6.828-2.301-13.998,0.025-20.973,0.29c-13.953,0.532-27.537-11.553-41.086-14.163c-14.203-2.739-25.521-15.861-36.994-23.446
			c-15.576-10.3-30.312-7.437-45.177-3.37c-6.303,1.725-3.973-0.536,1.173-7.439c1.369-1.837,2.752-2.832,1.66-5.702
			c-1.059-2.788-2.052-3.267-4.881-3.846c-3.3-0.675-8.384,3.996-8.336-0.268c0.048-4.391,6.197-4.894,10.56-5.01
			c9.513-0.255,18.983,2.268,28.464,1.143c9.445-1.12,29.943,6.21,31.346,5.358c7.721,1.803,14.77,0.774,22.088,3.62
			c11.154,4.336,20.668,0.22,30.895-6.144c7.512-4.674,9.789-9.844,8.586-18.123c-1.303-8.975-5.91-16.59-9.055-24.778
			C361.361,139.386,360.23,122.952,350.645,109.653z"/>
		<path fill-rule="evenodd" clip-rule="evenodd" fill="#D14C43" d="M190.251,716.674c18.252-8.745,35.942-3.479,53.272,2.829
			c4.712,1.715,11.281,0.744,13.91,6.944c-3.218,7.501,0.359,12.538,5.9,17.126c9.135,7.563,18.949,13.188,31.348,12.435
			c0.914-0.056,1.924-0.165,2.748,0.138c6.322,2.328,15.455,2.65,14.693,11.956c-0.645,7.847-9.189,7.183-14.51,7.441
			c-22.283,1.079-44.702,2.114-66.211-5.935c-1.97-0.736-4.826-2.581-5.63-0.16c-3.573,10.77-12.39,5.47-18.911,6.354
			c-5.69,0.771-12.707,1.803-17.124-0.755c-4.91-2.843-0.187-10.249-1.711-15.549C183.863,744.997,189.101,730.931,190.251,716.674z
			"/>
		<path fill-rule="evenodd" clip-rule="evenodd" fill="#FFFFFF" d="M409.371,525.884c4.689-14.947-0.201-26.847,9.227-39.207
			c4.541-5.953,13.748-8.926,21.396-11.737c5.893-2.167,8.15-3.437,5.043-10.113c-10.578-22.724,2.867-43.925-5.785-67.379
			c-2.596-7.034-1.459-13.077,2.76-18.893c11.586-15.972-8.664-36.567-11.547-54.205c-9.201-56.289,20.576-95.747,14.453-132.713
			c-0.285-1.699,0.324-3.547,0.518-5.327c-13.643,0.712-8.924,13.564-18.676,19.967c-5.037,3.309-10.391,7.397-10.256,14.785
			c1.641,14.834-1.068,29.537-2.268,44.15c-4.717,57.555-23.625,114.577-34.955,171.212c-0.252,1.269-0.674,2.553-0.932,3.681
			c0.043,0.955,0.141,1.908,0.166,2.863c-0.529-0.626-0.443-1.653-0.166-2.863C377.211,416.081,405.377,538.608,409.371,525.884z"/>
	</g>
</g>
<g id="Layer_0-4_copy">
	<g>
		<path fill-rule="evenodd" clip-rule="evenodd" fill="#D14C43" d="M427.75,957.629c-12.473,13.031-26.521,21.083-45.299,24.559
			c-34.105,6.311-67.439,0.465-101.092-0.805c-21.633-0.814-32.599-16.342-43.684-31.699c9.551-3.605,18.84-9.002,28.707-10.449
			c21.061-3.086,27.492-18.01,28.84-35.133c0.689-8.789-4.646-18.348-8.35-27.097c-3.299-7.795-8.125-15.172-8.836-23.67
			c-1.357-16.18,0.83-32.4,15.135-42.127c15.193-10.328,33.596-14.812,50.982-7.863c15.934,6.371,21.018,23.443,25.572,38.6
			c4.18,13.908,2.051,28.499,1.105,43.017c-0.609,9.372-3.703,12.307-11.615,14.459c-16.914,4.602-14.109,4.891-10.49,22.5
			c4.004,19.482,18.691,18.148,30.793,21.414C395.734,947.713,412.652,949.484,427.75,957.629z"/>
	</g>
</g>
</svg>
