<?xml version="1.0" encoding="utf-8"?>
<!-- Generator: Adobe Illustrator 16.0.0, SVG Export Plug-In . SVG Version: 6.00 Build 0)  -->
<!DOCTYPE svg PUBLIC "-//W3C//DTD SVG 1.1//EN" "http://www.w3.org/Graphics/SVG/1.1/DTD/svg11.dtd">
<svg version="1.1" xmlns="http://www.w3.org/2000/svg" xmlns:xlink="http://www.w3.org/1999/xlink" x="0px" y="0px" width="600px"
	 height="800px" viewBox="0 0 600 800" enable-background="new 0 0 600 800" xml:space="preserve">
<g id="Layer_16_copy">
	<g>
		<path fill-rule="evenodd" clip-rule="evenodd" fill="#D14C43" d="M398.327-334.262c-1.991,21.434-4.335,42.828-6.728,64.195
			c-2.373,21.152-2.9,42.479-5.834,63.576c-1.645,11.855-0.799,23.947,1.239,35.934c6.72,39.498,7.097,57.451,27.134,91.953
			c1.594,2.748,0.291,2.242,0.795,5.496c5.32,6.904-0.579-6.742,1.535,1.998c1.332,5.516,1.078,11.146-0.863,15.74
			c-5.061,11.973-3.743,24.256-3.084,36.627c1.734,4.453,1.829,8.883,0.058,13.289c-0.269,2.592-2.091,3.859-4.2,4.213
			c-11.672,1.961-23.316,1.703-34.864-1.553c-2.402-4.939-1.419-9.873-0.206-14.807c3.788-13.289,2.855-27.158,3.979-40.768
			c0.741-8.975-0.771-9.818-8.8-6.578c-3.49,1.404-6.909,3.281-10.551,3.973c-9.924,1.883-10.492,4.365-16.266-5.953
			c-9.004-16.092-17.223-54.496-19.146-58.799c-1.254,10.322-1.343,50.176-4.289,58.014c-3.346,8.906-4.277,17.479-1.798,27.271
			c2.509,9.916-1.282,13.701-11.106,13.393c-14.806-0.471-29.566,2.498-44.391-0.287c-9.771-1.834-13.926-4.281-7.875-11.922
			c2.203-2.779,9.285-5.061,12.043-7.072c12.286-8.969,10.715-22.521,7.037-35.691c0.941-49.803,7.725-92.176,13.297-106.826
			c2.297-6.041,2.184-11.457-0.733-16.867c-4.958-9.182-5.568-19.293-6.216-29.219c-3.316-19.414-4.363-24.287-7.444-44.08
			c-0.333-2.139-18.798-85.594-9.878-105.232l0.061-3.227c2.102-12.92-1.339-25.881-2.801-38.744
			c-2.041-18.002-4.455-35.979-6.793-53.939c-2.118-16.271-3.274-32.699-6.4-48.855c-0.326-1.695-0.462-3.412-0.483-5.133
			c-0.194-14.604-4.466-27.318-15.438-37.568c-6.217-5.809-23.609-17.842-29.528-18.496c-24.952-2.75-45.575-11.672-74.807-14.406
			c-4.07-0.381-35.179-27.561-43.827-41.33c-5.074-8.082-5.08-7.738-10.567-18.219c-7.515-14.352-8.718-12.498-9.785-17.279
			c-2.906-13.025,3.019-14.604,5.929-14.133c7.518-0.146,10.238-5.199,14.714-10.375c0.032-1.889,0.273-3.922,0.22-5.602
			c-0.098-3.146-2.179-7.785,2.127-7.861c2.673-0.047,4.994,4.514,5.928,8.07c0.361,1.371,0.309,2.852,0.443,4.283
			c0.785,6.701,3.967,8.385,4.535,12.824c1.834,14.273,6.74,17.445,15.843,29.715c17.093,23.041,64.601,16.682,69.239,16.631
			c19.508-0.221,35.946-11.107,55.303-13.158c14.371-1.523,28.081-6.617,40.143-15.258c4.863-3.486,6.023-7.568,4.003-13.744
			c-4.049-12.385-7.813-24.936-10.538-37.662c-2.638-12.326-0.276-24.787,1.334-37.049c1.033-7.838,1.582-16.123,7.706-22.105
			c20.641-20.16,53.063-17.018,67.755,8.77c3.074,5.396,2.787,11.447,2.943,17.254c0.397,14.662,1.872,29.045-8.293,42.141
			c-7.559,9.734-7.83,17.428-2.988,29.248c1.883,5.764,17.746,20.814,19.936,23.316c24.042,14.914,17.266,14.666,41.166,14.521
			c3.844-0.025,34.11,1.82,43.824,5.773c3.651,4.127,60.055,31.451,64.578,31.117c15.584,9.799,2.484,14.24-4.977,31.199
			c-0.684,1.555-21.66,18.49-28.543,26.455c-8.049,9.311-62.297,29.125-71.551,32.719c-0.844,0.324,3.512-11.264,5.154-16.992
			c3.027-10.557,37.007-34.867,29.623-36.209c-12.521-6.73-46.096,7.537-46.998,12.199c-3.627,18.717-6.975,45.848-10.457,64.596
			c-0.67,3.605-1.259,7.24-2.127,10.787c-1.412,5.744-0.533,11.01,1.785,16.453c16.451,38.656,18.357,67.428,25.396,108.781
			L398.327-334.262z"/>
	</g>
</g>
<g id="Layer_26">
	<g>
		<path fill-rule="evenodd" clip-rule="evenodd" fill="#D14C43" d="M389.257,546.062c-2.221-6.377-12.639-11.729-6.148-17.721
			c5.861-5.41,8.951-7.566,8.567-21.643c-0.536-19.74-23.114-59.73-18.647-79.275c9.107,17.039,60.355,60.006,64.314,78.591
			c2.443,11.474,9.33,42.819,12.75,52.094c9.524,25.855,12.353,51.073,16.993,78.417c3.471,20.472,3.219,36.029,4.132,57.604
			c0.734,17.386-3.766,15.823,6.47,25.939c5.909,5.836,8.34,7.555,10.124,15.381c1.74,7.628,6.863,16.162-1.84,21.795
			c-8.979,5.815-28.666,5.416-36.055-1.283c-13.152-11.928-11.68-9.168-17.033-27.027c-1.695-5.658,7.323-9.051,0.668-5.66
			c-4.893,2.487-10.346-20.385-12.377-25.568c-4.104-36.961-10.76-38.972-21.262-81.615
			C398.003,608.332,394.915,562.296,389.257,546.062z"/>
		<path fill-rule="evenodd" clip-rule="evenodd" fill="#FFFFFF" d="M534.396,81.204c-8.168-0.939-17.316,0.332-18.215-15.666
			c-6.018,14.595-11.494,24.92-11.158,36.557c0.213,7.443-2.031,12.912-7.195,17.627c-16.282,14.848-32.32,30.049-53.552,37.908
			c-12.935,4.884-22.157,17.85-36.306,19.076c-23.319,2.02-46.287,8.977-70.221,4.381c-9.912-1.904-20.129-3.813-30.463-3.211
			c-15.57,0.906-28.919-3.098-38.623-16.463c-3.641-5.017-9.55-7.914-14.463-11.729c-6.688-15.161-4.86-19.779,9.17-25.779
			c6.731-2.879,17.938-2.893,13.908-15.125c-2.65-8.043,0.461-20.864-4.314-23.514c-14.398-7.992-15.281-23.6-23.971-34.452
			c-11.397-14.233-20.271-18.346-37.109-11.394c-13.646,5.637-27.435,10.021-38.965,21.691
			c-19.412,19.65-21.402,24.775-4.082,45.936c4.367,5.332,9.334,9.957,7.148,18.697c-1.619,6.477,12.422,19.911,16.772,17.289
			c3.615-2.181,5.767-5.4,9.548-0.463c3.603,4.703,1.547,8.769-1.397,12.068c-5.466,6.123-11.911,10.105-20.998,9.256
			c-36.302-3.387-71.356,10.792-107.792,7.944c-7.373-0.579-14.83,4.72-16.426,13.375c-1.775,9.626,5.687,13.523,12.73,16.485
			c15.303,6.434,31.371,10.266,47.842,12.357c2.54-5.17,6.104-7.703,12.441-7.968c17.828-0.741,33.676,2.087,45.564,17.265
			c9.189,11.729,20.826,18.529,36.829,18.477c12.592-0.04,18.995,8.256,20.791,21.984c0.491,3.766,2.884,6.48,5.102,9.274
			c4.203,5.294,7.666,11.019,10.121,17.317c1.509,3.871,2.587,8.209-0.765,11.321c-4.015,3.731-7.421-0.59-10.793-2.171
			c-8.729-4.096-13.23-13.371-21.444-18.04c-4.757-2.702-9.87-9.199-15.3-0.687c-0.1,3.628,0.629,7.217,2.119,10.438
			c7.545,16.296,5.676,31.625-2.094,47.631c-10.113,20.826-13.633,43.438-13.365,66.577c0.084,7.278-0.832,14.177-4.954,20.524
			c-13.782,21.223-24.056,43.975-28.935,67.523c0.084,1.238,0.008,2.267-0.612,2.801c0.176-0.938,0.42-1.864,0.612-2.801
			c-0.076-1.154-0.293-2.488-0.346-3.783c-2.338-57.707-2.227-115.418,2.109-173.005c1.1-14.622,0.721-29.567,4.658-43.964
			c1.29-7.276-3.359-12.151-7.817-16.204c-8.632-7.848-11.837-21.37-25.204-24.204c-0.086,1.787,0.227,3.708-0.318,5.344
			c-14.789,44.458-29.776,88.85-44.47,133.34c-5.604,16.971-10.823,34.146-1.874,51.734c3.258,6.4,3.436,12.549-0.227,19.088
			c-12.215,21.816-22.248,44.856-36.247,65.65c-4.111,6.109-2.081,7.717,3.399,10.775c7.115,3.975,15.744,8.35,19.299,14.938
			c7.381,13.683,20.693,24.672,22.99,40.168c1.955,13.195,15.916,26.601-0.154,40.807c6.012,1.676,10.169,3.324,14.473,3.933
			c8.043,1.144,8.88,5.263,4.523,10.825c-11.756,15.002-8.656,29.852-0.542,45.027c3.158,5.912,5.47,11.795,2.764,19.102
			c-9.849,26.59-13.312,54.525-17.091,82.455c-1.191,8.821,2.096,10.893,9.074,12.703c8.143,2.115,15.873-5.285,21.615-3.545
			c18.215,5.52,36.777,5.492,55.236,7.553c17.646,1.967,35.21,4.671,52.791,7.18c23.664,3.375,26.91-9.6,50.354-9.536
			c16.84,0.044,24.637-5.376,41.527-5.793c11.689-0.292,16.059-12.786,27.012-12.731c0.567,0.004,1.748-3.102,1.633-4.686
			c-0.748-10.254,6.266-11.189,13.787-12.391c7.37-1.178,15.051,1.365,22.214-3.15c12.263-7.729,16.455-13.535,19.179,1.469
			c0.437,2.391-0.687,5.742,3.877,5.682c3.236-4.029-1.263-10.217,5.572-11.957c7.125-1.812,10.885,4.95,15.809,8.52
			c0.717,0.52,1.37,1.178,1.91,1.882c13.467,17.6,30.783,17.325,49.204,13.649c3.28-0.652,4.863,1.607,5.099-2.68
			c0.264-4.709-3.396-6.785-6.613-7.966c-13.363-4.916-28.039-11.692-32.146-24.563c-4.782-14.99-13.602-26.219-15.23-42.388
			c-2.016-19.979-5.223-39.836-7.916-59.747c-0.23-10.691-3.19-21.068-3.74-31.719c-3.978-13.185-6.825-26.74-12.281-39.441
			c-3.625-8.438-2.705-14.408,6.918-17.697c9.18-3.137,12.945-10.193,12.811-19.689c-0.301-21.31,4.755-42.457,2.004-63.848
			c0.236-15.209-0.971-30.605,0.961-45.596c7.999-62.041,44.711-123.886,45.121-186.666c0.042-6.531,0.328-13.595,7.934-16.874
			c-2.354-21.511-1.278-41.86,16.869-57.54c7.43-6.42,14.154-13.701,20.883-20.895c3.714-3.966,6.215-7.457,3.318-14.09
			c-3.387-7.746,0.818-15.256,8.064-19.167c5.889-3.179,9.854-7.403,12.768-13.073C544.368,81.54,539.04,81.736,534.396,81.204z
			 M397.571,290.198c-13.349,15.681-26.834,31.2-41.429,45.728c-6.343,6.315-12.952,12.405-20.985,16.573
			c-15.167,7.863-21.144,4.928-24.34-11.739c-7.529-39.271-2.834-77.14,12.188-114.089c2.156-5.309,5.301-5.049,9.146-5.381
			c27.612-2.391,55.194-5.453,82.858-6.793c12.458-0.604,22.367-4.24,31.259-12.624c8.408-7.927,17.39-15.248,27.483-21.824
			C466.754,194.493,402.874,283.968,397.571,290.198z"/>
		<path fill-rule="evenodd" clip-rule="evenodd" fill="#D14C43" d="M444.275,157.63c-12.474,13.031-26.522,21.083-45.3,24.559
			c-34.105,6.311-67.439,0.465-101.094-0.805c-21.631-0.814-32.598-16.342-43.682-31.699c9.551-3.605,18.838-9.002,28.706-10.449
			c21.062-3.086,27.495-18.01,28.841-35.133c0.689-8.789-4.646-18.348-8.348-27.097c-3.301-7.795-8.127-15.172-8.84-23.669
			c-1.356-16.18,0.831-32.4,15.138-42.128c15.194-10.328,33.595-14.812,50.981-7.863c15.935,6.37,21.018,23.442,25.572,38.599
			c4.18,13.909,2.051,28.5,1.106,43.018c-0.608,9.372-3.704,12.307-11.614,14.459c-16.914,4.602-14.11,4.891-10.491,22.5
			c4.003,19.482,18.69,18.148,30.794,21.414C412.261,147.714,429.177,149.485,444.275,157.63z"/>
		<path fill-rule="evenodd" clip-rule="evenodd" fill="#D14C43" d="M116.265,214.058c-2.65-7.882-1.574-11.541,8.486-11.664
			c22.312-0.268,42.43,2.5,56.273,23.047c5.93,8.803,14.716,13.506,26.42,11.83c14.701-2.109,21.259,11.195,31.201,18.058
			c0.629,0.434,1.289,2.079,1.129,2.218c-12.48,10.68,4.087,13.773,5.633,20.787c1.115,5.059,5.681,9.418,6.527,14.455
			c0.787,4.686,0.197,11.037-2.525,14.507c-3.267,4.167-8.263-1.644-11.86-2.454c-9.361-2.105-13.226-9.445-19.114-15.065
			c-5.398-5.154-10.609-11.886-18.736-12.96c-6.469,0.869-12.019,2.322-18.369,4.332c-14.545,4.602-17.09,3.134-23.82-11.621
			c-10.842-12.388-21.684-24.774-32.525-37.162C119.843,227.327,116.073,221.634,116.265,214.058z"/>
		<path fill-rule="evenodd" clip-rule="evenodd" fill="#D14C43" d="M485.222,211.523c-1.871-0.864-5.773-0.284-5.336-2.746
			c3.234-18.134-1.088-38.415,15.117-52.968c9.635-8.652,18.84-17.783,28.1-26.844c1.582-1.548,4.773-2.775,2.48-6.23
			c-7.538-11.345-3.606-22.289,10.46-27.314c4.971-1.775,2.562-12.147,11.081-8.662c15.936,5.086,16.668,7.439,6.387,19.813
			c-2.271,2.736-4.998,5.267-7.19,7.911c-9.353,11.281-6.665,20.62-0.986,32.374c10.833,22.416-0.304,47.03-23.825,56.65
			C509.849,208.277,497.491,209.646,485.222,211.523z"/>
		<path fill-rule="evenodd" clip-rule="evenodd" fill="#D14C43" d="M446.268,201.873c-8.892,8.384-18.801,12.021-31.259,12.624
			c-27.664,1.34-55.246,4.402-82.858,6.793c-3.845,0.332-6.989,0.072-9.146,5.381c-15.021,36.949-19.717,74.818-12.188,114.089
			c3.196,16.667,9.173,19.603,24.34,11.739c8.033-4.168,14.643-10.258,20.985-16.573c14.595-14.527,28.08-30.047,41.429-45.728
			c5.303-6.23,9.461-12.59,11.8-20.287c0.718-5.254,1.22-10.548,2.191-15.755c5.658-30.38,5.694-30.374,35.484-34.725
			c12.731-10.606,19.707-24.938,26.704-39.383C463.657,186.625,454.676,193.946,446.268,201.873z"/>
		<path fill-rule="evenodd" clip-rule="evenodd" fill="#FFFFFF" d="M151.237,489.741c-2.338-57.707-2.227-115.418,2.109-173.005
			c1.1-14.622,8.721-89.567,12.658-103.964c1.29-7.276-3.359-12.151-7.817-16.204c-8.632-7.848-1.837-21.37-15.204-24.204
			c-0.086,1.787,0.227,3.708-0.318,5.344c-14.789,44.458-47.776,148.85-62.47,193.34c-5.604,16.971-10.823,34.146-1.874,51.734
			c3.258,6.4,3.436,12.549-0.227,19.088c-12.215,21.816-22.248,44.856-36.247,65.65c-4.111,6.109-2.081,7.717,3.399,10.775
			c7.115,3.975,15.744,8.35,19.299,14.938c7.381,13.683,20.693,24.672,22.99,40.168C89.491,586.597,151.29,491.036,151.237,489.741z
			"/>
	</g>
</g>
</svg>
