<?xml version="1.0" encoding="utf-8"?>
<!-- Generator: Adobe Illustrator 16.0.0, SVG Export Plug-In . SVG Version: 6.00 Build 0)  -->
<!DOCTYPE svg PUBLIC "-//W3C//DTD SVG 1.1//EN" "http://www.w3.org/Graphics/SVG/1.1/DTD/svg11.dtd">
<svg version="1.1" xmlns="http://www.w3.org/2000/svg" xmlns:xlink="http://www.w3.org/1999/xlink" x="0px" y="0px" width="600px"
	 height="800px" viewBox="0 0 600 800" enable-background="new 0 0 600 800" xml:space="preserve">
<g id="Layer_14">
	<g>
		<path fill-rule="evenodd" clip-rule="evenodd" fill="#D14C43" d="M432.704-252.175c2.477-22.088-3.617-44.207-1.559-66.363
			l2.897-38.4c-2.136-47.976,7.969-50.819,1.375-105.555c-2.397-5.627-4.253-11.07-2.791-17.01c0.896-3.666,1.505-7.425,2.197-11.15
			c3.6-19.382,0.438-47.428,4.188-66.777c0.933-4.82,7.26-10.473,7.964-12.077c7.713-17.533,8.462-26.564,12.043-48.421
			c-4.212-19.771-6.211-18.441-9.985-22.708c-10.044-4.087-5.105-14.726-43.39-20.98c-2.264-2.585-18.661-18.145-20.607-24.104
			c-5.006-12.22-4.725-20.172,3.088-30.236c10.51-13.537,8.984-28.404,8.575-43.561c-0.163-6.006,0.135-12.26-3.044-17.838
			c-15.189-26.658-48.705-29.906-70.043-9.066c-6.331,6.186-6.898,14.751-7.965,22.852c-1.666,12.678-4.107,25.559-1.38,38.299
			c2.818,13.157,6.708,26.134,10.894,38.936c2.088,6.386,0.889,10.604-4.137,14.209c-12.47,8.932-27.723,27.238-41.499,33.014
			c-23.435,9.825-31.812,19.917-48.549,26.849c-3.046,1.262-24.835-6.989-34.72-4.962c-0.718-0.201-1.648-6.185-2.826-5.823
			c-5.867,1.796-14.936,0.323-19.807-7.398c-3.197-5.066-6.934,0.31-4.159,4.476c2.03,3.058,3.214,6.93,1.611,9.999
			c-1.573,3-4.153,7.654-7.37,5.157c-6.957-5.397-7.937,2.462-14.752-1.259c-2.383-1.304-6.44-3.351-6.953,0.279
			c-0.861,6.11,1.506,12.666,4.089,18.497c1.819,4.116,4.827,6.84,8.351,6.373c7.617-1.011,15.309-1.761,22.773-3.437
			c0.164-0.037,0.33-0.082,0.496-0.131c0.103,0.027,0.204,0.045,0.297,0.047c28.443,1.786,18.89,17.479,30.653,17.836
			c6.117,0.678,30.55,18.134,36.64,17.709c11.795-0.825,18.308-7.957,24.732-1.954c11.344,10.599,16.704,14.868,16.906,29.966
			c0.023,1.779,1.886,5.279,2.223,7.031c3.232,16.7,5.292,33.682,7.479,50.504c2.417,18.564,4.911,37.15,7.022,55.758
			c1.512,13.297,5.068,26.697,2.895,40.053l-0.062,3.336c-9.22,20.301,9.87,106.574,10.214,108.785
			c3.186,20.463,1.426,25.5,4.857,45.568c0.667,10.26,5.335,35.049,2.451,45.748c-4.22,15.646-5.204,60.845-6.174,112.328
			c3.8,13.613,5.423,27.625-7.275,36.896c-2.854,2.078-10.175,4.436-12.45,7.309c-6.256,7.9-1.963,10.43,8.14,12.324
			c15.323,2.881,30.585-0.188,45.89,0.3c10.156,0.318,14.074-3.595,11.481-13.847c-2.562-10.123-1.601-18.986,1.859-28.193
			c3.044-8.102,16.939-49.904,22.117-49.803c3.763-0.713,11.308,2.877,10.54,12.154c-1.162,14.068-8.518,14.919-9.055,33.523
			c-1.255,5.101-1.329,8.309,1.158,13.414c11.938,3.367,9.784,3.934,20.901-5.963c1.653-1.471,34.931-23.321,36.174-29.254
			c2.007-4.749,1.281-3.528-1.639-18.338c-0.523-3.361,11.233-8.518,9.586-11.357C435.991-151.921,430.253-230.31,432.704-252.175z"
			/>
	</g>
</g>
<g id="Layer_10_copy">
	<g>
		<path fill-rule="evenodd" clip-rule="evenodd" fill="#D14C43" d="M213.472,163.411c12.836,13.41,27.293,49.536,46.616,53.111
			c35.096,6.495,106.516-18.081,141.148-19.389c22.26-0.838,38.186-27.024,49.59-42.826c-9.826-3.711-24.023-8.336-34.18-9.825
			c-21.674-3.176-28.293-18.532-29.678-36.154c-0.711-9.042,4.781-18.88,8.59-27.882c3.396-8.021,8.363-15.612,9.096-24.357
			c1.396-16.648-0.854-33.339-15.576-43.349c-15.635-10.628-35.914-17.957-52.461-8.091c-15.422,9.193-21.443,17.31-23.512,30.702
			c-0.727,4.707-0.262,4.01-2.803,9.017c-6.766,13.325-1.139,5.896-1.139,44.265c0,9.664,3.811,12.665,11.951,14.88
			c17.404,4.734,14.52,5.032,10.795,23.152c-4.121,20.048-56.354,18.675-68.807,22.036
			C246.417,153.205,229.009,155.029,213.472,163.411z"/>
		<path fill-rule="evenodd" clip-rule="evenodd" fill="#D14C43" d="M546.812,200.549c-1.598-3.578-13.082-20.898-20.889-21.613
			c0.01-0.001-13.406-6.705-21.303-5.394c-8.248-0.054-17.422-27.949-25.67-28.002c-4.729-3.595-7.465,25.583-11.021,29.903
			c-2.256,2.74-0.465,1.666-3.268,3.97c-3.393,5.493-4.498,3.169-10.441,7.026c-9.43,7.944-12.225,10.484-22.945,15.791
			c-0.043,0-0.082,0.021-0.121,0.056c-8.834,4.176-17.668,8.353-26.502,12.527c-10.318,2.007-17.951,9.905-27.951,12.71
			c-3.406,0.956-6.371,3.084-7.678,6.757c-2.299,2.339-4.834,5.084-8.057,5.098c-12.799,0.05-25.029,3.827-37.58,5.165
			c-10.951,1.167-17.057,6.357-16.822,17.553c0.264,12.56,2.787,25.162-1.613,37.534c-0.467,1.311-0.289,2.967-0.037,4.396
			c3.104,17.481,1.74,35.286,3.902,52.832c3.895,14.314,12.699,25.901,20.994,37.769c2.648,5.426,5.746,10.498,10.912,13.953
			c-0.002-0.002-0.002-0.003-0.002-0.005l0.002,0.003c12.969,8.035,26.309,13.639,42.33,12.704c0.002,0,0.004,0.001,0.004,0.002
			c12.832,7.874,27.045,7.823,37.609-0.134c3.107-1.069,5.049-3.569,5.584-6.444c1.453-7.813,4.365-15.238,5.182-23.257
			c1.424-13.968-0.842-27.639-1.887-41.443c-1.93-25.493,5.299-49.8,10.898-74.22c4.76-20.755,9.172-41.505,10.441-62.811
			c0.596-2.959-1.217-6.864,1.939-8.706c2.523-1.472,3.465,2.163,5.242,3.332V207.6l0,0l0.076-0.042
			c-0.873,6.188,1.473,11.376,5.033,16.186c1.074,15.951,2.178,16.79,18.189,16.013c7.053-0.342,45.291,0.266,50.287,0.092
			C536.236,239.688,552.881,214.143,546.812,200.549z"/>
		<path fill-rule="evenodd" clip-rule="evenodd" fill="#D14C43" d="M150.259,275.156c2.068,27.599,7.716,33.171,32.331,31.898
			c-0.002-0.001-0.003-0.002-0.005-0.002c0.002,0,0.003,0,0.005,0.001c2.226,0.713,4.451,1.426,6.679,2.14
			c10.229,4.547,17.426,13.128,26.149,19.679c5.309,3.144,10.071,6.586,7.647,13.965c2.602-1.662,3.578-4.159,3.652-7.117
			c4.91-3.916,4.874-4.137-2.056-12.351c-6.147-9.339-16.173-16.27-17.683-28.485c-2.858-3.694,3.436-11.2-5.201-12.486
			c-6.018-4.668-11.293-10.075-16.021-16.03c-2.122-6.289-5.663-11.66-10.478-16.207c0,0,0-0.001-0.002-0.002
			c-5.529-17.903-9.681-37.318-25.461-48.304c-1.611-2.92-4.4-3.116-7.263-3.141c-6.608,10.673-13.147,25.529-8.005,37.377
			C141.353,250.917,145.218,253.441,150.259,275.156z"/>
		<path fill-rule="evenodd" clip-rule="evenodd" fill="#D14C43" d="M228.404,734.272c-1.479-1.57-2.717-3.489-5.205-3.603
			c-7.861-8.409-20.435-10.95-26.664-21.395c0-0.002,0-0.004-0.002-0.004l0.098-0.055c0.102-4.603-5.044-6.398-5.674-10.609
			l-0.002,0.002v-0.002c0.023-3.482,0.045-6.963,0.066-10.442c-0.992-3.213-3.5-4.009-6.287-3.257
			c-8.307,2.238-16.727,3.14-25.31,3.082c-3.496-0.023-5.345,2.058-5.454,5.59l0,0l0,0c-0.596,3.271-2.676,5.384-5.438,6.965
			c-3.711,9.688-5.947,19.646-5.471,30.095c-5.601,3.925-28.6,42.079-22.986,47.835c2.774,3.163,6.517,3.99,10.42,3.875
			c17.685-0.523,32.51-5.981,39.213-24.17c1.991-5.401,4.858-7.855,10.578-5.74l0,0l0,0c5.303,3.871,11.391,6.552,17.631,7.603
			c7.256,1.222,15.256,3.477,21.615-3.206C220.906,755.395,231.289,732.1,228.404,734.272z"/>
		<path fill-rule="evenodd" clip-rule="evenodd" fill="#D14C43" d="M444.004,581.634c-0.154-5.847,0.045-11.719-0.453-17.536
			c-0.289-3.335-2.729-7.684-5.906-3.563c-4.77,6.189-7.062,9.588-11.969,15.333c-5.969-0.148-4.539,5.135-10.377,5.367
			c-4.57-0.354-10.039-0.508-10.303,5.301c-0.633,13.9-3.221,28.214,4.793,41.171c0,0,0,0.006,0,0.009
			c-1.459,9.781,4.963,18.118,5.162,27.521c0.303,14.415,0.129,28.842,0.156,43.263c-4.008,3.119-7.688,6.549-10.355,10.938
			c-2.352,2.803-2.984,6.291-3.875,9.683c-1.842,7.03-0.186,10.673-7.898,8.364c-3.053-0.914-6.195-1.525-9.297-2.273
			c0.002,0,0.002,0,0.002,0c-6.355-6.023-7.648-0.492-9.355,4.095c-0.248,4.397-0.471,8.796-0.752,13.19
			c-0.287,4.509-0.48,8.956,4.324,11.549c-0.027,3.217,1.061,7.012-0.26,9.561c-8.166,15.781,14.527,25.566,14.797,25.676
			c12.02,8.207,17.369,8.119,27.766-0.208l-0.047,0.122c10.723-3.166,12.34-12.938,10.193-23.315
			c-4.395-21.258-6.475-42.188-0.812-64.452c-2.898,11.401,9.752-47.327,12.988-61.435
			C446.836,632.195,444.115,586.006,444.004,581.634z"/>
		<path fill-rule="evenodd" clip-rule="evenodd" fill="#FFFFFF" d="M448.168,209.443c-0.146,1.168-3.227,23.701-3.969,33.961
			c-1.318,18.197-11.527,34.745-11.08,53.5c0.043,1.829-1.338,3.886-2.451,5.637c-1.137,1.789-1.947,3.66-1.961,5.793
			c-0.082,14.729-3.389,29.378-1.721,44.108c1.262,11.123,0.949,22.274,1.691,33.341c0.809,12.094-5.98,20.824-9.781,30.99
			c-11.252,4.461-22.529,11.205-34.164,0.797c-14.631-0.539-28.324-4.143-40.637-12.321c-5.605-2.718-9.475-7.067-11.992-12.69
			c-8.254-11.479-15.674-23.367-18.244-37.594c-2.072-23.155-6.264-46.277-1.404-69.604c0.732-3.503-0.002-7.072-0.564-10.594
			c-0.795-4.995-1.045-10.026-0.061-15.023c1-5.088,3.865-8.835,9.078-9.781c11.348-2.059,45.715-7.601,50.512-11.477
			c9.719-9.687,51.924-29.84,61.227-33.333c5.307-2.974,13.061-10.708,17.057-5.419
			C451.186,201.694,448.473,207.006,448.168,209.443z M465.459,190.448c4.404-6.422,9.281-11.317,11.906-18.286
			c-0.008-1.108,2.324-6.925,2.406-6.961c2.865-1.293,10.219-6.06,12.172-5.74c-0.576-1.152-1.154-2.308-1.73-3.461
			c0.852-10.592-5.35-16.071-14.219-19.616c-2.898-2.491-6.023-4.767-8.635-7.528c-3.377-3.572-14.521,1.873-14.781,5.841
			c-0.039,0.587-2.57,7.153-5.098,8.976c-1.078,0.75-5.777,17.138-5.477,24.836c-0.594,0.605-8.959,1.861-12.547,1.886
			c-1.803,0.009-66.775,23.01-72.439,24.791c-26.855,8.442-44.701,13.713-72.645,4.946c-9.713,1.42-24.268-13.301-37.014-23.341
			c-0.68-0.535-29.186-13.201-29.186-13.201c-6.882-15.602-30.059-18.499-15.62-24.673c6.927-2.962,12.892-2.976,8.745-15.564
			c-2.727-8.275-1.709-19.931-5.369-24.196c-10.627-12.39-7.373-24.283-16.314-35.451c-11.729-14.647-20.861-18.879-38.188-11.724
			c-14.043,5.8-22.041,3.641-32.676,16.753c-15.627,19.269-16.245,29.786-4.199,47.269c4.025,5.84,8.246,10.021,9.212,19.24
			c1.014,9.675,9.983,14.005,16.331,15.934c4.156,1.263,5.006,0.012,8.897,5.091c3.708,4.841-2.118,10.881-5.149,14.276
			c0,0-5.764,37.476,8.402,47.689c14.33,11.154,13.006,17.323,19.65,33.651c4.789,4.569,8.752,9.643,10.008,16.359
			c4.5,6.991,11.562,11.625,16.652,18.073c4.411,2.208,4.104,6.275,4.076,10.22c0.225,4.59,2.1,8.552,5.105,11.901
			c4.871,5.428,9.512,11.025,13.787,16.92c2.066,2.949,6.652,5.037,3.708,9.854c0.343,2.844,0.019,5.5-2.167,7.625
			c-7.568,16.408-19.289,29.778-31.379,42.876c-10.4,9.126-18.003,20.849-28.415,30.08c-5.169,4.583-1.069,9.635,3.432,13.331
			c8.628,7.079,10.735,14.624,6.93,24.855c-2.083,5.602-37.015,13.502-42.669,14.792c-8.244,1.885-20.056,5.927-19.858,5.79
			c-7.13-0.432-18.188,24.833-18.188,24.833s-5.478,24.188-3.171,26.639c6.487,6.895,5.727,13.072,0.264,20.362
			c-6.019,8.029-22.099,18.626-22.103,18.629c-2.311,0.436-4.729,0.571-6.914,1.354c-16.77,6.012-6.268,47.17-1.108,45.939
			c5.651-1.348,8.468,0.729,8.53,6.613c0.062,5.794,2.241,10.912,5.366,15.684v-0.003c0,0,0,0.002,0.001,0.003
			c1.714,3.402,3.232,6.922,5.174,10.19c13.482,22.694,33.612,55.66,58.955,61.03c9.482,2.01,13.042,22.529,10.62,31.831
			c4.582,2.22,7.027-1.131,9.752-3.765c7.186-9.329,18.645,0.128,20.029,2.269c11.414,44.146,32.764,63.263,61.445,51.72
			c1.131,1.732,3.234-0.545,3.48,1.181c0.693,4.862,0.008,8.815,2.767,8.741c5.652-0.152,7.619-4.613,5.652-10.467
			c-1.71-5.087,1.369-6.326,5.73-5.469c2.855,0.561,5.648,1.446,8.471,2.188c3.621,2.308,7.242,4.614,10.863,6.924v-0.002
			c0,0,0,0,0.002,0c2.934,1.626,4.766,5.104,8.643,5.147c2.555,2.055,5.217,3.884,8.689,3.865
			c11.189-0.062,22.381,0.049,33.561-0.287c4.732-0.145,9.279-1.641,12.951-4.979c2.922-0.735,5.859-1.679,5.578-5.443
			c-0.264-3.559-2.555-5.913-5.932-6.652c-4.512-0.991-9.125-1.522-13.695-2.251c-0.389-0.333-0.793-0.479-1.213-0.465
			c-11.123-4.314,9.932-40.942,14.285-46.189c2.818-3.399,21.73-11.957,27.525-8.17l0,0c0.549,1.247,1.096,2.495,1.645,3.743
			c3.146-0.278,6.27-1.651,9.439-0.206c20.633,3.597,20.633,3.597,28.107-15.918c0.211-0.553,10.912-9.312,12.713-15.929
			c0.67-3.78,0.457-7.618,0.68-11.431c1.135-19.483-0.701-38.666-5.65-57.562c-4.811-9.097-7.98-18.342-6.971-29.065
			c0.605-6.421,2.27-10.72,8.605-12.553c5.885-1.563,18.371-8.659,19.074-9.64c3.053-4.262,7.953-7.504,12.371-6.835
			c4.064,0.614,9.15-12.876,9.355-27.488c0.145-10.249,6.336-30.467,6.721-30.83c3-17.456,6.186-34.736,5.891-52.731
			c-0.762-46.488,0.762-93.027-4.068-139.396c2.418-2.355,4.836-4.713,7.252-7.068c4.369-1.686,6.881-4.906,7.818-9.432
			c1.373-6.96-4.311-11.472-6.045-17.359c0.859-10.902-4.947-20.646-5.385-31.378c-0.248-6.022,1.23-21.109-1.395-30.898
			c-1.291-5.316-7.762-8.943-6.705-14.879C461.398,204.054,462.785,194.345,465.459,190.448z"/>
		<path fill-rule="evenodd" clip-rule="evenodd" fill="#FFFFFF" d="M175.142,466.014c-0.148,1.232-0.414,2.229-1.123,2.639
			C174.365,467.762,174.779,466.898,175.142,466.014c0.139-1.148,0.174-2.5,0.365-3.779c8.453-57.135,19.318-113.816,34.307-169.586
			c3.805-14.16,6.219-28.914,12.77-42.324c2.621-6.908-1.037-12.564-4.662-17.379c-7.018-9.318-7.65-23.199-20.252-28.475
			c-0.42,1.74-0.469,3.686-1.311,5.189c-22.928,41.133-8.369,88.643-31.197,129.801c-8.668,15.629-34.682,28.18-29.168,47.125
			c2.008,6.898,1.039,12.971-3.779,18.715c-16.062,19.156-10.562,43.652-28.191,61.471c-5.178,5.236-3.482,7.193,1.334,11.223
			c6.25,5.229,13.912,11.135,16.178,18.271c4.701,14.816-3.918,24.367-4.551,40.02C116.449,549.611,184.324,443.785,175.142,466.014
			z"/>
	</g>
</g>
</svg>
