<?xml version="1.0" encoding="utf-8"?>
<!-- Generator: Adobe Illustrator 16.0.0, SVG Export Plug-In . SVG Version: 6.00 Build 0)  -->
<!DOCTYPE svg PUBLIC "-//W3C//DTD SVG 1.1//EN" "http://www.w3.org/Graphics/SVG/1.1/DTD/svg11.dtd">
<svg version="1.1" xmlns="http://www.w3.org/2000/svg" xmlns:xlink="http://www.w3.org/1999/xlink" x="0px" y="0px" width="600px"
	 height="800px" viewBox="0 0 600 800" enable-background="new 0 0 600 800" xml:space="preserve">
<g id="Layer_20_copy">
	<g>
		<path fill-rule="evenodd" clip-rule="evenodd" fill="#FFFFFF" d="M418.457-525.409c-4.107,9.857-18.561,39.925-21.395,50.235
			c-3.805,13.839-2.193,27.009,6.006,38.575c14.871,20.975,28.381,35.223,29.41,59.818c0.584,13.951,2.605,27.523,6.906,40.606
			c6.074,18.479,21.684,25.987,38.766,31.468c19.48,6.248,16.422,22.588,35.863,28.963c33.312,10.924-14.795,38.855,20.379,41.189
			c11.99,0.797,41.43,49.271,35.359,46.425c-6.877-3.227,16.416,26.671,13.211,33.903c-5.359,12.103-14.973,15.092-26.98,14.477
			c-7.928-0.406-27.109,2.024-28.713,1.965c-6.141-0.229-14.967,54.812-34.391,56.731c-17.908,1.77-27.881-3.052-27.613,7.122
			c0.258,9.609,0.93,9.819,6.834,18.397c2.43,3.528,2.447,7.524-1.957,10.023c-4.256,2.41-4.711-2.245-6.592-3.967
			c-2.453-2.245-4.77-4.74-6.67-7.46c-1.719-2.463-2.92-6.175-6.477-4.866c-3.361,1.237-2.336,5.295-2.689,8.214
			c-1.02,8.479-0.197,17.763-5.082,24.934C431.471-12.276,414.689-3.907,395.73-0.242c-8.961,1.734-14.287-6.107-9.672-14.017
			c5.186-8.881,11.482-17.129,17.559-25.459c2.533-3.473,3.512-6.973,2.521-12.105c-5.641,3.344-8.879,8.058-11.24,13.28
			c-3.352,7.417-8.473,11.106-16.904,11.579c-15.373,0.859-30.717,1.17-46.084,0.52c-3.031-0.129-6.488-0.185-7.967-3.509
			c-1.584-3.567,0.453-6.378,2.637-9.127c3.83-4.813,8.777-8.202,13.867-11.442c2.238-1.425,5.158-2.139,5.594-6.55
			c-4.092,0-8.191,0.204-12.262-0.042c-8.826-0.531-14.529-5.858-16.049-14.664c-2.119-12.278-6.66-14.376-17.148-7.847
			c-2.707,1.686-5.639,2.76-8.74,2.402c-6.408-0.739-11.205,1.406-14.945,6.698c-3.156,4.466-7.473,3.369-11.561,1.419
			c-2.725-1.298-5.275-2.95-7.902-4.447c-2.629-6.2-9.198-5.229-13.91-6.944c-17.33-6.308-35.021-11.574-53.272-2.829
			c-8.555-2.327-11.585-6.945-8.578-16.089c3.587-10.91,8.483-21.229,12.56-31.903c6.673-11.253,12.519-23.128,20.276-33.579
			c6.632-8.935,9.48-18.043,9.275-28.902c-0.182-9.465-1.729-19.193,1.148-28.402c14.224-45.524,36.968-86.231,69.368-121.42
			c3.871-4.202,7.648-8.438,9.205-14.408c5.6-21.487,7.492-43.499,7.883-65.474c0.637-35.519-2.23-71.047,0.281-106.614
			c0.602-8.532,2.994-9.928,10.227-7.019c9.59,3.854,19.264,7.508,28.963,11.082C369.703-519.111,399.59-532.284,418.457-525.409z"
			/>
	</g>
</g>
<g id="Layer_0-4_copy">
	<g>
		<path fill-rule="evenodd" clip-rule="evenodd" fill="#FFFFFF" d="M517.871,81.203c-8.168-0.939-17.316,0.332-18.215-15.666
			c-6.018,14.595-11.494,24.92-11.158,36.557c0.211,7.443-2.031,12.912-7.197,17.627c-16.281,14.848-32.318,30.049-53.551,37.908
			c-12.936,4.884-22.156,17.85-36.305,19.076c-23.32,2.02-46.287,8.977-70.221,4.381c-9.914-1.904-20.129-3.813-30.463-3.211
			c-15.568,0.906-28.92-3.098-38.621-16.463c-3.643-5.017-9.551-7.914-14.465-11.729c-6.686-15.161-4.859-19.779,9.172-25.779
			c6.73-2.879,17.936-2.893,13.906-15.125c-2.648-8.043,0.461-20.864-4.314-23.514c-14.396-7.992-15.28-23.6-23.972-34.452
			c-11.396-14.232-20.271-18.346-37.106-11.393c-13.646,5.636-27.436,10.021-38.967,21.69c-19.411,19.65-21.401,24.775-4.08,45.936
			c4.365,5.332,9.332,9.957,7.147,18.697c-1.62,6.477,12.423,19.911,16.772,17.289c3.615-2.181,5.766-5.4,9.547-0.463
			c3.604,4.703,1.548,8.769-1.396,12.068c-5.466,6.123-11.911,10.105-20.999,9.256c-36.302-3.387-71.356,10.792-107.793,7.944
			c-7.373-0.579-14.828,4.72-16.424,13.375c-1.774,9.626,5.687,13.523,12.729,16.485c15.304,6.434,31.371,10.266,47.844,12.357
			c2.539-5.17,6.103-7.703,12.439-7.968c17.829-0.741,33.676,2.087,45.564,17.265c9.189,11.729,20.828,18.529,36.83,18.477
			c12.592-0.04,18.996,8.256,20.791,21.984c0.492,3.766,2.883,6.48,5.101,9.274c4.204,5.294,7.667,11.019,10.122,17.317
			c1.508,3.871,2.587,8.209-0.764,11.321c-4.016,3.731-7.422-0.59-10.795-2.171c-8.729-4.096-13.229-13.371-21.443-18.04
			c-4.757-2.702-9.871-9.199-15.301-0.687c-0.098,3.628,0.631,7.217,2.121,10.438c7.544,16.296,5.676,31.625-2.096,47.631
			c-10.113,20.826-13.633,43.438-13.365,66.577c0.086,7.278-0.832,14.177-4.953,20.524c-13.782,21.223-24.055,43.975-28.934,67.523
			c0.084,1.238,0.008,2.267-0.613,2.801c0.176-0.938,0.42-1.864,0.613-2.801c-0.078-1.154-0.295-2.488-0.348-3.783
			c-2.338-57.707-2.225-115.418,2.109-173.005c1.102-14.622,0.722-29.567,4.66-43.964c1.289-7.276-3.359-12.151-7.818-16.204
			c-8.632-7.848-11.838-21.37-25.204-24.204c-0.087,1.787,0.226,3.708-0.319,5.344c-14.787,44.458-29.775,88.85-44.469,133.34
			c-5.604,16.971-10.822,34.146-1.875,51.734c3.258,6.4,3.438,12.549-0.226,19.088c-12.214,21.816-22.248,44.856-36.247,65.65
			c-4.111,6.109-2.081,7.717,3.4,10.775c7.114,3.975,15.743,8.35,19.299,14.938c7.379,13.683,20.693,24.672,22.989,40.168
			c1.955,13.195,15.915,26.601-0.155,40.807c6.013,1.676,10.17,3.324,14.474,3.933c7.209,1.024,8.409,4.291,5.632,9.1
			c-7.725,13.862-4.539,37.409,2.354,59.921c-1.078,79.488-24.578,85.246,11.184,71.971c6.006-2.23,27.238,2.018,51.775,8.317
			c11.24,2.886,51.095-31.157,54.313-37.382c9.305-17.98-54.851-40.752-3.445-62.848c29.092-12.505,7.022,38.168,13.492,39.761
			c67.001,16.483,62.382,14.669,35.886,63.583c11.729-10.9,29.629,2.357,48.359-1.762c10.52-2.313,3.855-30.652,31.395-24.729
			c25.885,5.567,48.064-1.07,48.246-0.761c2.256,0.237,3.707,2.83,4.885,9.311c0.436,2.391-0.688,5.742,3.877,5.682
			c3.234-4.029-1.264-10.217,5.57-11.957c7.125-1.812,10.887,4.95,15.811,8.52c0.715,0.52,1.369,1.178,1.91,1.882
			c13.465,17.6,30.783,17.325,49.203,13.649c3.281-0.652,4.863,1.607,5.1-2.68c0.262-4.709-3.396-6.785-6.615-7.966
			c-13.363-4.916-28.039-11.692-32.146-24.563c-4.781-14.99-13.6-26.219-15.229-42.388c-2.018-19.979-5.223-39.836-7.916-59.747
			c-0.23-10.691-3.191-21.068-3.74-31.719c-3.979-13.185-6.826-26.74-12.281-39.441c-3.625-8.438-2.707-14.408,6.918-17.697
			c9.18-3.137,12.945-10.193,12.809-19.689c-0.299-21.31,4.756-42.457,2.006-63.848c0.236-15.209-0.971-30.605,0.961-45.596
			c7.998-62.041,44.711-123.886,45.119-186.666c0.043-6.531,0.33-13.595,7.936-16.874c-2.355-21.511-1.279-41.86,16.869-57.54
			c7.43-6.42,14.152-13.701,20.883-20.895c3.713-3.966,6.215-7.457,3.316-14.09c-3.385-7.746,0.818-15.256,8.064-19.167
			c5.889-3.179,9.855-7.403,12.768-13.073C527.844,81.539,522.516,81.735,517.871,81.203z M138.189,653.484
			c18.008,3.604,19.953,22.75,17.568,29.729c-4.018,11.559-28.189,16.334-46.591,13.395
			C91.397,693.812,126.575,651.164,138.189,653.484z M381.047,290.197c-13.35,15.681-26.836,31.2-41.43,45.728
			c-6.344,6.315-12.951,12.405-20.986,16.573c-15.166,7.863-21.143,4.928-24.338-11.739c-7.531-39.271-2.834-77.14,12.186-114.089
			c2.158-5.309,5.303-5.049,9.146-5.381c27.613-2.391,55.193-5.453,82.857-6.793c12.459-0.604,22.369-4.24,31.26-12.624
			c8.408-7.927,17.389-15.248,27.482-21.824C450.229,194.492,386.35,283.967,381.047,290.197z"/>
		<path fill-rule="evenodd" clip-rule="evenodd" fill="#D14C43" d="M427.75,157.629c-12.473,13.031-26.521,21.083-45.299,24.559
			c-34.105,6.311-67.439,0.465-101.092-0.805c-21.633-0.814-32.599-16.342-43.684-31.699c9.551-3.605,18.84-9.002,28.707-10.449
			c21.061-3.086,27.492-18.01,28.84-35.133c0.689-8.789-4.646-18.348-8.35-27.097c-3.299-7.795-8.125-15.172-8.836-23.67
			c-1.357-16.18,0.83-32.4,15.135-42.127c15.193-10.328,33.596-14.812,50.982-7.863c15.934,6.371,21.018,23.443,25.572,38.6
			c4.18,13.908,2.051,28.499,1.105,43.017c-0.609,9.372-3.703,12.307-11.615,14.459c-16.914,4.602-14.109,4.891-10.49,22.5
			c4.004,19.482,18.691,18.148,30.793,21.414C395.734,147.713,412.652,149.484,427.75,157.629z"/>
		<path fill-rule="evenodd" clip-rule="evenodd" fill="#D14C43" d="M408.73,555.061c-2.219-6.377-10.637-11.729-4.146-17.721
			c5.861-5.41,8.949-7.566,8.566-21.643c-0.535-19.74-3.113-69.73,1.354-89.275c9.105,17.039,40.354,70.006,44.314,88.591
			c2.443,11.474,6.805,21.171,15.998,28.337c8.049,6.273,13.332,14.482,16.752,23.757c9.523,25.855,21.352,51.073,25.992,78.417
			c3.592,21.182,22.234,36.356,23.131,57.604c0.734,17.386,12.234,25.823,22.471,35.939c5.91,5.836,10.34,12.555,12.125,20.381
			c1.74,7.628,3.863,16.162-4.84,21.795c-8.98,5.815-18.668,5.416-26.055-1.283c-13.154-11.928-26.68-24.168-32.033-42.027
			c-1.697-5.658-2.678-9.051-9.332-5.66c-4.893,2.487-8.348,0.615-10.379-4.568c-14.207-36.252-34.729-68.932-54.262-102.615
			C434.379,618.178,414.389,571.295,408.73,555.061z"/>
		<path fill-rule="evenodd" clip-rule="evenodd" fill="#D14C43" d="M99.742,214.057c-2.65-7.882-1.574-11.541,8.484-11.664
			c22.312-0.268,42.43,2.5,56.273,23.047c5.93,8.803,14.717,13.506,26.422,11.83c14.699-2.109,21.258,11.195,31.2,18.058
			c0.628,0.434,1.29,2.079,1.128,2.218c-12.48,10.68,4.088,13.773,5.634,20.787c1.116,5.059,5.681,9.418,6.527,14.455
			c0.787,4.686,0.196,11.037-2.526,14.507c-3.266,4.167-8.262-1.644-11.859-2.454c-9.361-2.105-13.227-9.445-19.114-15.065
			c-5.398-5.154-10.608-11.886-18.736-12.96c-6.47,0.869-12.019,2.322-18.37,4.332c-14.545,4.602-17.088,3.134-23.82-11.621
			c-10.841-12.388-21.684-24.774-32.524-37.162C103.319,227.326,99.551,221.633,99.742,214.057z"/>
		<path fill-rule="evenodd" clip-rule="evenodd" fill="#D14C43" d="M468.697,211.522c-1.871-0.864-5.775-0.284-5.336-2.746
			c3.232-18.134-1.09-38.415,15.117-52.968c9.633-8.652,18.84-17.783,28.098-26.844c1.584-1.548,4.775-2.775,2.48-6.23
			c-7.537-11.345-3.605-22.289,10.461-27.314c4.971-1.775,2.562-12.147,11.08-8.662c15.936,5.086,16.668,7.439,6.389,19.813
			c-2.273,2.736-5,5.267-7.191,7.911c-9.354,11.281-6.666,20.62-0.986,32.374c10.834,22.416-0.305,47.03-23.824,56.65
			C493.324,208.276,480.965,209.645,468.697,211.522z"/>
		<path fill-rule="evenodd" clip-rule="evenodd" fill="#D14C43" d="M429.742,201.872c-8.891,8.384-18.801,12.021-31.26,12.624
			c-27.664,1.34-55.244,4.402-82.857,6.793c-3.844,0.332-6.988,0.072-9.146,5.381c-15.02,36.949-19.717,74.818-12.186,114.089
			c3.195,16.667,9.172,19.603,24.338,11.739c8.035-4.168,14.643-10.258,20.986-16.573c14.594-14.527,28.08-30.047,41.43-45.728
			c5.303-6.23,9.461-12.59,11.799-20.287c0.717-5.254,1.221-10.548,2.191-15.755c5.658-30.38,5.695-30.374,35.484-34.725
			c12.73-10.606,19.707-24.938,26.703-39.383C447.131,186.624,438.15,193.945,429.742,201.872z"/>
		<path fill-rule="evenodd" clip-rule="evenodd" fill="#FFFFFF" d="M134.713,489.74c-2.338-57.707-2.225-115.418,2.109-173.005
			c1.102-14.622,8.722-89.567,12.66-103.964c1.289-7.276-3.359-12.151-7.818-16.204c-8.632-7.848-1.838-21.37-15.204-24.204
			c-0.087,1.787,0.226,3.708-0.319,5.344c-14.787,44.458-47.775,148.85-62.469,193.34c-5.604,16.971-10.822,34.146-1.875,51.734
			c3.258,6.4,3.438,12.549-0.226,19.088c-12.214,21.816-22.248,44.856-36.247,65.65c-4.111,6.109-2.081,7.717,3.4,10.775
			c7.114,3.975,15.743,8.35,19.299,14.938c7.379,13.683,20.693,24.672,22.989,40.168C72.968,586.596,134.766,491.035,134.713,489.74
			z"/>
	</g>
</g>
</svg>
