<?xml version="1.0" encoding="utf-8"?>
<!-- Generator: Adobe Illustrator 16.0.0, SVG Export Plug-In . SVG Version: 6.00 Build 0)  -->
<!DOCTYPE svg PUBLIC "-//W3C//DTD SVG 1.1//EN" "http://www.w3.org/Graphics/SVG/1.1/DTD/svg11.dtd">
<svg version="1.1" xmlns="http://www.w3.org/2000/svg" xmlns:xlink="http://www.w3.org/1999/xlink" x="0px" y="0px" width="600px"
	 height="800px" viewBox="0 0 600 800" enable-background="new 0 0 600 800" xml:space="preserve">
<g id="Layer_0-0">
	<g>
		<path display="none" fill-rule="evenodd" clip-rule="evenodd" fill="#FFFFFF" d="M517.871-718.797
			c-8.167-0.939-17.316,0.332-18.214-15.666c-6.018,14.595-11.494,24.92-11.159,36.557c0.213,7.443-2.031,12.912-7.195,17.627
			c-16.281,14.848-32.319,30.049-53.551,37.908c-12.936,4.884-22.158,17.85-36.307,19.076c-23.318,2.02-46.286,8.977-70.22,4.381
			c-9.913-1.904-20.13-3.813-30.464-3.211c-15.569,0.906-28.918-3.098-38.622-16.463c-3.641-5.017-9.55-7.914-14.463-11.729
			c-6.687-15.161-4.86-19.779,9.17-25.779c6.731-2.879,17.937-2.893,13.907-15.125c-2.649-8.043,0.461-20.864-4.314-23.514
			c-14.397-7.992-15.28-23.6-23.97-34.452c-11.397-14.233-20.271-18.346-37.108-11.394c-13.646,5.637-27.435,10.021-38.966,21.691
			c-19.412,19.65-21.402,24.775-4.081,45.936c4.366,5.332,9.333,9.957,7.148,18.697c-1.62,6.477,12.422,19.911,16.772,17.289
			c3.615-2.181,5.766-5.4,9.547-0.463c3.603,4.703,1.547,8.769-1.397,12.068c-5.466,6.123-11.911,10.105-20.998,9.256
			c-36.302-3.387-71.357,10.792-107.792,7.944c-7.373-0.579-14.83,4.72-16.425,13.375c-1.775,9.626,5.687,13.523,12.73,16.485
			c15.303,6.434,31.371,10.266,47.843,12.357c2.54-5.17,6.104-7.703,12.44-7.968c17.829-0.741,33.676,2.087,45.564,17.265
			c9.189,11.729,20.827,18.529,36.83,18.477c12.592-0.04,18.996,8.256,20.791,21.984c0.492,3.766,2.883,6.48,5.102,9.274
			c4.203,5.294,7.666,11.019,10.121,17.317c1.508,3.871,2.587,8.209-0.764,11.321c-4.015,3.731-7.422-0.59-10.794-2.171
			c-8.729-4.096-13.229-13.371-21.444-18.04c-4.757-2.702-9.871-9.199-15.3-0.687c-0.099,3.628,0.63,7.217,2.12,10.438
			c7.544,16.296,5.676,31.625-2.095,47.631c-10.113,20.826-13.633,43.438-13.365,66.577c0.085,7.278-0.832,14.177-4.954,20.524
			c-13.782,21.223-24.055,43.975-28.934,67.523c0.084,1.238,0.008,2.267-0.613,2.801c0.176-0.938,0.42-1.864,0.613-2.801
			c-0.077-1.154-0.294-2.488-0.347-3.783c-2.338-57.707-2.226-115.418,2.109-173.005c1.101-14.622,0.721-29.567,4.659-43.964
			c1.29-7.276-3.359-12.151-7.818-16.204c-8.632-7.848-11.837-21.37-25.204-24.204c-0.086,1.787,0.226,3.708-0.319,5.344
			c-14.788,44.458-29.776,88.85-44.469,133.34c-5.604,16.971-10.823,34.146-1.875,51.734c3.258,6.4,3.437,12.549-0.226,19.088
			c-12.214,21.816-22.248,44.856-36.247,65.65c-4.111,6.109-2.081,7.717,3.4,10.775c7.115,3.975,15.744,8.35,19.299,14.938
			c7.38,13.683,20.693,24.672,22.99,40.168c1.956,13.195,15.916,26.601-0.155,40.807c6.012,1.676,10.169,3.324,14.473,3.933
			c8.043,1.144,8.88,5.263,4.524,10.825c-11.757,15.002-8.657,29.852-0.542,45.027c3.158,5.912,5.469,11.795,2.764,19.102
			c-9.848,26.59-13.312,54.525-17.09,82.455c-1.191,8.821,2.096,10.893,9.073,12.703c8.143,2.115,15.873-5.285,21.615-3.545
			c18.215,5.52,36.777,5.492,55.237,7.553c17.646,1.967,35.209,4.671,52.79,7.18c23.664,3.375,26.91-9.6,50.354-9.536
			c16.839,0.044,24.637-5.376,41.527-5.793c11.689-0.292,16.058-12.786,27.011-12.731c0.568,0.004,1.748-3.102,1.634-4.686
			c-0.748-10.254,6.265-11.189,13.786-12.391c7.371-1.178,15.052,1.365,22.215-3.15c12.263-7.729,16.455-13.535,19.179,1.469
			c0.437,2.391-0.687,5.742,3.877,5.682c3.235-4.029-1.263-10.217,5.571-11.957c7.125-1.812,10.886,4.95,15.809,8.52
			c0.717,0.52,1.371,1.178,1.911,1.882c13.466,17.6,30.783,17.325,49.203,13.649c3.28-0.652,4.864,1.607,5.1-2.68
			c0.263-4.709-3.396-6.785-6.614-7.966c-13.363-4.916-28.039-11.692-32.146-24.563c-4.781-14.99-13.601-26.219-15.23-42.388
			c-2.016-19.979-5.223-39.836-7.915-59.747c-0.231-10.691-3.191-21.068-3.74-31.719c-3.978-13.185-6.826-26.74-12.282-39.441
			c-3.624-8.438-2.705-14.408,6.918-17.697c9.181-3.137,12.946-10.193,12.811-19.689c-0.3-21.31,4.756-42.457,2.005-63.848
			c0.236-15.209-0.972-30.605,0.96-45.596c8-62.041,44.712-123.886,45.121-186.666c0.043-6.531,0.328-13.595,7.935-16.874
			c-2.354-21.511-1.278-41.86,16.869-57.54c7.43-6.42,14.153-13.701,20.883-20.895c3.714-3.966,6.214-7.457,3.317-14.09
			c-3.386-7.746,0.818-15.256,8.064-19.167c5.889-3.179,9.854-7.403,12.768-13.073C527.844-718.461,522.517-718.265,517.871-718.797
			z M381.048-509.803c-13.349,15.681-26.835,31.2-41.429,45.728c-6.344,6.315-12.952,12.405-20.986,16.573
			c-15.166,7.863-21.143,4.928-24.339-11.739c-7.53-39.271-2.835-77.14,12.187-114.089c2.157-5.309,5.301-5.049,9.146-5.381
			c27.612-2.391,55.193-5.453,82.857-6.793c12.459-0.604,22.367-4.24,31.26-12.624c8.408-7.927,17.389-15.248,27.482-21.824
			C450.23-605.508,386.351-516.033,381.048-509.803z"/>
	</g>
</g>
<g id="Layer_4">
	<g>
		<path fill-rule="evenodd" clip-rule="evenodd" fill="#D14C43" d="M367.329,205.004c-8.883,8.377-18.783,12.01-31.23,12.613
			c-27.638,1.338-55.194,4.398-82.782,6.787c-3.842,0.331-6.983,0.072-9.137,5.375c-15.008,36.914-19.699,74.75-12.177,113.984
			c3.193,16.651,8.037,31.726,23.19,23.869c8.027-4.164,17.086,6.76,23.424,0.449c14.581-14.514,33.512,16.571,46.85,0.905
			c5.297-6.226,2.664-88.317,5.001-96.008c0.717-5.248,1.218-10.538,2.189-15.74c5.651-30.353,5.688-30.346,35.452-34.692
			c21.775-5.523,50.225-10.312,57.214-24.744C432.229,166.27,375.729,197.084,367.329,205.004z"/>
		<path fill-rule="evenodd" clip-rule="evenodd" fill="#D14C43" d="M353.624,155.396c54.729,35.649-4.441,31.727-23.203,35.199
			c-34.072,6.305-107.453-1.189-141.079-2.458c-21.613-0.813-37.076-7.316-48.149-22.659c5.381-5.965,41.349-8.994,51.208-10.439
			c21.045-3.084,27.472-36.014,28.816-53.121c0.689-8.781-13.652-18.331-17.352-27.072c-3.297-7.787-5.417-14.257-6.128-22.746
			c-1.356-16.166,0.829-34.173,15.124-43.891c15.182-10.318,28.159-10.293,45.531-3.352c15.92,6.365,20.098,22.521,24.647,37.662
			c4.176,13.896,0.247,26.672-0.696,41.177c-0.608,9.363-5.471,9.358-7.999,17.147c-2.084,6.414-2.385,1.283,1.231,18.877
			c3.999,19.464,17.772,18.131,29.863,21.394C321.639,145.488,338.54,147.259,353.624,155.396z"/>
		<path fill-rule="evenodd" clip-rule="evenodd" fill="#FFFFFF" d="M507.634,84.445c-8.159-0.938-17.299,0.333-18.196-15.65
			c-6.013,14.581-11.483,24.896-11.149,36.523c0.213,7.436-2.029,12.9-7.188,17.609c-16.268,14.834-32.291,30.021-53.504,37.875
			c-12.923,4.879-21.235,17.833-35.371,19.058c-23.298,2.019-14.707,8.968-38.619,4.376c-9.903-1.9-20.109-3.809-30.436-3.207
			c-15.555,0.904-28.892-3.095-38.588-16.448c-3.639-5.011-12.801-11.854-13.549-18.024c-1.162-9.568-0.02-10.121,4.656-15.845
			c4.994-6.111,4.318-4.084,6.689-16.913c1.539-8.32,3.15-18.042,2.896-23.492c-0.764-16.385-1.754-23.577-10.436-34.42
			c-11.388-14.221-25.014-16.651-42.583-14.398c-14.633,1.875-17.696,6.55-28.021,19.281c-6.529,8.049-10.635,33.34-7.682,46.793
			c1.464,6.678,2.59,10.957,5.67,19.365c3.291,8.987,16.689,16.127,18.759,18.828c3.601,4.701-1.156,8.762-4.099,12.059
			c-5.462,6.117-11.901,10.096-20.981,9.248c-36.272-3.385-62.286-16.249-98.69-19.094c-7.367-0.578-14.816,4.717-16.411,13.363
			c-1.774,9.617,5.681,13.51,12.719,16.471c15.29,6.427,21.432,20.166,37.89,22.256c9.847-0.455,6.998,0.412,13.329,0.148
			c17.816-0.74,33.65,17.402,45.528,32.564c9.181,11.719,21.837,27.297,16.41,35.801c-0.099,3.625,9.547,22.266,10.229,25.746
			c3.336,17.004,1.833,31.42-2.094,47.586c-5.461,22.477-10.488,43.898-13.354,66.516c-0.915,7.215-9.646,26.889-12.158,34.02
			c-8.402,23.847-7.816,30.421-12.691,53.949c0.085,1.236,0.007,2.264-0.612,2.797c0.176-0.937,0.421-1.862,0.612-2.797
			c-0.077-1.154-0.294-2.486-0.347-3.78c-2.335-57.655-11.234-115.313-6.903-172.847c1.1-14.608-0.279-48.561,3.656-62.943
			c1.288-7.27-3.357-12.141-7.812-16.189c-8.625-7.84-8.827-20.35-22.184-23.182c-0.086,1.785,0.227,3.705-0.318,5.34
			c-14.776,44.416-7.423,96.877-22.103,141.326c-5.599,16.955-6.309,34.115,2.632,51.687c3.255,6.396,3.434,12.538-0.226,19.071
			c-12.204,21.795-5.11,45.715-19.097,66.49c-4.108,6.104-2.08,7.709,3.397,10.766c7.108,3.971-4.092,17.352-0.541,23.934
			c7.374,13.67,9.864,24.648,12.159,40.131c1.954,13.182,15,24.773-1.056,38.967c6.007,1.675,6.557,3.321,10.856,3.93
			c8.036,1.142,8.872,5.258,4.52,10.814c-11.747,14.988-8.649,29.824-0.542,44.986c3.156,5.906,3.31,11.319,2.762,19.084
			c-2.281,32.298-13.093,49.865-20.68,73.369c-2.732,8.463,2.094,10.883,9.064,12.691c8.137,2.113-2.161,5.532,3.576,7.271
			c18.199,5.515,71.251,16.178,70.51-2.366c-0.367-9.174,27.914,10.84,52.747,14.383c23.643,3.371,4.362-6.889,27.786-6.826
			c16.824,0.045,24.616-5.369,41.491-5.787c11.679-0.291,15.142-12.773,26.084-12.719c0.568,0.003,9.057-4.643,10.643-4.682
			c11.666-0.301,6.259,6.842,13.774,5.642c7.362-1.177,6.026,1.362,13.184-3.147c12.252-7.721,19.97,2.342,26.8,0.604
			c7.117-1.811,10.874-13.076,15.795-9.51c0.714,0.52,24.242-10.404,20.139-23.263c-4.777-14.977-27.104-37.008-28.733-53.161
			c-2.013-19.962-10.623-39.8-13.313-59.693c-0.23-10.682-3.188-21.049-3.736-31.688c-3.975-13.173-6.82-26.716-12.27-39.405
			c-3.622-8.43-2.705-14.396,6.91-17.682c9.173-3.133,12.936-10.184,12.798-19.671c-0.299-21.29,5.652-42.417,2.905-63.79
			c0.236-15.194-0.972-30.576,0.959-45.553c7.992-61.984,48.273-114.762,48.684-177.484c0.042-6.525,0.326-13.582,7.925-16.858
			c-2.351-21.491-1.277-41.821,16.854-57.487c7.424-6.414,14.141-13.688,20.864-20.875c3.709-3.962,6.208-7.449,3.313-14.076
			c-3.382-7.74,0.818-15.242,8.058-19.15c5.882-3.176,9.845-7.396,12.756-13.061C517.6,84.781,512.276,84.979,507.634,84.445z
			 M393.464,293.248c-10.837,21.678-16.9,39.28-31.48,53.795c-6.337,6.309-12.939,13.295-20.967,17.459
			c-15.152,7.857-16.619,1.319-19.812-15.332c-7.522-39.234-7.336-82.477,7.672-119.391c2.154-5.303,5.295-5.044,9.137-5.375
			c27.588-2.389,23.607-6.35,51.245-7.688c12.448-0.603,21.446-4.236,30.329-12.612c8.401-7.92,7.063-3.785,17.148-10.355
			C432.074,203.373,399.462,281.248,393.464,293.248z"/>
		<path fill-rule="evenodd" clip-rule="evenodd" fill="#D14C43" d="M462.289,191.286c-1.919-0.72-6.726,1.354-6.343-0.854
			c2.825-16.268-7.312-22.131,8.763-35.575c9.559-7.993,18.668-22.708,27.833-31.054c1.567-1.428,4.773-2.613,2.359-5.629
			c-7.931-9.904-4.218-19.778,9.928-24.664c4.998-1.725,2.293-10.908,11.022-8.043c16.295,4.083,17.096,6.16,6.978,17.492
			c-2.234,2.506-2.186,5.573-4.342,7.994c-9.206,10.33-15.486,16.467-16.658,29.369c-8.295,24.799-6.972,28.845-23.949,46.877
			C470.913,191.309,474.689,189.261,462.289,191.286z"/>
		<path fill-rule="evenodd" clip-rule="evenodd" fill="#D14C43" d="M118.086,204.979c-3.349-7.604,0.096-6.282,5.187-6.743
			c22.204-2.015,60.469,7.667,76.099,26.863c6.694,8.223,15.862,12.108,27.358,9.385c14.437-3.425,22.162,9.221,32.676,15.15
			c0.663,0.377,0.656,2.934,0.507,3.085c-9.936,9.965,6.861,10.48,9.031,17.32c1.565,4.931,7.973,5.104,9.27,10.04
			c1.205,4.59,1.191,10.963-1.205,14.662c-2.876,4.439-17.385-0.973-21.037-1.453c-9.504-1.25-14.013-8.204-20.379-13.265
			c-5.837-4.642-11.547-9.97-19.732-10.307c-6.359,1.45-2.816,2.58-8.955,5.151c-14.059,5.891-16.723,4.66-24.752-9.413
			c-11.907-11.347-41.833-31.704-53.74-43.05C122.843,217.859,118.579,212.535,118.086,204.979z"/>
		<path fill-rule="evenodd" clip-rule="evenodd" fill="#FFFFFF" d="M166.265,492.608c-4.253-63.58-11.234-115.313-6.903-172.847
			c1.1-14.608,5.721-97.561,9.656-111.943c1.288-7.27-3.357-12.141-7.812-16.189c-8.625-7.84-4.827-21.35-18.184-24.182
			c-0.086,1.785,0.096,3.668-0.318,5.34c-19.947,80.528-17.423,146.877-32.103,191.326c-5.599,16.955-6.309,34.115,2.632,51.687
			c3.255,6.396,3.434,12.538-0.226,19.071c-12.204,21.795-5.11,45.715-19.097,66.49c-4.108,6.104-2.08,7.709,3.397,10.766
			c7.108,3.971-4.092,17.352-0.541,23.934C96.767,536.061,167.632,513.055,166.265,492.608z"/>
	</g>
</g>
<g id="Layer_14">
	<g>
		<path fill-rule="evenodd" clip-rule="evenodd" fill="#D14C43" d="M432.704,1347.825c2.477-22.088-3.617-44.207-1.559-66.363
			l2.897-38.4c-2.136-47.976,7.969-50.819,1.375-105.555c-2.397-5.627-4.253-11.07-2.791-17.01c0.896-3.666,1.505-7.425,2.197-11.15
			c3.6-19.382,0.438-47.428,4.188-66.777c0.933-4.82,7.26-10.473,7.964-12.077c7.713-17.533,8.462-26.564,12.043-48.421
			c-4.212-19.771-6.211-18.441-9.985-22.708c-10.044-4.087-5.105-14.726-43.39-20.98c-2.264-2.585-18.661-18.145-20.607-24.104
			c-5.006-12.22-4.725-20.172,3.088-30.236c10.51-13.537,8.984-28.404,8.575-43.561c-0.163-6.006,0.135-12.26-3.044-17.838
			c-15.189-26.658-48.705-29.906-70.043-9.066c-6.331,6.186-6.898,14.751-7.965,22.852c-1.666,12.678-4.107,25.559-1.38,38.299
			c2.818,13.157,6.708,26.134,10.894,38.936c2.088,6.386,0.889,10.604-4.137,14.209c-12.47,8.932-27.723,27.238-41.499,33.014
			c-23.435,9.825-31.812,19.917-48.549,26.849c-3.046,1.262-24.835-6.989-34.72-4.962c-0.718-0.201-1.648-6.185-2.826-5.823
			c-5.867,1.796-14.936,0.323-19.807-7.398c-3.197-5.066-6.934,0.31-4.159,4.476c2.03,3.058,3.214,6.93,1.611,9.999
			c-1.573,3-4.153,7.654-7.37,5.157c-6.957-5.397-7.937,2.462-14.752-1.259c-2.383-1.304-6.44-3.351-6.953,0.279
			c-0.861,6.11,1.506,12.666,4.089,18.497c1.819,4.116,4.827,6.84,8.351,6.373c7.617-1.011,15.309-1.761,22.773-3.437
			c0.164-0.037,0.33-0.082,0.496-0.131c0.103,0.027,0.204,0.045,0.297,0.047c28.443,1.786,18.89,17.479,30.653,17.836
			c6.117,0.678,30.55,18.134,36.64,17.709c11.795-0.825,18.308-7.957,24.732-1.954c11.344,10.599,16.704,14.868,16.906,29.966
			c0.023,1.779,1.886,5.279,2.223,7.031c3.232,16.7,5.292,33.682,7.479,50.504c2.417,18.564,4.911,37.15,7.022,55.758
			c1.512,13.297,5.068,26.697,2.895,40.053l-0.062,3.336c-9.22,20.301,9.87,106.574,10.214,108.785
			c3.186,20.463,1.426,25.5,4.857,45.568c0.667,10.26,5.335,35.049,2.451,45.748c-4.22,15.646-5.204,60.845-6.174,112.328
			c3.8,13.613,5.423,27.625-7.275,36.896c-2.854,2.078-10.175,4.436-12.45,7.309c-6.256,7.9-1.963,10.43,8.14,12.324
			c15.323,2.881,30.585-0.188,45.89,0.3c10.156,0.318,14.074-3.595,11.481-13.847c-2.562-10.123-1.601-18.986,1.859-28.193
			c3.044-8.102,16.939-49.904,22.117-49.803c3.763-0.713,11.308,2.877,10.54,12.154c-1.162,14.068-8.518,14.919-9.055,33.523
			c-1.255,5.101-1.329,8.309,1.158,13.414c11.938,3.367,9.784,3.934,20.901-5.963c1.653-1.471,34.931-23.321,36.174-29.254
			c2.007-4.749,1.281-3.528-1.639-18.338c-0.523-3.361,11.233-8.518,9.586-11.357
			C435.991,1448.079,430.253,1369.69,432.704,1347.825z"/>
	</g>
</g>
</svg>
