<?xml version="1.0" encoding="utf-8"?>
<!-- Generator: Adobe Illustrator 16.0.0, SVG Export Plug-In . SVG Version: 6.00 Build 0)  -->
<!DOCTYPE svg PUBLIC "-//W3C//DTD SVG 1.1//EN" "http://www.w3.org/Graphics/SVG/1.1/DTD/svg11.dtd">
<svg version="1.1" xmlns="http://www.w3.org/2000/svg" xmlns:xlink="http://www.w3.org/1999/xlink" x="0px" y="0px" width="600px"
	 height="800px" viewBox="0 0 600 800" enable-background="new 0 0 600 800" xml:space="preserve">
<g id="Layer_21_copy">
	<g>
		<path fill-rule="evenodd" clip-rule="evenodd" fill="#FFFFFF" d="M516.006-694.536c-8.866-1.018-18.798,12.11-19.772-5.258
			c-6.533,15.844-12.479,15.305-12.115,27.938c0.232,8.078-2.205,14.018-7.811,19.134c-17.676,16.12-15.504,13.04-38.553,21.573
			c-14.043,5.3-23.074,19.376-38.434,20.707c-25.314,2.195-15.982,9.745-41.963,4.757c-10.764-2.066-21.854-4.14-33.072-3.485
			c-16.902,0.982-31.393-3.363-41.928-17.871c-3.953-5.446-13.91-12.883-14.723-19.585c-1.262-10.397-0.021-11,5.061-17.218
			c5.426-6.641,4.691-4.438,7.268-18.379c1.67-9.039,3.422-19.603,3.146-25.525c-0.828-17.803-1.904-25.617-11.338-37.399
			c-12.373-15.452-27.18-18.093-46.27-15.646c-15.896,2.039-19.227,7.118-30.445,20.951c-7.092,8.746-11.553,36.227-8.346,50.846
			c1.592,7.254,2.816,11.904,6.16,21.04c3.574,9.766,18.133,17.522,20.381,20.458c3.912,5.107-1.256,9.521-4.453,13.104
			c-5.932,6.646-12.93,10.97-22.795,10.047c-39.41-3.676-67.678-17.653-107.232-20.746c-8.004-0.628-16.1,5.125-17.832,14.521
			c-1.928,10.449,6.174,14.681,13.82,17.896c16.613,6.984,23.289,20.934,41.172,23.204c10.697-0.493,7.795-3.438,14.482-1.797
			c59.846,14.684,39.035,23.043,49.467,36.362c9.977,12.734,23.727,31.618,17.83,40.858c-0.105,3.939,10.371,24.194,11.113,27.975
			c3.625,18.477,1.994,34.141-2.273,51.706c-5.936,24.423-1.605,47.698-4.719,72.274c-0.994,7.84-10.48,29.217-13.209,36.965
			c-9.131,25.911-8.494,33.055-13.791,58.619c0.092,1.343,0.008,2.459-0.664,3.039c0.191-1.018,0.457-2.023,0.664-3.039
			c-0.084-1.254-0.318-2.701-0.377-4.107c-2.537-62.646,17.166-125.296,21.873-187.811c1.195-15.873-9.008-32.096-4.732-47.725
			c1.398-7.898-3.648-13.191-8.488-17.591c-9.371-8.519-1.104-32.989-15.613-36.065c-0.125,2.599-1.311,21.675-1.324,25.382
			c-0.217,55.018,11.531,62.849,6.549,124.19c-1.572,19.338-8.723,13.059-6.932,56.161c0.322,7.79,3.73,13.623-0.244,20.722
			c-13.262,23.683-5.553,49.674-20.752,72.248c-4.463,6.631-0.756,30.55,3.104,37.703c8.014,14.852-8.863,26.782-6.369,43.604
			c2.123,14.324,5.977,45.949,10.648,46.61c8.732,1.241-4.486,24.577,4.322,41.052c3.428,6.417,3.598,12.299,3,20.736
			c-2.479,35.094,5.355,5.23-2.889,30.769c-2.969,9.194,2.275,2.034,9.85,3.999c8.84,2.297-2.35,15.802,3.885,17.691
			c19.775,5.992,38.258,27.368,37.449,7.219c-0.396-9.969,10.75-7.803,37.73-3.953c25.691,3.663,4.742,2.306,30.193,2.375
			c18.277,0.047,26.744,13.744,45.08,13.291c12.691-0.316,45.826-23.67,57.715-23.611c0.617,0.004,9.842-5.043,11.564-5.086
			c12.676-0.326,6.801,7.435,14.967,6.131c8-1.279,6.549,1.48,14.324-3.42c13.314-8.391,21.699,2.545,29.121,0.654
			c7.732-1.967,11.814-14.207,17.162-10.332c0.775,0.564,26.342-11.305,21.883-25.277c-5.191-16.272-29.451-20.63-31.223-38.182
			c-2.188-21.69-11.543-43.246-14.465-64.861c-0.252-11.606-3.463-22.871-4.061-34.432c-4.318-14.313,2.381-29.029-3.543-42.818
			c-3.934-9.159-2.936-15.641,7.512-19.211c9.965-3.404,4.264-11.065,4.113-21.374c-0.324-23.134,6.143-46.09,3.158-69.312
			c0.256-16.511-1.057-33.224,1.041-49.498c8.686-67.351,23.082-85.534,23.525-153.688c0.047-7.092,0.357-14.758,8.613-18.316
			c-2.557-23.352-20.969-25.862-1.268-42.883c8.064-6.971,15.365-14.873,22.67-22.684c4.031-4.307,6.746-8.096,3.602-15.296
			c-3.676-8.409,0.889-16.561,8.757-20.808c6.391-3.45,10.697-8.037,13.859-14.192C526.832-694.169,521.049-693.957,516.006-694.536
			z M399.78-467.656c-11.773,23.555-18.361,13.31-34.205,29.079c-6.887,6.855-4.27,14.447-12.992,18.972
			c-16.463,8.537-16.098-18.147-19.566-36.24c-8.176-42.632-7.973-60.245,8.334-100.354c2.342-5.764,5.756-5.481,9.93-5.842
			c29.975-2.596,25.65-6.898,55.682-8.354c13.525-0.654,23.303-4.602,32.955-13.703c9.127-8.607,7.672-4.115,18.631-11.252
			C453.481-584.894,406.298-480.696,399.78-467.656z"/>
	</g>
</g>
<g id="Layer_0-3_copy">
	<g>
		<path fill-rule="evenodd" clip-rule="evenodd" fill="#FFFFFF" d="M517.873,81.203c-8.169-0.939-17.317,0.332-18.216-15.666
			c-6.018,14.595-11.494,24.92-11.158,36.557c0.211,7.443-2.031,12.912-7.197,17.627c-16.281,14.848-32.318,30.049-53.551,37.908
			c-12.936,4.884-22.156,17.85-36.305,19.076c-23.32,2.02-46.287,8.977-70.221,4.381c-9.914-1.904-20.129-3.813-30.463-3.211
			c-15.57,0.906-28.92-3.098-38.623-16.463c-3.643-5.017-9.551-7.914-14.463-11.729c-6.688-15.161-4.861-19.779,9.17-25.779
			c6.73-2.879,17.937-2.893,13.906-15.125c-2.648-8.043,0.461-20.864-4.314-23.514c-14.396-7.992-15.28-23.6-23.97-34.452
			c-11.397-14.232-20.271-18.346-37.108-11.393c-13.646,5.636-27.436,10.021-38.966,21.69c-19.411,19.65-21.402,24.775-4.081,45.936
			c4.366,5.332,9.333,9.957,7.148,18.697c-1.62,6.477,12.422,19.911,16.771,17.289c3.615-2.181,5.767-5.4,9.548-0.463
			c3.603,4.703,1.548,8.769-1.397,12.068c-5.465,6.123-11.91,10.105-20.998,9.256c-36.302-3.387-71.356,10.792-107.792,7.944
			c-7.373-0.579-14.829,4.72-16.425,13.375c-1.775,9.626,5.686,13.523,12.729,16.485c15.304,6.434,31.371,10.266,47.843,12.357
			c2.539-5.17,6.104-7.703,12.44-7.968c17.829-0.741,33.676,2.087,45.564,17.265c9.189,11.729,20.827,18.529,36.829,18.477
			c12.592-0.04,18.996,8.256,20.791,21.984c0.492,3.766,2.884,6.48,5.102,9.274c4.203,5.294,7.666,11.019,10.121,17.317
			c1.509,3.871,2.588,8.209-0.764,11.321c-4.016,3.731-7.422-0.59-10.794-2.171c-8.729-4.096-13.229-13.371-21.444-18.04
			c-4.756-2.702-9.87-9.199-15.3-0.687c-0.099,3.628,0.63,7.217,2.12,10.438c7.545,16.296,5.676,31.625-2.095,47.631
			c-10.113,20.826-13.633,43.438-13.365,66.577c0.085,7.278-0.832,14.177-4.954,20.524c-13.781,21.223-24.055,43.975-28.934,67.523
			c0.084,1.238,0.008,2.267-0.613,2.801c0.176-0.938,0.42-1.864,0.613-2.801c-0.077-1.154-0.294-2.488-0.347-3.783
			c-2.338-57.707-2.226-115.418,2.109-173.005c1.101-14.622,0.722-29.567,4.659-43.964c1.289-7.276-3.359-12.151-7.818-16.204
			c-8.631-7.848-11.837-21.37-25.203-24.204c-0.087,1.787,0.226,3.708-0.319,5.344c-14.788,44.458-29.776,88.85-44.47,133.34
			c-5.604,16.971-10.822,34.146-1.874,51.734c3.258,6.4,3.437,12.549-0.226,19.088c-12.215,21.816-22.248,44.856-36.248,65.65
			c-4.111,6.109-2.081,7.717,3.4,10.775c7.115,3.975,15.744,8.35,19.299,14.938c7.38,13.683,20.693,24.672,22.99,40.168
			c1.955,13.195,15.916,26.601-0.155,40.807c6.013,1.676,10.169,3.324,14.474,3.933c7.209,1.024,8.408,4.291,5.631,9.1
			c-37.225,105.409-37.594,134.515,65.312,148.209c11.504,1.53,51.096-39.157,54.314-45.382c9.305-17.98-14.736-34.63-17.453-35.1
			c0,0,5.256-70.108-21.302-55.806c-56.317,30.322-3.688-66.509,9.244-56.802c-10.953-48.74,3.241,45.377,40.304,32.385
			c-4.852,15.144-8.75,35.939-14.238,52.475c-9.975,30.055,7.022,38.168,13.492,39.761c67.002,16.483,62.383,14.669,35.887,63.583
			c35.508-33.006,127.627-27.891,128-27.252c2.256,0.237,3.707,2.83,4.885,9.311c0.436,2.391-0.688,5.742,3.877,5.682
			c3.234-4.029-1.264-10.217,5.57-11.957c7.125-1.812,10.887,4.95,15.811,8.52c0.715,0.52,1.369,1.178,1.91,1.882
			c13.465,17.6,30.783,17.325,49.203,13.649c3.281-0.652,4.863,1.607,5.1-2.68c0.262-4.709-3.396-6.785-6.615-7.966
			c-13.363-4.916-28.039-11.692-32.146-24.563c-4.781-14.99-13.6-26.219-15.229-42.388c-2.018-19.979-5.223-39.836-7.916-59.747
			c-0.23-10.691-3.191-21.068-3.74-31.719c-3.979-13.185-6.826-26.74-12.281-39.441c-3.625-8.438-2.707-14.408,6.918-17.697
			c9.18-3.137,12.945-10.193,12.809-19.689c-0.299-21.31,4.756-42.457,2.006-63.848c0.236-15.209-0.971-30.605,0.961-45.596
			c7.998-62.041,44.711-123.886,45.119-186.666c0.043-6.531,0.33-13.595,7.936-16.874c-2.355-21.511-1.279-41.86,16.869-57.54
			c7.43-6.42,14.152-13.701,20.883-20.895c3.713-3.966,6.216-7.457,3.316-14.09c-3.385-7.746,0.818-15.256,8.065-19.167
			c5.889-3.179,9.855-7.403,12.768-13.073C527.846,81.539,522.518,81.735,517.873,81.203z M138.188,653.484
			c18.008,3.604,19.953,22.75,17.569,29.729c-4.019,11.559-28.19,16.334-46.591,13.395
			C91.397,693.812,126.575,651.164,138.188,653.484z M381.048,290.197c-13.35,15.681-26.836,31.2-41.43,45.728
			c-6.344,6.315-12.951,12.405-20.986,16.573c-15.166,7.863-21.143,4.928-24.338-11.739c-7.531-39.271-2.834-77.14,12.186-114.089
			c2.158-5.309,5.303-5.049,9.146-5.381c27.613-2.391,55.193-5.453,82.857-6.793c12.459-0.604,22.369-4.24,31.26-12.624
			c8.408-7.927,17.389-15.248,27.482-21.824C450.229,194.492,386.351,283.967,381.048,290.197z"/>
		<path fill-rule="evenodd" clip-rule="evenodd" fill="#D14C43" d="M427.751,157.629c-12.473,13.031-26.521,21.083-45.299,24.559
			c-34.105,6.311-67.439,0.465-101.094-0.805c-21.633-0.814-32.598-16.342-43.682-31.699c9.549-3.605,18.838-9.002,28.705-10.449
			c21.062-3.086,27.494-18.01,28.842-35.133c0.689-8.789-4.646-18.348-8.35-27.097c-3.299-7.795-8.125-15.172-8.838-23.67
			c-1.357-16.18,0.83-32.4,15.137-42.127c15.193-10.328,33.596-14.812,50.982-7.863c15.934,6.371,21.018,23.443,25.572,38.6
			c4.18,13.908,2.051,28.499,1.105,43.017c-0.609,9.372-3.703,12.307-11.615,14.459c-16.914,4.602-14.109,4.891-10.49,22.5
			c4.004,19.482,18.691,18.148,30.793,21.414C395.735,147.713,412.653,149.484,427.751,157.629z"/>
		<path fill-rule="evenodd" clip-rule="evenodd" fill="#D14C43" d="M408.731,555.061c-2.219-6.377-10.637-11.729-4.146-17.721
			c5.861-5.41,8.949-7.566,8.566-21.643c-0.535-19.74-3.113-69.73,1.354-89.275c9.105,17.039,40.354,70.006,44.314,88.591
			c2.443,11.474,6.805,21.171,15.998,28.337c8.049,6.273,13.332,14.482,16.752,23.757c9.523,25.855,21.353,51.073,25.993,78.417
			c3.592,21.182,22.234,36.356,23.131,57.604c0.734,17.386,12.234,25.823,22.471,35.939c5.91,5.836,10.34,12.555,12.125,20.381
			c1.74,7.628,3.863,16.162-4.84,21.795c-8.98,5.815-18.668,5.416-26.055-1.283c-13.154-11.928-26.68-24.168-32.033-42.027
			c-1.698-5.658-2.679-9.051-9.333-5.66c-4.893,2.487-8.348,0.615-10.379-4.568c-14.207-36.252-34.729-68.932-54.262-102.615
			C434.38,618.178,414.39,571.295,408.731,555.061z"/>
		<path fill-rule="evenodd" clip-rule="evenodd" fill="#D14C43" d="M99.741,214.057c-2.65-7.882-1.574-11.541,8.485-11.664
			c22.312-0.268,42.43,2.5,56.273,23.047c5.93,8.803,14.716,13.506,26.421,11.83c14.7-2.109,21.258,11.195,31.201,18.058
			c0.628,0.434,1.289,2.079,1.128,2.218c-12.48,10.68,4.087,13.773,5.634,20.787c1.115,5.059,5.68,9.418,6.527,14.455
			c0.787,4.686,0.196,11.037-2.525,14.507c-3.268,4.167-8.264-1.644-11.861-2.454c-9.361-2.105-13.226-9.445-19.113-15.065
			c-5.398-5.154-10.609-11.886-18.736-12.96c-6.47,0.869-12.02,2.322-18.37,4.332c-14.545,4.602-17.089,3.134-23.82-11.621
			c-10.841-12.388-21.683-24.774-32.524-37.162C103.319,227.326,99.55,221.633,99.741,214.057z"/>
		<path fill-rule="evenodd" clip-rule="evenodd" fill="#D14C43" d="M468.698,211.522c-1.871-0.864-5.775-0.284-5.336-2.746
			c3.232-18.134-1.09-38.415,15.117-52.968c9.633-8.652,18.84-17.783,28.098-26.844c1.584-1.548,4.775-2.775,2.48-6.23
			c-7.537-11.345-3.605-22.289,10.462-27.314c4.971-1.775,2.562-12.147,11.08-8.662c15.936,5.086,16.668,7.439,6.389,19.813
			c-2.273,2.736-5,5.267-7.191,7.911c-9.354,11.281-6.666,20.62-0.986,32.374c10.834,22.416-0.305,47.03-23.825,56.65
			C493.325,208.276,480.966,209.645,468.698,211.522z"/>
		<path fill-rule="evenodd" clip-rule="evenodd" fill="#D14C43" d="M429.743,201.872c-8.891,8.384-18.801,12.021-31.26,12.624
			c-27.664,1.34-55.244,4.402-82.857,6.793c-3.844,0.332-6.988,0.072-9.146,5.381c-15.02,36.949-19.717,74.818-12.186,114.089
			c3.195,16.667,9.172,19.603,24.338,11.739c8.035-4.168,14.643-10.258,20.986-16.573c14.594-14.527,28.08-30.047,41.43-45.728
			c5.303-6.23,9.461-12.59,11.799-20.287c0.717-5.254,1.221-10.548,2.191-15.755c5.658-30.38,5.695-30.374,35.484-34.725
			c12.73-10.606,19.707-24.938,26.703-39.383C447.132,186.624,438.151,193.945,429.743,201.872z"/>
		<path fill-rule="evenodd" clip-rule="evenodd" fill="#FFFFFF" d="M134.713,489.74c-2.338-57.707-2.226-115.418,2.109-173.005
			c1.101-14.622,8.722-89.567,12.659-103.964c1.289-7.276-3.359-12.151-7.818-16.204c-8.631-7.848-1.837-21.37-15.203-24.204
			c-0.087,1.787,0.226,3.708-0.319,5.344c-14.788,44.458-47.776,148.85-62.47,193.34c-5.604,16.971-10.822,34.146-1.874,51.734
			c3.258,6.4,3.437,12.549-0.226,19.088c-12.215,21.816-22.248,44.856-36.248,65.65c-4.111,6.109-2.081,7.717,3.4,10.775
			c7.115,3.975,15.744,8.35,19.299,14.938c7.38,13.683,20.693,24.672,22.99,40.168C72.968,586.596,134.766,491.035,134.713,489.74z"
			/>
	</g>
</g>
</svg>
