<?xml version="1.0" encoding="utf-8"?>
<!-- Generator: Adobe Illustrator 16.0.0, SVG Export Plug-In . SVG Version: 6.00 Build 0)  -->
<!DOCTYPE svg PUBLIC "-//W3C//DTD SVG 1.1//EN" "http://www.w3.org/Graphics/SVG/1.1/DTD/svg11.dtd">
<svg version="1.1" xmlns="http://www.w3.org/2000/svg" xmlns:xlink="http://www.w3.org/1999/xlink" x="0px" y="0px" width="600px"
	 height="800px" viewBox="0 0 600 800" enable-background="new 0 0 600 800" xml:space="preserve">
<g id="Layer_19">
	<g>
		<path fill-rule="evenodd" clip-rule="evenodd" fill="#FFFFFF" d="M444.613,514.883c4.688-14.947-0.201-26.847,9.226-39.207
			c4.542-5.953,13.748-8.926,21.396-11.737c5.894-2.167,8.15-3.437,5.044-10.113c-10.579-22.724,2.867-43.925-5.785-67.379
			c-2.597-7.034-1.459-13.077,2.76-18.893c11.586-15.972-8.664-36.567-11.547-54.205c-7.594-46.448,22.148-86.255,14.452-132.713
			c-0.285-1.699,0.325-3.547,0.518-5.327c-13.643,0.712-8.924,13.564-18.676,19.967c-5.037,3.309-10.39,7.397-10.255,14.785
			c1.64,14.834-1.068,29.537-2.268,44.15c-4.718,57.555-23.625,114.577-34.956,171.212c-0.251,1.269-0.674,2.553-0.932,3.681
			c0.043,0.955,0.142,1.908,0.166,2.863c-0.528-0.626-0.442-1.653-0.166-2.863C412.452,405.08,440.618,527.607,444.613,514.883z"/>
		<path fill-rule="evenodd" clip-rule="evenodd" fill="#D14C43" d="M137.319,69.933c-0.423-2.467-0.894-4.926-1.259-7.402
			c-0.566-3.84,0.189-6.445,4.957-5.029c10.235,18.127,17.34,36.66,7.283,57.375c-1.406,5.496-2.885,10.461-8.664,13.752
			c-3.792,2.162-5.934,7.098-9.115,10.512c-1.487,1.596-2.492,2.924-1.081,4.834c1.381,1.867,2.983,0.309,4.206-0.262
			c11.731-5.48,24.133-7.008,36.898-6.539c4.141,0.475,8.268,1.191,12.418,1.371c7.555,0.324,12.589-3.586,15.789-10.18
			c9.668-3.887,17.2-7.963,20.501-20.359c2.546-9.555-0.152-15.764-3.015-23.27c-5.122-13.43-10.089-26.98-10.635-41.516
			c-0.777-20.666,2.219-26.941,20.111-35.826c11.113-5.52,23.843-8.508,36.994-7.008c5.284,0.604,10.087,3.32,12.109,6.75
			c5.76,9.771,12.866,20.137,14.105,30.881c2.237,19.4,5.804,39.361-0.723,58.896c-0.777,2.322-1.832,4.703-4.108,4.816
			c-15.47,0.771-6.169,12.342-7.619,18.617c-1.745,7.539,6.215,9.52,11.441,11.285c14.835,5.01,24.352,11.178,42.271,11.418
			c12.381,0.166,53.47,16.1,64.801,19.723c52.535,7.733,71.38,32.266,79.176,44.246c5.135,12.291,8.201,22.609-2.053,31.561
			c-0.467,0.406-22.295,11.057-35.734,9.021c1.524-4.684,4.062-7.951,6.986-11.689c3.263-4.172,8.224-7.861,1.459-10.107
			c-5.452-1.811-94.696-1.219-105.584-1.434c-6.541-0.129-9.668,2.922-10.318,8.734c-1.533,13.668-4.247,27.238-5.609,40.812
			c-1.8,17.906-5.148,35.508-8.171,53.121c-3.489,20.34-8.297,40.471-15.297,60.115c-7.302,20.494-9.924,42.232-13.401,63.703
			c-4.144,25.582-7.171,51.289-10.48,76.977c-1.633,12.668,3.388,24.027-9.646,32.387c-4.144,2.656-8.788,7.877-7.413,14.691
			c-7.392,6.811-5.165,17.57-11.083,25.443c-18.062,24.023-5.091,25.297-16.218,52.461c-4.587,11.199-2.52,19.453-9.062,28.994
			c-9.681,14.119-13.694,39.057-4.57,55.496c5.12,9.223,8.949,9.223,7.524,20.119c-1.541,11.771-15.461,8.749-31.266,19.631
			c-3.393,2.336-8.779-3.576-9.781,4.105c-0.265,2.029-14.427,5.155-18.56,5.486c-8.19,0.656-10.189-3.096-10.252-10.799
			c-0.115-14.268-1.924-28.506,2.451-42.557c1.521-4.887-15.554,7.382-22.1,1.266c-4.625-2.922-4.625-2.922-4.316-9.807
			c0.362-8.077,5.021-16.016,1.129-22.926c-6.527-11.592-5.454-15.672,4.596-23.531c1.41-1.1,4.746-2.521,3.008-3.801
			c-7.837-5.766-1.609-11.713-0.508-17.172c5.182-25.688,12.856-29.715,17.932-55.42c2.787-14.121,11.153-35.447,12.076-49.787
			c1.404-21.789-2.029-36.432,0.174-58.127c2.717-26.729-1.717-53.256-4.569-79.654c1.544-30.117,1.984-48.471,15.9-84.996
			c8.397-22.041,4.215-34.151,3.581-57.285c-0.123-4.481-1.473-8.066-1.584-12.188c-0.111-4.15,0.434-8.51-0.647-12.404
			c-1.686-6.068-3.849-12.205-7.007-17.615c-4.078-6.98-11.191-0.877-16.772-2.561c-3.339-1.006-7.535-0.588-9.912-3.18
			c-9.884-10.785-22.474-10.453-35.507-9.98c-7.583,0.273-14.986-1.564-22.5-3.549c-17.508-4.623-22.16-19.688-28.438-33.055
			c-4.164-8.867,0.518-17.396,6.088-24.824c6.066-8.086,11.877-16.396,18.392-24.107c3.729-4.416,7.478-9.148,14.942-8.438
			c4.55,0.432,14.857-14.252,15.982-19.578c1.775-8.424-1.045-17.912,5.645-25.217c6.246-1.789,10.35,2.307,14.816,6.141
			C139.604,76.985,139.479,73.349,137.319,69.933z"/>
		<path fill-rule="evenodd" clip-rule="evenodd" fill="#FFFFFF" d="M252.901,573.767c-1.375-6.814,3.27-12.035,7.413-14.693
			c13.033-8.357,14.013-21.719,15.646-34.385c3.31-25.688,6.337-51.395,10.48-76.979c3.478-21.469,6.1-43.207,13.401-63.701
			c7-19.645,11.808-39.777,15.297-60.115c3.022-17.613,6.371-35.215,8.171-53.123c1.362-13.574,4.076-27.143,5.609-40.811
			c0.65-5.812,3.816-8.009,10.318-8.736c108.285-12.109,104.132-0.377,109.584,1.436c6.765,2.244,2.804,5.936-0.459,10.107
			c-2.925,3.738-7.462,7.006-8.986,11.689c-10.284,12.924-20.361,25.963-27.071,41.252c-3.809,8.68-3.252,16.486,0.371,25.631
			c13.897,35.07,23.947,71.053,18.814,109.504c-0.425,3.182-0.652,6.391-1.156,9.559c-2.698,16.986,1.423,30.094,17.877,39.037
			c16.401,8.912,16.698,11.549,13.537,29.098c-3.327,18.475,8.321,61.008,24.213,71.301c5.483,3.553,9.598,8.039,11.721,14.459
			c2.298,6.951,4.513,14.123,9.377,19.797c9.504,11.074,29.883,45.826,31.783,58.98c0.731,5.057-1.6,60.178-6.231,61.6
			c-8.85,2.719-28.289,12.492-37.195,11.256c-7.831-1.086-13.237-0.438-15.309,9.307c-1.664,7.834-21.184-5.154-19.666,5.352
			c0.373,2.578-10.246,5.355-13.465,6.229c-4.263,1.158-3.456-2.914-4.365-4.795c-6.703-13.836-11.219-14.451-20.427-2.121
			c-4.183,5.604-9.094,1.842-11.179,8.279c-3.231,9.971-10.113,20.096-18.894,19.963c-11.836-0.178-23.765,1.148-35.504-1.463
			c-10.983-2.443-16.376,0.473-16.487-10.832c-0.094-9.32-11.207,12.922-13.107,3.748c-1.201-5.787-3.85-8.324-9.839-7.686
			c-4.771,0.51-9.611,0.334-14.409,0.645c-6.752,0.43-12.293-1.26-13.801-8.682c-1.075-5.289-4.844-4.547-8.138-4.033
			c-13.484,2.096-26.256-1.32-38.616-5.629c-10.247-3.574-14.857-11.311-7.352-20.434c1.629-1.975,2.845-4.344,4.662-6.107
			c10.787-10.465,25.7-51.895,20.853-68.814c-4.912-17.143-6.486-36.566-1.979-55.18
			C260.204,586.218,256.271,579.985,252.901,573.767z M389.336,729.966c-15.116,1.027-19.581,8.166-15.007,22.523
			c2.101,6.602,7.615,2.58,6.869,10.18c-0.144,1.459,0.851,2.373,2.263,2.562c2.165,0.293,2.29-1.375,2.913-2.893
			c4.539-11.029,5.585-13.551,9.016-24.852C397.323,731.116,396.275,727.95,389.336,729.966z"/>
		<path fill-rule="evenodd" clip-rule="evenodd" fill="#FFFFFF" d="M148.301,114.876c10.057-20.715,2.952-39.248-7.283-57.375
			c4.086-2.068,7.746-3.994,8.333,3.414c0.298,3.748,2.561,7.15,5.392,9.883c7.04,6.793,12.959,13.865,9.16,24.832
			c-0.545,1.568,0.849,4.74,2.338,5.93c10.973,8.775,20.543,19.256,32.514,26.805c-3.202,6.594-8.236,10.504-15.791,10.18
			c-4.15-0.18-8.277-0.896-12.421-1.371C164.799,128.075,155.936,122.089,148.301,114.876z"/>
		<path fill-rule="evenodd" clip-rule="evenodd" fill="#FFFFFF" d="M137.319,69.933c2.159,3.416,2.284,7.053,1.167,11.564
			c-4.467-3.834-8.57-7.93-14.816-6.141C125.709,67.229,131.834,69.388,137.319,69.933z"/>
		<path fill-rule="evenodd" clip-rule="evenodd" fill="#FFFFFF" d="M456.059,140.235c-1.173-1.203-1.835-6.307,1.423-9.184
			c5.977-5.275,7.598-4.971,12.695-7.213c8.281-3.643,11.424-11.33,11.106-19.854c7.14-24.99,5.642-26.416-3.062-49.15
			c-9.269-11.975-17.054-15.857-30.633-22.146c-16.752-7.758-26.629-4.219-37.969,11.662c-8.647,12.109-8.476,27.424-22.802,36.34
			c-4.752,2.955-2.853,16.988-4.292,26.232c-2.129,13.656,3.146,13.664,9.842,16.875c13.96,6.693,16.774,2.994,12.069,14.676
			c-1.676,4.162-13.768,3.66-17.766,5.547c-7.879,3.715-18.771,5.844-23.747,8.836c-2.2,3.65,75.646,27.754,86.437,31.232
			c14,4.512,20.365,17.529,27.792,29.025c10.616-4.662,22.048-6.516,33.116-9.609c7.494-2.094,15.103-5.203,15.455-13.314
			c0.348-7.977-2.332-16.469-9.786-21.68c-9.006-6.299-19.654-7.414-30.077-8.934c-8.243-1.203-12.57-4.879-20.855-5.779
			C463.561,147.667,462.562,146.913,456.059,140.235z"/>
		<path fill-rule="evenodd" clip-rule="evenodd" fill="#FFFFFF" d="M512.537,166.858c13.355,0.903,9.112,15.324,7.371,29.595
			c-1.931,1.103-4.747,1.863-5.646,3.375c-5.275,8.852-13.971,10.314-23.129,11.703c-6.398,0.971-11.6,5.315-17.298,8.141
			c-11.4,5.653-23.332,9.332-35.403,12.629c-12.654,3.453-24.961,1.338-36.902,0.361c-16.213-1.33-28.877,7.657-39.899,16.135
			c-4.674,3.595-0.296-8.654-2.121-10.254c-1.77-1.556-4.404-0.759-6.936-0.095c-2.953,0.776-5.144-0.049-6.468-3.057
			c-1.365-3.099,3.573-5.777,7.152-7.511c7.808-3.778,15.507-7.697,23.01-12.074c7.472-4.36,15.354-8.214,24.207-6.363
			c1.427,0.298,2.609-0.613,3.5-1.741c6.979-1.656,13.965-4.021,20.945-4.795c10.636-1.18,18.169-5.563,24.612-13.897
			C454.267,182.89,496.365,165.765,512.537,166.858z"/>
	</g>
</g>
<g id="Layer_15_copy">
	<g>
		<path fill-rule="evenodd" clip-rule="evenodd" fill="#D14C43" d="M455.129,1293.994c-4.428,26.752-0.562,14.325-4.297,41.178
			c-2.816,20.245-2.125,40.777-1.076,61.219c0.18,3.512,2.049,6.11,3.66,8.787c8.441,14.035,15.387,29.118,23.723,42.945
			c7.494,12.432,23.789,73.617,14.781,71.935c-5.258-0.981-0.014,2.308-1.074,7.29c-1.07,5.029-2.502,10.273-2.117,15.285
			c1.086,14.116-6.955,22.268-16.771,29.1c-3.764,2.619-8.691,4.281-13.26,1.034c-4.549-3.233-6.6-7.776-5.139-13.505
			c2.545-9.981,5.082-19.969,7.918-29.865c1.768-6.168,0.08-9.558-6.236-9.738c-18.58-0.529-19.193-0.988-25.205-20.688
			c-1.361-0.568-3.295-2.869-3.588,0.764c-0.244,3.044,0.131,6.142,0.234,9.215c-0.744,2.781-0.85,6.026-2.346,8.26
			c-4.807,7.164-4.342,14.444-2.018,22.253c1.926,6.476,3.885,13.027,3.504,19.973c-0.611,4.358-1.223,8.724-1.834,13.088
			c-1.877,2.115-4.834,3.906-4.516,7.051c1.215,12.093-6.814,12.199-14.301,11.403c-4.984-0.531-8.963,0.73-13.422,2.416
			c-14.166,5.349-28.689,8.76-43.857,5.05c-2.902-0.71-6.387-0.991-6.613-5.474c-0.189-3.753,1.605-6.236,4.613-7.73
			c4.748-2.363,8.715-5.816,12.865-9.076c3.689-2.896,6.207-5.469,4.561-11.104c-1.945-6.651,3.568-10.753,7.258-14.621
			c3.727-3.909,5.301-7.743,4.484-12.93c5.279-12.851,6.828-26.062,3.695-39.769c-4.086-17.883-1.08-36.187-2.969-54.294
			c-2.029-19.411-6.869-38.056-10.791-56.964c-13.197-63.63-23.059-127.691-24.146-192.958c-0.383-22.933-1.562-45.871-1.246-68.79
			c0.166-12.195,2.102-24.491,4.42-36.496c2.664-13.813,2.463-27.722,3.268-41.613c0.33-5.674-0.719-8.918-7.242-7.066
			c-2.953,0.837-6.201,0.514-9.311,0.779c-6.627,0.566-9.455-2.877-10.355-9.473c-2.373-17.399-2.527-16.28-19.01-16.646
			c-9.938-0.221-19.865-1.349-29.783-2.219c-4.588-0.402-7.494-3.63-8.459-7.854c-1.363-5.99-2.229-12.598,0.832-18.029
			c1.814-3.226,6.877-2.122,9.455-0.358c7.379,5.046,17.078,2.862,24.094,9.487c3.244,3.064,7.996-0.619,10.943-3.015
			c3.014-2.449,1.582-6.523,0.01-9.824c-2.143-4.501-6.234-6.933-9.877-9.806c-3.463-2.735-3.51-6.806-1.445-9.469
			c2.855-3.686,4.5,1.102,6.484,2.479c4.99,3.469,9.135,8.22,11.523,13.649c3.641,8.275,9.238,8.916,17.205,8.647
			c17.816-0.604,19.371-2.345,15.154-20.968c-0.775-3.414-1.607-4.245-5.449-6.869c-1.545-1.056-3.391-1.674-4.939-2.738
			c-7.379-5.07-8.443-9.846-1.186-15.421c4.041-3.105,6.504-7.266,10.787-10.532c6.902-6.54,15.871-7.538,24.941-11.833
			c9.697-4.225,19.393-12.535,31.445-16.689c4.305-1.484-0.209-6.235,4.275-9.181c4.092-2.689-4.924-5.386-6.184-18.422
			c0.023-3.232-2.096-6.513-2.477-9.697c-2.639-22.052,8.234-34.465,17.439-52.705c11.461-11.391,40.4-20.83,53.025-2.644
			c5.527,7.962,9.689-1.544,10.879,20.894c-2.574,20.226-7.004,35.051-19.707,48.427c-9.643,10.155-5.387,22.102-3.338,33.019
			c3.426,18.224,10.949,35.305,13.568,54.009c2.852,20.362,0.271,72.688-7.959,90.732c-15.061,51.679-10.879,38.501-9.348,58.615
			c0.926,12.189,2.346,22.37,6.887,33.523c10.191,25.037,4.781,58.667,5.627,86.194L455.129,1293.994z"/>
	</g>
</g>
</svg>
