<?xml version="1.0" encoding="utf-8"?>
<!-- Generator: Adobe Illustrator 16.0.0, SVG Export Plug-In . SVG Version: 6.00 Build 0)  -->
<!DOCTYPE svg PUBLIC "-//W3C//DTD SVG 1.1//EN" "http://www.w3.org/Graphics/SVG/1.1/DTD/svg11.dtd">
<svg version="1.1" xmlns="http://www.w3.org/2000/svg" xmlns:xlink="http://www.w3.org/1999/xlink" x="0px" y="0px" width="600px"
	 height="800px" viewBox="0 0 600 800" enable-background="new 0 0 600 800" xml:space="preserve">
<g id="Layer_14_copy">
	<g>
		<path fill-rule="evenodd" clip-rule="evenodd" fill="#D14C43" d="M432.704-252.176c2.477-22.088-3.617-44.207-1.559-66.363
			l2.897-38.4c-2.136-47.975,7.969-50.818,1.375-105.555c-2.397-5.627-4.253-11.07-2.791-17.01c0.896-3.666,1.505-7.424,2.197-11.15
			c3.6-19.381,0.438-47.428,4.188-66.777c0.933-4.82,7.26-10.473,7.964-12.076c7.713-17.533,8.462-26.564,12.043-48.422
			c-4.212-19.771-6.211-18.441-9.985-22.707c-10.044-4.088-5.105-14.727-43.39-20.98c-2.264-2.586-18.661-18.145-20.607-24.104
			c-5.006-12.221-4.725-20.172,3.088-30.236c10.51-13.537,8.984-28.404,8.575-43.561c-0.163-6.006,0.135-12.26-3.044-17.838
			c-15.189-26.658-48.705-29.906-70.043-9.066c-6.331,6.186-6.898,14.75-7.965,22.852c-1.666,12.678-4.107,25.559-1.38,38.299
			c2.818,13.156,6.708,26.133,10.894,38.936c2.088,6.385,0.889,10.604-4.137,14.209c-12.47,8.932-27.723,27.238-41.499,33.014
			c-23.435,9.824-31.812,19.916-48.549,26.848c-3.046,1.262-24.835-6.988-34.72-4.961c-0.718-0.201-1.648-6.186-2.826-5.824
			c-5.867,1.797-14.936,0.324-19.807-7.398c-3.197-5.066-6.934,0.311-4.159,4.477c2.03,3.057,3.214,6.93,1.611,9.998
			c-1.573,3-4.153,7.654-7.37,5.158c-6.957-5.398-7.937,2.461-14.752-1.26c-2.383-1.303-6.44-3.35-6.953,0.279
			c-0.861,6.111,1.506,12.666,4.089,18.498c1.819,4.115,4.827,6.84,8.351,6.373c7.617-1.012,15.309-1.762,22.773-3.438
			c0.164-0.037,0.33-0.082,0.496-0.131c0.103,0.027,0.204,0.045,0.297,0.047c28.443,1.787,18.89,17.479,30.653,17.836
			c6.117,0.678,30.55,18.135,36.64,17.709c11.795-0.824,18.308-7.957,24.732-1.953c11.344,10.598,16.704,14.867,16.906,29.965
			c0.023,1.779,1.886,5.279,2.223,7.031c3.232,16.701,5.292,33.682,7.479,50.504c2.417,18.564,4.911,37.15,7.022,55.758
			c1.512,13.297,5.068,26.697,2.895,40.053l-0.062,3.336c-9.22,20.301,9.87,106.574,10.214,108.785
			c3.186,20.463,1.426,25.5,4.857,45.568c0.667,10.26,5.335,35.049,2.451,45.748c-4.22,15.646-5.204,60.846-6.174,112.328
			c3.8,13.613,5.423,27.625-7.275,36.896c-2.854,2.078-10.175,4.436-12.45,7.309c-6.256,7.9-1.963,10.43,8.14,12.324
			c15.323,2.881,30.585-0.188,45.89,0.301c10.156,0.318,14.074-3.596,11.481-13.848c-2.562-10.123-1.601-18.986,1.859-28.193
			c3.044-8.102,16.939-49.904,22.117-49.803c3.763-0.713,11.308,2.877,10.54,12.154c-1.162,14.068-8.518,14.92-9.055,33.523
			c-1.255,5.102-1.329,8.309,1.158,13.414c11.938,3.367,9.784,3.934,20.901-5.963c1.653-1.471,34.931-23.32,36.174-29.254
			c2.007-4.748,1.281-3.527-1.639-18.338c-0.523-3.361,11.233-8.518,9.586-11.357C435.991-151.922,430.253-230.311,432.704-252.176z
			"/>
	</g>
</g>
<g id="Layer_24">
	<g>
		<path fill-rule="evenodd" clip-rule="evenodd" fill="#D14C43" d="M213.14,160.965c12.885,13.462,27.399,49.727,46.797,53.316
			c35.232,6.52,106.928-18.151,141.692-19.464c22.346-0.841,38.331-27.128,49.782-42.991c-9.867-3.725-24.118-8.367-34.312-9.862
			c-21.758-3.188-28.402-18.604-29.793-36.293c-0.714-9.077,3.867-18.952,7.691-27.989c3.41-8.052,7.463-15.672,8.2-24.451
			c1.401-16.713-0.858-31.604-15.638-41.652c-15.695-10.669-30.045-15.301-48.006-8.121c-12.75,5.096-22.295,17.152-23.961,30.066
			c-0.626,4.857-0.708,6.104-3.386,10.736c-11.679,20.203-1.143,9.8-1.143,41.64c0,9.702,0.642,14.938,11.999,14.938
			c16.882,0,13.332,4.391,9.746,19.729c-0.26,1.111-4.246,2.282-4.5,3.512c-4.135,20.125-52.845,18.746-65.348,22.121
			C246.211,150.721,228.735,152.552,213.14,160.965z"/>
		<path fill-rule="evenodd" clip-rule="evenodd" fill="#D14C43" d="M547.765,198.246c-1.603-3.593-13.134-20.979-20.97-21.697
			c0.011-0.001-13.458-6.73-21.386-5.413c-8.277-0.055-17.487-28.057-25.768-28.11c-4.744-3.607-7.494,25.682-11.063,30.019
			c-2.263,2.751-0.468,1.672-3.28,3.984c-3.404,5.515-4.516,3.181-10.481,7.054c-9.466,7.976-12.271,10.524-23.035,15.852
			c-0.04,0-0.079,0.021-0.12,0.057c-8.867,4.191-17.734,8.385-26.604,12.575c-10.357,2.015-18.019,9.943-28.058,12.759
			c-3.419,0.959-6.395,3.096-7.707,6.783c-2.308,2.347-4.853,5.104-8.088,5.117c-12.848,0.05-25.125,3.842-37.725,5.184
			c-10.992,1.172-17.122,6.383-16.887,17.621c0.266,12.608,2.798,25.258-1.619,37.678c-0.469,1.316-0.292,2.979-0.037,4.413
			c3.117,17.548,1.746,35.422,3.917,53.035c3.91,14.369,12.749,26.001,21.075,37.914c2.657,5.446,5.768,10.538,10.953,14.006
			c0,0,0-0.003-0.002-0.004l0.004,0.003c13.018,8.065,26.406,13.69,42.491,12.752c0.002,0,0.004,0.002,0.004,0.002
			c12.883,7.904,27.15,7.854,37.756-0.135c3.116-1.073,5.067-3.582,5.604-6.469c1.457-7.843,4.381-15.297,5.202-23.346
			c1.43-14.021-0.845-27.744-1.893-41.603c-1.938-25.592,5.316-49.991,10.938-74.505c4.779-20.835,9.208-41.664,10.482-63.052
			c0.598-2.972-1.223-6.892,1.946-8.739c2.532-1.478,3.48,2.17,5.263,3.344v-0.001l0,0l0.077-0.042
			c-0.877,6.213,1.479,11.42,5.052,16.248c1.078,16.013,2.188,16.854,18.262,16.074c7.079-0.343,45.463,0.267,50.479,0.092
			C537.147,237.535,553.854,211.892,547.765,198.246z"/>
		<path fill-rule="evenodd" clip-rule="evenodd" fill="#D14C43" d="M149.681,273.141c2.078,27.704,7.748,33.298,32.457,32.02
			c0,0-0.002-0.002-0.004-0.002c0.002,0,0.002,0,0.002,0c2.236,0.717,4.473,1.434,6.707,2.149
			c10.27,4.564,17.492,13.179,26.249,19.755c5.329,3.155,10.112,6.611,7.678,14.018c2.612-1.668,3.592-4.174,3.668-7.145
			c4.929-3.931,4.893-4.151-2.065-12.398c-6.171-9.374-16.234-16.331-17.75-28.594c-2.871-3.709,3.447-11.244-5.221-12.534
			c-6.041-4.687-11.338-10.114-16.084-16.092c-2.129-6.313-5.684-11.705-10.518-16.27v-0.002
			c-5.551-17.972-9.719-37.462-25.561-48.489c-1.615-2.932-4.416-3.128-7.289-3.152c-6.635,10.714-13.199,25.627-8.037,37.521
			C140.743,248.808,144.622,251.342,149.681,273.141z"/>
		<path fill-rule="evenodd" clip-rule="evenodd" fill="#D14C43" d="M228.128,734.021c-1.484-1.577-2.728-3.503-5.224-3.616
			c-7.894-8.441-20.515-10.992-26.769-21.478v-0.003l0.096-0.055c0.104-4.621-5.062-6.424-5.693-10.65l-0.002,0.002v-0.002
			c0.023-3.496,0.045-6.99,0.066-10.482c-0.996-3.226-3.514-4.023-6.311-3.27c-8.34,2.246-16.793,3.151-25.408,3.094
			c-3.51-0.023-5.367,2.065-5.477,5.611c0.002,0,0.002,0,0.002,0l0,0c-0.598,3.284-2.688,5.404-5.459,6.992
			c-3.725,9.725-5.973,19.721-5.492,30.209c-5.621,3.94-28.709,42.241-23.076,48.02c2.787,3.176,6.545,4.006,10.461,3.89
			c17.752-0.526,32.635-6.004,39.365-24.263c1.998-5.422,4.877-7.886,10.617-5.763h0.002l-0.002,0.001
			c5.324,3.885,11.434,6.576,17.699,7.631c7.285,1.227,15.312,3.49,21.699-3.218C220.601,755.224,231.022,731.84,228.128,734.021z"
			/>
		<path fill-rule="evenodd" clip-rule="evenodd" fill="#D14C43" d="M444.56,580.795c-0.153-5.869,0.045-11.764-0.455-17.603
			c-0.288-3.349-2.736-7.714-5.926-3.577c-4.791,6.213-7.092,9.623-12.018,15.391c-5.99-0.148-4.555,5.154-10.416,5.389
			c-4.586-0.355-10.077-0.51-10.343,5.32c-0.637,13.955-3.233,28.322,4.812,41.33c0,0,0,0.006,0.002,0.008
			c-1.467,9.82,4.979,18.189,5.178,27.627c0.306,14.471,0.131,28.953,0.158,43.43c-4.022,3.131-7.718,6.574-10.394,10.979
			c-2.362,2.812-2.999,6.315-3.893,9.72c-1.848,7.057-0.186,10.713-7.927,8.396c-3.063-0.917-6.219-1.53-9.333-2.281v-0.001
			c-6.379-6.047-7.676-0.494-9.389,4.111c-0.249,4.414-0.475,8.83-0.754,13.24c-0.288,4.526-0.484,8.991,4.338,11.594
			c-0.025,3.229,1.064,7.039-0.26,9.598c-8.197,15.841,14.582,25.664,14.854,25.774c12.068,8.238,17.438,8.149,27.871-0.209
			l-0.045,0.122c10.763-3.179,12.386-12.986,10.231-23.404c-4.41-21.34-6.499-42.351-0.817-64.7
			c-2.908,11.444,9.793-47.509,13.04-61.671C447.404,631.551,444.674,585.184,444.56,580.795z"/>
		<path fill-rule="evenodd" clip-rule="evenodd" fill="#FFFFFF" d="M448.739,207.175c-0.145,1.173-3.236,23.792-3.982,34.091
			c-1.324,18.268-11.572,34.879-11.121,53.707c0.041,1.835-1.347,3.899-2.462,5.656c-1.141,1.797-1.956,3.675-1.967,5.816
			c-0.083,14.785-3.403,29.49-1.729,44.277c1.267,11.166,0.954,22.36,1.696,33.47c0.812,12.14-6.002,20.903-9.819,31.108
			c-11.295,4.479-22.613,11.25-34.294,0.801c-14.688-0.541-28.433-4.158-40.794-12.369c-5.625-2.729-9.512-7.094-12.038-12.739
			c-8.286-11.522-15.734-23.456-18.312-37.738c-2.08-23.243-6.289-46.455-1.41-69.87c0.733-3.518-0.004-7.1-0.565-10.635
			c-0.799-5.015-1.05-10.065-0.062-15.082c1.004-5.107,3.881-8.868,9.113-9.817c11.391-2.067,45.892-7.631,50.703-11.521
			c9.756-9.724,52.123-29.954,61.465-33.461c5.324-2.985,13.107-10.749,17.121-5.44
			C451.769,199.396,449.046,204.728,448.739,207.175z M466.097,188.106c4.421-6.446,9.317-11.36,11.955-18.356
			c-0.011-1.112,2.332-6.952,2.414-6.988c2.877-1.297,10.258-6.082,12.219-5.762c-0.578-1.157-1.16-2.316-1.738-3.475
			c0.856-10.632-5.369-16.133-14.271-19.691c-2.909-2.501-6.048-4.785-8.67-7.557c-3.389-3.586-14.574,1.88-14.838,5.862
			c-0.039,0.59-2.58,7.182-5.115,9.011c-1.084,0.753-5.8,17.203-5.498,24.932c-0.598,0.607-8.994,1.869-12.596,1.893
			c-1.81,0.009-67.031,23.099-72.718,24.886c-26.958,8.476-44.875,13.767-72.924,4.966c-9.751,1.425-24.362-13.352-37.158-23.431
			c-0.685-0.537-29.299-13.252-29.299-13.252c-6.909-15.661-30.175-18.57-15.681-24.768c6.953-2.974,12.94-2.987,8.777-15.624
			c-2.736-8.308-1.715-20.007-5.389-24.289c-10.668-12.438-7.4-24.377-16.379-35.588c-11.771-14.703-20.939-18.951-38.334-11.769
			c-14.096,5.822-22.125,3.654-32.801,16.817c-15.688,19.343-16.307,29.9-4.215,47.45c4.041,5.862,8.277,10.06,9.248,19.314
			c1.016,9.712,10.02,14.059,16.393,15.994c4.172,1.269,5.025,0.012,8.932,5.11c3.723,4.859-2.127,10.923-5.168,14.332
			c0,0-5.787,37.619,8.434,47.873c14.385,11.196,13.055,17.389,19.727,33.779c4.807,4.588,8.785,9.681,10.047,16.423
			c4.518,7.019,11.607,11.67,16.717,18.144c4.426,2.216,4.119,6.298,4.092,10.258c0.223,4.607,2.107,8.585,5.125,11.947
			c4.889,5.449,9.548,11.068,13.838,16.984c2.076,2.961,6.679,5.057,3.725,9.893c0.344,2.855,0.018,5.521-2.177,7.654
			c-7.596,16.473-19.364,29.894-31.501,43.041c-10.438,9.162-18.072,20.93-28.521,30.196c-5.191,4.601-1.076,9.672,3.443,13.382
			c8.662,7.106,10.775,14.68,6.957,24.951c-2.092,5.623-37.156,13.554-42.834,14.85c-8.275,1.892-20.133,5.949-19.934,5.812
			c-7.158-0.433-18.258,24.929-18.258,24.929s-5.498,24.281-3.184,26.74c6.514,6.922,5.748,13.123,0.264,20.441
			c-6.041,8.06-22.182,18.697-22.186,18.7c-2.32,0.438-4.748,0.573-6.943,1.36c-16.832,6.035-6.291,47.351-1.111,46.115
			c5.674-1.353,8.5,0.731,8.564,6.639c0.061,5.816,2.25,10.955,5.387,15.744v-0.003v0.003c1.721,3.415,3.244,6.948,5.195,10.229
			c13.531,22.781,33.74,55.874,59.182,61.265c9.52,2.018,13.09,22.615,10.66,31.953c4.6,2.229,7.055-1.135,9.789-3.779
			c7.215-9.364,18.717,0.129,20.105,2.277c11.459,44.316,32.891,63.507,61.685,51.919c1.135,1.739,3.246-0.546,3.493,1.186
			c0.694,4.882,0.007,8.849,2.776,8.774c5.674-0.153,7.648-4.631,5.673-10.506c-1.716-5.107,1.377-6.352,5.754-5.492
			c2.867,0.564,5.672,1.453,8.506,2.199c3.635,2.315,7.27,4.631,10.905,6.949v-0.002l0,0c2.945,1.633,4.785,5.125,8.676,5.168
			c2.566,2.062,5.237,3.898,8.725,3.879c11.23-0.062,22.467,0.051,33.688-0.288c4.751-0.144,9.317-1.646,13-4.998
			c2.937-0.737,5.882-1.685,5.602-5.464c-0.264-3.572-2.564-5.936-5.955-6.679c-4.527-0.994-9.158-1.528-13.746-2.259
			c-0.392-0.334-0.797-0.48-1.22-0.467c-11.165-4.332,9.972-41.1,14.343-46.367c2.828-3.412,21.812-12.002,27.629-8.201l0,0
			c0.551,1.252,1.101,2.504,1.651,3.758c3.159-0.279,6.294-1.658,9.476-0.207c20.713,3.61,20.713,3.61,28.217-15.979
			c0.211-0.554,10.952-9.349,12.759-15.989c0.673-3.795,0.459-7.648,0.683-11.475c1.141-19.559-0.702-38.814-5.669-57.783
			c-4.833-9.133-8.013-18.414-6.999-29.178c0.607-6.446,2.277-10.762,8.64-12.602c5.905-1.57,18.439-8.693,19.146-9.677
			c3.065-4.277,7.983-7.532,12.421-6.86c4.077,0.616,9.185-12.926,9.39-27.594c0.144-10.289,6.359-30.585,6.746-30.949
			c3.014-17.523,6.211-34.869,5.915-52.935c-0.765-46.667,0.765-93.385-4.085-139.932c2.426-2.365,4.854-4.731,7.279-7.097
			c4.387-1.69,6.906-4.924,7.85-9.467c1.377-6.987-4.327-11.516-6.068-17.427c0.861-10.943-4.967-20.726-5.406-31.498
			c-0.248-6.046,1.236-21.19-1.401-31.018c-1.294-5.336-7.789-8.978-6.728-14.937C462.023,201.764,463.415,192.019,466.097,188.106z
			"/>
		<path fill-rule="evenodd" clip-rule="evenodd" fill="#FFFFFF" d="M166.28,523.104c0.084,1.238,0.008,2.266-0.613,2.801
			C165.843,524.967,166.087,524.041,166.28,523.104c-0.078-1.154-0.295-2.488-0.346-3.781
			c-2.34-57.709,37.777-115.422,42.111-173.008c1.102-14.621,0.723-29.566,4.66-43.963c1.289-7.275-3.359-12.15-7.818-16.205
			c-8.631-7.848-11.838-21.369-25.203-24.203c-0.088,1.787,0.227,3.707-0.32,5.344c-14.861,44.684-11.709,88.648-26.469,133.34
			c-5.604,16.971-28.822,34.146-19.875,51.734c3.258,6.402-16.564,12.549-20.229,19.09c-12.213,21.814-2.244,44.855-16.244,65.648
			c-4.111,6.109-2.082,7.717,3.4,10.777c7.115,3.973,15.744,8.348,19.299,14.938c7.379,13.68,0.691,24.67,2.986,40.166
			C124.19,616.174,171.159,499.555,166.28,523.104z"/>
	</g>
</g>
<g id="Layer_0-0_copy">
	<g>
		<path fill-rule="evenodd" clip-rule="evenodd" fill="#D14C43" d="M427.752,957.629c-12.473,13.031-26.523,21.083-45.301,24.559
			c-34.104,6.311-67.439,0.465-101.092-0.805c-21.633-0.814-32.598-16.342-43.684-31.699c9.551-3.605,18.84-9.002,28.707-10.449
			c21.062-3.086,27.494-18.01,28.84-35.133c0.691-8.789-4.645-18.348-8.348-27.097c-3.301-7.795-8.127-15.172-8.838-23.67
			c-1.357-16.18,0.83-32.4,15.137-42.127c15.193-10.328,33.596-14.812,50.982-7.863c15.934,6.371,21.018,23.443,25.57,38.6
			c4.18,13.908,2.053,28.499,1.107,43.017c-0.609,9.372-3.705,12.307-11.615,14.459c-16.914,4.602-14.109,4.891-10.49,22.5
			c4.004,19.482,18.691,18.148,30.793,21.414C395.736,947.713,412.654,949.484,427.752,957.629z"/>
	</g>
</g>
</svg>
